<svg xmlns="http://www.w3.org/2000/svg" width="375" height="250" viewBox="0 0 1560 1040"><path fill="#fad201" d="M0 0h1560v1040H0z"/><path fill="#00a3e0" d="M0 0h1560v520H0z"/><path fill="#20603d" d="M0 780h1560v260H0z"/><g transform="translate(1280 272)"><path fill="#e5be01" d="M0-168 6.79-51.56l36.69-110.72L19.9-48.04 84-145.49 31.66-41.25l87.13-77.54-77.54 87.13L145.49-84 48.04-19.9l114.24-23.58L51.56-6.79 168 0 51.56 6.79l110.72 36.69L48.04 19.9 145.49 84 41.25 31.66l77.54 87.13-87.13-77.54L84 145.49 19.9 48.04l23.58 114.24L6.79 51.56 0 168-6.79 51.56l-36.69 110.72L-19.9 48.04-84 145.49l52.34-104.24-87.13 77.54 77.54-87.13L-145.49 84l97.45-64.1-114.24 23.58L-51.56 6.79-168 0l116.44-6.79-110.72-36.69L-48.04-19.9-145.49-84l104.24 52.34-77.54-87.13 87.13 77.54L-84-145.49l64.1 97.45-23.58-114.24L-6.79-51.56z"/><circle r="49" fill="none" stroke="#00a3e0" stroke-width="6"/></g></svg>