<svg xmlns="http://www.w3.org/2000/svg" width="417" height="250" viewBox="0 0 550.469 330.281"><path fill="red" d="M0 0h550.469v330.281H0Z"/><path fill="#ff0" fill-rule="evenodd" d="m289.497 100.879 1.857-35.797a.318.318 0 0 0-.628-.087l-9.179 34.502a4.044 4.044 0 1 0 7.95 1.382m9.882 3.02 7.47-35.058a.319.319 0 0 0-.607-.186l-14.497 32.627a4.045 4.045 0 1 0 7.633 2.617m9.283 4.539 12.895-33.445a.318.318 0 0 0-.57-.278l-19.451 29.937a4.044 4.044 0 1 0 7.127 3.786m8.453 5.934 17.969-31.015a.318.318 0 0 0-.52-.364l-23.896 26.525a4.044 4.044 0 1 0 6.447 4.854m7.424 7.176 22.577-27.84a.317.317 0 0 0-.022-.427.318.318 0 0 0-.435-.014l-27.733 22.483a4.043 4.043 0 0 0-.255 5.953 4.042 4.042 0 0 0 5.868-.155m6.217 8.243 26.635-23.987a.318.318 0 0 0-.382-.506l-30.895 17.893a4.045 4.045 0 1 0 4.642 6.6m4.854 9.117 30.06-19.525a.318.318 0 0 0-.299-.56l-33.313 12.84a4.045 4.045 0 1 0 3.552 7.245m3.361 9.77 32.758-14.549a.318.318 0 0 0-.206-.6l-34.92 7.435a4.044 4.044 0 1 0 2.367 7.714m1.78 10.18 34.641-9.212a.32.32 0 0 0-.11-.626l-35.654 1.846a4.044 4.044 0 1 0 1.123 7.991m.173 10.322 35.65-3.722a.318.318 0 0 0-.011-.634l-35.508-3.712a4.045 4.045 0 1 0-.13 8.068zm-1.427 10.225 35.797 1.857a.318.318 0 0 0 .087-.63l-34.502-9.178a4.045 4.045 0 1 0-1.382 7.951m-3.02 9.881 35.058 7.47a.318.318 0 0 0 .185-.607l-32.626-14.497a4.045 4.045 0 1 0-2.617 7.634m-4.539 9.283 33.445 12.894c.15.06.323-.004.399-.15a.319.319 0 0 0-.12-.42l-29.938-19.451a4.044 4.044 0 1 0-3.785 7.127m-5.935 8.453 31.015 17.969a.318.318 0 0 0 .364-.52l-26.526-23.895a4.044 4.044 0 1 0-4.854 6.446m-7.175 7.424 27.84 22.577a.318.318 0 0 0 .441-.456l-22.483-27.734a4.044 4.044 0 1 0-5.798 5.613m-8.243 6.217 23.988 26.635a.318.318 0 0 0 .506-.382l-17.893-30.895a4.044 4.044 0 1 0-6.6 4.642m-9.118 4.854 19.525 30.06a.319.319 0 0 0 .56-.299l-12.84-33.313a4.045 4.045 0 1 0-7.245 3.552m-9.77 3.361 14.549 32.76a.32.32 0 0 0 .6-.207l-7.435-34.92a4.045 4.045 0 1 0-7.714 2.367m-10.18 1.78 9.212 34.64a.319.319 0 0 0 .625-.11l-1.845-35.653a4.044 4.044 0 1 0-7.99 1.123m-10.323.172 3.721 35.65a.318.318 0 0 0 .635-.01l3.712-35.51a4.044 4.044 0 1 0-8.069-.13zm-10.225-1.427-1.857 35.797a.318.318 0 0 0 .629.087l9.179-34.501a4.044 4.044 0 1 0-7.95-1.382m-9.882-3.02-7.47 35.058a.318.318 0 0 0 .607.185l14.496-32.627a4.045 4.045 0 1 0-7.633-2.617m-9.282-4.539-12.896 33.446c-.059.149.004.323.153.398.15.078.333.023.418-.12l19.451-29.938a4.044 4.044 0 1 0-7.126-3.786m-8.454-5.934-17.969 31.015a.318.318 0 0 0 .52.365l23.895-26.526a4.044 4.044 0 1 0-6.447-4.854m-7.423-7.176-22.577 27.841a.317.317 0 0 0 .022.426c.12.12.31.125.434.015l27.733-22.483a4.044 4.044 0 1 0-5.613-5.798m-6.216-8.244-26.635 23.987a.318.318 0 0 0 .382.507l30.895-17.893a4.045 4.045 0 1 0-4.642-6.601m-4.855-9.116L184.8 210.899a.317.317 0 0 0 .299.56l33.313-12.84a4.044 4.044 0 1 0-3.552-7.245m-3.361-9.772-32.759 14.55a.319.319 0 0 0 .207.6l34.919-7.435a4.045 4.045 0 1 0-2.367-7.715m-1.78-10.177-34.64 9.21a.318.318 0 0 0 .11.625l35.653-1.845a4.044 4.044 0 1 0-1.123-7.99m-.172-10.323-35.65 3.722a.318.318 0 0 0 .01.635l35.51 3.711a4.044 4.044 0 1 0 .13-8.068zm1.426-10.225-35.796-1.856a.318.318 0 0 0-.087.628l34.501 9.18a4.043 4.043 0 0 0 4.962-3.3 4.044 4.044 0 0 0-3.58-4.652m3.02-9.88-35.057-7.47a.318.318 0 0 0-.185.607l32.626 14.496a4.044 4.044 0 1 0 2.617-7.634m4.538-9.282-33.444-12.896a.318.318 0 0 0-.278.571l29.937 19.451a4.044 4.044 0 1 0 3.785-7.127m5.935-8.452-31.015-17.97a.317.317 0 0 0-.418.089.317.317 0 0 0 .054.431l26.525 23.896a4.044 4.044 0 1 0 4.854-6.446m7.176-7.425L203.8 93.26a.318.318 0 0 0-.44.457l22.482 27.733a4.042 4.042 0 0 0 5.953.254 4.044 4.044 0 0 0-.154-5.867m8.243-6.217-23.988-26.635a.318.318 0 0 0-.506.383l17.893 30.894a4.045 4.045 0 1 0 6.6-4.642m9.118-4.854-19.525-30.06a.318.318 0 0 0-.56.3l12.839 33.312a4.043 4.043 0 0 0 5.585 2.077 4.043 4.043 0 0 0 1.66-5.63m9.771-3.36-14.549-32.758a.318.318 0 0 0-.6.206l7.435 34.92a4.044 4.044 0 1 0 7.714-2.367m10.18-1.78-9.212-34.641a.318.318 0 0 0-.625.11l1.845 35.654a4.044 4.044 0 1 0 7.991-1.123m10.322-.172-3.722-35.651a.318.318 0 0 0-.635.011l-3.711 35.509a4.044 4.044 0 1 0 8.069.13zm-4.039 4.287c33.91 0 61.401 27.49 61.401 61.401 0 33.91-27.49 61.4-61.4 61.4s-61.401-27.49-61.401-61.4 27.49-61.4 61.4-61.4m0 7.36c29.846 0 54.04 24.194 54.04 54.04 0 29.845-24.194 54.04-54.04 54.04-29.845 0-54.04-24.195-54.04-54.04 0-29.846 24.195-54.04 54.04-54.04m-45.122 70.26c5.525-11.557 13.16-21.768 21.99-30.358 1.38.906 2.747 1.846 4.1 2.82-9.272 8.863-17.353 19.831-23.45 33.27a48.09 48.09 0 0 1-2.64-5.733m48.934-27.893a105.679 105.679 0 0 1 3.705 3.256 107.624 107.624 0 0 1 3.942-3.083 113.539 113.539 0 0 0-3.697-3.204 115.18 115.18 0 0 0-3.95 3.031m-7.852-5.992c1.363.946 2.71 1.926 4.04 2.942a110.713 110.713 0 0 1 4.04-2.942 114.86 114.86 0 0 0-4.04-2.948 114.947 114.947 0 0 0-4.04 2.948m.363 12.552a104.75 104.75 0 0 1 3.677 3.484 105.107 105.107 0 0 1 3.678-3.484 113.478 113.478 0 0 0-3.678-3.364 114.32 114.32 0 0 0-3.677 3.364m-7.78-6.387c1.33.991 2.645 2.02 3.941 3.083a106.005 106.005 0 0 1 3.705-3.255 115.032 115.032 0 0 0-3.95-3.032 114.597 114.597 0 0 0-3.697 3.204m24.174-11.622a116.23 116.23 0 0 0-4.061-2.963c-1.558.89-3.104 1.822-4.636 2.797a112.29 112.29 0 0 1 4.152 2.889c1.5-.947 3.016-1.854 4.545-2.723m7.153 5.931a115.724 115.724 0 0 0-3.658-3.156 114.39 114.39 0 0 0-4.347 2.768 106.114 106.114 0 0 1 3.744 3.13 114.04 114.04 0 0 1 4.261-2.742m-24.737-11.421a113.827 113.827 0 0 1 4.868-2.947c1.637.935 3.26 1.918 4.87 2.947a116.757 116.757 0 0 0-4.87 2.782 117.057 117.057 0 0 0-4.868-2.782m-7.847 5.49a116.21 116.21 0 0 1 4.06-2.963c1.558.89 3.105 1.822 4.637 2.797-1.4.927-2.783 1.89-4.151 2.889a114.84 114.84 0 0 0-4.546-2.723m-7.153 5.931a115.388 115.388 0 0 1 3.658-3.156c1.46.884 2.911 1.808 4.347 2.768a106.114 106.114 0 0 0-3.744 3.13 114.051 114.051 0 0 0-4.261-2.742m-22.545-7.061a107.969 107.969 0 0 1 14.849 7.346c-7.491 7.14-14.209 15.65-19.737 25.723a48.481 48.481 0 0 1-1.018-9.905c0-8.394 2.141-16.287 5.906-23.164m4.107-6.286c5.891 1.904 11.82 4.462 17.622 7.62-1.249 1.001-2.481 2.035-3.696 3.102a123.236 123.236 0 0 0-16.23-7.463 48.232 48.232 0 0 1 2.304-3.259m5.152-5.698c6.66 1.747 13.431 4.356 20.065 7.753-1.399.936-2.784 1.907-4.152 2.915-6.138-3.143-12.442-5.701-18.762-7.743a48.911 48.911 0 0 1 2.849-2.925m7.514-5.812c.142.052.29.105.449.158l.53.136c6.783 1.765 13.682 4.427 20.437 7.903-1.716.937-3.416 1.921-5.099 2.953-6.537-3.183-13.238-5.723-19.929-7.695a46.91 46.91 0 0 1-.85-.292 48.655 48.655 0 0 1 4.462-3.163m47.162-2.31c-.26.082-.45.145-.507.167-7.057 2.056-14.131 4.74-21.015 8.146-6.752-3.341-13.689-5.988-20.613-8.029l-.402-.117a5.967 5.967 0 0 1-.52-.16 48.112 48.112 0 0 1 21.536-5.058 48.092 48.092 0 0 1 21.521 5.05m8.626 5.511c-.18.054-.345.102-.486.135-6.827 1.988-13.668 4.566-20.338 7.815a116.309 116.309 0 0 0-5.1-2.953c6.932-3.567 14.015-6.276 20.968-8.04.171-.027.343-.067.512-.118a48.392 48.392 0 0 1 4.444 3.161m5.856 5.537c-6.32 2.042-12.624 4.6-18.763 7.743a111.711 111.711 0 0 0-4.152-2.915c6.635-3.397 13.405-6.006 20.066-7.753.99.935 1.94 1.911 2.849 2.925m4.607 6.032a123.154 123.154 0 0 0-16.23 7.463 106.98 106.98 0 0 0-3.696-3.102c5.8-3.158 11.731-5.716 17.622-7.62a47.987 47.987 0 0 1 2.304 3.26m6.69 36.095c-5.526-10.072-12.245-18.583-19.736-25.723a107.969 107.969 0 0 1 14.849-7.346 48.106 48.106 0 0 1 5.906 23.164c0 3.395-.352 6.708-1.019 9.905m-4.819 13.136c-6.096-13.439-14.177-24.407-23.449-33.27 1.353-.974 2.72-1.914 4.099-2.82 8.83 8.59 16.467 18.8 21.992 30.357a48.045 48.045 0 0 1-2.642 5.733m-7.526 10.318c-5.886-15.172-14.18-27.45-23.91-37.284a114.947 114.947 0 0 1 3.887-3.21c10.07 9.902 18.55 21.929 24.066 35.662a48.51 48.51 0 0 1-4.043 4.832m-9.121 7.478-.643-1.726c-5.336-14.413-12.82-26.272-21.645-35.949a114.44 114.44 0 0 1 3.683-3.64c10.105 10.547 18.41 23.316 23.404 37.845a48.573 48.573 0 0 1-4.799 3.47m-46.751 2.732.617-1.93c4.452-13.076 11.583-24.73 20.3-34.633 8.716 9.903 15.847 21.557 20.298 34.632l.633 1.924a48.124 48.124 0 0 1-20.931 4.757 48.126 48.126 0 0 1-20.917-4.75m-9.717-6.202c4.995-14.53 13.298-27.298 23.404-37.845a114.44 114.44 0 0 1 3.683 3.64c-8.825 9.677-16.309 21.536-21.645 35.95l-.64 1.727a48.462 48.462 0 0 1-4.802-3.472m-8.366-8.84c5.517-13.733 13.997-25.76 24.067-35.662a115.848 115.848 0 0 1 3.887 3.21c-9.73 9.833-18.024 22.112-23.91 37.284a48.636 48.636 0 0 1-4.044-4.832"/></svg>