<svg xmlns="http://www.w3.org/2000/svg" xmlns:xlink="http://www.w3.org/1999/xlink" width="500" height="250" fill="#fedd00" viewBox="0 0 120 60"><defs><clipPath id="a"><path d="M0 0h120v60H0z"/></clipPath><clipPath id="b"><path d="M0 0v15h62v16zm0 30v1h30V0h30z"/></clipPath><path id="c" d="m0-5.257 3.09 9.51L-5-1.625H5l-8.09 5.878z"/><path id="d" d="m0 5.257-3.09-9.51L5 1.625H-5l8.09-5.878z"/></defs><path fill="#012169" d="M0 0h120v60H0z"/><g fill="none" stroke="#c8102e" stroke-width="6" clip-path="url(#a)"><path stroke="#fff" d="m0 0 60 30M0 30 60 0"/><path stroke-width="4" d="m0 0 60 30M0 30 60 0" clip-path="url(#b)"/><path stroke="#fff" stroke-width="10" d="M30 0v31M0 15h62"/><path d="M30 0v31M0 15h62"/></g><path fill="#009cde" d="M60 0h60v60H0V30h60z"/><use xlink:href="#c" x="65.5" y="54"/><use xlink:href="#d" x="78" y="38.5"/><use xlink:href="#d" x="78" y="51"/><use xlink:href="#d" x="90.5" y="21.5"/><use xlink:href="#d" x="90.5" y="47.5"/><use xlink:href="#d" x="101" y="17.5"/><use xlink:href="#c" x="101" y="38.5"/><use xlink:href="#c" x="111.5" y="8"/><use xlink:href="#c" x="111.5" y="32"/></svg>