<svg xmlns="http://www.w3.org/2000/svg" xmlns:xlink="http://www.w3.org/1999/xlink" width="375" height="250" viewBox="0 0 180 120"><defs><g id="d" transform="translate(0 -36)"><g id="c"><g id="b"><path id="a" fill="#fff" d="M0-5v5h3z" transform="rotate(18 0 -5)"/><use xlink:href="#a" transform="scale(-1 1)"/></g><use xlink:href="#b" transform="rotate(72)"/></g><use xlink:href="#b" transform="rotate(-72)"/><use xlink:href="#c" transform="rotate(144)"/></g></defs><path fill="#cf142b" d="M0 0h180v120H0Z"/><path fill="#00247d" d="M0 80h180V0H0Z"/><path fill="#fc0" d="M0 0h180v40H0Z"/><g stroke-width=".963" transform="translate(0 .242)"><use xlink:href="#d" width="100%" height="100%" transform="rotate(-70 105.507 -23.474) scale(1.0384)"/><use xlink:href="#d" width="100%" height="100%" transform="rotate(-45.934 147.37 -62.402) scale(1.0384)"/><use xlink:href="#d" width="100%" height="100%" transform="rotate(-30 205.59 -127.04) scale(1.0384)"/><use xlink:href="#d" width="100%" height="100%" transform="rotate(-10 537.7 -472.587) scale(1.0384)"/><g transform="matrix(-1 0 0 1 180.051 0)"><use xlink:href="#d" width="100%" height="100%" transform="rotate(-70 105.507 -23.474) scale(1.0384)"/><use xlink:href="#d" width="100%" height="100%" transform="rotate(-45.934 147.37 -62.402) scale(1.0384)"/><use xlink:href="#d" width="100%" height="100%" transform="rotate(-30 205.59 -127.04) scale(1.0384)"/><use xlink:href="#d" width="100%" height="100%" transform="rotate(-10 537.7 -472.587) scale(1.0384)"/></g></g></svg>