<svg xmlns="http://www.w3.org/2000/svg" width="399" height="250" version="1" viewBox="0 0 640 400"><path fill="#fff" d="M0 0h640v401.383H0z"/><path d="M588.678 81.4l.911-7.809-2.215 7.623c-4.627 15.923-17.801 29.501-31.292 32.25-10.035 2.046-18.887 5.286-22.395 8.197-2.195 1.821-3.014 1.755-5.444-.444-1.844-1.67-5.658-2.589-10.735-2.589-6.962 0-8.291.564-11.471 4.865-1.979 2.676-3.992 4.47-4.473 3.989-.482-.482.023-1.96 1.122-3.285 1.462-1.76 1.5-2.408.145-2.408-1.02 0-2.832 2.338-4.026 5.197-2.685 6.426-9.974 13.067-13.55 13.067-10.997-3.864-12.444-21.005-25.024-21.908-4.255.215-4.256.218-.32.934 5.447.991 7.523 6.735 14.47 15.59 43.764 55.784 104.828 6.965 114.297-53.27z" fill="red"/><path d="M326.506 347.168c-69.119.952-159.692-46.3-187.552-113.01-2.66-7.62-6.527-14.716-9.492-22.208-8.862-13.09-17.33-27.68-28.483-38.972-26.127-26.566-50.866-58.385-52.44-97.022.084-3.103 1.074.68 2.334 8.396 10.393 63.494 72.095 105.819 116.144 51.765 2.93-3.596 5.603-8.927 7.348-10.883 3.217-3.604 8.944-4.869 8.944-1.975 0 .87-1.766 1.58-3.924 1.58-3.142 0-4.754 1.639-8.088 8.217-3.851 7.6-19.992 23.963-22.966 24.969-2.48.838-.834 2.81 5.348 6.054 13.835 7.259 18.618 10.432 33.023 21.905 15.386 12.746 33.552 22.79 54.04 23.238 18.425-3.853 30.059-4.245 41.263 6.536 5.909 5.685 17.74 7.057 37.995 7.057 20.256 0 31.95-1.517 37.996-7.057 11.763-10.781 22.838-10.389 41.263-6.536 20.883-.11 38.183-10.992 54.04-23.238 14.405-11.473 19.188-14.646 33.023-21.905 6.182-3.244 8.665-6.054 5.348-6.054-3.14 0-19.115-17.369-22.966-24.969-3.334-6.578-4.947-8.217-8.088-8.217-2.158 0-3.924-.71-3.924-1.58 0-2.894 5.726-1.63 8.944 1.975 1.745 1.956 5.051 6.853 7.347 10.883 49.355 59.106 107.282 2.56 117.122-51.765 1.202-7.726 2.251-11.499 2.335-8.396-1.718 38.54-28.182 70.168-53.419 97.021-10.706 11.919-20.555 24.98-28.483 38.973-3.444 7.276-6.129 14.905-9.492 22.208-34.611 66.157-99.734 114.246-174.54 113.01z" fill="red"/><path d="M267.062 213.427c1.468-6.27-8.971-3.693-5.448 1.411 1.511 2.426 5.758 1.92 5.448-1.411zM378.75 213.964c1.715-5.677-8.13-5.784-5.792.341.839 3.004 5.127 2.558 5.791-.341z" fill="#fff"/><path d="M51.521 81.29l-.91-7.809 2.215 7.623c4.627 15.924 17.801 29.501 31.291 32.25 10.036 2.046 18.888 5.286 22.396 8.197 2.195 1.822 3.014 1.755 5.444-.444 1.844-1.67 5.658-2.589 10.735-2.589 6.962 0 8.291.564 11.471 4.865 1.978 2.676 3.991 4.471 4.473 3.99.482-.483-.023-1.96-1.123-3.286-1.461-1.76-1.5-2.408-.144-2.408 1.02 0 2.831 2.339 4.026 5.197 2.685 6.426 9.974 13.067 13.55 13.067 10.997-3.864 12.444-21.005 25.024-21.908 4.255.215 4.256.218.319.934-5.446.992-7.522 6.735-14.469 15.59-43.765 55.784-104.828 6.965-114.298-53.27z" fill="red"/><path d="M125.433 154.1c5.532-4.19 2.056-7.164-8.05-6.889l-9.136.248 7.901.937c4.346.516 7.682 1.648 7.414 2.517-.268.87-1.69 1.381-3.16 1.138-1.47-.243-5.518-.764-8.994-1.157l-6.321-.714 5.53 1.684c3.042.927 6.598 2.295 7.902 3.04 3.185 1.82 3.496 1.784 6.914-.804zM105.087 146.963c0-3.56-7.72-3.09-8.414.513-.449 2.332.303 2.786 3.93 2.37 2.703-.31 4.484-1.454 4.484-2.883z" fill="#fff"/><path d="M99.984 147.588c.525-.525 1.888-.58 3.029-.124 1.26.504.886.878-.955.954-1.666.069-2.6-.305-2.074-.83zM115.06 131.485c-.548-4.73-6.023-7.152-6.023-2.665 0 1.447-1.422 4.44-3.16 6.65-4.698 5.972-3.883 6.814 3.257 3.364 5.44-2.628 6.343-3.748 5.926-7.349zM88.467 133.483c-3.733-6.646-4.019-12.263-.763-14.965 2.83-2.349 3.064-1.067.54 2.973-1.074 1.72-1.308 4.158-.568 5.904 1.08 2.55 1.42 2.277 2.368-1.903.608-2.684 1.571-5.632 2.14-6.551 1.502-2.431-3.704-3.959-6.26-1.837-4.241 3.52-.744 21.958 4.164 21.958.832 0 .102-2.511-1.621-5.58zM103.925 134.486c3.267-4.42 3.28-4.603.373-5.363-1.656-.433-3.303.026-3.66 1.02-.357.994-1.689 3.6-2.447 2.889-.76-.714.657-4.887 2.645-6.386 1.982-1.495 3.103-3.218 2.492-3.829-.611-.61-2.199-.228-3.528.85-2.014 1.636-2.252 1.523-1.43-.672 1.073-2.868-2.814-5.373-4.388-2.827-.514.83-.105 1.51.909 1.51 1.016 0 1.42 1.1.901 2.453-.539 1.405-.274 2.04.619 1.489.858-.53 1.448.321 1.312 1.893-.495 5.704.282 11.549 1.535 11.549.706 0 2.806-2.06 4.667-4.576zM92.74 126.796c-.395-1.51-.705.098-.687 3.574.017 3.477.341 4.713.72 2.747.377-1.966.363-4.81-.033-6.32zM127.436 127.21c-1.304-1.304-2.755-2.37-3.224-2.37-.47 0-.444 1.066.056 2.37.5 1.303 1.951 2.37 3.224 2.37 2.007 0 2-.314-.056-2.37zM521.109 154.998c1.509-.796 5.232-2.205 8.274-3.132l5.531-1.686-6.32.714c-3.477.393-7.525.914-8.995 1.157-1.47.243-2.892-.268-3.16-1.138-.269-.869 3.068-2.001 7.413-2.517l7.902-.937-9.136-.248c-10.106-.275-13.582 2.7-8.05 6.889 3.592 2.72 3.189 2.664 6.54.898zM543.308 147.376c-.612-3.178-5.616-4.613-7.95-2.28-2.376 2.377 0 5.027 4.506 5.027 2.923 0 3.834-.726 3.444-2.747z" fill="#fff"/><path d="M536.132 147.588c.526-.525 1.889-.58 3.03-.124 1.26.504.885.878-.956.954-1.666.069-2.599-.305-2.074-.83zM534.407 135.946c-1.894-2.562-3.443-5.805-3.443-7.208 0-4.436-5.483-1.914-6.026 2.772-.415 3.589.47 4.742 5.531 7.205 3.314 1.613 6.33 2.697 6.703 2.41.373-.287-.871-2.618-2.765-5.18zM542.276 134.716c.137-2.39.138-5.632.002-7.203-.136-1.572.454-2.424 1.312-1.893.893.552 1.157-.084.619-1.489-.52-1.352-.115-2.452.901-2.452 1.013 0 1.422-.68.909-1.511-1.574-2.546-5.462-.041-4.388 2.827.822 2.195.583 2.308-1.43.673-1.33-1.08-2.917-1.462-3.528-.85-.611.61.51 2.333 2.492 3.828 1.988 1.5 2.985 3.298 2.225 4.011-.758.711-1.67.48-2.027-.514-.357-.994-2.004-1.453-3.66-1.02-2.907.76-2.894.944.373 5.363 4.232 5.723 5.88 5.784 6.2.23zM553.837 134.4c2.999-5.8 3.126-14.901.24-17.296-2.556-2.122-7.762-.594-6.26 1.837.569.92 1.532 3.867 2.14 6.55.948 4.18 1.287 4.453 2.368 1.904.74-1.746.505-4.184-.569-5.904-2.523-4.04-2.29-5.322.541-2.973 3.256 2.702 2.97 8.32-.763 14.965-1.723 3.068-2.453 5.579-1.621 5.579.832 0 2.598-2.098 3.924-4.663zM547.852 126.796c-.396-1.51-.705.098-.688 3.574.018 3.477.342 4.713.72 2.747.378-1.966.363-4.81-.032-6.32zM515.733 127.21c.5-1.304.525-2.37.056-2.37-.47 0-1.92 1.066-3.224 2.37-2.056 2.056-2.063 2.37-.056 2.37 1.273 0 2.723-1.067 3.224-2.37z" fill="#fff"/></svg>