<svg width="417" height="250" viewBox="0 0 1000 600" xmlns="http://www.w3.org/2000/svg" xmlns:xlink="http://www.w3.org/1999/xlink"><g transform="scale(1.66667)"><path d="M0 0h600v360H0z" fill="#d90f19" fill-rule="evenodd"/><path d="M0 36h600v288H0z" fill="#171696" fill-rule="evenodd"/><g transform="matrix(.5 0 0 .5 92.785 29.189)"><circle cx="414.43" cy="301.623" fill="#fff" r="210"/><path d="M305.125 381.948c-.341 1.48-.909 3.533-1.14 6.156 0 .569-.568 3.646 1.14 3.758 1.255.115 1.596-3.192 1.596-3.192s-1.142 3.647.34 4.104c2.053.451 2.279-3.99 2.279-3.99-.228 1.255-1.596 4.447.343 4.783 2.05.345 2.62-4.33 2.62-4.33s-1.709 4.675.341 4.788c1.938.112 1.938-4.558 1.938-4.558s-1.027 5.585 1.708 5.13c1.478-.23 1.823-2.168 2.165-3.307.454-1.707 1.48-3.872.228-7.406-.91-2.62-.568-3.304-.568-3.304s-3.192 2.394-5.697 3.988c-1.143.683-7.296-2.621-7.296-2.621zm33.276-4.906c-.569-.344-.455 2.052-.683 3.188-.114 1.142.23 3.648 4.104 3.422 3.757-.344 7.52-1.14 9.912-.572 2.394.684 5.924.798 7.864.798 1.938 0 3.192-.226 4.1-.571.8-.339 2.508.459 3.304.459.8 0 2.051-1.255 1.937-2.053-.114-1.483-1.478-1.483-3.42-1.595-1.823-.227-4.328-.571-5.58-1.026-1.255-.457-3.533-1.71-6.382-2.28 0 0-5.469.23-6.606.23-1.142 0-7.865.34-8.55 0z" fill="#ad7d5a" stroke="#000" stroke-width=".57027074"/><path d="m320.055 385.14-.228-5.242 2.165 1.826.57-3.99c.91-.228 2.393 1.597 2.393 1.597l-.23-3.988 3.305 3.646s-.228-3.078.909-4.9c0 0 2.506 2.165 2.506 4.672 0 2.17 2.165-3.077 2.165-3.077l1.824 5.813 1.478-2.167 1.255 4.555 2.733-3.987 2.165 4.673 4.9-.344.572 2.736 2.164-2.393 2.85 1.823s2.391-.683 3.646-.683c1.254 0 2.735 1.594 2.735 1.594s.91-1.59 1.823-2.162c.91-.57 2.166.91 2.504 1.821l1.825-3.304s2.394 2.395 2.733 3.304c0 0 .343-2.732.913-3.646.571-.91 1.478.343 2.165 1.483l1.48-4.9s1.595.338 2.733 2.163c1.255 1.821 1.255-2.737 1.255-2.737s2.732 3.65 3.42 6.154m68.6-.912s.91-2.503 2.166-3.758c0 0 2.392 2.851 2.392 3.76 0 0 .683-.341 1.937-1.25l1.823 1.82 2.166-1.479 2.052 1.823 3.761-1.595 1.479 1.594 5.809-.681 2.169.909 2.05-2.617 1.937 2.048 3.076-3.074s1.48 1.249 1.822 2.164c0 0 2.507-1.255 3.078-2.164 0 0 2.39-.912 2.732.566 0 0 1.479-1.14 1.367-2.393-.116-1.252 1.708-.34 2.277 1.257 0 0 .684-2.51 2.51-2.739 0 0 1.25 1.483.907 4.219 0 0 2.735-2.163 3.99-2.393 0 0 .57 3.074-.341 5.813 0 0 2.85-4.674 3.418-3.078.228.91.911 3.99.228 6.152l2.507-1.595.911 3.08 2.733-.571m-128.033 9.28s2.051-3.416 3.304-4.33c0 0 2.733 2.168 3.645 4.901 0 0 .344-1.821 1.255-3.416 0 0 3.418 1.59 3.987 3.76 0 0 1.254-2.166 2.165-2.733.911-.688 1.824 2.39 1.824 4.214 0 0 2.165-2.281 3.42-2.394 0 0 2.392 1.139 3.075 5.13 0 0 2.281-2.166 3.077-1.826 0 0 2.734 1.826 2.05 4.33-.34 1.367 2.736-1.591 6.495-2.504l3.304 2.505s3.077-4.101 3.987-5.471c0 0 2.51.91 2.51 2.395 0 0 1.14-4.335 2.049-4.787.91-.569 2.164 1.367 2.164 2.621 0 0 .343-3.304 2.168-3.989 0 0 1.822 1.252 1.822 2.509 0 0 1.938-3.76 3.42-4.676" fill="none" stroke="#060" stroke-width=".57027074"/><path d="m320.055 385.14-.228-5.242 2.165 1.826.57-3.99c.91-.231 2.393 1.597 2.393 1.597l-.23-3.992 3.305 3.648s-.228-3.078.909-4.903c0 0 2.506 2.167 2.506 4.673 0 2.17 2.165-3.078 2.165-3.078l1.824 5.813 1.479-2.165 1.254 4.557 2.736-3.989 2.162 4.675 4.9-.344.571 2.733 2.164-2.391 2.85 1.822s2.393-.683 3.647-.683 2.735 1.598 2.735 1.598.91-1.598 1.822-2.173c.91-.565 2.168.915 2.505 1.826l1.825-3.304s2.392 2.395 2.733 3.304c0 0 .34-2.733.91-3.647.572-.91 1.48.344 2.166 1.483l1.478-4.9s1.598.34 2.734 2.166c1.252 1.822 1.252-2.733 1.252-2.733s2.733 3.645 3.416 6.15c0 0-18.866 6.478-32.172 4.707-15.662-2.085-28.56-5.047-28.56-5.047m129.342-.569s.91-2.508 2.167-3.763c0 0 2.392 2.853 2.392 3.763 0 0 .681-.341 1.937-1.254l1.822 1.822 2.167-1.478 2.053 1.82 3.757-1.596 1.48 1.596 5.812-.68 2.165.91 2.052-2.622 1.937 2.05 3.076-3.077s1.48 1.252 1.822 2.167c0 0 2.507-1.25 3.078-2.167 0 0 2.393-.91 2.732.57 0 0 1.482-1.142 1.37-2.391-.114-1.253 1.708-.344 2.278 1.25 0 0 .683-2.504 2.504-2.732 0 0 1.253 1.476.911 4.218 0 0 2.733-2.17 3.987-2.397 0 0 .571 3.077-.34 5.815 0 0 2.848-4.675 3.42-3.078.228.91.911 3.987.228 6.15l2.505-1.593.91 3.078 2.732-.571s-16.176 2.478-31.416 1.024c-15.242-1.453-29.543-6.835-29.54-6.835m-11.266 11.314c.74-.458-5.09 11.993-19.23 12.656-19.67.92-36.487-8.893-36.487-8.893s2.052-3.418 3.304-4.332c0 0 2.733 2.167 3.646 4.9 0 0 .343-1.824 1.254-3.417 0 0 3.419 1.59 3.987 3.76 0 0 1.255-2.166 2.168-2.733.91-.687 1.823 2.39 1.823 4.217 0 0 2.164-2.283 3.418-2.397 0 0 2.394 1.14 3.078 5.13 0 0 2.279-2.164 3.075-1.826 0 0 2.735 1.826 2.05 4.33-.341 1.37 2.734-1.59 6.496-2.503l3.304 2.504s3.075-4.1 3.987-5.472c0 0 2.509.915 2.509 2.397 0 0 1.14-4.331 2.05-4.786.91-.57 2.163 1.366 2.163 2.623 0 0 .344-3.306 2.167-3.99 0 0 1.824 1.252 1.824 2.51-.004-.003 1.933-3.764 3.416-4.678z" fill="#5ac800"/></g><g transform="matrix(.5 0 0 .5 92.788 29.189)"><g transform="matrix(.93334 0 0 .93334 -4.865 22.64)"><path d="M489.86 148.818s-1.464-.122-2.808-1.1l2.808 1.096" fill="#6f6"/><g fill="none"><path d="M489.862 148.818s-1.464-.122-2.808-1.1" stroke="#060" stroke-width=".611"/><path d="m458.24 172.992 1.588.978 1.708.244s1.832 1.708 3.908 3.297c1.584 1.344 1.584-.243 1.584-.243l.978 3.907h1.342s-.369 2.56-.369 3.903l2.32-1.956 2.682 2.322s1.953-1.707 2.93-1.707c.976 0 1.342-.98 1.342-.98h.12c-6.468-3.047-9.276-6.227-7.324-9.524 3.174-5.491 8.424-1.952 10.133-1.22l23.684 12.696s1.587-.972.486-1.951c-1.224-.976-1.71-3.417-1.341-4.392.363-.977 3.048 3.051 4.394 3.416 1.344.367 4.395.857 4.395.857l-.123-1.224s3.906 2.688 3.906 4.032c0 0 2.808-1.467 1.831-2.323-.974-.852 4.272 2.078 4.638 3.666l1.1-1.228c-.12 0 .37-3.907 1.713-5.738 1.222-1.83 2.563-2.32 2.563-2.32s1.222-2.076 2.441-2.076c0 0-1.22-.852-1.707-1.829-.61-.975-2.076-1.464-2.076-1.464s1.83-1.341 2.32-1.956c.488-.732.976-.852.976-.852s-2.808-2.32-4.76-2.688c0 0-.12-3.171-2.562-3.415h1.099s-1.83-3.416-3.54-3.54c0 0 1.1-1.222 2.076-1.34 0 0-2.076-2.688-4.884-1.71l1.836-.732s-1.344-1.467-5.496-.735c0 0 .365-1.704-1.464-3.051 0 0-1.587.12-1.587 1.346 0 0-1.464-1.346-3.296-1.346-1.83 0 .61 1.952.61 1.952s-2.44-1.584-3.906-1.1c0 0 .608-2.804-.976-4.271 0 0-1.832.974-2.322 2.198l-.488-1.224s-2.44 2.934-2.928 2.076c-.369-.483-.732-2.56-.732-2.56l-1.464 2.198.243-3.055s-1.707.978-3.05 4.154c0 0-1.711 1.584-1.711 3.05 0 0-1.34-1.584-2.561 0-1.1 1.71 0 1.344 0 1.344s-.49.609-1.71.855l.247.975s-1.589-.852-2.808-.486l.608 1.462s-3.174.246-3.296-2.316c0 0-2.684-1.344-3.052.12 0 0-2.198 0-1.953 1.22 0 0-.612-1.221-1.711-1.464-1.22-.368-.244 1.584-.244 1.584s-.364-1.464-1.829-2.198c-1.464-.606-.246 1.344-.246 1.344s-1.951-1.586-.972-2.808c0 0-1.832 1.71-.977 3.3l-1.224.852s-.608-.606-.488-1.1c.12-.491-2.076 1.465-2.076 1.465s-1.344-3.174 0-3.174c.12 0-2.32-.123-2.684 2.688-.368 2.682 0 0 0 0s-1.59.12-3.053.605c-1.59.492 1.097 1.59 1.097 1.59s-2.319-.49-3.663.24l.856 1.1s-.855-.852-2.928-.12c-2.2.61.487.977.487.977s-2.196-.487-3.294 0c-1.1.49.362 1.344.362 1.344s-4.026-1.222-4.638-.855c-.608.368 1.344 2.322 1.344 2.322s-2.44.609-2.928 2.441l2.196.856s-.974.487-1.464 1.461c-.486.98 1.464.492 1.464.492s-2.684 1.952-2.684 3.418c0 0 1.956.607 3.418-.856 1.466-1.461.49-.974.49-.974l.12.974s2.807-1.219 2.807-1.952c0-.608-.483.976-.483.976l2.808-1.464 1.83 1.22"/><path d="m455.92 134.894-.611-2.68s3.297 0 6.228.732l1.099-2.564s2.928 1.342 3.908 2.316c0 0 5.736-1.464 7.446-.852l-.732 2.686s5.25.364 6.958.976c1.586.61-.732 1.956-.732 1.956s5.982.73 8.544 2.316c2.688 1.586 2.688 2.932 1.344 3.3l3.295 5.248s-5.25.61-6.228 1.956c-.975 1.342-1.953-1.346-1.953-1.346l-.975 3.664s-3.295-1.712-4.64-2.932c0 0-1.591 1.956-.612 2.932 0 0-4.272 0-5.985-3.91 0 0-2.563-.364-2.563 1.956 0 0-2.931-3.296-3.663-4.276l-3.298.98s-.978-1.344-2.196-1.712c-1.344-.243-.368 1.712-.368 1.712l-1.956-2.321-1.95-2.323s-1.713 2.32-3.056 2.32c-1.224 0-1.224-1.59-.979-2.689.365-.974-3.907-1.22-4.272 0 0 0-1.224-4.88 3.294-6.228l4.644-1.221"/></g><g stroke-width=".611"><g fill="#d67c59" stroke="#000"><path d="M486.317 150.404s.732-1.71 2.076-.732c1.221.975 1.584 5.25 1.584 5.25l-1.953.975s1.1-1.584-1.707-5.493zm-11.1 38.34s.975-1.341-.366-4.275l1.952-.61s.732 2.319-.245 4.887h-1.344m33.819-6.722-4.638 2.81 2.32 1.099 5.615-3.298-3.3-.612m-62.145 18.193c-1.224.978-1.344 2.688-2.076 3.663-.607.975-2.441 2.316-2.562 3.783-.245 1.464-.366 2.441.243 4.397.729 1.951 3.783 10.62 2.562 17.217-1.344 6.591-.852 9.4-.363 10.38.485.975 1.952 3.66 2.808 3.66 1.952-.244 1.098-.852 1.829-2.076 1.83-3.174 0-27.717-.856-34.554-.608-5.252-3.054-10.016-3.294-10.5-.244-.615-.732-2.2-1.1-3.178-1.83-4.397-4.028-8.178-4.028-17.34 0 0-5.984 1.344-11.11-10.258-2.685-5.86-6.593-5.25-11.231-7.2l2.076-1.347s3.907 1.956 5.86 1.956c1.954 0 1.345-3.907 1.345-3.907l1.953-1.956v8.55c0 3.908 5.371 9.28 8.544 10.867 1.956.974 4.52-3.054 3.91-6.96-.612-3.906 0-9.156 0-9.156l2.685 1.584s-.976 1.71-.732 2.688c.364.978 1.707-.977 2.684-1.956 0 0 .243.246 1.221.246 0 0-1.953 3.294-2.928 5.006-.974 1.589-.974 7.817-.974 10.137s.854 7.69.854 9.398c0 1.224 2.316 6.228 4.152 9.283.609 1.22 2.074 4.392 2.074 4.392 1.464 2.321 1.584 3.909 2.442 5.865.487.974 1.344 3.783 1.953 8.67.245 1.219.488 5.86.857 8.91.364 2.93 2.808.612 5.734-1.464 2.93-2.196 2.93-7.448 2.93-7.448s2.321-1.956 1.954-.855c-.245 1.221 1.224 2.442 1.224 2.442-1.831 4.15-.732 3.662 1.098 3.54 1.83-.247 8.177-5.007 8.177-5.007.855-.246 4.64-.246 4.03 0-.733.368-1.71 2.199-1.71 2.199l4.151-.49c-1.464 1.1-6.96 4.272-8.178 5.007-1.344.856-7.932 4.032-10.742 5.128-2.808 1.22-8.304 3.908-8.547 6.716-.122 2.81.366 10.38 0 12.82-.243 2.44-1.221 13.31-1.221 13.31H441.52s2.564-9.525-.124-12.088c-2.563-2.688-8.546-10.504-12.452-13.192-3.909-2.562 2.562-.606 2.562-.606v-2.688l5.982 7.208s10.376-9.159 0-21.612c-3.296-3.909-6.593-9.89-9.156-10.504-2.685-.732-4.029-1.344-8.547 0-4.639 1.342-15.749 1.342-20.388-5.986l3.909-.61 3.292-1.343s-1.341 4.64 7.936 4.64c9.156 0 10.5 0 9.768-8.547l2.684-1.344 1.956 1.956s-1.344 4.64-.612 6.592c.612 1.953 3.909 3.298 6.472 5.25 1.1.856 1.954.978 2.686.978 1.098-.122 1.341-.122 2.808-1.588 2.196-2.442 1.707-2.32 3.906-4.272 0 0 1.099-1.71 1.344-1.956l1.344 3.543z"/><path d="M448.84 193.748c.487-.484 1.465-2.32 2.32-3.907 1.464-2.44 3.176-3.906 5.127-6.96 1.829-2.808 2.563-6.957 1.829-9.888l1.708.978.125 4.64s2.321-1.957 3.298-2.441l.974.486s-7.325 7.572-14.162 19.783l-1.222-2.685zm-64.211-25.392c.977 1.704 1.956 5.007 4.884 7.569l1.953-.61s-4.516-5.25-4.516-7.568l-2.321.608m11.472-2.939s.61 6.228-.975 8.548l1.953-.972s1.341-4.274.974-6.596l-1.953-.975zm64.344-19.656s-.369 8.79 1.344 14.164l2.316-.73s-.364-1.592 1.587-2.324c1.956-.61 6.593-2.562 8.912-4.518l-.73-1.951s-3.54 2.808-5.25 3.54c-1.586.612-2.563 1.341-3.907.978-1.344-.369-2.928-2.568-1.954-7.575zm25.872 41.028s-.609 6.228-.243 8.916l2.076.489s-.486-7.449.852-8.06l-2.685-1.343m9.288 4.642s-2.32 4.03-5.004 4.397l4.272-.855s1.224-.61 3.054-2.562l-2.323-.978"/></g><g fill="#338a00" stroke="#030"><path d="m458.249 172.988 1.584.972 1.71.249s1.829 1.709 3.906 3.294c1.584 1.344 1.584-.244 1.584-.244l.975 3.907h1.344s-.367 2.564-.367 3.908l2.321-1.956 2.686 2.32s1.953-1.708 2.928-1.708 1.344-.975 1.344-.975h.123c-6.471-3.055-9.276-6.228-7.325-9.525 3.176-5.494 8.424-1.956 10.132-1.22l23.684 12.696s1.587-.975.488-1.956c-1.224-.972-1.712-3.416-1.344-4.392.366-.976 3.051 3.05 4.392 3.417 1.344.368 4.394.858 4.394.858l-.122-1.222s3.907 2.685 3.907 4.03c0 0 2.808-1.464 1.83-2.321-.975-.852 4.275 2.078 4.64 3.667l1.098-1.224c-.123 0 .367-3.908 1.709-5.74 1.224-1.828 2.564-2.319 2.564-2.319s1.224-2.076 2.441-2.076c0 0-1.224-.852-1.71-1.83-.61-.98-2.076-1.466-2.076-1.466s1.831-1.342 2.322-1.954c.487-.73.977-.857.977-.857s-2.808-2.316-4.764-2.68c0 0-.12-3.178-2.562-3.42h1.1s-1.83-3.42-3.54-3.54c0 0 1.098-1.221 2.075-1.345 0 0-2.076-2.684-4.881-1.707l1.83-.73s-1.344-1.464-5.492-.732c0 0 .365-1.709-1.464-3.054 0 0-1.586.12-1.586 1.342 0 0-1.464-1.342-3.295-1.342s.61 1.956.61 1.956-2.441-1.59-3.908-1.1c0 0 .61-2.808-.977-4.276 0 0-1.827.978-2.32 2.199l-.486-1.22s-2.442 2.93-2.928 2.075c-.366-.487-.732-2.562-.732-2.562l-1.462 2.199.242-3.056s-1.708.978-3.051 4.15c0 0-1.709 1.589-1.709 3.05 0 0-1.344-1.584-2.564 0-1.1 1.71 0 1.347 0 1.347s-.49.606-1.71.852l.244.974s-1.586-.852-2.808-.485l.609 1.464s-3.174.245-3.294-2.316c0 0-2.686-1.346-3.053.12l-1.954 1.222s-.612-1.222-1.71-1.464c-1.224-.367-.244 1.584-.244 1.584s-.364-1.464-1.83-2.198c-1.463-.606-.243 1.346-.243 1.346s-1.953-1.589-.974-2.808c0 0-1.83 1.709-.976 3.298l-1.221.852s-.612-.609-.492-1.098c.126-.49-2.074 1.464-2.074 1.464s-1.344-3.173 0-3.173c.122 0-2.32-.123-2.684 2.688 0 0-1.587.12-3.053.606-1.584.49 1.1 1.589 1.1 1.589s-2.32-.49-3.663.244l.855 1.1s-.855-.856-2.93-.125c-2.199.61.487.977.487.977s-2.196-.488-3.295 0c-1.1.49.366 1.344.366 1.344s-4.03-1.222-4.64-.852c-.609.363 1.343 2.32 1.343 2.32s-2.442.609-2.928 2.441l2.196.852s-.972.487-1.464 1.467c-.484.976 1.464.486 1.464.486s-2.683 1.956-2.683 3.42c0 0 1.953.608 3.418-.855 1.464-1.464.487-.977.487-.977l.124.978s2.808-1.219 2.808-1.95c0-.613-.486.971-.486.971l2.808-1.464 1.83 1.224v-.003z"/><path d="m455.92 134.9-.611-2.685 6.228.728 1.097-2.562s2.928 1.342 3.907 2.316c0 0 5.736-1.464 7.448-.852l-.732 2.688s5.249.363 6.96.972c1.587.612-.732 1.956-.732 1.956s5.982.732 8.548 2.32c2.685 1.584 2.685 2.93 1.344 3.294l3.293 5.25s-5.248.61-6.225 1.951c-.977 1.344-1.953-1.34-1.953-1.34l-.977 3.662s-3.295-1.711-4.638-2.93c0 0-1.584 1.956-.61 2.93l-5.983-3.907s-2.566-.366-2.566 1.956c0 0-2.928-3.3-3.66-4.277l-3.3.978s-.972-1.34-2.196-1.71c-1.344-.24-.366 1.711-.366 1.711l-1.953-2.32-1.954-2.315s-1.71 2.316-3.053 2.316c-1.224 0-1.224-1.584-.976-2.685.366-.977-3.908-1.219-4.272 0 0 0-1.224-4.884 3.294-6.225l4.638-1.222zm-23.675 16.728-2.076 1.956-1.222-.612-2.44 2.686-.489-1.468-1.344 2.199-2.074-.732-.976 1.587-1.83-.367s-1.587 1.468-2.565 1.833c-.974.247 0-2.196 0-2.196s-1.464 2.442-2.563 2.442c-.974 0-.608-1.1-.608-1.1s-.61 1.584-1.83 1.83c-1.1.124-.612-1.219-.612-1.219l-1.956 1.464v-1.221l-.852-.365s.486-2.199 1.344-2.686c.852-.49-.856-1.951-.856-1.951l.852-.978s-2.442-.61-2.442-.12c0 0 1.224-3.295 2.928-3.912l.125-3.66s1.709-1.464 3.295-1.589c1.708-.245-.487-2.808-.487-2.808l3.906-2.316.487-2.808 5.982.484 1.222-2.562 4.764 1.219 4.026-2.076 2.928 3.42 4.395.367s-.12 3.05-.12 3.907c0 0 5.247 1.584 5.859 2.076 0 0-.977 3.174-.977 3.784 0 0 3.665-.978 4.764-.732 0 0 .367 3.42.486 4.272 0 0 6.225 1.956 6.593 3.055 0 0-1.344.852-2.076 1.951 0 0 .732 3.788.732 5.007l-.489.732s-1.831-1.709-3.296-1.953l-1.224 2.685-2.196-1.464-1.342.122s-1.099-1.344-1.956-1.344l-.122-1.22-1.709 1.098s-2.686-1.344-2.686-2.199c0-.732.123-1.956.123-1.956l-2.808 1.956s-.61-1.464-.486-2.076c.122-.61-1.1 1.467-1.1 1.467s-1.466-2.566-1.343-3.055l-.368 2.076s-2.928-.972-3.294-2.928v-.004z"/><path d="M393.173 163.592s5.129 2.568 5.129 3.788c0 0 1.344-2.688.61-3.665l1.955 1.344s.606-2.44-.125-3.175c-.612-.61 4.392-2.682 5.492.612 0 0 3.054-3.174-2.808-5.862 0 0-.485-1.953 3.054-1.464 0 0-.244-1.222-1.1-1.71h3.42s-2.076-1.71-5.128-2.198c-2.928-.49-1.1-.852-1.222-1.468-.245-.61 0-2.808 0-2.808s-1.709-.61-3.053.122l.489-.612s-3.176-.852-4.392-.12c0 0-1.833-.732-1.588-2.688 0 0-1.831-.12-2.683 1.83 0 0-1.71 1.956-4.029 1.956-.486 0-2.196-.98-2.196-.98l-1.467 3.42-2.319-.12.732 1.341s-3.54-.972-4.64 0c0 0 1.344 2.079.976 3.54 0 0-2.808.492-3.418.98-.732.483.976.851.976.851s-3.174.977-3.909 1.956l1.224.972-1.466 1.959 1.224.24s-2.076.612-3.174.979c-1.098.365 1.953.612 1.953.612l-1.464 1.34 2.321.364s-1.83 4.886-1.953 7.207c0 0 2.808-3.42 3.54-3.662l-2.196 3.662s4.152-1.341 4.518-1.956c.363-.732.73-1.341.73-1.341l.123 2.076s1.587-2.199 1.831-3.054c.124-.852 2.563.855 2.563.855v-1.224s2.199.732 2.928.857c.856.12.977-.367.977-.367l2.076-.244-.368 1.707s1.464-.975 1.828-1.953c.245-.978.976 0 .976 0l.974-3.907h2.074zm-16.728 17.34 1.953 4.03c-1.586.12-3.907 1.951-3.907 1.951.365 6.718-1.341 6.35-1.341 6.35.483 1.222-.312 3.487-.312 3.487l9.711-5.805.124-.61 11.477-5.375.363.61 3.298-1.83 2.32 6.102-2.319 1.344c.124 2.076 2.564 5.741 2.564 5.741l3.053-.73 3.295-1.223s.124 1.83.124 1.224c0-.492 3.538-1.71 3.538-1.71l1.586 1.587c1.224-.12 3.418-3.055 3.418-3.055l2.564.98s.854-1.465.854-2.564c0-.977 3.174-.977 3.174-.977l2.199 1.584 2.808-2.316s.854 1.709 1.953 1.951c1.224.123 4.272 2.441 4.272 1.956 0-.487 1.344-3.175 1.344-3.175l5.127 2.076c-.73-2.32-2.439-5.127-2.439-5.127s2.439-1.95 1.953-2.44c-.487-.49-1.954 0-1.954 0l1.464-2.93h-1.953l.608-.73-3.173-1.342 1.708-3.42c-.732-.858-9.156-2.568-9.156-2.568l1.953-1.83s-.976-1.464-1.953-1.464-6.105.124-6.348-.362c-.125-.49-2.2-2.324-2.2-2.324l-3.175 2.324-1.584-.49-2.808 1.1s0 1.586-.37.487c-.363-.98-2.928-3.54-2.928-3.54-.487.852-3.783 4.759-3.783 4.759s-.489 2.078-1.588.61c-1.224-1.464-3.785-3.05-4.152-1.83-.366 1.345-2.683 2.563-3.175 2.2-.485-.37-3.173-.123-3.418.609-.122.852-3.052 3.05-3.052 3.05-1.832-.852-4.764-.362-4.764-.362s-.852 1.341-.972 2.44l-5.982 1.585h.004v-.004zm55.188 49.452v-2.565l2.928 1.953 1.71-1.956 2.196 2.196 1.344-2.196v3.544l3.296-2.928 1.951.852v-2.808s2.322-3.908 1.344-4.638l1.954-.61s-3.296-3.297-4.272-3.91c-.976-.731-2.32-.731-2.32-.731s-2.564-2.568-4.272-3.297c-1.587-.61-2.568.73-2.568.73s-.974-1.95-2.683-2.318c-1.584-.364-1.584 1.344-1.584 1.344s-1.224-1.224-2.808-1.833c-1.586-.728-.488 1.464-.488 1.464l-5.616-1.704.73 1.704-5.247-1.337.607 1.953-3.66-.615-.245 1.593-5.25.974.977 1.708-3.297-1.344v2.322l-3.663 1.341 1.344 1.224s-4.884 2.32-5.862 3.052c-.974.608 1.956 1.95 1.956 1.95l-5.251-.732 1.954 1.711-4.64 4.276 3.296 2.32-1.954 2.929 4.884.974 1.952 3.296 4.029-.732v3.66l5.86-4.636s4.275 3.784 4.64 2.685c.243-.975.243-4.272.243-4.272h2.076v-3.295l1.584 1.342 2.688-3.91 3.538 4.886 2.684-6.225 3.908.61zm23.928-14.772-.61-5.616-1.707 1.71.728-5.25-2.682-.49.974-5.126-1.952-.979.485-2.44 1.956-1.465 3.54-3.42 8.175.128.976-2.688 5.862.978c.974 1.099 4.026-2.199 4.026-2.199h1.224l1.344 2.561s4.272-.612 6.224.732l-2.32 3.174 4.272.365 2.928.612 3.054-.978 3.908-.247.976 1.587h3.663l-1.221 1.464 4.761 2.196-.974.98s2.684.975 4.638.975h.975s.976 2.316-.368 3.294c0 0 1.344 3.298 4.272 3.91 2.93.61 2.93.61 3.296 1.34.369.612 0 3.91-3.295 3.91v3.3s-2.563 2.318-2.928 3.292l-1.956-1.344s-1.704 1.956-1.704 3.3c0 0-4.275-5.62-5.863-5.865-1.709-.364-1.344 3.176-1.344 3.176l-4.637-3.907-.612 2.684-3.906-3.294-2.32 1.582-4.153-4.272-4.027.492 1.584-2.078h-4.881l-.975-4.272-.732 3.54-2.928-1.952-3.785 4.15s-.487-.492-1.099-2.443c-.608-1.954-2.32 2.318-2.32 2.318l-1.343-3.05-1.584 3.05s-1.344-2.318-2.688-3.05c-1.22-.61-2.561 3.66-2.926 5.616zm.732 12.816.243-1.95 6.958-2.689 5.862-2.196 2.928-1.344 1.344 2.32 1.708-3.294 2.685 3.416 1.467-1.831 2.318 1.708h1.954l.366 2.568s4.884.363 5.248-.61c.368-.978.976 3.294.976 3.294l4.638.61.977 5.25s2.316 4.886 1.586 6.84c-.612 2.076-2.565-2.565-2.565-2.565s-.365 3.663-.732 4.64c-.243.974-6.225-.977-6.225-.977l-2.564 4.884s-2.685-3.908-3.906-3.908c-1.344 0-1.344 3.908-1.344 3.908s-3.907-4.64-5.616-6.596c-1.588-1.95-1.956 1.956-1.956 1.956s-2.562-4.275-2.562-5.496c0-1.341-2.321-2.688-2.321-2.688s-4.032 4.642-6.962 5.865c0 0 .367-2.932-.609-3.909-.974-.978-3.907 1.952-3.907 1.952s-2.076-4.518 0-9.159z"/></g><g fill="none" stroke="#004b00"><path d="m488.525 155.648.612 2.442s2.196-.49 3.662-.366c0 0-.366 1.953-.854 2.808 0 0 2.928-.487 4.272.365l-.61 1.464 3.42 1.467-3.175 2.563s5.124 1.829 6.104 3.297c0 0-3.295 2.319-3.784 2.199-.488-.247-.123.972.732 2.072l-2.808-.12s1.098 2.565.974 3.54c-.122.976-4.64.73-4.64.73m17.575-6.585s.854-4.884-.485-6.105c0 0 3.173 2.688 5.248 2.808 2.198.125-.124-4.03-.124-4.03s3.053 1.587 4.518 1.953c1.464.244-1.1-3.053-1.1-3.053s.853-1.589 3.295-.123m-56.76-19.41s.12-1.099-.37-1.708c-2.928-4.03 3.054 3.054 4.272 3.297m5.614-.005s1.953 1.464 2.93 1.464c.976 0-.61-3.908-1.099-4.394-.487-.49 3.54 1.584 5.006 1.831 1.464.365 1.708-2.44 1.708-2.44s4.518.731 5.496 1.343m-31.381-.852s-.366-2.563-.486-3.662m-30.27 15.878c-.245-.49 1.224-2.688.612-3.664 0 0 .852.734 1.707.856.732.12.485-2.81.485-2.81l.978.365s2.565-1.224 2.076-2.2c-.492-.974 1.708 1.464 1.708 1.464s1.466-1.464 1.466-2.073c0-.617 1.707 1.461 1.707 1.461s1.83-.367 1.83-1.464c0-1.098 2.32.365 2.32.365s.976-1.342.856-2.198m-24.661 12.214s1.097-2.562-.124-4.272m-29.54 12.324c.123-1.219.732-4.516.123-5.006-.61-.484 1.224.49 2.686.856m11.59-.482c-1.463-1.467-2.32-2.198-4.636-2.198m-20.143 10.37c.367-.852.975-2.928.61-4.15m31.25 64.714 1.586-3.297 1.954 4.638 1.341-2.93.488.977 2.928-3.174 3.176 4.762m50.915-20.632 2.076-4.15 2.808 1.465 1.344-4.029 2.928 1.832 1.709-3.785 3.296.852.242-2.685s2.32 1.34 2.93 2.316c.73.98 0-3.292 0-3.292l2.684 1.219s1.954-1.956-.732-3.054"/><path d="m479.489 203.888 2.928 4.275 2.44-2.808 2.199 4.759 2.808-1.709 4.027 2.32 1.83-1.464 4.396 3.175 1.831-3.782 3.906 1.22 2.562-4.392M402.941 194s1.71-2.934 1.099-4.276c-.732-1.344 3.54 2.32 3.54 2.32s.974-2.931.365-4.272c-.732-1.344 4.884 3.908 4.884 3.908s.978-4.517 0-5.496c-.977-.978 5.372 1.344 5.372 1.344s2.566-.73 1.588-2.076c-.977-1.342 4.272 1.952 4.272 1.952s1.22-3.293 0-4.518c-1.344-1.34 3.906 1.589 3.906 1.589l-1.953-3.543 4.272.244-.364-3.907m37.843 56.403 2.808-1.344 2.442 2.444 2.684-4.272 3.295 3.172.489-3.172 3.54 1.467.732-1.958 3.906 2.08.365-2.932 1.952.612.367-1.956"/></g></g><path d="M403.913 372.632a87.295 87.295 0 0 1-7.449-16.236l52.863-46.524 52.865 46.398c-1.832 5.37-4.275 11.112-7.692 16.608l-.42.676a515.6 515.6 0 0 1-3.976-1.531s-1.709 1.587-3.048 1.707c-1.831.246-3.42-1.584-3.42-1.584s-2.32 1.953-4.638 1.584c-2.32-.24-3.298-1.708-3.298-1.708s-2.44 1.953-4.152 1.587c-1.584-.372-2.684-1.47-2.684-1.47s-1.464 1.836-3.54 1.47c-1.952-.372-3.784-1.47-3.784-1.47s-3.048 1.34-5.004 1.587c-1.952.37-3.663-1.71-3.663-1.71s-2.563 1.71-3.54 1.71c-.976 0-4.638-1.71-4.638-1.71s-3.786 1.222-5.128 1.222c-1.224 0-5.004-1.584-5.004-1.584s-3.54.972-5.126.972c-1.711 0-4.152-.972-4.152-.972s-2.925 1.342-4.516.972a16.536 16.536 0 0 1-3.053-.972s-3.174 1.342-5.25.972c-1.953-.362-4.272-1.704-4.272-1.704s-.367.976-4.152 1.704h-.123" fill="#9dc9e2"/><g stroke="#000"><path d="M449.333 256.388v53.48l-52.864 46.768c-5.124-14.896-5.491-28.204-5.491-33.942V256.39h58.356" fill="#fff" stroke-width=".854"/><path d="M449.333 256.388v53.48l52.74 46.768c5.126-14.896 5.493-28.204 5.493-33.942V256.39h-58.233" fill="#ffe682" stroke-width=".854"/><g stroke-width=".611"><path d="M415.229 361.52c3.974 2.154 2.628 1.476 10.866 4.392 6.715 2.325 14.526 3.42 25.879 3.42 9.934 0 15.526-.788 18.672-1.656 3.264-.936 4.036-2.253 4.036-2.253l-8.178 8.304s-32.873 1.773-38.825-2.076c-2.316-1.224-7.324-5.25-12.45-10.133z" fill="#d67c59"/><path d="M463.457 346.016s10.5 5.981 0 17.46m-47.244-1.344 15.138-14.412-1.71 19.294m7.932 1.448v-31.974m25.884 32.232v-34.188m-13.068 34.8v-36.75" fill="none" stroke-linecap="round"/><path d="m437.573 338.204-6.838 2.199 6.838.732v-2.932m12.816-5.015-7.2 2.688 7.2.244zm13.068 1.956-7.203 2.688 7.203.364v-3.055zm4.272 15.516c-.366-1.466 4.274-1.341 4.274-1.341s1.344 4.88 0 7.932l-3.906-.732s.367-3.294-.367-5.86z" fill="#d90f19" stroke-linejoin="round"/><g fill="#fff"><path d="m418.529 360.176 12.82-12.456-.613 7.45s-6.59 4.272-6.59 7.325l-5.616-2.32m6.827 2.57s1.344-3.908 5.004-5.86l-.365 7.814-4.637-1.956zm18.444-21.613s5.247-.732 9.156 0c0 0-.612 5.25 0 6.226 0 0-7.204-1.71-10.132.974 0 0-.977-4.884.977-7.2zm-11.112 1.344s5.25-.732 9.156 0c0 0-.976 5.864-.367 6.84 0 0-5.862-3.3-8.79-.615 0 0-1.955-4.026 0-6.225z" stroke-linejoin="round"/><path d="M432.317 349.304s5.249-.61 9.156 0c0 0-.61 5.25 0 6.228 0 0-6.837-1.587-9.768.976 0 0-1.344-4.884.612-7.204zm10.5-.972s7.57-.972 11.474-.363c0 0-1.586 4.272.369 7.202 0 0-8.18-2.198-11.232.364-.003 0-2.564-4.884-.612-7.204zm-11.1 8.184 10.13.732s-.974 7.448-.366 8.424c0 0-8.177-1.956-9.768.73 0 0-2.685-6.835 0-9.888h.004zm11.472 0s8.786-.612 12.818 0c0 0-2.323 5.62.245 10.5 0 0-11.478-3.292-13.068-.612 0 0-2.68-6.836 0-9.888zm13.428-15.384s5.247-.732 9.156 0c0 0-.609 5.25 0 6.226 0 0-7.203-1.71-10.13.974-.003 0-.98-4.884.974-7.2zm0 7.2s5.247-.61 9.156 0c0 0-.609 5.25 0 6.228 0 0-7.203-1.587-10.13.977 0 0-.98-4.884.974-7.203zm.612 7.572s5.247-.728 9.276 0c0 0-1.344 8.18-.732 9.156 0 0-5.976-2.808-8.788-.362 0 0-1.706-6.47.245-8.794z" stroke-linecap="round" stroke-linejoin="round"/><path d="M468.089 356.516s1.706 6.225 3.905 6.96l-2.928 3.54s-3.54-2.564-3.908-5.49c0 0 2.319-2.689 2.93-5.008z"/></g></g><g stroke-width=".61"><path d="M494.26 373.364c-8.423 14.044-22.218 27.228-44.925 35.408-23.076-8.3-37.113-22.097-45.416-36.02l.122-.122c3.784-.736 4.152-1.709 4.152-1.709s2.319 1.344 4.272 1.71c2.076.364 5.249-.977 5.249-.977s1.344.612 3.052.978c1.584.364 4.516-.976 4.516-.976s2.441.978 4.15.978c1.586 0 5.128-.977 5.128-.977s3.783 1.584 5.004 1.584c1.344 0 5.126-1.22 5.126-1.22s3.664 1.71 4.64 1.71c.974 0 3.54-1.712 3.54-1.712s1.707 2.076 3.66 1.711c1.955-.244 5.006-1.586 5.006-1.586s1.83 1.1 3.784 1.464c2.074.368 3.54-1.464 3.54-1.464s1.098 1.1 2.685 1.464c1.709.368 4.15-1.586 4.15-1.586s.975 1.466 3.297 1.708c2.32.368 4.64-1.584 4.64-1.584s1.583 1.83 3.416 1.584c1.344-.122 3.05-1.708 3.05-1.708s3.052.974 4.15 1.344" fill="#006ac8" stroke="none"/><path d="M492.185 376.544c-1.83.125-2.076-1.099-2.076-1.099s-2.436 2.079-4.76 1.711c-2.44-.363-3.54-1.952-3.54-1.952s-2.564 2.076-4.274 1.708c-1.707-.244-2.928-1.467-2.928-1.467s-1.584 1.836-3.662 1.468c-2.076-.244-3.909-1.467-3.909-1.467s-3.295 1.348-5.372 1.712c-2.076.368-3.784-1.953-3.784-1.953s-4.761 1.588-5.736 1.588c-1.1 0-4.52-1.589-4.52-1.589s-2.318 1.466-3.66 1.466c-1.464 0-5.372-1.71-5.372-1.71s-3.665.978-5.374.978c-1.71 0-4.272-.979-4.272-.979s-3.175 1.344-4.884.98c-1.709-.369-3.053-.98-3.053-.98s-3.417 1.344-5.492.98c-2.076-.369-4.518-1.71-4.518-1.71s-.365.853-4.392 1.71h-.125" fill="none" stroke-width=".611"/><g fill="#006ac8" stroke-width=".732"><path d="M416.369 381.524s-.341.798-3.525 1.5c-.068-.004-.864.188-.864.188.294-.053.533-.096.789-.15a14.796 14.796 0 0 1-.9.3c3.6 5.2 8.993 9.921 14.612 13.707 5.621 3.787 12.08 8.307 23.076 11.532 11.562-4.514 14.647-6.231 22.204-11.292 7.556-5.52 11.493-8.958 15.708-14.62-3.3 1.874-2.826 1.895-4.536 1.65-1.71-.363-2.964-1.612-2.964-1.612s-1.56 1.86-3.636 1.613c-2.076-.363-3.9-1.612-3.9-1.612s-2.712 1.844-5.4 1.724c-2.076-.124-3.789-1.95-3.789-1.95s-4.764 1.575-5.738 1.575c-1.1 0-4.5-1.576-4.5-1.576s-2.333 1.462-3.674 1.462c-1.464 0-5.364-1.725-5.364-1.725s-3.653.976-5.362.976c-1.71 0-4.274-.974-4.274-.974s-3.046 1.341-4.876.975c-1.711-.363-3.076-.974-3.076-.974s-3.402 1.341-5.475.975c-2.076-.363-4.536-1.687-4.536-1.687z"/><path d="M449.56 408.608c11.944-4.971 14.1-6.324 21.325-10.74-1.26.034-4.924-1.15-3.598-1.527 0 0-1.469 1.323-2.933 1.323-1.344 0-5.25-1.704-5.25-1.704s-3.66.972-5.37.972-4.273-.972-4.273-.972-3.175 1.34-4.884.972c-1.71-.362-3.053-.972-3.053-.972s-3.54 1.34-5.492.972c-2.076-.362-4.52-1.707-4.52-1.707s-3.004 1.593-4.89 1.776c5.772 4.227 11.846 8.354 22.939 11.607z"/></g></g><g stroke-width=".509"><path d="M400.05 260.938c-.847-.021-1.861.476-3.423 1.892-2.465 2.225-3.352 4.519-.117 7.29l16.025 14.574c2.34 2.275 5.613 2.691 6.985 3.871l16.289 16.657c2.053 1.773 3.036 3.03 1.875 4.545-1.287 2.492.09 2.829.385 2.905 2.23.5 1.018-.894 1.306-1.616.385-1.523 2.05-2.839 3.233-3.476.769-.3 1.19-.141 1.383.27.703.282 1.445-.769.41-1.879-.89-1.24-2.283.775-3.854.302 0 0-2.37-1.469-3.018-2.52-1.383-1.539-3.164-2.918-4.19-4.24-1.085-1.223-5.17-6.626-11.387-12.844-1.788-1.167-1.382-5.582-2.662-6.952-.108-.956-12.432-13.153-16.829-17.565-.888-.654-1.564-1.192-2.41-1.214z" fill="#d67c59" stroke-width=".61070655"/><path d="m400.829 267.5 16.75 16.55" fill="none" stroke-width=".6"/><path d="M423.509 275.06c.259-.498.825-1.767 1.424-3.152.237-.547 4.743-7.733 6.989-7.944 0 0 14.012 10.194 14.023 10.328.048.55-6.078 9.712-6.612 9.016 0 0-16.416-6.892-15.823-8.248z" fill="#e8e8e6" stroke-width=".685"/><path d="M432.437 277.46c-1.92-1.49-5.09-2.943-7.65-4.65l-1.152 2.4c.926 1.036 12.585 6.456 14.5 7.5 0 0-2.22-2.546-5.7-5.25z" fill="#ccb8c8" stroke="none"/><path d="M424.78 272.504c1.5 1.05 4.35 2.85 6.15 3.9 3.45 2.4 5.634 5.044 8.1 6.45" fill="none" stroke-width=".48"/><g stroke-width=".611"><path d="m396.389 316.172 31.904-39.484c.6-.548 3.557-.576 3.958 2.481l-30.216 41.18c.002 0-3.44-.341-5.645-4.177zM503.333 316.604c-1.1.858-2.968 1.08-2.968 1.08-2.073-2.442-3.786-5.006-6.715-8.179l-31.866-39.193 3.295-3.174 28.689 33.576c.854.854 5.863 6.108 10.624 12.33.003.002.418 2.438-1.06 3.564z" fill="#d67c59"/><path d="m472.649 275.312-5.129-6.105s-3.906.486-4.637 2.564c0 0-2.808 4.64-10.256 5.129 0 0 2.073 8.669 10.742 13.308 0 0 3.175-8.916 6.226-10.502 0 0 3.173-2.321 3.053-4.392z" fill="#e8e8e6"/><path d="M459.833 302.42c-.732-.246-1.464 0-2.565.612-.974.612-2.196.364-2.076-.858.124-1.099 0-.974 1.344-1.828 1.956-1.1 4.518-1.224 6.105-.612l-2.808 2.688m34.788-34.682c-.245-.852-.486-1.704.366-2.804.854-.977.854-2.688-1.224-1.834-2.076.857-2.808 3.176-1.097 6.717l1.951-2.08z" fill="#d67c59"/><path d="m459.1 303.152 36.138-35.898 8.91 9.525s-1.83-.736-2.564-.249c-.61.49.732 2.321.732 2.321s-1.708-.61-2.44-.122c-.855.486 0 2.563 0 2.563s-1.464-1.098-2.199-.612c-.608.492 0 2.808 0 2.808s-1.952-.608-2.438-.122c-.49.49 0 2.565 0 2.565s-1.956-.977-2.93 0c-.975.975.487 2.321.487 2.321s-2.441-.978-3.418.486c-.976 1.466.122 2.808.122 2.808s-1.952-.974-2.44-.49c-.488.49 0 2.808 0 2.808s-1.708-.976-2.807.248c-1.1 1.344.122 2.442.122 2.442s-1.584-.98-2.443-.492c-.856.492.244 2.808.244 2.808s-1.584-1.1-2.685 0c-1.099 1.224 0 2.44 0 2.44s-1.344-1.221-2.685 0c-1.224 1.344 0 2.688 0 2.688s-1.952-.976-2.684 0c-.854.972.243 2.321.243 2.321s-1.464-.855-2.44-.372c-.972.492 0 2.688 0 2.688s-1.464-1.587-2.073-.73c-.732.853.122 2.929.122 2.929s-1.344-1.588-2.076-.73c-.854.732.487 2.564.487 2.564s-2.44-1.099-1.83-1.099z" fill="#e8e8e6"/></g><path d="m493.157 270.188-2.808 2.808.61 9.648s.611-2.808 1.463-.858c0 0 .246-2.318.856-1.95-.492-.248-.122-9.649-.12-9.649m-5.245 5.245-2.076 1.952.732 9.648s.612-3.663 1.464-.732c0 0-.123-2.441-.123-3.298.003.612.003-7.57.003-7.57m-21.852 21.624-1.954 2.073.49 5.863s.61-3.784 1.464-.857c0 0-.245-2.436-.245-3.295 0 .612.245-3.786.245-3.786" fill="#4d4d4d" stroke="none"/><g fill="none" stroke="#4d4d4d" stroke-width="1.099"><path d="M463.613 272.876c1.344 1.344 5.129 6.225 5.129 6.225m-3.413-3.537c-.243.735-.729 2.808-1.828 3.908m2.428-3.428c-.123.488-.123 2.076-1.828 3.665m2.44-2.92c-.245.851-.366 1.463-.975 2.075m1.347-1.344c0 .61-.364.732-.486 1.1m-4.026-3.428c-.487.486-4.03 2.806-5.982 3.54m4.998-2.196c-.487.49-2.686 2.199-3.907 2.688m3.547-1.224c-.732.492-1.954 1.71-2.928 2.076m2.196-.612c-.487.61-1.222 1.1-1.83 1.467"/><path d="M439.133 280.808c.398-.735 1.092-2.179 2-3.5 1.152-1.676 1.648-1.96 2.251-2.55" stroke-linecap="square"/></g></g></g><g stroke-width=".611"><path d="M321.269 379.232c1.831.852 0-5.984.608-8.547.732-2.686 5.982 6.593 8.549 7.817 2.686 1.341 19.044-6.474 19.044-6.474l3.907-7.325 2.076 5.98s4.516-5.25 5.86-7.202 0 3.909-1.344 5.861c-1.344 1.956 3.907 2.688 3.295 6.594-.612 3.91 5.249-2.686 5.249-2.686l15.138 1.344s2.56-9.16 6.59-14.41l1.222 5.865 6.225-6.348c6.96 18.317 21.612 38.22 51.642 49.085 28.2-10.256 42.73-28.452 50.296-45.792l8.424 8.676s6.594-1.958 7.814-2.688c1.342-.612 15.504 5.008 15.504 5.008s2.564.976 3.908 1.956c1.341.974.364-4.276.364-4.276s7.204 1.342 6.592 5.25c0 0 1.588-3.662 2.932-4.272 1.344-.612 4.515 3.296 5.25 4.638.61 1.224 16.116 3.175 18.312 4.518 0 0 1.71 1.956 1.71 3.298 0 0 3.297-.368 5.862-.368 0 0-1.954.972-1.954 3.052 0 1.956-.977 3.544-2.93 4.517-1.954.978 0 1.707 2.564 1.956 2.686.363 0 3.66-5.25 5.618 0 0-1.222 2.928.977 3.903 0 0-4.52.37-5.25-.975 0 0-1.584 3.052-1.584 4.64 0 0-4.884-1.59-6.228-2.32 0 0-1.954 1.95-.612 2.928 0 0-8.909-.975-10.62-4.272 0 0-3.175.975-2.565 2.076 0 0-6.225-4.272-8.178-4.272l-1.344 2.192s-4.272-2.562-5.616-2.562c-1.224 0-.244 1.953-.244 1.953l-5.98-3.664-2.318 3.664s-4.884-2.322-6.226-3.296c-1.224-.976-1.584 1.952-2.563 2.316 0 0-1.954-2.682-4.64-2.316 0 0-.975 3.294-.609 4.272 0 0-7.57-1.586-8.911-1.956-1.344-.364-.61 1.588 0 2.933 0 0-5.616-1.587-6.838-2.568l-.366 2.568s-4.635-.368-5.613-1.344l-2.93 4.026h-4.273l-.975 3.54s-7.381-2.714-8.06-.86c-.61 1.34-.486 3.179-.486 3.179l-6.064-.406-1.86 3.27s-8.19-3.134-10.143-1.914c0 0-3.873 2.46-5.583 3.07-2.161-2.181-3.799-2.958-5.893-3.652-2.152-.339-6.836 2.56-8.547 1.584 0 0 0-2.323-1.34-2.932-1.224-.612-3.54-.612-4.52.978 0 0-.972-1.344-2.683-3.908-1.586-2.688-3.908.244-3.908.244l-.366-3.176-4.518-.368c-2.686-.366-3.295-2.688-3.295-2.688s-6.958.732-7.935.37l1.708-1.59s-9.521 1.957-11.472 1.225c-2.076-.61 2.196-3.298 2.196-3.298s-8.791-2.193-10.5-2.562c-1.584-.366-11.11 1.582-12.454 1.582s-1.953-2.199-1.953-2.199-2.322 1.956-4.275 2.568c0 0-1.586-3.906-.608-4.274 0 0-6.226 1.71-6.593 3.3 0 0-1.584-2.564-1.344-3.664 0 0-2.928 4.64-4.272 5.616-1.344.977-.245-2.32-.245-2.32s-3.66 4.638-5.004 5.006v-3.298s-10.5 5.616-13.428 4.887c0 0 0-2.325.975-2.932l-6.593-.367c-1.584-.242-3.54-.972-5.248-1.342-1.584-.246 2.321-1.952 5.007-1.221 0 0-7.325-2.686-9.525-1.344 0 0-.977-2.685 2.928-3.664 0 0-5.006-4.881-7.937-4.517 0 0 3.3-1.952 5.985-.978 0 0-3.053-8.299-5.007-9.276 0 0 6.96-1.221 8.913-.24z" fill="#358b03" stroke="#060"/><g stroke="#000"><path d="m311.129 236 88.877-46.032c.426-2.38-.924-4.248-2.319-6.108-25.416 12.466-48.547 27.592-76.79 36.756-1.587.612-15.627 6.47-22.83 15.142-2.285 2.29-2.453 5.669-2.453 5.669s.175 3.876.99 4.923c0 0 .212 1.065 1.54 1.916-.015 0 .82.408 1.399.201.644.12 1.694.113 3.16-2.454 1.467-2.444 6.229-8.059 8.425-10.015z" fill="#d67c59"/><path d="m382.673 190.46 11.474-5.496s3.909 2.93 3.54 6.228c0 0 .856 7.569 10.258 12.819 0 0-7.938 9.888-21.852 10.745 0 0 1.596-13.052-1.332-16.839 0 0-.489.468-.276-.18.415-1.27-.283-5.625-2.064-6.584-.219-.12.14-.475.252-.694z" fill="#e8e8e6"/></g></g><path d="M396.1 192.044c-2.44.977-10.376 5.127-10.376 5.127m6.597-2.69c-.124 1.22-.856 4.151 0 6.227m-1.104-5.856c0 .61-.976 2.808.123 5.74m-1.335-5.128c-.245 1.224-.487 1.956 0 3.3m-.984-2.568c-.244.732 0 1.1 0 1.584m7.2-1.956c.365.975 3.662 6.104 5.616 8.18m-5.124-5.864c.368.977 2.198 4.518 3.54 5.864m-3.78-3.788c.487 1.222 1.464 3.42 2.44 4.64m-2.44-2.192c.245.978.732 2.199 1.464 3.056" fill="none" stroke="#4d4b4d" stroke-width=".977"/><g stroke="#000" stroke-width=".509"><path d="M476.083 168.951c-1.625.196-3.09 1.306-4.737 4.114-2.88 5.508-2.18 8.513 6.52 12.284h.004l32.645 15.988c6.543 3.18 8.898.236 12.59 1.841l64.43 32.82c5.528 2.417 8.622 3.19 7.827 6.048-.108 3.687 1.194 4.193 2.09 4.367 1.39.581 2.464.91 2.757-.696.212-.319-.175-.835-.586-1.511-.411-.677-.847-1.514-.741-2.47.106-.954.184-1.404.502-1.908.319-.504.877-1.06 1.938-2.226.53-.584 1.03-.841 1.507-.888.476-.046.929.117 1.36.369.594.347 1.113.75 1.645 1.125 2.148-.172.234-3.222-1.256-4.381-3.242-1.52-3.612 1.929-7.027 1.565 0 0-6.104-2.318-8.303-3.905-4.048-2.204-9.702-4.819-10.987-6.253-4.114-.772-35.078-18.19-52.62-26.932-1.882-1.574-2.908-7.4-6.605-9.35-1.086-1.571-24.833-12.415-37.252-18.624-2.289-.854-4.076-1.572-5.7-1.377z" fill="#d67c59" stroke-width=".61070655"/><g fill="#ffa54b" transform="scale(1.2)"><path d="M309.734 165.117c-.203.61-.712.203-.712.408-.405 2.135-.305 3.253-.813 4.475-.712 1.424-3.256 2.748-3.154 2.645-2.033.61-4.474 3.054-8.44.814-.205-.1-.407-.306-.61-.508 0 0 1.116 4.17-2.95 6.204-1.425.713-15.77 8.244-15.77 8.244s-1.527 2.748-.51 6.512c.103.61.305 1.118-.305 1.526-.916.71-2.646 2.748-3.662 6.004 0 0-3.053-1.324-3.053-3.256 0-1.934 1.22-2.95 1.526-4.378.304-1.32 1.117-4.68.712-5.698-.406-1.12-2.238-1.526-2.95-1.933-.61-.41-1.425.405-1.322 1.32.103 1.02.813.813 1.628 1.02 0 0-.916 1.93-.813 3.355l-9.257 4.783s1.22 1.626 1.627 2.34c.405.712 1.32 10.175 4.07 14.653 2.746 4.478 3.662 3.257 4.272 3.867.508.508 1.32 1.32 2.034 1.934.712.51 3.865.812 4.477-.915.712-1.63 1.22-2.647 3.154-4.174 1.933-1.523 5.9-5.39 5.9-7.122 0 0 2.34 6.716 2.033 12.313 0 0 8.546 1.732 16.177 1.933 7.632.105 11.497-1.524 11.497-1.524s1.018-6.41.608-7.632c0 0 1.22 4.172 2.137 5.596 1.018 1.727 2.135 5.288 4.373 5.493 2.137.1 3.97-2.135 4.17-3.05v-6.717h8.648c0-.1 3.867 1.424 5.087 1.22 1.22-.102 1.933-1.22.813-1.628l-.405-.303c1.117 0 2.543.71 2.543.71h4.27c.104-.102 0-.41-.102-.51-.305-1.22-2.544-2.24-4.17-2.95-1.63-.608-3.46-1.323-4.68-1.423-1.933-.206-3.257-.1-6.207.408-.814.1-3.866.405-5.8 1.32-.51.307-1.02.407-.813-.915.306-1.426.204-7.835-1.32-10.583-1.12-1.932-1.018-3.562-.814-5.188.104-1.63.204-7.226 0-8.855-.306-1.627-2.544-3.867-6.61-4.375-3.867-.51-7.124-3.664-7.326-6.207-.305-2.542.408-7.223.814-9.257" fill="#ad7c59" fill-opacity=".99"/><g fill="none"><path d="M292.444 153.627c-.712 3.253-.712 6.104-.61 9.257.103 2.135 1.12 4.577 2.035 6.715.61 1.426 1.425 3.052 2.746 3.867 3.563 2.34 6.92-.204 8.853-1.018.916-.308 2.34-1.626 2.747-2.442.508-1.22.303-2.135.812-4.475-.103.1.813-.408.712-.408.916-1.526.712-2.034 1.22-3.054.51-1.018-.608-2.136-1.83-1.93.608-1.934 1.018-4.073.404-5.905-.202-.608.51-2.235-.608-1.832-4.58 1.832-9.97 1.426-14.854 1.426-.406 0-.712-.815-1.32-.71-.104 0-.205.303-.308.505" fill="#b68a6a"/><path d="M292.034 155.347c-.508-.406-.61-1.32 0-3.256.712-1.928 0-2.033 1.12-3.152 1.12-1.12.813-1.63 1.525-1.932.71-.206 2.848-.206 3.56-.508.61-.308 1.526-.714 2.948-.916 1.526-.308 4.58-.206 6.003.608 1.527.812 2.545 2.85 3.46 3.56 1.02.71 1.63 3.662 1.427 7.94-.307 4.27-1.12 3.457-1.12 3.457s-1.222-2.034-2.238-.308c0 0 0-1.627.203-2.85.102-1.218-.61-3.457.102-4.984 0 0-5.8 1.832-8.75 1.73-3.052-.203-7.323-.917-7.527-1.627l-.714 2.237" fill="#000"/><path d="M294.984 151.797c-.305-.61-1.832-2.85-.61-3.56 1.12-.613.407 2.744 1.936 3.457 0 0-.51 1.526-1.32.102z" fill="#fff" stroke="#fff"/><path d="M298.344 160.137c-.508 1.732-.712 2.138-.916 3.156m10.586 1.624c.204.61.404.303.914.405m.406-3.965c.51-.61 1.22-.303.813 1.223"/><path d="M292.444 157.697c.916.303 1.832.608 2.748 1.02 1.526.61.61 2.845.204 4.27-.204.715-1.02 1.934-.61 2.547.51.81 1.12.303 2.036.403 0-.303.61-.508.813-.508.712-.1 1.12.507 1.627.307.61-.308.51-1.224.306-1.73m-.104-4.479c.102-.403 1.018-.81 1.526-.915 2.136-.405 3.66-.712 5.393.51m-5.699 11.085c-1.73.408-3.56.71-5.188-.206m-.002-.804c.813-.408 1.12-.816 2.137-.308 0-.102 1.12-.406 1.12-.406.813 0 1.323.304 2.137.812m-5.494.302c.916-.306 3.358-.306 5.394.102"/><g stroke-width=".305"><path d="M292.344 160.137c.713-.1 1.526-.916 3.154.306 1.12.712-1.832 1.426-1.322 1.324-1.32.202-1.73-.508-1.828-1.122 0-.202-.204-.508 0-.508zm8.34.81c.712-1.426 1.832-1.12 2.85-.816 1.018.307.712.106 1.628.614-1.12.203-.814.303-1.63.71-.915.408-1.728.61-2.34.206-.204-.206-.712-.508-.712-.916 0 .1.102.203.204.203z" fill="#fff" stroke-linecap="round" stroke-linejoin="round" stroke-width=".304"/><path d="M293.764 161.357c.406 0 .712-.406.712-.814 0-.508-.306-.916-.712-.916-.507 0-.812.408-.812.916 0 .408.303.814.812.814zm8.65.2c.405 0 .712-.403.712-.916 0-.507-.407-.81-.813-.81-.405 0-.712.303-.712.81 0 .515.408.917.814.917z" fill="#000"/></g></g><g id="a"><g fill="none"><path d="M345.854 213.657c-.608-.714-1.018-1.02-1.83-1.324-.61-.303-1.424-.71-2.036-1.016-.712-.408-1.73-.508-2.34-.916m.406 2.646c-.306-.203-.508-.304-.812-.51-.306-.1-.712-.1-1.02-.203-.102 0-.102-.204-.203-.204-.916-.102-1.832-.51-2.44-1.32m-62.775-9.363c.914.71 3.152 2.24 3.356 5.19.204 1.525 1.02 3.05 1.02 3.05m-13.126-7.83c.51 1.727.61 7.425 6.003 13.43m-4.983-21.37c-.408 1.12-.916 2.137.202 2.95m14.448 10.69c1.12-2.545 4.578-2.342 4.578-4.782"/><path d="M284.814 207.247c-.306-2.85-.916-4.475-.405-8.647.202-1.223.404-5.9 0-8.14 0 0 1.628 7.832-3.663 9.362m34.388 12.515c0-3.97.916-6.21.916-6.21 1.22-5.592-1.12-7.73-.203-9.154.812-1.22 2.035-3.766.407-8.854 0 0 2.847 10.483-4.478 10.483-7.425 0-7.12-2.748-7.12-2.748"/><path d="M284.404 190.457c0 2.135 0 8.447 9.055 8.447 2.745 0 5.697-1.933 7.323-3.256m2.242-2.751c-.306-1.934-.306-4.375-.306-6.92m-13.634-3.45c2.44-.308 4.376-.61 8.955-.61m.305-6.32c.51 2.24-.304 5.8 3.866 6.31m4.374-7.12c-.61 1.63-.61 3.256-.814 4.375m.204 2.755c1.73 0 4.985-1.12 9.054-.306m1.426 22.786c.813 1.63 1.018 3.765 3.56 6.207m-31.74-11.397c.204 1.324-1.73 5.698-.306 9.262 1.322 3.558 1.12 7.63-1.12 11.088m6.616-19.02c-.813 1.626-2.238 3.256-2.544 4.68m6.604-1.63c0 1.018-2.744 8.75-4.68 10.886 0 0 3.56 1.424 3.05 6.614m7.33-21.06c0 1.324-.204 1.63.916 2.44m2.444 0c1.32 1.628 5.492 6.514 4.576 9.26m-7.326-6.51c.306 1.018.306 6.31-.61 8.955m-2.13-.205c-1.12 0-2.746.814-3.052 2.747m8.742-3.057c1.118-.306 3.355 1.626 3.355 7.123m15.675-10.273c-2.136.61-3.052 1.732-2.44 1.12-1.12.915-2.138 1.525-2.138 1.525"/></g><path d="M289.794 197.987c.608 0 1.118-.408 1.118-.916 0-.41-.507-.815-1.118-.815-.51 0-1.02.405-1.02.816 0 .506.508.917 1.02.917zm23.1.31c.51 0 1.02-.405 1.02-.916 0-.504-.508-.81-1.02-.81-.607 0-1.118.306-1.118.81 0 .512.51.917 1.118.917z" fill="#000" stroke-width=".305"/><path d="M280.544 239.807c1.22-7.937 4.985-14.55 5.086-15.162 0 0 3.865.816 10.58 1.424 6.612.71 8.444.407 11.496.2 2.95-.302 6.815-.81 6.815-.81s1.222 2.44 1.323 4.883c.305 5.188 2.236 27.677 2.44 33.68 0 0 .813 3.56.813 12.31 0 9.568 2.645 29 2.645 39.382l-2.644.51s-14.446 1.12-14.446-.814c0-2.134-.813-27.065 1.322-42.125 0 0-.508-2.95-1.322-5.496-.813-2.443-4.375-10.074-4.375-11.7 0 0-5.695 16.073-6 18.825-.305 2.543-1.12 38.357-1.63 41.312 0 0-8.24 6.308-9.36 6.92-1.117.51-9.053-3.36-9.257-4.375-.306-1.118.814-13.23 4.578-33.176 1.425-7.123.61-8.44.61-10.375 0-1.933.103-27.473 1.322-35.41z" fill="#e8e8e6"/><path d="M294.274 274.917c-.61 2.24-1.628 4.375-3.56 5.803m-2.75-53.633c-.304 1.322-2.238 7.325-7.122 10.887m14.242-9.767c-1.12 3.562-5.493 22.693-6.31 45.383m-.3 7.127c-.204 2.135-1.322 18.012-1.628 20.756m-.812 3.054c-.51 1.117-2.746 10.375-2.746 18.62m32.246-35.92c-.204 1.933-1.02 15.668 3.56 27.98m-18.51-85.98c-.305 2.237-.813 16.688-.813 17.806 0 1.117 1.63 2.747 2.442 3.054 0 0-1.628.51-1.933 6.003m-4.076-12.923c-.308 1.727-1.934 8.547-3.054 11.295m13.124-25.435s4.884 1.018 5.188 0c0 0 1.628 29.512 3.866 45.89m-11.184-42.13c0 1.934-.61 16.485-.61 16.485m2.44 2.135s1.93 2.745 1.425 4.066m-17.805-28.076c1.63.508 3.053.812 3.053.812m5.187 1.628c-.307.814-.61 4.58-.61 4.58m8.75 38.87c.61.814 1.425 1.936.814 4.377" fill="none"/><path d="M284.914 224.447s0-3.256 1.22-4.886c0 0 3.457.715 8.342 1.223 4.984.508 8.95.916 12.615.508 3.664-.405 7.43-1.32 7.43-1.32s1.016 4.783.505 5.495c0 0-3.968.814-8.34 1.016-4.478.304-11.903-.407-14.446-.81-3.36-.41-6.31-1.02-7.326-1.223z" fill="#d67c59"/><path d="m288.064 224.847.608-4.883 1.02.1-.204 5.088zm22.08-4.07.103 5.496 1.22-.206-.1-5.597zm-15.67 0-.406 5.29h.713l.713-5.29z" fill="#fff"/><path d="M276.774 320.807c-.305 1.322-.812 3.154-1.018 5.496 0 .508-.507 3.256 1.018 3.356 1.12.102 1.425-2.85 1.425-2.85s-1.02 3.256.304 3.664c1.832.403 2.034-3.562 2.034-3.562-.204 1.12-1.425 3.97.306 4.27 1.83.308 2.34-3.866 2.34-3.866s-1.526 4.174.304 4.275c1.73.1 1.73-4.07 1.73-4.07s-.917 4.987 1.525 4.58c1.32-.204 1.628-1.935 1.933-2.952.406-1.524 1.322-3.457.204-6.612-.812-2.34-.507-2.95-.507-2.95s-2.85 2.137-5.087 3.56c-1.02.61-6.514-2.34-6.514-2.34zm29.71-4.38c-.508-.307-.406 1.832-.61 2.846-.102 1.02.205 3.257 3.664 3.055 3.355-.307 6.715-1.018 8.85-.51 2.138.61 5.29.712 7.022.712 1.73 0 2.85-.202 3.66-.51.714-.302 2.24.41 2.95.41.714 0 1.832-1.12 1.73-1.833-.102-1.324-1.32-1.324-3.053-1.424-1.628-.203-3.865-.51-4.983-.916-1.12-.408-3.154-1.527-5.698-2.035 0 0-4.883.205-5.898.205-1.02 0-7.022.303-7.634 0z" fill="#653024"/></g><g fill="#ad7c59" stroke-linecap="round"><path d="M255.714 189.847c-.507.306-1.12-2.035.406-2.95 0 0 .406-1.932 2.035-2.137 0 0 1.32-1.832 3.257-1.626 0 0 2.235-1.525 3.05-1.324.813.102 2.85 2.136 2.95 2.85.205.71 0 1.933-.51 2.442-.61.608-1.018-.102-1.12-.916 0 0 .408 1.524-.812 2.135-1.22.715-1.12.207-1.22-.61 0 0-.307 1.63-1.12 1.833-.813.305-1.32-.408-1.934-.408 0 0 1.02.816.307 1.426-.713.51-1.526.304-2.036-.1-.51-.51-1.12-1.833-3.257-.61z" stroke-linejoin="round"/><path d="M265.684 186.087c-.51-1.63-2.137-3.054-4.07-2.848m2.24 4.368c-.306-.408-.408-.816-.712-1.22-.916-1.528-2.85-1.424-4.477-1.832m2.439 4.582c-.61-.406-.813-1.222-1.425-1.524-1.02-.408-2.035-.916-3.256-.714"/></g></g><g transform="matrix(1.2 0 0 1.2 .005 -.004)"><path d="M439.14 165.12c.712-.306.51.61.61.916.306 1.32.306 2.748.813 3.967.608 1.12.812 1.526 1.83 2.035 1.627.916 6.407 3.562 9.767 1.424.204-.1.508-.306.712-.508 0 0-1.22 4.172 2.95 6.207 1.32.71 15.668 8.242 15.668 8.242s1.525 2.748.61 6.512c-.205.61-.406 1.118.203 1.526 1.02.71 2.644 2.748 3.766 6.004 0 0 2.946-1.324 2.946-3.256 0-1.934-1.22-2.95-1.525-4.375-.2-1.324-1.016-4.682-.607-5.698.405-1.118 2.135-1.526 2.847-1.936.714-.41 1.526.405 1.322 1.32-.102 1.02-.812.817-1.628 1.02 0 0 1.02 1.93.814 3.355l9.358 4.783s-1.22 1.63-1.628 2.34c-.51.715-1.425 10.175-4.17 14.653-2.75 4.478-3.664 3.257-4.172 3.867-.61.508-1.424 1.324-2.137 1.934-.61.51-3.765.815-4.477-.915-.712-1.628-1.22-2.647-3.153-4.174-1.934-1.523-5.9-5.39-5.9-7.122 0 0-2.34 6.72-2.035 12.313 0 0-8.443 1.732-16.176 1.937-7.632.102-11.498-1.528-11.498-1.528s-1.018-6.41-.61-7.632c0 0-1.22 4.172-2.033 5.596-1.12 1.727-2.237 5.29-4.376 5.493-2.236.104-3.968-2.135-4.27-3.05v-6.717h-8.647c0-.1-3.766 1.424-5.087 1.223-1.22-.105-1.832-1.223-.813-1.63l.407-.304c-1.12 0-2.544.71-2.544.71h-4.272c0-.102.103-.41.103-.51.308-1.218 2.546-2.24 4.273-2.95 1.628-.608 3.356-1.323 4.578-1.423 1.934-.203 3.257-.1 6.207.408.812.1 3.967.408 5.798 1.322.508.304 1.118.405.813-.915-.305-1.426-1.22-5.598.307-8.346 1.018-1.933.916-3.56.813-5.19-.204-1.728-1.118-5.597-1.118-7.324 0-5.7 4.375-8.04 8.24-9.262 4.272-1.32 7.12-2.748 6.92-5.288-.104-2.646.608-7.02.202-9.058" fill="#653024"/><g fill="none"><path d="M456.34 153.63c.916 3.356 1.12 4.17 1.12 5.29 0 1.22-.51 1.425-.104 2.75.713 2.44-.712 5.087-2.44 7.936-.814 1.32-1.425 3.052-2.747 3.866-3.357 2.135-7.428-.408-9.564-1.327-1.117-.505-1.73-1.32-2.033-2.135-.407-1.22-.51-2.34-.813-3.967 0-.306.103-1.22-.61-.916-1.22-1.424-1.017-2.034-1.523-3.05-.51-1.022.916-2.14 2.034-1.935-.61-1.933-.915-4.072-.305-5.904.204-.608-.508-2.235.51-1.832 4.577 1.832 9.97 1.426 14.854 1.426.403 0 .71-.812 1.32-.71.097 0 .2.305.3.508" fill="#653024"/><path d="M456.75 155.35c.508-.406.204-2.34-.306-4.375-.203-1.017-1.018-1.424-2.136-2.542-1.12-1.122-1.525-1.122-2.236-1.424-.61-.207-2.034-.207-2.746-.51-.61-.307-2.238-.104-3.766.102-2.036.304-3.153.202-4.68 1.018-1.525.814-2.745 1.73-3.255 3.256-.406 1.118-1.12 2.542-.814 6.817.205 4.272 1.02 3.458 1.02 3.458s1.12-1.627 1.832-.61c0 0-.103-2.24-.305-3.56-.103-1.222 0-2.748.51-4.58 0 0 4.678 1.732 9.053 1.732 3.053 0 7.02-.306 7.123-1.017l.71 2.235z" fill="#000"/><path d="M450.44 160.14c.61 1.732.104 1.222.408 2.34m-10.278 2.03c0 .812-.61.61-1.02.61"/><path d="M456.85 158.82c-.916-.713-2.645-.204-3.46.102-1.525.71-.712 2.24-.204 3.664.204.71 1.02 1.727.51 2.44-.406.813-.712.41-1.628.51.104-.307-.812 0-1.117 0-.61-.1-.915.404-1.425.203-.608-.305-.508-1.22-.306-1.73m.1-4.479c0-.403-1.32-.81-2.745-.915-2.238-.102-2.442.104-4.172 1.322m11.497 8.953c-.405-.608-1.018-.916-2.137-.405 0-.204-1.524-.406-1.524-.406-.813 0-1.322.302-2.137.71m5.588.611c-.916-.61-3.256-.2-5.596-.2m.206.81c1.73.512 3.46.816 5.188 0"/><g stroke-width=".305"><path d="M456.44 160.14c-.712-.1-1.018-.916-3.153.306-1.12.61 1.832 1.426 1.425 1.324 1.22.202 1.628-.508 1.73-1.122-.002-.203.202-.508-.002-.508zm-8.34.81c0-.816-1.83-1.12-2.847-.816-1.02.306-.61.105-1.526.613 1.02.203.712.303 1.526.71.914.408 1.12.814 2.34.206.305-.105.71-.508.812-.916-.1.1-.202.203-.305.203z" fill="#fff" stroke-linecap="round" stroke-linejoin="round"/><path d="M455.12 161.36a.802.802 0 0 1-.813-.814c0-.508.307-.916.813-.916.405 0 .712.408.712.916 0 .408-.307.814-.712.814zm-8.75.2c-.406 0-.712-.403-.712-.916 0-.508.403-.81.812-.81.41 0 .712.302.712.81 0 .514-.303.916-.812.916z" fill="#000"/></g></g><use fill="#d67c59" height="100%" transform="matrix(-1 0 0 1 748.816 0)" width="100%" xlink:href="#a"/><g fill="#653024"><path d="M491.64 193.51c.508.206 1.934-2.033.508-3.05 0 0-.508-1.933-2.136-2.035 0 0-1.322-1.933-3.257-1.63 0 0-2.136-1.524-2.948-1.42-.916.2-2.95 2.236-3.053 2.95-.102.608 0 1.83.508 2.44.61.51 1.02-.104 1.12-1.02 0 0-.406 1.53.812 2.24 1.22.71 1.12.1 1.22-.71 0 0 .307 1.626 1.12 1.932.813.303 1.322-.408 1.935-.408 0 0-1.02.814-.306 1.323.713.61 1.525.303 2.035-.104.61-.405.305-1.728 2.44-.51z" stroke-linecap="round"/><path d="M482.49 189.75c.506-1.73 2.235-3.153 4.067-2.85m-2.137 4.38c.203-.41.305-.816.61-1.224.915-1.524 2.948-1.524 4.576-1.832m-2.546 4.476c.61-.408.814-1.118 1.426-1.42 1.018-.513 2.136-.917 3.256-.715" stroke-linecap="round" stroke-linejoin="round"/><path d="M482.31 186.77c-.896.716-1.837 1.798-1.906 2.28-.103.61-.008 1.828.5 2.44.55.46.95-.018 1.095-.782-.06.463-.072 1.465.843 2 1.22.71 1.118.095 1.22-.72 0 0 .31 1.636 1.124 1.94.813.305 1.325-.407 1.938-.407 0 0-1.026.805-.312 1.313.712.61 1.522.31 2.03-.094.61-.41.3-1.723 2.44-.5.266.105.803-.453 1.03-1.157l-7.688-5.53z" stroke="none"/><path d="M480.68 188.19c-1.502 2.582.5 4.132 1.164 2.62-.193 2.385 1.606 2.29 2.285 1.537.657 2.512 1.83 1.395 2.908 1.164-1.223 2.29 1.48 1.61 2.12 1.082.924-1.362 1.356-.277 2.036-.416l1.164-1.247m-7.977-5.7c-1.686.896-2.512 2.137-2.535 3.7m4.865-2.2c-1.687.896-2.512 2.137-2.535 3.7m5.405-1.75c-1.687.897-1.765 1.722-2.493 2.826"/></g></g></g><g fill="#ffe682"><path d="M449.333 452.372c27.47.246 43.709-9.768 52.62-15.752 20.876-14.04 25.272-14.528 28.692-14.287 3.907.372 9.64 1.712 9.888 5.132.366 5.251-8.18 7.57-13.065 7.57-5.004 0-18.07-3.298-18.07-3.298l-3.42 2.323c2.32 1.1 29.058 10.01 34.185 1.588 5.247-8.548 10.5-22.348 10.5-22.348s-5.86-10.5-18.926-10.5c-13.185 0-26.004 8.304-34.548 14.526-8.549 6.228-19.29 14.775-47.861 14.775-28.567 0-39.432-8.547-47.976-14.775-8.544-6.225-21.366-14.527-34.428-14.527-13.183 0-19.044 10.5-19.044 10.5s5.248 13.8 10.498 22.348c5.126 8.421 31.866-.49 34.182-1.589l-3.296-2.323s-13.184 3.297-18.07 3.297c-5.006 0-13.552-2.318-13.185-7.568.245-3.42 5.981-4.764 9.888-5.131 3.42-.24 7.815.248 28.69 14.287 8.916 5.983 25.154 15.63 52.745 15.752"/><path d="M405.137 420.008s0-2.325-.37-5.74c-.487-4.396-3.05-5.495-5.124-4.883-1.344.482-4.028 3.785-4.028 3.785v.123a38.836 38.836 0 0 0-3.786-2.32c.977-1.1 6.593-4.517 7.935-4.517 1.224 0 18.07 6.836 23.439 11.474 1.344 1.224 2.322 8.794 1.586 11.232-9.033-2.318-14.892-5.736-19.656-9.034v-.122m-8.06 17.102s-3.664 3.66-3.784 10.378c-.123 7.936 5.616 8.304 9.401 8.18 4.518-.124 8.178-2.685 8.058-11.11 0 0-7.45-3.177-13.676-7.449m96.337-17.099s.123-2.325.49-5.74c.483-4.396 2.927-5.495 5.003-4.883 1.344.482 4.028 3.785 4.028 3.785v.123a38.654 38.654 0 0 1 3.782-2.32c-.974-1.1-6.588-4.517-7.812-4.517-1.342 0-18.188 6.836-23.56 11.474-1.225 1.224-2.2 8.794-1.587 11.232 9.156-2.318 14.892-5.736 19.656-9.034v-.122m8.052 17.102s3.663 3.66 3.785 10.378c.244 7.936-5.619 8.304-9.4 8.18-4.52-.124-8.058-2.685-8.058-11.11 0 0 7.448-3.177 13.675-7.449"/></g><path d="M389.14 431.732s-13.064 3.298-17.946 3.298c-5.004 0-13.552-2.316-13.185-7.57.246-3.42 5.983-4.76 9.89-5.126 2.929-.248 6.715.12 21.243 9.398m120.263 0s13.062 3.298 18.07 3.298c4.883 0 13.427-2.316 13.061-7.57-.242-3.42-5.98-4.76-9.888-5.126-2.931-.248-6.716.12-21.243 9.398m-104.268-11.604c-1.344-.976-2.686-1.956-3.91-2.928-1.83-1.346-3.662-2.568-5.616-3.908 0 0 2.685-3.42 4.027-3.787 2.076-.732 4.638.363 5.124 4.76.369 3.42.369 5.866.369 5.866m-8.91 34.437c2.323 1.344 4.884 1.224 6.473 1.1 4.518-.123 8.179-2.686 8.058-11.11 0 0 5.613 2.808 14.772 5.006 0 0 1.464 1.83 1.707 5.492.37 3.056-1.709 6.348-4.148 6.108 0 0-12.821-2.321-20.632-3.66-4.519-.855-6.228-2.933-6.228-2.933m97.186-34.443c1.341-.976 2.685-1.956 4.026-2.928 1.71-1.346 3.54-2.568 5.493-3.908 0 0-2.684-3.42-4.027-3.787-2.076-.732-4.518.363-5.004 4.76-.368 3.418-.49 5.865-.49 5.865m8.906 34.438c-2.32 1.344-4.884 1.224-6.472 1.1-4.517-.123-8.057-2.686-8.057-11.11 0 0-5.616 2.808-14.652 5.006 0 0-1.584 1.83-1.83 5.492-.243 3.056 1.833 6.348 4.152 6.108 0 0 12.94-2.321 20.632-3.66 4.518-.855 6.226-2.933 6.226-2.933" fill="#171696"/><g fill="none" stroke="#000" stroke-width=".854"><path d="M449.333 452.372c27.471.244 43.709-9.771 52.62-15.752 20.876-14.04 25.272-14.527 28.69-14.285 3.908.366 9.647 1.71 9.887 5.128.369 5.249-8.178 7.567-13.064 7.567-5.004 0-18.068-3.292-18.068-3.292l-3.418 2.321c2.32 1.1 29.054 10.012 34.182 1.584 5.25-8.546 10.498-22.344 10.498-22.344s-5.86-10.503-18.924-10.503c-13.184 0-26.004 8.306-34.55 14.532-8.545 6.228-19.285 14.774-47.857 14.774-28.568 0-39.432-8.548-47.976-14.774-8.546-6.226-21.368-14.532-34.428-14.532-13.184 0-19.044 10.504-19.044 10.504s5.247 13.797 10.498 22.344c5.127 8.424 31.866-.486 34.183-1.584l-3.294-2.322s-13.188 3.292-18.068 3.292c-5.008 0-13.553-2.314-13.188-7.568.246-3.42 5.982-4.762 9.89-5.13 3.416-.242 7.812.247 28.688 14.286 8.916 5.985 25.152 15.632 52.743 15.752z"/><path d="M389.14 431.732s-13.065 3.298-17.944 3.298c-5.006 0-13.552-2.32-13.188-7.57.246-3.42 5.983-4.764 9.89-5.126 2.928-.248 6.714.12 21.243 9.398zm120.253 0s13.064 3.298 18.07 3.298c4.883 0 13.427-2.32 13.063-7.57-.245-3.42-5.98-4.764-9.886-5.126-2.93-.248-6.718.122-21.242 9.398zm-104.256-11.604c-1.344-.976-2.686-1.956-3.91-2.928-1.827-1.346-3.66-2.568-5.616-3.908 0 0 2.688-3.42 4.029-3.787 2.076-.732 4.638.363 5.124 4.764.372 3.413.372 5.86.372 5.86z"/><path d="M405.137 420.008s0-2.323-.37-5.74c-.485-4.396-3.05-5.495-5.124-4.883-1.344.487-4.032 3.785-4.032 3.785v.123a39.852 39.852 0 0 0-3.783-2.32c.976-1.1 6.592-4.517 7.936-4.517 1.224 0 18.069 6.836 23.44 11.478 1.344 1.224 2.32 8.79 1.586 11.234-9.036-2.326-14.895-5.743-19.66-9.036m-8.057 16.976s-3.66 3.66-3.783 10.378c-.123 7.932 5.616 8.302 9.4 8.18 4.518-.124 8.177-2.685 8.06-11.115 0 0-7.448-3.175-13.675-7.449z"/><path d="M400.133 438.932s-2.928 3.052-3.417 8.058c-.244 3.909 2.319 6.104 5.616 5.86 4.638-.24 6.472-6.59 4.272-10.132z"/><path d="M396.22 454.568c2.322 1.344 4.882 1.222 6.471 1.1 4.518-.125 8.177-2.688 8.06-11.112 0 0 5.617 2.808 14.773 5.006 0 0 1.466 1.83 1.707 5.496.369 3.052-1.707 6.348-4.147 6.103 0 0-12.822-2.32-20.633-3.66-4.521-.858-6.23-2.931-6.23-2.931zm97.189-34.44c1.344-.976 2.685-1.956 4.028-2.928 1.711-1.346 3.54-2.568 5.496-3.908 0 0-2.685-3.42-4.03-3.787-2.075-.732-4.517.363-5.003 4.764a112.291 112.291 0 0 0-.488 5.86h-.002z"/><path d="M493.409 420.008s.123-2.323.49-5.74c.485-4.396 2.927-5.495 5.003-4.883 1.344.487 4.028 3.785 4.028 3.785v.123a39.852 39.852 0 0 1 3.784-2.32c-.976-1.1-6.591-4.517-7.814-4.517-1.344 0-18.188 6.836-23.56 11.478-1.225 1.224-2.2 8.79-1.587 11.234 9.156-2.326 14.892-5.743 19.656-9.036m8.052 16.976s3.663 3.66 3.785 10.378c.244 7.932-5.619 8.302-9.402 8.18-4.517-.124-8.056-2.685-8.056-11.115 0 0 7.446-3.175 13.673-7.449z"/><path d="M498.413 438.932s2.93 3.052 3.42 8.058c.367 3.909-2.323 6.104-5.619 5.86-4.638-.24-6.348-6.59-4.272-10.132z"/><path d="M502.313 454.568c-2.32 1.344-4.884 1.222-6.472 1.1-4.515-.125-8.054-2.688-8.054-11.112 0 0-5.619 2.808-14.65 5.006 0 0-1.586 1.83-1.831 5.496-.244 3.052 1.831 6.348 4.152 6.103 0 0 12.94-2.32 20.628-3.66 4.52-.858 6.228-2.931 6.228-2.931z"/></g><path d="M424.553 451.76s4.028 2.934-.855 6.596m-11.23-8.552 12.332 5.374m-10.267-2.566 9.031 3.905m-5.851-6.22 6.836 3.056m49.564-1.593s-4.152 2.934.732 6.596m11.232-8.552-12.331 5.374m10.375-2.566-9.033 3.905m5.745-6.22-6.715 3.056" fill="none" stroke="#fff" stroke-width=".854"/><g stroke="#000"><path d="M376.277 414.2c.175.284.288.58.342.884.045.31.033.656-.036 1.038-.175.907-.66 1.586-1.449 2.054-.792.466-1.7.594-2.704.402a4.6 4.6 0 0 1-1.36-.482 5.436 5.436 0 0 1-1.109-.744c-.134.16-.276.312-.417.471-.196-.036-.392-.074-.586-.111.188-1.182.374-2.364.57-3.545.192.036.392.072.594.114.036.458.112.873.209 1.257.092.384.252.748.462 1.11.2.33.453.618.768.851.305.232.684.396 1.134.478.338.067.64.078.915.036.264-.04.498-.12.678-.252.184-.132.341-.298.461-.5.115-.197.198-.431.252-.722a2.136 2.136 0 0 0-.132-1.217c-.163-.403-.473-.735-.9-1.008a63.561 63.561 0 0 0-1.014-.627 14.18 14.18 0 0 1-.984-.631c-.535-.372-.933-.792-1.172-1.288-.245-.482-.309-1.064-.178-1.747a2.556 2.556 0 0 1 .453-1.044c.224-.316.512-.564.861-.777a3.156 3.156 0 0 1 1.122-.405 3.61 3.61 0 0 1 1.252.02c.477.089.9.246 1.251.463.348.22.668.447.941.705l.396-.432c.197.036.389.072.588.113l-.591 3.424c-.197-.04-.396-.075-.597-.115a14.045 14.045 0 0 0-.144-1.193 4.446 4.446 0 0 0-.344-1.071 2.429 2.429 0 0 0-.643-.821c-.267-.226-.628-.376-1.073-.462a1.722 1.722 0 0 0-1.275.22c-.381.24-.618.558-.698.984-.084.441-.046.83.11 1.164.152.338.413.632.78.9.324.24.653.446.976.638.32.192.624.384.924.588.268.178.532.372.772.588.232.211.436.444.592.692m14.979 2.1a4.508 4.508 0 0 0-.581-.218 1.758 1.758 0 0 0-.696-.106c-.204.017-.416.168-.643.444a7.092 7.092 0 0 0-.715 1.092c-.732 1.328-1.47 2.657-2.201 3.988-.281.506-.631.888-1.054 1.146-.42.26-.876.408-1.356.456-.474.05-.924.012-1.368-.092a5.204 5.204 0 0 1-1.18-.46c-.556-.307-1.02-.648-1.376-1.036-.356-.393-.624-.787-.776-1.197a2.782 2.782 0 0 1-.195-1.215 2.59 2.59 0 0 1 .324-1.108l2.994-5.424a1.13 1.13 0 0 0 .136-.426c.002-.123-.054-.276-.156-.444a1.872 1.872 0 0 0-.336-.382c-.154-.125-.274-.226-.384-.295l.252-.46c1.296.714 2.582 1.426 3.876 2.136l-.254.456a3.88 3.88 0 0 0-.492-.192 2.416 2.416 0 0 0-.465-.132c-.176-.026-.324 0-.438.1-.12.096-.216.206-.294.348-.932 1.692-1.867 3.38-2.798 5.071a4.166 4.166 0 0 0-.336.816c-.101.3-.13.612-.099.932.036.336.168.648.376.96.211.312.574.609 1.082.888.476.264.924.416 1.332.447.406.024.772-.024 1.096-.168a2.484 2.484 0 0 0 .78-.522 3.168 3.168 0 0 0 .534-.706l2.076-3.764c.264-.48.449-.89.544-1.236.1-.342.103-.588.024-.763-.088-.196-.257-.396-.483-.597a4.435 4.435 0 0 0-.554-.44l.252-.456c1.268.696 2.534 1.395 3.804 2.096l-.252.461m5.388 9.326c.162.334.257.7.264 1.088.006.39-.106.794-.346 1.212-.24.42-.542.732-.912.94a2.73 2.73 0 0 1-1.17.347 3.672 3.672 0 0 1-1.233-.114 5.04 5.04 0 0 1-1.224-.498l-4.359-2.51.264-.456c.108.055.264.12.484.204.216.089.377.137.482.151a.674.674 0 0 0 .427-.08.89.89 0 0 0 .305-.336c1.253-2.172 2.506-4.352 3.759-6.526a1.176 1.176 0 0 0 .15-.425.696.696 0 0 0-.142-.439 2.098 2.098 0 0 0-.35-.398c-.144-.125-.26-.226-.366-.296.084-.15.175-.302.261-.452 1.414.812 2.83 1.627 4.248 2.446.329.19.624.4.892.636.259.24.48.516.66.832.168.298.269.624.278.972.012.35-.078.714-.288 1.08a2.256 2.256 0 0 1-.668.744 2.106 2.106 0 0 1-.864.364c-.3.06-.606.066-.928.036a4.156 4.156 0 0 1-.993-.208l-.036.06c.25.186.507.417.777.702.269.294.484.6.631.924zm-.783-2.272c.272-.094.495-.226.682-.408a3.49 3.49 0 0 0 .54-.72c.284-.5.372-.972.26-1.416-.108-.452-.468-.84-1.063-1.184-.135-.076-.312-.177-.523-.292-.216-.12-.396-.214-.53-.284l-2.016 3.495c.273.156.542.312.818.468.358.207.684.336.989.393.307.053.588.042.845-.054zm-.764 3.416a2.028 2.028 0 0 0 .216-1.636c-.164-.56-.59-1.028-1.274-1.423a43.119 43.119 0 0 0-.701-.396c-.192-.102-.339-.176-.437-.228-.617 1.073-1.228 2.136-1.843 3.202a.776.776 0 0 0-.024.797c.141.264.408.506.806.732.64.372 1.242.476 1.798.3.557-.18 1.039-.62 1.458-1.347zm23.639 5.396a4.32 4.32 0 0 0-.6-.158 1.788 1.788 0 0 0-.701-.036c-.2.036-.396.209-.598.506a7.332 7.332 0 0 0-.602 1.158l-1.793 4.188c-.228.532-.54.948-.932 1.248a3.216 3.216 0 0 1-1.305.588 4.032 4.032 0 0 1-1.37.039 5.126 5.126 0 0 1-1.224-.336c-.58-.25-1.075-.546-1.47-.897-.394-.356-.696-.72-.893-1.113a2.782 2.782 0 0 1-.312-1.188 2.602 2.602 0 0 1 .21-1.14l2.44-5.693a1.128 1.128 0 0 0 .096-.432.888.888 0 0 0-.198-.428 1.997 1.997 0 0 0-.376-.348c-.164-.108-.293-.198-.408-.256.069-.16.136-.324.204-.48l4.068 1.742c-.072.159-.138.32-.209.478a4.314 4.314 0 0 0-.507-.144 2.885 2.885 0 0 0-.475-.084c-.18-.012-.324.031-.428.14a1.192 1.192 0 0 0-.256.377c-.76 1.774-1.52 3.547-2.278 5.323a4.24 4.24 0 0 0-.26.84 2.226 2.226 0 0 0 0 .942c.07.33.229.627.469.917.242.288.63.55 1.166.777.502.218.965.321 1.375.312.402-.016.764-.099 1.068-.276.288-.166.54-.36.729-.594.188-.23.345-.485.462-.756.564-1.32 1.128-2.633 1.692-3.95.216-.505.357-.93.42-1.282.06-.354.043-.598-.055-.762-.108-.188-.293-.369-.54-.546a4.652 4.652 0 0 0-.593-.384l.204-.478 3.991 1.709a15.44 15.44 0 0 0-.209.476m11.482 13.49c-1.5-.433-3.005-.87-4.506-1.304l.144-.504c.168.041.379.084.645.132.26.041.452.054.564.034a1.013 1.013 0 0 0 .418-.22.89.89 0 0 0 .228-.403l2.117-7.324a1.723 1.723 0 0 0-.11-.03c-1.971 2.536-3.988 5.034-5.962 7.572-.118-.033-.234-.07-.358-.103-.24-3.24-.543-6.475-.783-9.711a.89.89 0 0 0-.094-.027c-.578 2.004-1.16 4.005-1.736 6.012-.168.576-.258 1.024-.27 1.356-.018.327.038.574.148.751.076.132.27.285.576.474.303.189.504.294.604.33l-.146.503-4.119-1.188c.048-.171.099-.34.147-.506.222.04.462.074.714.089.252.02.453-.002.616-.075.204-.087.375-.248.524-.511.139-.256.302-.703.487-1.344l1.488-5.153c.086-.297.12-.548.104-.76a1.186 1.186 0 0 0-.175-.551 1.534 1.534 0 0 0-.466-.44 2.549 2.549 0 0 0-.612-.294l.144-.504 3.473 1.005c.228 2.803.519 5.604.744 8.408 1.426-1.875 2.892-3.723 4.32-5.6.16-.208.312-.425.449-.666a3.54 3.54 0 0 0 .25-.477c1.107.32 2.22.641 3.324.963l-.144.501a4.822 4.822 0 0 0-.528-.081 2.982 2.982 0 0 0-.49-.028.55.55 0 0 0-.413.192 1.171 1.171 0 0 0-.21.406l-2.1 7.26a.989.989 0 0 0-.036.44c.027.13.108.258.245.393.074.074.216.16.425.261.211.108.374.177.504.223-.05.162-.1.332-.149.5m10.913-3.314c.276.246.507.546.663.903s.216.773.154 1.248a2.52 2.52 0 0 1-.476 1.221 2.868 2.868 0 0 1-.944.774 3.808 3.808 0 0 1-1.185.375c-.437.06-.876.068-1.323.012-1.663-.209-3.324-.42-4.987-.627l.065-.522c.12.008.292.008.528 0 .23-.002.402-.02.504-.048a.653.653 0 0 0 .362-.24.902.902 0 0 0 .153-.424c.312-2.49.624-4.98.938-7.473a1.212 1.212 0 0 0-.024-.45.712.712 0 0 0-.303-.351 2.076 2.076 0 0 0-.477-.23c-.183-.06-.326-.111-.451-.133l.065-.52 4.866.613c.374.048.727.128 1.071.246.33.12.64.285.927.51.267.208.492.472.636.788.144.32.195.686.144 1.106a2.17 2.17 0 0 1-.978 1.618c-.255.172-.54.293-.843.391a4.26 4.26 0 0 1-.996.195l-.012.066c.3.076.627.188.99.348.354.162.671.36.932.602zm-1.601-1.792c.212-.19.372-.401.475-.64a3.46 3.46 0 0 0 .216-.876c.072-.569-.03-1.032-.307-1.404-.276-.374-.752-.592-1.438-.678a34.08 34.08 0 0 0-.591-.07l-.61-.057c-.168 1.334-.333 2.669-.504 4.002.316.038.627.077.936.117a3.2 3.2 0 0 0 1.07-.021c.298-.067.549-.19.752-.375zm.617 3.447c.075-.615-.072-1.14-.432-1.593-.37-.453-.943-.72-1.725-.819-.32-.04-.584-.072-.801-.093-.221-.024-.382-.036-.496-.045-.156 1.227-.307 2.446-.46 3.669a.782.782 0 0 0 .287.744c.232.187.576.308 1.028.364.734.096 1.326-.04 1.77-.42.446-.384.722-.976.828-1.804zm14.292 3.301h-2.865c-.624-.99-1.206-1.821-1.707-2.544-.513-.716-1.075-1.437-1.67-2.204h-1.087v3.324c0 .168.032.324.082.448.054.132.174.234.354.304.088.036.246.064.47.096.226.028.416.045.57.052v.526h-4.488v-.526c.118-.007.29-.028.525-.052.225-.024.381-.06.471-.096a.64.64 0 0 0 .327-.28.928.928 0 0 0 .096-.473v-7.577c0-.168-.022-.324-.072-.46-.054-.13-.168-.232-.354-.3a2.784 2.784 0 0 0-.486-.124 3.789 3.789 0 0 0-.508-.069v-.524h4.902a5.6 5.6 0 0 1 1.266.132c.396.098.748.24 1.068.444.306.2.56.446.74.768.183.317.277.7.277 1.152 0 .408-.063.758-.185 1.07a2.216 2.216 0 0 1-.556.804c-.22.22-.495.389-.807.549-.312.156-.66.285-1.038.398.516.689.962 1.256 1.308 1.726.338.468.776 1.03 1.272 1.704a3.156 3.156 0 0 0 1.124 1c.125.071.292.112.485.146.197.036.36.054.487.06-.002.172-.002.348-.002.524zm-3.936-7.807c0-.632-.192-1.128-.552-1.512-.364-.372-.89-.554-1.564-.554h-1.272v4.49h.98c.688 0 1.27-.207 1.721-.65.452-.442.69-1.025.69-1.773zm16.164 7.027-4.404.336c-.012-.176-.024-.352-.039-.528.388-.05.706-.123.963-.22.246-.095.368-.191.36-.3-.004-.045-.018-.095-.028-.162a.58.58 0 0 0-.056-.168c-.346-.759-.71-1.512-1.059-2.273l-3.716.28c-.114.357-.206.66-.268.925-.068.267-.132.506-.183.726a4.477 4.477 0 0 0-.096.525c-.012.137-.022.245-.012.327.012.196.18.33.504.42.321.088.677.12 1.075.112l.04.526-3.988.302c-.012-.175-.024-.351-.04-.525a2.496 2.496 0 0 0 .478-.123 1.55 1.55 0 0 0 .464-.224c.192-.151.332-.3.432-.458a2.34 2.34 0 0 0 .274-.62c.42-1.352.92-2.864 1.426-4.551.506-1.684.99-3.18 1.384-4.495l.598-.044c1.382 2.925 2.825 5.818 4.212 8.739.089.187.188.332.288.447.108.114.244.219.424.315.12.062.27.108.46.137.189.036.341.048.468.044.016.18.03.358.041.533zm-4.582-3.95c-.627-1.308-1.284-2.61-1.915-3.924-.413 1.392-.858 2.776-1.274 4.166zm19.642-8.266-.535.144c-.207-.35-.528-.686-.96-1.032-.435-.343-.81-.492-1.116-.46a7.36 7.36 0 0 0-.54.102c-.21.051-.44.108-.705.177l-1.716.468c.367 1.354.732 2.71 1.1 4.06.39-.108.785-.216 1.177-.322.352-.096.628-.204.804-.336a1.344 1.344 0 0 0 .408-.473c.068-.135.116-.324.134-.567a2.94 2.94 0 0 0-.034-.748l.54-.147c.363 1.33.723 2.654 1.08 3.978-.176.048-.36.096-.54.147a3.58 3.58 0 0 0-.34-.674c-.164-.24-.308-.408-.436-.5a1.092 1.092 0 0 0-.636-.221 2.856 2.856 0 0 0-.823.124l-1.176.32.944 3.482a.919.919 0 0 0 .214.396c.092.106.228.168.408.206.084.02.252.012.504-.012.25-.012.444-.045.567-.072l.137.507-4.44 1.205-.138-.508c.144-.046.334-.118.567-.206.228-.09.381-.152.446-.208a.636.636 0 0 0 .24-.36 1.01 1.01 0 0 0-.02-.466l-1.98-7.296a1.373 1.373 0 0 0-.192-.4c-.084-.102-.226-.166-.414-.2a3.036 3.036 0 0 0-.562-.025 2.952 2.952 0 0 0-.554.06l-.137-.509c2.68-.726 5.364-1.452 8.035-2.178l.686 2.54m11.835-.896c.389.968.768 1.938 1.157 2.904l-7.476 3.61-.228-.474c.105-.06.252-.15.45-.276.187-.118.318-.216.378-.288a.634.634 0 0 0 .177-.4.972.972 0 0 0-.12-.463c-1.086-2.251-2.172-4.503-3.261-6.756a1.169 1.169 0 0 0-.268-.363.636.636 0 0 0-.446-.125 1.992 1.992 0 0 0-.51.048 2.412 2.412 0 0 0-.504.132c-.072-.156-.153-.318-.226-.474l4.034-1.949.228.475a3.572 3.572 0 0 0-.452.298 2.734 2.734 0 0 0-.384.321.514.514 0 0 0-.18.423c0 .156.04.307.113.452l3.06 6.34c.139.288.26.509.372.654a.66.66 0 0 0 .389.28c.135.037.315.013.532-.071.219-.072.51-.196.876-.376.168-.078.333-.17.514-.264.178-.091.336-.198.485-.296.144-.108.269-.216.381-.327a.736.736 0 0 0 .207-.314c.08-.295.158-.702.199-1.242.036-.528.055-.945.024-1.248.16-.075.32-.153.478-.228m5.593-10.383a5.232 5.232 0 0 1 1.832.942 6.428 6.428 0 0 1 1.498 1.752c.425.72.684 1.436.804 2.156.117.72.074 1.407-.084 2.067a4.937 4.937 0 0 1-.837 1.764 4.88 4.88 0 0 1-1.492 1.329c-.636.374-1.288.612-1.97.686-.685.072-1.335.034-1.969-.166a5.058 5.058 0 0 1-1.796-.96 6.283 6.283 0 0 1-1.444-1.683 6.21 6.21 0 0 1-.813-2.175 5.44 5.44 0 0 1 .074-2.056 4.956 4.956 0 0 1 .852-1.782c.4-.543.892-.976 1.478-1.323a5.02 5.02 0 0 1 1.912-.674 4.806 4.806 0 0 1 1.956.12zm2.816 6.969a4.915 4.915 0 0 0-.246-1.625 8.62 8.62 0 0 0-.799-1.726 9.017 9.017 0 0 0-1.188-1.6 4.912 4.912 0 0 0-1.325-.999 2.988 2.988 0 0 0-1.39-.318c-.467.002-.944.15-1.403.42-.51.303-.884.675-1.1 1.128a3.257 3.257 0 0 0-.332 1.455c.01.501.1 1.028.294 1.59a8.98 8.98 0 0 0 .774 1.675 9.24 9.24 0 0 0 1.14 1.554c.396.426.84.756 1.298.998.459.24.916.345 1.396.352.475 0 .96-.136 1.452-.425a2.885 2.885 0 0 0 1.054-1.056 2.97 2.97 0 0 0 .375-1.423zm13.168-7.149c-.777.552-1.56 1.107-2.338 1.656-1.075-.446-2.036-.786-2.86-1.083-.835-.295-1.715-.552-2.633-.834-.3.21-.593.42-.892.629l1.922 2.712c.096.134.216.237.324.316.126.077.279.084.465.042.096-.02.237-.088.441-.194.204-.104.36-.2.492-.288l.305.43c-1.22.867-2.44 1.73-3.66 2.595-.102-.138-.204-.285-.306-.426a8.48 8.48 0 0 0 .4-.344 1.956 1.956 0 0 0 .329-.354.61.61 0 0 0 .1-.415.93.93 0 0 0-.188-.44c-1.464-2.061-2.924-4.125-4.382-6.183a1.32 1.32 0 0 0-.324-.328c-.12-.079-.273-.098-.459-.044a3.838 3.838 0 0 0-.924.42l-.306-.43c1.332-.944 2.664-1.886 3.996-2.832a5.7 5.7 0 0 1 1.109-.621 3.386 3.386 0 0 1 1.128-.26 2.196 2.196 0 0 1 1.044.195c.34.152.636.415.894.78.238.333.396.656.468.984.08.324.084.644.018.974-.054.305-.18.598-.344.912a6.003 6.003 0 0 1-.62.924c.824.267 1.515.468 2.07.65.544.188 1.23.392 2.022.657a3.132 3.132 0 0 0 1.496.164c.144-.016.3-.079.48-.162.182-.08.326-.168.432-.232.098.144.204.288.302.432zm-7.722-4.092c-.369-.518-.816-.813-1.327-.914-.516-.091-1.05.06-1.6.45l-1.04.737a6879 6879 0 0 0 2.6 3.667l.804-.57c.562-.396.912-.906 1.022-1.524.113-.624-.028-1.24-.46-1.846zm16.47-2.508c.291.987.584 1.978.882 2.964l-8.27 3.066c-.06-.162-.124-.328-.183-.492.14-.06.324-.146.54-.268.22-.118.365-.197.424-.26a.732.732 0 0 0 .212-.385.922.922 0 0 0-.068-.456c-.876-2.355-1.745-4.706-2.621-7.064a1.22 1.22 0 0 0-.228-.378c-.096-.096-.24-.144-.43-.163a2.55 2.55 0 0 0-.56.03 2.676 2.676 0 0 0-.545.105c-.06-.162-.125-.329-.182-.492l7.706-2.86.876 2.37c-.175.068-.354.133-.524.197-.222-.324-.572-.612-1.02-.892-.465-.288-.838-.387-1.134-.32-.15.033-.327.078-.528.148-.212.072-.438.148-.699.244-.522.192-1.041.386-1.562.58.48 1.298.967 2.603 1.447 3.9.374-.138.744-.277 1.126-.417.355-.132.612-.26.756-.396a1.096 1.096 0 0 0 .31-.49 1.884 1.884 0 0 0 .066-.64 3.595 3.595 0 0 0-.092-.683c.174-.064.35-.128.528-.195.475 1.284.95 2.568 1.428 3.852-.178.069-.356.132-.528.196a3.965 3.965 0 0 0-.41-.654c-.173-.21-.324-.36-.46-.438a1.086 1.086 0 0 0-.622-.168 2.611 2.611 0 0 0-.765.188l-1.128.418c.367.986.728 1.968 1.095 2.952.11.294.219.516.324.675a.678.678 0 0 0 .387.296c.151.048.343.036.559-.017.222-.06.528-.156.914-.298.156-.06.356-.132.612-.225.252-.094.466-.177.627-.27.168-.087.348-.188.518-.306.17-.125.283-.234.324-.348.136-.3.243-.724.307-1.26.065-.537.104-.922.084-1.152.168-.066.334-.128.507-.192m8.88-7.274a5.112 5.112 0 0 1 1.32 1.584c.345.653.58 1.378.687 2.2a6.084 6.084 0 0 1-.104 2.297 5.209 5.209 0 0 1-.884 1.872 4.89 4.89 0 0 1-1.46 1.29c-.577.338-1.2.545-1.89.636-.738.098-1.429.06-2.08-.14-.657-.197-1.248-.488-1.752-.92a5.122 5.122 0 0 1-1.272-1.584 6.084 6.084 0 0 1-.675-2.117c-.111-.846-.072-1.616.102-2.318a5.41 5.41 0 0 1 .881-1.862 4.972 4.972 0 0 1 3.36-1.944 5.08 5.08 0 0 1 2.022.127 4.84 4.84 0 0 1 1.745.88zm-.136 7.515a4.932 4.932 0 0 0 .415-1.594 9.1 9.1 0 0 0-.067-1.9 8.729 8.729 0 0 0-.468-1.936 4.823 4.823 0 0 0-.818-1.438 3.024 3.024 0 0 0-1.156-.836c-.437-.18-.927-.233-1.454-.165-.594.078-1.084.274-1.462.608a3.204 3.204 0 0 0-.876 1.208c-.18.463-.312.984-.348 1.576a8.698 8.698 0 0 0 .053 1.844c.091.698.244 1.325.444 1.874.192.549.478 1.023.806 1.425.32.405.7.675 1.14.872.438.187.944.252 1.506.175a2.862 2.862 0 0 0 1.378-.555 2.976 2.976 0 0 0 .907-1.162z" stroke-width=".84"/><path d="M408.995 256.388h80.637m6.6 0h11.337v66.3c0 13.186-1.83 65.693-58.236 86.086-56.525-20.393-58.356-72.895-58.356-86.086v-66.3h11.418" fill="none" stroke-width="1.22"/></g></g><path d="M407.316 101.06c-4.083.034-8.6 1.993-13.238 6.97v.003c11.159-3.276 16.084 4.126 20.738 8.848a185.144 185.144 0 0 0-40.187 4.469c-4.316-9.542-19.574-21.154-31.426-3.579 10.797-5.1 16.869 1.972 22.32 5.86a183.334 183.334 0 0 0-32.113 12.3c-.036-.074-.06-.17-.097-.242-4.452-8.508-27.624-18.889-33.079 4.598 11.419-11.846 22.776 1.254 29.551-2.516a184.921 184.921 0 0 0-29.312 19.047c-.048-.06-.089-.142-.137-.199-6.19-7.357-31.075-12.548-31.305 11.555 8.411-13.732 21.951-4.066 27.946-8.508a185.828 185.828 0 0 0-26.551 27.207c-.142-.157-.278-.352-.422-.492-6.901-6.704-32.184-9.393-29.98 14.61 7.176-14.894 22.254-5.715 27.406-11.645-.787.905-1.198 2.046-1.418 3.324a184.53 184.53 0 0 0-18.774 31.965c-8.516-4.559-33.479-.333-24.824 22.14l.004.004c2.841-16.267 19.866-11.484 23.203-18.574-.035.074-.043.156-.074.23a183.218 183.218 0 0 0-11.586 37.387c-10.494.256-27.607 10.189-15.195 27.782-.887-11.867 8.005-14.91 13.629-18.559a186.012 186.012 0 0 0-1.895 26.48c0 2.668.068 5.318.18 7.957-9.473 4.117-21.91 21.338-2.274 32.059-5.556-9.389-.484-15.728 3.047-21.137a183.67 183.67 0 0 0 6.738 33.97c-8.868 5.709-17.914 21.677.735 31.05-5.947-9.306-.914-15.855 2.43-21.422a183.823 183.823 0 0 0 15.167 32.05c-7.113 7.689-11.815 26.56 9.395 30.118-8.65-7.293-5.486-15.216-3.992-21.59a185.65 185.65 0 0 0 23.93 28.734c-6.703 8-10.4 27.5 11.218 29.649-10.412-7.64-5.505-17.171-5.117-23.922a185.209 185.209 0 0 0 34.426 24.414c-1.884 10.32 3.712 27.907 23.39 20.719-10.644-1.969-12.236-9.75-14.003-15.906a183.26 183.26 0 0 0 38.503 13.355c-.184 10.45 6.906 25.133 24.891 17.156-10.944-1.273-12.949-9.17-15.176-15.238a185.716 185.716 0 0 0 31.16 2.633c2.02 0 4.028-.045 6.032-.11 2.28 10.232 14.421 24.377 29.738 10.016-11.618 2.59-15.955-5.553-20.375-10.55a183.776 183.776 0 0 0 40.277-7.91c6.32 8.407 21.669 15.974 30.614-1.946-8.7 5.582-15.085 1.618-20.48-1.594a183.942 183.942 0 0 0 30.62-15.074c7.887 6.427 30.056 9.206 29.73-13.504-5.755 9.918-14.358 8.049-20.988 7.785a185.68 185.68 0 0 0 29.282-25.238c9.283 4.964 28.409 4.982 27.132-16.07-5.284 10.155-13.95 8.697-20.582 8.73a185.093 185.093 0 0 0 21.727-31.89c10.331 1.757 29.212-4.83 20.25-24.485h-.004c-1.252 11.075-9.477 12.97-15.621 15.262a183.238 183.238 0 0 0 13.004-38.387c10.32-2.236 24.597-14.208 10.25-29.457 2.113 9.632-3.303 14.181-8.098 17.965a185.943 185.943 0 0 0 2.14-28.192c0-1.317-.022-2.63-.05-3.941 10.051-3.21 23.152-16.577 7.293-30.355 3.456 10.532-3.14 15.64-7.773 20.23a184.16 184.16 0 0 0-4.993-30.871c8.87-5.284 18.98-23.913-1.851-32.078 7.135 9.167 1.91 16.419-.832 22.445a183.49 183.49 0 0 0-12.895-31.176c7.492-7.267 13.186-26.371-8.156-30.648 8.499 7.638 4.928 15.539 3.25 21.894a185.317 185.317 0 0 0-19.324-26.66c3.968-9.72 2.134-28.003-18.578-25.027 8.755 3.601 9.757 10.137 10.175 16a185.672 185.672 0 0 0-23.77-20.195c2.861-9.903-2.327-30.12-23.144-22.32v.003c11.035 1.947 12.43 10.183 14.336 16.41a183.977 183.977 0 0 0-33.027-16.457c1.754-10.177-5.476-29.538-25.305-19.757 12.344.926 13.755 10.719 16.73 16.753a183.936 183.936 0 0 0-47.175-8.656c-1.593-6.959-8.437-16.132-17.39-16.058zm7.832 20.41c.917 0 1.83.022 2.743.036-6.205 3.72-11.544 15.967-24.887 12.55 14.374 16.239 30.152-2.277 31.894-12.32a179.5 179.5 0 0 1 46.25 8.621c-6.938 2.125-15.809 9.99-26.316 2.614 7.518 19.959 28.42 8.827 34.02.101a179.423 179.423 0 0 1 35.765 18.344c-7.237.404-17.647 9.28-28.156.207 5.43 20.474 27.121 11.724 33.727 3.64 9.762 7.023 18.787 15 26.949 23.793.405 1.13.986 2.11 1.922 2.829-6.244-4.792-20.923 5.851-30.512-6.989.913 22.413 26.746 16.679 33.422 9.57a180.429 180.429 0 0 1 19.719 28.028c-6.29-3.578-20.032-1.414-24.106-14.734-6.515 20.705 17.816 24.397 27.293 20.582a178.881 178.881 0 0 1 13.188 32.843c-5.906-4.18-18.883-4.915-20.473-18.25-9.793 18.687 11.911 26.675 22.34 25.2a180.013 180.013 0 0 1 5.062 34.8c-2.314-6.924-17.557-11.5-14.195-26.066-16.548 15.241 4.566 30.974 14.363 31.422.018 1.077.04 2.153.04 3.234 0 11.536-1.097 22.811-3.169 33.742-.402.738-.679 1.512-.722 2.364.4-7.818-16.779-13.71-11.63-28.852-17.977 13.5 1.355 31.224 11.07 32.688a178.734 178.734 0 0 1-14.308 40.16c-.424-7.185-10.716-17.134-2.054-28.399-20.76 6.862-9.518 28.651-.856 34.024a180.391 180.391 0 0 1-23.34 33.367c2.348-6.816-3.887-19.909 8.36-27.426-22.392-.966-19.05 24.598-12.578 32.047a180.875 180.875 0 0 1-31.145 26.25c1.549-7.034-2.553-19.092 9.176-25.578-20.696-1.836-20.337 20.113-15.297 29.488a179.218 179.218 0 0 1-33.563 15.93c-1.086-.257-2.15-.302-3.203.031 7.516-2.378 7.023-20.409 23.118-20.953-19.284-12.09-29.224 12.843-26.88 22.14.081.319.231.658.352.989a179.473 179.473 0 0 1-40.535 7.578c6.481-3.235 12.647-15.244 25.79-10.934-13.728-17.804-31.557 1.668-32.895 11.293-1.908.06-3.82.102-5.743.102a181.12 181.12 0 0 1-33.785-3.172c-.604-.692-1.3-1.25-2.164-1.594 7.32 2.92 18.515-11.29 31.27-1.535-7.101-21.51-30.772-8.574-34.93.074a10.905 10.905 0 0 0-.633 1.711 178.799 178.799 0 0 1-43.492-16.097c-.025-.012-.041-.035-.066-.047 7.107 3.404 19.238-10.023 31.3.566-5.588-21.806-29.801-10.758-34.746-2.422a180.432 180.432 0 0 1-31.636-22.3c7.086 1.378 17.742.288 22.39 11.375 4.421-21.29-20.271-22.526-29.273-17.758a180.802 180.802 0 0 1-25.93-31.793c6.183 3.77 20.394.731 25.004 14.238 5.92-21.151-19.18-23.887-28.266-19.555a179.077 179.077 0 0 1-16.593-36.93c2.533 7.321 20.434 7.117 20.84 22.981 12.335-19.007-12.622-29.087-22.036-26.87a179.486 179.486 0 0 1-6.8-37.31c4.962 5.243 18.638 7.29 18.511 21.165 12.069-17.268-8.318-27.902-18.87-27.797a182.924 182.924 0 0 1-.15-6.98c0-9.446.733-18.722 2.134-27.774 2.613 6.715 13.012 14.425 6.937 26.414 19.234-10.61 3.843-30.12-5.66-33.652a178.73 178.73 0 0 1 8.258-28.88c2.283 6.343 5.37 13.937-1.32 21.637 18.97-5.04 12.918-23.631 5.46-31.64a179.673 179.673 0 0 1 15.153-27.106c.429 6.337.527 13.558-7.274 18.684 19.158.239 18.901-18.325 14.242-28.254a181.022 181.022 0 0 1 22.102-23.648c-.304 6.935.356 15.828-9.273 20.859 19.389 2.184 20.716-17.04 16.824-27.258a180.343 180.343 0 0 1 23.207-15.797c-1.788 6.696-3.108 15.453-13.551 18.293 18.44 6.267 23.91-12.178 22.34-22.992a178.793 178.793 0 0 1 34-12.875c-5.444 4.753-8.862 17.401-22.442 16.11 17.175 14.154 30.057-7.978 29.551-17.852a180.769 180.769 0 0 1 39.367-4.324z" fill="#338a00" stroke="#075400" stroke-width=".596"/><path d="M305.125 381.948c-.341 1.48-.909 3.533-1.14 6.156 0 .569-.568 3.646 1.14 3.758 1.255.115 1.596-3.192 1.596-3.192s-1.142 3.647.34 4.104c2.053.451 2.279-3.99 2.279-3.99-.228 1.255-1.596 4.447.343 4.783 2.05.345 2.62-4.33 2.62-4.33s-1.709 4.675.341 4.788c1.938.112 1.938-4.558 1.938-4.558s-1.027 5.585 1.708 5.13c1.478-.23 1.823-2.168 2.165-3.307.454-1.707 1.48-3.872.228-7.406-.91-2.62-.568-3.304-.568-3.304s-3.192 2.394-5.697 3.988c-1.143.683-7.296-2.621-7.296-2.621zm33.276-4.906c-.569-.344-.455 2.052-.683 3.188-.114 1.142.23 3.648 4.104 3.422 3.757-.344 7.52-1.14 9.912-.572 2.394.684 5.924.798 7.864.798 1.938 0 3.192-.226 4.1-.571.8-.339 2.508.459 3.304.459.8 0 2.051-1.255 1.937-2.053-.114-1.483-1.478-1.483-3.42-1.595-1.823-.227-4.328-.571-5.58-1.026-1.255-.457-3.533-1.71-6.382-2.28 0 0-5.469.23-6.606.23-1.142 0-7.865.34-8.55 0z" fill="#ad7d5a" stroke="#000" stroke-width=".57027074"/><path d="m320.055 385.14-.228-5.242 2.165 1.826.57-3.99c.91-.228 2.393 1.597 2.393 1.597l-.23-3.988 3.305 3.646s-.228-3.078.909-4.9c0 0 2.506 2.165 2.506 4.672 0 2.17 2.165-3.077 2.165-3.077l1.824 5.813 1.478-2.167 1.255 4.555 2.733-3.987 2.165 4.673 4.9-.344.572 2.736 2.164-2.393 2.85 1.823s2.391-.683 3.646-.683c1.254 0 2.735 1.594 2.735 1.594s.91-1.59 1.823-2.162c.91-.57 2.166.91 2.504 1.821l1.825-3.304s2.394 2.395 2.733 3.304c0 0 .343-2.732.913-3.646.571-.91 1.478.343 2.165 1.483l1.48-4.9s1.595.338 2.733 2.163c1.255 1.821 1.255-2.737 1.255-2.737s2.732 3.65 3.42 6.154m68.6-.912s.91-2.503 2.166-3.758c0 0 2.392 2.851 2.392 3.76 0 0 .683-.341 1.937-1.25l1.823 1.82 2.166-1.479 2.052 1.823 3.761-1.595 1.479 1.594 5.809-.681 2.169.909 2.05-2.617 1.937 2.048 3.076-3.074s1.48 1.249 1.822 2.164c0 0 2.507-1.255 3.078-2.164 0 0 2.39-.912 2.732.566 0 0 1.479-1.14 1.367-2.393-.116-1.252 1.708-.34 2.277 1.257 0 0 .684-2.51 2.51-2.739 0 0 1.25 1.483.907 4.219 0 0 2.735-2.163 3.99-2.393 0 0 .57 3.074-.341 5.813 0 0 2.85-4.674 3.418-3.078.228.91.911 3.99.228 6.152l2.507-1.595.911 3.08 2.733-.571m-128.033 9.28s2.051-3.416 3.304-4.33c0 0 2.733 2.168 3.645 4.901 0 0 .344-1.821 1.255-3.416 0 0 3.418 1.59 3.987 3.76 0 0 1.254-2.166 2.165-2.733.911-.688 1.824 2.39 1.824 4.214 0 0 2.165-2.281 3.42-2.394 0 0 2.392 1.139 3.075 5.13 0 0 2.281-2.166 3.077-1.826 0 0 2.734 1.826 2.05 4.33-.34 1.367 2.736-1.591 6.495-2.504l3.304 2.505s3.077-4.101 3.987-5.471c0 0 2.51.91 2.51 2.395 0 0 1.14-4.335 2.049-4.787.91-.569 2.164 1.367 2.164 2.621 0 0 .343-3.304 2.168-3.989 0 0 1.822 1.252 1.822 2.509 0 0 1.938-3.76 3.42-4.676" fill="none" stroke="#060" stroke-width=".57027074"/><path d="m320.055 385.14-.228-5.242 2.165 1.826.57-3.99c.91-.231 2.393 1.597 2.393 1.597l-.23-3.992 3.305 3.648s-.228-3.078.909-4.903c0 0 2.506 2.167 2.506 4.673 0 2.17 2.165-3.078 2.165-3.078l1.824 5.813 1.479-2.165 1.254 4.557 2.736-3.989 2.162 4.675 4.9-.344.571 2.733 2.164-2.391 2.85 1.822s2.393-.683 3.647-.683 2.735 1.598 2.735 1.598.91-1.598 1.822-2.173c.91-.565 2.168.915 2.505 1.826l1.825-3.304s2.392 2.395 2.733 3.304c0 0 .34-2.733.91-3.647.572-.91 1.48.344 2.166 1.483l1.478-4.9s1.598.34 2.734 2.166c1.252 1.822 1.252-2.733 1.252-2.733s2.733 3.645 3.416 6.15c0 0-18.866 6.478-32.172 4.707-15.662-2.085-28.56-5.047-28.56-5.047m129.342-.569s.91-2.508 2.167-3.763c0 0 2.392 2.853 2.392 3.763 0 0 .681-.341 1.937-1.254l1.822 1.822 2.167-1.478 2.053 1.82 3.757-1.596 1.48 1.596 5.812-.68 2.165.91 2.052-2.622 1.937 2.05 3.076-3.077s1.48 1.252 1.822 2.167c0 0 2.507-1.25 3.078-2.167 0 0 2.393-.91 2.732.57 0 0 1.482-1.142 1.37-2.391-.114-1.253 1.708-.344 2.278 1.25 0 0 .683-2.504 2.504-2.732 0 0 1.253 1.476.911 4.218 0 0 2.733-2.17 3.987-2.397 0 0 .571 3.077-.34 5.815 0 0 2.848-4.675 3.42-3.078.228.91.911 3.987.228 6.15l2.505-1.593.91 3.078 2.732-.571s-16.176 2.478-31.416 1.024c-15.242-1.453-29.543-6.835-29.54-6.835m-11.266 11.314c.74-.458-5.09 11.993-19.23 12.656-19.67.92-36.487-8.893-36.487-8.893s2.052-3.418 3.304-4.332c0 0 2.733 2.167 3.646 4.9 0 0 .343-1.824 1.254-3.417 0 0 3.419 1.59 3.987 3.76 0 0 1.255-2.166 2.168-2.733.91-.687 1.823 2.39 1.823 4.217 0 0 2.164-2.283 3.418-2.397 0 0 2.394 1.14 3.078 5.13 0 0 2.279-2.164 3.075-1.826 0 0 2.735 1.826 2.05 4.33-.341 1.37 2.734-1.59 6.496-2.503l3.304 2.504s3.075-4.1 3.987-5.472c0 0 2.509.915 2.509 2.397 0 0 1.14-4.331 2.05-4.786.91-.57 2.163 1.366 2.163 2.623 0 0 .344-3.306 2.167-3.99 0 0 1.824 1.252 1.824 2.51-.004-.003 1.933-3.764 3.416-4.678z" fill="#5ac800"/></g></g></svg>