<svg xmlns="http://www.w3.org/2000/svg" id="svg25287" width="417" height="250" viewBox="0 0 1000 600" version="1.1"><defs id="defs25220"><style id="style25218">.cls-1,.cls-2{fill:#ff0;stroke-width:0}.cls-2{fill:red}</style></defs><path id="path1011" d="M0 0h1000v600H0Z" class="cls-2"/><circle id="circle1009" cx="500" cy="300" r="124" class="cls-2"/><path id="path1043" d="m500 488.57-6.43-64.27c-.22-2.16.54-4.36 2.2-5.76.99-.83 2.36-1.47 4.23-1.44 2.76.05 4.43 1.53 5.4 2.98.87 1.29 1.21 2.86 1.06 4.41L500 488.56ZM688.57 300l-64.27-6.43c-2.16-.22-4.36.54-5.76 2.2-.83.99-1.47 2.36-1.44 4.23.05 2.76 1.53 4.43 2.98 5.4 1.29.87 2.86 1.21 4.41 1.06l64.07-6.46Zm-2.32 29.5-62.47-16.4c-2.1-.55-4.39-.15-6.03 1.27-.98.85-1.82 2.11-2.08 3.95-.39 2.74.82 4.61 2.09 5.8 1.14 1.06 2.64 1.65 4.19 1.73Zm-6.91 28.77L620.2 332.3c-1.99-.87-4.31-.83-6.15.31-1.1.69-2.13 1.79-2.67 3.58-.81 2.64.09 4.68 1.16 6.05.96 1.22 2.35 2.04 3.87 2.37Zm-11.32 27.34-54.35-34.9c-1.82-1.17-4.13-1.5-6.13-.65-1.2.51-2.38 1.44-3.2 3.11-1.21 2.48-.65 4.64.2 6.16.76 1.36 2 2.38 3.45 2.94l60.02 23.34Zm-15.46 25.23-48.22-42.97c-1.62-1.44-3.84-2.13-5.95-1.6-1.26.31-2.58 1.05-3.65 2.58-1.59 2.26-1.37 4.48-.77 6.12.54 1.46 1.6 2.66 2.95 3.45l55.63 32.44Zm-19.22 22.5-40.9-49.99c-1.37-1.68-3.46-2.7-5.63-2.51-1.29.11-2.71.63-4 1.97-1.92 1.99-2.05 4.21-1.71 5.92.3 1.53 1.17 2.88 2.37 3.87Zm-22.5 19.22-32.58-55.77c-1.09-1.87-3-3.21-5.16-3.36-1.29-.09-2.77.2-4.26 1.32-2.21 1.66-2.68 3.84-2.62 5.58.06 1.55.7 3.03 1.74 4.19Zm-25.23 15.46-23.45-60.18c-.79-2.02-2.46-3.64-4.57-4.13-1.26-.29-2.77-.23-4.42.64-2.44 1.29-3.25 3.37-3.46 5.1-.19 1.54.22 3.1 1.06 4.41Zm-27.34 11.32-13.75-63.11c-.46-2.12-1.86-3.98-3.87-4.79-1.2-.49-2.7-.66-4.46-.06-2.61.9-3.74 2.82-4.21 4.5-.43 1.5-.27 3.1.36 4.52l25.94 58.94Zm-28.77 6.91-3.71-64.48c-.12-2.17-1.21-4.22-3.07-5.34-1.11-.67-2.56-1.08-4.4-.76-2.72.48-4.13 2.2-4.87 3.78-.65 1.41-.75 3.02-.35 4.52ZM311.43 300l64.27-6.43c2.16-.22 4.36.54 5.76 2.2.83.99 1.47 2.36 1.44 4.23-.05 2.76-1.53 4.43-2.98 5.4-1.29.87-2.86 1.21-4.41 1.06L311.44 300Zm2.32-29.5 64.48 3.71c2.17.12 4.22 1.21 5.34 3.07.67 1.11 1.08 2.56.76 4.4-.48 2.72-2.2 4.13-3.78 4.87-1.41.65-3.02.75-4.52.35Zm6.91-28.77 63.11 13.75c2.12.46 3.98 1.86 4.79 3.87.49 1.2.66 2.7.06 4.46-.9 2.61-2.82 3.74-4.5 4.21-1.5.43-3.1.27-4.52-.36l-58.94-25.94Zm11.32-27.34 60.18 23.45c2.02.79 3.64 2.46 4.13 4.57.29 1.26.23 2.77-.64 4.42-1.29 2.44-3.37 3.25-5.1 3.46-1.54.19-3.1-.22-4.41-1.06Zm15.46-25.23 55.77 32.58c1.87 1.09 3.21 3 3.36 5.16.09 1.29-.2 2.77-1.32 4.26-1.66 2.21-3.84 2.68-5.58 2.62-1.55-.06-3.03-.7-4.19-1.74Zm19.22-22.5 49.99 40.9c1.68 1.37 2.7 3.46 2.51 5.63-.11 1.29-.63 2.71-1.97 4-1.99 1.92-4.21 2.05-5.92 1.71-1.53-.3-2.88-1.17-3.87-2.37Zm22.5-19.22 42.97 48.22c1.44 1.62 2.13 3.84 1.6 5.95-.31 1.26-1.05 2.58-2.58 3.65-2.26 1.59-4.48 1.37-6.12.77-1.46-.54-2.66-1.6-3.45-2.95l-32.44-55.63Zm25.23-15.46 34.9 54.35c1.17 1.82 1.5 4.13.65 6.13-.51 1.2-1.44 2.38-3.11 3.2-2.48 1.21-4.64.65-6.16-.2-1.36-.76-2.38-2-2.94-3.45l-23.34-60.02Zm27.34-11.32 25.97 59.14c.87 1.99.83 4.31-.31 6.15-.69 1.1-1.79 2.13-3.58 2.67-2.64.81-4.68-.09-6.05-1.16-1.22-.96-2.04-2.35-2.37-3.87Zm28.77-6.91 16.4 62.47c.55 2.1.15 4.39-1.27 6.03-.85.98-2.11 1.82-3.95 2.08-2.74.39-4.61-.82-5.8-2.09-1.06-1.14-1.65-2.64-1.73-4.19Zm29.5-2.32 6.43 64.27c.22 2.16-.54 4.36-2.2 5.76-.99.83-2.36 1.47-4.23 1.44-2.76-.05-4.43-1.53-5.4-2.98-.87-1.29-1.21-2.86-1.06-4.41l6.46-64.07Zm-29.5 374.82 16.4-62.47c.55-2.1.15-4.39-1.27-6.03-.85-.98-2.11-1.82-3.95-2.08-2.74-.39-4.61.82-5.8 2.09-1.06 1.14-1.65 2.64-1.73 4.19Zm-28.77-6.91 25.97-59.14c.87-1.99.83-4.31-.31-6.15-.69-1.1-1.79-2.13-3.58-2.67-2.64-.81-4.68.09-6.05 1.16-1.22.96-2.04 2.35-2.37 3.87Zm-27.34-11.32 34.9-54.35c1.17-1.82 1.5-4.13.65-6.13-.51-1.2-1.44-2.38-3.11-3.2-2.48-1.21-4.64-.65-6.16.2-1.36.76-2.38 2-2.94 3.45l-23.34 60.02Zm-25.23-15.46 42.97-48.22c1.44-1.62 2.13-3.84 1.6-5.95-.31-1.26-1.05-2.58-2.58-3.65-2.26-1.59-4.48-1.37-6.12-.77-1.46.54-2.66 1.6-3.45 2.95l-32.44 55.63Zm-22.5-19.22 49.99-40.9c1.68-1.37 2.7-3.46 2.51-5.63-.11-1.29-.63-2.71-1.97-4-1.99-1.92-4.21-2.05-5.92-1.71-1.53.3-2.88 1.17-3.87 2.37Zm-19.22-22.5 55.77-32.58c1.87-1.09 3.21-3 3.36-5.16.09-1.29-.2-2.77-1.32-4.26-1.66-2.21-3.84-2.68-5.58-2.62-1.55.06-3.03.7-4.19 1.74Zm-15.46-25.23 60.18-23.45c2.02-.79 3.64-2.46 4.13-4.57.29-1.26.23-2.77-.64-4.42-1.29-2.44-3.37-3.25-5.1-3.46-1.54-.19-3.1.22-4.41 1.06Zm-11.32-27.34 63.11-13.75c2.12-.46 3.98-1.86 4.79-3.87.49-1.2.66-2.7.06-4.46-.9-2.61-2.82-3.74-4.5-4.21-1.5-.43-3.1-.27-4.52.36l-58.94 25.94Zm-6.91-28.77 64.48-3.71c2.17-.12 4.22-1.21 5.34-3.07.67-1.11 1.08-2.56.76-4.4-.48-2.72-2.2-4.13-3.78-4.87-1.41-.65-3.02-.75-4.52-.35ZM529.5 113.75l-3.71 64.48c-.12 2.17-1.21 4.22-3.07 5.34-1.11.67-2.56 1.08-4.4.76-2.72-.48-4.13-2.2-4.87-3.78-.65-1.41-.75-3.02-.35-4.52Zm28.77 6.91-13.75 63.11c-.46 2.12-1.86 3.98-3.87 4.79-1.2.49-2.7.66-4.46.06-2.61-.9-3.74-2.82-4.21-4.5-.43-1.5-.27-3.1.36-4.52l25.94-58.94Zm27.34 11.32-23.45 60.18c-.79 2.02-2.46 3.64-4.57 4.13-1.26.29-2.77.23-4.42-.64-2.44-1.29-3.25-3.37-3.46-5.1-.19-1.54.22-3.1 1.06-4.41Zm25.23 15.46-32.58 55.77c-1.09 1.87-3 3.21-5.16 3.36-1.29.09-2.77-.2-4.26-1.32-2.21-1.66-2.68-3.84-2.62-5.58.06-1.55.7-3.03 1.74-4.19Zm22.5 19.22-40.9 49.99c-1.37 1.68-3.46 2.7-5.63 2.51-1.29-.11-2.71-.63-4-1.97-1.92-1.99-2.05-4.21-1.71-5.92.3-1.53 1.17-2.88 2.37-3.87Zm19.22 22.5-48.22 42.97c-1.62 1.44-3.84 2.13-5.95 1.6-1.26-.31-2.58-1.05-3.65-2.58-1.59-2.26-1.37-4.48-.77-6.12.54-1.46 1.6-2.66 2.95-3.45l55.63-32.44Zm15.46 25.23-54.35 34.9c-1.82 1.17-4.13 1.5-6.13.65-1.2-.51-2.38-1.44-3.2-3.11-1.21-2.48-.65-4.64.2-6.16.76-1.36 2-2.38 3.45-2.94l60.02-23.34Zm11.32 27.34L620.2 267.7c-1.99.87-4.31.83-6.15-.31-1.1-.69-2.13-1.79-2.67-3.58-.81-2.64.09-4.68 1.16-6.05.96-1.22 2.35-2.04 3.87-2.37Zm6.91 28.77-62.47 16.4c-2.1.55-4.39.15-6.03-1.27-.98-.85-1.82-2.11-2.08-3.95-.39-2.74.82-4.61 2.09-5.8 1.14-1.06 2.64-1.65 4.19-1.73Z" class="cls-1"/><circle id="circle1015" cx="500" cy="300" r="114" class="cls-1"/><g id="g26230" transform="matrix(.22749 0 0 .22749 184.929 237.213)"><circle id="circle26220" cx="1385" cy="276" r="422" class="cls-2"/><ellipse id="ellipse26222" cx="1385" cy="266.328" rx="378" ry="375.316" style="fill:#ff0;fill-opacity:1;stroke:none;stroke-width:2.84486;stroke-opacity:1;paint-order:markers fill stroke"/><ellipse id="ellipse26224" cx="1385" cy="251.427" rx="381.383" ry="375.316" style="fill:none;stroke-width:0"/><path id="path26226" d="m1211.802-72.044-26.01-14.945-2.385 34.77c335.316 86.569 500.343 346.462 554.84 456.928l43.354-24.153-27.81-33.35C1690.43 219.729 1525.597 19.32 1211.8-72.043Zm-61.033 45.209-37.385-10.503 15.11 33.297c321.335 91.393 502.261 343.596 564.164 498.89l32.052-9.82-4.639-33.18c-89.88-180.425-237.052-379.113-569.302-478.684Zm-48.415 43.588-30.346-8.578 15.04 28.967c324.425 119.716 462.873 338.478 539.299 526.09l40.437-5.795-6.244-26.843c-26.624-53.584-146.488-383.193-558.186-513.84Zm487.01 576.162c-56.966-151.447-196.39-403.567-522.002-529.607l-27.42-5.482 7.123 31.056c129.606 32.356 430.658 254.759 502.386 523.68l38.719 4.87Z" style="fill:red;fill-opacity:1;stroke:red;stroke-width:3.99874;stroke-dasharray:none;stroke-opacity:1;paint-order:markers fill stroke"/><path id="path26228" d="m1558.198-72.044 26.01-14.945 2.385 34.77c-335.316 86.569-500.342 346.462-554.84 456.928l-43.354-24.153 27.81-33.35c63.361-127.478 228.194-327.887 541.99-419.25Zm61.033 45.209 37.385-10.503-15.111 33.297c-321.334 91.393-502.26 343.596-564.163 498.89l-32.052-9.82 4.639-33.18c89.88-180.425 237.052-379.113 569.302-478.684Zm48.415 43.588 30.346-8.578-15.04 28.967c-324.425 119.716-462.873 338.478-539.299 526.09l-40.437-5.795 6.244-26.843c26.624-53.584 146.488-383.193 558.186-513.84Zm-487.01 576.162c56.966-151.447 196.39-403.567 522.002-529.607l27.42-5.482-7.123 31.056c-129.606 32.356-430.658 254.759-502.386 523.68l-38.719 4.87Z" style="fill:red;fill-opacity:1;stroke:red;stroke-width:3.99874;stroke-dasharray:none;stroke-opacity:1;paint-order:markers fill stroke"/></g></svg>