<svg xmlns="http://www.w3.org/2000/svg" width="500" height="250" viewBox="0 0 1000 500"><path fill="#fff" d="M0 0h1000v500H0z"/><path d="M132.974 105.365c-2.242.611-5.63 8.731-4.367 11.642 1.052 2.424 3.28 3.474 5.879 4.032-1.607 5.83-15.115 10.759-17.778 15.726-.192 3.67.035 10.85 6.513 11.916 13.998 2.303 26.568-10.762 31.193-26.034-3.529 3.796-12.773 13.181-17.965 16.601-6.356 4.056-12.427 3.511-16.277 1.65.92-1.484 5.01-4.035 10.594-7.88 5.584-3.846 6.126-4.873 7.733-10.678 3.24 1.22 7.843.588 8.766-.26 1.882-2.464 2.664-5.298 2.083-8.164-.986-2.08-6.932-9.306-9.848-9.94.002-2.518-6.915-5.493-8.245-3.09-.507.978 2.055 2.684 1.719 4.478zm4.234 4.36c.776 1.67.625 3.531-.322 4.514-8.3.369-4.56-5.743.322-4.515zm3.149 2.351c1.95.392 4.025 2.783 5.548 4.195-3.276.448-4.343.308-6.075-.217-.17-1.348.054-2.731.527-3.978zM523.424 255.29c-4.085 1.273-5.035 1.824-10.816 4.203-3.09-5.274-3.88-5.62-5.411-7.486 1.437-1.74 14.868-.858 16.227 3.284zm-14.796 64.667c-15.585 7.055-26.367 16.516-25.723 34.225-17.946-7.052-22.706-25.975-25.036-35.574-3.618-14.904-12.659-74.529-32.112-85.737l-.47 23.626c6.736 11.23 18.336 43.179 22.243 61.644-6.875 16.973-45.263 47.563-62.902 46.553-12.587-.722-11.044-16.822-2.58-46.881-13.049 13.373-20.114 57.483-1.205 65.028 11.955 4.136 28.85-6.855 44.874-19.548 23.654-18.738 21.29-27.058 23.872-36.9 4.89 21.561 19.449 51.123 63.151 51.996l.343-16.506c-7.886-.725-22.013-12.561-22.194-16.282 4.825-6.577 30.358-20.251 68.021-28.617 5.126-7.926 8.706-12.184 10.674-16.564-9.553 1.798-43.938 3.08-52.916 3.342-25.637-.038-26.252.411-42.068-.097 1.019-4.36 25.824-24.366 32.69-27.034 1.256 1.818 1.71 5.876 2.571 9.4 7.786-4.875 6.454-12.403 6.607-13.017.153-.614 15.056-5.388 20.433-7.87l6.913-14.67c-7.88-9.682-24.415-16.206-30.886-14.223-20.69 6.339-12.846 19.815-10.029 28.19-20.371 18.2-44.275 24.401-44.979 57.454 8.541-2.177 38.71-1.6 50.708-1.938zM344.033 230.423l-2.845-.002c-8.502 13.312-11.201 24.703-23.632 27.648-9.424 2.233-19.513-.502-15.575-24.39-11.284-2.711-40.76 14.73-48.99 16.695-2.413-13.413-9.98-20.96-17.8-25.602-25.315-15.024-39.061 46.826-16.12 47.486 8.73.251 11.578.16 25.08.023 1.9 3.326 5.84 11.188 4.745 17.304-12.235 17.6-46.027 44.296-68.011 41.634-25.395-3.075-39.28-20.459-27.843-62.546l-1.234-.01c-4.966 13.017-27.237 69.078 19.217 82.103 19.71 3.668 53.442-4.276 80.243-41.942 6.14-8.63 6.022-28.566 5.45-39.018 18.091-5.651 25.393-13.779 34.132-16.841 1.934 22.775 15.275 26.188 22.365 25.934 15.012-.536 22.638-14.528 25.706-21.255 2.069 8.213 9.278 14.109 18.681 12.403 19.386-3.515 25.67-36.158 14.233-49.846l-8.175 16.44c9.61 13.348 2.172 14.221-2.071 15.232-13.14 3.129-16.619-11.047-17.556-21.454zm-107.33 22.137c-7.35.638-14.412.57-19.62.118-1.185-2.43 1.066-8.543 4.939-9.94 4.822-1.738 10.75 2.444 14.682 9.822zM399.652 106.843c11.927 7.187 25.364 26.92 10.398 56.448l-1.79.003c1.044-9.317 8.044-26.902-8.67-41.085z"/><path d="m419.416 260.403-.204 5.094-10.68-4.255c6.872 14.814 14.437 26.3 11.43 44.432-3.269 19.721-63.544 62.79-84.914 68.46-17.192 4.56-39.969 4.863-64.309 5.177 50.166-11.94 112.648-48.664 145.234-78.427-5.222-6.627-15.288-20.612-17.069-33.338-4.208-7.883-7.645-13.71-7.645-13.71l3.033-18.559zM797.56 348.872c.275 5.024 10.672 6.695 18.783-1.144.93-.255 2.781-.255 3.794-.375-1.38 6.84-10.222 11.58-12.872 13.24-4.162 2.61-10.001 7.236-15.828 8.785l.08-4.4c1.514-1.076 2.52-1.78 5.032-3.958-6.89-3.604-7.037-7.887-5.54-10.871 4.12-8.206 13.06-17.32 20.412-11.607.905 4.4-2.268 12.56-6.747 6.336-3.168.232-6.558 1.951-7.115 3.994zM524.275 118.603c-1.979-1.701-10.536-.448-13.484-1.193.091-4.09 1.155-8.589 5.923-11.5 6.963-1.995 20.142 2.157 21.868 4.493 1.727 2.336-4.863 9.854-7.87 11.652-10.405 6.222-17.005 7.08-20.313 7.574-1.52-.419-2.955-1.118-4.388-1.774 8.574-2.167 18.057-7.156 18.264-9.252zM556.51 345.125c-4.862-.115-9.743 15.735-24.717 29.351-16.43 13.227-24.607 16.106-37.996 22.045 23.361-1.295 45.923-14.32 54.539-36.038 1.928 1.642 7.495 4.816 11.17 3.413 7.468-9.514-1.094-18.726-2.997-18.771zm1.819 11.57c-.5.307-4.43-1.133-5.82-2.437.271-1.313 1.986-2.198 3.034-1.803 2.883 1.98 3.858 3.308 2.786 4.24zM198.585 262.551c-11.494-4.511-14.605 20.267-17.908 33.09-6.684-19.177-14.275-20.075-18.09-18.417-14.521 6.473 1.748 29.651 9.416 15.804 2.448 2.92 4.117 8.506 10.378 20.24 2.138-15.772 4.36-41.763 16.111-31.135 7.587-8.059 3.03-18.28.094-19.582zM164.15 210.03c-2.506-.199-5.755 4.28-7.398 9.661-1.82 5.958-2.388 9.432 8.483 15.686-7.9 18.515-38.163 38.43-45.49 43.384 25.664-2.22 47.082-29.072 48.882-40.697 3.046 2.665 5.631 2.883 4.546 13.318 1.27-1.963 5.016-5.738 3.737-12.943-2.328-7.784-5.107-7.784-6.43-9.898 1.116-7.212-.825-18.073-6.332-18.51zm1.979 15.387c-.723-.545-4.821-3.8-5.865-5.588.774-1.916 3.33-1.68 4.66-.707 1.329.973 1.298 6.14 1.205 6.295zM450.044 122.666c1.42.627-1.879 13.595 3.026 13.301 4.543-.678 1.806-8.292 1.47-12.142.684-1.526 1.43-2.623 2.42-3.476 1.027 1.477 1.431 2.56 2.392 4.725-.037 1.645-1.162 7.908 2.788 8.46 3.928.308.481-7.82.262-10.568.67-2.534 2.39-4.397 2.39-4.397 8.03 22.222-1.752 25.735-7.617 19.438-2.95 5.344-4.841 5.012-6.256 4.974-5.669-.15-4.069-11.188-4.468-11.462-.962.534-1.585 1.073-2.519 2.21l-.175-3.157z"/><path d="m241.704 106.011-6.504 17.173 5.286 17.997 25.992 169.79c-7.246 9.822-46.092 56.067-88.28 52.836-66.76-5.113-35.738-81.515-36.527-88.596l-.795-.025c-36.675 81.594 7.31 108.683 35.331 109.589 37.212 1.203 71.047-22.488 91.886-53.67 13.183-22.69.449-81.141-3.217-104.421-3.404-24.852-8.69-55.344-13.263-83.222 3.733 2.594 7.804 4.304 7.804 4.304v-5.436zM571.925 148.79l-7.617-7.085c3.05 21.129 9.962 67.344 17.117 111.768 1.17 14.364 18.284 82.395.685 97.014 1.537-27.293-15.906-113.568-21.005-153.205-.854-7.116-8.399-59.78-12.847-74.733l5.34-18.815 18.326 37.83z"/><path d="m541.345 166.913-11.983-1.08c23.116 28.158 37.057 45.394 71.304 82.41 33.36 36.056 40.326 43.38 34.776 74.019-3.06-27.56-21.048-36.46-53.872-73.514-4.486-5.441-45.71-48.76-75.137-93.845l2.714-19.23 32.097 27.408zM696.572 151.14l-7.617-7.087c3.049 21.13 10.158 66.454 16.687 110.973 8.01 54.617 21.426 105.638 7.9 132.764-4.59-42.154-14.46-96.847-19.881-136.487-.854-7.115-16.134-110.156-20.756-126.406l5.34-18.814 18.326 37.829zM813.806 151.181l-7.617-7.086c3.049 21.13 9.131 67.156 16.749 111.89 7.34 43.11 6.665 58.727.057 79.325-5.159-36.79-14.052-93.69-20.316-135.76-.854-7.116-7.857-57.627-12.48-73.877l5.035-20.099 18.571 38.38z"/><path d="m639.488 150.454-7.372-6.75c5.134 34.95 9.925 66.505 17.178 110.913 3.607 22.08 10.977 68.75-15.026 96.655-22.921 24.598-52.271 27.078-68.582 27.49 27.216-15.658 76.402-39.178 79.696-70.393-1.81-21.968-11.186-71.162-16.776-109.944-.854-7.115-8.04-55.639-12.417-72.99l5.156-19.579 18.142 38.41zM740.432 137.429l-11.289-1.167c32.508 39.2 66.367 74.567 100.165 111.006 33.78 34.866 42.444 47.674 35.86 74.74 1.623-25.141-52.397-67.709-81.996-102.831-31.973-36.748-47.271-50.317-77.305-93.586l2.193-18.883c9.886 5.891 32.445 26.716 32.445 26.716zM740.528 237.979c11.927 7.188 25.364 26.921 10.398 56.449l-1.79.002c1.044-9.317 8.044-26.902-8.67-41.084zM832.121 169.836c11.927 7.188 25.365 26.922 10.398 56.45l-1.79.002c1.044-9.317 8.044-26.902-8.67-41.085zM189.745 109.802c11.927 7.188 25.364 26.921 10.398 56.449l-1.79.002c1.044-9.317 8.044-26.902-8.67-41.084zM595.59 118.807c-1.979-1.702-10.536-.45-13.484-1.193.091-4.09 1.155-8.59 5.923-11.5 6.963-1.995 20.142 2.156 21.868 4.493 1.727 2.336-4.863 9.854-7.87 11.651-10.405 6.223-17.005 7.08-20.313 7.574-1.52-.418-2.955-1.118-4.388-1.774 8.574-2.167 18.057-7.156 18.264-9.251zM656.658 118.44c-1.979-1.702-10.536-.45-13.484-1.193.091-4.09 1.155-8.59 5.923-11.5 6.963-1.995 20.142 2.157 21.868 4.493 1.727 2.336-4.863 9.854-7.87 11.651-10.405 6.223-17.005 7.08-20.313 7.574-1.52-.418-2.955-1.118-4.388-1.774 8.574-2.167 18.057-7.156 18.264-9.251zM827.354 118.807c-1.978-1.702-10.536-.45-13.484-1.193.092-4.09 1.155-8.59 5.924-11.5 6.962-1.995 20.141 2.156 21.868 4.493 1.726 2.336-4.864 9.854-7.87 11.651-10.405 6.223-17.006 7.08-20.314 7.574-1.52-.418-2.954-1.118-4.388-1.774 8.574-2.167 18.057-7.156 18.264-9.251zM136.242 242.13c-1.978-1.702-10.535-.45-13.484-1.193.092-4.09 1.156-8.59 5.924-11.5 6.963-1.995 20.142 2.157 21.868 4.493 1.726 2.336-4.863 9.854-7.87 11.651-10.405 6.223-17.006 7.08-20.314 7.574-1.52-.418-2.954-1.118-4.388-1.774 8.574-2.167 18.058-7.156 18.264-9.251z"/><path d="M262.408 102.637c4.617 7.133 12.57 17.21 16.992 25.119.061 2.08-.182 3.393-.085 5.317-7.837-4.513-2.138-1.282-6.957-3.917 5.678 11.198 17.316 36.4 15.93 52.17-1.83 20.825-24.222 36.344-46.197 26.733-11.653-5.097-16.16-23.066-16.16-23.066s-2.48 9.28-5.013 15.147c-6.194 14.342-33.79 24.43-47.77 8.81-19.5-21.788-4.32-49.978-8.845-60.937-16.221 31.256-7.323 66.849-28.307 67.058-11.438-1.588-25.814-33.805-14.572-64.318-1.008 21.728 2.31 46.318 14.857 46.862 3.072.134 4.831-2.632 8.24-10.267 7.346-18.632 8.698-52.888 31.38-63.659 1.599 10.145-.068 24.888-2.512 38.317-3.302 18.146 5.372 40.578 28.076 33.913 4.204-1.234 10.414-3.955 19.027-19.434 3.092-11.558-4.84-35.639-7.249-51.69 1.42-3.584 4.188-12.01 6.1-15.015 1.787 1.721 7.001 11.662 7.16 13.52 3.081 17.13 3.737 55.719 19.753 66.672 8.482 5.801 29.896 1.3 36.162-8.091-4.961-7.67-19.315-35.7-20.764-54.048-.569-3.398-2.494-7.64-2.962-9.139zM869.51 150.903l-7.372-6.75c5.134 34.95 9.924 66.505 17.178 110.912 3.606 22.08 11.775 70.491-15.329 97.335-21.408 21.202-43.193 25.04-69.566 26.584 25.325-13.695 77.764-39.404 80.983-70.166-1.81-21.968-11.187-71.162-16.776-109.944-.854-7.115-8.041-55.64-12.418-72.99l5.157-19.58 18.142 38.411zM776.32 150.557l-7.372-6.75c5.134 34.95 9.49 65.207 16.744 109.615 3.607 22.08 10.1 54.757 3.194 72.454-6.445 16.515-11.256 30.5-33.18 31.846-33.6 2.062-27.471-45.08-47.366-44.655-31.531.676-41.551 85.502-59.914 86.906-24.012 1.375-40.55-49.869-25.33-81.546-3.842 33.262 6.717 60.592 21.208 60.982 20.046.54 28.54-88.264 69.421-86.997 19.444.603 12.842 44.627 43.495 45.567 13.32.408 23.853-8.913 25.066-17.695-1.81-21.968-11.345-79.516-16.935-118.297-.854-7.116-7.954-59.099-12.33-76.45l5.156-19.579 18.142 38.41zM362.05 106.878c-2.405-.126-6.213 6.788-5.788 9.453.45 2.817 1.074 3.085 3.273 3.89-16.804 16.443-23.68 15.137-40.68 20.71 31.069 2.625 39.836-13.411 44.007-19.184 2.677 1.46 8.32 2.038 9.23 1.41 1.945-1.92 2.982-4.343 2.827-6.914-.604-1.936-4.537-8.869-7.004-9.779.312-2.197-5.358-5.638-6.814-3.703-.562.79 1.464 2.592.95 4.117zm3.16 4.322c.47 1.553.11 3.158-.837 3.9-7.288-.694-3.273-5.57.836-3.9zm2.457 2.437c1.654.58 2.736 2.747 3.892 4.165-2.913-.01-3.394-.087-4.84-.759.013-1.197.382-2.376.948-3.406zM515.826 186.762c-2.05-.163-4.707 3.5-6.051 7.902-1.489 4.874-1.953 7.715 6.94 12.831 1.607 7.035-24.17 25.02-32.797 30.53 24.095-4.552 32.106-17.459 35.57-28.333 2.492 2.18 4.607 2.36 3.72 10.894 1.038-1.605 4.102-4.693 3.056-10.587-1.905-6.367-4.178-6.367-5.26-8.096.913-5.9-.675-14.784-5.18-15.141zm1.62 12.586c-.592-.446-3.944-3.109-4.798-4.571.633-1.568 2.724-1.374 3.811-.578 1.088.795 1.062 5.022.986 5.149zM458.284 244.902c1.275 1.29-2.214 16.02 3.565 15.673 5.354-.798 2.128-9.77 1.733-14.307.806-1.798 1.684-3.091 2.85-4.096 1.211 1.741 1.688 3.017 2.82 5.567-.044 1.939-1.37 9.32 3.284 9.97 4.629.363.567-9.214.308-12.452.79-2.987 3.092-5.366 3.092-5.366 9.461 26.184-2.155 30.844-9.066 23.425-3.477 6.295-5.705 5.904-7.372 5.86-6.68-.176-4.978-13.52-5.449-13.842-1.134.629-1.928 1.662-3.029 3.002l.161-4.669zM589.476 160.536c1.275 1.29-2.215 16.02 3.564 15.673 5.354-.799 2.129-9.77 1.734-14.308.805-1.797 1.683-3.09 2.85-4.095 1.21 1.74 1.687 3.017 2.82 5.567-.044 1.939-1.37 9.319 3.283 9.97 4.63.363.568-9.214.309-12.453.789-2.986 3.091-5.365 3.091-5.365 9.462 26.184-2.155 30.844-9.066 23.424-3.477 6.296-5.705 5.905-7.371 5.86-6.68-.176-4.978-13.519-5.45-13.842-1.133.63-1.928 1.662-3.028 3.003l.16-4.67zM315.431 147.518l-7.617-7.086c3.05 21.129 9.962 67.345 17.117 111.768 1.17 14.364 18.284 82.395.685 97.014 1.537-27.292-15.906-113.568-21.005-153.205-.854-7.116-8.398-59.78-12.847-74.733l5.34-18.815 18.326 37.83zM474.832 102.63c4.617 7.132 12.57 17.21 16.992 25.118.062 2.08-.182 3.394-.085 5.317-7.837-4.512-2.137-1.281-6.957-3.917 5.678 11.199 17.316 36.4 15.93 52.17-1.83 20.825-24.222 36.345-46.197 26.733-11.653-5.096-16.16-23.065-16.16-23.065s-2.48 9.28-5.013 15.146c-6.194 14.343-33.79 24.43-47.77 8.81-19.5-21.787-4.319-49.978-8.845-60.937-16.221 31.257-7.323 66.85-28.307 67.058-11.438-1.587-25.751-30.969-14.358-67.519-1.008 21.729 2.096 49.52 14.643 50.064 3.072.133 4.831-2.633 8.24-10.268 7.346-18.631 8.698-52.888 31.38-63.658 1.599 10.144-.068 24.888-2.512 38.317-3.302 18.146 5.372 40.578 28.076 33.913 4.205-1.234 10.414-3.956 19.027-19.434 3.092-11.558-4.84-35.64-7.249-51.69 1.42-3.584 4.188-12.01 6.1-15.015 1.788 1.721 7.001 11.661 7.16 13.52 3.081 17.13 3.737 55.718 19.753 66.672 8.482 5.8 29.896 1.3 36.162-8.092-4.961-7.67-19.314-35.699-20.764-54.047-.568-3.398-2.494-7.64-2.962-9.139zM550.373 293.256c-17.785-1.978 5.88-41.217 15.641-42.138-14.46 16.797-13.597 22.883-13.548 25.136.057 2.58 2.98 6.274 6.764 2.323l1.393.926c-.309 1.307-3.408 14.514-10.25 13.753zM607.593 237.476c-17.785-1.978 5.88-41.217 15.641-42.137-14.46 16.796-13.597 22.882-13.548 25.135.057 2.58 2.98 6.275 6.765 2.324l1.392.925c-.308 1.307-3.408 14.514-10.25 13.753zM656.75 218.11c-21.392-2.38 7.074-49.58 18.815-50.686-17.393 20.204-16.355 27.524-16.296 30.234.069 3.103 3.584 7.548 8.136 2.795l1.675 1.113c-.37 1.573-4.098 17.46-12.33 16.544z"/><path d="M668.656 298.177c-21.393-2.38 7.074-49.58 18.814-50.686-17.393 20.204-16.355 27.524-16.296 30.234.07 3.104 3.585 7.548 8.137 2.795l1.674 1.114c-.37 1.572-4.098 17.458-12.329 16.543zM719.705 231.044c-21.393-2.38 7.074-49.58 18.814-50.686-17.393 20.204-16.355 27.524-16.296 30.234.07 3.103 3.585 7.548 8.137 2.795l1.674 1.113c-.37 1.573-4.098 17.46-12.329 16.544zM684.592 389.59c-21.393-2.38 7.074-49.579 18.814-50.686-17.393 20.204-16.355 27.524-16.296 30.235.07 3.103 3.584 7.547 8.137 2.795l1.674 1.113c-.37 1.572-4.098 17.459-12.329 16.543zM357.295 321.884c-21.392-2.38 7.074-49.579 18.814-50.686-17.393 20.204-16.355 27.524-16.296 30.235.07 3.103 3.585 7.547 8.137 2.795l1.674 1.113c-.37 1.572-4.098 17.459-12.329 16.543zM439.095 393.597c-17.785-1.979 5.88-41.218 15.641-42.138-14.46 16.796-13.597 22.882-13.547 25.135.057 2.58 2.98 6.275 6.764 2.324l1.392.925c-.308 1.307-3.407 14.515-10.25 13.754zM252.25 394.658c-17.784-1.979 5.881-41.218 15.642-42.138-14.46 16.797-13.597 22.882-13.548 25.136.057 2.58 2.98 6.274 6.764 2.323l1.393.926c-.309 1.307-3.408 14.514-10.25 13.753zM287.389 358.353c-24.32-2.706 8.041-56.362 21.388-57.62-19.773 22.967-18.593 31.29-18.525 34.37.077 3.528 4.074 8.58 9.249 3.178l1.904 1.265c-.422 1.787-4.66 19.847-14.016 18.807z"/></svg>