<svg xmlns="http://www.w3.org/2000/svg" width="425" height="250" viewBox="0 0 1020 600"><path fill="#003893" d="M0 0h1020v600H0z"/><path fill="#fff" d="M0 300h1020v150H0z"/><path fill="#cf2027" d="M0 350h1020v50H0z"/><path fill="#f7d116" d="m382.5 198.715 5.933 18.119 19.066.043-15.4 11.242 5.852 18.148-15.452-11.173-15.45 11.173 5.851-18.148-15.4-11.242 19.066-.043zm-88.168 28.646 5.933 18.121 19.066.043-15.4 11.242 5.852 18.147-15.452-11.172-15.45 11.172 5.851-18.147-15.4-11.242 19.066-.043zm176.336 0 5.933 18.121 19.066.043-15.4 11.242 5.852 18.147-15.452-11.172-15.45 11.172 5.851-18.147-15.4-11.242 19.066-.043zm-230.826 73.863 5.933 18.12 19.067.043-15.4 11.242 5.85 18.148-15.45-11.174-15.452 11.174 5.852-18.148-15.4-11.242 19.066-.043zm285.316 0 5.934 18.12 19.066.043-15.4 11.242 5.851 18.148-15.451-11.174-15.451 11.174 5.851-18.148-15.4-11.242 19.066-.043zm-285.316 100 5.933 18.119 19.067.044-15.4 11.242 5.85 18.148-15.45-11.173-15.452 11.173 5.852-18.148-15.4-11.242 19.066-.043zm285.316 0 5.934 18.119 19.066.044-15.4 11.242 5.851 18.148-15.451-11.173-15.451 11.173 5.851-18.148-15.4-11.242 19.066-.043zm-230.826 68.842 5.933 18.121 19.066.044-15.4 11.242 5.852 18.146-15.452-11.172-15.45 11.172 5.851-18.146-15.4-11.242 19.066-.044zm176.336 0 5.933 18.121 19.066.044-15.4 11.242 5.852 18.146-15.452-11.172-15.45 11.172 5.851-18.146-15.4-11.242 19.066-.044zM382.5 498.715l5.933 18.119 19.066.043-15.4 11.242 5.852 18.149-15.452-11.174-15.45 11.174 5.851-18.149-15.4-11.242 19.066-.043z"/></svg>