<svg xmlns="http://www.w3.org/2000/svg" xmlns:xlink="http://www.w3.org/1999/xlink" xml:space="preserve" width="500" height="250" viewBox="0 0 600 300"><path fill="#0035ad" d="M0 0h600v100H0z"/><path fill="#ed4135" d="M0 100h600v100H0z"/><path fill="#009543" d="M0 200h600v100H0z"/><g transform="translate(-3.417 -2.563) scale(.67806)"><circle cx="300" cy="225" r="147.48" fill="#fae600"/><path stroke="#000" stroke-width="6" d="M275 247h50m-50-37h50M300 78v252"/><path d="M298.69 323.43c-10.503.044-21.012 2.274-26.359 6.553-7.567 6.057-26.956 25.74-31.016 30.133a147.48 147.48 0 0 0 58.562 12.357l.295-.002a147.48 147.48 0 0 0 55.789-11.336c-3.277-3.58-21.02-22.846-30.945-31.152-5.327-4.456-15.823-6.597-26.326-6.553z"/><ellipse cx="300" cy="293" rx="16.5" ry="24"/><ellipse cx="300" cy="228.5" rx="20" ry="12.66"/><circle cx="300" cy="170" r="20"/><path d="M324 95.5c-.006-.013 1.733 2.87-1.913 9.436-17.426 31.383-34.913 32.061-38.232 34.764-3.658 2.978-5.202 2.774-5.202 2.774.261-2.688.504-13.679.695-14.738 2.645-14.663 24.796-14.461 42.132-29.476 2.708-2.345 2.514-2.774 2.514-2.774z"/><g id="a"><path d="M265.5 163s3.914 11.23 4.5 22.5c.935 17.997 18.18 18.5 30 18.5v-10c-8.858 0-16.553-1.317-23-14.5-3.18-6.503-11.5-16.5-11.5-16.5zM265 308s6.296-7.765 13.662-25.975C282.505 272.525 291.612 267 300 267v-14c-19.028 0-28.15 7.055-29.113 17.363C268.91 291.541 265 308 265 308z"/></g><use xlink:href="#a" transform="matrix(-1 0 0 1 600 0)"/></g></svg>