<svg xmlns="http://www.w3.org/2000/svg" xmlns:xlink="http://www.w3.org/1999/xlink" width="375" height="250" viewBox="0 0 1350 900"><style>.base{stroke:#21231e;stroke-width:1;stroke-linecap:round}.white{fill:#fff;stroke-linejoin:round}.blue,.gold,.white{stroke:#21231e;stroke-width:1}.gold{fill:#edb92e;stroke-linejoin:round}.blue{fill:#0c4076}.red{fill:#c6363c;stroke-width:2.5}</style><path fill="#fff" d="M0 0h1350v900H0z"/><path fill="#0c4076" d="M0 0h1350v600H0z"/><path fill="#c6363c" d="M0 0h1350v300H0z"/><g transform="translate(482.143)"><circle cy="122" r="17" class="blue"/><g class="gold"><path d="M3 85a3 3 0 0 0 0-6 3 3 0 0 0-6 0 3 3 0 0 0 0 6v6.5h-5.5a3 3 0 0 0-6 0 3 3 0 0 0 0 6 3 3 0 0 0 6 0H-3V119h6V97.5h5.5a3 3 0 0 0 6 0 3 3 0 0 0 0-6 3 3 0 0 0-6 0H3V85z"/><path d="M3 105.2a17 17 0 0 0-6 0v17h6z"/><path d="M16.8 119a17 17 0 0 1 0 6q-16.8-.8-33.6 0a17 17 0 0 1 0-6q16.8-.8 33.6 0zM101 264q6-12 11-18-17 13-18-6-16 22-27-4-19 27-31-2-20 25-36-2-16 27-36 2-12 29-31 2-11 26-27 4-1 19-18 6 5 6 11 18z"/><path d="m-101 264.7 6 31H95l6-31-101-5z"/><path d="M111 235.7c-7 18-13 18-14 2 1-1 .8-3.8 2.6-2.6.9.6 2.3-1.2 1.4-2-1.8-1.6-4-1.4-6 .6-.5-3-2.5-4-5-3-1 .4-1 2.5 0 2.4 2-.2 1.5 1.6 2 2.6q-20 25-17-7l-10-2q-17 34-26 3c1-1 1-3.4 3-2.6 1 .4 2-1.4.8-2.4-2.4-2-4.8-1-6.8 1-1-3-3.9-3.8-6.6-2-1.2.8-.4 2.9.8 2.6 2.4-.6 1.3 2.4 2.8 3.4-5 20-31 21-26.5-8h-13c4.5 29-21.5 28-26.5 8 1.5-1 .4-4 2.8-3.4 1.2.3 2-1.8.8-2.6-2.7-1.8-5.6-1-6.6 2-2-2-4.4-3-6.8-1-1.2 1-.2 2.8.8 2.4 2-.8 2 1.6 3 2.6q-9 31-26-3l-10 2q3 32-17 7c.5-1 0-2.8 2-2.6 1 .1 1-2 0-2.4-2.5-1-4.5 0-5 3-2-2-4.2-2.2-6-.6-.9.8.5 2.6 1.4 2 1.8-1.2 1.6 1.6 2.6 2.6-1 16-7 16-14-2l-4 1c0 4 1.5 9 4 12 10 12 18 10 18.5-5 13.5 16 24.5 14 26.5-3 11 22 30 11 30.5-2 5.5 19 33.5 19 35.5-3 2 22 30 22 35.5 3 .5 13 19.5 24 30.5 2 2 17 13 19 26.5 3 .5 15 8.5 17 18.5 5 2.5-3 4-8 4-12z"/><path d="M-101 267.5c-5 .5-5-4.5 0-5q101-10.1 202 0c5 .5 5 5.5 0 5q-101-10.1-202 0zM-10 199.5l-7-9q3-29 0-53-2-7 4-4 13 6.5 26 0 6-3 4 4-3 24 0 53l-7 9z"/></g><path fill="#edb92e" d="M23 276 0 287.5-23 276l23-11.5z" class="base"/><g id="a"><g class="gold"><path d="m99.7 159 27.6 13 3 12-10.9 17 1 14h8.9l14.8-40-18.8-16-43.4-15 17.8 15"/><path d="M121.3 213.6a34.221 34.221 0 0 0 1.229-4.72c.536-2.709.306-5.516-.584-8.15 2.936-4.21 6.23-8.784 8.607-13.329 1.697-3.245 3-6.857 2.01-10.558-1.065-3.947-4.435-6.636-7.48-9.011-3.647-2.846-8.51-5.338-13.433-7.466-11.025-4.634-19.79-6.902-26.213-7.108l4.077 3.835c11.952 3.917 26.058 9.084 32.844 14.38 8.78 6.85 8.563 8.47-4.175 26.752-.397.57-1.315 2.026-1 2.688.612 1.309 1.739 7.341-.134 11.483 1.1 2.101 2.694 1 4.258 1.204zM37.9 202.15c-3.416-.232-2.57 5.894-1.897 7.26.88 1.781 1.698 1.838 2.808.19.85-1.262 2.504-7.218-.911-7.45zM102.4 210.8c-3.262-1.046-3.891 5.107-3.56 6.594.434 1.942 1.215 2.193 2.683.86 1.124-1.02 4.14-6.408.877-7.454z"/></g><g class="white"><circle cx="87" cy="145" r="6.4"/><circle cx="99" cy="149" r="6.4"/><circle cx="111" cy="153" r="6.4"/><circle cx="123" cy="158.5" r="6.4"/><circle cx="134" cy="165" r="6.4"/><circle cx="129" cy="210" r="6.4"/><circle cx="135" cy="199" r="6.4"/><circle cx="140" cy="188" r="6.4"/><circle cx="142" cy="175" r="6.4"/><circle cx="24" cy="284" r="3.2"/><circle cx="73" cy="287" r="3.2"/><circle cx="75" cy="272" r="3.2"/><circle cx="25" cy="269" r="3.2"/><path d="M39.8 223c2-3 5.8-17-2.2-17.5s-6 14-4.5 17c2 4 4.1 4.4 6.7.5zM93.1 229.5c1 4.5 2.7 5.1 6.3 1.9 2.7-2.4 9.7-14.9 2-17.4-7.7-2.5-9.1 11.9-8.3 15.5z"/></g><g class="gold"><path d="m16 140 35 1 22 7 6 14-16 31 7 20 21-18 10-37-27-23-57-4z"/><path d="M17.8 137.8c17.233-1.568 34.854.195 52.298 7.171 14.703 5.881 13.262 23.054-4.666 46.89 1.622 3.02 2.545 6.775 2.69 11.11-1.896-.105-3.226-.056-4.9-.098 1.3-2.888-.155-6.425-1.796-8.916-1.07-1.628-1.29-1.341 0-3.155 10.672-15 17.744-28.125 13.584-36.055-5.055-9.637-24.656-14.657-57.715-13.922.06-.88.122-1.767.181-2.663.105-.12.212-.239.324-.362zM87.8 144c-.605.819-1.218 1.637-1.838 2.456 9.7 5.361 13.717 11.016 12.77 16.702-.161.976-3.111 11.382-9.7 31.549-4.503 3.133-7.86 5.937-10.07 8.412.248.282-.71 1.16-.424 1.4-.673 3.08 2.775 2.454 5.1 1.694 1.115-2.961 4.516-6.103 6.47-7.446.398-.273 1.837-.98 1.98-1.44 3.526-11.349 7.068-21.843 10.106-31.615 3.052-9.82-3.56-16.78-14.384-21.712z"/></g><g class="white"><circle cx="22" cy="130" r="6.4"/><circle cx="34.5" cy="130" r="6.4"/><circle cx="47" cy="131.5" r="6.4"/><circle cx="59" cy="134" r="6.4"/><circle cx="71" cy="138" r="6.4"/><circle cx="82" cy="143" r="6.4"/><circle cx="89" cy="151" r="6.4"/><circle cx="76" cy="197" r="6.4"/><circle cx="81" cy="186" r="6.4"/><circle cx="86" cy="175" r="6.4"/><circle cx="90" cy="163" r="6.4"/></g><g class="gold"><path d="m124 217 .363 1.98c2.787.66 5.171.825 7.15.494-3.311-3.299-5.777-4-7.513-2.474z"/><path d="M125 212.3c-1.77.434-1.934.735-2.706.87-1 .172-2.359.102-3.3-.729-3.838-2.319-3.92 1.858-2.43 4.986 1.082 2.266 2.079 5.171 1.047 7.111-1.22 2.291-.96 3.34-.097 3.96.597.393 1.166.762 1.677 1.09 1.033 1.23 1.819 1.017 1.965-.59 3.831-1.59 3.549-5.637 4.696-8.896 1.677-4.766 7.77-5.893-.853-7.802z"/><path d="M123 212.5c-3.336 1.198-3.709-.666-5.96-.571.887 5.141 1.784 7.801 7.11 5.042 2.939-1.523 6.701.706 7.416 2.36.261.604 1.97-.65 2.595-2.025 2.616-5.757-6.688-6.412-11.161-4.806zM111.2 237.4c-2.417-.743-6.195 4.636-7.094 4.544-1.189-3.077 1.237-10.433 5.533-16.257 2.918-.959 3.18-2.848 3.783-7.23.18-1.312 2.68-.408 2.725 1.823.05 2.39.234 3.714-.298 5.755-.208.805-.093 1.576.8 2.31-4.551 1.815-5.669 4.04-5.449 9.055z"/><path d="M113.4 218.5c.417 1 .543 1.835.643 3.367.077 1.168-.35 2.261-1.092 3.23-.745.972-1.81 1.829-3 2.524-.741.432-1.592 1.625-2.265 2.981-.67 1.35-1.16 2.872-1.188 3.955-.096 3.58-.79 6.708-2.417 7.325-1.065.404-1.491.341-2.316.149.233-.643.144-1.549.718-2.446.74-1.157 1.388-2.486 1.446-3.649.051-.904.475-1.508.125-3.29-.225-1.155-.972-1.592-.84-2.656.257-2.062 1.874-6.02 4.248-6.02 2.341 0 3.435-.254 4.646-3.37.412-1.06.95-1.57 1.3-2.1z"/><path d="M122.2 227.1c-.635-.49-1.405-.853-2.128-1.135-1.231-.481-2.544-.555-3.812-.171-5.613 1.697-8.07 11.668-1.92 14.064 1.211.148 2.328-.948 3.416-3.354 1.282-3.185 2.645-5.395 4.106-6.747.895-1.13.925-2.086.338-2.657z"/><path d="M119.4 227.7c-5.392-2.105-9.361 8.226-4.322 10.189 2.705 1.053 2.962-2.33 3.488-4.212.709-2.54 6.012-3.955.834-5.977zM7.7 198c2.701-5.03 5.566-8.248 8.596-9.65-4.176-13.155-5.158-30.146-2.703-51.096.249-3.13 1.02-4.479 2.213-4.457 1.046.02 1.679 1.616 1.781 5.22-.759 11.526-1.692 21.607-1.17 30.166.469 7.642 2.263 14 4.238 21.155.274 1-.43 1.775-3.869 3.712-2.536 1.443-4.133 3.217-4.666 5.073-.735-.296-1.207-.207-1.472-.13-2.547.739-3.622.538-2.948 0zM23.7 214.6c-1.565-.986-1.872-.724-2.374-1.371-.647-.832-.656-2.198-.453-3.508.82-5.285-2.335-4.547-5.882-2.21-1.774 1.168-3.559 3.882-5.083 5.298s-2.788 1.537-3.168 2.096c-.048 2.028-.057 3.78-.043 4.573-.014.793 0 2.542.043 4.57.38.56 1.645.68 3.168 2.096 1.524 1.417 3.309 4.13 5.083 5.298 3.548 2.338 6.701 3.074 5.882-2.21-.201-1.31-.194-2.676.453-3.509.502-.647.81-.384 2.374-1.37 1.016-.64 1.777-1.409 2.285-2.244.507-.835.231-1.735.231-2.635 0-.9.276-1.8-.231-2.635-.508-.835-1.27-1.605-2.285-2.239z"/><path d="M21 207.3c-1.141.469-2.384.972-3.437 2-1.6 1.553-.563 4.13 1.505 6.624.651.787.966 2.177.962 3.561 0 1.384-.332 2.763-.962 3.524-2.067 2.494-3.104 5.072-1.505 6.624 1.052 1.023 2.295 1.523 3.436 2 .11-.601.098-1.39-.059-2.401-.203-1.31-.195-2.676.452-3.509.503-.647.809-.384 2.375-1.37 1.015-.64 1.776-1.409 2.285-2.244.507-.834.231-1.734.231-2.635 0-.9.277-1.8-.231-2.635-.509-.835-1.27-1.605-2.285-2.244-1.566-.986-1.872-.724-2.375-1.37-.647-.833-.655-2.2-.452-3.509.157-1.011.169-1.802.06-2.403zM71.4 200c-1.329 1.686-1.169 2.09-1.89 2.574-.94.624-2.216.406-3.4-.046-4.858-1.86-4.86 2-3.448 6.428.684 2.146 2.756 4.472 3.68 6.296.908 1.787.713 3.126 1.12 3.583 1.762.292 3.275.506 3.964.585.674.109 2.175.302 3.907.489.567-.324 1-1.594 2.612-2.988 1.612-1.4 4.402-2.917 5.903-4.63 3.043-3.473 4.662-6.81-.125-6.694-1.19.03-2.382-.188-2.916-1.044-.422-.669-.105-.972-.515-2.928-.269-1.284-.74-2.307-1.343-3.043-.614-.75-1.51-.585-2.334-.738-.832-.157-1.589-.648-2.508-.182-.918.465-1.845 1.237-2.706 2.338z"/><path d="M63.8 202c.18 1.423.365 2.954 1.072 4.319 1.063 2.054 3.684 1.263 6.483-.699.88-.618 2.23-.761 3.477-.541 1.243.219 2.383.791 2.88 1.613 1.595 2.638 3.511 4.12 5.309 2.613 1.191-1 2-2.291 2.751-3.477-.482-.21-1.165-.315-2.09-.292-1.191.03-2.382-.188-2.916-1.044-.423-.669-.107-.972-.517-2.924-.27-1.286-.738-2.308-1.342-3.047-.613-.75-1.51-.58-2.334-.735-.832-.155-1.588-.65-2.507-.184-.918.464-1.846 1.237-2.712 2.337-1.328 1.686-1.163 2.09-1.89 2.577-.94.62-2.217.4-3.4-.05-.916-.346-1.663-.491-2.264-.466zM90.4 221.2c-.775-.942-1.083-.732-1.225-1.324-.179-.765.271-1.963.854-3.104 2.331-4.57-.15-4.185-3.512-2.383-.852.457-1.842 1.268-2.824 2.104-1 .843-1.975 1.726-2.798 2.317-1.667 1.2-2.696 1.235-3.181 1.72a156.04 156.04 0 0 0-1.612 4.193 167.32 167.32 0 0 0-1.541 4.178c.106.516 1.065.66 1.781 1.979.704 1.3 1.258 3.658 2.12 4.795 1.264 1.666 2.42 2.658 3.32 2.494.897-.163 1.537-1.477 1.777-4.381.094-1.128.739-2.322 1.483-3.03.58-.552.709-.32 2.144-1.128a9.263 9.263 0 0 0 2.345-1.865c.627-.698.724-1.478 1.015-2.248.292-.773.778-1.533.703-2.267a3.792 3.792 0 0 0-.849-2.05z"/><path d="M90.8 213.8c-1 .366-1.66.821-2.802 1.767-.87.72-1.344 1.76-1.513 2.947-.17 1.193-.04 2.545.293 3.885.206.831-.046 2.248-.536 3.644-.487 1.388-1.217 2.761-1.956 3.5-2.444 2.45-4.16 5.04-3.477 6.642.446 1.05.784 1.322 1.484 1.798.29-.599.986-1.135 1.22-2.152.304-1.313.792-2.672 1.567-3.487.6-.639.732-1.352 2.22-2.279.964-.603 1.782-.344 2.438-1.15 1.269-1.56 2.933-5.375 1.306-7.117-1.604-1.719-2.178-2.69-.824-5.649.46-1 .449-1.74.58-2.35zM48.1 226.2c1.277 1.102 1.6.884 1.957 1.549.452.845.24 2.129-.149 3.334-1.537 4.753 1.361 4.335 4.842 2.517 1.732-.905 3.754-3.217 5.325-4.379 1.578-1.16 2.686-1.15 3.118-1.63.442-1.878.796-3.526.943-4.284.171-.749.52-2.43.89-4.407-.216-.59-1.304-.861-2.372-2.46-1.085-1.617-2.166-4.636-3.57-6.105-2.876-3.013-5.765-4.307-5.925 1.479-.04 1.402-.286 2.82-1.037 3.586-.589.603-.832.292-2.471 1.102-1.069.527-1.922 1.216-2.534 2-.615.789-.489 1.73-.625 2.63-.135.897-.533 1.764-.178 2.643.351.87.946 1.698 1.786 2.425z"/><path d="M49.5 233.3c1.085-.336 2.272-.688 3.364-1.531 1.664-1.287 1.18-3.78-.248-6.354-.459-.825-.513-2.209-.275-3.565.239-1.364.772-2.7 1.49-3.387 2.345-2.262 3.78-4.757 2.589-6.586-.796-1.22-1.882-1.932-2.875-2.603-.21.63-.35 1.47-.38 2.554-.036 1.402-.28 2.819-1.032 3.586-.588.603-.832.292-2.47 1.102-1.07.527-1.923 1.216-2.535 2-.615.789-.488 1.73-.624 2.63-.135.897-.534 1.764-.178 2.643.35.869.945 1.699 1.786 2.421 1.277 1.102 1.6.884 1.956 1.55.453.845.24 2.127-.148 3.333-.296.915-.43 1.642-.42 2.203z"/></g><g fill="#edb92e" class="base"><path d="m73.3 279.1-22-12.9-23.4 10.1 22 12.8zM99.8 269.9 76 279.3l19.652 12.848c5.088-1.704 9.122-19.12 4.148-22.298z"/></g><g fill="#21231e"><path d="M6.7 221.1q5.4.7 9.6 4.3-2.9-4.2-9.7-5.2zM6.7 217.7q5.4-.7 9.6-4.3-2.9 4.2-9.7 5.2zM119.7 225.8q2.2-3.1 1.3-6.3 2.1 2.6-.6 6.6zM72.9 219.4q2-5.5 6.3-9.6-4.5 2.5-7.1 9.6zM70 219q.7-5.8-1.6-10.9 3.1 3.7 2.3 11.1zM75.4 227q4.1 1.1 6 4.9-1-4.5-5.8-5.8zM76.6 223.6q4.7-.5 9.2-3.9-4.1 4.2-9.6 4.8zM64.3 221.7q-4.6-1.2-7.8-5.4 1.8 4.6 7.7 6.3zM63.6 224.9q-4.8.1-9.2 3.2 3.3-3.8 9.5-4z"/></g><ellipse cx="50.5" cy="277.5" fill="#c6363c" stroke="#21231e" rx="10" ry="7" transform="rotate(4 50.5 277.5)"/><path d="M71.6 216.5c-4.026-.198-7.914 3.324-8.486 7.634-.57 4.31 2.244 7.657 6.103 7.702 3.86.046 7.445-3.113 8.183-7.273.738-4.16-1.774-7.864-5.8-8.063z" class="gold"/><path d="M71.3 218.6c-2.945-.129-5.77 2.422-6.202 5.574-.435 3.152 1.586 5.648 4.458 5.696 2.834.05 5.52-2.338 6.039-5.377.533-3.106-1.351-5.764-4.295-5.893z" class="gold"/><g class="blue"><path d="M118.793 229.27c-2.628-1.025-6.238 5.137-2.948 6.536 2.221.946 3.977-.298 4.69-2.155.713-1.857.102-3.662-1.742-4.381zM99 274c-5.7-.6-10.5 2-10.9 5.8-.4 3.8 3.9 7.2 9.6 7.8 3.8.4 5.9-2 6.3-5.8.4-3.8-1.2-7.4-5-7.8zM71 220.7c-1.842-.068-3.603 1.514-3.888 3.489-.285 1.975.986 3.568 2.789 3.607 1.803.037 3.5-1.464 3.822-3.406.32-1.944-.882-3.62-2.723-3.69z"/></g></g><use xlink:href="#a" transform="scale(-1 1)"/><g class="white"><circle cy="189" r="6.4"/><circle cy="177" r="6.4"/><circle cy="165.5" r="6.4"/><circle cy="133" r="6.4"/><circle cy="143" r="6.4"/><circle cy="154" r="6.4"/></g><path d="M0 193c.9 0 1.8-.3 2.6.2s1.6 1.3 2.2 2.3c.9 1.5.6 2 1.4 2.4 1 .5 2.2.7 3.5.5 5.2-.8 4.6 2.3 2.2 5.9-1.2 1.8-3.9 3.6-5.3 5.1-1.4 1.5-1.5 2.8-2.1 3.2h-9c-.6-.4-.7-1.7-2.1-3.2-1.4-1.5-4.1-3.3-5.3-5.1-2.4-3.6-3-6.7 2.2-5.9 1.3.2 2.5 0 3.5-.5.8-.4.5-.9 1.4-2.4.6-1 1.4-1.8 2.2-2.3.8-.5 1.7-.2 2.6-.2" class="gold"/><path id="g" fill="#21231e" d="M1.6 212.6q.7-5.4 4.4-9.6-4.3 2.9-5.3 9.8z"/><use xlink:href="#g" transform="scale(-1 1)"/><g class="gold"><path d="M0 193c.9 0 1.8-.3 2.6.2s1.6 1.3 2.2 2.3c.9 1.5.6 2 1.4 2.4 1 .5 2.2.7 3.5.5 1-.2 1.8-.2 2.4-.1-.5 1.1-1 2.5-2 3.5-1.5 1.5-3.6.4-6.6-1.6-.9-.6-2.1-.9-3.5-.9s-2.6.3-3.5.9c-3 2-5.1 3.1-6.6 1.6-1-1-1.5-2.4-2-3.5.6-.1 1.4-.1 2.4.1 1.3.2 2.5 0 3.5-.5.8-.4.5-.9 1.4-2.4.6-1 1.4-1.8 2.2-2.3.8-.5 1.7-.2 2.6-.2zM0 211.65c4.27 0 7.732 3.488 7.732 7.79S4.27 227.23 0 227.23s-7.73-3.488-7.73-7.79 3.46-7.79 7.73-7.79zM98 296.5q0-2.7-4.9-3.1-93.1-7.6-186.2 0-4.9.4-4.9 3.1t4.9 3.1q93.1 7.6 186.2 0 4.9-.4 4.9-3.1"/><circle cy="219.4" r="7.7"/><circle cy="219.4" r="5.7"/></g><g class="blue"><ellipse cy="276" rx="10" ry="7"/><circle cy="219.4" r="3.7"/></g><path fill="none" d="M-47 300q-10.6-.8-23-2.1 70-5 140 0-12.4 1.3-23 2.1" class="base"/><path stroke="#fff" d="M168.75 301.25V576c0 45-20 89-50 121S46.75 751 0 751s-88.75-22-118.75-54-50-76-50-121V301.25z" class="red"/><g class="white"><path d="M-1.53 734.79c-1.455-.24-3.913.067-5.77-1.393-2.47-1.943-1.49-9.787-1.267-14.751 1.135-25.354 2.173-68.034 3.463-127.97 2.113-.288 3.65-.14 5.095.078 1.444-.218 2.982-.366 5.094-.078 1.29 59.939 2.328 102.62 3.465 127.97.221 4.964 1.202 12.809-1.27 14.75-1.856 1.461-4.313 1.153-5.769 1.394h-3.04z"/><path d="M-17.41 734.06c1.472-.106 3.89.423 5.872-.862 2.636-1.71 2.853-9.733 3.08-14.696 1.163-25.353 3.508-67.83 7.646-127.64-2.077-.479-3.623-.47-5.08-.385a27.31 27.31 0 0 0-.694-.16c-9.527 59.167-13.124 101.14-19.648 126.46-.9 3.495-2.835 12.253.176 15.1 1.717 1.622 4.192 1.54 5.62 1.91l3.028.276z"/><path d="M-36.1 731.4c1.475.027 3.836.774 5.926-.327 2.78-1.464 2.667-9.472 3.906-14.28 6.525-25.32 10.122-67.309 19.653-126.5-2.026-.666-3.564-.797-5.025-.844-15.15 57.536-19.691 98.095-31.45 123.15-1.089 3.471-4.053 12.69-1.22 15.903 1.565 1.773 4.037 1.914 5.425 2.413l3 .55z"/><path d="M-54.84 726.08c1.465.174 3.935 1.54 6.123.65 2.911-1.18 3.366-9.746 5.461-14.208 11.813-25.17 16.342-65.982 31.66-123.94-1.95-.862-3.47-1.146-4.918-1.337-1.327-.61-1.075-.924-3.185-1.233-17.797 57.241-23.578 97.056-40.366 121.76-2.71 3.988-4.694 11.975-2.856 14.525 1.382 1.919 3.827 2.304 5.16 2.939l2.922.842zM17.39 734.06c-1.472-.106-3.89.423-5.872-.862-2.637-1.71-2.853-9.733-3.08-14.696-1.164-25.353-3.508-67.83-7.646-127.64 2.077-.479 3.622-.47 5.08-.385.228-.056.458-.109.694-.16 9.527 59.167 13.124 101.14 19.648 126.46.9 3.495 2.833 12.253-.176 15.1-1.718 1.622-4.192 1.54-5.62 1.91l-3.029.276z"/><path d="M36.1 731.4c-1.474.027-3.836.774-5.926-.327-2.779-1.464-2.666-9.472-3.905-14.28-6.524-25.32-10.122-67.309-19.655-126.5 2.026-.666 3.566-.797 5.026-.844 15.15 57.536 19.693 98.095 31.45 123.15 1.09 3.471 4.054 12.69 1.22 15.903-1.564 1.773-4.036 1.914-5.425 2.413l-3 .55z"/><path d="M54.83 726.08c-1.465.174-3.935 1.54-6.123.65-2.911-1.18-3.367-9.746-5.462-14.208-11.812-25.17-16.341-65.982-31.66-123.94 1.951-.862 3.47-1.146 4.918-1.337 1.328-.61 1.076-.924 3.186-1.233 17.797 57.241 23.578 97.056 40.366 121.76 2.71 3.988 4.693 11.975 2.856 14.525-1.382 1.919-3.827 2.304-5.16 2.939l-2.922.842zM-44.91 682.84c1.34.081 3.36.899 5.464-.105 2.799-1.334 4.626-9.066 6.126-13.873 11.915-23.54 22.791-65.347 40.632-123.45-1.727-.728-3.108-.914-4.432-1.012-1.175-.517-2.454-.988-4.378-1.162-19.215 57.497-27.843 99.074-46.623 121.97-3.101 3.78-5.407 12.025-3.932 14.414 1.107 1.797 3.337 2.026 4.515 2.567l2.63.648z"/><path d="M-29.71 685.82c1.344-.027 3.45.627 5.427-.54 2.632-1.553 3.562-9.395 4.501-14.3 4.802-25.052 13.658-67.097 26.244-126.12-1.804-.587-3.2-.66-4.528-.655-1.23-.42-2.556-.787-4.492-.807-14.871 58.657-18.311 102.58-32.376 125.13-2.563 4.109-4 12.402-2.257 14.663 1.31 1.7 3.556 1.75 4.8 2.195l2.692.436z"/><path d="M-14.24 687.58c1.335-.134 3.505.349 5.34-.97 2.44-1.757 2.464-9.636 2.835-14.592 1.897-25.321 5.876-67.88 11.614-127.64-1.863-.44-3.26-.403-4.583-.29-1.272-.32-2.634-.58-4.563-.445-8.055 59.573-12.736 102.71-17.833 127.14-1.017 4.873-2.552 12.664-.558 14.776 1.499 1.588 3.74 1.458 5.018 1.803l2.73.218z"/><path d="M44.9 682.84c-1.34.081-3.36.899-5.464-.105-2.799-1.334-4.626-9.066-6.126-13.873-11.915-23.54-22.791-65.347-40.632-123.45 1.728-.728 3.108-.914 4.432-1.012 1.174-.517 2.454-.988 4.378-1.162 19.215 57.497 27.843 99.074 46.623 121.97 3.1 3.78 5.407 12.025 3.932 14.414-1.108 1.797-3.337 2.026-4.515 2.567l-2.63.648z"/><path d="M29.7 685.82c-1.343-.027-3.448.627-5.427-.54-2.632-1.553-3.56-9.395-4.5-14.3-4.801-25.052-13.659-67.097-26.245-126.12 1.805-.587 3.2-.66 4.53-.655 1.228-.42 2.554-.787 4.49-.807 14.872 58.657 18.312 102.58 32.379 125.13 2.562 4.109 4 12.402 2.255 14.663-1.31 1.7-3.555 1.75-4.789 2.195l-2.693.436z"/><path d="M14.22 687.58c-1.335-.134-3.504.349-5.34-.97-2.44-1.757-2.464-9.636-2.836-14.592-1.898-25.321-5.876-67.88-11.614-127.64 1.864-.44 3.26-.403 4.582-.29 1.273-.32 2.634-.58 4.565-.445 8.054 59.573 12.735 102.71 17.832 127.14 1.017 4.873 2.553 12.664.56 14.776-1.5 1.588-3.74 1.458-5.02 1.803l-2.73.218z"/><path d="M-1.38 688.09c-1.312-.24-3.528.068-5.203-1.392-2.228-1.942-1.344-9.788-1.143-14.752 1.024-25.356 1.96-68.036 3.123-127.98 1.906-.288 3.292-.14 4.595.078 1.303-.217 2.688-.366 4.594-.078 1.164 59.942 2.1 102.62 3.124 127.98.2 4.964 1.084 12.81-1.143 14.752-1.676 1.46-3.891 1.152-5.204 1.392H-1.38z"/><path d="M-34.4 647.97c1.027.081 2.574.9 4.186-.103 2.143-1.336 3.542-9.067 4.691-13.873 9.126-23.54 17.457-65.347 31.123-123.45l-6.748-2.175c-14.718 57.497-21.327 99.074-35.711 121.97-2.375 3.78-4.141 12.025-3.012 14.415.849 1.796 2.557 2.026 3.458 2.566l2.013.65z"/><path d="M-22.76 650.96c1.03-.027 2.641.626 4.157-.54 2.016-1.552 2.728-9.395 3.448-14.3 3.677-25.054 10.46-67.1 20.1-126.12l-6.908-1.462c-11.391 58.657-14.025 102.58-24.8 125.13-1.964 4.109-3.063 12.402-1.73 14.663 1 1.7 2.724 1.75 3.67 2.195.685.146 1.38.291 2.062.433z"/><path d="M-10.91 652.72c1.022-.135 2.684.349 4.09-.972 1.87-1.755 1.887-9.635 2.172-14.592 1.452-25.32 4.5-67.88 8.895-127.64l-7-.733c-6.17 59.573-9.755 102.71-13.66 127.14-.778 4.873-1.954 12.664-.427 14.776 1.148 1.588 2.865 1.458 3.844 1.801l2.093.22z"/><path d="M34.39 647.97c-1.027.081-2.574.9-4.186-.103-2.143-1.336-3.542-9.067-4.691-13.873-9.126-23.54-17.457-65.347-31.123-123.45l6.748-2.175c14.718 57.497 21.327 99.074 35.711 121.97 2.375 3.78 4.142 12.025 3.012 14.415-.849 1.796-2.557 2.026-3.458 2.566l-2.013.65z"/><path d="M22.75 650.96c-1.029-.027-2.641.626-4.157-.54-2.015-1.552-2.728-9.395-3.447-14.3-3.678-25.054-10.462-67.1-20.1-126.12l6.908-1.462c11.39 58.657 14.025 102.58 24.8 125.13 1.962 4.109 3.062 12.402 1.727 14.663-1 1.7-2.723 1.75-3.667 2.195-.687.146-1.381.291-2.064.433z"/><path d="M10.89 652.72c-1.023-.135-2.685.349-4.09-.972-1.87-1.755-1.888-9.635-2.172-14.592-1.453-25.32-4.5-67.88-8.895-127.64l7-.733c6.17 59.573 9.756 102.71 13.66 127.14.78 4.873 1.955 12.664.427 14.776-1.148 1.588-2.864 1.458-3.843 1.801l-2.092.22z"/><path d="M-1.06 653.23c-1-.24-2.703.068-3.986-1.392-1.707-1.942-1.03-9.787-.877-14.751.785-25.357 1.503-68.037 2.394-127.98H3.51c.892 59.942 1.61 102.62 2.394 127.98.154 4.964.83 12.809-.876 14.75-1.283 1.461-2.98 1.153-3.986 1.393h-2.1z"/><path d="M18.1 575.2c0 4.8-11.9 55.4-18.1 55.4-6.2 0-18.1-50.6-18.1-55.4z"/></g><g id="b"><g class="gold"><path d="M82 638c.3 0 .6.7.7 1 1 3 4.9 8 7.9 11 4.7 4.7 3.4 12 .4 16-3.3 4.4-5.2 9.2-5.9 12.7-.5 2.5-1.2 7.6-.6 15.6.3 4 2.7 5.9 4.9 7.7 1.1.9-.8 3.3-4.4 6-.4.3-1.4.9-2 3-.1.3-1.9.3-2 0-.6-2.1-1.6-2.7-2-3-3.6-2.7-5.5-5.1-4.4-6 2.2-1.8 4.6-3.7 4.9-7.7.6-8-.1-13.1-.6-15.6-.7-3.5-2.6-8.3-5.9-12.7-3-4-4.3-11.3.4-16 3-3 6.9-8 7.9-11 .1-.3.4-1 .7-1z"/><path id="c" d="M94.7 701.2c-8 6-15.4-8.4-8.2-27.6 5.4-14.4 31.3-8.4 16.6 10.5-.7.9-1.7.5-1.5-.5.8-4-1.4-6.3-5.6-5.5-10.5 2-10.9 22 .6 17.5 2.1-.2.1 4.1-1.9 5.6"/><use xlink:href="#c" x="-164" transform="scale(-1 1)"/><path d="M76 685.5a3.5 3.5 0 0 0 0 7h12a3.5 3.5 0 0 0 0-7zM88.1 596c5 11 11 21 17 30 3 1 5 2.5 7 3.1 2 .6 16 .4 16.5-.6 4.5-3.5 11.5-.5 8.5 3.5 2 2-2 7.4-5 5-3-2.4-13 0-16-1 1 3 11 4.7 17 5 6 .3 5 6 3 11l-2 1c-2 4-7.8 2.8-8-1-.2-3.8-14-9-16-12 2 6 8 12 11 18 3 3 5 3 1 9l-7 1c-6 0-7-2-6-7s-3.7-14-5-16.6c-1.2-2.4-1.5-4.9-2.7-6.3-2.1-2.8-12.8-7.4-15.3-6.1-5 2.6-8.5 1-9-4 1-1 0-8 3.6-8.6 3-.5 4.4 1 6.9 3 4 3.2 6.2 5 7.4 4.7 3.2-.8-5.7-5.1-13.7-15.7-8-10.6-11.2-26.4 6.8-15.4z"/><path d="M136.92 634.54c4.012-2.352 6.318-2.26 7.875-.509.855.963 1.948.464 1.308-1.047-2.668-6.313-6.923-7.1-10.74-4.14-1.07 1-1.929 1.842-2.789 2.692.64.948 3.829 2.277 4.346 3zM79.46 628.89c-4.259-2.9-8.25-3.468-10.436-1.839-1.202.896-2.39.253-1.332-1.236 4.417-6.22 9.594-6.536 13.5-3.029 1.06 1.15 1.903 2.13 2.745 3.11-1.337 1.465-4.291 3.119-4.477 3zM113.01 664.55c-.129-.257.978-5.44 2.712-7.059 1.348 1.081 2.863 2.035 4.286 3.523 4.26 4.451 4.241 11.01-2.413 16.728-1.643 1.412-2.393-.077-1.73-1.7 1.136-2.777-.243-6.319-2.855-11.492zM129.6 650.9c3.956 1.644 5.321 3.727 5.177 6.463-.079 1.505.909 2.066 1.467.316 4.837-11.243-.18-13.347-7.43-12.938-.416 1.959.615 6.087.786 6.159z"/></g><path fill="none" d="M76.3 603.9c1.9-1.8 3.9-3.7 5.8-1.5s.9 4.3-1.9 7.2c1.8-1.2 4-5.2 6-2.4 2 2.8.2 5.2-2 7.5 2.3-1.9 4.1-4.8 6.1-2.4s0 4.8-1.8 6.6c2-1.6 4-3.1 5.2-1.7 1.8 2.1.3 3.5-1.6 5.3 2.2-1.6 3.7-3.2 5.3-1.4 1.6 1.8-.5 4-1.7 4.8" class="base"/><g class="white"><path d="M76.65 469c-.182 8.678 1.356 66.559 1.84 74.738.483 8.144 4.092 13.695 7.938 16.877 3.527-4.849 5.632-11.392 6.134-19.156.255-3.958-.474-58.733-.778-70z"/><path d="m114.27 454.83 2.456 79.583c.775 7.06-8.417 49.073-13.442 57.361-12.436-5.318-15.062-33.821-12.721-61.594 2.34-27.775-.392-51.76-2.288-56.751z"/><path d="m129.01 467.85-1.689 79.603c.406 7.094-10.96 48.541-16.409 56.542-12.613-9.79-10.075-49.808-8.142-61.917 3.852-24.13 3.197-52.079 1.869-56.621z"/><path d="m139.95 486.7-20.911-.533c1.777 8.683.355 35.655-3.252 56.214-3.383 19.277-8.107 69.272 11.96 81.276 12.444-26.38 2.97-52.014 9.24-74.92zM60 454.38l4.103 74.644c.73 8.124 4.503 13.556 8.444 16.614 3.38-4.96 5.285-11.567 5.55-19.342.136-3.964-2.252-58.69-2.896-69.933zM97.15 407.23c.557 18.646.875 59.108.759 62.547-.265 7.776-3.331 17.672-6.709 22.631-3.94-3.058-7.716-8.49-8.446-16.615-.6-6.68-.81-39.483-.91-55.923z"/><path d="M82.21 419.25c.37 20.09.154 51.736.066 54.309-.265 7.775-2.172 14.383-5.55 19.344-3.941-3.06-8.104-8.685-8.832-16.809-.448-5-1.838-26.451-1.968-42.913zM95.06 405.55l14.24-20.52c2.878 10.123 6.387 82.767 2.268 88.725-.265 7.776-3.071 14.355-6.45 19.314-3.941-3.058-9.823-8.556-8.123-16.78 1.698-8.224-.207-62.257-1.935-70.739z"/><path d="m124.26 451.24.966 22.814c-.266 7.777-2.172 14.383-5.55 19.344-3.942-3.058-8.96-8.475-8.445-16.615 2-31.459-1.448-61.093-5.453-89.577l12.451-7.633z"/><path d="m138.5 471.82-3.861 14.631c-.266 7.776-5.067 14.196-8.446 19.156-3.94-3.058-7.52-8.088-6.515-16.18 5.779-46.464 3.713-77.204-6.033-115.07 22.039 15.045 32.255 46.787 24.855 97.453zM137.37 486.22l20.223-6.717c2.577 20.221-1.384 45.621-6.83 79.114-4.676 28.76-2.217 51.522 1.358 66.121-21.575-2.955-30.695-30.772-19.88-83.093 2.83-13.695 5.676-31.2 5.129-55.425z"/><path d="M129.54 392.777c4.963 24.275 8.235 52.876 4.483 84.25-1.392 11.64-3.86 21.16-7.48 28.517 14.559-1.653 23.89-15.872 22.683-40.67l-3.27-69.313z"/><path d="M140.106 395.934c1.09 6.289 4.83 13.704 5.605 21.729 2.566 26.596 2.576 59.898-5.416 81.186 14.559-1.653 19.556-14.853 20.028-39.678.39-20.523.456-44.72-4.693-72.661zM109.85 389.97l13.435-1.567c2.469 12.704 4.357 21.686 4.815 26.212.898 8.876-1.792 17.014-4.868 23.075-4.954-2.987-7.255-9.511-9.34-18.66zM75 418.58l11.924.125c.408 10.96.704 18.379.509 22.24-.382 7.576-2.272 14-5.506 18.796-3.622-3.02-7.05-8.35-7.59-16.274-.543-7.958.589-16.43.663-24.887z"/><path d="M74.063 424.782c.027 10.969.065 18.392-.264 22.246-.645 7.557-2.757 13.906-6.156 18.59-3.516-3.144-6.755-8.59-7.02-16.528zM87.14 412.42l11.895-.845c1.294 10.893 2.19 18.263 2.308 22.127.234 7.582-1.13 14.133-3.966 19.18-3.856-2.714-7.702-7.748-8.882-15.603-1.186-7.888-.744-16.423-1.355-24.859z"/><path d="M111.326 394.161c2.225 8.824 5.23 37.867-.111 50.133-4.347-2.953-8.726-8.493-10.188-17.225-1.468-8.77-1.907-18.098-2.747-27.489zM64.626 568.276l19.732 10.136c5.683 12.56 11.058 19.246 17.873 25.141-9.877 1.845-18.248-.11-23.64-7.356-7.277-9.775-11.168-15.697-13.581-17z"/><path d="M68.769 575.665c4.833 9.853 8.123 16.512 9.493 20.127 2.687 7.09 3.421 13.768 2.178 19.535-4.786-1.219-10.314-4.633-14.051-11.652z"/><path d="M66.233 578.689c2.285 10.735 3.853 18 4.3 21.839.877 7.532-.037 14.186-2.65 19.477-4.344-2.352-8.872-7.016-10.785-14.736-1.922-7.752-2.156-16.298-3.509-24.649z"/><path d="M40.488 585.253c6.655 12.07 8.793 20.385 9.438 29.382 7.38-6.831 10.818-14.723 8.243-23.384-3.474-11.687-6.853-25.118-6.459-27.841z"/><path d="M60.405 553.88c4.261 10.115 7.164 16.95 8.325 20.639 2.276 7.233 2.628 13.94 1.055 19.629-4.708-1.492-10.674-4.575-14-11.796-3.34-7.252-4.534-16.245-7.431-24.192z"/><path d="M59.185 533.335c2.769-.75 6.448 5.729 10.048 9.51.83.871 1.784 1.691 2.508 2.766a23.315 23.315 0 0 1 3.417 7.956c3.012 13.456 7.4 20.454 12.874 27.615-10.045-.208-17.844-3.83-21.652-12.023-5.137-11.055-7.743-17.645-9.84-19.419zM29.133 597.44c-8.504 10.843-11.947 18.704-14.025 27.48-6.19-7.929-8.318-16.27-4.388-24.405 14.549-16.722 14.443-16.644 18.413-3.075z"/><path d="M26.773 589.512C18.27 600.355 9.435 608.556 7.358 617.33c-6.19-7.928-8.823-16.271-4.894-24.407z"/><path d="M42.323 586c-8.505 10.844-11.947 18.706-14.025 27.482-6.19-7.93-8.32-16.271-4.39-24.407z"/></g></g><use xlink:href="#b" transform="scale(-1 1)"/><path d="M0 387.5C-1.9 366-5.8 351-15.1 336c4.3.5 8.8-.4 6.7-10.8-6.1-1.4-8.4.9-25.4-7.2-13.9-6.5-34.3-8.9-33-1.9 2.6 14 11.8 24 21.3 31.1 4.5 11.2 15.5 32.4 7.9 44.1-7.6 11.7-13.9 17.3-21.5 22.1 1.7.6 3.3 1.1 4.9 1.4-1.2 1.6-11 4.6-12.2 3.8-7.8-5.2-15-17.9-21.4-25.2-18.3-20.7-27.9-36.9-24.2-49.6 4.1-14.1 21-29.5-.7-26.8-21.7 2.7-39.9 33.1-45.3 68.2-2 13-3.4 24.4-4.9 33.5 11.8-4.2 17.1-8.5 20.2-13.7-1.4 5-2.5 9.7-3.2 14.1 9.7-1.7 16.4-6.6 19.2-15.1 1-3.4 2.3-6.4 3.6-8.9 3 1.1 6.8 1 11.5-.1 1.8 4.2 15.1 19.1 22.3 30 8 12.3 20.2 21.7 24.2 22.3H65.1c4-.6 16.2-10 24.2-22.3 7.2-10.9 20.5-25.8 22.3-30 4.7 1.1 8.5 1.2 11.5.1 1.3 2.5 2.6 5.5 3.6 8.9 2.8 8.5 9.5 13.4 19.2 15.1-.7-4.4-1.8-9.1-3.2-14.1 3.1 5.2 8.4 9.5 20.2 13.7-1.5-9.1-2.9-20.5-4.9-33.5-5.4-35.1-23.6-65.5-45.3-68.2-21.7-2.7-4.8 12.7-.7 26.8 3.7 12.7-5.9 28.9-24.2 49.6-6.4 7.3-13.6 20-21.4 25.2-1.2.8-11-2.2-12.2-3.8 1.6-.3 3.2-.8 4.9-1.4-7.6-4.8-13.9-10.4-21.5-22.1-7.6-11.7 3.4-32.9 7.9-44.1 9.5-7.1 18.7-17.1 21.3-31.1 1.3-7-19.1-4.6-33 1.9-17 8.1-19.3 5.8-25.4 7.2-2.1 10.4 2.4 11.3 6.7 10.8C5.8 351 1.9 366 0 387.5z" class="white"/><g id="d"><g class="gold"><path d="m40.4 356.4 19.1 2.8c14.8.7 23.4-4 25.3-13.5-5.5 6.6-12.3 9.9-19.8 8.1-10-2.4-16.3-4.6-18.6-4z"/><path d="M76.2 317.8c16.6 1.8 15.8 12.5.3 28-3.2 3.1-3.8 3-4.6-.2-1.4-5.6-7.1-8.3-10.1-4.4-2 2.6-1.7 4.3-8.7 3.3-8.9 7.5-16 12.8-4.5 12.3 4.6-.2 9.1 2.8 15.7 2.5-1.9 3.9-2.3 4.4-3.4 4.6-6.6 1-13.2-2.7-19.8-1.5-14.3 2.6 22.9-38.7 22.5-40.3-1-4 8.9-11.6 12.6-4.3z"/></g><g fill="#21231e"><path d="m52.5 330.9 2.19-2.193c1.067-1.352.45-3.152-1.853-5.401-1.685.73-3.032 1.293-4.381 1.856.898 3.037 2.247 4.95 4.044 5.738z"/><circle cx="78" cy="326" r="1.4"/></g><g fill="none" stroke-linejoin="round" class="base"><path d="M147.7 496.7c-.8 18-2 32-5.5 47s-4 25-4.5 40M140.3 498.8c8.4-22.3 8.2-56.8 5.3-79.6s-17.2-52.7-22.4-56.1M76.2 317.8q-1 5-8.4 10.6M31.6 407.2q10.7 12 27.4 6.3"/><path d="M30.4 401.1q0 4.5 4.7 16.5-10-2.3-14.9-9.1"/><path d="M21.54 400.3q-1.3 10.3-5.5 16-5.6-4.1-7.8-12M42.8 327.6c1.6 3.1 4.5 7.1 8 5 5-3 5.9-6.8 8.2-10.3"/><path d="M38.1 328.2c2.1.1 4.4-.8 9.5-2.6s10.6-4 15.8-3.6M24.8 334q-3.9 1.2-9.7 2"/></g></g><use xlink:href="#d" transform="scale(-1 1)"/><path d="M-8.9 398.7q.8 11.7 8.9 22.2 8.2-10.5 8.9-22.2" class="white"/><path stroke="#21231e" d="M67.5 422v108.5c0 19.4-8 37.1-20 49.8C35.5 593 18 602 0 602s-35.5-9-47.5-21.7-20-30.4-20-49.8V422z" class="red"/><path fill="#fff" d="M67 488.5v28H13.5v83q-13.5 3-27 0v-83H-67v-28h53.5v-66h27v66z" class="base"/><path id="e" d="M23 528c8-3 30-10 30 7.5 0 8.4-10.2 13.9-13 6.5-1.4-3.7.1-6.1 2.2-6.9s4.4 1 3.8 3.7c8.8-4.7-8.3-14.3-15.5-1.7-2 3.5 3.7 7.6 3.7 10.4s-5.7 6.9-3.7 10.4c7.2 12.6 24.3 3 15.5-1.7.6 2.7-1.7 4.5-3.8 3.7s-3.6-3.2-2.2-6.9c2.8-7.4 13-1.9 13 6.5C53 577 31 570 23 567z" class="white"/><use xlink:href="#e" y="-90" transform="scale(-1 1)"/><use xlink:href="#e" y="-90"/><use xlink:href="#e" transform="scale(-1 1)"/></g></svg>