<svg xmlns="http://www.w3.org/2000/svg" xmlns:xlink="http://www.w3.org/1999/xlink" width="375" height="250" viewBox="0 0 1200 800"><path fill="#fff" d="M0 0h1200v800H0z"/><path fill="#d67900" d="M495.54 514.47c-.253-.304-.307-1.581-.187-4.441.092-2.208.176-4.828.187-5.822.034-3.048-.552-9.998-.898-10.644-.18-.336-.326-.945-.326-1.355 0-.41-.258-1.265-.574-1.902-.315-.637-.936-1.903-1.38-2.814a74.422 74.422 0 0 0-1.223-2.41c-.536-.973-3.777-4.216-4.214-4.216-.184 0-.653-.339-1.042-.753-.39-.414-.866-.753-1.06-.753-.194 0-.598-.271-.898-.602-.3-.332-.726-.603-.947-.603-.22 0-.64-.198-.932-.441-1.257-1.046-2.798-2.002-5.11-3.17l-2.473-1.247-3.1.135c-1.704.075-4.319.364-5.81.644-1.49.28-3.523.572-4.517.65-.994.078-2.078.266-2.41.418-.331.153-1.483.337-2.56.41-3.556.243-7.647 1.439-8.88 2.596-.355.334-.785.608-.956.608-.17 0-.548.263-.84.584-.715.791-2.784 1.283-6.039 1.437-1.49.07-2.84.254-2.997.409-.157.154-.631.282-1.054.285-.422.002-1.372.214-2.111.472-1.614.562-4.349 1.313-5.557 1.528-1.167.206-3.368-.424-4.814-1.38a50.452 50.452 0 0 0-1.76-1.118c-.323-.19-1.104-.848-1.735-1.464-1.15-1.122-1.907-1.64-3.309-2.266a98.394 98.394 0 0 1-1.727-.798c-.775-.368-1.559-.422-3.769-.26-3.74.272-4.966.265-6.455-.036-1.707-.346-4.016-2.485-4.016-3.72 0-1.326-3.894-4.516-5.513-4.516-.34 0-1.034-.13-1.543-.289l-4.868-1.522c-2.17-.679-4.744-1.632-5.723-2.12-.978-.487-1.944-.886-2.146-.886-.202-.001-.85-.273-1.44-.604-.59-.331-1.273-.602-1.519-.602-.245 0-.682-.125-.97-.278-.287-.153-1.878-.414-3.534-.58-1.657-.167-3.486-.384-4.066-.481-.58-.098-2.003-.324-3.162-.501-2.531-.389-4.189-.909-5.759-1.807a61.925 61.925 0 0 0-1.948-1.068c-.429-.22-1.026-.673-1.327-1.005-.3-.333-.697-.605-.882-.605-.184 0-1.82-1.49-3.637-3.313-1.817-1.822-3.44-3.314-3.61-3.315-.168-.002-.805-.476-1.415-1.055-.61-.578-1.226-1.051-1.368-1.051-.443 0-2.598-2.184-3.715-3.765-.586-.828-2.002-3.403-3.147-5.722-1.146-2.32-2.42-4.759-2.83-5.421-.412-.663-1.468-2.6-2.346-4.306-1.428-2.772-1.597-3.3-1.597-4.984 0-1.105-.156-2.04-.377-2.26-.522-.523-.514-8.612.008-9.134.513-.513.46-2.392-.087-3.174-.432-.616-2.37-2.052-3.813-2.824-.97-.52-3.83-1.154-5.257-1.166-3.528-.03-5.303-2.077-6.15-7.089-.37-2.19-.728-3.777-1.763-7.83-.507-1.988-.925-3.98-.928-4.425-.003-.446-.14-.894-.306-.997-.166-.102-.302-.444-.302-.76 0-.852-1-3.83-1.842-5.485a2.918 2.918 0 0 1-.266-1.111c0-.324-.135-.673-.301-.775-.166-.103-.301-.984-.301-1.958s.135-1.855.301-1.958c.17-.104.301-1.54.301-3.274 0-3.184-.488-4.942-1.638-5.897-.259-.214-.47-.535-.47-.713 0-.43-1.53-2.012-1.947-2.012-.423 0-4.077-3.677-4.077-4.103 0-.177-.263-.56-.585-.851-.322-.291-.671-.92-.776-1.399-.105-.477-.316-.946-.469-1.04-.153-.095-.278-.563-.278-1.04 0-.477-.135-.952-.301-1.054-.166-.102-.303-.415-.305-.696-.004-.543-1.571-3.79-2.203-4.563-.209-.255-.558-.87-.778-1.367a19.17 19.17 0 0 0-.656-1.355 41.458 41.458 0 0 1-.783-1.506c-.288-.58-.97-1.847-1.514-2.815s-.99-1.951-.99-2.184c0-.232-.135-.422-.3-.422-.166 0-.302-.399-.302-.886s-.12-.96-.269-1.052c-.148-.092-.34-.676-.427-1.298-.35-2.5-1.619-6.922-2.183-7.607-.261-.317-.405-2.357-.483-6.841-.079-4.538-.218-6.497-.482-6.762-.45-.45-.518-5.546-.077-5.819.513-.317 1.49.428 2.081 1.588.315.615.857 1.377 1.206 1.693.349.315.634.732.634.926 0 .194.34.671.753 1.06.414.389.753.862.753 1.05 0 .391 1.558 1.962 1.945 1.962.14 0 .969.644 1.84 1.43 2.013 1.818 4.834 3.99 5.18 3.99.147 0 .585.34.974.754.39.414.862.753 1.05.753.189 0 .733.406 1.209.903.476.497.985.904 1.13.904.146 0 .71.339 1.253.753.543.414 1.09.753 1.216.753.126 0 .816.396 1.533.88 1.78 1.2 2.764 1.624 6.614 2.845 7.402 2.348 10.04 2.882 15.36 3.11 4.123.178 9.47-.418 11.206-1.247a89.22 89.22 0 0 1 2.046-.933c1.198-.528 5.865-4.813 5.881-5.401.005-.17.615-.96 1.355-1.758.741-.797 1.347-1.544 1.347-1.66 0-.115.472-.75 1.048-1.411.577-.661 1.051-1.31 1.055-1.444.003-.133.411-.675.908-1.205.496-.529.902-1.108.903-1.286 0-.178.34-.642.754-1.031.414-.39.753-.866.753-1.06 0-.194.271-.598.603-.898.331-.3.602-.71.602-.913 0-.203.19-.526.423-.72.232-.192.782-1.056 1.222-1.919.44-.862 1.058-1.975 1.376-2.472.317-.497 1.06-1.852 1.651-3.011.592-1.16 1.324-2.515 1.628-3.012 1.214-1.984 2.735-4.739 2.735-4.952 0-.124.271-.47.603-.77.331-.3.602-.681.602-.847 0-.166.339-.746.753-1.288.414-.543.753-1.111.753-1.262 0-.151.271-.52.602-.82.332-.3.603-.7.603-.89 0-.19.962-1.287 2.14-2.438 1.176-1.151 2.486-2.466 2.91-2.921.702-.754.964-.829 2.92-.829 1.182 0 2.278.123 2.435.274.158.15.797.338 1.421.419.624.08 1.33.308 1.567.505.544.451 4.11.268 5.58-.286.58-.219 1.853-.784 2.829-1.257.976-.473 1.947-.86 2.158-.86.212 0 .43-.11.485-.244.18-.44 4.582-2.437 6.124-2.778 1.094-.242 2.617-.243 5.572-.006 2.236.18 5.15.383 6.475.45 3.428.174 6.575.636 9.186 1.35 1.242.339 2.869.772 3.614.963.745.19 1.965.617 2.71.947.746.33 1.627.705 1.958.835.975.38 5.352 2.4 6.22 2.87.44.238.99.433 1.22.433.232 0 .59.169.797.376.208.207.472.388.588.402.244.03 1.04.331 2.319.876a26.81 26.81 0 0 0 2.108.757c.663.205 1.44.492 1.728.637.287.146.855.264 1.262.264.407 0 .823.136.925.302.112.18 2.106.3 4.97.3s4.858.122 4.97.302c.11.18 2.105.301 4.969.301 2.864 0 4.858-.12 4.969-.301.102-.166.79-.301 1.528-.301s1.577-.12 1.864-.266c.288-.147.93-.447 1.427-.669.497-.221 1.618-.847 2.49-1.39.873-.544 1.694-.988 1.824-.988.13 0 .696-.474 1.258-1.054.562-.58 1.169-1.054 1.349-1.054.415 0 3.47-3.075 3.47-3.492 0-.171.372-.668.828-1.105.455-.437 1.047-1.242 1.315-1.789 1.74-3.55 3.278-7.521 3.278-8.466 0-.379.13-.82.29-.979.159-.16.44-1.305.625-2.545.184-1.24.47-2.697.634-3.236.17-.56.211-1.986.095-3.313-.228-2.618.124-4.413 1.061-5.42.334-.358.608-.739.608-.846 0-.106.62-.884 1.379-1.728.973-1.083 1.335-1.715 1.23-2.152a85.314 85.314 0 0 0-.623-2.275c-.26-.911-.475-2.063-.477-2.56-.004-.998.731-4.754 1.023-5.226.101-.164.192-1.835.2-3.714.018-3.72-.16-4.33-1.792-6.124-.517-.568-.94-1.147-.94-1.286 0-.138-.238-.515-.528-.837-.29-.321-1.037-1.6-1.66-2.842l-1.134-2.258.004-6.386c.003-3.512.127-6.697.276-7.078.435-1.106.967-6.711 1.003-10.555.03-3.247.079-3.539.597-3.539.31 0 .93.339 1.376.753.447.414.983.753 1.192.753.209 0 .38.12.38.267 0 .147.44.49.978.763.539.274 1.589.967 2.334 1.54.746.575 1.559 1.132 1.807 1.24.249.107.859.487 1.356.845a14.8 14.8 0 0 0 2.019 1.167c.613.285 1.29.685 1.506.89.645.615 8.92 4.733 9.51 4.733.301 0 .677.119.834.264.369.34 3.65 1.561 4.732 1.76.458.084.906.273.997.42.09.146.489.266.885.266a4.63 4.63 0 0 1 1.413.272c1.275.502 5.8 1.85 6.866 2.046.58.107 4.51.282 8.734.389 7.327.186 10.181.494 14.292 1.544 1.45.371 3.58.835 4.833 1.054.497.087 1.174.273 1.506.415.331.142 1.144.332 1.807.423.662.09 2.153.382 3.313.647 1.16.265 2.65.547 3.313.628.662.08 1.475.263 1.807.406.331.143 1.28.342 2.108.441.828.1 2.184.31 3.012.47.828.158 2.658.44 4.066.627 1.408.186 2.83.454 3.162.595.331.141 1.382.33 2.334.42l3.464.328c.952.09 2.002.29 2.334.442.331.153 1.619.338 2.861.412 1.242.074 3.614.36 5.27.637 1.657.277 4.164.564 5.572.638 1.408.074 2.831.259 3.163.41.331.152 1.957.344 3.614.427 8.394.423 12.022.956 14.33 2.108.534.267 1.282.485 1.66.485.38 0 .773.135.876.3.241.391 1.565.391 1.807 0 .102-.165.964-.3 1.915-.3.95 0 1.858-.127 2.015-.281.157-.155 1.574-.348 3.147-.429a96.038 96.038 0 0 0 11.144-1.25c1.574-.271 3.471-.56 4.216-.644.746-.083 1.627-.27 1.958-.415.331-.146 1.28-.328 2.108-.405 3.206-.298 6.95-.862 7.45-1.123.288-.15 2.347-.272 4.575-.272 2.377 0 4.13-.125 4.239-.301.102-.166 1.453-.301 3.012-.301 1.558 0 2.909-.135 3.011-.302.103-.165.88-.3 1.728-.3.849 0 1.959-.13 2.467-.29.51-.158 2.077-.554 3.485-.88a180.89 180.89 0 0 0 5.924-1.516c3.228-.889 3.572-.923 8.583-.854 3.723.05 5.41-.036 5.878-.303.363-.207 1.671-.374 2.919-.374 1.243 0 2.345-.136 2.447-.301.102-.166.45-.302.77-.302.322 0 .585-.135.585-.3 0-.166.237-.312.527-.324.29-.012.934-.281 1.43-.598a14.676 14.676 0 0 1 1.624-.89c.395-.172 1.005-.57 1.355-.884 3.248-2.91 5.905-5.135 6.13-5.135.15 0 .592-.34.981-.753.39-.414.87-.753 1.07-.753.2 0 .524-.195.72-.432.303-.364 1.35-.964 4.535-2.601 1.294-.665 4.512-2.087 4.725-2.088.134-.001.911-.34 1.726-.753.815-.414 1.646-.752 1.846-.752.346 0 3.308-1.222 4.424-1.826.287-.155.836-.282 1.22-.282.383 0 .825-.116.982-.258.614-.552 7.71-2.453 9.158-2.453.484 0 .956-.121 1.048-.27.091-.147.675-.336 1.297-.419 1.222-.162 5.972-1.263 7.478-1.733.508-.159 1.415-.289 2.015-.289.6 0 1.174-.135 1.276-.3.103-.166.568-.302 1.035-.302.467 0 1.336-.203 1.93-.452.595-.248 1.688-.451 2.429-.451.74 0 1.43-.136 1.533-.302.103-.165.655-.3 1.227-.3.572 0 1.276-.122 1.563-.271.288-.149 2.15-.782 4.137-1.408 1.988-.625 4.157-1.366 4.82-1.646a149.24 149.24 0 0 1 4.517-1.794c.331-.124 1.28-.532 2.108-.905a80.286 80.286 0 0 1 2.108-.92c1.905-.766 4.982-2.29 6.024-2.985a20.9 20.9 0 0 1 2.321-1.319c.614-.283 1.207-.66 1.317-.839.11-.178.624-.516 1.142-.751.518-.235 1.552-.899 2.297-1.474.746-.576 1.648-1.174 2.004-1.33.357-.156.735-.424.841-.596.106-.171.661-.534 1.234-.805.573-.272 1.041-.615 1.041-.761 0-.147.264-.267.585-.267.322 0 .67-.139.775-.308.104-.169 1.733-1.064 3.62-1.988 1.887-.925 3.588-1.87 3.78-2.102.192-.232.502-.422.69-.424.186-.001.838-.476 1.448-1.054.61-.578 1.226-1.051 1.368-1.051.142 0 .761-.475 1.376-1.055.615-.58 1.228-1.054 1.364-1.054.135 0 .779-.445 1.43-.99 1.386-1.158 4.288-2.716 6.002-3.222 1.122-.33 2.438-.513 7.83-1.084 2.079-.22 3.987-.997 4.458-1.815.133-.23.367-.418.521-.418.154 0 .995-.45 1.868-1 .873-.55 2.468-1.433 3.544-1.963 1.077-.53 2.161-1.086 2.41-1.235 1.147-.691 8.048-3.934 8.37-3.934.2 0 .364-.135.364-.301 0-.166.205-.301.456-.301.25 0 .69-.12.979-.265.287-.146 2.623-1.306 5.19-2.578 2.568-1.272 5.482-2.768 6.476-3.326.994-.557 2.786-1.504 3.982-2.104 1.196-.6 2.252-1.218 2.347-1.371.094-.153.674-.51 1.289-.794.614-.284 1.83-.965 2.703-1.514.873-.55 1.7-.999 1.836-.999.137 0 .494-.27.794-.602.3-.331.795-.602 1.1-.602.306 0 .556-.13.556-.288 0-.157.508-.518 1.13-.801a14.71 14.71 0 0 0 2.032-1.161 14.91 14.91 0 0 1 1.992-1.15c.598-.278 1.259-.71 1.467-.962.21-.252.551-.457.76-.457.21 0 .769-.203 1.243-.45 1.169-.61 4.285-.61 4.519-.002.197.515 1.073.59 1.845.16.674-.376 3.29-1.214 3.79-1.214 1.44 0 6.52-3.639 6.52-4.67 0-.41 2.477-2.86 2.892-2.86.17 0 .699-.406 1.175-.903.476-.497 1.027-.904 1.224-.904.197 0 .544-.224.772-.498.227-.275 1.362-1.248 2.521-2.162 1.16-.915 2.515-2.037 3.012-2.492 1.584-1.452 4.714-4.022 5.329-4.375.326-.187 1.03-.763 1.562-1.28.533-.516 1.115-.939 1.294-.939.179 0 .491-.2.695-.445.203-.245.728-.633 1.166-.862 1.365-.715 2.271-1.242 3.154-1.835 1.495-1.003 3.842-1.62 4.974-1.308 1.023.282 4.75.163 6.673-.213.58-.113 1.732-.52 2.56-.905.828-.385 2.142-.983 2.918-1.33.777-.346 1.493-.76 1.591-.918.098-.159.364-.218.59-.131.227.087.499.018.605-.154.106-.172 1.034-.734 2.063-1.25 2.886-1.448 4.204-2.183 5.234-2.921.52-.373 1.078-.678 1.24-.678.16 0 .455-.196.653-.435.199-.239 1.333-.934 2.522-1.544 1.188-.61 2.345-1.256 2.57-1.435.56-.45 1.395-.909 7.12-3.923.828-.436 1.9-.793 2.382-.794h.875l-.207 5.044c-.114 2.774-.352 5.654-.528 6.4a26.306 26.306 0 0 0-.47 2.861c-.083.828-.273 1.635-.423 1.792-.15.157-.274.548-.274.867 0 .322-.941 1.507-2.108 2.653-1.16 1.139-2.108 2.273-2.108 2.52 0 .248-.113.45-.25.45-.138 0-.437.373-.665.829-.228.455-.573 1.031-.767 1.28-.301.385-2.285 4.014-3.645 6.67-.224.437-.608.962-.853 1.165-.245.204-.45.523-.455.71-.01.417-1.49 2.026-2.276 2.476-2.402 1.373-3.537 1.819-5.696 2.235a26545.078 26545.078 0 0 1-3.387.652c-1.678.324-5.47 1.592-7.004 2.343-2.782 1.362-3.248 1.645-4.177 2.534-.454.435-.953.792-1.11.794-.156.001-.784.475-1.394 1.054-.61.578-1.243 1.051-1.407 1.051-.164 0-.682.313-1.15.696-.468.383-1.609 1.06-2.535 1.505-2.405 1.155-3.286 2.375-3.286 4.554 0 .738-.135 1.425-.3 1.528-.166.102-.302 1.118-.302 2.258s-.118 2.146-.262 2.235c-.144.09-.346.582-.449 1.094-.22 1.098-2.999 4.138-4.017 4.393-.381.096-.693.295-.693.443 0 .148-.237.27-.527.27-.29.001-.915.205-1.39.452-.474.247-1.11.45-1.413.45-.302 0-.634.135-.736.301-.102.166-.45.301-.774.301-.323 0-1.162.26-1.865.576-.702.317-1.818.74-2.48.942-.664.201-1.42.552-1.682.78-.262.228-.547.343-.635.256-.087-.088-.33.048-.539.3-.21.253-.635.46-.947.46-.31 0-.565.135-.565.3 0 .166-.254.302-.565.302-.311 0-.735.203-.94.451-.207.249-.541.452-.744.452-.203 0-.614.271-.913.602-.3.332-.694.604-.875.605-.182.002-.94.605-1.685 1.342-.746.736-1.516 1.345-1.713 1.353-.197.007-1.73 1.369-3.407 3.025-1.678 1.657-3.218 3.012-3.424 3.012-.205 0-.833.474-1.395 1.054-.562.58-1.175 1.054-1.362 1.054-.187 0-.659.339-1.048.753s-.861.753-1.05.753c-.188 0-.605.244-.926.542-.32.299-.787.635-1.035.747-.249.112-.994.537-1.657.944-3.123 1.919-10.455 5.598-11.155 5.598-.201 0-.534.201-.739.448-.204.247-.478.383-.608.303-.236-.146-6.374 2.894-7.225 3.579-.248.2-1.062.672-1.807 1.049-1.65.834-3.094 1.851-4.578 3.223-.615.57-1.226 1.036-1.357 1.038-.131.001-1.37 1.085-2.75 2.41-1.382 1.323-2.621 2.406-2.756 2.406-.134 0-1.26.949-2.501 2.108-1.242 1.16-2.382 2.109-2.534 2.109-.342 0-5.735 5.586-6.564 6.797-.7 1.025-1.656 3.062-1.656 3.531 0 .597-1.277 2.967-1.974 3.664-.38.38-1.14 1.007-1.692 1.394-2.648 1.858-4.508 4.017-5.844 6.782-.733 1.516-1.333 2.915-1.333 3.107 0 1.01-3.717 3.939-4.997 3.939-.528 0-2.833 1.27-2.833 1.561 0 .135-.22.246-.488.246s-.94.372-1.494.828c-1.837 1.51-2.887 2.329-3.57 2.786-2.636 1.76-3.509 2.305-4.839 3.02a22.694 22.694 0 0 1-3.162 1.34c-.911.293-1.892.65-2.18.796-.287.146-1.175.265-1.972.265-.798 0-1.579.122-1.736.27-.158.15-.829.337-1.491.417-1.305.16-3.678.823-5.12 1.433-.497.21-1.104.422-1.35.47-.245.048-.494.23-.552.405-.058.175-.293.318-.522.318-.605 0-2.414 1.672-3.2 2.958a15.362 15.362 0 0 1-1.517 2.011c-.46.497-.838 1.05-.839 1.228 0 .178-.34.642-.754 1.031-.414.39-.753.87-.753 1.07 0 .2-.207.534-.46.744-.525.435-4.961 9.382-4.961 10.005 0 .225-.116.538-.257.695-.142.157-.63 1.506-1.084 2.997-.454 1.49-.948 3.022-1.098 3.402-.375.954-.35 8.712.03 8.946.165.102.302.822.303 1.599.003 1.76 1.273 7.944 2.138 10.41.92 2.623 2.812 6.197 3.878 7.325.5.53.908 1.106.908 1.281 0 .176.61.962 1.354 1.749.745.786 1.354 1.572 1.355 1.746.001.175.476.778 1.056 1.34.58.561 1.054 1.17 1.054 1.351 0 .182.61.929 1.356 1.66.745.732 1.355 1.472 1.355 1.645 0 .173.745 1.097 1.656 2.053.911.956 1.657 1.91 1.657 2.12 0 .21.61.98 1.355 1.712.746.731 1.355 1.476 1.355 1.654 0 .178.746 1.06 1.657 1.96.911.9 1.658 1.776 1.659 1.947.001.171.946 1.26 2.098 2.42 1.153 1.16 2.102 2.244 2.108 2.41.007.165.908 1.25 2.003 2.409 1.094 1.16 2.347 2.572 2.783 3.14.437.567 1.607 1.902 2.6 2.967.995 1.065 1.935 2.159 2.09 2.43.155.273.753 1.004 1.329 1.626.575.622 1.276 1.504 1.557 1.96.28.455.8 1.085 1.156 1.401.355.316.649.722.653.904.004.18.85 1.23 1.882 2.329 1.708 1.821 3.492 4.063 4.296 5.398.172.285.498.743.725 1.016.52.626 1.823 3.185 1.823 3.58 0 .162.318.986.707 1.83 1.133 2.463 2.091 5.35 2.234 6.732l.132 1.28h-7.843c-4.904 0-7.913-.113-8.03-.302-.102-.165-1.054-.3-2.116-.3-1.86 0-2.866-.293-5.263-1.528-3.028-1.562-5.676-2.69-6.315-2.69-.317 0-.651-.12-.743-.269-.381-.617-6.993-1.142-8.597-.681-.583.167-1.845.472-2.806.679-.96.206-1.815.487-1.9.624-.085.138-.368.25-.63.25-.907 0-5.369 2.406-6.693 3.61-.732.665-1.437 1.209-1.566 1.209-.13 0-1.34 1.05-2.69 2.334-1.349 1.284-2.607 2.39-2.797 2.459-.189.068-.82.575-1.4 1.126-.582.552-1.206 1.004-1.388 1.005-.181.002-.572.27-.868.598-.296.328-.65.527-.784.444-.135-.084-.964.196-1.842.622-1.422.689-2.257.966-4.683 1.557-.372.09-1.138-.054-1.702-.322-.564-.268-1.153-.487-1.31-.487-.156 0-.53-.27-.83-.602-.299-.331-.693-.603-.874-.604-.181 0-.763-.407-1.292-.903-.53-.496-1.095-.902-1.257-.902-.162 0-.678-.314-1.146-.697a12.076 12.076 0 0 0-1.905-1.218 26.18 26.18 0 0 1-1.958-1.094c-.902-.572-7.18-3.703-10.473-5.224-.956-.441-1.998-.803-2.316-.803-.318 0-.647-.112-.733-.25-.085-.138-1.088-.426-2.23-.642-2.101-.396-4.408-.306-7.062.277-.787.173-2.007.442-2.71.599l-2.485.55c-.663.145-1.501.424-1.863.618-.362.195-1.336.354-2.166.354-.83 0-1.591.136-1.694.301-.105.17-1.553.302-3.313.302-1.76 0-3.208.131-3.313.3-.102.166-.745.302-1.428.302-1.271 0-4.184.86-5.8 1.713-1.123.593-3.425 2.75-3.796 3.558-.152.33-.616 1.144-1.031 1.807-.415.662-.89 1.475-1.054 1.807-.165.331-.64 1.144-1.056 1.807-.415.662-.835 1.408-.932 1.656-.097.249-.354.859-.572 1.355-1.518 3.475-1.622 4.036-1.664 8.978-.023 2.654-.152 5.04-.288 5.303-.383.739-1.503 4.646-1.503 5.243 0 .293.383.753.853 1.022 1.22.7 1.634 1.858 1.458 4.077-.173 2.172-.442 3.734-.79 4.592-.135.33-.49 1.212-.789 1.957-.3.746-.744 1.594-.988 1.885a9.119 9.119 0 0 0-.772 1.103c-.18.315-.774 1.211-1.32 1.99-1.277 1.824-1.859 3.522-1.864 5.441-.007 2.395-.468 2.655-4.289 2.425-1.702-.103-3.948-.31-4.992-.461-3.394-.49-6.215.637-9.223 3.68-1.173 1.187-3.603 3.243-5.4 4.568-1.798 1.325-3.78 2.85-4.404 3.388-.624.538-1.306.979-1.515.979-.21 0-.695.339-1.079.753s-.9.753-1.146.753c-.247 0-.532.135-.635.3-.102.167-.483.303-.846.304-.362.001-1.048.204-1.522.452-.475.247-1.314.45-1.865.45-.55 0-1.085.135-1.188.3-.102.166-.847.302-1.656.302-.809 0-1.554.136-1.657.301-.102.166-.81.301-1.572.301-1.338 0-7.342 1.828-8.14 2.478-.208.169-.377.23-.377.136s-.644.102-1.43.435c-.787.332-1.702.714-2.034.848-3.74 1.513-8.64 4.046-8.834 4.568-.055.148-.344.27-.64.27-.298 0-.71.203-.916.451-.206.249-.545.452-.753.452-.208 0-.559.217-.78.483-.22.266-.677.606-1.015.757-.567.252-1.095.56-3.427 1.998-1.941 1.196-3.244 2.142-3.785 2.746-.315.353-.74.642-.942.642-.202 0-.537.203-.743.452-.206.248-.689.451-1.073.451s-.782.136-.885.302c-.102.165-.712.3-1.355.3s-1.244.122-1.335.27c-.092.148-.676.34-1.298.426-.622.087-1.741.304-2.487.484-2.895.697-5.62 1.28-6.703 1.434-.622.089-1.206.282-1.298.43-.091.148-.352.27-.58.27-.639 0-4.237 1.736-4.664 2.25-.21.254-.542.46-.737.46-.196 0-.816.475-1.378 1.054-.562.58-1.191 1.055-1.399 1.055-.207 0-.742.338-1.19.752-.724.673-1.058.75-3.102.728-1.26-.014-3.103-.15-4.097-.304a58.304 58.304 0 0 0-3.765-.423 62.621 62.621 0 0 1-3.915-.441c-2.917-.442-8.546-.728-14.306-.727-4.726.001-6.421.168-10.09.992-4.274.96-5.01 1.135-5.42 1.29-.249.093-1.062.33-1.808.527-.745.196-1.761.474-2.258.618a229.39 229.39 0 0 1-3.765 1.046c-2.459.557-3.659.905-4.518 1.307-.58.272-1.257.513-1.506.535-.672.061-6.682 3.09-7.378 3.72-.332.298-.769.594-.972.656-.481.149-5.203 4.802-5.203 5.128 0 .138-.643.99-1.43 1.895-2.494 2.868-2.955 3.632-3.73 6.192-.518 1.708-.527 8.288-.012 8.803.195.194.354.996.354 1.78 0 .786.135 1.513.3 1.615.166.102.302.756.302 1.453 0 1.39.818 3.892 1.767 5.407.597.951.81 1.38 2.357 4.735.42.911.884 1.892 1.03 2.18.483.946.282 1.417-.932 2.184-.964.608-1.583.756-3.166.756-1.082 0-2.203-.123-2.49-.274-2.071-1.087-3.391-1.28-7.524-1.099-4.386.192-6.014.48-8.21 1.452-2.037.902-2.477 1.063-3.463 1.27l-2.108.444c-.662.14-1.678.403-2.257.586-1.449.457-2.87.416-3.295-.096Z"/><path id="a" fill="#4d5b2d" d="M334.94 522.862s2.59 5.975 6.13 13.258c3.538 7.283 8.025 15.873 11.817 21.104 2.514 3.467 5.449 6.761 8.974 9.193 4.519 3.116 15.102 6.566 15.102 6.566s-.396-10.007-2.57-15.033c-2.036-4.707-6.494-10.48-10.3-13.92-8.816-7.966-16.313-13.383-21.605-16.808-5.292-3.425-7.548-4.36-7.548-4.36zm42.96 10.928s.217 4.247.72 9.51c.503 5.261 1.293 11.538 2.44 15.597a46.335 46.335 0 0 0 5.653 12.471c2.004 3.1 7.317 8.314 7.317 8.314s2.029-6.474 1.995-9.81c-.052-5.056-1.29-10.171-3.326-14.8-1.739-3.954-4.44-9.94-7.706-14.272-3.265-4.333-7.092-7.01-7.092-7.01zm-36.88 40.055s11.738 11.963 18.863 16.195c3.388 2.012 7.176 3.482 11.052 4.192 3.623.664 11.05 0 11.05 0s-.659-4.631-5.334-10.098c-3.379-3.95-9.99-6.384-14.862-8.194-9.608-3.568-20.769-2.095-20.769-2.095zm38.474 4.019s6.862 14.053 11.42 20.358c3.067 4.241 6.453 8.386 10.594 11.586 13.195 10.198 20.523 9.269 20.523 9.269s-.533-7.095-1.986-10.262c-3.078-6.712-8.02-12.706-13.737-17.379-7.757-6.34-26.814-13.572-26.814-13.572zm-2.482 38.399s8.538 8.14 13.406 11.42c3.663 2.469 7.561 4.728 11.752 6.124 3.554 1.184 7.346 1.67 11.09 1.821 9.165.369 13.571-.993 13.571-.993s-.01-4.549-7.944-10.593c-4.64-3.534-10.365-5.677-16.055-6.951-8.403-1.882-25.82-.828-25.82-.828zm32.937-44.357s3.143 11.63 5.296 17.048c1.887 4.746 3.945 9.493 6.786 13.737 2.371 3.54 5.33 7.598 8.66 10.256 2.798 2.234 9.216 4.475 9.216 4.475s-.372-8.29-1.49-12.248c-1.368-4.847-3.428-9.593-6.29-13.738-3.613-5.233-8.738-9.254-13.406-13.572-6.46-5.976-8.772-5.958-8.772-5.958zm15.821 49.884s6.966 7.935 10.944 11.382c4.82 4.176 10.023 7.962 15.54 11.162 3.19 1.85 6.525 3.568 10.068 4.596 3.607 1.046 7.407 1.457 11.162 1.532 2.272.046 6.785-.656 6.785-.656s-4.113-8.139-7.223-11.382c-3.628-3.783-8.235-6.609-12.913-8.973-6.054-3.06-12.613-5.216-19.26-6.566-4.947-1.005-15.102-1.095-15.102-1.095zm34.363-5.252s6.033 9.21 9.849 13.132c3.767 3.87 8.168 7.12 12.694 10.068 4.075 2.653 8.226 5.492 12.914 6.785 3.874 1.068 12.037.656 12.037.656s-1.546-6.579-3.283-9.411c-2.59-4.223-6.255-7.846-10.286-10.725-5.366-3.831-11.62-6.463-17.948-8.317-5.158-1.511-15.977-2.188-15.977-2.188zm-26.923 42.898s5.803 4.534 15.104 7.222c4.6 1.33 9.242 2.17 14.008 2.627 4.072.39 12.139-.128 16.196-.657 4.942-.643 10.506-3.94 10.506-3.94s-3.69-5.438-7.66-7.222c-6.937-3.117-17.02-4.185-24.62-3.933-15.252.506-23.534 5.903-23.534 5.903zm50.18-7.044s13.12 10.531 19.901 14.262c6.009 3.306 12.526 5.888 19.238 7.297 11.906 2.5 23.217.663 23.217.663s-1.827-5.277-3.648-7.297c-4.827-5.352-11.471-9.14-18.243-11.609-7.859-2.865-16.523-2.86-24.876-3.316-4.748-.26-15.589 0-15.589 0zm43.45-9.288s10.733 16.18 17.911 22.555c4.566 4.055 9.876 7.464 15.59 9.619 4.931 1.86 16.026 2.653 16.026 2.653s.218-3.636-.78-6.095c-2.089-5.143-6.814-10.49-11.266-13.806-6.901-5.14-14.778-9.06-22.886-11.94-4.68-1.662-14.594-2.986-14.594-2.986zm-17.332 44.266s14.169 3.738 21.422 4.59c4.814.565 9.705.712 14.536.328 4.431-.353 9.081-.54 13.116-2.405 6.064-2.803 9.29-6.12 9.29-6.12-3.457-4.152-9.549-5.074-14.1-5.684-5.38-.711-10.892-.515-16.284.11-6.199.717-12.392 2.01-18.253 4.153-3.428 1.252-9.727 5.027-9.727 5.027zm64.343-4.047c1.037.603 1.631 1.096 2 1.532 0 0 10.012 2.602 14.864 4.372 3.663 1.336 7.446 2.57 10.711 4.7 3.563 2.325 6.481 5.539 9.4 8.634 3.321 3.524 9.18 11.258 9.18 11.258l1.533 2.324 1.156-.061s.654-6.738 1.73-9.64c1.071-2.89 4.202-4.848 4.202-4.848l.063-1.59c-9.546-5.77-20.027-11.678-30.215-14.165-4.844-1.17-9.782-2.087-14.755-2.404-3.201-.205-9.869-.112-9.869-.112zm-195.562-79.962c-.692 2.178-.09 4.846 1.164 6.756 1.325 2.016 3.722 3.354 6.057 3.96 1.055.274 2.28.241 3.261-.233 1.139-.55 2.203-1.584 2.563-2.795.537-1.812-.024-3.935-.932-5.591-1.005-1.832-2.726-3.4-4.659-4.193-1.582-.649-3.53-.852-5.125-.233-1.024.397-1.997 1.283-2.33 2.33zm22.082-32.391c-1.594 1.854-2.253 4.87-1.987 7.455.28 2.729 1.823 5.323 3.639 7.142.82.822 1.93 1.42 3.02 1.445 1.264.03 2.679-.47 3.543-1.514 1.293-1.56 1.743-4.004 1.674-6.153-.077-2.377-.912-4.856-2.285-6.657-1.124-1.474-2.774-2.685-4.477-2.88-1.093-.125-2.36.272-3.127 1.163zm26.467 75.689c.949 2.113 3.32 3.77 5.707 4.426 2.52.693 5.46.177 7.834-.86 1.073-.468 2.074-1.28 2.56-2.274.566-1.153.731-2.629.182-3.788-.82-1.733-2.777-3-4.697-3.684-2.122-.758-4.66-.853-6.83-.218-1.776.52-3.545 1.618-4.443 3.116-.577.962-.77 2.267-.313 3.282zm62.958 31.921c1.284 1.916 3.871 3.136 6.301 3.368 2.565.246 5.332-.773 7.46-2.206.963-.648 1.795-1.622 2.098-2.685.352-1.234.26-2.716-.473-3.763-1.093-1.564-3.21-2.47-5.192-2.812-2.191-.378-4.671-.03-6.67.972-1.636.82-3.166 2.208-3.782 3.84-.395 1.048-.359 2.366.258 3.286zm-46.956-68.232c-.75 2.365-.097 5.261 1.265 7.335 1.439 2.189 4.042 3.642 6.578 4.3 1.145.297 3.874.261 4.94-.254 1.235-.597.994-1.719 1.384-3.035.584-1.966-.025-4.27-1.012-6.07-1.09-1.988-2.96-3.691-5.06-4.552-1.717-.704-3.833-.924-5.565-.253-1.112.431-2.169 1.393-2.53 2.53zm68.373 28.471c-1.008 2.085-.753 4.967.278 7.217 1.089 2.376 3.374 4.296 5.694 5.45 1.049.52 2.314.764 3.389.498 1.246-.308 2.483-1.13 3.018-2.296.8-1.743.513-4.055-.196-5.966-.785-2.113-2.342-4.117-4.224-5.371-1.54-1.027-3.518-1.677-5.243-1.402-1.108.177-2.231.868-2.716 1.87z"/><use xlink:href="#a" transform="matrix(-1 0 0 1 1200 0)"/></svg>