<svg xmlns="http://www.w3.org/2000/svg" xmlns:xlink="http://www.w3.org/1999/xlink" xml:space="preserve" width="500" height="250" viewBox="0 0 560 280"><path fill="#060" d="M0 0h560v280H0Z"/><path fill="#fff" d="M0 0h560v200H0Z"/><path fill="#c00" d="M0 0h560v80H0Z"/><g transform="matrix(.80638 0 0 .80638 -7.875 -233.148)"><path fill="#f8c300" d="M344.526 457.7a5.568 5.568 0 0 1 10.378 2.628V482.6h4.187v-22.27a5.568 5.568 0 0 1 10.379-2.629 13.14 13.14 0 1 0-24.944 0"/><path fill="#fff" d="M347.51 451.888a8.908 8.908 0 0 1 9.488 4.253 8.908 8.908 0 0 1 9.487-4.253 9.576 9.576 0 0 0-18.975 0"/><path id="a" fill="#f8c300" d="M354.904 473.703a16.926 16.926 0 0 1-28.437 10.83 17.594 17.594 0 0 1-26.607 7.78c1.626 16.226 25.947 12.913 27.759-2.863 7.64 13.414 24.441 9.572 29.357-6.86z"/><use xlink:href="#a" width="100%" height="100%" fill="#f8c300" transform="matrix(-1 0 0 1 713.996 0)"/><path id="b" fill="#f8c300" d="M338.664 502.514c-3.393 7.325-10.175 8.584-16.108 2.67 0 0 2.385-1.685 4.938-2.15-.478-2.037.503-4.855 1.887-6.38 1.45.992 3.476 2.98 3.99 5.29 3.577-.464 5.294.57 5.294.57z"/><use xlink:href="#b" width="100%" height="100%" fill="#f8c300" transform="rotate(9.37 356.998 664.062)"/><use xlink:href="#b" width="100%" height="100%" fill="#f8c300" transform="rotate(18.74 356.998 664.062)"/><path fill="none" stroke="#f8c300" stroke-width="7.127" d="M313.792 518.856a151.442 151.442 0 0 1 86.411 0"/></g><g fill="#f8c300"><path d="m331.16 143.16 2.026 6.236h6.558l-5.305 3.854 2.026 6.237-5.305-3.855-5.305 3.855 2.026-6.237-5.304-3.854h6.557zM324.305 117.58l2.027 6.236h6.557l-5.305 3.854 2.026 6.237-5.305-3.855-5.304 3.855 2.026-6.237-5.305-3.854h6.557zM305.58 98.854l2.026 6.236h6.558l-5.306 3.855 2.026 6.236-5.304-3.855-5.305 3.855 2.026-6.236-5.304-3.855h6.557zM280 92l2.026 6.236h6.557l-5.304 3.855 2.026 6.236-5.305-3.855-5.305 3.855 2.026-6.236-5.305-3.855h6.558zM254.42 98.854l2.026 6.236h6.557l-5.304 3.855 2.026 6.236-5.305-3.855-5.305 3.855 2.026-6.236-5.305-3.855h6.558zM235.694 117.58l2.026 6.236h6.557l-5.304 3.855 2.026 6.236-5.305-3.855-5.305 3.855 2.026-6.236-5.304-3.855h6.557zM228.84 143.16l2.026 6.236h6.557l-5.305 3.854 2.027 6.237-5.305-3.855-5.305 3.855 2.026-6.237-5.305-3.854h6.558z"/></g></svg>