<svg xmlns="http://www.w3.org/2000/svg" xmlns:xlink="http://www.w3.org/1999/xlink" width="500" height="250" fill="#fcd116" viewBox="-28 -45 180 90"><path fill="#0038a8" d="M-28-45h180V0L0 44z"/><path fill="#ce1126" d="M0 0h152v45H-28z"/><path fill="#fff" d="M49.942 0-28 45v-90z"/><circle r="9"/><g id="c"><g id="b"><path id="a" d="m0 0-3.164-15.909.945-.946zl-1.169-17.831L0-19l1.169 1.169zl2.219-16.855.945.946z"/><use xlink:href="#a" transform="scale(-1)"/></g><use xlink:href="#b" transform="rotate(90)"/></g><use xlink:href="#c" transform="rotate(45)"/><path id="d" d="M40.942 0 37.56 1.176l-.073 3.579-2.163-2.853-3.427 1.037L33.942 0l-2.045-2.939 3.427 1.037 2.163-2.853.073 3.579z"/><use xlink:href="#d" transform="rotate(120 -2.019 0)"/><use xlink:href="#d" transform="rotate(240 -2.019 0)"/></svg>