<svg xmlns="http://www.w3.org/2000/svg" xmlns:xlink="http://www.w3.org/1999/xlink" width="500" height="250" viewBox="0 0 1200 600"><path fill="#006d21" d="M0 0h1200v200H0z"/><path fill="#fff" d="M0 200h1200v200H0z"/><path fill="#df0000" d="M0 400h1200v200H0z"/><g transform="translate(600 305.73)"><g id="b"><path id="a" d="M0-60V0h30" transform="rotate(18 0 -60)"/><use xlink:href="#a" width="100%" height="100%" transform="scale(-1 1)"/></g><use xlink:href="#b" width="100%" height="100%" transform="rotate(72)"/><use xlink:href="#b" width="100%" height="100%" transform="rotate(144)"/><use xlink:href="#b" width="100%" height="100%" transform="rotate(216)"/><use xlink:href="#b" width="100%" height="100%" transform="rotate(-72)"/></g><g fill="#fff"><path d="M781.423 29.918c5.214-5.104 10.27-10.35 15.28-15.632.222 4.748-2.396 9.113-5.32 12.822-1.566 2.156-3.774 3.77-5.76 5.564a92.047 92.047 0 0 0-2.787 2.467c.262 1.27.663 2.52.81 3.81-.076 1.195-.282 2.384-.435 3.575-1.125-1.645-1.928-3.48-3.213-5.021.566 5.385.841 10.794 1.226 16.194a5495.704 5495.704 0 0 1 2.792 47.57c-.05.41.334.668.582.958 3.71 3.847 7.404 7.709 10.876 11.746 2.729 3.385 5.311 6.885 7.501 10.601 2.869 4.865 5.14 10.134 5.811 15.688.365 3.492.184 7.097-1.035 10.442-1.226-8.405-5.09-16.37-10.558-23.108-.117-.016-.357-.05-.474-.064.06-.052.188-.157.25-.21-3.876-4.923-8.04-9.645-12.318-14.267.298 5.654.597 11.31.829 16.966.227 7.297-.062 14.596-.393 21.886.003 1.381-.665 2.644-1.01 3.963-.997 2.963-1.8 5.997-3.077 8.869-.204-6.734-.449-13.474-.885-20.2-.783-12.047-1.606-24.09-2.345-36.137-.11-.949-.054-1.916-.248-2.848-2.815-3.07-5.854-5.956-8.794-8.919-5.178-5.045-10.41-10.043-15.84-14.85 1.03 12.584 2.095 25.166 3.059 37.756.413 5.716.959 11.431 1.017 17.164.074 4.986.02 9.974-.1 14.957.016 3.146.062 6.396-1.134 9.387-1.77 3.704-4.944 6.797-8.77 8.707-2.989 1.478-6.367 2.265-9.748 2.292-2.282.047-4.551-.519-6.568-1.491-3.531-1.857-6.05-5.024-7.672-8.433a28.309 28.309 0 0 1-2.34-7.364c-.25-1.11-.515-2.394-1.579-3.088-.846-.533-1.858-.107-2.677.25-1.991.989-3.908 2.182-5.349 3.825-4.691 5.264-6.922 11.983-8.32 18.595-.683 2.853-1.766 5.69-3.669 8.046-1.379 1.678-3.355 3.131-5.68 3.328-1.823-.121-3.587-.692-5.217-1.443-3.605-1.774-6.142-5.007-7.595-8.497-.434-.909-.635-1.898-1.076-2.799-.074-.012-.22-.03-.293-.043.071-.042.214-.13.283-.176-1.492-5.33-1.711-10.896-1.385-16.374.158-.53-.43-.723-.754-1.018-1.286-1.027-1.81-2.658-1.793-4.194-.036-5.637.841-11.372 3.386-16.529 2.063-4.253 5.153-7.967 8.161-11.667.283-.399.783-.718.92-1.184-1.873-1.994-3.852-3.906-5.85-5.791-1.14-1.23-2.527-2.228-3.65-3.47-4.216-4.262-8.362-8.585-12.505-12.91.395 6.327.696 12.659 1.035 18.99.257 5.863.693 11.724.604 17.594.018 5.233-.234 10.461-.464 15.687-.013 1.303-.576 2.516-.933 3.757-1.005 3.06-1.912 6.156-3.131 9.151-.227-2.477-.09-4.971-.258-7.45-.461-12.371-1.499-24.713-2.236-37.07-.627-9.453-1.18-18.914-1.848-28.362-2.761-3.196-5.676-6.289-8.406-9.515-3.197-3.762-6.392-7.55-9.07-11.655-3.842-6.448-8.156-12.708-13.482-18.186-.303-.267-.209-.664-.206-1.004.183-3.545.329-7.09.517-10.635 3.792 2.302 7.407 4.853 10.882 7.556 2.693 2.166 5.255 4.49 7.435 7.116 1.125 1.241 2.162 2.825 1.785 4.52-1.28-.473-2.603-.851-3.814-1.464a4.904 4.904 0 0 0-1.563-.485c-.08.991.645 1.773 1.188 2.553 3.95 5.395 8.07 10.675 12.297 15.882.543.668 1.142 1.306 1.56 2.057-.268-6.106-.767-12.204-1.122-18.307-.599-9.425-1.214-18.847-1.813-28.272-.11-1.408-.035-2.86-.642-4.185-.293-.527.14-1.01.38-1.467a322.576 322.576 0 0 0 4.23-7.91c.066-.185.385-.663.482-.204 2.608 6.322 4.637 12.85 6.137 19.477.461 1.586-.107 3.203-.278 4.788-.974-1.795-2.078-3.523-3.16-5.264 1.385 16.55 2.188 33.142 3.226 49.71.701 1.1 1.777 1.97 2.634 2.973 8.274 8.897 16.863 17.53 25.448 26.163a2231.726 2231.726 0 0 1 19.288-19.689c.28-.242.472-.54.372-.908-1.945-20.602-3.893-41.206-5.84-61.808-.248-2.083-.182-4.227-1.02-6.205 1.593-3.193 3.34-6.322 4.923-9.522.867 1.68 1.463 3.476 2.147 5.23 1.606 4.373 2.996 8.816 4.094 13.322.23 1.015.607 2.04.457 3.09-.115.95-.255 1.896-.365 2.847-1.066-1.679-2.088-3.381-3.162-5.055-.155.055-.303.112-.446.169.153.035.311.069.474.1 1.62 17.522 2.838 35.083 4.427 52.613 6.703-6.64 13.352-13.33 20.086-19.943.74-.785 1.58-1.486 2.261-2.318-3.276-4.106-6.333-8.36-9.383-12.613-1.06-1.4-1.884-2.936-2.896-4.365-2.131-3.082-4.309-6.199-7.236-8.683-.255-4.004-.393-8.018-.576-12.029 6.874 5.602 13.857 11.094 20.537 16.9a5.84 5.84 0 0 1 1.507 1.924c-.601-6.265-1.152-12.533-1.72-18.8-.07-.575-.05-1.174-.307-1.712-.17-.551-.642-1.141-.26-1.705 1.58-3.03 3.072-6.103 4.635-9.144 2.736 6.04 4.868 12.311 6.556 18.674.173.894.591 1.771.464 2.694-.125 1.017-.2 2.04-.324 3.057-.966-1.498-1.933-2.996-2.889-4.496a10.12 10.12 0 0 1-.461-.718c.871 7.169 1.448 14.365 2.129 21.55 5.035-4.983 10.206-9.845 15.415-14.674 2.32-2.047 4.727-4.01 6.95-6.153-.21-2.782-.329-5.568-.563-8.348-.044-.882-.913-1.771-.304-2.615 1.645-2.915 3.202-5.875 4.737-8.845 1.798 3.852 3.012 7.923 4.312 11.938M751.43 64.84c.08 1.125.181 2.25.29 3.372 1.638 1.885 3.3 3.754 5.029 5.568 6.59 6.938 13.408 13.683 20.096 20.538-1.035-16.955-2.198-33.907-3.225-50.864a791.167 791.167 0 0 0-22.19 21.386m-14.235-15.378c2.114 3.081 4.314 6.118 6.66 9.05-.189-2.718-.472-5.434-.727-8.146-.127.24-.265.48-.372.725-1.593-1.084-3.539-1.936-5.56-1.629m-13.55 43.857c-1.366 1.5-2.888 2.884-4.173 4.444.303 4.807.96 9.603 1.366 14.408.2 7.943-1.216 16.374-6.453 22.874.15-1.034.08-2.08.092-3.121-.008-3.564-.003-7.128-.003-10.695-.035-3.416.148-6.833.044-10.25-.148-1.745-.34-3.49-.485-5.235-.066-.28.02-.777-.405-.792.336-.392.263-.88.183-1.34-1.828 1.802-3.57 3.68-5.392 5.487-3.587 3.737-7.402 7.275-11.078 10.934 3.735 3.752 6.078 8.69 6.682 13.771.61 5.405-.833 11.151-4.637 15.353-3.356 3.682-8.17 6.008-13.17 7.078-2.345.485-4.851.818-7.18.085.291 2.269.656 4.53 1.143 6.77.836 3.775 1.925 7.586 4.085 10.912 1.155 1.7 2.738 3.348 4.915 3.847 2.328.528 4.697-.56 6.334-2.054 1.458-1.22 2.134-2.989 2.748-4.672 1.849-4.957 2.473-10.283 4.919-15.05 1.716-3.783 3.896-7.454 7.042-10.369 1.632-1.583 3.508-2.934 5.474-4.137 1.354-.756 2.993-1.386 4.587-.944 1.517.417 2.54 1.665 3.24 2.922 1.596 2.832 2.012 6.07 3.304 9.014.947 2.432 2.2 4.902 4.43 6.543 2.25 1.657 5.218 2.164 8.026 2.054 4.9-.197 9.505-2.249 13.367-4.971a809.384 809.384 0 0 0-1.131-14.03c-2.145-22.83-4.174-45.67-6.26-68.501-.071-.628-.676-1.053-.974-1.586-7.004 6.978-13.794 14.14-20.64 21.251m-31.931 32.756c-1.467 1.579-2.851 3.226-4.23 4.872-2.624 3.3-5.25 6.638-7.193 10.337-.49.94-.936 2.112-.372 3.11.665 1.023 2.088 1.175 3.256 1.177 5.155-.193 9.964-2.344 14.15-5.03 1.4-.645 2.716-2.072 2.188-3.62-.694-2.08-2.007-3.915-3.292-5.715a74.131 74.131 0 0 0-4.235-5.15l-.272.019z"/><path d="M804.02 26.613c1.533-3.39 2.95-6.82 4.5-10.204 2.377 7.301 4.697 14.624 6.635 22.038.29 1.276.67 2.544.814 3.844-.202 1.03-.538 2.04-.567 3.098a577.104 577.104 0 0 0-2.557-4.55c1.081 18.965 2.387 37.922 3.845 56.869.451 6.093 1.112 12.175 1.351 18.281.439 11.31.016 22.865-3.669 33.738-1.384 3.93-3.146 7.76-5.384 11.336-3.009 4.622-7.476 8.267-12.39 11.068-8.75 4.91-18.765 7.463-28.764 9.04-.567.192-.796-.421-1.117-.7 8.921-4.006 17.498-8.713 25.504-14.153 4.003-2.796 7.922-5.742 11.29-9.204 3.86-4.054 6.772-8.935 8.095-14.232 1.45-5.326.951-10.868.632-16.289-.836-12.496-1.87-24.981-2.753-37.475-1.36-19.254-2.728-38.51-4.09-57.764-.288-1.353-1.193-2.513-1.611-3.83-.113-.323.148-.613.237-.91zM425.272 26.561c1.739-3.143 3.409-6.317 5.104-9.48 2.754 6.708 4.934 13.622 6.446 20.664.1 1.282-.275 2.559-.398 3.833-1.244-1.57-1.99-3.46-3.258-5.026.69 5.29.938 10.623 1.39 15.934.502 6.87.976 13.74 1.448 20.612 3.776-.59 7.17-2.67 9.449-5.51 3.429-4.25 4.951-9.6 5.382-14.835-.028-6.727-.413-13.57-2.68-20.008-.4-1.317-1.137-2.591-1.122-3.987.27-2.594 1.201-5.08 2.185-7.504.25-.565.413-1.286 1.148-1.455 1.119 3.227 2.276 6.45 3.02 9.775 1.156 5.207 1.714 10.508 2.357 15.787.428 3.195.556 6.443 1.423 9.574 1.124 4.211 3.403 8.315 7.156 10.992 2.823 1.997 6.428 3.364 10.018 2.834 2.532-.425 5.094-1.365 6.866-3.167.8-.799 1.352-1.968 1.01-3.062-3.626-8.705-6.586-17.632-9.58-26.539a1522.04 1522.04 0 0 1-3.028-9.306c-.286-.787.087-1.598.224-2.375.63-2.373 1.446-4.724 2.573-6.93 1.226.548 2.022 1.635 2.822 2.617 2.415 3.243 4.34 6.776 6.11 10.354-.085.457-.167.916-.233 1.377-.897-1.039-2.05-1.97-3.493-2.235-.23.51-.219 1.065-.02 1.581 1.606 4.53 3.32 9.026 4.954 13.545 1.39 4.03 2.784 8.132 2.965 12.392.138 3.47-.441 6.945-1.497 10.267-.137.288-.165.854-.632.782.403.274.03.716-.066 1.058-1.255 2.913-3.205 5.74-6.18 7.34-2.553 1.431-5.704 1.652-8.58 1.124-3.787-.706-7.035-2.988-9.36-5.799-3.269-3.96-5.275-8.72-6.463-13.561-.179.004-.536.019-.714.026-1.112 4.87-2.802 9.665-5.413 14.023-2.34 3.897-5.576 7.58-10.038 9.439.78 12.056 1.596 24.11 2.154 36.18.082 5.95-.176 11.9-.492 17.843-.005.809-.367 1.558-.637 2.314-.875 2.58-1.8 5.145-2.785 7.694a4.34 4.34 0 0 1-.645 1.207c-.127-11.362-1.16-22.696-1.983-34.028a14725.05 14725.05 0 0 1-2.22-29.936c-3.573-.074-7.252-1.048-9.888-3.388-3.073-2.637-4.64-6.438-5.39-10.19-.663-3.324-.804-6.731-.526-10.095.612-4.394 1.818-8.69 2.968-12.984.158-.768.273-1.574.087-2.347-.071-.28-.14-.614-.49-.692-.535-.064-.933.31-1.295.611-2.004 1.807-3.314 4.144-4.46 6.484-2.169 4.833-3.446 9.986-4.142 15.176-.577 3.421-1.418 6.828-2.795 10.054-1.094 2.397-2.458 4.865-4.829 6.368-2.024 1.3-4.701 1.14-6.917.394-2.805-.97-4.801-3.314-5.862-5.853-1.843-4.366-1.963-9.145-1.85-13.774.262-5.425 1.088-10.823 2.36-16.12.24-.047.482-.093.722-.135-1.03 6.077-1.869 12.24-1.382 18.4.237 2.67.747 5.366 1.971 7.81 1.04 2.088 2.866 3.964 5.283 4.646 2.055.59 4.49.542 6.239-.747 1.902-1.42 2.802-3.637 3.498-5.744 1.637-5.338 2.251-10.899 3.947-16.222a75.575 75.575 0 0 1 6.647-15.07c1.604-2.481 3.337-4.909 5.352-7.12.596-.58 1.195-1.405 2.144-1.415.52.312.334.994.347 1.482-.266 2.401-.291 4.857-1.061 7.18-1.408 4.767-2.356 9.639-3.389 14.484-.716 3.773-.907 7.803.64 11.422 1.14 2.76 3.511 5 6.372 6.246 1.555.685 3.235 1.103 4.936 1.331-.938-13.462-2.004-26.916-2.975-40.378-.222-2.095-.074-4.256-.949-6.239zM631.87 20.301c.722-1.117 1.41-2.351 2.642-3.055-1.79 3.343-3.616 6.743-4.421 10.433-.314 1.595-.42 3.538.984 4.733.816.371 1.757.593 2.646.3 1.627-.34 2.387-1.919 3.022-3.198.176.514.293 1.046.104 1.574-.579 2.221-1.349 4.546-3.09 6.227-1.96 1.96-5.915.832-6.662-1.678-.655-2.278-.056-4.665.663-6.867 1.045-2.948 2.494-5.76 4.113-8.469z"/><path d="M486.563 27.28c1.545-3.253 3.088-6.508 4.666-9.747a124.35 124.35 0 0 1 7.397 20.25c.219 1.4-.225 2.808-.171 4.216-1.066-1.765-2.29-3.44-3.407-5.176.288 3.176.811 6.336 1.127 9.512a1998.33 1998.33 0 0 1 5.62 56.359 10.966 10.966 0 0 0 4.028-5.003c1.028-2.23 2.137-4.448 3.639-6.44.563-.716 1.307-1.634 2.399-1.413.617.033.91.651.971 1.153.273 1.767-1.16 3.29-.915 5.043.066 1.439 1.272 2.672 2.705 3.108 2.478.834 5.17.46 7.713.126 1.147-.236 2.58-.438 3.138-1.548a64.865 64.865 0 0 0-2.011-5.279c1.073-2.55 2.3-5.047 3.419-7.584.288-.6.482-1.26.956-1.764.813 2.9 1.017 5.91 1.346 8.882.34 4.805-.487 9.794-3.057 14.02-1.384 2.165-3.452 4.13-6.15 4.756-2.35.526-4.933.285-7.065-.808-2.468-1.31-4.161-3.612-5.04-6.092-1.337 2.863-3.093 5.569-5.33 7.896.26 3.714.551 7.426.75 11.142.148 4.144-.992 8.205-2.31 12.128-.64 1.685-1.27 3.38-2.06 5.012-7.027 10.708-16.315 20.195-27.46 27.278a88.849 88.849 0 0 1-23.836 10.675c-4.429 1.198-8.957 2.176-13.564 2.49-4.756.061-9.582-.512-14.026-2.138-4.171-1.517-7.815-4.28-10.153-7.85-8.215.79-16.478 1.226-24.74 1.245 7.37-2.463 14.664-5.124 21.836-8.053-1.915-8.709-.331-17.69 2.063-26.172 1.466-5.143 3.358-10.172 5.482-15.107 1.397-3.62 2.784-7.328 5.158-10.502-1.393 2.71-2.843 5.409-3.99 8.217l.063.152c.03.04.094.124.128.164l-.309-.079c-.487.885-.902 1.805-1.18 2.765-1.938 5.785-3.172 11.777-3.583 17.828-.405 6.652.107 13.637 3.432 19.658 8.84-3.855 17.445-8.186 25.696-13.046 6.996-4.18 13.755-8.74 19.897-13.968 2.912-2.511 5.742-5.131 8.133-8.089.707-.775.362-1.88.133-2.763-.533-1.481-1.137-2.938-1.752-4.389-4.18 1.579-8.635 2.66-13.171 2.642-2.473.066-5.018-.373-7.15-1.588-1.827-1.051-3.184-2.778-3.734-4.713-.763-2.54-.431-5.219.025-7.78.724-3.706 2.188-7.413 4.97-10.218 1.952-1.96 4.538-3.467 7.404-3.861 3.24.014 6.292 1.488 8.605 3.535 2.944 2.603 4.954 5.98 6.499 9.444 2.883-1.567 5.655-3.422 7.802-5.83 2.106-2.043 4.273-4.128 6.963-5.5.67-.359 1.828-.756 2.274.084.487 1.245.023 2.615-.304 3.854-.866 1.807.182 3.86 1.477 5.242 1.802 1.897 4.765 2.08 7.276 1.655-2.63-25.214-5.305-50.426-7.94-75.64-.053-.846-.445-1.619-.782-2.392m-35.833 77.426c-1.29.519-2.904 1.286-3.095 2.735.304 1.1 1.69 1.44 2.733 1.676 3.353.606 6.838.594 10.189-.02-.061-.111-.189-.332-.253-.444-1.746-1.845-3.972-3.433-6.619-3.9-.971-.135-2.004-.394-2.955-.047m21.955 10.3c.347 5.138-.425 10.333-2.162 15.214-.67 1.695-1.229 3.49-2.493 4.903-6.219 7.75-14.23 14.082-22.672 19.64-7.521 4.887-15.463 9.221-23.765 12.842 1.418.645 2.907 1.163 4.454 1.47 4.146.858 8.427.397 12.58-.162 13.004-1.817 25.247-7.109 35.792-14.342 6.992-4.795 13.36-10.38 18.919-16.598 1.859-2.197 4.146-4.344 4.6-7.235-.444-4.905-1.03-9.798-1.52-14.7-2.891 1.082-6.471 1.336-9.095-.471-3.184-2.242-4.395-6.068-4.898-9.6-2.746 3.44-5.976 6.56-9.74 9.039zM612.873 17.96c1.326.641 2.193 1.813 3.047 2.912 2.083 2.843 3.794 5.908 5.382 9.01.27.457.365 1.033.85 1.354-.156.026-.31.047-.455.066-.017.248-.048.744-.063.992-.959-.973-2.08-1.912-3.506-2.197-.252.52-.25 1.082-.036 1.614 1.851 5.295 3.945 10.516 5.737 15.83 1.142 3.464 2.144 7.024 2.183 10.67.079 3.386-.54 6.767-1.612 9.996-1.076 3.034-2.725 6.041-5.476 8.043-2.264 1.715-5.286 2.425-8.167 2.174-3.516-.245-6.846-1.827-9.286-4.175-1.303-1.158-2.36-2.525-3.353-3.919l.38-.083-.415.047c-2.203-3.461-3.837-7.24-4.78-11.17.083-.508-.957-.466-.852.04-1.344 5.733-3.488 11.387-7.037 16.27-2.073 2.806-4.755 5.31-8.083 6.791-3.625 1.595-7.896 1.7-11.713.678-3.835-1.032-6.874-3.857-8.52-7.185-2.387-4.77-2.752-10.17-2.49-15.355.513-4.19 1.635-8.286 2.731-12.368.37-1.255.699-2.606.222-3.88l-.607-.295c-.512.311-1.04.618-1.44 1.056-2.81 2.89-4.406 6.585-5.68 10.25a61.258 61.258 0 0 0-2.222 9.013c-.67 4.822-1.698 9.7-4.076 14.07-1.29 2.323-3.228 4.736-6.148 5.269-2.705.338-5.596-.454-7.577-2.233-2.428-2.116-3.49-5.192-4.13-8.15-1.02-5.31-.704-10.751-.064-16.082a97.49 97.49 0 0 1 1.802-9.779c.25-.021.502-.038.76-.052-1.01 5.447-1.706 10.977-1.53 16.514.158 3.155.556 6.37 1.93 9.29.933 2 2.516 3.86 4.717 4.722 2.078.789 4.643.932 6.588-.245 2.012-1.232 2.955-3.431 3.702-5.469 1.471-4.51 2.121-9.2 3.276-13.783 1.212-4.65 2.953-9.175 5.09-13.526 1.223-2.536 2.572-5.03 4.303-7.304 1.538-2.023 2.95-4.244 5.133-5.73l.647.031c.4 1.524-.071 3.103-.143 4.646-.135 2.549-1.129 4.943-1.7 7.413-.709 2.825-1.316 5.673-1.923 8.52-.938 4.074-1.606 8.373-.425 12.472.892 3.215 3.27 6.051 6.483 7.516 2.089 1.024 4.432 1.545 6.782 1.623 3.305.312 6.76-.059 9.715-1.543 3.561-1.73 6.083-4.869 7.717-8.221 1.6-3.35 2.512-6.979 2.777-10.633.036-7.259-.505-14.658-3.167-21.54-.339-.952-.782-1.939-.589-2.959.421-2.798 1.423-5.492 2.598-8.086.074-.297.457-.318.686-.47 1.257 3.502 2.479 7.028 3.241 10.658.961 4.72 1.515 9.501 2.083 14.27.452 3.405.584 6.862 1.5 10.2.76 2.77 1.942 5.48 3.8 7.775 2.26 2.927 5.65 5.1 9.422 5.93 3.228.699 6.675-.2 9.39-1.88 1.428-.91 2.91-2.44 2.435-4.173-4.52-11.09-8.238-22.445-11.932-33.788-.245-.937-.712-1.834-.788-2.796.48-3 1.606-5.878 2.876-8.657z"/><path d="M565.977 19.894c3.36 2.143 6.117 5.234 7.402 8.866.637 1.907.872 3.94.625 5.928-.184 1.448-.431 2.95-1.3 4.196-.123-.38-.042-.77.035-1.148.579-2.875.086-5.956-1.512-8.486-1.318-2.109-3.269-3.878-5.563-5.045.043-1.44.193-2.875.313-4.31zM390.128 23.848c.632-1.041 1.33-2.113 2.427-2.781-1.75 3.518-3.784 7.013-4.434 10.896-.204 1.27-.212 2.725.66 3.792.816.958 2.3.975 3.455.64 1.293-.483 1.894-1.776 2.499-2.853.27.007.326.304.456.482-.68 2.494-1.339 5.2-3.355 7.09-1.874 1.848-5.571.897-6.492-1.398-.668-1.65-.446-3.476-.053-5.16.964-3.789 2.79-7.334 4.837-10.708zM685.367 22.89c.49-.796 1.247-1.778 2.37-1.64 1.19.25 2.355.846 3.087 1.778.372.583.68 1.472.02 1.985-.347.317-.594.852-1.022 1.01-.6-.729-1.063-2.032-2.275-1.994-1.517.52-2.355 1.954-2.81 3.317-.94 2.81-1.131 5.773-1.427 8.683-.3.29-.706.452-1.068.658 0-2.95-.735-6.11-3.001-8.29-1.091-.126-2.39-.248-3.001-1.234-.745-1.258-1.28-2.81-.765-4.227 1.155-.212 2.091.596 2.876 1.267 2.076 1.776 3.417 4.127 4.628 6.465.512-2.654 1.027-5.37 2.388-7.778zM528.689 24.433c.686-1.557 2.483-2.865 4.357-2.565.936.188 1.591.956 1.925 1.752.655 1.64.752 3.429.522 5.155 1.15 1.284 2.4 2.584 2.882 4.248.892 2.19.094 4.527-.666 6.641-.971 2.796-2.817 5.335-3.162 8.307-.12.735.184 1.536.99 1.79 1.295-.356 1.496-1.792 1.762-2.838.405-.09 1.04-.131 1.18.347.222 1.322-.4 2.594-.903 3.8-.453.915-1.083 1.997-2.248 2.201-.931.16-1.642-.601-2.015-1.298-1.06-2.007-.726-4.387.161-6.391 1.382-3.193 3.207-6.408 3.04-9.95.004-1.505-.674-2.941-1.758-4.037-1.619 4.077-4.237 7.753-7.253 11.043-1.56 1.807-3.802 2.91-5.94 4.011-1.916.925-3.858 1.836-5.898 2.504 3.926-2.634 7.692-5.514 10.95-8.859 2.688-2.812 5.161-5.984 6.158-9.693l-.066-.21c-1.454-.874-3.2-1.647-3.957-3.193-.322-.88-.28-1.868-.061-2.765m1.455.447c-.374.226-.117.659.19.806.914.497 1.855.958 2.806 1.396-.023-.894.15-2.004-.688-2.642-.727-.566-1.721-.076-2.308.44zM504.169 26.882c.54.136.93.547 1.376.84 2.703 2.075 4.954 4.774 6.028 7.91 1.004 2.838.943 5.955.048 8.81-.122.495-.459.895-.755 1.309-.023-.053-.068-.16-.094-.212.653-2.64.556-5.48-.584-7.991-1.231-2.75-3.539-5.029-6.323-6.462.072-1.403.189-2.806.304-4.204zM463.537 29.562l.202.188c-.444.525-.217 1.22-.146 1.823.243 1.3.59 2.59 1.069 3.833.158.556.777.822 1.305 1.008.461.09 1.208.302 1.4-.273-.316-1.349-1.076-2.552-1.545-3.845.221-.747.326-1.548.706-2.24.255.005.515.015.775.031.255 1.45 1.063 2.727 1.644 4.066-.033 1.377-.079 2.805-.635 4.099-.346.875-1.45 1.108-2.338 1.096-1.297-.171-2.149-1.194-2.916-2.083-.495 1.298-1.76 2.314-3.233 2.492-1.24.06-2.29-.873-2.616-1.935-.431-1.406-.383-2.915-.033-4.33.273-.99.805-2.06 1.902-2.44a5.441 5.441 0 0 0-.594 4.558c.188.628.538 1.415 1.333 1.505.882.015 1.538-.613 2.167-1.1.163-1.556-.033-3.125.174-4.677.319-.668.956-1.163 1.38-1.776zM684.177 39.134c4.903-1.978 9.806-3.975 14.82-5.687-.152 1.062-.565 2.275-1.674 2.781-7.121 2.835-14.27 5.621-21.242 8.769-1.384.713-2.807 1.445-3.885 2.544.77.792 1.922 1.089 2.962 1.445-.012.768-.01 1.536-.01 2.307-1.474-.333-2.95-.835-4.092-1.793.066-1.091.046-2.19.207-3.274.165-.984 1.244-1.448 2.024-1.983 3.455-2.006 7.195-3.535 10.89-5.11zM571.431 42.182c.767-.887 1.453-1.907 2.473-2.554-.673.954-.39 2.13-.23 3.182.378 1.961.94 3.892 1.602 5.787.21.791 1.084 1.129 1.805 1.433.653.229 1.438.44 2.101.136.418-.342.222-.927.074-1.35-.638-1.66-1.29-3.324-2.188-4.88.207-.734.347-1.492.691-2.187l.28-.047a15.498 15.498 0 0 1-.239-.454c.1-.31.196-.62.298-.93.45.033.898.062 1.354.088.207 2.228 1.52 4.173 2.466 6.172-.033 1.705-.166 3.424-.561 5.093-.224.984-.711 2.023-1.708 2.518-1.145.423-2.51.62-3.629.033-1.297-.694-2.335-1.752-3.148-2.908-.653 1.772-2.221 3.174-4.126 3.752-1.31.46-2.868-.03-3.763-.998-1.14-1.103-1.446-2.701-1.555-4.173-.09-1.893.074-3.845.867-5.606.454-1.023 1.264-1.924 2.338-2.42-1.053 1.949-1.594 4.217-1.005 6.371.26 1.13.694 2.57 2.043 2.925 1.455.173 2.613-.859 3.551-1.753.176-2.406.066-4.826.21-7.23zM462.071 45.24c3.389 2.047 6.086 5.161 7.376 8.744 1.048 2.896.974 6.082.041 8.995-.125.473-.507.827-.849 1.174.688-2.748.615-5.728-.62-8.336-1.257-2.694-3.561-4.914-6.292-6.35.148-1.408.222-2.82.344-4.227zM687.068 61.816c.711-.81 1.405-1.636 2.185-2.39-.742 1.617-.176 3.374.176 5.012.4 1.5.785 3.015 1.392 4.456.758.925 2.086 1.396 3.31 1.36.568-.002.838-.623.642-1.068-.6-1.807-1.377-3.561-2.262-5.261.171-1.248.668-2.45 1.018-3.666.423.035.854.069 1.287.109.283 2.214 1.525 4.175 2.499 6.163-.04 1.6-.16 3.21-.492 4.783-.25 1.096-.686 2.366-1.874 2.86-1.012.367-2.198.571-3.22.129-1.502-.62-2.568-1.843-3.49-3.065-.585 1.729-2.069 3.098-3.89 3.705-1.496.642-3.316-.031-4.265-1.206-1.088-1.386-1.28-3.172-1.298-4.838.062-1.6.197-3.248.936-4.717.48-.987 1.221-1.957 2.361-2.326-1.52 2.342-1.688 5.345-.566 7.86.324.714.99 1.403 1.876 1.427 1.35-.064 2.397-.97 3.29-1.828-.02-2.043.076-4.08.079-6.123.064-.46-.087-1.015.306-1.376zM786.846 59.93c4.14 2.6 7.555 6.308 9.403 10.652 1.82 4.21 1.806 8.99.34 13.29-.2.498-.625.871-.982 1.27.637-2.92.857-5.984-.03-8.88-1.255-4.588-4.842-8.4-9.205-10.706.217-1.871.265-3.754.474-5.625zM513.248 70.432c2.84-1.633 5.624-3.36 8.5-4.938-.283 1.686-.87 3.638-2.626 4.477-6.282 3.586-12.496 7.278-18.8 10.825.703-1.343 1.396-2.7 2.171-4.008 3.555-2.16 7.175-4.232 10.755-6.356zM634.224 75.986c.86-.463 2.119-.43 2.7.416a4.385 4.385 0 0 1 .581 3.895c-.818 2.565-2.626 4.746-4.597 6.643-2.396 2.183-5.265 4.194-8.656 4.686.569-.656 1.4-1.02 2.132-1.49 2.1-1.32 4.123-2.775 5.887-4.475.926-.999 1.928-2.078 2.093-3.445.064-1.146-1.05-2.126-2.187-2.316-1.658.273-2.69 1.61-3.909 2.549-.29-.83.487-1.413.946-2.021 1.46-1.655 2.932-3.431 5.01-4.442zM681.087 96.205c9.288-5.363 18.525-10.801 27.826-16.143-.262 1.666-.775 3.492-2.243 4.59-9.006 5.238-18.062 10.405-27.065 15.652.385-1.398.992-2.731 1.482-4.099zM556.684 83.54c1.354 1.053 2.177 2.568 3.093 3.95 2.343 3.844 4.34 7.862 6.272 11.897 4.24 8.661 7.03 17.908 8.564 27.31.434 2.916.877 5.847.788 8.8.258 5.86 1.004 11.853 3.628 17.247.505 1.072 1.204 2.052 1.856 3.05l-.12.54c.136-.109.273-.218.408-.328a53.499 53.499 0 0 0 5.64 6.032c.518.519 1.566.963 2.076.164.096.017.293.053.39.072l-.266-.226c.426-1.208-.012-2.5.396-3.707.58-1.983 1.912-3.67 3.327-5.21 1.583-1.616 3.376-3.1 5.492-4.077 4.237-2.004 8.63-3.709 13.067-5.287 3.34-1.156 6.736-2.18 10.209-2.925-14.906.098-29.811.212-44.716.371.744-3.376 1.502-6.75 2.27-10.121 1.58-1.936 3.569-3.526 5.532-5.107 8.546-6.577 18.413-11.444 28.406-15.802-1.17-1.71-2.797-3.302-3.055-5.402-.604-2.948.709-5.863 2.361-8.317.98-1.393 1.894-2.915 3.401-3.873 1.512-.977 3.557-1.039 5.212-.347 1.055.447 2.134.849 3.151 1.377.02.104.059.316.08.42l.22-.25c4.414 2.3 8.369 5.29 12.03 8.524.423.4.967.745 1.232 1.265-.995 3.003-2.045 5.994-3.009 9.01-4.405.917-8.834 1.794-13.128 3.114.436 2.537 1.214 5.304.046 7.763-.408-.053-.961-.12-1.03-.585-.166-2.133-1.267-4.073-2.4-5.89-5.479 2.012-10.945 4.092-16.11 6.738-4.164 2.157-8.386 4.496-11.471 7.946 22.916.008 45.835.008 68.754 0-1.469 3.01-3.04 5.98-4.536 8.978-15.005 3.41-29.982 7.054-44.538 11.9-6.108 2.087-12.212 4.384-17.63 7.789-.561.4-.885 1.136-.477 1.735.841 1.206 2.376 1.703 3.664 2.39 2.8 1.445 5.902 2.232 8.952 3.077 2.185.601 4.37 1.2 6.552 1.809-.18 3.607-.211 7.223-.446 10.825-1.787 0-3.61-.295-5.408-.442-3.521-.39-7.096-.652-10.492-1.66-4.625-1.364-8.79-3.956-12.054-7.29-3.583-3.594-6.173-7.957-8.03-12.53-2.534-6.335-3.809-13.066-4.298-19.797a24.127 24.127 0 0 0-.66-.074c-.635 2.967-1.354 5.934-2.417 8.797-.202.68-.737 1.198-1.209 1.726-3.411 3.695-7.05 7.207-10.854 10.547-3.893 3.383-7.952 6.622-12.338 9.442-4.612 2.95-9.602 5.604-15.12 6.719-2.964.573-6.335.682-8.933-.992-2.902-1.85-4.317-5.064-5.082-8.145-2.644 1.87-5.308 3.716-8.031 5.487-2.458 1.538-4.906 3.165-7.72 4.092-7.038 2.437-14.36 4.035-21.644 5.682-5.225 1.104-10.452 2.21-15.711 3.153 4.872-2.58 9.82-5.043 14.673-7.658 13.164-7.024 26.131-14.403 38.51-22.582 1.688-7.54 4.413-15.124 9.694-21.175l.267-.07c-.42.835-.622 1.75-1.055 2.58-3.182 5.198-5.444 10.942-6.244 16.893 5.634-3.82 11.134-7.827 16.31-12.183 3.197-2.672 6.2-5.544 8.944-8.626.755-.872 1.78-1.621 2.065-2.767.398-1.303-.199-2.599-.828-3.738.063-.15.127-.297.193-.442-.267-.069-.44-.216-.522-.44-3.322-7.976-6.683-15.941-10-23.92 1.033-3.664 1.989-7.347 3.032-11.009 1.39.854 2.294 2.195 3.284 3.407 2.019 2.766 3.918 5.61 5.624 8.555.954 1.62 1.135 3.5 1.484 5.288-1.369-1.149-2.323-2.706-3.842-3.688.066.262.158.516.278.766 2.404 4.424 4.048 9.192 5.114 14.047.658 2.884.943 5.841.76 8.79-.138 3.195-.604 6.469-2.177 9.353-1.398 2.56-3.277 4.855-5.24 7.057-6.654 7.282-14.454 13.559-22.376 19.603.01.352.439.447.694.64 2.835 1.65 6.382 1.483 9.548.97 2.387-.516 4.845-.909 7.03-1.998 5.734-2.798 10.734-6.7 15.56-10.675 6.329-5.37 12.29-11.113 17.975-17.071-1.9-6.286-3.873-12.551-5.882-18.807-1.09-3.266-2.106-6.562-3.411-9.76-2.165-4.218-4.245-8.485-6.132-12.815.762-3.307 1.72-6.579 2.534-9.879m57.676 17.012c-.694.256-1.275.97-.985 1.685.107.542.742.73 1.076 1.132a55.793 55.793 0 0 1 3.914 4.71c3.016-1.022 6.078-1.91 9.123-2.848-2.267-2.019-4.783-3.94-7.807-4.853a8.12 8.12 0 0 0-5.321.174zM402.251 85.359c2.076-.419 3.965.792 5.441 2.007 1.976 1.8 3.623 3.944 4.666 6.338.316.723.456 1.512.339 2.29-.15 1.032-.237 2.164-.94 3.022-.827.71-2.13.556-3.007.01a21.27 21.27 0 0 0-2.73-1.43c-1.423 3.512-4.33 6.29-7.499 8.505-2.488 1.755-5.201 3.229-8.006 4.496a57.519 57.519 0 0 1-6.15 1.807c-.83.212-1.695.19-2.547.169.5-.11 1.033-.145 1.49-.385 4.563-2.404 9.015-5.012 13.163-8.003 2.802-2.104 5.584-4.332 7.572-7.159-.966-.204-1.937-.397-2.924-.485-.778-2.114-.8-4.686.839-6.46-.79-.644-.905-1.705-1.048-2.613-.15-.88.331-1.924 1.341-2.11m3.876 5.262c.367 1.577.402 3.196.471 4.8 1.382.146 2.774.757 4.166.438.645-.337.192-1.11-.145-1.505-1.272-1.457-2.884-2.62-4.492-3.733m-3.394.678c-.454.628-.982 1.35-.91 2.142.803.942 2.16 1.334 3.386 1.541.12-.452.262-.894.357-1.348.336-.923-.429-1.75-1.04-2.392-.457-.516-1.398-.533-1.793.057z"/><path d="M584.656 90.33a18.58 18.58 0 0 1 2.415-2.698c-.663 1.403-.268 2.934.04 4.368.35 1.569.821 3.11 1.35 4.636.369 1.15 1.784 1.555 2.916 1.78.678.203 1.51-.268 1.247-.99-.625-1.865-1.423-3.674-2.336-5.429.324-1.177.691-2.342 1.002-3.521.428 0 .862.005 1.298.01.375 2.18 1.489 4.158 2.514 6.117.003 2.118-.133 4.327-.938 6.336-.538 1.424-2.338 1.867-3.792 1.753-1.93-.348-3.21-1.9-4.342-3.265-.563 1.79-2.157 3.179-4.044 3.74-1.596.547-3.436-.247-4.293-1.56-.938-1.455-1.117-3.212-1.073-4.876.084-2.38.578-5.155 2.868-6.584l.643.003c-.102.043-.311.126-.413.169a8.223 8.223 0 0 0-.243 7.805c.36.773 1.27 1.33 2.19 1.149 1.148-.26 2.056-1.02 2.838-1.805.028-2.38.018-4.762.153-7.138zM391.107 118.928c9.245-5.414 18.528-10.778 27.79-16.163-.264 1.88-.955 4.056-2.898 4.998-8.575 4.957-17.17 9.886-25.731 14.86-.222.109-.454.2-.696.268.545-1.31.961-2.667 1.535-3.963zM648.255 108.186c.772-.932 2.08-1.386 3.314-1.422.857-.007 1.272.851 1.469 1.505.372 1.543.438 3.222-.367 4.66.418.283.838.57 1.267.851-.112.987-.192 1.98-.212 2.975-.852-.426-1.507-1.103-2.236-1.674-2.27 3.65-5.586 6.814-9.72 8.602-2.184 1.027-4.686 1.477-7.118 1.194 4.607-1.536 9.082-3.752 12.424-7.152a20.78 20.78 0 0 0 2.976-3.833c-.648-.644-1.423-1.196-1.928-1.95-.402-1.205-.698-2.646.13-3.756m1.265 1.189c.334.882.974 1.61 1.64 2.294.28-.763.647-1.593.237-2.378-.63-.113-1.262-.05-1.877.084zM734.543 110.388c1.555-.5 3.192.156 4.464.993 2.124 1.465 3.781 3.455 5.061 5.592.683 1.24 1.464 2.597 1.188 4.038-.163.97-.245 2.011-.867 2.838-.688.795-1.98.714-2.848.24-.989-.522-1.932-1.12-2.967-1.561-1.4 3.547-4.35 6.34-7.548 8.557-2.164 1.545-4.538 2.815-6.942 4.001-1.484.747-3.126 1.146-4.717 1.631-1.588.42-3.205.975-4.883.82 1.059-.057 1.895-.696 2.787-1.153 4.65-2.522 9.207-5.235 13.345-8.452 2.198-1.774 4.444-3.621 5.925-5.985a39.47 39.47 0 0 0-2.88-.48c-.778-2.109-.786-4.688.891-6.434-.836-.599-.933-1.685-1.073-2.589-.12-.787.164-1.785 1.064-2.056m4.171 5.223c.316 1.562.41 3.155.436 4.743 1.31.176 2.613.661 3.95.521.68-.092.655-.927.277-1.324-1.242-1.595-2.965-2.796-4.663-3.94m-4.439 2.549c.67 1.158 2.19 1.453 3.432 1.824.255-.747.584-1.53.459-2.32-.449-.819-1.058-1.889-2.185-1.884-.974.466-1.36 1.484-1.706 2.38zM520.76 117.692c.52-.923 1.54-2.017 2.791-1.555 1.504.423 3.294 1.535 3.055 3.204-.403.569-.92 1.056-1.377 1.586-.487-.86-1.033-1.961-2.175-2.144-1.486.454-2.376 1.845-2.845 3.17-.987 2.893-1.206 5.948-1.482 8.955-.36.179-.719.355-1.086.516.01-2.767-.635-5.706-2.626-7.85-.451-.711-1.453-.355-2.132-.697-1.264-.423-1.723-1.71-2.03-2.81-.152-.744-.425-1.638.108-2.302 1.12-.3 1.996.616 2.794 1.194 2.055 1.821 3.475 4.165 4.638 6.552.49-2.665 1.007-5.399 2.366-7.82zM390.836 132.742c.844-1.403 1.637-2.932 3.114-3.86-1.793 3.375-3.657 6.794-4.44 10.52-.26 1.423-.39 3.069.597 4.293.768.768 2 .908 3.05.67 1.593-.327 2.335-1.883 2.993-3.116.505.92-.018 1.913-.25 2.831-.66 1.943-1.448 4.047-3.271 5.31-1.4.998-3.406.598-4.753-.281-1.774-1.294-1.815-3.64-1.504-5.54.701-3.844 2.514-7.413 4.464-10.827zM655.174 156.197c.09-.086.207-.12.352-.098-.53.566-.82 1.28-1.229 1.921-1.16 2.045-2.501 4.216-2.193 6.622.034 1.13.714 2.589 2.13 2.58.69-.321.869-1.144 1.216-1.736-.044 1.762-.322 3.901-2.096 4.91-1.474-.222-2.58-1.441-2.639-2.818-.3-4.163 1.568-8.27 4.46-11.381zM565.87 156.812c1.364-.623 3.246-.532 4.322.552.9.994.997 2.36.93 3.604-.721.897-1.552 1.722-2.157 2.699-1.264.219-2.592.026-3.83.373-.621.338-1.435.542-1.733 1.222-.39.877-.209 1.852-.043 2.76.642 3.172 1.83 6.29 1.77 9.556-.07 1.146-.151 2.335-.733 3.371-.135-1.816-.82-3.533-1.318-5.28-.938-3.184-1.682-6.45-1.792-9.76-.123-1.275.663-2.37 1.456-3.331 1.17-1.527 3.268-1.974 5.132-2.304-.484-.416-1.033-.896-1.749-.804-1.002.136-1.68.918-2.23 1.638-.1-1.59.366-3.468 1.975-4.296zM627.452 159.61c1.372-1.081 3.276-1.186 4.992-1.183 1.724.111 3.547.183 5.067 1.041.718.78.035 1.703-.702 2.192-2.988 2.012-6.28 3.757-8.704 6.398-.658.683-.316 1.745.515 2.145 1.257.587 2.713.616 4.095.582 3.281-.166 6.432-1.324 9.178-2.974.765-.454 1.451-1.02 2.242-1.44a35.51 35.51 0 0 1-5.694 5.197c-1.77 1.238-3.763 2.313-5.976 2.636-1.742.138-3.616.06-5.12-.858-1.675-.925-2.46-2.996-1.841-4.705.375-.96 1.068-1.774 1.797-2.523 1.882-1.86 4.182-3.28 6.477-4.653-1.556-.069-3.131-.147-4.677.029-1.01.095-1.687.8-2.404 1.374-.216-1.115-.222-2.437.755-3.257zM711.884 161.632c2.134 1.348 4.016 3.062 5.423 5.083.12.005.354.014.474.021a21.2 21.2 0 0 0-.285.205c2.6 3.735 3.271 8.578 1.657 12.78-.14.344-.436.6-.688.877.5-2.325.647-4.789-.136-7.074-1.073-3.319-3.737-6.081-6.98-7.712l.234-.024c.054-1.391.214-2.773.3-4.156zM743.752 177.692c10.234-4.62 20.433-9.306 30.67-13.916-.54 1.705-1.25 3.655-3.068 4.515-9.436 4.244-18.854 8.524-28.288 12.766-.622.292-1.24.61-1.917.765.622-1.167 1.208-2.349 1.807-3.523.128-.328.487-.46.796-.607z"/></g></svg>