<svg xmlns="http://www.w3.org/2000/svg" xmlns:xlink="http://www.w3.org/1999/xlink" width="500" height="250" viewBox="0 0 1440 720"><style>.B{fill:#f7e017}.C{fill:#cf1126}</style><path d="M0 0h1440v720H0z" class="B"/><path fill="#fff" d="M0 50v320l1440 150V350z"/><path d="M0 220v150l1440 300V520z"/><g class="C"><path d="M695.74 569.72c-19.36-2.57-37.11-8.73-49.44-17.17-2.39-1.64-4.64-2.98-4.99-2.98-.36 0-.65 1.82-.65 4.07 0 6.37-2.56 9.58-9 11.25-6.16 1.6-15.56-1.63-23.18-7.95-7.89-6.55-17-11.55-24.71-13.55-6.35-1.66-14.78-1.39-20.87.65-2.83.95-6.05 2.29-7.17 2.98-1.11.69-2.36 1.25-2.76 1.25-1.08 0-.93-6.85.2-9.04 1.49-2.87 5.16-5.7 9.44-7.26 2.16-.79 3.93-1.8 3.93-2.25s-.73-2.1-1.62-3.65c-2.9-5.08-1.71-10 3.35-13.87 5.18-3.96 13.95-4.64 21.7-1.69 1.95.74 3.77 1.35 4.04 1.35 1.02 0 .4-1.43-2.41-5.52-3.24-4.74-3.88-7.08-3.48-12.72.52-7.14 6.34-12.98 13.47-13.5 5.82-.42 9.44 1.54 18.03 9.72 25.65 24.46 53.54 37.94 86.07 41.59 8.21.92 24.73.43 34.42-1.03 29.27-4.41 58.76-19.13 81.79-40.82 6.38-6.01 9.45-7.6 14.68-7.62 4.55-.02 7.74 1.45 11 5.05 2.97 3.3 3.98 6.43 3.66 11.44-.21 3.21-.73 4.79-2.64 7.9-2.82 4.59-2.34 5.01 3.24 2.85 7.54-2.94 16.83-1.58 21.84 3.18 4.41 4.19 4.83 8.38 1.4 14.06-1.25 2.08-2.27 4.03-2.27 4.34 0 .57.95.84 5.53 1.58 5.99.96 9.42 5.41 9.42 12.21 0 2.04-.25 3.7-.56 3.7-.3 0-2.57-.83-5.04-1.85-6.98-2.88-10.95-3.62-19.11-3.57-6.21.04-8.35.33-12.68 1.74-6.63 2.17-13.72 6.35-19.5 11.5-6.37 5.68-10.38 7.47-16.58 7.42-5.76-.06-9.7-1.73-11.78-5.02-1.11-1.76-1.27-2.83-1-6.81.18-2.59.14-4.71-.07-4.71-.22 0-2.46 1.42-4.99 3.17-6.64 4.56-10.87 6.82-18.47 9.83-23.18 9.17-56.63 13.14-82.24 9.75zm10.6-44.55c-38.58-3.703-75.494-23.798-97.939-55.657-24.37-33.235-32.05-77.117-24.611-117.24 3.953-18.267 11.929-36.546 25.544-49.554-10.85 23.003-14.516 49.369-8.73 74.29 8.989 49.753 51.036 91.87 101.34 99.156 19.9 5.761 40.487-.324 59.496-6.493 41.935-14.779 73.879-54.583 77.777-99.079 3.336-24.078-.36-49.114-11.207-70.916 6.183 3.269 13.987 16.087 18.589 24.707 16.003 31.003 16.734 68.155 7.313 101.24-12.78 42.097-44.965 78.978-87.511 92.382-19.308 6.308-39.842 8.231-60.058 7.168z"/><g id="A" fill-opacity="1" class="C"><path d="M512.02 469.9c-2.528-.396-5.316 2.092-4.363 4.697 1.823 2.633 4.964 3.92 7.798 5.18 6.792 2.722 14.179 3.782 21.471 3.606-2.513-.006.863.026 1.802-.001 5.774.017 11.516-1.023 16.944-2.98 3.018-1.061 6.864-2.024 8.101-5.363 1.207-2.174-.98-4.346-3.186-3.911-3.071.671-5.943 2.064-8.99 2.858-6.572 1.853-13.494 2.57-20.303 2.012-4.979-.608-9.804-2.2-14.41-4.143-1.597-.705-3.096-1.732-4.865-1.954z"/><path d="M514.83 459.52c-2.556-.381-4.758 2.561-3.692 4.908 1.965 2.848 5.267 4.365 8.356 5.699 5.371 2.149 11.204 3.047 16.975 2.875-2.192-.006.753.026 1.565-.001a37.585 37.585 0 0 0 14.325-2.831c2.773-1.079 6.169-2.125 7.324-5.177.896-1.677.213-4.116-1.9-4.248-1.929-.095-3.593 1.132-5.378 1.683-6.485 2.682-13.622 3.818-20.614 3.215-4.357-.561-8.519-2.168-12.47-4.031-1.485-.717-2.821-1.836-4.491-2.092zm3.45-9.95c-2.191-.263-3.698 2.209-3.329 4.182.327 1.733 1.882 2.898 3.169 3.961 5.329 3.897 12.083 5.557 18.626 5.34-2.542-.009 3.409.042 1.595-.007 4.144-.017 8.238-1.031 11.966-2.825 2.489-1.082 5.412-2.336 6.25-5.177.401-1.324.652-3.227-.841-3.97-1.564-.874-3.117.47-4.539 1.016-4.789 2.437-10.125 3.793-15.507 3.768-4.651.157-9.033-1.799-13.068-3.907-1.464-.746-2.671-2.042-4.321-2.38zM481.53 302.7c-3.257 3.261-.77 9.271-.946 13.543 1.688 13.158 3.785 26.484 8.697 38.87 6.015 12.102 18.791 18.573 26.533 29.268 2.768 5.155 1.785 11.355 2.368 16.994.458 15.366.316 30.743.047 46.111 6.939 3.482 14.474 6.986 22.456 5.647 4.731-1.13 13.512-1.833 14.496-6.544l-.983-79.506c-2.69-8.118-10.951-12.32-17.129-17.514a155.502 155.502 0 0 1-14.188-16.099c-2.622-4.418-12.868-6.009-9.161 1.676 2.173 6.654 7.72 11.61 9.109 18.602.303 3.832 4.878 10.879.973 13.114-2.484-4.222-6.082-7.815-10.682-9.957-4.432-3.304-11.759-4.68-13.359-10.517-1.175-8.28-5.415-15.782-10.887-21.986 1.41-7.437.005-16.737-6.423-21.49l-.921-.213zm9.91 1.49c-2.963.478-2.862 4.254-1.491 6.239 1.458 4.288 1.855 8.945 1.066 13.409 5.267 6.166 9.347 13.543 10.576 21.64.03 3.044 3.233 4.051 5.309 5.555 4.871 3.102 10.348 5.351 14.686 9.233.913.976 1.602 2.027.957.035-.677-2.546-1.025-5.358-3.021-7.285-2.735-2.939-6.15-5.563-10.133-6.459-.332-4.114-2.291-7.893-4.102-11.532-2.007-3.479-4.103-7.207-7.541-9.463.138-6.098.038-12.495-2.586-18.122-.77-1.445-1.903-3.163-3.72-3.25zm8.29 2.43c-2.064.613-1.67 3.159-1.016 4.716.989 4.316 1.144 8.773 1.063 13.184 3.791 3 6.162 7.35 8.322 11.586 1.353 2.83 2.637 5.752 3.156 8.865 3.076 1.019 5.767 2.946 8.171 5.077-.953-2.882-3.077-5.113-4.504-7.744-1.552-2.737-3.034-5.591-3.69-8.692-2.958-3.158-4.587-7.63-3.941-11.952.133-4.776-1.409-9.711-4.606-13.311-.805-.793-1.766-1.669-2.954-1.73zm9.43 1.35c-1.122.198-1.805 1.266-2.406 2.137-.232.873.838 1.811 1.008 2.76a21.77 21.77 0 0 1 1.416 10.426c-.086 2.502.809 4.946 2.084 7.065.368-1.563 1.816-2.686 3.386-2.841.571-.1 1.411.188 1.078-.683-.399-4.785-1.128-9.598-2.801-14.119-.648-1.615-1.384-3.315-2.784-4.42-.284-.202-.623-.375-.982-.325z"/></g><use xlink:href="#A" transform="matrix(-1 0 0 1 1440 0)"/><path d="M715.67 475.98c-13.493-1.285-25.667-11.12-29.829-24 .224-2.219 2.987 1.241 4.292 1.474 2.45 1.361 5.1 2.48 7.921 2.654 3.557 1.529 5.756 5.035 9.152 6.863 1.576 1.228 7.154 3.641 6.118-.264-1.307-2.04-2.206-4.624-1.081-6.961 1.892-4.15 4.802-7.764 7.731-11.226 2.153-.72 3.594 3.526 5.134 4.957 2.131 3.279 4.7 7.279 3.447 11.352-1.22 1.509-2.022 6.047 1.241 4.522 4.021-1.769 7.316-4.742 10.651-7.517 2.918-2.038 6.654-2.182 9.712-3.97 1.418-.359 4.371-3.195 4.986-1.623-1.676 4.488-4.482 8.507-7.482 12.211-4.859 5.55-11.432 9.725-18.786 10.902-4.346.796-8.806.964-13.207.627zm15.86-15.76c.297-2.708-.32-5.474-1.703-7.935-2.123-4.326-5.121-8.166-8.046-11.961-2.757-1.615-4.287 3.658-6.12 5.171-2.857 4.277-6.443 8.656-6.617 14.036-1.607 2.501-4.604-2.041-5.896-3.536-2.467-3.491-4.336-7.621-4.03-11.987-.292-7.036 1.057-14.041 3.62-20.581 1.935-5.583 5.076-11.006 4.756-17.105.224-4.591-.707-9.658-4.426-12.745-3.538-2.776 2.292-3.367 4.143-1.928 3.169.213 4.883 5.448 7.777 4.152 1.153-2.735 1.382-5.997 3.76-8.13 2.334-3.196 4.773 1.356 5.572 3.488 1.647 1.872-.093 6.507 2.582 6.628 3.206-2.247 5.492-6.023 9.592-6.845 1.662-.948 4.503-.127 2.311 1.785-3.034 2.844-5.626 6.4-6.179 10.631-.928 5.307.399 10.69 2.712 15.47 4.447 9.39 7.885 19.996 5.636 30.444-1.043 4.644-4.198 8.645-8.031 11.341-.485.293-1.25.272-1.413-.395zm-4.8-70.59c-1.456-2.624-3.224-5.21-5.673-6.995-2.381-.005-3.851 2.998-5.468 4.572-1.134 2.11-2.512 5.639-5.305 2.88-4.444-2.593-5.231-8.275-5.202-12.958-.28-7.591 2.777-14.674 5.492-21.587 1.727-4.328 1.302-9.199.248-13.634-1.327-5.092-5.414-8.623-8.56-12.595.214-1.536 4.235-.697 5.748-.405 3.359.851 5.366 3.825 7.87 5.926 1.782-.539 1.054-4.139 1.884-5.833.061-2.382 3.233-5.523 4.541-2.112 1.959 2.167-.063 6.464 2.469 7.814 2.411-.893 3.601-3.528 5.867-4.72 2.23-1.52 5.378-1.69 7.778-.496.845 2.213-2.64 4.055-3.65 5.977-4.052 5.006-5.476 11.91-3.74 18.112 1.376 4.865 3.813 9.406 4.655 14.434 1.013 5.652.979 11.589-.484 17.159-.875 3.382-3.802 5.64-6.826 7.045-.746-.694-1.139-1.714-1.644-2.583zm-15.12-62.74c-3.36-2.46-4.47-4.81-4.47-9.46 0-2.38.44-3.67 2.01-5.83 2.31-3.2 1.89-4.21-1.38-3.27-5.26 1.51-7.77.13-7.95-4.35-.08-2.19.38-3.12 3.33-6.66 2.36-2.84 3.22-4.33 2.75-4.8-.46-.46-3.25 1.96-8.98 7.79-4.57 4.65-9.71 9.4-11.42 10.56-9.84 6.64-19.24 7.67-23.53 2.56-2.2-2.61-2.08-4.08.46-5.66 1.17-.72 3.14-2.38 4.39-3.69 2.95-3.07 11.74-9.41 16.1-11.61 3.54-1.79 4.38-3 2.08-3-2.98 0-12.54 6.22-19.79 12.88-2.13 1.97-5.2 4.16-6.81 4.87-3.62 1.6-10.73 2.19-13.89 1.15-2.23-.74-6.3-4.58-6.3-5.95 0-.36.93-1.16 2.06-1.77 1.13-.6 3.16-2.07 4.5-3.24 5.8-5.09 16.79-10.33 25.51-12.16 2.77-.58 1.75-1.98-1.34-1.84-5.99.26-17.88 5.83-24.98 11.69-8.32 6.86-20.87 6.21-24.91-1.29-.7-1.29-1.11-2.5-.91-2.69.19-.19 2.66-.93 5.49-1.65 3.06-.77 9.12-3.28 14.91-6.17 9.11-4.54 11.81-5.51 18.08-6.52 2.82-.45 2.97-1.83.23-2.15-3.53-.42-8.94 1.35-18.5 6.05-12.28 6.04-15.72 7.08-22.19 6.7-5.9-.36-9.23-1.87-14.02-6.4-3.13-2.97-7.57-10.51-6.7-11.38.21-.21 1.65 0 3.2.45 1.72.51 6.65.85 12.59.86 8.31.02 10.52-.2 14.95-1.48 7.41-2.14 17.26-7.15 24-12.18 12.89-9.64 23.4-13.51 36.8-13.57 12.37-.05 20.24 2.81 27.21 9.88 2.36 2.39 4.37 3.94 4.7 3.61.31-.31.65-4.49.75-9.29 0 0 3.64-.35 4.41.67 0 7.79.09 8.4 1.22 8.4.74 0 1.53-.76 2.02-1.94 1.06-2.55 4.98-6.04 9.17-8.16 9.05-4.59 24.71-4.73 37.29-.34 5.3 1.86 11.18 5.18 16.78 9.5 5.62 4.32 17.11 10.1 23.9 12.03 6.87 1.95 18.98 2.44 25.19 1.03 2.56-.58 4.96-1.06 5.34-1.06 2.29 0-1.61 7.63-6.19 12.1-8.37 8.18-19.26 8.14-34.58-.12-9.55-5.14-20.97-7.95-20.97-5.15 0 .58.6.97 1.49.97 3.32 0 9.73 2.23 18.67 6.47 9.67 4.6 15.1 6.54 18.32 6.54 2.34 0 2.41 1.45.23 4.65-2.31 3.41-6.23 5.1-11.77 5.09-5.29-.02-8.23-1.18-12.96-5.11-7.91-6.58-27.62-13.92-26.86-10 .15.78 1.1 1.26 3.13 1.57 6.86 1.05 14.91 4.89 23.15 11.06 2.54 1.91 5.18 3.79 5.85 4.19 1.13.66 1.15.86.26 2.53-1.48 2.76-5.21 4.9-9.25 5.32-5.23.54-9.78-1.02-14.49-4.96-9.94-8.32-19.31-14.34-22.31-14.34-2.45 0-1.35 1.35 2.97 3.64 5.68 3.01 11.52 7.08 15.82 11.03 2.03 1.88 4.32 3.74 5.08 4.15 1.8.96 1.73 2.37-.25 4.96-2.02 2.64-5.36 3.8-9.69 3.34-8.64-.91-15.38-5.08-25.97-16.07-4.14-4.29-7.83-7.8-8.21-7.8-1.41 0-.58 1.91 2.15 4.97 3.38 3.78 4.03 5.91 2.75 8.98-1.13 2.72-3.01 3.35-6.87 2.31-3.95-1.07-4.57-.1-1.98 3.12 3.86 4.81 3.29 10.7-1.44 14.75-1.47 1.25-3.01 2.28-3.43 2.28-.41 0-1.45-1.07-2.32-2.38-3.04-4.62-5.71-4.59-8.67.08-1.03 1.63-1.9 2.95-1.93 2.94-.04-.01-1.43-1.01-3.08-2.23z"/><path d="m726.67 233.03-5.13 4.06-4.6-3.47v27.74l9.73.12zm-31.78-28.78c-1.02 13.11-4.35 22.26-8.98 32.35l11.1-10.29 7.72 9.17 8.36-9.33 8.53 7.88 8.2-8.2 8.52 9.97 7.4-8.2 12.54 9c-4.55-10.09-10.71-18.64-9.94-32.84-12.15 9.03-41.02 10.66-53.45.49zm22.06-6.69c-4.46.08-9.16.14-13.39.97-2.93.58-5.59 1.53-7.81 3.1.36 8.53 41 12.09 51.9.16-2.29-1.67-5.09-2.66-8.17-3.26-4.07-.79-8.57-.87-12.84-.94l.02 7.04-9.71-.03v-7.04zm7.95-43.59-6.31.05v49.38l6.44.03z"/><path d="m724.89 155.24-2.41 23.64 24.32 11.88-12.31-16.46 16.81-5.45zM722.18 149.08c-3.69 0-6.42 1.38-6.42 3.02s2.73 3.03 6.42 3.03 6.4-1.39 6.4-3.03-2.71-3.02-6.4-3.02z"/></g><path d="M711.05 563.82c3.99-1.32 6.26-3.74 7.89-8.4.81-2.32 1.36-4.73 1.22-5.36-.34-1.49-2.06-1.41-3.96.17-1.3 1.09-1.46 1.64-1.09 3.86.95 5.6-1.04 6.99-11.64 8.13-1.05.11-4.09-.07-6.77-.4-5.04-.63-6.84-.13-5.01 1.39.55.46 1.95 1.08 3.11 1.37 2.83.73 13.22.24 16.25-.76zm21.97-.93c.6-.55 2.66-1.5 4.58-2.12 2.56-.82 3.88-1.7 4.96-3.31 3.11-4.63 2.53-8.62-2.04-14-2.48-2.92-3.58-2.84-5.56.4-1.71 2.8-1.67 2.98.79 3.62 1.29.33 2.53 1.28 3.21 2.45 2.68 4.64 1.89 7.51-2.08 7.54-3.6.03-4.59.54-5.56 2.87-.51 1.21-.92 2.5-.92 2.87 0 .98 1.36.81 2.62-.32zm-7.21-5.24c.68-1.84.92-5.15.84-11.9-.05-5.14-.25-9.5-.45-9.7-.6-.6-3.56 1.31-3.95 2.54-.2.64.13 2.12.73 3.28.92 1.79 1.04 3.46.76 10.47-.36 8.86.22 10.35 2.07 5.31zm-16.92-4.22c.36-1.65.82-5.03 1.03-7.5s.72-5.59 1.12-6.94c1.02-3.46-.01-4.37-2.74-2.43l-2.03 1.45.42 4.97c.39 4.48-.32 12.83-1.35 16.07-.28.86.12.64 1.25-.68.91-1.06 1.95-3.29 2.3-4.94zm-15.01 2.41c3.651-3.055 3.232-8.27 4.04-12.52-.083-2.825 1.804-6.212.586-8.683-3.412.624-5.515 3.855-3.768 7.075.145 3.738.013 7.808-1.909 11.113-1.57 2.162-6.542 1.623-6.313-1.441 1.248-4.606-4.272-2.365-6.426-1.157-1.666 1.16-5.183 1.245-3.96-1.657-.807-3.866-5.78-1.448-8.482-1.465-2.552-.047-.211-5.171-3.874-4.271-6.806-.537-14.319.06-20.21-4.052-3.449-1.658-2.937-5.805-1.141-8.489 2.144-3.665 2.755-8.249 6.159-11.093 3.369-3.231-3.178-1.867-4.652-.778-3.282 1.796-.233 6.423-2.919 8.989-1.569 2.661-3.636 6.336-7.27 5.83-5.24-.991-8.26-5.865-12.017-9.132-3.218-.642-1.409 5.222.253 6.454 3.288 2.462 7.129 4.256 11.092 5.319 3.944-.631 4.072 4.534 7.444 5.344 6.187 2.883 13.083 3.747 19.833 4.099 2.651.221 1.16 4.942 4.646 4.01 1.948.505 6.348-.725 6.568 1.538-2.953 3.506 2.834 3.428 4.976 2.8 2.742-.419 6.246-1.467 6.971 2.292 2.289 2.413 6.492 2.057 9.28.676.392-.227.76-.495 1.094-.8zm-59.76-30.27c1.11-1.41 2.77-4.26 3.69-6.34.91-2.09 2.28-4.46 3.03-5.27 1.76-1.9.78-3.07-2.06-2.44-1.5.33-2.11.88-2.36 2.18-.85 4.24-2.39 8.58-3.76 10.6-2.48 3.66-2.54 3.81-1.52 3.81.53 0 1.87-1.14 2.98-2.54zm-37.46-23.48c-2.8 0-2.92 1.77-.19 2.72 1.32.46 2.44 1.57 3.34 3.38 2.66 5.29 4.22 6.23 11.28 6.84l4.53.41.22 2.75c.11 1.52.47 2.78.82 2.78s2.1-.76 3.87-1.66c3.32-1.68 6.47-5.6 6.47-8.03 0-1.59-2.65-3.31-5.06-3.31-1.07 0-3.11.86-4.72 2.03-5.04 3.65-10.43 2.91-13.38-1.84-2.42-3.92-4.95-6.07-7.18-6.07zm24.46 9.75c1.34 0 1.67.99.94 2.88-.5 1.3-2.13 1.34-2.62.06-.58-1.51.23-2.94 1.68-2.94zm189.72-6.15c-1.83.07-2.37.47-3.53 2.19-1.9 2.82-2.09 8.93-.34 11.09 1.09 1.34 1.25 1.37 3.56.41 3.22-1.35 3.76-1.3 3.75.43-.02 4.42-6.36 12.94-13 17.47-1.79 1.22-3.39 2.58-3.56 3.03-.48 1.26 1.98.98 5-.56 4.12-2.1 9.53-7.62 11.75-11.97 1.76-3.47 2.01-4.65 2.22-10.72.19-5.59.04-7.23-.91-9.09-1.06-2.09-1.4-2.28-4.06-2.28-.32 0-.61-.01-.88 0zm.22 3.9c1.38 0 1.62.31 1.78 2.29.14 1.64-.15 2.64-1.06 3.46-1.24 1.12-1.34 1.11-2.44-.56-1.54-2.36-.59-5.19 1.72-5.19zm-30.36 42.68c5.85-2.88 9.3-6.12 11.52-10.81 1.05-2.23 1.91-4.33 1.91-4.69 0-.81-2.88-2.15-4.61-2.15-1.72 0-2.07-1.19-1.33-4.48.72-3.21-.15-7.23-1.56-7.23-.51 0-1.41.75-2.01 1.66-.92 1.41-.97 2.01-.29 4.06 1 3.04.21 5.31-2.51 7.25-1.29.92-2 1.98-2 3.01 0 .87.11 1.58.24 1.58.14 0 1.56-.74 3.16-1.63l2.92-1.63 1.72 1.35c.94.74 1.72 1.95 1.72 2.69 0 3.56-10.15 9.54-17.12 10.1-3.71.3-4.34.17-5.63-1.11-1.05-1.05-1.35-1.93-1.09-3.17l.8-3.84c.64-3.1-.69-2.68-2.99.94-1.89 2.99-2.45 6.18-1.39 7.86.87 1.37 6.65 2.68 10.74 2.43 2.57-.15 5.11-.87 7.8-2.19zm39.04-21.78c3.68-3.67 5.24-8.14 5.26-15.05l.01-5.19 3.04-1.44c3.95-1.88 7.69-5.62 7.69-7.7 0-2.14-.95-2.03-2.67.3-1.25 1.69-2.92 2.71-9.03 5.52-1.54.71-1.64 1.09-1.99 7.55-.41 7.45-1.42 10.24-5.58 15.33-2.55 3.1-2.64 3.51-.87 3.51.73 0 2.59-1.27 4.14-2.83zm-40.08-4.16c.35-1.07-1.68-1.83-2.56-.96-.37.37-.47 1.01-.22 1.42.58.93 2.42.62 2.78-.46zm55.27-14.31c.36-1.07-1.68-1.83-2.55-.96-.38.38-.48 1.02-.23 1.43.58.93 2.42.62 2.78-.47zm-66.52-38.74c-1.43.681-2.171 2.224-3.165 3.403-.715.486-.142.94.27 1.399 2.523 2.717 3.59 6.387 4.788 9.809 1.177 4.04 2.659 8.378 1.428 12.588-.484 1.612-1.753 3.281-3.647 2.746-3.03-.189-6.012-.994-9.051-.962-2.705.141-4.796 2.602-7.561 2.334-1.767.116-1.692-3.618-3.334-2.619-.813 1.947-.413 4.12-.509 6.179.306.295 1.165.038 1.68.124h5.445c.385 1.88.337 4.036 1.688 5.531 1.89.672 4.016.092 5.812-.643 1.926-.896 2.183-3.211 2.727-5.015.579-1.938 3.117-1.43 4.615-2.191 3.665-1.07 6.067-4.879 5.852-8.627-.237-5.722-2.42-11.105-4.076-16.521-.833-2.386-1.41-4.875-2.377-7.204-.113-.2-.346-.369-.584-.329zM759.34 506c2.036-.133 2.921 2.37 2.49 4.029-.762 2.256-3.535.809-4.096-.816-1.03-1.452-.394-3.404 1.606-3.213zm-75.4-18.78c-.91-.02-1.93.32-2.94 1.03-5.31 3.72-6.67 8.12-3.06 9.84 2.65 1.27 1.98 2.76-2.19 4.85-5.97 2.98-11.24 2.61-21.25-1.53-2.46-1.02-3.1-.63-2.53 1.62.55 2.21 2.57 3.42 7.59 4.56 5.4 1.24 11.93.84 16.13-.97 2.05-.88 4.48-2.73 6.53-4.96l3.25-3.57 3.78.47c4.66.57 4.75.62 4.75 2.85 0 1.77.1 1.81 4.38 2.21 2.41.23 5.58.44 7.06.44 1.89.01 2.96.34 3.59 1.22.84 1.17 1.34 1.23 8.38.6 6.58-.6 7.87-.55 10.84.46 2.11.72 4.43 1.01 6.19.82 5.04-.57 11.99-4.69 13-7.72.12-.37 1.95-1.02 4.06-1.44 5.09-1.02 5.31-2.13.56-2.72-2.06-.26-5.15-1.01-6.87-1.69-1.73-.68-4.09-1.25-5.25-1.25-2.56 0-4.97 1.6-4.97 3.25 0 1.08.38 1.19 3.41.88 2.85-.29 3.68-.13 5.18 1.06.99.78 1.65 1.7 1.44 2.03-.67 1.09-6.62 3.8-9.25 4.22-1.76.28-3.18.09-4.56-.62-2.31-1.2-5.71-1.38-6.35-.35-.27.45-1 .16-2-.78l-1.56-1.47-3.53 1.47c-3.59 1.49-4.91 1.43-4.91-.28 0-.78-1.05-.87-6.34-.53-5.83.38-6.44.28-7.53-.94-1.01-1.12-1.03-1.51-.31-2.66.66-1.06.66-1.52.03-2.15s-1.45-.62-3.75 0c-5.8 1.55-7.44.68-7.44-3.85 0-2.72-1.56-4.37-3.56-4.4zm-1.44 4.16c.31 0 .57.19.97.59.51.51.78 1.4.56 1.97-.52 1.35-2.98 1.3-3.5-.06-.25-.66.07-1.4.81-1.94.52-.38.85-.57 1.16-.56zm-10.4 4.22c3.53-2.24 3.45-2.07 3.96-8.29.35-4.39.29-4.72-.9-4.72-1.73 0-2.63 1.9-2.63 5.52 0 2.32-.36 3.36-1.6 4.59-2.94 2.94-10.24 1.6-11.16-2.05-.31-1.25.09-2.38 1.62-4.55 3.19-4.53 2.47-5.64-1.44-2.2-2.69 2.35-3.17 2.42-2.66.39.47-1.87-.51-2.61-2.7-2.06-1.12.28-1.73.98-2 2.34-.26 1.33-.87 2.07-1.93 2.33-1.77.45-4.79-1.23-4.79-2.66 0-1.06 4.52-6.58 10.32-12.6 2.19-2.28 3.98-4.4 3.98-4.72s-1.17-.58-2.6-.58c-2.09 0-2.6.23-2.6 1.2 0 .66-2.92 4.49-6.5 8.52-7.46 8.4-8.08 10.15-4.39 12.39 2.97 1.82 6.78 1.68 9.77-.35l2.42-1.65v2.99c0 3.82.76 5.19 3.76 6.78 3.77 1.99 8.33 1.75 12.07-.62zm156.56-51.91c-2.767 1.652-.602 5.124-.183 7.429-1.13 3.146-5.172 3.993-8.118 4.577-4.174.691-7.131 4.183-8.719 7.892-.86 2.409-2.937 6.144-5.199 2.477-1.967-1.993-5.582-3.573-7.908-1.246-1.767 1.682-2.215 4.157-2.874 6.402-1.043-1.726-1.51-4.297-3.72-4.842-3.528.496-2.253 4.944-.594 6.778 1.508 2.138 2.956 4.958 1.478 7.497-1.303 3.052-5.809 5.11-8.457 2.5-2.472-1.305-.819-5.965-3.254-6.221-1.204.87-1.303 5.746-3.23 3.102-1.391-2.259-.653-5.352-2.355-7.384-2.011.25-3.627 3.712-2.958 5.571 2.683 3.618 3.785 8.156 4.831 12.467.652 1.726-.095 5.227 1.52 5.911 1.12-2.779.079-5.931.96-8.736 2.618-.329 5.53.866 8.276.231 3.929-.51 6.965-3.825 8.342-7.356.416-2.654-.079-5.348-.153-8.017 3.103.481 6.328.471 9.313 1.479 1.48 2.271-.47 5.449-.879 7.93-1.559 5.052-5.516 8.719-9.366 12.097-1.61.953-1.826 3.478.552 2.118 5.173-2.212 9.029-6.897 11.248-11.969 1.619-3.902.317-8.247 1.374-12.238 1.562-2.996 5.322-2.365 8.104-2.355 2.879-.11 5.336-3.464 4.375-6.262-.916-3.247 2.519-4.811 4.866-5.971 3.112-1.57 5.498-4.759 5.257-8.358-.128-1.84-.037-5.332-2.531-5.5zm-11.031 18.75c3.334.886-.603 7.252-2.375 3.219-.545-1.539.75-3.274 2.375-3.219zm-15.47 4.56c4.338-.253 2.781 6.081-.885 3.205-1.901-.954-1.272-3.323.885-3.205zM645.1 491.48c.12-.63-.2-1.08-.77-1.08-1.21 0-1.94 1.06-1.37 1.98.59.95 1.89.41 2.14-.9zm50.84-5.68c0-.93-.35-1.28-1.13-1.13-1.7.32-1.89 2.48-.22 2.48.93 0 1.35-.42 1.35-1.35zm-62.91-30.52c-2.029-.417-3.305 1.3-4 2.938-1.517 2.55-3.37 5.159-6.093 6.509-1.958.544-4.094-.2-5.782-1.21-2.015-1.003-1.557-3.426-2.42-5.101-1.457-1.144-4.041.492-3.983 2.271-.161 2.386 2.071 3.764 3.924 4.687 1.575.964 3.858 1.501 4.487 3.453-.044 1.659.624 3.557 2.644 2.917 2.26-.037 2.845 2.716 1.933 4.367-.929 1.861-1.556 4.042-1.112 6.115 1.08.909 2.183-1.53 2.965-2.227l1.594-2.125c3.998.217 7.993.727 12.001.585 2.851-.052 5.278-1.811 7.091-3.875 2.563-2.68 4.669-5.829 7.597-8.142 2.084-.509.964-4.434-1.212-3.3-1.961.736-2.578 2.951-3.937 4.363-2.315 2.803-4.676 5.647-7.594 7.843-2.125.881-4.571.497-6.753 0-.911-.796 1.809-1.445 2.188-2.33 1.252-1.251 2.739-2.438 3.464-4.081-.694-1.515-2.817-1.637-4.313-1.668-3.686.442-6.501 3.536-10.223 3.828-2.825.099-1.355-2.961-.081-4.005 2.492-2.959 5.184-5.746 7.786-8.607.738-.888 3.409-1.732 1.701-2.98-.597-.215-1.243-.215-1.869-.224zm1.813 14.969c1.859 1.045-1.186 2.757-2.468 2.523-1.682.504-1.712-1.212-.218-1.553.84-.437 1.727-.893 2.686-.97zm-5.719 3.906c1.058-.02 3.275.996 1.193 1.647-1.449 1.123-3.087-1.143-1.193-1.647zm45.026 2.585c0-1.41-2.53-1.21-2.81.22-.18.92.11 1.14 1.29.97.84-.12 1.52-.65 1.52-1.19zm112.05-9.92c.26-1.35-1.62-2.25-2.61-1.26s-.08 2.87 1.26 2.61c.62-.12 1.23-.73 1.35-1.35zm-174.38-13.73c1.76-1.51 1.78-1.61 1.02-4.93-1.08-4.65-1.01-5.15.76-5.59 2.24-.57 7.93 2.48 9.19 4.92.98 1.89.95 2.02-.71 3.56-1.79 1.65-1.78 3.58.01 3.58 1.48 0 5.57-3.87 5.57-5.26 0-1.93-4.54-6.49-8.13-8.16-2.22-1.04-4.44-1.52-7.01-1.53-4.6 0-5.22.99-3.98 6.34 1.46 6.27-.52 7.12-5.57 2.39-3.75-3.51-5.23-7.16-5.21-12.91.01-6.17 2.37-9.22 7.69-9.94 3.53-.47 3.44-1.3-.19-1.84-5.3-.8-9.78 2.74-11.48 9.06-1.89 7.01 2.44 15.55 10.1 19.95 4.01 2.3 5.61 2.37 7.94.36zm208.84-7.69c.43-.43.78-1.4.78-2.15s.73-2.36 1.62-3.57c.9-1.21 1.63-2.45 1.63-2.75 0-1.23-2.03-1.19-3.63.08-1.64 1.28-2.87 1.31-2.87.06 0-.31.78-.95 1.74-1.42 2.38-1.16 2.58-2.31.57-3.23-2.58-1.17-5.17.97-5.44 4.5-.17 2.36.02 2.77 1.84 3.84 1.66.98 1.97 1.5 1.69 2.9-.48 2.43.53 3.28 2.07 1.74zm19.63-2.22c1.44-1.29 2.61-2.76 2.61-3.25s1.24-1.79 2.76-2.88c4.31-3.1 5.26-6.23 3.33-11.04-.75-1.89-3.11-4.5-8.24-9.12-3.94-3.56-7.57-6.47-8.04-6.47-1.4 0-1.15 5.15.27 5.6 2.56.82 4.11 1.87 8.14 5.5 4.68 4.23 6.84 8.18 5.66 10.38-1.13 2.13-2.63 1.47-6.76-2.96-2.17-2.33-4.32-4.23-4.76-4.23-.48.01-.82.85-.82 2.03 0 1.48.79 2.89 2.93 5.27 3.49 3.88 3.83 6.21 1.21 8.27-.94.74-1.91 1.35-2.15 1.35-.23 0-1-1.16-1.7-2.57-1.46-2.96-10.39-12.39-11.73-12.39-.61 0-.91.76-.91 2.26 0 1.81.36 2.45 1.8 3.19 1.77.92 6.15 5.33 10.55 10.65 1.26 1.52 2.5 2.75 2.77 2.76.26 0 1.65-1.06 3.08-2.35zm8.76-25.07c-.58-1.87-12.56-14.2-13.79-14.2-.64 0-.84.76-.69 2.72.17 2.38.43 2.79 2.07 3.22 1.02.27 4.18 2.75 7.01 5.5 2.82 2.75 5.3 4.84 5.5 4.63.2-.2.16-1.04-.1-1.87zM777.5 556.89a1.781 1.632 0 1 1-3.561 0 1.781 1.632 0 1 1 3.561 0zm6.29-2.1a1.781 1.632 0 1 1-3.561 0 1.781 1.632 0 1 1 3.561 0z" class="B"/><g class="C"><path d="m777.156 478.168.25 1.035.544 2.248.486 2.121.663 2.74.354 2.033.044 2.342 1.061-1.679-.309-2.784-1.679-6.187z"/><path d="m785.25 488.25-1.156-.375-.812-.437-.531-.687-.625-1.125-.531-1.281-.406-1.25-.359-1.391-.172-1.391-.132-1.358-.066-1.138-2.154 3.105 1.945 7.999zm-4.184-11.284.287-.028.42.232.475.508-.044-.895-1.138.039zm14.584-5.768.453 1.028.265.552 2.163.534-.812-.937-.469-.906-.312-1.437.063-1.469.5-3-2.344 3.844z"/></g><g class="B"><path d="m747.942 503.151-1.503-2.497.464-.575 2.254 2.121z"/><path d="m747.136 499.704 1.978 2.32-1.363 1.883-1.344-3.469z"/></g><g class="C"><path d="m658.018 485.451-.541.619-.486.751-.265.597-.464 1.127-.199 1.237-.331-2.607.386-.495.152-.23.39-.424.21-.287.177-.354.099-.442.044-.199z"/><path d="m654.847 487.484.862-.862.464-.685.663-.906.376-1.149.11-1.171.265 2.188-1.9 2.674z"/><path d="m656.261 490.312.088-1.149.265-.95.464-.818.641-.994.84-.95 2.055-2.232-1.635.486-3.138 3.094zm19.556-.375-.442 2.21-.354.928-1.149 1.237-1.503 1.193-2.166 1.591 3.182-.354 1.37-1.9 1.061-1.812zm-48.624-12.087-.619-.243-.563-.298-.563-.398-.398-.486-.453-.729-.221-.84-.243-.917-.033-.044-2.839 8.132 1.105.972 1.414.155 3.005-3.779zm-5.414-6.121-.63.077-.243-.033c-.044-.011-.398-.155-.398-.155l-.199-.155-.265-.287-.188-.32-.166-.387-.066-.287-.11-.442-.122-.298-.066-.232-.088-.309-.133-.287-.088-.177-.11-.066-.563.508.144 1.315.442 1.458.939.552 1.149.055.276-.243z"/><path d="m622.703 471.891-.953-.453-.469-.359-.516-.359-.266-.344-.375-.531-.281-.437-.391-.484-.203-.359-.25-.375-.234-.328-.234-.187-.547-.453-.531 2.109 1.047 2.938 1.047.563 3.047-.922z"/></g><path d="m747.406 499.188 1.875 3.063-1.406 1.75-1.437-3.062z" class="B"/><g class="C"><path d="m751.094 508.5-1.375-.469-.5-.375-.406-.469-.312-.344-.312-.5-.125-.25-.375-.844-.25-1.219-1.281.688-.406 3.844 2.531.469zm-31.392-7.537 2.563-.155-.376-1.436z"/><path d="m719.26 501.118 2.983-.287-2.364-1.414zm-120.229 5.913-.686-1.472-.066-.575v-1.038l.088-.663.066-.42.133-.486-1.613-.464-3.204.707.575 1.812 2.674.994z"/><path d="m596.34 501.742-2.326.133.376.729 1.387.282.928-.906zm19.277 13.696.405.883.442.707.398.221.619.354.442.133.663.177.619.088 1.679.044h1.9l1.061.133-8.176 4.64z"/></g><path d="m616.465 517.017.232.431.199.166.453.221.586.188.619.144 1.536.166.751-.022 1.138-.144.541-.122z" class="B"/><path d="m599.125 507.078-.234-.703-.031-.484v-.359l.031-.328.016-.187.078-.219.219-.578.094-.266.172-.297.234-.375.109-.156-1.141-.969-.625.344-.312 1.547.188 2.141zm135.161 55.028-.84.298-.497.066-.42.022-.287-.044-.464-.166-.232-.199-.066-.199-.066-.486-.033-.398v-.586l.21-.829-1.9 4.154 1.26.928z" class="C"/><path d="m832.64 497.184.309.707.133.597.11.773-.11.685-.133.707-.331.795-.575 1.083-.619.95 2.204 1.28 1.77-2.387.247-.616.144-.685.11-.53-.022-.475-.077-.409-.099-.53-.254-.906-.309-.552-.243-.442-.207-.264-.207-.121-.168-.086-.219-.059-.125-.039-.195-.035-.199-.016-.129.019-.148.031-.187.063-.23.113-.125.109-.07.109z" class="B"/><g class="C"><path d="m836.469 441.625-.328.234-.391.266-.57.391-.711.484-.937-1.086 1.547-2.258z"/><path d="m836.85 441.461-.276.188-.403.282-.32.188-.42.199.088-.668 1.127-.398z"/><path d="m838.18 440.578-3.625 2.484-.172-.25 3.781-2.391z"/></g><path d="m833.613 441.782.166.099.11.044.133.039.127.028.281.009.336-.031.266-.039.281-.055.461-.102.109-.023-.836-2.07zm-1.801 60.982.376-.519.398-.773.155-.409.11-.276.077-.276.044-.298.033-.254.022-.331v-.32l-.044-.331-.069-.271-.172-.523-.141-.422-.125-.305-.328-.664-.32-.641-.211-.32-.198-.262-.127-.188-.05-.072-.116-.127.077-.061.204-.039.26-.022.238.021.277.043.461.102.313.07.371.102.254.109.16.066 1.008 1.484-.541 5.919-1.69 1.26z" class="B"/><g class="C"><path d="m831.266 495.34-.203-.387-.168.109.289.238z"/><path d="m831.148 495.145.258-.043.102.004.102.012.137.023.203.035.234.059 1.695.457-.059-.328-2.837-.643z"/><path d="m831.845 496.179-.657-1.177-.193.094zm2.487.239.523.844.09.176.328.695.094.297.078.328.078.43.078.547.055.367.008.344-.023.469-.086.563-.078.508-.117.422-.234.461.633-.016.539-2.664-.391-1.484-.359-.812-.234-.5-.406-.672zm-42.925 38.552.619.552.199.199.177.331.066.243.066.663-.066 1.436-.044.729-.265 1.591-.11.84-.331 1.193 3.58-4.618-.022-2.055-1.171-1.503-1.591.287zm-59.938 26.831.035.184.055.113.082.063.094.07.07.035.098.031.148.039.133.039.172.027.145.016.211-.008.238-.008.195-.023.281-.055.266-.055.207-.047.371-.113.125-.055.063-.023.031.117-.25.488-.969.211-1.406-.039-.687-.496-.051-.504zm-7.635-15.274-.155-11.557-3.226 1.061 1.679 7.248z"/></g><g class="B"><path d="m633.082 535.879 1.215.23.102.004.105-.008.102-.027.203-.059.211-.125-1.73-.238z"/><path d="m633.048 535.876 1.135.284.063.004h.129l.039-.008.082-.035.359-.121-1.133-.289z"/></g><path d="m634.48 536.125-.078.027-.082.008h-.137l-.098-.008.055.133.277-.012zm7.573-10.568L647 515.5l-4.875 2.125-.625 3.5zm4.287-3.69 2.563-5.104 1.149.641-.994 3.337-2.364 1.635z" class="C"/><g class="B"><path d="m642.059 525.551-1.309 2.315.818.309.431-1.525zm-7.871 10.605 2.094.477-1.695-.891zm-17.497-18.718.259.253.088.088.265.166.331.155.298.077.342.077.586.099.795.077h1.105l.541-.077.773-.166.431-.155-1.359-.74-2.166.453-1.956-.276z"/><path d="m622.516 518.039-.445.172-.605.164-.117.023-.234.035h-.477l.285-.27.66-.051z"/></g><path d="m616.437 516.978.166.282.072.099.099.099.138.127.232.182.232.149.249.127.282.11.155.044.298.055.625.097.254.027.258.019.363.004H620.809l.203-.004.148-.023.199-.031.227-.059.348-.094.383-.137.238-.086.164-.09.113-.07-.047.266-.227.277-1.121.3c-.035-.007-1.211 0-1.211 0l-2.226.011-1.005-.243-.652-.652zm-17.171-9.763-.117-.301-.07-.219-.031-.258-.008-.258-.008-.297.047-.359.055-.328.041-.2.05-.271.094-.276.099-.348.144-.376.066-.21.133-.326-.221-.061-1.204 2.32.055 1.425zm237.898-97.145-3.286-2.445-.442 1.547 2.121 1.039 1.392.022zm-3.644 31.59.121.07.117.039.285.07.109.019.234.023.355-.023.285-.043.453-.078.211-.051.059-.016.059-.016-.895-2.25.75 1.234.367 1.133-.695.516-1.328.164zm-9.161-9.269-4.031-3.437-.531 1.813 3.094 2.906 1.578-.406z" class="C"/><g class="B"><path d="m720.148 501.043.242-.215.156-.105.113-.059.121-.035.141-.008.156.019.168.047.211.078.105.074.094.074.016.176-.523.176-.98.019z"/><path d="m720.387 500.832-5.148 2.319 4.618-.088z"/></g><g class="C"><path d="M698.297 499.391 696.188 495l2.156-.969 1.875 1.219-.125 3.656z"/><path d="m691.981 496.102 4.707-.53-.884-1.447-3.834 1.16z"/><path d="m691.883 496.117 5.195-.414-.687-.633-3.586.648z"/><path d="m698.301 499.383-2.364-4.852 2.188 1.625.156 3.094zm18.027 3.211 3.781-1.484.344-.129.141-.031.18-.031h.305l.23.027.105.055.227.172 1.569 1.366.182.16.177.155.133.094.155.066.287.077h.276l.298-.155-3.447-2.491-1.911.21z"/></g><path d="m664.006 549.45 2.42.022-1.508-.696z" class="B"/><path d="m653.766 469.609 3.672-4.406-1.766.469-1.203 1.625z" class="C"/><path d="m750.453 508.273-.453-.102-.262-.082-.191-.129-.242-.184-.195-.172-.344-.398-.285-.371-.215-.332-.363-.656-.258-.586-.043-.125-.031-.125-.004-.102.122-1.257.563.635 2.202 3.211z" class="B"/><g class="C"><path d="m796.188 472.391.188 1.172.031 1.094.105 2.773-.133 1.016-.088 1.37-.309 1.635-.309.884-.84 1.458-2.254 2.696 4.066-1.326 1.503-3.624-.177-3.889zm-10.844 15.89-1.25-.687-.906-.656-.781-1.156-.406-.875-.656-1.656-.594-1.937-.156-3.906-.625 1.594.438 5.313 2.094 4.125z"/><path d="m780.922 481.969-.078-.5v-.594l.109-.844.234-1.375.281-.844.459-.847-1.989-.331-.243 1.724.84 2.696zm4.242 1.797-1.023-.656-.414-.422-.18-.273.852-.211c.031 0 .703.969.703.969l.125.57z"/><path d="m785.872 488.29-.685-.099-.685-.354-.718-.442-.685-.53-.784-1.304-.464-1.016-.762-1.945-.166-.944-.031-.672.094-1.406-1.203 1.641 2.719 6.844zm6.176-14.042-2.563-4.773-1.326 1.547 2.718 2.563 1.061.464zm-.42-7.823.707.088.508.354.354.243.928 1.26.729 1.591.486.95.42.95.331.641.133.773.022.287V476.744l-.022 1.105V480.036l-.199 1.326-1.679 3.094-2.21 2.033 5.207-2.646 1.031-4.844-1.5-6-2.562-6z"/><path d="m795.844 471.969.313 1.813.063.781.063 3.719-.187 2.281-.281 1.125-.187.625-2.351 3.304 2.188.011 4.194-4.44-2.924-9.503zm-2.449-4.598-.191-.223-.18-.148-.371-.266-.207-.09c-.023-.012-.34-.129-.34-.129l-.402-.09-.266.066-.172.019.199-.562c.023-.004 1.156-.023 1.156-.023l.258.57a279.66 279.66 0 0 0 .527.898z"/><path d="m791.598 466.438.227.027-.062-.168-.207.063zm4.027 5.156.359 1 .109.594.453-1.391-.25-.75zm-13.848 5.594.699.781.109.766.5-.477-.656-1.117z"/><path d="m782.176 477.613.199.406a4.56 4.56 0 0 0 .094.254l-.043-.73zm14.07-.449-.371-2.414v-.5l-.187-.625-.25-.75-.187-.781-.594-1.594-.719-1.344-.375-.937-.812-1.469-.312-.781 3.406 1.375 1.25 8.125z"/><path d="m795.875 474.797-.594-2.203-.656-1.844-.687-1.5-.531-1-.406-.844-.625-1.375 3.906 4.906.688 4.344z"/><path d="m792.711 466.735 2.696 5.812.575 2.74.331-2.188-1.503-4.442-2.011-1.9zm5.773 6.281-.297-.328-.219-.219-.219-.344-.156-.25-.25-.906-.125-.719-.125-.812.125-1.312.281-1.75.344-.844 1.719-1.656h-3.125l-.875 4.125 1.125 5.531z"/><path d="m798.556 473.032-.42-.365-.376-.53-.199-.365-.232-1.005-.177-1.171-.011-.298.238-1.348.418-1.466 1.258-2.195-2.039 1.617-.391 6.781z"/></g><path d="m747.57 505.008-2.258-4.509 1.679-1.304 3.536 5.237-1.547 1.083z" class="B"/><g class="C"><path d="m832.813 440.891.547.266.516.094.547.031h.391l.422-.016h.125l-.125-.391-.141-.547-.125-.328-.469-1.437 1.594 2.266.031 1.141-1.391.578-2.25-.141z"/><path d="m832.852 440.887.281.125.227.066.203.035.785.09h.867l.055-.012-.645-2.164-.094-.262-.09-.289 1.304 2.228-.265 1.149-1.547.608zm-205.668 36.957.86.183-1.16.354zm6.074-19.418 2.63-3.315.829 2.74-2.685 2.033z"/><path d="m631.305 455.391 4.563-.016-4.523-.398zm28.381 52.201-1.936-1.092-1.687-.812-.625-.625-.875-1-.875-1.062-.812-1.062-1.187-1.875-1.625 4.375 4 2.938 5.313.375z"/><path d="m659.896 507.658-4.121-2.199.166 1.039 3.69 1.768zm-6.146-4.564-1.633-2.586-.078.586 1.367 2.453z"/><path d="m655.532 505.316 6.342 3.027-2.188.597-4.795-1.37z"/><path d="m655.922 505.516-2.125-2.398-.234-.391-.87-1.41-.404-.778-.41.121.785 1.738.469.469.676 2.67z"/><path d="m654.152 503.52-.594-.77-.258.43.285.668z"/></g><path d="m791.413 534.982.238.155.293.199.122.122.094.127.138.215.105.265.075.244.051.332v.141l.008.313-.045 1.677-.193 1.271-.088.53-.083.497-.116.784-.033.122-.033.149-.127.304-.497.718.144-1.188z" class="B"/></svg>