<svg xmlns="http://www.w3.org/2000/svg" width="375" height="250" viewBox="0 0 900 600"><path fill="#005430" d="M0 600h900V0H0z"/><path fill="#fff" d="M675 238.324c-.063-10.54-4.152-38.931-5.19-48.455-1.036-9.525-2.08-18.165-1.828-20.189.247-1.952 3.252 2.715 4.84 3.092.822-.164.455-3.112-1.038-5.63-1.01-1.709-4.456-8.1-6.546-11.846-.983-1.773-1.203-2.8-1.676-3.019-.471-.217-4.276 7.458-3.86 8.31 1.038 1.56 1.75 2.304 1.912 5.059.164 2.755 1.589 22.427 3.405 37.338 1.367 11.249 4.366 35.484 4.473 50.552.03 4.915-.515 9.6-1.17 11.558-1.679 3.074-4.303 5.847-14.076 11.565-10.986 6.43-25.643 11.781-31.943 15.362-3.917 2.234-2.619 2.532.792 1.555 3.401-.978 20.992-4.11 29.538-7.721 8.022-3.399 13.23-9.084 17.182-17.378 4.881-10.254 5.253-18.955 5.185-30.153M640.988 158.261c.849-.329 7.88-.691 9.773-.301-1.244 1.778-9.675 5.713-9.71 6.435.23.486 5.823-.9 7.587-1.67 1.153-.693 1.923-1.767 2.777-2.658 2.016-2.32 4.407-6.622 3.805-7.162-.978-.871-10.562-.329-11.825-.15-.846.122-2.994 3.972-3.388 4.96-.386.987.131.875.98.546"/><path fill="#fff" d="M655.35 220.733a29.577 29.577 0 0 0-.167-17.325c-2.049-6.526-7.138-10.504-10.808-12.543l-.655 6.283s5.147 2.558 8.666 8.998c2.23 4.085 3.158 9.861 1.397 16.3-.293 1.599.85.718 1.567-1.714M600.9 252.24a26.66 26.66 0 0 0-.148-15.6c-1.846-5.877-6.429-9.46-9.735-11.29l-.591 5.656s4.634 2.304 7.803 8.098c2.01 3.675 2.844 8.884 1.263 14.68-.263 1.434.764.644 1.408-1.544M411.862 166.691c2.12 3.877 3 9.368 1.332 15.483-.28 1.517.8.684 1.487-1.625a28.143 28.143 0 0 0-.164-16.459c-1.948-6.201-6.782-9.977-10.27-11.91l-.615 5.967s4.889 2.428 8.23 8.544M284.25 168.698c1.78 4.173 1.9 9.808-.975 15.744-.559 1.491.802.785 1.945-1.446 2.333-4.561 3.643-10.27 2.46-16.575-1.214-6.483-6.084-10.902-9.73-13.295l-1.654 5.923s5.146 3.07 7.954 9.648"/><path fill="#fff" d="M319.526 261.983c2.263-4.2 3.205-7.025 4.21-12 .88-4.375.937-9.43.62-14.576 6.77-2.76 14.84-7.341 17.551-7.678-1.854 6.367 2.572 13.237 11.513 12.34.684 7.2 1.27 13.524 1.627 17.274.728 7.689.619 17.378.597 19.062-.03 1.691 1.194 1.372 2.451-2.396 1.676-5.045 2.194-18.218 1.586-26.93-.145-2.178-.392-5.118-.69-8.468 5.796-2.682 6.76-7.858 8.926-10.064 1.956 6.85 12.72 7.78 16.043 6.313 4.12-1.82 5.47-5.095 6.53-12.695 1.063-7.597-2.032-10.656-3.139-11.484-.11.92-2.805 9.848-2.805 9.848s2.556 2.7 2.685 4.027c-2.082 1.884-6.473 2-10.16.8-3.69-1.2-4.82-3.408-4.601-4.89.213-1.486 1.602-2.839 1.649-4.65.04-1.81-.827-1.286-2.304.317-1.476 1.606-2.43 3.05-4.473 6.496-1.67 2.818-4.382 6.257-9.165 7.24-.789-8.276-1.69-17.081-2.292-22.612-.315-2.92-3.462-28.153-3.687-30.976-.195-2.46-.559-5.359-.499-6.721.06-1.084.74-.654 1.792.48 1.054 1.133 2.898 3.108 3.215 2.954 1.074-.527-.024-3.807-1.43-6.744-1.402-2.945-6.19-14.564-7.195-15.043-.518-.243-3.75 6.909-3.941 8.317.5.88 1.81 2.266 1.857 6.207.016 1.099.723 11.461 1.703 21.26.858 8.652 1.994 16.863 2.104 17.817.78 6.605 1.728 15.914 2.63 25.066-5.191-.988-6.572-4.411-6.457-6.364.132-2.203 1.126-4.69.65-5.252-1-.6-6.95 2.725-15.246 6.298a156.799 156.799 0 0 1-7.738 3.1c-.723-6.238-1.676-12.169-2.06-16.704l-.046-.504c5.456-.352 9.923-3.107 11.956-5.73 2.539-3.28 4.314-10.03 4.486-15.2.173-5.177-4.004-14.64-4.998-17.649-1.003-3.01-1.52-5.098-1.608-6.138-.09-1.041 2.257 1.205 3.733 1.646 1 .2.655-1.966-.567-3.452-1.213-1.482-7.776-11.441-8.236-10.743-.282.41-2.912 7.737-3.084 8.859 1.035.684 2.246 2.568 2.33 4.373.088 1.806 1.534 9.745 3.137 14.157 1.608 4.411 5.031 12.874 5.248 15.202-2.446 1.724-8.015 4.644-13.523 4.47-.942-7.72-2.137-16.684-2.775-23.033-.246-2.454-.263-5.072-.224-6.44.03-1.084.81-.934 1.884.18 1.08 1.114 2.734 2.735 3.073 2.618.74-.245.099-2.704-1.366-5.624s-7.29-15.27-8.31-15.731c-.518-.236-3.126 6.7-3.29 8.116.52.876 1.854 2.231 1.985 6.171.105 3.138 1.633 18.515 2.942 32.058-5.45-2.818-7.31-6.847-7.984-13.611-.471-4.716-.518-13.402-2.2-20.668-.947-4.107-2.944-8.28-5.31-10.496-.565 1.365-3.085 9.744-3.085 9.744.822 2.406 3.377 10.507 3.29 17.527-.085 7.02-.638 13.883-8.505 18.61-7.861 4.731-19.653 2.85-22.565-4.53-2.911-7.384 3.561-25.899 3.476-30.27-.087-4.37-.868-4.973-2.695-4.251-1.824.721-5.558 4.935-8.773 11.79-3.216 6.86-4.646 15.357-6.473 21.133-1.821 5.777-4.738 11.63-9.252 11.305-4.514-.319-6.944-4.45-8.333-10.423-1.391-5.98-.54-13.853-.161-15.87.942-5.056-1.24-4.02-2.578 3.917-.827 4.895-1.649 12.712 1.263 20.895 2.906 8.182 7.861 11.233 12.203 10.188 4.344-1.041 8.162-11.23 9.51-15.805 1.345-4.569 7.362-24.86 10.77-25.859.476 2.287-2.649 9.659-3.649 18.282-.997 8.623 1.329 20.206 12.274 22.21 10.945 2.005 18.371-5.094 21.064-10.022 2.695-4.935 3.952-10.11 4.256-12.715.35 6.615 4.865 16.944 13.633 19.89l.903.26c.54 5.415 1.42 12.483 2.227 19.905a82.861 82.861 0 0 1-5.144 1.413c-.219-.711-.46-1.408-.753-2.048-2.676-5.757-7.105-11.062-13.243-10.695-6.27.372-13.107 8.74-12.808 14.85.197 4.11 2.46 7.484 10.688 8.347 3.758.398 7.748-.02 11.87-.92.581 1.7.948 3.39.99 4.929-2.608 3.049-24.184 19.322-40.339 20.887-16.155 1.563-21.082-6.906-21.244-15.407-.12-6.468 3.769-12.923 6.502-17.39 3.912-2.862 7.122-6.44 9.149-9.2.55.34 1.074.653 1.572.944 1.931 1.122 2.701 2.799 2.701 2.799.356-.547 2.016-3.536 1.367-4.997-.299-.36-1.759-1.258-3.514-2.325 1.843-4.593 1.818-9.18-.57-10.2-2.67-1.137-6.158 2.023-7.661 3.95a5.12 5.12 0 0 0-1.085 3.095c-.011 1.228.567 2.337 1.997 3.325 1.424.973 2.747 1.854 3.99 2.649-3.53 3.707-11.873 9.14-16.979 12.33-.189-.468-.937.026-1.942 1.21l-1.383.854c-4.073 2.492-13.84 7.965-15.76 9.304-1.924 1.343-.718 1.1 0 .8 1.355-.731 3.135-1.618 5.135-2.595 2.832-1.385 6.127-2.953 9.348-4.526a47.64 47.64 0 0 0-2.813 5.567c-3.843 9.073-10.055 27.879 3.383 39.194 12.857 10.831 34.956 6.71 53.283-4.546 18.33-11.259 22.288-15.217 25.153-19.31m-59.755-44.732c-.636-.469-.724-1.094-.206-1.53.66-.562 1.504-1.094 2.463-1.273 2.032-.378 2.843 1.957 2.027 5.594-1.545-.945-3.134-1.938-4.284-2.791m42.039 15.339c-9.332.043-9.762-1.651-9.587-2.735.173-1.079 3.079-4.04 6.766-2.087 1.558.828 3.314 2.56 4.938 4.736-.717.053-1.424.08-2.117.086m-28.582 49.075c-17.632 4.812-34.83-2.643-35.871-17.405-.797-11.272 3.314-19.765 5.965-24.552 2.529-1.25 4.917-2.466 6.892-3.555-4.615 7.433-7.316 17.387-5.511 25.82 2.043 9.553 10.354 15.344 24.424 13.475 13.931-1.846 32.768-15.095 38.109-20.092 1.627-1.803 2.7-3.429 4.163-6.741.603-1.36 1.45-3.155 1.764-5.184.206-1.322.315-2.735.34-4.173a102.378 102.378 0 0 0 4.933-1.624c.562 6.048.975 12.01 1 17.165-8.68 10.18-28.577 22.052-46.208 26.866M581.625 242.955c-.597-9.876-2.038-27.753-2.843-36.821-.712-8.071-2.112-19.133-3.136-28.87a52.124 52.124 0 0 1-.258-6.164c.03-1.078 1.11-.663 2.189.446s2.766 2.502 3.084 2.332c1.054-.547-.208-3.251-1.69-6.161-1.482-2.915-7.357-14.972-8.379-15.43-.52-.233-3.273 6.99-3.432 8.405.526.871 1.87 2.221 2.016 6.161.148 3.943 2.14 22.07 3.577 36.73.997 10.191 2.285 26.819 3.221 39.357-.046.02.885 11.92.986 13.257.576 7.699.277 17.385.22 19.067-.064 1.689 1.172 1.395 2.498-2.353 1.35-3.827 2.12-12.37 2.224-20.085zM531.563 208.38c-1.808.552-4.646-1.36-4.43-5.369.198-3.621 1.748-7.012 2.345-9.152.822-2.953.827-5.8.132-4.186-1.567 3.606-4.484 10.578-5.087 15.309-.605 4.73.929 7.78 3.013 8.82 2.597 1.304 4.467-.765 5.733-3.814 1.216-2.92.986-6.328.142-5.526-.706.839-.97 3.647-1.848 3.918M505.575 222.953c.959-2.548 1.183-5.045.446-3.675-1.662 3.07-4.776 9-5.689 13.12-.909 4.12.195 6.909 1.948 7.965 2.186 1.322 3.985-.372 5.347-2.968 1.3-2.484 1.366-5.5.567-4.847-.69.689-1.148 3.137-1.937 3.317-1.64.362-3.98-1.512-3.473-5.027.46-3.165 2.095-6.044 2.791-7.886M429.9 276.698c1.602-2.601 2.4-5.298 1.287-3.936-2.481 3.044-7.179 8.952-9.074 13.285-1.89 4.333-1.288 7.587.397 9.069 2.1 1.848 4.443.329 6.489-2.252 1.964-2.474 2.698-5.756 1.67-5.196-.9.63-1.93 3.221-2.837 3.27-1.865.09-4.018-2.394-2.698-6.137 1.194-3.378 3.607-6.22 4.766-8.103M562.575 200.798c-1.838.46-4.555-1.598-4.1-5.592.413-3.604 2.169-6.908 2.89-9.01 1.002-2.91 1.174-5.749.383-4.179-1.775 3.525-5.106 10.332-5.996 15.027-.89 4.693.455 7.815 2.476 8.963 2.52 1.428 4.503-.537 5.955-3.52 1.389-2.852 1.367-6.266.471-5.506-.753.805-1.183 3.594-2.079 3.817M562.013 249.791c2.514 1.429 4.508-.537 5.954-3.52 1.386-2.851 1.367-6.265.477-5.505-.759.8-1.189 3.593-2.085 3.816-1.838.458-4.56-1.598-4.1-5.591.414-3.604 2.167-6.911 2.89-9.01 1-2.91 1.172-5.754.383-4.18-1.78 3.526-5.105 10.333-5.996 15.023-.89 4.698.455 7.82 2.477 8.967M594.15 187.208c1.21-3.52 1.419-6.957.46-5.055-2.153 4.264-6.18 12.5-7.258 18.185-1.074 5.68.556 9.456 3.002 10.846 3.043 1.727 5.45-.65 7.206-4.257 1.674-3.451 1.65-7.587.57-6.662-.912.97-1.435 4.343-2.52 4.614-2.219.557-5.514-1.933-4.958-6.764.501-4.361 2.624-8.36 3.498-10.907"/><path fill="#fff" d="M337.32 248.093c1.98-4.29 2.698-8.585 1.24-6.299-3.261 5.118-9.405 15.028-11.503 22.048-2.101 7.022-.545 11.955 2.344 13.978 3.605 2.513 6.944-.212 9.62-4.545 2.561-4.156 3.07-9.36 1.594-8.32-1.274 1.115-2.375 5.304-3.772 5.524-2.87.45-6.683-3.049-5.352-9.063 1.205-5.427 4.4-10.219 5.829-13.323M614.625 290.625c1.517-1.243 14.714-8.352 17.144-9.795 0 0 2.484-4.052 1.74-4.483-.749-.43-5.567 3.95-8.563 4.072-3 .122-7.105-2.081-7.237-3.887.39-1.362 3.997-3.409 5.3-3.492 1.304-.076 1.093 2.892 1.529 3.254.435.357 2.17-2.049 2.388-3.051.214-1 .036-5.19-2.35-4.59-3.777.956-9.474 7.96-10.124 10.163-.654 2.209 2.866 4.13 5.435 5.177-.22.08-2.137 1.002-3.35 2.203 0 0-1.304 1.461-1.912 4.429M569.625 299.43c1.517-1.243 14.714-8.347 17.144-9.795 0 0 2.49-4.052 1.74-4.483-.749-.43-5.567 3.95-8.563 4.072-3 .122-7.105-2.081-7.237-3.887.39-1.362 3.997-3.409 5.3-3.487 1.304-.081 1.093 2.884 1.529 3.244.435.362 2.17-2.044 2.388-3.046.214-1 .03-5.19-2.35-4.59-3.777.96-9.474 7.96-10.124 10.168-.654 2.204 2.866 4.126 5.43 5.172-.214.08-2.132 1-3.345 2.203 0 0-1.304 1.461-1.912 4.429M468.263 172.02c1.183 1.375 8.934 11.224 15.007 17.415 6.07 6.197 16.475 16.226 24.12 23.099a294.932 294.932 0 0 1 4.646 4.277c1.928 14.804 4.158 33.643 5.094 41.433.923 7.67 1.06 17.357 1.08 19.043.016 1.69 1.232 1.345 2.388-2.446 1.55-5.088 1.728-18.261.907-26.963-.51-5.373-1.712-15.44-2.876-24.721 4.514 4.46 8.778 8.884 11.652 12.196 5.283 6.08 9.729 10.667 12.438 17.203 1.917 4.624 1.723 8.304 2.509 9.03.68.628 1.43-4.905.591-10.271-1.358-8.714-3.22-12.409-14.407-24.85-4.268-4.757-9.291-9.728-14.202-14.375-.19-1.433-.362-2.76-.518-3.938-.389-2.91-4.18-28.066-4.478-30.885-.255-2.454-.702-5.343-.666-6.708.027-1.087.718-.664 1.802.446 1.08 1.106 2.97 3.043 3.29 2.874 1.057-.547-.12-3.796-1.602-6.711-1.477-2.91-6.563-14.422-7.585-14.878-.518-.233-3.566 6.987-3.722 8.4.528.871 1.87 2.229 2.016 6.164.04 1.099 1.016 11.446 2.24 21.216 1.085 8.633 2.427 16.82 2.567 17.768l.005.073c-5.064-4.619-9.526-8.542-12.232-11.006-6.328-5.75-20.302-19.398-20.864-21.442-.126-.645.959-.248 2.953.071 2.002.322 3.782 1.003 3.462.02-.145-.463-.912-1.607-2.821-2.788-1.912-1.182-6.81-4.246-10.453-6.414-3.65-2.165-5.459-3.981-6.212-3.462-.372.256-.04 7.673.178 8.598.912.078 2.515 1.152 3.692 2.532"/><path fill="#fff" d="M478.237 158.681c1.499-.329 8.598-.15 11.176.393-1.08.75-8.343 4.419-9.779 5.293-1.427.876-1.788 1.382-1.07 1.296 2.081-.577 6.773-1.296 9.022-2.469 2.12-.993 5.733-5.835 7.138-7.64 1.397-1.806 1.397-2.707 1.04-3.191-1.434-.78-10.687-1.563-15.149-.456-1.235.838-3.651 5.303-4.007 6.232-.356.935.131.871 1.63.542M517.725 158.1c1.21-.266 6.933-.122 9.006.314-.868.605-6.719 3.563-7.875 4.272-1.158.702-1.446 1.112-.868 1.041 1.679-.46 5.462-1.04 7.272-1.99 1.707-.8 4.618-4.703 5.75-6.154 1.125-1.459 1.125-2.183.838-2.57-1.15-.636-8.61-1.264-12.206-.37-.997.673-2.939 4.272-3.226 5.021-.293.75.104.702 1.309.436M549.825 157.688c1.205-.266 6.927-.122 9 .314-.862.605-6.716 3.563-7.874 4.267-1.153.706-1.441 1.116-.863 1.046 1.679-.461 5.755-1.046 7.565-1.991 1.71-.8 3.734-4.703 4.865-6.159 1.131-1.453 1.131-2.183.838-2.565-1.15-.636-8.023-1.264-11.614-.375-.997.679-2.944 4.277-3.232 5.027s.104.701 1.315.435M529.8 173.321c-1.9 2.994.482 5.41 1.35 7.828-1.172 1.071-2.974.094-3.577-.846-1.282-1.927-.852-5.855-2.361-6.46-.386 1.061-.638 2.239-.638 2.239s1.148 2.686.86 4.464c-.184 1.074-1.131 2.328-2.383 2.353-3.336.08-1.693-4.857-2.98-7.656-.263.684-.452 1.419-.759 2.06.236.729.364 1.752.403 2.342.076 1.172-.017 2.436.183 3.436.277 1.416 1.063 2.355 2.263 2.446 2.492.198 3.629-1.82 4.004-3.477.43 1.69 3.725 3.55 5.347 1.477 2.147-2.735.43-5.078-.671-7.65-.794-1.902-.564-3.15-1.041-2.556M436.162 165.383c.173 1.23.806 2.071 1.838 2.198 2.131.27 3.21-1.424 3.613-2.832.282 1.472 3.038 3.204 4.536 1.487 1.98-2.272.608-4.358-.219-6.62-.592-1.676-.337-2.74-.775-2.246-1.78 2.497.161 4.682.794 6.802-1.063.871-2.566-.043-3.043-.871-1.013-1.715-.46-5.08-1.726-5.665-.383.901-.654 1.902-.654 1.902s.857 2.362.523 3.88c-.205.919-1.08 1.96-2.164 1.932-2.873-.064-1.224-4.252-2.205-6.711-.255.575-.455 1.205-.753 1.737.173.643.235 1.524.235 2.039.022 1.012-.12 2.091 0 2.967M504.15 281.362c.32-.509 1.027-1.906.85-2.861s-1.349-4.938-3.62-5.936c-2.256-.998-3.965 1.094-5.047 4.004l-.75-.018c-.179.43-.403 1.074-.582 2.236-.252 1.679-.728 2.76-3.607 5.374-2.421 2.188-10.266 7.443-15.35 9.912-5.089 2.474-8.751 4.609-10.101 5.257-1.345.638-.954.876.391.474 1.342-.4 8.097-2.576 10.79-3.685 2.687-1.117 5.973-2.953 9.934-5.523 4.405-2.857 7.037-5.713 7.922-8.246.63-1.805.791-2.527.791-2.527s1.655.977 4.462 1.618c2.797.643 3.591.436 3.917-.078m-3.796-5.66c1.246.473 2.005 1.83 2.23 2.654-1.43.032-4.063-.694-5.183-1.2.674-1.305 1.846-1.87 2.953-1.454"/><path fill="#fff" d="M474.338 284.164c-3.906-.542-13.748-2.039-16.156-7.752 2.022-2.948 11.332-6.68 22.995-10.173 11.663-3.484 23.85-8.007 27.125-10.19.718-.243 2.106-.17 2.106-.17.587-1.689 3.515-7.62 3.698-8.86-3.26.184-23.35 1.66-32.274 2.14-8.93.48-26.126.364-31.856.3 3.514-2.527 11.855-7.46 23.775-11.669 1.545-.547 2.975-1.04 4.309-1.486.991 1.767 1.728 3.515 1.882 5.037.758-.78 1.328-3.366 1.136-6.02 6.95-2.218 10.53-2.953 12.074-3.37.975-1.264 2.704-6.375 2.961-10.09-1.038-1.891-4.29-4.247-7.182-6.27-3.985-2.783-8.283-5.21-12.572-4.148-5.864 1.438-7.04 12.211-5.673 14.496.436.721 1.468 2 2.687 3.578-4.284 1.684-8.765 3.664-12.714 5.746-8.798 4.634-18.62 9.704-21.486 14.579l-.821.4c-.23.461-2.044 8.005-2.307 8.818 1.83-.063 15.492-.038 25.008-.334 9.51-.304 17.826-.606 21.083-.606-4.824 1.143-17.465 5.84-21.1 8.603-3.634 2.77-5.919 6.982-5.979 14.202-3.388-1.327-9.685-4.358-15.051-11.616-5.982-8.089-4.744-16.408-7.138-27.325-3.479-15.843-10.907-29.22-15.533-33.311-1.559 5.591-1.759 9.805-1.759 9.805s5.796 12.814 8.73 20.994c2.933 8.182 5.44 16.243 5.316 18.048-2.416 5.298-16.716 16.395-28.634 22.89-11.302 6.16-21.258 6.823-24.786 2.437-.693-.856-1.164-1.869-1.43-3.016 1.534-.717 3.073-1.439 4.651-2.16 10.162-4.63 28.21-14.374 32.439-19.487 4.563-6.197 4.5-14.921 1.824-19.915-2.665-4.992-6.845-10.77-7.17-12.814-.255-.965 2.714.392 4.467.484.849-.064.424-1.206-1.397-3.012-1.457-1.438-7.092-6.105-9.245-7.926-.54-.463-.942-.276-1.051.213-.42 1.864-1.277 5.855-1.608 7.825l.23.993c.619.367 1.331.78 1.676 1.81.488 1.461 2.194 5.539 4.99 10.685 2.803 5.143 6.851 10.82 7.248 13.687-3.292 4.199-19.894 13.14-36.065 20.51 1-3.1 2.577-6.604 4.67-10.497.594-.658 1.137-1.47 1.64-2.388 1.614-2.947 1.77-6.551.792-5.789-.838.808-1.44 3.733-2.4 3.93-1.963.403-4.719-1.889-4.026-6.08.628-3.78 2.65-7.194 3.523-9.38 1.21-3.024 1.542-6.012.624-4.386-2.062 3.631-5.932 10.667-7.121 15.582-1.183 4.908.074 8.263 2.147 9.562.775.494 1.518.649 2.224.552-1.418 2.7-3.171 6.012-4.45 9.963-6.503 2.91-12.83 5.51-18.068 7.384-18.825 6.74-32.241 10.71-41.625 13.658l-.367.164c.69-2.23.597-4.135-.143-3.563-.838.813-1.438 3.738-2.396 3.93-1.964.403-4.72-1.886-4.03-6.08.63-3.78 2.652-7.19 3.526-9.377 1.205-3.021 1.539-6.015.624-4.386-2.065 3.631-5.933 10.666-7.121 15.579-1.187 4.91.07 8.266 2.141 9.567 2.58 1.621 4.78-.367 6.467-3.441l.592-1.264c.586 0 1.575-.137 3.051-.466 4.3-.967 15.052-2.527 29.834-4.454 10.946-1.424 18.503-4.43 25.808-7.775a29.89 29.89 0 0 0-.006 2.48c.398 10.03 6.971 12.862 15.961 10.985 8.672-1.82 20.765-9.773 28.013-15.136 7.557-5.592 11.917-10.588 13.03-12.33 2.015-4.273 2.569-8.993 2.706-11.22.66 6.134 1.194 14.623 6.995 21.904 5.341 6.7 16.287 16.05 36.874 16.306.068-2.449-.913-10.094-.913-10.094m-1.36-62.156c2.946-3.307 9.235-1.144 13.955 3.05-2.419.567-5.703 1.577-9.327 2.871-2.153-2.596-4.555-5.098-4.629-5.92M357.236 176.663c1.337-.61 5.426-2.45 9.834-5.017 4.398-2.55 8.532-5.64 10.553-7.694.775-.787 1.466-1.403 1.907-2.135 1.32.547 2.23 1.115 2.796 1.338.852.329 1.989.802 2.728-1.624.737-2.423-.24-3.988-1.681-5.857-1.22-1.568-3.153-3.923-4.723-4.508-1.33-.499-1.964 2.474-1.76 2.4h.89l.172.084c-1.833.925-3.251 3.802-3.394 4.812-.145 1.1.063 1.91 2.693 2.586l1.057.311c-2.194 2.598-6.283 5.285-9.07 7.19-3.952 2.71-9.561 6.095-11.158 7.073-1.597.972-1.463 1.279-.844 1.04m23.754-19.089.142-1.299c1.849 2.107 3.221 4.614 3.084 4.969-.849.068-1.906-.717-3.755-1.507a15.88 15.88 0 0 0 .529-2.163m-5.309.003c-.01-.395.701-1.494 2.208-2.095 1.504-.605 2.17 1.084 2.3 3.14l-.446.824-1.356-.469c-1.435-.42-2.405-.658-2.706-1.4"/><path fill="#fff" d="M455.813 216.326c2.169-1.433 8.132-5.738 11.515-8.56 2.352-1.96 5.116-4.846 6.992-7.288a89.775 89.775 0 0 0 3.276 2.026c1.929 1.127 2.704 2.799 2.704 2.799.356-.547 2.016-3.54 1.367-4.997-.39-.476-2.761-1.861-5.185-3.345 1.23-2.76 2.922-7.534.498-9.205-2.073-1.419-5.571.929-7.19 3.975-1.337 2.523-1.51 4.663 1.04 6.415.718.494 1.406.96 2.08 1.403-2.572 2.814-7.31 6.977-10.683 9.81-4.188 3.505-8.148 6.942-8.839 7.762l-.2.32c-.914-2.548-.665-4.12-1.344-3.275-2.934 4.601.742 8.33 2.079 12.052-1.808 1.64-4.577.134-5.506-1.302-1.978-2.973-1.317-9.01-3.632-9.945-.597 1.631-.986 3.447-.986 3.447s1.761 4.135 1.315 6.865c-.277 1.652-1.74 3.584-3.66 3.617-5.138.131-2.605-7.47-4.588-11.776-.402 1.056-.69 2.185-1.172 3.163.364 1.132.564 2.702.616 3.611.132 1.806-.016 3.743.288 5.293.424 2.178 1.635 3.626 3.484 3.76 3.832.312 5.582-2.803 6.163-5.343.66 2.598 5.736 5.455 8.23 2.27 3.307-4.212.66-7.818-1.03-11.78l-.199-.513c.236.083 1.12-.304 2.567-1.259m14.988-23.713c1.27-2.358 3.947-2.558 4.75-1.322.637.982.69 2.9-.27 4.923-2.36-1.482-4.467-2.933-4.48-3.601"/><path fill="#fff" d="M372.161 201.334c-4.514-.32-6.943-4.455-8.332-10.429-1.391-5.974-.54-13.852-.162-15.87.378-2.016-1.75-.975-2.577 3.92-.822 4.89-1.649 12.71 1.263 20.897 2.906 8.177 7.86 11.229 12.202 10.183 4.342-1.04 8.163-11.229 9.51-15.8 1.345-4.573 7.363-23.224 10.77-24.227.477 2.287-2.648 8.022-3.648 16.645-.994 8.623.737 19.933 11.682 21.939 10.945 2.008 18.371-5.093 21.064-10.029 2.695-4.928 3.952-10.11 4.256-12.712.35 6.617 4.865 16.949 13.632 19.894 8.472 2.847 14.945.24 17.804-3.449 2.54-3.277 4.608-10.026 4.786-15.202.172-5.171-4.298-14.635-5.298-17.648-1.002-3.006-1.52-5.093-1.608-6.134-.085-1.04 2.263 1.206 3.74 1.646.999.2.648-1.965-.568-3.452-1.213-1.481-7.782-11.44-8.242-10.747-.282.415-2.911 7.742-3.084 8.863 1.041.684 2.246 2.568 2.337 4.374.082 1.805 1.821 9.745 3.429 14.156s4.733 12.875 4.952 15.202c-3.125 2.203-10.165 5.007-16.85 2.165-6.687-2.851-8.82-6.982-9.557-14.361-.471-4.715-.518-13.402-2.2-20.664-.947-4.106-2.944-8.279-5.316-10.495-.56 1.36-3.079 9.745-3.079 9.745.822 2.406 3.377 10.507 3.295 17.527-.09 7.015-.644 13.88-8.51 18.61-7.861 4.731-19.061 2.847-21.973-4.535-2.912-7.38 3.56-23.982 3.476-28.353-.088-4.37-.874-4.976-2.695-4.252-1.825.722-5.564 4.936-8.774 11.791-3.215 6.86-4.642 13.716-6.472 19.492-1.822 5.776-4.739 11.629-9.253 11.31M241.095 175.748c5.555-.403 10.25-4.615 11.463-5.734 1.216-1.127 1.87-2.806 1-2.168-6.426 5.736-15.024 5.898-15.506 4.934.219-.963 2.481-2.528 5.782-4.731 2.005-1.34 3.791-2.596 5.128-4.376l.364.063c2.446.537 5.27 1.606 6.133.75 1.405-1.385 1.591-3.654.068-6.1-1.287-2.077-4.29-4.01-6.897-5.405-2.602-1.388-3.106.828-3.44 1.618-.32.737-.19 1.365.361 1.38-.838 1.143-1.435 2.614-1.654 3.83-.142.785-.027 1.428.293 1.957.093.15.575.74 1.487 1.089l1.132.352c-1.948 1.798-4.191 3.206-5.369 3.918-2.125 1.284-4.645 3.53-5.426 5.852-.783 2.33-.48 3.173 5.081 2.77m9.82-16.384.213-1.185v-.76c1.761 1.281 4.577 3.707 4.405 5.161-1.115-.253-3.24-.702-5.26-1.22.258-.606.469-1.27.642-1.996m-5.221.37c-1.296-1.034-.033-2.064 1.115-2.728 1.482-.856 2.35-.15 3.109 2.097a9.096 9.096 0 0 1-1.077 1.869c-1.153-.357-2.777-.93-3.147-1.238M257.76 238.481c-1.597 1.385-2.216 5.893-1.89 6.164.323.271 5.314 1.955 6.094 2.32l.357-1.358c2.377 2.135 5.012 12.787 5.598 12.817.586.028 1.436-1.205 1.992-4.034.512-2.624 1.024-6.549 1.558-9.745.499-2.925 1.274-4.599 3.032-4.933 1.761-.33 3.065 1.927 3.52 3.462 0 0 1.235-2.95 1.498-4.784-.293-.965-3.032-4.601-5.278-3.398-2.249 1.205-3.657 6.308-4.111 9.499-.458 3.185-.808 7.136-1.362 7.77-.58-2.72-2.44-7.588-4.686-10.323-2.526-3.064-5.478-4.189-6.322-3.457M236.471 233.036c2.085-.572 6.777-1.291 9.023-2.464 2.117-.992 5.73-5.834 7.132-7.64 1.4-1.806 1.403-2.712 1.047-3.19-1.433-.786-10.688-1.563-15.153-.457-1.233.833-3.646 5.298-4.002 6.233-.361.929.132.87 1.627.541 1.499-.334 8.601-.154 11.17.388-1.07.755-8.335 4.424-9.77 5.298-1.43.87-1.791 1.382-1.074 1.291M666.787 258.885c-.213-5.412-2.865-13.72-12.944-26.469-3.479-4.401-8.374-10.13-13.537-15.997-.142-2-.285-3.829-.413-5.4-.677-8.075-2.97-24.55-3.956-34.29-.24-2.457-.26-5.07-.224-6.435.035-1.084.816-.94 1.89.174 1.073 1.112 2.728 2.735 3.073 2.624.734-.253.096-2.712-1.37-5.627-1.462-2.92-6.992-14.729-8.009-15.187-.523-.233-3.13 6.7-3.292 8.119.518.871 1.854 2.226 1.983 6.169.137 3.94 2.514 27.213 3.881 41.878l.074.818c-7.718-8.617-14.988-16.475-17.979-19.661-.518-.552-1.087-1.18-1.701-1.854-.488-3.923-.937-7.66-1.246-10.748a52.793 52.793 0 0 1-.225-6.434c.025-1.082.81-.935 1.885.18 1.079 1.111 2.728 2.734 3.073 2.618.734-.248.096-2.707-1.372-5.627-1.46-2.92-7.226-15-8.248-15.458-.517-.233-3.246 7.253-3.407 8.66.523.877 1.857 2.232 1.988 6.175.052 1.674.488 6.749 1.069 13.153-5.117-6.08-10.127-12.447-10.483-13.74-.126-.639.956-.246 2.958.078 1.994.319 3.865.92 3.545-.068-.15-.459-.912-1.604-2.822-2.789-1.911-1.182-6.809-4.247-10.452-6.41-3.651-2.164-5.459-3.985-6.212-3.466-.373.256-.041 7.678.173 8.597.917.084 2.613.765 3.692 2.209 1.09 1.443 8.07 11.228 13.588 17.846a976.143 976.143 0 0 0 6.988 8.265c.57 6.096 1.167 12.394 1.66 17.656 1.12 12.004 5.146 43.662 5.185 53.95-2.972 2.79-9.05 6.679-15.304 6.76-6.253.078-9.682-1.568-12.202-6.217-.778-1.441-1.501-2.89-2.219-4.201-1.703-3.118-5.505-4.868-9.17-4.01l-.559.15-.997.479c-2.482 1.299-5.048 3.477-7.557 6.855-4.339 5.86-7.11 12.216-10.32 17.722-3.345 5.733-5.912 9.58-11.779 8.66-4.13-.648-7.267-4.19-9.2-8.549 5.431-3.758 9.375-8.66 12.26-15.455 3.755-8.83 5.094-18.785 4.76-29.979-.32-10.535-5.122-35.32-6.39-44.818-1.266-9.504-3.084-17.304-2.873-19.333.197-1.957 3.314 2.652 4.91 2.996.817-.182.379-3.122-1.172-5.607-1.051-1.689-4.382-9.372-6.562-13.077-1.025-1.753-1.271-2.768-1.748-2.976-.471-.215-4.1 7.537-3.662 8.38 1.074 1.535 1.808 2.267 2.032 5.017.23 2.75 2.717 22.938 4.892 37.806 1.638 11.219 5.257 31.597 5.722 46.66.154 4.915-.548 8.443-1.156 10.413-1.561 3.019-4.106 6.372-13.046 12.736-1.38-8.993.12-16.299-1.189-16.975-1.476.16-1.712 4.35-1.879 9.522-.082 2.388.022 5.695.471 9.248-10.98 7.34-25.487 14.022-32.299 17.59-3.996 2.097-2.555 2.586.827 1.54 3.383-1.051 21.973-5.926 31.897-11.145l1.068-.593c.504 1.75 1.115 3.444 1.866 5.007 3.338 6.939 8.11 11.059 13.279 10.656 4.347-.334 7.5-4.986 10.25-10.535 2.78-5.616 7.477-16.283 12.084-20.251 1.77-1.53 3.6-2.74 5.38-3.467 0 0 3.147-1.051 6.042.84 1.038.684 1.813 1.657 2.304 2.746 1.142 2.5 2.492 5.68 5.253 8.344 4.865 4.685 12.687 3.718 18.555.993 5.858-2.728 8.85-6.982 10.153-12.037 2.224-8.648 1.868-17.509 1.444-25.38-.49-8.982-1.926-18.162-2.742-27.89-.263-3.127-.775-7.477-1.364-12.195 5.714 6.594 11.646 13.287 15.246 16.947 1.24 1.263 2.55 2.666 3.895 4.148 1.073 14.723 2.106 33.147 2.651 40.878.54 7.704.192 17.388.129 19.072-.066 1.684.87 1.395 2.216-2.343 1.802-5.017 2.933-18.173 2.539-26.897-.236-5.184-.753-14.634-1.312-23.574a402.649 402.649 0 0 1 11.383 14.182c4.87 6.376 9.343 13.958 10.907 18.689 1.562 4.735 1.734 6.138 2.038 6.982s1.65-2.611 1.436-8.023M584.55 439.013c-.44-1.259-1.787-2.182-3.398-2.182s-2.955.923-3.398 2.182H562.5a13.645 13.645 0 0 1 .476-5.05l31.493-.019.877 1.478a15.722 15.722 0 0 0 2.952 3.59zm20.848-14.635h-37.845c2.909-2.1 4.434-5.162 4.025-8.261-.261-1.953-2.196-3.412-4.555-3.61h-1.185c-2.87.28-4.951 2.349-4.648 4.62l.115.874.14 1.344a13.631 13.631 0 0 1-.47 5.033H281.236c4.154 6.044 11.728 9.75 19.906 9.744l255.266-.157c-2.92 2.102-4.45 5.17-4.038 8.275.302 2.272 2.87 3.89 5.74 3.61 2.867-.28 4.948-2.349 4.649-4.624l-.116-.87h15.002c.264 1.464 1.726 2.587 3.507 2.587s3.244-1.123 3.51-2.588h15.26v-.035c3.187 2.26 7.236 3.56 11.52 3.56 4.03 0 7.295-2.8 7.295-6.255v-1.808c0-6.316-5.97-11.44-13.338-11.44"/></svg>