<svg xmlns="http://www.w3.org/2000/svg" xmlns:xlink="http://www.w3.org/1999/xlink" width="375" height="250" fill="#ee1c25" viewBox="0 0 900 600"><path d="M0 0h900v600H0z"/><g id="a"><path fill="#fff" d="M492.936 125.196a27.917 27.917 0 0 0-14.902 41.792 45.171 45.171 0 0 1-20.29 66.204 38.65 38.65 0 0 0-10.816 64.313 68.375 68.375 0 0 1-17.068-93.914 15.81 15.81 0 0 1-1.109-1.047 69.88 69.88 0 0 0 16.755 95.793 90.342 90.342 0 0 1 47.43-173.141"/><path d="m451.98 181.1-27.565 12.021 29.366 6.476-19.951-22.5 2.915 29.93"/></g><g id="b"><use xlink:href="#a" transform="rotate(72 450 300)"/><use xlink:href="#a" transform="rotate(216 450 300)"/></g><use xlink:href="#b" transform="rotate(72 450 300)"/></svg>