<svg xmlns="http://www.w3.org/2000/svg" xmlns:xlink="http://www.w3.org/1999/xlink" width="375" height="250" viewBox="-5 -5 945 630"><style>.C{stroke-width:.6}.D{stroke-linecap:square}.E{stroke-width:.27}.F{fill:#7b3f00}.G{stroke-width:.61}.H{fill:#fcd116}</style><defs><path id="A" d="M1.5 9 .2 11.03l.1.02c-.99 6.45.12 10.63.93 13.88.41 1.63.75 3.03.69 4.37a5.66 5.66 0 0 1-.71 2.54C5.86 26.68-1.46 24.12 6 12z" class="D E F"/><path id="B" fill="none" d="M0 11c-2 13 4.5 17 0 22"/><path id="C" d="M0 0h-6l6 33L6 0H0v33"/><path id="D" stroke="none" d="M0 0h6-6v33L6 0" class="F"/></defs><path fill="#fff" d="M-5-5h945v630H-5z"/><path fill="#0038a8" d="M345 65h595v70H345zm0 140h595v70H345zM-5 345h945v70H-5zm0 140h945v70H-5z"/><g transform="translate(234.285 -392.52) scale(3.7795)"><g stroke="#7b3f00" stroke-miterlimit="20"><g class="H"><path d="m-19.11 157.89 3.07 4.58c-12.6 9.12-4.91 14.51-13.83 17.42 5.55-5.42-.73-6.25 3.94-17.55" class="D G"/><g transform="matrix(.3898 .9411 -.9411 .3898 -17.009 148.833)"><g class="D"><path d="M1.5 9 6 12c-8 13 1 15-6 21 3-7-3.01-5.58-3.01-17.58" class="C"/><use xlink:href="#A" class="E"/></g><use xlink:href="#B" class="C"/></g><path d="m-17.01 148.83-4.32-4.32-19.45 28.09 28.09-19.45-4.32-4.32-23.77 23.77" class="G"/><g transform="matrix(-.3898 .9412 -.941 -.3898 -17.009 148.833)"><g class="D"><path d="M1.5 9 6 12c-8 13 1 15-6 21 3-7-3.03-5.45-3.03-17.45" class="C"/><use xlink:href="#A" class="E"/></g><use xlink:href="#B" class="C"/></g><g class="C" transform="matrix(0 1.0187 -1.0186 0 -17.009 148.833)"><use xlink:href="#C"/><use xlink:href="#D"/></g><g transform="matrix(-.9411 .3898 -.3898 -.9411 -17.009 148.833)"><g class="D"><path d="M1.5 9 6 12c-8 13 1 15-6 21 3-7-3.02-6.24-3.02-18.24" class="C"/><use xlink:href="#A" class="E"/></g><use xlink:href="#B" class="C"/></g><g class="C" transform="scale(-1.0187) rotate(-45 -168.018 -93.21)"><use xlink:href="#C"/><use xlink:href="#D"/></g><g transform="rotate(-157.5 6.298 76.108) scale(1.0186)"><g class="D"><path d="M1.5 9 6 12c-8 13 1 15-6 21 3-7-3.01-5.46-3.01-17.46" class="C"/><use xlink:href="#A" class="E"/></g><use xlink:href="#B" class="C"/></g><g class="C" transform="rotate(180 -8.504 74.417) scale(1.0186)"><use xlink:href="#C"/><use xlink:href="#D"/></g><g transform="rotate(-112.5 41.22 80.1) scale(1.0186)"><g class="D"><path d="M1.5 9 6 12c-8 13 1 15-6 21 3-7-2.95-5.79-2.95-17.79" class="C"/><use xlink:href="#A" class="E"/></g><use xlink:href="#B" class="C"/></g><g class="C" transform="rotate(-135 22.32 77.94) scale(1.0186)"><use xlink:href="#C"/><use xlink:href="#D"/></g><g transform="matrix(.3898 -.941 .9412 .3898 -17.009 148.833)"><g class="D"><path d="M1.5 9 6 12c-8 13 1 15-6 21 3-7-3.02-5.59-3.02-17.59" class="C"/><use xlink:href="#A" class="E"/></g><use xlink:href="#B" class="C"/></g><g class="C" transform="matrix(0 -1.0186 1.0187 0 -17.009 148.833)"><use xlink:href="#C"/><use xlink:href="#D"/></g><g transform="matrix(.9411 -.3898 .3898 .9411 -17.009 148.833)"><g class="D"><path d="M1.5 9 6 12c-8 13 1 15-6 21 3-7-2.98-5.66-2.98-17.66" class="C"/><use xlink:href="#A" class="E"/></g><use xlink:href="#B" class="C"/></g><g class="C" transform="scale(1.0187) rotate(-45 168.018 93.21)"><use xlink:href="#C"/><use xlink:href="#D"/></g></g><path stroke-width=".28" d="m-19.1 157.89-2.02 1.4.09.05c-3.44 5.68-4.03 10.05-4.53 13.43-.25 1.69-.48 3.14-1.06 4.38a5.76 5.76 0 0 1-1.66 2.11c6.38-3.04.5-8.3 12.24-16.8z" class="F"/><g class="G"><path fill="none" d="M-21.3 159.19c-6.95 11.45-2.39 17.75-8.58 20.7"/><path d="M-17.01 148.83h-6.11l6.11 33.62 6.11-33.62h-6.11v33.62" class="H"/></g></g><g class="F"><path d="M-17.01 148.83h6.11-6.11v33.62l6.11-33.62"/><path d="m-17.01 148.83 4.32 4.32-4.32-4.32-23.77 23.77 28.09-19.45"/></g><circle cx="-17.01" cy="148.83" r="11.21" stroke="#7b3f00" class="G H"/><g class="F"><path d="M-8.76 144.35c-.71.81-1.12-.61-3.67-.61s-2.95 1.53-3.36 1.22 2.14-2.14 2.95-2.24a7.2 7.2 0 0 1 4.07 1.63m-2.95.92a1.2 1.2 0 0 1-.61 1.94c-.71 0-2.04-1.22-1.43-2.04"/><path d="M-15.07 146.18c.1-1.22 1.12-1.43 2.75-1.43s2.34 1.22 2.95 1.53c-.71 0-1.32-1.02-2.95-1.02s-1.63 0-2.75 1.02m.31.2c.41-.61.92.61 2.04.61a3.7 3.7 0 0 0 2.44-.81c.71-.51-1.02 1.22-2.14 1.22s-2.65-.61-2.34-1.02m-7.95-1.32c-.51.2-1.32 1.22 0 1.94-1.02-.71-.2-1.73 0-1.94z"/><path d="M-11.3 145.17c.2.2 1.02 1.22 0 1.94 1.32-.71.51-1.73 0-1.94zm-7.33 4.38c-.92.2-.61 1.53-1.43 1.63s-1.22 1.02-1.12.92c.51-.41 1.63-.71 2.44-.71s1.02.51 1.73.51.92-.51 1.73-.51 1.94.31 2.44.71c.1.1-.31-.81-1.12-.92s-.51-1.43-1.43-1.63c0 .41.31.31.41.92 0 .51-.92.51-1.12 0 .2.81-.41.81-.92.81s-1.12 0-.92-.81c-.2.51-1.12.51-1.12 0 .1-.61.41-.51.41-.92zm-3.16 3.46c-.81.61-1.02.92-1.12 1.63a7.4 7.4 0 0 1 .55-.85l-.14-.06.17.02.54-.74z"/><path d="m-22.34 153.75-.01.02c.13.03.26.04.4.04l-.39-.06zm.39.06a11.4 11.4 0 0 1 1.59.41c.57-.04 1.36-.19 3.35-.19s2.78.14 3.35.19a11.4 11.4 0 0 1 1.59-.41c-1.12 0-2.62-.8-3.31-.8-.81 0-1.02.2-1.63.2s-.81-.2-1.63-.2c-.69 0-2.19.8-3.31.8zm9.88 0c.14 0 .28-.01.4-.04l-.01-.02-.39.06z"/><path d="m-11.68 153.75.17-.02-.14.06a7.4 7.4 0 0 1 .55.85c-.1-.71-.31-1.02-1.12-1.63l.54.74z"/><path d="M-11.65 153.78c-1.07.4-1.44.47-2.01.43-.97.31-1.76.63-3.35.63s-2.38-.32-3.35-.63c-.57.04-.94-.03-2-.44 3.19 1.38 2.85 1.88 5.35 1.88s2.16-.5 5.36-1.87zm-10.71-.01c-.04-.03-.1-.04-.15-.05l.15.05zm10.71 0 .15-.05a.75.75 0 0 1-.16.04zM-25.263 144.35c.714.815 1.121-.612 3.669-.612s2.955 1.529 3.362 1.223-2.14-2.14-2.955-2.242-3.159.714-4.076 1.63m2.955.918c-.713.611-.102 1.936.612 1.936s2.038-1.223 1.426-2.038"/><path d="M-18.945 146.184c-.102-1.223-1.12-1.427-2.751-1.427s-2.344 1.223-2.955 1.529c.713 0 1.324-1.02 2.955-1.02s1.63 0 2.751 1.02m-.306.204c-.407-.612-.917.611-2.038.611s-1.732-.306-2.445-.815 1.019 1.223 2.14 1.223 2.649-.612 2.343-1.02M-17.01 156.58c-.51 0-1.83.31 0 .31s.51-.31 0-.31"/></g></g></svg>