<svg xmlns="http://www.w3.org/2000/svg" width="357.14" height="250" viewBox="0 0 1000 700" style="enable-background:new 0 0 1000 700" xml:space="preserve"><path style="fill:#d50032" d="M0 0h1000v700H0V0z"/><path style="fill:#fedd00" d="M0 0h680v700H0V0z"/><path style="fill:#10069f" d="M0 0h320v700H0V0z"/><path style="fill:#c6aa76" d="M469.37 188.48c12.051 0 16.979 10.338 29.029 10.338 7.44 0 11.777-2.43 18.261-6.087 4.524-2.562 7.41-3.927 12.605-3.927 5.319 0 8.58 1.608 11.301 6.167 1.537 2.58 2.814 7.628 2.138 10.525a62.473 62.473 0 0 1-4.262 12.953c-1.043 2.438-2.028 3.898-2.028 6.566 0 6.396 8.704 8.594 14.622 8.685 1.29.02 12.139.198 18.815-6.56-3.622-.16-7.675-2.965-7.675-6.588 0-4.099 2.88-6.873 6.785-8.057.742-.212 2.006.443 2.677.09.954-.495.508-1.568 1.356-2.24 1.944-1.555 3.207-2.525 5.699-2.525a5.736 5.736 0 0 1 3.885 1.165c.69.495.943 1.107 1.79 1.107 1.786 0 2.67-1.13 4.454-1.13a6.875 6.875 0 0 1 3.604.848c1.06.548 1.037 2.349 2.238 2.349.6 0 3.779-1.296 5.44-1.296 3.446 0 5.285 1.248 7.512 3.863.6.707.985 2.137 1.596 2.137a9.722 9.722 0 0 1 5.832 2.559 9.883 9.883 0 0 1 1.68 2.038c.406.654 1.03 2.25 1.748 2.526.927.193 1.822.52 2.655.97a9.315 9.315 0 0 1 4.377 7.612 15.882 15.882 0 0 1-.75 3.31c-2.942 10.284-9.94 13.548-17.01 22.382-3.003 3.763-5.374 6.767-5.374 11.59 0 1.167 1.436 3.303 2.073 4.275-.389-2.267.647-5.051 3.043-5.18a6.09 6.09 0 0 1 6.259 5.568 7.025 7.025 0 0 1-.519 2.85 14.905 14.905 0 0 1 6.217-2.202c.988-.12 1.984-.164 2.979-.13 5.245.13 11.034 3.08 14.547 6.064 10.749 9.13 12.049 22.492 11.462 26.203-1.305 8.246-.484 23.168-21.56 29.117 3.897 1.64 6.55 4.573 6.55 8.178a7.11 7.11 0 0 1-6.927 7.28 6.824 6.824 0 0 1-5.372-2.12c-4.382 4.38-5.23 8.852-5.23 15.054a19.287 19.287 0 0 0 2.26 9.258c1.645 3.552 2.828 5.637 5.797 8.2 1.573-2.37 3.234-4.1 6.078-4.1 2.757 0 5.09.883 6.22 3.392.336.76.035 1.379.424 2.12.495.955 1.326 1.167 1.838 2.12.795 1.468.018 2.722.707 4.24.44.99 1.413 1.133 1.837 2.122a9.163 9.163 0 0 1 .849 4.24c0 4.7-4.277 8.058-8.977 8.058-1.413 0-2.19-.565-3.604-.424 2.686 2.686 4.735 3.852 6.785 7.068 2.968 4.647 3.71 7.95 4.382 13.429.11.89.157 1.788.142 2.686 0 7.032-1.096 11.238-4.241 17.528-3.004 6.025-5.566 9.365-11.026 13.287-8.517 6.13-14.72 7.899-25.02 9.895a116.275 116.275 0 0 1-17.105 2.262c-8.588.548-13.482.565-22.052 1.13-11.238.76-19.03 2.35-27 10.32 3.765 2.756 6.362 5.46 6.362 10.107 0 4.77-2.951 8.18-7.492 9.683-1.06.353-1.838.035-2.827.565-1.184.618-1.131 1.979-2.262 2.686a9.697 9.697 0 0 1-5.937 1.555c-4.205 0-7.068-.99-10.037-3.96-3.445 2.864-4.612 5.444-8.481 7.635-1.273.707-1.927 1.696-3.393 1.696-2.315 0-3.375-1.466-5.23-2.827a35.882 35.882 0 0 1-6.927-6.36c-3.516 2.102-5.672 3.816-9.754 3.816a10.173 10.173 0 0 1-6.22-1.697c-1.113-.69-1.29-1.714-2.403-2.403-1.166-.724-2.138-.46-3.392-.99-4.718-2.031-7.775-5.53-7.775-10.671 0-4.506 2.845-7.37 6.927-9.26-7.828-7.827-15.532-9.187-26.576-9.894-8.535-.548-13.394-.565-21.911-1.131a154.238 154.238 0 0 1-17.246-2.262c-5.072-.83-8.075-1.095-12.722-3.251-15.991-7.457-26.187-17.687-28.272-35.198a28.446 28.446 0 0 1-.142-3.887c0-9.118 3.587-14.683 10.036-21.133-1.66-.39-2.774.159-4.382-.424-4.03-1.467-6.926-4.26-6.926-8.553a7.167 7.167 0 0 1 .848-4.028c.548-.972 1.59-1.167 1.837-2.262.318-1.45-.106-2.474.566-3.817.442-.9 1.272-1.078 1.696-1.98 1.396-2.896 3.146-5.23 6.36-5.23 2.758 0 4.525 1.45 5.938 3.818 2.686-1.237 3.428-3.252 4.948-5.796 2.527-4.223 3.675-7.174 3.675-12.086a23.871 23.871 0 0 0-1.413-8.693c-.778-2.333-1.096-3.923-2.827-5.654a6.827 6.827 0 0 1-5.372 2.12 8.135 8.135 0 0 1-7.916-8.34 7.516 7.516 0 0 1 4.665-7.21c-2.421-2.084-4.524-2.261-7.21-3.957-4.081-2.58-5.512-5.301-8.198-9.33-1.75-2.633-2.21-4.47-3.11-7.492a29.359 29.359 0 0 1-1.697-9.612c-.015-.85.032-1.701.14-2.545 1.009-7.668 2.387-12.475 7.21-18.518 2.863-3.587 4.807-5.795 9.048-7.633 3.604-1.555 5.76-2.686 9.683-2.686a21.67 21.67 0 0 1 3.04.142c1.583.086 3.127.52 4.523 1.272.6.336 1.696 1.343 1.696.636 0-.813-.424-1.237-.424-2.05 0-3.25 2.332-6.22 5.584-6.22 2.35 0 3.304 2.068 4.453 4.1a6.093 6.093 0 0 0 1.13-3.534c0-5.372-2.88-8.11-6.22-12.298-7.28-9.1-16.397-13.358-16.397-25.02 0-3.48 1.678-5.85 4.665-7.633.865-.513 2.03 0 2.877-.543.725-.46.642-1.395 1.1-2.137a10.415 10.415 0 0 1 2.374-2.525c1.66-1.45 3.12-1.015 4.957-2.287.919-.636 1.136-1.463 1.843-2.31 2.05-2.474 3.89-3.67 7.123-3.67a9.254 9.254 0 0 1 4.04.608c.512.195 1.47.967 1.594.818a7.35 7.35 0 0 1 2.243-1.813 6.368 6.368 0 0 1 3.432-.907c1.732 0 2.866.97 4.598.97.636 0 .783-.634 1.295-.97 1.537-1.042 2.422-1.632 4.295-1.632a7.157 7.157 0 0 1 4.318 1.567c1.43.902 1.637 2.108 3.103 2.957.813.477 1.502.265 2.404.565 4.028 1.343 7.068 4.029 7.068 8.27a6.486 6.486 0 0 1-2.262 5.442c-1.361 1.2-2.65.99-4.382 1.555 5.619 4.488 10.508 5.6 17.682 5.6 6.573 0 14.612-2.686 14.612-9.26 0-3.056-1.69-4.7-2.892-7.508-2.156-5-3.325-7.942-3.325-13.384 0-4.311.47-6.927 2.979-10.426 2.58-3.604 5.73-4.445 10.167-4.445l.002.001z"/><path style="fill:none;stroke:#713f2a;stroke-width:1.041;stroke-linejoin:round" d="M425.59 223.46a5.564 5.564 0 0 0 3.82 3.807 5.893 5.893 0 0 0 5.986-2.177 6.922 6.922 0 0 0 .833-6.297 7.32 7.32 0 0 0-2.698-3.468l-7.938 8.057-.002.079-.001-.001z"/><path style="fill:none;stroke:#713f2a;stroke-width:1.0369999;stroke-linecap:round" d="M626.61 343.94c-1.866-4.51-6.686-2.488-6.983 0-.683 5.732 4.34 7.464 7.916 6.53a6.218 6.218 0 0 0 3.896-3.03 7.548 7.548 0 0 0 .61-5.824 8.382 8.382 0 0 0-3.325-4.471c-1.375-.878-2.874-.965-5.224-.965-8.708 0-16.327 10.289-18.886 20.977a46.064 46.064 0 0 0-.396 18.815 35.044 35.044 0 0 0 9.16 17.585 39.21 39.21 0 0 0 8.99 6.435 38.762 38.762 0 0 0 6.496 2.683c2.008.564 4.127.613 6.159.142 5.16-1.12 7.559-5.92 4.96-10.83-2.13-4.02-8.397-6.219-11.352-1.088a5.1 5.1 0 0 0-.628 2.411 4.65 4.65 0 0 0 1.561 3.64c2.246 1.428 5.838 1.024 5.672-2.941"/><path style="fill:none;stroke:#713f2a;stroke-width:1.276" d="M599.69 403.07a17.662 17.662 0 0 1 10.343-5.703c4.654-.572 8.699.783 12.828 3.004 8.06 4.335 12.554 8.995 15.549 17.641a26.908 26.908 0 0 1 1.304 9.022c-.14 5.604-1.563 11.73-3.092 14.692-1.334 2.583-4.82 13.994-23.946 21.868-11.16 4.594-28.3 5.653-40.118 6.12-16.256.642-31.254 1.244-39.962 11.973"/><path style="fill:none;stroke:#713f2a;stroke-width:1.1210001" d="M603.75 421.45c-.466-1.71-.035-3.35 1.322-5.209 1.814-2.486 5.675-3.343 9.174-1.4a11.61 11.61 0 0 1 3.965 3.266c.502.665 1.35 1.739 1.788 2.488a19.328 19.328 0 0 1 1.703 3.887c3.846 10.928-2.265 22.771-10.255 27.522-6.206 3.69-13.608 5.336-22.469 6.375-3.982.468-6.256.437-10.263.623-3.223.149-6.008.096-8.63.064-2.157-.027-4.205-.016-6.297-.064-3.758-.14-7.521-.089-11.274.155-4.55.331-7.972.448-11.818 1.089-2.51.418-5.455.822-8.542 1.515-.926.207-1.865.377-2.809.661-.634.192-1.26.386-1.88.575a62.315 62.315 0 0 0-15.258 6.521 27.291 27.291 0 0 0-3.877 2.708c-.665.627-1.472 1.256-2.124 1.898-2.99 2.941-6.047 6.126-6.762 10.438-.112.83-.156 1.67-.132 2.507 0 2.798 2.278 6.608 8.42 7.852m8.638-265.811c1.285 2.324 1.992 3.738 1.244 6.142-.847 2.723-2.778 4.354-5.52 4.354-6.22 0-9.878-7.364-7.075-12.051 4.976-8.319 14.539-3.647 23.402.474-.428-2.134-1.174-2.828-1.096-5.471.193-6.565 5.06-9.542 7.005-15.605 1.157-3.613 1.618-6.75-1.025-9.316-2.308-2.24-4.982-2.205-7.994-1.025-6.018 2.359-13.246 9.138-25.97 9.326-12.724-.188-20.012-6.967-26.03-9.326-3.012-1.18-5.686-1.214-7.994 1.025-2.643 2.566-2.183 5.703-1.025 9.316 1.944 6.064 6.812 9.04 7.005 15.605.077 2.643-.67 3.337-1.096 5.47 8.863-4.12 18.798-9.211 23.402-.473 2.565 4.869-.855 12.05-7.075 12.05-2.742 0-4.667-1.747-5.52-4.353a6.71 6.71 0 0 1 1.244-6.142"/><path style="fill:none;stroke:#713f2a;stroke-width:1.1210001;stroke-linecap:round" d="M491.5 224.79c2.403 1.838 4.1 4.1 3.817 7.775-.307 3.986-1.273 4.947-4.382 7.068m3.745-5.933a5.124 5.124 0 0 1-3.534 4.947"/><path style="fill:#c6aa76" d="m432.4 214.49 1.088.777 1.166 1.245.778 1.555.389 1.321.078 1.71-.078 1.167-.389 1.322-.778.932-.933 1.011-1.321.7-1.71.389-1.478.233-1.555-.7-1.399-1.01-.855-1.245-.622-1.555v-.621l7.62-7.231h-.001z"/><path style="fill:none;stroke:#713f2a;stroke-width:1.041;stroke-linecap:round" d="M430.01 220.57c-.478-2.581-3.496-3.11-4.665-1.586-1.8 2.348-.485 6.257 3.176 7.401 2.25.51 4.59-.341 5.987-2.177a6.777 6.777 0 0 0-1.866-9.64c-4.252-3.233-11.118-2.488-13.373 2.954-2.909 7.02 3.42 12.284 9.252 16.25 7.34 4.991 15.705 5.899 22.003 5.83 14.306-.155 25.19-6.997 32.265-10.884 1.648-.905 3.345-.72 4.198.311a3.115 3.115 0 0 1-.389 4.276"/><path style="fill:none;stroke:#713f2a;stroke-width:1.057" d="m387.6 414.35-3.188 1.166-3.265 2.488-1.4 1.944-1.788 3.11-.777 2.332-.622 2.877-.311 2.177m29.701-15.784-.233 2.8-.467 1.943-1.4 3.343-2.176 2.877-2.333 1.865-1.71.856-2.41.544"/><path style="fill:none;stroke:#713f2a;stroke-width:1.197" d="M499.6 489.23c-.58 2.588-3.004 5.548-8.279 6.617l-1.025.212"/><path style="fill:none;stroke:#713f2a;stroke-width:1.3559999" d="M631.59 406.57a28.457 28.457 0 0 1 7.488 12.109 26.878 26.878 0 0 1 1.303 9.021c-.14 5.604-1.562 11.73-3.091 14.692-1.334 2.584-4.82 13.994-23.946 21.868-11.161 4.595-28.3 5.654-40.118 6.12-16.022.633-30.822 1.227-39.582 11.517"/><path style="fill:none;stroke:#713f2a;stroke-width:.929" d="M605.45 416.95c1.188-1.621 5.517-3.673 9.016-1.73a9.682 9.682 0 0 1 3.714 3.243"/><path style="fill:none;stroke:#713f2a;stroke-width:1.3559999" d="M627.51 402.79c.782.3 1.56.572 2.244.767 1.997.635 4.134.685 6.158.142 4.423-1.327 7.261-5.459 4.96-10.83a8.853 8.853 0 0 0-2.717-3.333"/><path style="fill:none;stroke:#713f2a;stroke-width:1.041;stroke-linecap:round" d="M375.44 287.13c-2.969 1.838-5.182 2.273-7.492 4.947a43.935 43.935 0 0 0-4.1 10.65m72.032-80.767c0 2.686-1.98 4.382-4.665 4.947"/><path style="fill:none;stroke:#713f2a;stroke-width:.997" d="M620.49 275.03c7.39-.15 28.859 5.64 29.012 30.876.15 24.925-15.383 28.997-21.607 30.656"/><path style="fill:none;stroke:#713f2a;stroke-width:1.0369999" d="M622.43 275.03c12.743-.554 25.892 8.826 26.472 32.236.452 18.289-12.517 26.584-18.742 28.243"/><path style="fill:none;stroke:#713f2a;stroke-width:.881" d="m615.33 363.16.196-2.502.834-3.974 1.178-3.091 1.324-2.551 1.717-2.06m12.161-5.312-.195 2.449-.7 1.672-1.088 1.594-1.244.933-1.904.7-1.672.116-1.244-.195M602.33 268.42l.544-2.643 1.166-2.45 1.517-2.449 2.604-3.343 2.06-2.293 3.343-3.382 2.877-2.916 1.827-2.099 2.41-2.915 2.138-3.227 1.283-2.643.7-3.421.212-4.242-.388-1.23M605.44 429.44l2.527-.505 1.905-1.011 1.05-1.05.738-1.205.505-1.943.04-1.36M364.94 403.38l1.866.155 2.41-.194 2.41-.855m7.814-57.106-.31 2.177-.506.972-.739.933-1.01.777-1.128.505-1.477.234-1.011.078m15.471-24.406-.544 3.382-.661 1.477-1.36 1.866-1.828 1.4-1.866.932-3.615.894m23.904-62.121-.7 2.021-.855 1.478-1.166 1.632-1.633 1.477-1.943.934-1.633.388-1.01-.078m.59-9.682.04 1.555"/><path style="fill:none;stroke:#713f2a;stroke-width:.987;stroke-linecap:round" d="M397.32 325.09a10.712 10.712 0 0 1-3.265 2.029M629.24 397.16c.134.145.581.217.739.31 2.215 1.323 6.577-.325 5.294-3.746"/><path style="fill:none;stroke:#713f2a;stroke-width:.987" d="M621.54 349.38c1.573 2.055 4.538 2.588 6.883 1.976a6.22 6.22 0 0 0 3.895-3.03 7.54 7.54 0 0 0 .61-5.825 7.643 7.643 0 0 0-1.325-2.58 10.588 10.588 0 0 0-2.132-2.23c-.17-.111-.339-.262-.518-.383m10.037 53.152a6.23 6.23 0 0 0-1.906-5.711c-.4-.466-.857-.88-1.36-1.233m.746.734c-.073-2.912-2.456-4.995-5.41-5.513m-6.52 4.433a20.74 20.74 0 0 1-2.042-1.69 24.549 24.549 0 0 1-6.742-16.677c-.037-6.473 2.566-13.062 5.598-15.627M533.07 481.44l2.799-2.566 1.944-1.477 3.654-2.255 3.42-1.632 2.41-.622 4.82-1.089 5.599-.855M511.61 501.2c-2.022 3.11-6.842 7.775-11.896 9.64-5.054-1.865-9.874-6.53-11.895-9.64"/><path style="fill:none;stroke:#713f2a;stroke-width:.987;stroke-linecap:round" d="M491.28 494.73a15.475 15.475 0 0 1-3.468 6.451"/><path style="fill:none;stroke:#713f2a;stroke-width:.987" d="m491.78 491.47-.7 3.42m-3.65 6.53-1.477 1.477-2.644 1.477-3.032.934M471.46 227.45a9.801 9.801 0 0 0 .71-4.014c-.193-6.565-5.06-9.542-7.005-15.606-1.157-3.612-1.618-6.75 1.026-9.316 2.307-2.24 4.981-2.205 7.993-1.025 6.018 2.36 13.308 9.138 26.032 9.326-12.724-.188-20.015-6.967-26.032-9.326-3.012-1.18-5.935-1.525-8.242.714-2.644 2.566-1.934 6.015-.777 9.627 1.944 6.064 6.563 9.041 6.756 15.606a9.608 9.608 0 0 1-.834 4.014m29.093-21.08c12.517-.661 23.245-9.071 26.706-9.757 3.086-.612 4.809-.336 7.072 1.721-2.264-2.057-4.842-1.993-7.77-.845-6.018 2.359-13.246 9.138-25.97 9.326M624.59 383.2a24.285 24.285 0 0 1-9.718-19.274c-.036-6.474 2.565-13.061 5.597-15.627M511.17 500.76c-2.021 3.11-6.842 7.775-11.895 9.64-5.054-1.865-9.874-6.53-11.895-9.64"/><path style="fill:none;stroke:#713f2a;stroke-width:.987;stroke-linecap:round" d="M479.17 230.74c1.302-.72 2.51-1.406 3.624-2.018 1.649-.906 3.63-.716 4.483.316a3.272 3.272 0 0 1-.226 4.416"/><path style="fill:none;stroke:#713f2a;stroke-width:.987" d="M460.48 239.49c8.588-1.792 15.585-5.638 20.875-8.597M531.78 487.43c.499.401.898.912 1.166 1.493.219.423.394.867.521 1.326a3.353 3.353 0 0 1-3.083 4.085 5.262 5.262 0 0 1-5.482-3.17M460.04 239.05c8.588-1.792 15.585-5.638 20.875-8.597M633.38 397.49c-1.633.63-2.526.544-4.557-.358-.834-.37-1.788-.943-2.907-1.578-3.98-2.261-8.708-5.824-13.139-14.143a29.393 29.393 0 0 1-2.672-6.992 25.878 25.878 0 0 1-.78-5.212 40.108 40.108 0 0 1 .964-9.72 31.617 31.617 0 0 1 6.376-14.15c1.795-2.463 3.343-3.966 6.686-4.043M398.83 279.88a11.112 11.112 0 0 1 4.12 8.94c0 4.842-4.05 12.75-14.001 15.55a12.947 12.947 0 0 1-9.87-1.18"/><path style="fill:none;stroke:#713f2a;stroke-width:.987" d="M400.46 296.28a5.39 5.39 0 0 1 2.488 5.07c0 1.664-1.076 3.822-2.907 5.866a19.314 19.314 0 0 1-13.716 6.26 15.987 15.987 0 0 1-9.422-2.735 14.159 14.159 0 0 1-5.987-8.397"/><path style="fill:none;stroke:#713f2a;stroke-width:.987" d="M400.3 306.71c2.026 1.862 2.648 4.193 2.648 7.129 0 4.29-1.742 7.6-5.75 11.107-.94.82-1.955 1.55-3.032 2.178M596.4 292.63v5.519m-.44-6.879v7.774m.44-24.604v10.185m-.44-12.435v13.918m-2.97 128.062a29.223 29.223 0 0 1-6.53 8.863 30.66 30.66 0 0 1-9.097 6.375 38.431 38.431 0 0 1-10.263 3.421 52.465 52.465 0 0 1-10.73 1.322 73.853 73.853 0 0 1-9.909-.255c-4.127-.285-6.417-.86-10.538-1.222a83.078 83.078 0 0 0-8.743-.566 44.853 44.853 0 0 0-8.983.643 34.426 34.426 0 0 0-8.086 2.255c-4.198 1.7-8.941 4.665-9.952 5.987-1.01-1.322-5.754-4.286-9.952-5.987a34.42 34.42 0 0 0-8.085-2.255 44.79 44.79 0 0 0-8.984-.643 82.8 82.8 0 0 0-8.743.566c-4.121.362-6.41.937-10.538 1.222a74.199 74.199 0 0 1-9.91.255 52.163 52.163 0 0 1-10.728-1.322 38.666 38.666 0 0 1-10.263-3.42 30.572 30.572 0 0 1-9.097-6.376c-.32-.314-.635-.632-.948-.953m65.889 83.39 2.799-.35m47.301-3.68 2.825-.269 2.69-1.076 1.884-1.144 2.556-3.027.538-1.144.404-2.623.134-1.21M613.23 277.36c1.213-4.128-.268-8.483-4.266-8.366M402.79 341.75a12.782 12.782 0 0 1-5.62 7.293m5.69-72.993a10.187 10.187 0 0 1-5.724 6.26c-2.886 1.304-6.227.086-8.014-1.292"/><path style="fill:none;stroke:#713f2a;stroke-width:.987;stroke-linecap:round" d="M380.95 291.2c2.392 1.253 4.82-.584 4.322-3.696a4.45 4.45 0 0 0-3.933-3.433"/><path style="fill:none;stroke:#713f2a;stroke-width:.987" d="M390.87 422.86c.516.485.626 1.115 1.322 1.244 1.05.194 1.866.583 2.915-.816 1.294-1.725.599-4.409-.747-6.098a7.721 7.721 0 0 0-9.112-1.461 11.604 11.604 0 0 0-3.965 3.265c-.502.665-1.35 1.739-1.788 2.488a19.356 19.356 0 0 0-1.704 3.887c-3.2 9.098.6 18.664 6.489 24.493"/><path style="fill:none;stroke:#713f2a;stroke-width:.987;stroke-linecap:round" d="M531.59 487.23c.372.384.71.8 1.01 1.244.192.425.336.87.428 1.327a3.353 3.353 0 0 1-3.083 4.084 4.97 4.97 0 0 1-5.267-3.156"/><path style="fill:none;stroke:#713f2a;stroke-width:.987" d="M608.5 216.81a11.564 11.564 0 0 1 9.784 10.992c0 6.92-2.331 9.496-5.974 14.446-3.899 5.297-16.638 15.005-16.638 26.045 0 6.686 1.866 10.962 6.686 13.139 3.108 1.404 6.742-.116 8.397-1.61 4.042-3.655 2.426-10.063-1.788-10.829-5.132-.933-6.096 7.145-1.09 6.609M635.73 383.51a5.72 5.72 0 0 0-11.377.99 5.923 5.923 0 0 0 1.615 4.085"/><path style="fill:none;stroke:#713f2a;stroke-width:.987" d="M599.79 279.88a11.112 11.112 0 0 0-4.12 8.94c0 4.842 4.05 12.75 14.001 15.55 3.814 1.072 7.458.971 9.74-.417M375.61 287.8a14.64 14.64 0 0 0-7.55 5.395c-1.856 2.63-2.938 6.286-3.608 9.485a31.009 31.009 0 0 0 .252 10.41 24.593 24.593 0 0 0 3.602 8.806 12.38 12.38 0 0 0 1.62 1.932 17.35 17.35 0 0 0 1.774 1.373M471.72 469.02c7.576 3.359 13.13 5.875 17.839 13.31a15.466 15.466 0 0 1 1.866 7.62 15.863 15.863 0 0 1-5.21 11.894 12.946 12.946 0 0 1-10.417 3.188c-3.007-.295-5.831-2.488-6.298-4.043M396.88 325.2c4.276 3.343 6.064 6.586 6.064 11.74a13.056 13.056 0 0 1-6.22 11.662"/><path style="fill:none;stroke:#713f2a;stroke-width:.987;stroke-linecap:round" d="M392.99 344.41c6.375 7.93 9.758 12.637 9.952 22.08.181 8.863-2.644 14.927-7.93 21.303"/><path style="fill:none;stroke:#713f2a;stroke-width:.987" d="M515.23 239.57a6.422 6.422 0 0 0 2.497-3.485c.753-2.325.77-4.308-.474-6.096 1.534 2.009 1.675 3.705 1.243 6.142-.274 1.552-1.264 2.369-2.497 3.485M596.4 374.24v25.241h.067a38.317 38.317 0 0 1-.212 3.887c-.133.983-.272 1.87-.429 2.703"/><path style="fill:none;stroke:#713f2a;stroke-width:.987" d="M595.96 371.81v27.223h.067a38.001 38.001 0 0 1-.212 3.887c-.21 1.563-.437 2.887-.729 4.125m.874-67.105v22.702m.44-20.912v18.463m0-41.943v13.841m-.44-15.471v17.064m.44-29.584v5.37m-.44-6.46v7.776m-2.88 101.864c-.165.35-.342.71-.53 1.084a29.223 29.223 0 0 1-6.53 8.863 30.67 30.67 0 0 1-9.097 6.376 38.43 38.43 0 0 1-10.263 3.42 52.321 52.321 0 0 1-10.73 1.322c-3.305.136-6.615.05-9.908-.255-4.128-.285-6.417-.86-10.538-1.222a83.094 83.094 0 0 0-8.743-.566 44.786 44.786 0 0 0-8.984.644 34.39 34.39 0 0 0-8.086 2.254c-4.197 1.7-8.94 4.665-9.951 5.987-1.011-1.322-5.754-4.286-9.952-5.987a34.376 34.376 0 0 0-8.086-2.254 44.7 44.7 0 0 0-8.983-.644c-2.922.034-5.84.223-8.743.566-4.122.362-6.41.937-10.538 1.222a74.199 74.199 0 0 1-9.91.255 52.238 52.238 0 0 1-10.729-1.321 38.717 38.717 0 0 1-10.263-3.421 30.584 30.584 0 0 1-9.096-6.376 34.17 34.17 0 0 1-3.858-4.355m-3.142-4.982a15.778 15.778 0 0 1-3.523 12.034c-1.321 1.4-4.2 4.074-7.775 4.12-5.908.078-7.672-3.986-8.03-4.975"/><path style="fill:none;stroke:#713f2a;stroke-width:.987" d="M399.4 410.7a16.056 16.056 0 0 1 2.893 3.965c1.477 2.799 1.022 7.48-.148 9.64-.142.26-.3.51-.475.749M370.04 453.2c3.514 3.687 8.828 7.692 16.99 11.052 11.161 4.595 28.3 5.654 40.118 6.12 15.715.62 30.193 1.266 39.01 10.998m27.132-6.36c2.598 2.556 5.247 5.295 6.366 8.798M488.18 501.7a13.701 13.701 0 0 1-11.501 4.217 9.655 9.655 0 0 1-6.685-4.025m-8.364-4.542c.145.198.297.39.457.577a11.882 11.882 0 0 0 7.978 3.833m41.985-.12c-2.022 3.11-6.842 7.774-11.895 9.64-5.054-1.866-9.874-6.53-11.896-9.64l-.472-.727m24.343.707c.362.394.748.764 1.156 1.11a12.952 12.952 0 0 0 10.418 3.186 8.544 8.544 0 0 0 6.36-4.043c.303-.33.539-.715.692-1.136"/><path style="fill:none;stroke:#713f2a;stroke-width:.987" d="m529.75 500.99-1.16 1.867-1.766 1.463-2.674 1.11-2.421.1"/><path style="fill:none;stroke:#713f2a;stroke-width:.987" d="M536.03 483.22a12.025 12.025 0 0 1 3.599 4.534c.478 1.177.745 2.429.787 3.698a9.148 9.148 0 0 1-2.222 6.474 11.745 11.745 0 0 1-8.43 3.866c-.246.01-.491.011-.734 0m.29-.442a10.668 10.668 0 0 1-8.092-3.375M620.72 391.93a37.113 37.113 0 0 1-7.507-10.077 29.381 29.381 0 0 1-2.672-6.992 25.877 25.877 0 0 1-.78-5.211 40.13 40.13 0 0 1 .964-9.722 32.63 32.63 0 0 1 6.376-14.15 17.186 17.186 0 0 1 3.25-3.488M618.2 223.83c3.965.31 7.639 4.58 7.59 8.764-.07 6.078-2.108 8.59-6.89 14.545-4.12 5.131-16.482 14.15-16.171 22.78a8.51 8.51 0 0 0 1.802 4.39m-4.941 5.411a10.854 10.854 0 0 0 3.207 2.156 7.845 7.845 0 0 0 6.654-.443M576.37 213.9a9.443 9.443 0 0 1 3.415 4.061c2.908 7.02-3.42 12.284-9.252 16.25a33.35 33.35 0 0 1-12.968 5.128"/><path style="fill:none;stroke:#713f2a;stroke-width:.987" d="M569.69 227.43a6.527 6.527 0 0 1-4.92-2.34 5.236 5.236 0 0 1-1.106-1.552M540.45 231.2a7.243 7.243 0 0 1-2.063-1.504 6.393 6.393 0 0 1-1.242-6.853c.987-2.963 5.746-11.274 5.98-17.027.356-8.79-3.025-13.977-8.313-16"/><path style="fill:none;stroke:#713f2a;stroke-width:.987;stroke-linecap:round" d="m542.68 203.85-.206 3.305-.895 3.374-1.722 4.613-1.308 2.96-1.377 2.961-.688 2.066-.276 1.515.207 1.446M595.81 423.4c.235.485.55.927.933 1.306 1.01 1.687 4.94 4.655 8.514 4.701 5.91.078 7.312-4.057 7.464-4.975.746-4.509-.796-5.743-3.11-7.013a5.266 5.266 0 0 0-2.994-.433"/><path style="fill:none;stroke:#713f2a;stroke-width:.987" d="M370.23 403.67c-1.88.535-3.87.546-5.757.033-4.423-1.326-8.007-5.564-6.18-10.829m20.917-49.724c.395.47.624 1.057.653 1.67.683 5.732-4.34 7.402-7.916 6.469a8.8 8.8 0 0 1-4.71-3.56 7.354 7.354 0 0 1-.963-3.6m34.466-36.979a7.555 7.555 0 0 1 1.931 2.757M400.9 296.6a5.98 5.98 0 0 1 1.825 2.042"/><path style="fill:none;stroke:#713f2a;stroke-width:.987;stroke-linecap:round" d="M402.91 303.94a13.232 13.232 0 0 1-2.43 3.718 19.316 19.316 0 0 1-13.716 6.26c-3.35.098-6.646-.86-9.422-2.736a14.896 14.896 0 0 1-6.377-8.715"/><path style="fill:none;stroke:#713f2a;stroke-width:.987" d="M399.11 280.13a12.11 12.11 0 0 1 3.698 5.295"/><path style="fill:none;stroke:#713f2a;stroke-width:.987;stroke-linecap:round" d="M402.86 292.56a18.421 18.421 0 0 1-13.473 12.248c-3.804.964-8.702-.241-10.374-1.664"/><path style="fill:none;stroke:#713f2a;stroke-width:.987" d="M375.06 291.49c.417 4.12 3.174 7.209 8.401 7.308 7.35.138 11.818-10.574 5.287-18.094"/><path style="fill:none;stroke:#713f2a;stroke-width:.987;stroke-linecap:round" d="M358.52 327.39a25.41 25.41 0 0 0 3.63 3.636 26.224 26.224 0 0 0 9.272 5.153m8.248.771c6.569-.789 10.272-5.684 9.538-11.41-.56-4.363-4.563-7.718-7.285-7.912"/><path style="fill:none;stroke:#713f2a;stroke-width:.987" d="M390.39 268.92a4.463 4.463 0 0 1 4.444 4.665"/><path style="fill:none;stroke:#713f2a;stroke-width:.987;stroke-linecap:round" d="M389.72 229.81a17.95 17.95 0 0 0 7.86 9.099m225.28 48.381c2.686 3.679.927 10.932-6.379 11.07a8.104 8.104 0 0 1-6.94-3.924"/><path style="fill:none;stroke:#713f2a;stroke-width:.987" d="M596.4 239.25v24.686"/><path style="fill:none;stroke:#713f2a;stroke-width:.987;stroke-linecap:round" d="M380.87 291.14c2.255 1.632 5.15-1.124 4.03-4.05-.757-1.975-3.563-4.106-7.45-1.463-4.294 2.92-3.11 12.13 5.13 12.284 7.35.139 11.819-10.574 5.287-18.093-6.282-7.234-17.727-5.542-25.19.396a33.432 33.432 0 0 0-11.04 18.164 34.315 34.315 0 0 0-.912 7.93 35.44 35.44 0 0 0 5.562 18.276c.6.913 1.282 1.77 2.037 2.56a39.204 39.204 0 0 0 2.954 3.032c4.223 3.515 9.665 6.27 16.327 5.987 7.308-.311 11.507-5.442 10.729-11.507-.754-5.88-6.69-8.805-10.574-6.064-2.644 1.866-3.584 7.644 1.088 9.018 2.644.778 4.976-2.565 3.11-4.509M584.4 210.68c4.218-2.29 7.47-1.867 9.874 1.47a15.455 15.455 0 0 1 2.41 11.28c-.855 4.199-2.068 5.942-5.407 8.988"/><path style="fill:none;stroke:#713f2a;stroke-width:.987;stroke-linecap:round" d="M594.58 212.55c4.82-3.187 10.041-1.834 12.906 2.41 2.1 3.11 2.636 5.712 2.488 9.563a17.553 17.553 0 0 1-8.941 14.383"/><path style="fill:none;stroke:#713f2a;stroke-width:.987" d="M617.28 223.67a8.052 8.052 0 0 1 7.153 8.086c0 5.986-1.671 8.583-6.454 14.539-4.12 5.131-16.482 14.15-16.17 22.78.117 3.263 2.868 6.338 5.241 6.51"/><path style="fill:none;stroke:#713f2a;stroke-width:.987;stroke-linecap:round" d="M617.75 291.14c-2.255 1.632-5.131-1.004-3.887-3.803.859-1.932 3.42-4.353 7.308-1.71 4.293 2.92 3.11 12.13-5.131 12.284-7.35.139-12.317-10.297-5.287-18.093 6.416-7.116 18.315-5.723 25.778.214 3.176 2.527 9.566 9.466 10.936 18.573 1.658 11.02 1.445 24.575-9.937 32.922a26.908 26.908 0 0 1-16.516 4.637c-7.308-.32-11.506-5.443-10.729-11.507.754-5.88 6.416-8.368 10.574-6.065 4.32 2.393 3.565 8.466-1.088 9.019-2.736.325-4.976-2.566-3.11-4.51"/><path style="fill:none;stroke:#713f2a;stroke-width:.987" d="M613.86 287.34c1.212-5.454 5.885-5.962 9.658-5.907 10.296.151 17.416 12.364 17.535 24.178.15 14.923-6.334 23.711-17.241 24.178-2.823.121-7.684-1.221-7.768-4.665"/><path style="fill:none;stroke:#713f2a;stroke-width:.987;stroke-linecap:square" d="M620.2 284.9c10.858 2.413 14.67 12.196 14.67 21.532 0 7.616-.754 18.022-15.575 21.682"/><path style="fill:none;stroke:#713f2a;stroke-width:.987" d="M638.11 389.58a6.103 6.103 0 1 0-9.788 3.66"/><path style="fill:none;stroke:#713f2a;stroke-width:.987;stroke-linecap:round" d="M616.33 380.33a25.822 25.822 0 0 0 9.74 9.238m-1.96 16.482c-5.12-3.359-14.838-7.761-23.624-3.428-3.259 1.608-5.442 3.597-6.675 6.84a15.518 15.518 0 0 0 2.788 14.949c1.321 1.4 4.2 4.074 7.774 4.12 5.91.079 7.314-4.056 7.464-4.975.7-4.276-1.788-5.987-3.11-6.453-1.014-.358-4.312-.266-5.012 2.065a4.174 4.174 0 0 0 .348 3.144"/><path style="fill:none;stroke:#713f2a;stroke-width:.987;stroke-linecap:round" d="M531.99 488.16c1.633 3.343-.224 5.024-2.488 5.287-3.343.388-5.131-2.255-5.364-4.665a6.866 6.866 0 0 1 6.842-7.386 8.674 8.674 0 0 1 7.764 5.477c.478 1.176.745 2.428.788 3.697a9.147 9.147 0 0 1-2.223 6.474 11.744 11.744 0 0 1-8.43 3.866c-6.599.265-11.739-5.908-11.739-12.206 0-12.05 17.872-18.623 24.957-20.314 8.708-2.077 14.006-2.855 27.99-3.632 5.597-.311 9.697-.153 15.86-.792a94.328 94.328 0 0 0 14.072-2.162 42.582 42.582 0 0 0 19.592-9.952c4.55-4.131 7.153-7.075 9.26-12.75 1.817-4.898 2.653-14.596-1.951-21.77a22.402 22.402 0 0 0-16.171-10.565c-5.83-.843-10.942 1.672-13.995 7.456-1.477 2.8-1.022 7.48.148 9.64a9.373 9.373 0 0 0 7.47 4.666c5.91.078 7.314-4.057 7.465-4.976.7-4.276-1.788-5.987-3.11-6.453-1.014-.358-4.312-.266-5.012 2.065a4.178 4.178 0 0 0 .347 3.144"/><path style="fill:none;stroke:#713f2a;stroke-width:.987;stroke-linecap:round" d="M526.9 469.02c-7.576 3.359-13.13 5.875-17.839 13.31a15.466 15.466 0 0 0-1.866 7.62 15.863 15.863 0 0 0 5.21 11.894 12.947 12.947 0 0 0 10.417 3.188c3.007-.295 5.832-2.488 6.298-4.043"/><path style="fill:none;stroke:#713f2a;stroke-width:.987" d="M601.73 325.2c-3.545 1.183-6.064 6.586-6.064 11.74a13.056 13.056 0 0 0 6.22 11.662"/><path style="fill:none;stroke:#713f2a;stroke-width:.987;stroke-linecap:round" d="M605.62 344.41c-6.375 7.93-9.758 12.637-9.952 22.08-.182 8.863 2.644 14.927 7.93 21.303"/><path style="fill:none;stroke:#713f2a;stroke-width:.987" d="m571.64 212.58.547-.81c2.644-3.887 7.312-4.911 10.73-2.332 4.12 3.11 5.16 8.402 4.042 13.994a13.572 13.572 0 0 1-6.325 8.521"/><path style="fill:none;stroke:#713f2a;stroke-width:.987;stroke-linecap:round" d="M414.22 210.68c-4.043-1.866-7.371-1.507-9.874 1.47-2.877 3.421-2.986 8.453-2.41 11.28.855 4.199 2.068 5.942 5.407 8.988"/><path style="fill:none;stroke:#713f2a;stroke-width:.987" d="M404.03 212.55c-4.82-3.187-10.041-1.834-12.906 2.41-2.1 3.11-2.636 5.712-2.488 9.563a17.553 17.553 0 0 0 8.941 14.383"/><path style="fill:none;stroke:#713f2a;stroke-width:.987" d="M390.12 216.81a10.649 10.649 0 0 0-9.4 10.433c0 6.92 1.703 9.718 5.59 15.005 3.897 5.299 16.638 15.005 16.638 26.045 0 6.686-1.866 10.962-6.686 13.139-3.108 1.404-6.742-.116-8.397-1.61-4.043-3.655-2.426-10.063 1.788-10.829 5.131-.933 6.096 7.145 1.089 6.609"/><path style="fill:none;stroke:#713f2a;stroke-width:.987" d="M381.33 223.67c-3.965.31-7.867 3.723-7.867 7.908 0 5.986 2.385 8.761 7.167 14.716 4.121 5.131 15.762 13.972 15.451 22.602-.117 3.263-2.31 7.253-4.488 6.786"/><path style="fill:none;stroke:#713f2a;stroke-width:.987;stroke-linecap:round" d="M372 343.94c1.866-4.51 6.686-2.488 6.983 0 .683 5.732-4.34 7.464-7.916 6.53a6.215 6.215 0 0 1-3.896-3.03 7.548 7.548 0 0 1-.61-5.824 7.66 7.66 0 0 1 1.326-2.581 7.744 7.744 0 0 1 1.999-1.89c1.375-.878 2.874-.965 5.224-.965 8.708 0 16.327 10.289 18.886 20.977a46.046 46.046 0 0 1 .396 18.815 35.044 35.044 0 0 1-9.16 17.585 39.21 39.21 0 0 1-8.99 6.435 38.761 38.761 0 0 1-6.496 2.683 10.953 10.953 0 0 1-6.158.142c-4.423-1.327-7.262-5.46-4.96-10.83 1.792-4.18 8.397-6.219 11.351-1.088a5.1 5.1 0 0 1 .628 2.411 4.647 4.647 0 0 1-1.561 3.64c-2.246 1.428-5.838 1.024-5.671-2.941"/><path style="fill:none;stroke:#713f2a;stroke-width:.987" d="M365.24 397.49c1.633.63 2.526.544 4.557-.358.834-.37 1.789-.943 2.907-1.578 3.98-2.261 8.708-5.824 13.139-14.143a29.381 29.381 0 0 0 2.672-6.992 25.87 25.87 0 0 0 .78-5.212 40.058 40.058 0 0 0-.964-9.72 31.606 31.606 0 0 0-6.376-14.15c-1.795-2.463-3.343-3.966-6.686-4.043M360.51 389.58a6.103 6.103 0 1 1 9.788 3.66"/><path style="fill:none;stroke:#713f2a;stroke-width:.987" d="M362.88 383.51a5.72 5.72 0 0 1 11.377.99 5.926 5.926 0 0 1-1.615 4.085"/><path style="fill:none;stroke:#713f2a;stroke-width:.987" d="M374.02 383.2a24.285 24.285 0 0 0 9.718-19.274c.036-6.474-2.565-13.061-5.597-15.627"/><path style="fill:none;stroke:#713f2a;stroke-width:.987;stroke-linecap:round" d="M382.29 380.33a25.822 25.822 0 0 1-9.74 9.238"/><path style="fill:none;stroke:#713f2a;stroke-width:.987" d="M397.81 402.63c-1.449-3.409-4.329-4.985-9.019-5.486-4.662-.497-8.698.784-12.828 3.005-8.06 4.335-12.554 8.995-15.55 17.641a26.878 26.878 0 0 0-1.303 9.021c.14 5.604 1.563 11.73 3.091 14.692 1.334 2.584 4.82 13.994 23.946 21.868 11.161 4.595 28.3 5.654 40.118 6.12 16.256.642 31.255 1.245 39.962 11.973"/><path style="fill:none;stroke:#713f2a;stroke-width:.987;stroke-linecap:round" d="M374.5 406.05c5.12-3.359 14.838-7.761 23.624-3.428 3.259 1.608 5.442 3.597 6.675 6.84a15.52 15.52 0 0 1-2.788 14.949c-1.321 1.4-4.2 4.074-7.775 4.12-5.908.079-7.313-4.056-7.463-4.975-.7-4.276 1.788-5.987 3.11-6.453 1.014-.358 4.312-.266 5.011 2.065a4.174 4.174 0 0 1-.347 3.144"/><path style="fill:none;stroke:#713f2a;stroke-width:.987" d="M394.86 421.45a5.271 5.271 0 0 0-1.321-5.209 8.012 8.012 0 0 0-9.175-1.4 11.608 11.608 0 0 0-3.965 3.266c-.502.665-1.35 1.739-1.788 2.488a19.356 19.356 0 0 0-1.704 3.887c-3.845 10.928 2.413 22.532 10.256 27.522 6.842 4.354 13.84 5.598 22.47 6.375 3.993.36 6.256.437 10.263.623 3.223.149 6.008.096 8.63.064 2.157-.027 4.204-.016 6.296-.064 3.758-.14 7.521-.089 11.274.155 4.55.331 7.973.448 11.818 1.089 2.512.418 5.456.822 8.543 1.515.926.207 1.865.377 2.808.661.635.192 1.26.386 1.882.575a62.332 62.332 0 0 1 15.257 6.521c1.38.77 2.678 1.678 3.877 2.708.796.795 1.472 1.256 2.123 1.898 2.99 2.941 6.048 6.126 6.763 10.438.112.83.156 1.67.132 2.507 0 2.798-2.278 6.608-8.42 7.852"/><path style="fill:none;stroke:#713f2a;stroke-width:.987" d="M466.62 488.16c-1.633 3.343.224 5.024 2.488 5.287 3.343.388 5.131-2.255 5.364-4.665a6.866 6.866 0 0 0-6.842-7.386 8.674 8.674 0 0 0-7.764 5.477 10.797 10.797 0 0 0-.788 3.697 9.147 9.147 0 0 0 2.223 6.474 11.742 11.742 0 0 0 8.429 3.866c6.6.265 11.74-5.908 11.74-12.206 0-12.05-17.873-18.623-24.957-20.314-8.708-2.077-14.006-2.855-27.99-3.632-5.597-.311-9.697-.153-15.86-.792a94.357 94.357 0 0 1-14.073-2.162 42.582 42.582 0 0 1-19.592-9.952c-4.55-4.131-7.153-7.075-9.26-12.75-1.817-4.898-2.652-14.596 1.951-21.77a22.402 22.402 0 0 1 16.172-10.565c5.83-.843 10.942 1.672 13.995 7.456 1.478 2.8 1.022 7.48-.148 9.64a9.373 9.373 0 0 1-7.471 4.666c-5.91.078-7.313-4.057-7.464-4.976-.7-4.276 1.788-5.987 3.11-6.453 1.014-.358 4.312-.266 5.012 2.065a4.178 4.178 0 0 1-.347 3.144"/><path style="fill:none;stroke:#713f2a;stroke-width:.987;stroke-linecap:round" d="m426.97 212.58-.547-.81c-2.644-3.887-7.312-4.911-10.73-2.332-4.12 3.11-5.16 8.402-4.042 13.994a13.574 13.574 0 0 0 6.324 8.521"/><path style="fill:none;stroke:#713f2a;stroke-width:.987" d="M573.04 224.37c-6.298 6.842-12.595 9.026-22.003 9.33-2.938.095-8.552-.933-11.818-3.258-2.098-1.494-4.432-4.05-2.954-8.482.987-2.962 5.746-11.273 5.98-17.027.355-8.79-3.026-13.606-8.313-15.472-9.774-3.45-20.267 6.211-26.589 8.319a21.347 21.347 0 0 1-8.008 1.243 21.628 21.628 0 0 1-8.068-1.243c-6.323-2.108-16.816-11.77-26.59-8.32-5.287 1.867-8.668 6.683-8.312 15.473.234 5.753 4.992 14.064 5.98 17.027 1.477 4.431-.857 6.988-2.955 8.481-3.265 2.326-8.88 3.353-11.818 3.259-9.407-.304-15.705-2.488-22.003-9.33"/><path style="fill:none;stroke:#713f2a;stroke-width:.987;stroke-linecap:round" d="M464.58 466.27c1.246.487.303-.295 8.195 3.203 7.576 3.359 12.954 6.3 17.663 13.736a15.464 15.464 0 0 1 1.866 7.62 16.649 16.649 0 0 1-.459 3.841"/><path style="fill:none;stroke:#713f2a;stroke-width:.987" d="M465.09 500.06a12.52 12.52 0 0 0 5.081 1.29c6.6.264 11.74-5.91 11.74-12.207 0-4.366-2.377-8.044-5.706-11"/><path style="fill:none;stroke:#713f2a;stroke-width:.987;stroke-linecap:round" d="M466.52 488.15c-1.594 3.553.677 5.475 2.94 5.738a4.911 4.911 0 0 0 5.458-4.665 6.981 6.981 0 0 0-3.278-6.485"/><path style="fill:none;stroke:#713f2a;stroke-width:.987" d="M609.53 216.87c5.018 0 9.394 5.585 9.394 11.317 0 6.605-3.513 10.648-6.087 13.705-2.072 2.46-4.316 4.663-6.982 7.348"/><path style="fill:none;stroke:#713f2a;stroke-width:.987;stroke-linecap:round" d="M603.58 211.58a10.827 10.827 0 0 1 4.346 3.819c2.099 3.11 2.633 5.712 2.487 9.563-.249 6.6-4.998 11.17-9.246 13.959m-7.457-27.341c.36.31.695.65 1 1.014 2.877 3.421 3.1 8.478 2.41 11.281-1.035 4.213-2.427 6.029-5.846 8.549m-7.914-22.574c4.12 3.11 5.346 8.489 3.98 14.026-.975 3.957-3.463 6.328-6.565 8.217m17.385 64.187c.493 1.447 1.306 1.949 2.332 3.022a21.14 21.14 0 0 0 9.623 5.504c3.334.98 6.928.482 9.87-1.367M365.29 387.87c1.937-.035 3.869 1.273 5.133 3.468.406.739.621 1.567.628 2.41a4.277 4.277 0 0 1-1.593 3.453c-2.245 1.43-6.232.815-6.065-3.15"/><path style="fill:none;stroke:#713f2a;stroke-width:.987" d="M377.33 336.4c7.703 1.438 15.119 10.729 17.546 20.865a46.03 46.03 0 0 1 .396 18.815 35.044 35.044 0 0 1-9.16 17.585 25.794 25.794 0 0 1-3.323 2.855l-1.643 1.113M368.76 378.67c3.164 0 5.934 3.032 5.934 6.273a5.926 5.926 0 0 1-1.615 4.085"/><path style="fill:none;stroke:#713f2a;stroke-width:.987" d="M366.62 382.35a6.84 6.84 0 0 1 6.433 6.546 6.091 6.091 0 0 1-2.316 4.786"/><path style="fill:none;stroke:#713f2a;stroke-width:.987;stroke-linecap:round" d="M396.84 349.2c3.027 4.063 5.025 7.561 5.954 12.07m-.104 13.26a26.981 26.981 0 0 1-2.264 6.322 27.865 27.865 0 0 1-5.552 7.253"/><path style="fill:none;stroke:#713f2a;stroke-width:.987" d="M397.32 325.52a14.58 14.58 0 0 1 5.501 7.469"/><path style="fill:none;stroke:#713f2a;stroke-width:.987;stroke-linecap:round" d="M402.9 317.92c-.767 2.66-2.506 4.674-5.266 7.193M383.33 298.27l3.369-.886 1.994-1.508 1.285-1.817 1.108-2.837.444-2.305"/><path style="fill:none;stroke:#713f2a;stroke-width:.987" d="M376.51 286.41a20.238 20.238 0 0 0-3.824 1.333 13.968 13.968 0 0 0-5.506 4.576c-1.856 2.63-2.938 6.286-3.608 9.484a30.98 30.98 0 0 0 .252 10.41 24.623 24.623 0 0 0 3.601 8.807 14.314 14.314 0 0 0 1.621 2.087c2.022 2.021 3.888 3.265 6.997 2.643"/><path style="fill:none;stroke:#713f2a;stroke-width:.987;stroke-linecap:round" d="M395.38 271.58c-.546 2.007-1.625 4.493-4.774 4.221"/><path style="fill:none;stroke:#713f2a;stroke-width:.987" d="M383.87 285.2c-3.024-2.956-9.43-3.726-15.798.302a24.118 24.118 0 0 0-2.448 1.859 13.847 13.847 0 0 0-2.25 2.482 28.056 28.056 0 0 0-2.182 3.8 19.624 19.624 0 0 0-1.474 4.142 31.693 31.693 0 0 0-1.02 9.776c.176 1.513.32 2.903.567 4.182a29.13 29.13 0 0 0 3.475 9.656c1.407 2.333 4.906 7.69 12.058 8.397 2.811.278 7.612-1.01 7.768-4.665"/><path style="fill:none;stroke:#713f2a;stroke-width:.987;stroke-linecap:round" d="M568.38 220.42c.478-2.581 3.59-3.08 4.758-1.555 1.8 2.348.61 6.382-3.051 7.526a5.893 5.893 0 0 1-5.987-2.177 6.776 6.776 0 0 1 1.866-9.64c4.251-3.234 11.118-2.488 13.372 2.954 2.909 7.02-3.42 12.284-9.252 16.249-7.34 4.992-15.705 5.9-22.003 5.831-14.306-.156-25.19-6.997-32.265-10.884-1.648-.906-3.345-.72-4.198.31a3.116 3.116 0 0 0 .389 4.277"/><path style="fill:none;stroke:#713f2a;stroke-width:.987;stroke-linecap:round" d="M571.26 218a2.626 2.626 0 0 1 2.387 1.267c1.8 2.348.485 6.383-3.176 7.526m27.869 80.537c-5.45 5.933-.437 16.116 3.636 18.418 1.41 1.097 2.013.515 3.14 1.175"/><path style="fill:none;stroke:#713f2a;stroke-width:.987" d="M598.63 295.99c-1.788 1.244-2.418 2.642-2.488 5.07a8.195 8.195 0 0 0 2.203 6.272c2.972 3.092 8.786 5.784 14.42 5.855 3.35.097 6.645-.86 9.422-2.736a14.156 14.156 0 0 0 5.987-8.397M595.58 398.6a38.001 38.001 0 0 1-.212 3.887 32.805 32.805 0 0 1-9.795 19.671 30.697 30.697 0 0 1-9.097 6.375 38.43 38.43 0 0 1-10.263 3.42 52.325 52.325 0 0 1-10.73 1.322c-3.305.135-6.615.05-9.909-.254-4.127-.286-6.417-.86-10.538-1.223a83.342 83.342 0 0 0-8.743-.566 44.776 44.776 0 0 0-8.983.644 34.33 34.33 0 0 0-8.086 2.255c-4.198 1.7-8.94 4.664-9.952 5.986-1.01-1.322-5.754-4.286-9.952-5.986a34.385 34.385 0 0 0-8.085-2.255 44.787 44.787 0 0 0-8.984-.644c-2.922.034-5.84.223-8.743.566-4.12.362-6.41.937-10.538 1.223-3.294.306-6.605.39-9.91.254a52.454 52.454 0 0 1-10.728-1.321 38.431 38.431 0 0 1-10.263-3.421 30.666 30.666 0 0 1-9.097-6.375 32.814 32.814 0 0 1-9.796-19.671 37.993 37.993 0 0 1-.212-3.887V239.58h192.55V398.6h.066z"/><g><path style="fill:#c6aa76;stroke:#c7b37f;stroke-width:.513" d="M387.41 421.32a3.907 3.907 0 0 1 7.814-.009v.009a3.907 3.907 0 0 1-7.814 0zm-23.99-27.61c0-1.932 1.236-3.499 2.76-3.499s2.76 1.567 2.76 3.499-1.236 3.499-2.76 3.499-2.76-1.567-2.76-3.499z"/><path style="fill:#c6aa76" d="M377.05 324.36a2.673 2.673 0 1 1 2.665 2.873 2.775 2.775 0 0 1-2.665-2.873zm47.86-102.55a2.487 2.487 0 1 1 2.744 2.627 2.701 2.701 0 0 1-2.744-2.627z"/></g><g><path style="fill:none;stroke:#c7b37f;stroke-width:.987;stroke-linecap:round" d="M373.92 340.54a3.885 3.885 0 0 0-2.138 2.208 6.36 6.36 0 0 0-.381 1.858m7.369 41.794c.543-.658.87-1.012 1.391-1.687.384-.47.742-.961 1.073-1.47.344-.539.498-.867.801-1.43.428-.794.64-1.257 1.05-2.06m-1.975 21.777c-.925.425-1.472.612-2.371 1.088a24.12 24.12 0 0 0-1.71 1.003c-.775.484-1.208.767-1.945 1.307-.767.562-1.161.93-1.904 1.523m23.38-59.201c-.5-.515-.772-.817-1.283-1.321-.534-.528-.825-.839-1.4-1.322-.556-.469-.91-.683-1.492-1.12"/><path style="fill:none;stroke:#c7b37f;stroke-width:.987" d="M397.17 326.47c-.618.32-1.254.602-1.905.848-.751.278-1.54.44-2.34.482"/><path style="fill:none;stroke:#c7b37f;stroke-width:.987;stroke-linecap:round" d="M371 300.68c.173.787.39 1.563.653 2.325a12.18 12.18 0 0 0 1.446 2.666c.561.897 1.23 1.722 1.99 2.457.655.658 1.383 1.24 2.17 1.734.753.455 1.529.87 2.325 1.244m-1.544-9.156c.628.384 1.277.732 1.944 1.042.614.26 1.251.461 1.904.598.879.212 1.78.32 2.683.32a12.09 12.09 0 0 0 2.916-.234m11.203-63.526c-1.246-.728-2.008-1.046-3.196-1.866a19.085 19.085 0 0 1-2.923-2.371 14.597 14.597 0 0 1-1.811-2.022c-.563-.76-.778-1.257-1.275-2.06m11.715-7.111c.278.914.613 1.81 1.003 2.682a12.216 12.216 0 0 0 2.224 3.188c1.414 1.552 2.613 1.992 4.283 3.265m2.27-9.245c.28.824.612 1.629.995 2.41.364.68.8 1.318 1.299 1.905a11.467 11.467 0 0 0 2.099 2.06 22.803 22.803 0 0 0 2.939 1.75"/></g><path style="fill:#713f2a;stroke:#713f2a;stroke-width:.277" d="M520.78 211.91c-.08-2.649-2.69-2.924-3.69-2.924-2.885 0-3.666 1.8-7.265 3.732-4.512 2.424-6.455 2.962-10.466 2.998-4.01-.036-6.005-.575-10.517-2.998-3.6-1.932-4.205-3.674-7.091-3.674a3.639 3.639 0 0 0-3.513 3.832 6.48 6.48 0 0 0 .093 1.347c.047.204.296.14.374.32-.088-.948.2-1.894.8-2.633a3.415 3.415 0 0 1 2.54-1.313c2.885 0 3.953 1.851 7.553 3.784 4.512 2.423 6.453 2.962 10.464 2.998 4.01-.036 6.007-.575 10.519-2.998 3.6-1.933 4.634-3.938 7.52-3.938a2.12 2.12 0 0 1 2.032 1.667c.103.423.15.858.14 1.293.026.121.174.109.207.24.225-.549.327-1.14.3-1.733z"/><g><path style="fill:#713f2a" d="M413.12 434.42c.81-.872 1.423-.544 1.573-.946.11-.297-.13-.327-.46-.45-.44-.165-.906-.26-1.346-.424-.457-.17-.87-.405-1.327-.576-.189-.07-.625-.293-.75.04-.228.61 1.602.558.988 2.2a5.796 5.796 0 0 1-1.274 1.875l-4.141 4.507c-.093.104-.248.326-.342.29-.095-.035-.082-.309-.083-.45l.06-6.39a8.453 8.453 0 0 1 .303-2.636c.275-.734 1.12-.119 1.297-.59.111-.298.026-.31-.477-.498-.252-.094-.734-.195-1.74-.571-.536-.2-1.044-.47-1.563-.664-.236-.088-.672-.41-.828.01-.046.123.119.304.16.339.524.294.816.876.74 1.472l.114 11.635c.01.84.1 1.073.258 1.132.173.065.29-.011.633-.4l8.205-8.904v-.001z"/><path style="fill:#713f2a" d="M417.95 436.22c.533-1.69 1.532-.671 1.723-1.276.067-.214-.001-.275-.482-.426-.913-.288-1.512-.398-2.088-.58-.56-.177-1.163-.445-1.788-.642-.144-.046-.527-.225-.623.077-.196.623 1.77.695 1.26 2.314l-2.693 8.542c-.533 1.69-1.54.864-1.736 1.486-.028.09-.036.224.109.27.416.131 1.127.277 1.816.494 1.25.394 1.82.652 2.412.839.368.116.534.09.596-.106.18-.57-1.872-.316-1.182-2.505l2.676-8.487zm5.78 1.71c.318-1.073.817-.926 1.413-.75 1.626.483 2.135 2.073 1.616 3.827-.313 1.055-.706 2.028-3.153 1.303-.483-.143-1.079-.32-.946-.766l1.07-3.614zm-4.434 7.696c-.667 2.254-1.797 1.278-1.966 1.85-.106.358.248.404.425.457.805.238 1.631.405 2.5.663.677.2 1.09.4 1.364.481.37.11.53.04.579-.12.19-.644-1.621-.383-1.054-2.297l.917-3.095c.185-.626.126-.78.979-.527.805.238 1.047.485 1.184 1.382l.515 3.227c.192 1.186.374 2.465 1.645 2.842.644.19 1.824.112 1.988-.443a.247.247 0 0 0-.168-.322c-.16-.048-.353.011-.514-.036a.617.617 0 0 1-.495-.458c-.491-2.597-1.092-5.596-1.06-5.704.053-.179.568-.201 1.156-.475a2.965 2.965 0 0 0 1.596-1.96c.244-.822.67-3.44-2.856-4.484-1.08-.32-2.195-.572-3.274-.892-1.014-.3-1.122-.41-1.862-.63-.193-.056-.38-.015-.434.164-.19.644 1.76.502 1.167 2.505l-2.332 7.872zm13.164 3.854c-.518 2.159-2.154.845-2.324 1.552-.096.4.186.448.48.519.653.156 1.21.213 2.303.476 1.094.263 1.615.465 2.269.622.473.113.787.246.891-.19.122-.507-2.094-.483-1.558-2.715l1.968-8.2c.21-.87.395-.922 1.064-.76l1.388.332c1.895.378.889 2.267 1.542 2.423.425.102.415-.648.435-.874l.22-1.712c.028-.185.089-.44-.156-.498-1.518-.365-2.63-.555-5.014-1.127-2.384-.573-3.46-.908-4.978-1.272-.245-.06-.306.195-.366.372l-.836 2.332c-.09.228-.283.604.06.686.734.176.815-2.318 2.66-1.875l1.372.33c.669.16.81.29.601 1.161l-2.02 8.418h-.001zm19.84-5.06c.646-1 1.306-.782 1.385-1.204.057-.312-.184-.3-.53-.364-.463-.086-.939-.098-1.401-.184-.479-.089-.928-.248-1.406-.337-.198-.037-.667-.18-.732.168-.119.643 1.675.273 1.355 1.997a5.752 5.752 0 0 1-.93 2.067l-3.295 5.158c-.073.119-.187.364-.286.345-.1-.018-.134-.29-.16-.428l-1.052-6.305a8.498 8.498 0 0 1-.158-2.648c.143-.77 1.083-.311 1.175-.807.057-.312-.029-.309-.557-.407-.264-.05-.756-.064-1.813-.26-.561-.104-1.11-.281-1.654-.382-.248-.046-.732-.288-.814.152-.024.129.17.279.217.306.566.2.955.722.984 1.321l2.132 11.44c.155.825.286 1.039.451 1.07.182.034.285-.061.555-.505l6.534-10.193zm.93 10.51c.009.456-.032.6.363.78.848.496 1.756.884 2.702 1.152 2.169.362 3.967-1.02 4.37-3.43.391-2.338-.57-3.312-2.197-4.473-2.037-1.457-2.908-1.85-2.702-3.082a1.775 1.775 0 0 1 2.162-1.624c2.849.476 2.524 3.94 2.905 4.004.364.061.45-.151.486-.562l.23-2.496c.038-.429.134-.697-.115-.738-.215-.036-.679.19-.894.153-.496-.083-1.072-.917-2.43-1.144-1.938-.325-3.521 1-3.875 3.116-.324 1.932.533 2.813 1.84 3.75 2.448 1.753 3.452 2.167 3.19 3.731a2.234 2.234 0 0 1-2.68 1.973c-1.838-.308-2.585-2.154-2.82-4.01-.025-.25-.03-.42-.296-.465-.414-.069-.337.492-.33.758l.091 2.607zm24.72-6.97c.538-1.062 1.217-.915 1.251-1.343.025-.316-.214-.279-.566-.306-.468-.037-.943 0-1.412-.036-.485-.038-.948-.15-1.433-.188-.201-.016-.682-.11-.71.243-.051.651 1.694.096 1.556 1.845a5.77 5.77 0 0 1-.708 2.152l-2.739 5.474c-.06.126-.148.381-.248.374-.1-.01-.164-.275-.204-.41l-1.704-6.16a8.467 8.467 0 0 1-.435-2.617c.062-.78 1.044-.423 1.084-.925.024-.316-.06-.304-.596-.346-.268-.02-.76.016-1.83-.07-.57-.044-1.133-.163-1.685-.207-.251-.02-.759-.21-.794.237-.011.13.199.26.247.282a1.474 1.474 0 0 1 1.118 1.21l3.316 11.154c.24.805.393 1.004.56 1.017.184.014.277-.091.499-.56l5.433-10.82z"/><path style="fill:#713f2a" d="M480.6 457c-.016 1.903-1.626 1.553-1.632 2.3-.002.317.334.226.519.228.453 0 .907-.067 1.444-.062.588.01 1.158.085 1.98.092.22 0 .639.024.64-.237.008-.877-2.152.373-2.12-3.21l.055-6.342c0-.168.036-.299.137-.298.084 0 .183.095.3.245l7.992 9.772a.494.494 0 0 0 .434.265c.202 0 .203-.147.206-.558l.092-10.466c.015-1.958 1.44-1.498 1.445-2.058 0-.056.002-.243-.317-.245-.15 0-.74.068-1.797.059-1.159-.011-1.645-.09-1.914-.091-.218 0-.27.184-.27.314-.006.616 2.045.298 2.03 1.996l-.054 6.213c-.005.466-.04.69-.14.689-.101-.001-.3-.227-.517-.49l-6.678-8.286c-.3-.358-.097-.486-.634-.491-.89-.01-1.327.063-1.764.059-.319 0-.62-.08-.94-.083a.282.282 0 0 0-.288.315c-.009.895 1.884-.301 1.852 3.28L480.6 457zm16.26-8.4c.016-1.772 1.27-1.09 1.274-1.724.002-.224-.08-.262-.585-.267-.957-.01-1.562.061-2.166.056-.588 0-1.242-.086-1.897-.09-.151-.002-.57-.062-.573.256-.005.653 1.802.147 1.788 1.845l.015 8.955c-.015 1.772-1.22 1.277-1.225 1.93-.001.093.031.224.182.225.437.01 1.16-.064 1.882-.058 1.31.011 1.93.091 2.55.097.387 0 .539-.07.54-.275.006-.597-1.882.245-1.862-2.05l.077-8.9zm7.04 8.67c.02 2.22-1.886 1.341-1.88 2.069.006.41.29.39.592.386.671-.01 1.225-.085 2.35-.095s1.68.06 2.351.054c.487 0 .824.05.82-.399-.005-.522-2.15.037-2.17-2.257l-.073-8.433c-.007-.895.16-.99.848-.996l1.427-.011c1.93-.091 1.411 1.984 2.083 1.978.436 0 .245-.73.21-.953l-.2-1.715c-.018-.187-.02-.448-.273-.446-1.561.014-2.686.098-5.137.12-2.452.02-3.577-.044-5.139-.03-.252 0-.25.263-.265.45l-.247 2.465c-.031.243-.128.654.224.651.756-.01.231-2.446 2.128-2.462l1.41-.014c.69-.01.858.086.866.98l.075 8.658zm9.78-3.53c-.301.024-.534.061-.549-.125-.001-.24.043-.479.13-.703l1.03-3.393c.067-.212.133-.236.166-.238.084-.01.034 0 .146.138l1.638 3.259c.12.208.201.436.238.673.013.186-.22.186-.523.21l-2.276.179zm2.874.784c.436-.034.534.146 1.2 1.553a3.5 3.5 0 0 1 .4 1.222c.09 1.135-1.115 1.024-1.073 1.563.02.26.236.206.537.183.485-.038 1.1-.162 1.835-.22 1.105-.087 1.563-.048 2.166-.096.452-.035.605-.01.58-.326-.048-.614-.895.183-1.535-1.096l-5.415-11.028c-.262-.54-.298-.575-.449-.563-.217.018-.273.377-.367.684l-3.65 11.61c-.337 1.074-1.2 1.03-1.166 1.458.02.242.284.183.518.165.485-.038.965-.151 1.467-.19.536-.043 1.044-.01 1.58-.05.351-.028.88.062.85-.329-.04-.502-1.824-.062-1.93-1.401.013-.507.093-1.01.236-1.497.288-1.258.634-1.36.92-1.382l3.297-.26zm12.976-7.734c-.168-1.276-.104-1.304 1.91-1.569 3.213-.423 2.2 1.912 2.982 1.81.383-.05.22-.65.171-.889l-.307-1.822a.342.342 0 0 0-.38-.308c-1.465.193-2.604.418-3.786.574-2.547.335-3.755.419-4.438.509a.332.332 0 0 0-.325.363c.098.74 1.901-.1 2.12 1.564l1.14 8.658c.297 2.256-1.1 1.424-.988 2.275.016.111.127.19.343.162.916-.12 1.606-.287 2.122-.355.732-.097 1.358-.103 1.99-.186.417-.055.776-.027.727-.397-.065-.5-1.885.21-2.156-1.843l-.36-2.738c-.142-1.073-.237-1.286.528-1.387l1.232-.162c1.732-.228 1.524 1.795 2.056 1.724.4-.053.212-.705.164-.943l-.55-3.277c-.082-.498-.26-.437-.377-.421-.333.044-.159 1.752-1.59 1.94l-1.05.139c-.715.094-.732-.035-.837-.831l-.34-2.59zm6.14 4.24c.69 3.724 3.378 5.787 6.697 5.172 5.267-.976 5.44-5.657 4.965-8.225-.72-3.89-3.62-5.8-6.833-5.166-3.939.767-5.574 4.201-4.829 8.219zm1.837-1.422c-.493-2.66-.137-5.345 2.643-5.917 2.123-.431 4.532 1.323 5.283 5.378.565 3.045.096 5.675-2.734 6.256-2.945.603-4.696-3.039-5.192-5.717zm13.023-6.498c-.261-1.089.245-1.21.849-1.355 1.65-.396 2.886.727 3.313 2.505.257 1.07.403 2.11-2.08 2.705-.49.118-1.093.263-1.202-.19l-.88-3.665zm.009 8.882c.549 2.286-.917 2.004-.778 2.585.087.363.417.226.596.183.817-.196 1.616-.465 2.498-.676.685-.165 1.143-.198 1.421-.265.376-.09.48-.23.44-.393-.156-.654-1.594.478-2.06-1.463l-.753-3.138c-.153-.635-.281-.74.584-.947a1.356 1.356 0 0 1 1.717.605l2.06 2.537c.758.931 1.555 1.949 2.845 1.64.653-.158 1.635-.816 1.5-1.378a.247.247 0 0 0-.306-.195c-.163.039-.3.187-.464.226a.618.618 0 0 1-.657-.149c-1.725-2.004-3.744-4.3-3.77-4.41-.044-.181.39-.458.764-.99.5-.73.648-1.644.403-2.494-.2-.835-1.141-3.314-4.717-2.456-1.094.263-2.187.602-3.281.864-1.028.247-1.177.206-1.928.386-.196.047-.337.177-.294.359.157.653 1.776-.446 2.264 1.586l1.916 7.983zm13.471-3.012c.556 2.15-1.505 1.758-1.323 2.462.102.398.374.308.667.232.65-.168 1.168-.379 2.257-.66 1.09-.282 1.645-.349 2.295-.517.471-.122.81-.152.698-.585-.13-.506-2.076.556-2.65-1.666l-2.112-8.164c-.224-.867-.085-1 .581-1.172l1.382-.358c1.851-.555 1.85 1.584 2.5 1.416.422-.11.061-.767-.027-.976l-.609-1.615c-.063-.177-.128-.43-.372-.367-1.512.392-2.582.746-4.956 1.36-2.373.613-3.481.822-4.993 1.214-.244.063-.179.316-.148.5l.356 2.452c.029.243.034.666.375.577.732-.189-.368-2.429 1.469-2.904l1.365-.353c.667-.172.853-.124 1.077.743l2.168 8.381zm8.59-11.46c-.474-1.708.92-1.397.75-2.009-.06-.215-.15-.229-.636-.095-.923.256-1.485.49-2.068.651-.566.157-1.217.26-1.848.435-.146.04-.565.098-.48.405.174.629 1.863-.382 2.316 1.254l2.394 8.63c.474 1.708-.821 1.564-.647 2.193.025.09.093.207.238.167.42-.117 1.097-.382 1.793-.575 1.262-.35 1.88-.444 2.48-.61.371-.103.497-.215.442-.413-.16-.576-1.742.754-2.356-1.458l-2.378-8.575zm3.58 4.17c1.202 3.592 4.15 5.261 7.352 4.19 5.08-1.7 4.6-6.36 3.771-8.836-1.255-3.751-4.391-5.24-7.485-4.166-3.793 1.31-4.934 4.937-3.638 8.812zm1.621-1.664c-.858-2.565-.879-5.273 1.794-6.227 2.043-.723 4.672.68 5.98 4.59.983 2.937.885 5.606-1.836 6.576-2.833 1.006-5.074-2.356-5.938-4.939zm11.919-8.466c-.41-1.041.074-1.232.652-1.46 1.578-.622 2.96.318 3.63 2.02.403 1.024.692 2.033-1.683 2.968-.469.185-1.047.412-1.218-.023l-1.381-3.506v.001zm1.245 8.794c.861 2.187-.63 2.113-.411 2.669.136.347.444.166.616.098.781-.308 1.535-.685 2.378-1.017.657-.259 1.106-.355 1.371-.46.36-.142.444-.295.382-.452-.246-.625-1.512.697-2.244-1.16l-1.183-3.004c-.24-.608-.38-.692.447-1.018a1.354 1.354 0 0 1 1.784.36l2.393 2.225c.881.816 1.812 1.713 3.046 1.227.625-.246 1.506-1.034 1.294-1.572a.246.246 0 0 0-.33-.151c-.157.062-.272.227-.428.289a.62.62 0 0 1-.672-.056c-1.986-1.744-4.306-3.738-4.347-3.843-.068-.173.323-.508.62-1.085.392-.793.41-1.72.05-2.527-.314-.8-1.59-3.123-5.012-1.776-1.047.413-2.082.9-3.129 1.313-.984.388-1.136.367-1.855.65-.188.075-.31.222-.241.396.246.625 1.696-.688 2.462 1.256l3.009 7.638z"/></g><g><path style="fill:#d52b1e" d="M412.66 249.25h82.179v82.023H412.66V249.25z"/><path style="fill:#fff" d="M451.2 313.83a20.15 20.15 0 0 1-.855 5.287c-.933 2.721-.94 2.721-1.796 4.043a13.133 13.133 0 0 1-3.81 3.887 9.419 9.419 0 0 1-5.948 1.71c-5.49-.486-8.038-6.44-9.283-11.273-1.321-5.13-5.073-7.923-7.463-6.064-1.4 1.089-1.479 2.914-.311 4.665a9.013 9.013 0 0 0 4.099 2.8l-2.933 3.73a9.181 9.181 0 0 1-7.535-7.392c-.466-2.488.742-7.134 4.891-8.522 5.297-1.774 8.686 2.004 10.318 5.19 2.246 4.385 3.21 12.435 9.43 11.19 3.384-.676 4.976-5.597 4.976-7.851l2.467-2.644 3.654 1.167.099.078v-.001zM456.32 313.83a20.15 20.15 0 0 0 .855 5.287c.933 2.721.94 2.721 1.796 4.043a13.133 13.133 0 0 0 3.81 3.887 9.419 9.419 0 0 0 5.948 1.71c5.49-.486 8.038-6.44 9.283-11.273 1.321-5.13 5.073-7.923 7.463-6.064 1.4 1.089 1.479 2.914.311 4.665a9.013 9.013 0 0 1-4.099 2.8l2.933 3.73a9.181 9.181 0 0 0 7.535-7.392c.466-2.488-.742-7.134-4.891-8.522-5.297-1.774-8.686 2.004-10.318 5.19-2.246 4.385-3.21 12.435-9.43 11.19-3.384-.676-4.976-5.597-4.976-7.851l-2.467-2.644-3.654 1.167-.099.078v-.001z"/><path style="fill:#fedd00" d="m461.12 278.95 10.76-11.643a4.692 4.692 0 0 0 1.61-3.401l-2.219.345-.497-1.142-.11-1.147 2.981-.63c.048-.484.007-.85.092-1.384.08-.494.19-.76.311-1.244l-3.265.218c.166-.571.128-.875.31-1.406.112-.39.281-.763.504-1.103.606-.091 1.158-.228 1.907-.304.728-.073 1.143-.04 1.873-.085 1.781-3.321 9.19-6.373 14.454-.904 3.81 3.958 2.988 11.219-1.95 13.139a6.321 6.321 0 0 1-6.862-1.11l1.97-3.866c2.722 1.625 4.976-.396 4.821-2.495a4.58 4.58 0 0 0-4.354-4.51c-2.254-.197-3.872 1.093-4.898 3.11-.626 1.231-.336 2.134-.544 3.5a23.918 23.918 0 0 1-.537 3.809 8.758 8.758 0 0 1-2.37 3.592l-11.03 11.935-42.941 46.445-3.227-2.983 43.211-46.737v.001z"/><path style="fill:#fff" d="M429.51 283.04s2.7 13.372 11.874 33.431c4.665-1.71 7.42-2.8 12.362-2.8 4.943 0 7.697.934 12.362 2.8 9.174-20.059 11.874-33.431 11.874-33.431l-24.236-31.177-24.236 31.177z"/><path style="fill:#fedd00" d="m456.12 262.41 16.82 21.637s-2.243 10.52-9.078 26.354a47.357 47.357 0 0 0-7.733-1.32l-.009-46.67v-.001zm-4.74 0-16.82 21.637s2.243 10.52 9.078 26.354a47.357 47.357 0 0 1 7.733-1.32l.009-46.67v-.001z"/></g><g><path style="fill:#fedd00" d="M503.6 249.25h82.179v82.023H503.6V249.25z"/><path style="fill:#d52b1e" d="M515.11 249.25h12.253v82.023H515.11V249.25zm23.48 0h12.253v82.023H538.59V249.25zm23.48 0h12.253v82.023H562.07V249.25z"/></g><g><path style="fill:#fedd00" d="M412.97 402.41a20.76 20.76 0 0 0 2.163 6.609c1.477 2.332.932 2.269 4.276 6a23.913 23.913 0 0 0 6.227 4.495 26.953 26.953 0 0 0 6.842 2.496c5.4 1.438 11 1.978 16.574 1.598a98.462 98.462 0 0 0 10.249-1.062c3.686-.527 7.397-.864 11.118-1.01 2.133-.09 4.149-.11 6.142 0 2.457.162 4.9.5 7.308 1.01a79.67 79.67 0 0 1 10.962 3.188l.014-85.655-82.193-.023V398.6s.168 2.86.318 3.81z"/><path style="fill:#d52b1e;stroke:#d52b1e;stroke-width:.513" d="m422.51 417.43 3.852 2.241 5.278 1.9-.005-81.528h-9.126l.001 77.387zm45.66 3.71.011-81.099h-9.143v82.396s6.257-.802 9.131-.988l.001-.309zm18.24-81.09h-9.113v81.381a60.43 60.43 0 0 1 9.13 1.683l-.017-83.064zm-36.49 0v83.331a80.736 80.736 0 0 1-9.173-.003l.002-83.314 9.171-.014z"/></g><path style="fill:#fedd00" d="M585.48 402.39a20.746 20.746 0 0 1-2.163 6.608c-1.477 2.333-.932 2.27-4.275 6.001a23.957 23.957 0 0 1-6.228 4.495 26.908 26.908 0 0 1-6.841 2.495 50.951 50.951 0 0 1-16.574 1.599 98.793 98.793 0 0 1-10.25-1.062 108.805 108.805 0 0 0-11.117-1.01c-2.133-.09-4.15-.11-6.142 0-2.457.161-4.9.499-7.31 1.01a82.42 82.42 0 0 0-11.032 3.188l.057-85.655 82.193-.023v58.543s-.168 2.86-.318 3.81v.001z"/><g><path style="fill:#d52b1e" d="M524.62 346.91s-.366.175-.594.281c-.242.288-.503.56-.781.813-.399.306-.816.588-1.25.843-.22.113-.421.26-.594.438-.252.32-.079.63-.25 1-.168.345-.39.661-.656.938-.332.356-.687.69-1.063 1-.312.386-.68.723-1.093 1a1.769 1.769 0 0 1-.344.187c-.216.067-.35-.011-.563.062-.388.134-.51.563-.78.719.111.218.106.372.218.594.158.323.705 1.215.812 1.437.21.305.27.7.532.781.423.135.87.178 1.312.125.69.09 1.37.247 2.031.469.613.254.863.575 1.47.844.406.201.836.348 1.28.437.326.087.664.119 1 .094.25-.024.377-.12.625-.156a.522.522 0 0 1 .125 0l-.03.375c-.006 0 .004.028 0 .031v.062h.062l2.062.906c-.24.358-.33.796-.25 1.219.63 1.888 1.16 3.069 1.469 3.188.615.236.806.865 1.156 1.5-.123.132-.227.2-.344.312a8.974 8.974 0 0 0-1.656 1.813c-.745 1.188-1.248 1.203-.312 2.78.549.926.814 1.1 1.53 2.407.345.62.608 1.281.782 1.969.19.64.295 1.302.313 1.969l.968.375.657-.657.625-1.187.03-.906a.777.777 0 0 1-.25-.782c.07-.368.515-.29.72-.625.283-.461-.332-.734-.657-1.093-.605-.67-1.43-.833-1.625-1.844-.052-.273.078-.427.375-.719.856-.84 1.13-.973 1.97-1.812.299.152.64.196.968.125.28-.053.53.125 1.406.375a2.21 2.21 0 0 0 1.219.03l.375-.093c.064.224.106.454.125.687.053 1.06-.155 2.995.156 3.5.111.178.206.367.281.563.118.201.193.424.22.656.01.696.046 1.14 0 1.875a15.2 15.2 0 0 1-.22 1.75c-.04.389-.192.758-.437 1.062-.283.364-.595.418-.969.688l-.093 1 1.125.469 1.28.312.688-.281a1.18 1.18 0 0 1 .156-.625c.128-.247.232-.439.47-.531.362-.143.759.129.905-.094.16-.242.06-.338.032-.75-.046-.662-.184-.99-.282-1.657a11.8 11.8 0 0 1-.156-2.75 9.4 9.4 0 0 1 .156-1.562c.172-.883.486-1.311.688-2.188.173-.815.298-1.639.375-2.468 3.11.48 6.283.353 9.344-.375.169-.037.75-.25.75-.25a8.636 8.636 0 0 0 2.718 1.625c-.006.101-.015.845 0 .968.037.288-.04.482.125.72.08.141.216.243.375.28a.66.66 0 0 0 .657-.156c.226-.201.184-.454.25-.75.02-.229.02-.458 0-.687.289.049.582.07.875.062.292.012.585.002.875-.031.005.08.02.369.03.468.028.245-.075.435.032.657.082.215.273.37.5.406a.66.66 0 0 0 .531-.094c.296-.185.264-.498.313-.844.015-.11.011-.692 0-.781.212-.067.827-.292 1.031-.375-.01.273-.041.544-.094.812a5.01 5.01 0 0 1-.25.938 7.2 7.2 0 0 1-.75 1.375c-.301.547-.646 1.07-1.03 1.562-.212.266-.358.386-.563.657-.256.337-.342.566-.594.906a4.67 4.67 0 0 1-.938 1.062c-.693.55-1.15.11-2.093.844l-.22 1.031 1.438.532 1.282.25.437-.25c-.03-.27.049-.54.219-.75.191-.24.475-.388.781-.407.361-.059.747.034 1.031-.218.35-.311.349-.914.625-1.47a12.675 12.675 0 0 1 3-3.905c.613-.597 1.138-.758 1.657-1.438.246-.322.52-.469.53-.875.009-.283-.143-.415-.218-.687a9.62 9.62 0 0 1-.187-1c1.521.744.97.646 1.25 1.406.225.615-.033 1.04.062 1.687.111.756.466 1.114.531 1.875a7.415 7.415 0 0 1-.312 2.313 7.138 7.138 0 0 1-.469 2 3.836 3.836 0 0 1-1.156 1.562c-.211.175-.369.25-.594.407l-.125 1.03 1.125.376 1.625.437.375-.343c.164-.655-.055-1.617.406-1.688.406-.062.693 0 .782-.312a5.01 5.01 0 0 0 .093-.625c.221-1.886.422-3.646.625-4.5.23-.968.215-1.178.407-1.907.06-.578.197-1.145.406-1.687.734-2.097-.208-2.375-1.063-3.656a2.993 2.993 0 0 1-.687-1.5c-.097-.817.164-1.495.125-2.75a42.359 42.359 0 0 1 0-2.875c.115-.053.222-.121.344-.188a4.08 4.08 0 0 0 2.375-2.469 3.43 3.43 0 0 0 .312-1.468c-.005-.332-.065-.652-.094-1.032a2.759 2.759 0 0 0-.312-.937 3.193 3.193 0 0 0-.563-.844 5.447 5.447 0 0 0-2.718-1.469 13.908 13.908 0 0 0-4.125-.562 26.856 26.856 0 0 0-4.282-.062c-2.006.114-3.128.52-5.125.75a43.351 43.351 0 0 1-4.906.406c-2.26.042-4.42-.46-5.781-.344-2.451.21-2.493.762-6.188 1.063-1.279.1-2.56.162-3.843.187l-2.157-.687a2.427 2.427 0 0 0 1.47-1.031c.271-.366.232-.679.562-1.063.266-.312.443-.622.78-.969a2.2 2.2 0 0 0-.937-.437 2.503 2.503 0 0 0-.937 0c-.425.031-.84.148-1.219.344a2.77 2.77 0 0 0-.844.593 19.473 19.473 0 0 0-2.187-1.218 9.173 9.173 0 0 0-3-.907v.002zm1.969 11.906h.062c-.012.01-.019.022-.03.031l-.032-.031z"/><path style="fill:none;stroke:#fedf00;stroke-width:.987;stroke-linecap:round" d="m568.77 359.52-.763.244a6.785 6.785 0 0 1-2.6.496c-2.644.202-4.272-1.057-6.998-.847-1.404.108-2.025 1.19-3.46 1.548a9.247 9.247 0 0 1-1.701.282l.512-1.034c-.697.143-1.404.23-2.115.264a7.551 7.551 0 0 1-1.523-.13l1.018-.95a7.214 7.214 0 0 1-1.294-.336 3.917 3.917 0 0 1-1.06-.63 20.487 20.487 0 0 0 1.69-.353c1.556-.385 2.04-1.147 3.89-1.325 1.15-.111 3.032-.046 7.643.717 3.036.502 4.382.267 5.536-.258a2 2 0 0 0 1.103-1.788c.027-.711-.3-1.39-.874-1.81a1.743 1.743 0 0 0-1.113-.363"/><path style="fill:#fcd900;stroke:#fedf00;stroke-width:.513" d="M524.8 350.61a1.838 1.838 0 0 0-1.34.291c-.48.296-.541.697-.888 1.142.445.1.699.361 1.142.254.306-.074.575-.253.761-.507a1.55 1.55 0 0 0 .428-1.156l-.103-.024z"/><path style="fill:none;stroke:#fedf00;stroke-width:.987;stroke-linecap:round" d="M536.04 363.79s.264.48.407.8c.224.47.4.961.524 1.467.117.695.197 1.395.24 2.098.023.143.05.263.077.376l-.05 1.129m6.802-6.95s-.219.812-.354 1.333c-.352 1.353-.676 2.087-.944 3.46-.045.23-.078.442-.103.644m-10.859-3.977c.79.176.544 3.36 1.789 4.09"/><path style="fill:none;stroke:#fedf00;stroke-width:.987" d="m560.12 369.78.384-.249a8.154 8.154 0 0 0 2.686-1.79"/><path style="fill:none;stroke:#fedf00;stroke-width:.987;stroke-linecap:round" d="M552.38 368.02h.007c3.533-.883 5.885-2.648 7.579-2.869"/><path style="fill:none;stroke:#fedf00;stroke-width:.987;stroke-linecap:round" d="M555.97 363.61c.278-.008.555-.031.83-.068 1.467-.21 1.703.687 2.725 1.258 1.857 1.039 2.098 2.307 4.3 3.356.116.055.223.107.32.155l.848.429"/><path style="fill:#fcd900;stroke:#fedf00;stroke-width:.513" d="M517.7 354.53c.23.064.47.083.707.054.332-.031.484-.238.817-.249.236-.045.48 0 .684.125a.83.83 0 0 1 .28.342c.1.133.145.3.124.466a.576.576 0 0 1-.614.42.55.55 0 0 1-.544-.272.467.467 0 0 1-.039-.389c-.53.2-1.126-.01-1.415-.497z"/><path style="fill:#005eb8" d="M525.13 364.17c-.674-.23-1.33-.506-1.966-.826.323-.25.587-.265.863-.555.39-.408.373-.788.593-1.319.215-.52.184-.954.671-1.343.329-.22.74-.281 1.118-.165.389.106.703.39.848.766.137.561-.16.886-.246 1.454-.155.47-.22.965-.195 1.46.094.311.212.615.354.907-.688-.08-1.37-.207-2.04-.38v.001zm-.99.95a.626.626 0 1 1 0 .004v-.004zm-1.76-16.51s-.09-.06-.144-.104c-.383-.31-.42-.653-.601-1.11a4.075 4.075 0 0 1-.315-1.154 7.324 7.324 0 0 1 0-1.048c.02-.314.02-.63 0-.944.002-.326-.07-.65-.21-.944-.097-.18-.394-.337-.314-.42.094-.096.257-.02.42 0 .351.035.682.182.943.42.338.262.576.632.672 1.049.166.548.248.898.407 1.468.058.257.154.505.284.734.154.226.33.437.524.629l-.011.023c-.241.294-.5.573-.777.834-.261.22-.545.413-.846.573l-.033-.01.001.004zm3.6 10.64 2.23 1.031a9.232 9.232 0 0 0 3.497-3.919 13.845 13.845 0 0 0 1.364-4.313l-1.789-.581-.357.073a15.637 15.637 0 0 1-1.618 4.192 11.627 11.627 0 0 1-2.649 3.034l-.678.483zm4.94 18.12c.282-.44.59-.861.922-1.264.41-.413.849-.797 1.312-1.15.163-.01.327.014.48.071a8.733 8.733 0 0 1-.526 2.751c-.08.344-.211.674-.39.979a4.15 4.15 0 0 1-.476.518c-.51-.742-1.33-1.297-1.322-1.906v.001zm33.01 1.85a7.51 7.51 0 0 1 2.936 1.482c.055.155.076.32.063.483a9.049 9.049 0 0 1-1.53.251c-.42.032-.84.032-1.259 0a3.46 3.46 0 0 1-1.048-.105 4.302 4.302 0 0 1-.63-.314c.573-.696.88-1.637 1.468-1.797zm-9.76-2.04a7.529 7.529 0 0 1 2.936 1.482c.055.154.076.319.063.482a8.95 8.95 0 0 1-1.53.252 8.4 8.4 0 0 1-1.26 0 3.462 3.462 0 0 1-1.047-.105 4.302 4.302 0 0 1-.63-.314c.573-.696.88-1.637 1.468-1.797zm-17.34 2.13c.5.15.99.33 1.469.538.51.282 1 .597 1.468.944.054.155.075.32.063.483a9.08 9.08 0 0 1-1.531.251c-.419.032-.84.032-1.258 0a3.437 3.437 0 0 1-1.05-.105 4.207 4.207 0 0 1-.63-.314c.574-.696.881-1.637 1.469-1.797zm-8.98-29.8c-.613-.278-1.05-1.045-.66-1.594.155-.22.412-.174.565-.395.144-.254.192-.552.136-.839a5.22 5.22 0 0 0-.21-.944 5.025 5.025 0 0 1-.135-1.048 2.25 2.25 0 0 1 .345-1.573c.21-.279.497-.491.825-.612.147.136-.057.502-.033.822.035.397.132.786.288 1.153.202.563.479.81.703 1.363.23.422.373.885.42 1.363.031.396-.041.794-.21 1.154a2.005 2.005 0 0 1-.61.84c-.227.202-.5.346-.796.418a1.15 1.15 0 0 1-.628-.108z"/></g><g><path style="fill:#d52b1e" d="M524.62 383.501s-.366.175-.594.281c-.242.288-.503.56-.781.813-.399.306-.816.588-1.25.843-.22.113-.421.26-.594.438-.252.32-.079.63-.25 1-.168.345-.39.661-.656.938-.332.356-.687.69-1.063 1-.312.386-.68.723-1.093 1a1.769 1.769 0 0 1-.344.187c-.216.067-.35-.011-.563.062-.388.134-.51.563-.78.719.111.218.106.372.218.594.158.323.705 1.215.812 1.437.21.305.27.7.532.781.423.135.87.178 1.312.125.69.09 1.37.247 2.031.469.613.254.863.575 1.47.844.406.201.836.348 1.28.437.326.087.664.119 1 .094.25-.024.377-.12.625-.156a.522.522 0 0 1 .125 0l-.03.375c-.006 0 .004.028 0 .031v.062h.062l2.062.906c-.24.358-.33.796-.25 1.219.63 1.888 1.16 3.069 1.469 3.188.615.236.806.865 1.156 1.5-.123.132-.227.2-.344.312a8.974 8.974 0 0 0-1.656 1.813c-.745 1.188-1.248 1.203-.312 2.78.549.926.814 1.1 1.53 2.407.345.62.608 1.281.782 1.969.19.64.295 1.302.313 1.969l.968.375.657-.657.625-1.187.03-.906a.777.777 0 0 1-.25-.782c.07-.368.515-.29.72-.625.283-.461-.332-.734-.657-1.093-.605-.67-1.43-.833-1.625-1.844-.052-.273.078-.427.375-.719.856-.84 1.13-.973 1.97-1.812.299.152.64.196.968.125.28-.053.53.125 1.406.375a2.21 2.21 0 0 0 1.219.03l.375-.093c.064.224.106.454.125.687.053 1.06-.155 2.995.156 3.5.111.178.206.367.281.563.118.201.193.424.22.656.01.696.046 1.14 0 1.875a15.2 15.2 0 0 1-.22 1.75c-.04.389-.192.758-.437 1.062-.283.364-.595.418-.969.688l-.093 1 1.125.469 1.28.312.688-.281a1.18 1.18 0 0 1 .156-.625c.128-.247.232-.439.47-.531.362-.143.759.129.905-.094.16-.242.06-.338.032-.75-.046-.662-.184-.99-.282-1.657a11.8 11.8 0 0 1-.156-2.75 9.4 9.4 0 0 1 .156-1.562c.172-.883.486-1.311.688-2.188.173-.815.298-1.639.375-2.468 3.11.48 6.283.353 9.344-.375.169-.037.75-.25.75-.25a8.636 8.636 0 0 0 2.718 1.625c-.006.101-.015.845 0 .968.037.288-.04.482.125.72.08.141.216.243.375.28a.66.66 0 0 0 .657-.156c.226-.201.184-.454.25-.75.02-.229.02-.458 0-.687.289.049.582.07.875.062.292.012.585.002.875-.031.005.08.02.369.03.468.028.245-.075.435.032.657.082.215.273.37.5.406a.66.66 0 0 0 .531-.094c.296-.185.264-.498.313-.844.015-.11.011-.692 0-.781.212-.067.827-.292 1.031-.375-.01.273-.041.544-.094.812a5.01 5.01 0 0 1-.25.938 7.2 7.2 0 0 1-.75 1.375c-.301.547-.646 1.07-1.03 1.562-.212.266-.358.386-.563.657-.256.337-.342.566-.594.906a4.67 4.67 0 0 1-.938 1.062c-.693.55-1.15.11-2.093.844l-.22 1.031 1.438.532 1.282.25.437-.25c-.03-.27.049-.54.219-.75.191-.24.475-.388.781-.407.361-.059.747.034 1.031-.218.35-.311.349-.914.625-1.47a12.675 12.675 0 0 1 3-3.905c.613-.597 1.138-.758 1.657-1.438.246-.322.52-.469.53-.875.009-.283-.143-.415-.218-.687a9.62 9.62 0 0 1-.187-1c1.521.744.97.646 1.25 1.406.225.615-.033 1.04.062 1.687.111.756.466 1.114.531 1.875a7.415 7.415 0 0 1-.312 2.313 7.138 7.138 0 0 1-.469 2 3.836 3.836 0 0 1-1.156 1.562c-.211.175-.369.25-.594.407l-.125 1.03 1.125.376 1.625.437.375-.343c.164-.655-.055-1.617.406-1.688.406-.062.693 0 .782-.312a5.01 5.01 0 0 0 .093-.625c.221-1.886.422-3.646.625-4.5.23-.968.215-1.178.407-1.907.06-.578.197-1.145.406-1.687.734-2.097-.208-2.375-1.063-3.656a2.993 2.993 0 0 1-.687-1.5c-.097-.817.164-1.495.125-2.75a42.359 42.359 0 0 1 0-2.875c.115-.053.222-.121.344-.188a4.08 4.08 0 0 0 2.375-2.469 3.43 3.43 0 0 0 .312-1.468c-.005-.332-.065-.652-.094-1.032a2.759 2.759 0 0 0-.312-.937 3.193 3.193 0 0 0-.563-.844 5.447 5.447 0 0 0-2.718-1.469 13.908 13.908 0 0 0-4.125-.562 26.856 26.856 0 0 0-4.282-.062c-2.006.114-3.128.52-5.125.75a43.351 43.351 0 0 1-4.906.406c-2.26.042-4.42-.46-5.781-.344-2.451.21-2.493.762-6.188 1.063-1.279.1-2.56.162-3.843.187l-2.157-.687a2.427 2.427 0 0 0 1.47-1.031c.271-.366.232-.679.562-1.063.266-.312.443-.622.78-.969a2.2 2.2 0 0 0-.937-.437 2.503 2.503 0 0 0-.937 0c-.425.031-.84.148-1.219.344a2.77 2.77 0 0 0-.844.593 19.473 19.473 0 0 0-2.187-1.218 9.173 9.173 0 0 0-3-.907v.002zm1.969 11.906h.062c-.012.01-.019.022-.03.031l-.032-.031z"/><path style="fill:none;stroke:#fedf00;stroke-width:.987;stroke-linecap:round" d="m568.77 396.111-.763.244a6.785 6.785 0 0 1-2.6.496c-2.644.202-4.272-1.057-6.998-.847-1.404.108-2.025 1.19-3.46 1.548a9.247 9.247 0 0 1-1.701.282l.512-1.034c-.697.143-1.404.23-2.115.264a7.551 7.551 0 0 1-1.523-.13l1.018-.95a7.214 7.214 0 0 1-1.294-.336 3.917 3.917 0 0 1-1.06-.63 20.462 20.462 0 0 0 1.69-.353c1.556-.385 2.04-1.147 3.89-1.325 1.15-.111 3.032-.046 7.643.717 3.036.502 4.382.267 5.536-.258a2 2 0 0 0 1.103-1.788c.027-.711-.3-1.39-.874-1.81a1.743 1.743 0 0 0-1.113-.363"/><path style="fill:#fcd900;stroke:#fedf00;stroke-width:.513" d="M524.8 387.201a1.838 1.838 0 0 0-1.34.291c-.48.296-.541.697-.888 1.142.445.1.699.361 1.142.254.306-.074.575-.253.761-.507a1.55 1.55 0 0 0 .428-1.156l-.103-.024z"/><path style="fill:none;stroke:#fedf00;stroke-width:.987;stroke-linecap:round" d="M536.04 400.381s.264.48.407.8c.224.47.4.961.524 1.467.117.695.197 1.395.24 2.098.023.143.05.263.077.376l-.05 1.129m6.802-6.95s-.219.812-.354 1.333c-.352 1.353-.676 2.087-.944 3.46-.045.23-.078.442-.103.644m-10.859-3.977c.79.176.544 3.36 1.789 4.09"/><path style="fill:none;stroke:#fedf00;stroke-width:.987" d="m560.12 406.371.384-.249a8.154 8.154 0 0 0 2.686-1.79"/><path style="fill:none;stroke:#fedf00;stroke-width:.987;stroke-linecap:round" d="M552.38 404.611h.007c3.533-.883 5.885-2.648 7.579-2.869"/><path style="fill:none;stroke:#fedf00;stroke-width:.987;stroke-linecap:round" d="M555.97 400.201c.278-.008.555-.031.83-.068 1.467-.21 1.703.687 2.725 1.258 1.857 1.039 2.098 2.307 4.3 3.356.116.055.223.107.32.155l.848.429"/><path style="fill:#fcd900;stroke:#fedf00;stroke-width:.513" d="M517.7 391.121c.23.064.47.083.707.054.332-.031.484-.238.817-.249.236-.045.48 0 .684.125a.83.83 0 0 1 .28.342c.1.133.145.3.124.466a.576.576 0 0 1-.614.42.55.55 0 0 1-.544-.272.467.467 0 0 1-.039-.389c-.53.2-1.126-.01-1.415-.497z"/><path style="fill:#005eb8" d="M525.13 400.761c-.674-.23-1.33-.506-1.966-.826.323-.25.587-.265.863-.555.39-.408.373-.788.593-1.319.215-.52.184-.954.671-1.343.329-.22.74-.281 1.118-.165.389.106.703.39.848.766.137.561-.16.886-.246 1.454-.155.47-.22.965-.195 1.46.094.311.212.615.354.907-.688-.08-1.37-.207-2.04-.38v.001zm-.99.95a.626.626 0 1 1 0 .004v-.004zm-1.76-16.51s-.09-.06-.144-.104c-.383-.31-.42-.653-.601-1.11a4.075 4.075 0 0 1-.315-1.154 7.324 7.324 0 0 1 0-1.048c.02-.314.02-.63 0-.944.002-.326-.07-.65-.21-.944-.097-.18-.394-.337-.314-.42.094-.096.257-.02.42 0 .351.035.682.182.943.42.338.262.576.632.672 1.049.166.548.248.898.407 1.468.058.257.154.505.284.734.154.226.33.437.524.629l-.011.023c-.241.294-.5.573-.777.834-.261.22-.545.413-.846.573l-.033-.01.001.004zm3.6 10.64 2.23 1.031a9.232 9.232 0 0 0 3.497-3.919 13.845 13.845 0 0 0 1.364-4.313l-1.789-.581-.357.073a15.637 15.637 0 0 1-1.618 4.192 11.627 11.627 0 0 1-2.649 3.034l-.678.483zm4.94 18.12c.282-.44.59-.861.922-1.264.41-.413.849-.797 1.312-1.15.163-.01.327.014.48.071a8.733 8.733 0 0 1-.526 2.751c-.08.344-.211.674-.39.979a4.15 4.15 0 0 1-.476.518c-.51-.742-1.33-1.297-1.322-1.906v.001zm33.01 1.85a7.51 7.51 0 0 1 2.936 1.482c.055.155.076.32.063.483a9.049 9.049 0 0 1-1.53.251c-.42.032-.84.032-1.259 0a3.46 3.46 0 0 1-1.048-.105 4.302 4.302 0 0 1-.63-.314c.573-.696.88-1.637 1.468-1.797zm-9.76-2.04a7.529 7.529 0 0 1 2.936 1.482c.055.154.076.319.063.482a8.95 8.95 0 0 1-1.53.252 8.4 8.4 0 0 1-1.26 0 3.46 3.46 0 0 1-1.047-.105 4.302 4.302 0 0 1-.63-.314c.573-.696.88-1.637 1.468-1.797zm-17.34 2.13c.5.15.99.33 1.469.538.51.282 1 .597 1.468.944.054.155.075.32.063.483a9.08 9.08 0 0 1-1.531.251c-.419.032-.84.032-1.258 0a3.437 3.437 0 0 1-1.05-.105 4.207 4.207 0 0 1-.63-.314c.574-.696.881-1.637 1.469-1.797zm-8.98-29.8c-.613-.278-1.05-1.045-.66-1.594.155-.22.412-.174.565-.395.144-.254.192-.552.136-.839a5.22 5.22 0 0 0-.21-.944 5.025 5.025 0 0 1-.135-1.048 2.25 2.25 0 0 1 .345-1.573c.21-.279.497-.491.825-.612.147.136-.057.502-.033.822.035.397.132.786.288 1.153.202.563.479.809.703 1.363.23.422.373.885.42 1.363.031.396-.041.794-.21 1.154a2.005 2.005 0 0 1-.61.839c-.227.203-.5.347-.796.419a1.15 1.15 0 0 1-.628-.108z"/></g><path style="fill:none;stroke:#713f2a;stroke-width:.797" d="M412.66 249.25h82.179v82.023H412.66V249.25zm90.94 0h82.179v82.023H503.6V249.25zm-90.63 153.16a20.76 20.76 0 0 0 2.163 6.609c1.477 2.332.932 2.269 4.276 6a23.913 23.913 0 0 0 6.227 4.495 26.953 26.953 0 0 0 6.842 2.496c5.4 1.438 11 1.978 16.574 1.598a98.462 98.462 0 0 0 10.249-1.062c3.686-.527 7.397-.864 11.118-1.01 2.133-.09 4.149-.11 6.142 0 2.457.162 4.9.5 7.308 1.01a79.67 79.67 0 0 1 10.962 3.188l.014-85.655-82.193-.023V398.6s.168 2.86.318 3.81zm172.51-.02a20.746 20.746 0 0 1-2.163 6.608c-1.477 2.333-.932 2.27-4.275 6.001a23.957 23.957 0 0 1-6.228 4.495 26.908 26.908 0 0 1-6.841 2.495 50.951 50.951 0 0 1-16.574 1.599 98.793 98.793 0 0 1-10.25-1.062 108.805 108.805 0 0 0-11.117-1.01c-2.133-.09-4.15-.11-6.142 0-2.457.161-4.9.499-7.31 1.01a82.42 82.42 0 0 0-11.032 3.188l.057-85.655 82.193-.023v58.543s-.168 2.86-.318 3.81v.001z"/></svg>