<svg xmlns="http://www.w3.org/2000/svg" width="417" height="250" viewBox="0 0 800 480"><path fill="#00b140" d="M0 0h800v480H0z"/><path fill="#fff" d="M0 0h800v240H0z"/><g stroke="#000"><g stroke-width="1.157"><g fill="#c8102e"><path d="M246.663 113.816c-25.98 3.938-91.82 10.123-117.509 5.906l5.02 12.092c42.515-3.937 83.26 9.843 121.053-4.5l-8.564-13.498z"/><path d="M145.985 143.343c-16.24-4.779-43.107-32.62-47.535-49.492 12.695 8.716 43.105 19.965 54.03 18.841-3.544 2.531-12.402 9.279-19.192 10.123 3.25 6.188 9.448 14.06 12.697 20.528z"/></g><path fill="#c8102e" d="M198.242 134.907c4.726 6.467 29.526 3.796 42.072-4.076l-3.395-5.485-2.509 4.64-3.985-4.358-1.033 6.889-6.938-5.062-1.183 6.047-4.428-5.343-1.622 6.609-6.497-5.064-2.509 6.892a13.182 13.182 0 0 1-3.101-8.296c-2.51.983-4.576 4.217-4.872 6.607zm2.067-20.949c0 1.686 2.066 6.609 5.906 8.013.148-2.108-2.511-7.03-.886-9.137l3.395 3.092 1.034-5.906 4.576 3.234.442-6.888 4.724 3.092v-7.592c-7.677.701-17.125 9.56-19.191 12.092zM679.42 190.587c-1.992-4.499-8.192-9.982-13.654-13.357a1345.822 1345.822 0 0 0 8.778-21.074c-8.267 1.688-25.459 2.936-35.499 1.812 18.895-17.998 58.46-55.119 71.45-71.992-4.724 23.06-1.18 74.802 8.268 92.8-10.04-3.937-21.643-12.09-28.137-21.088-3.831 12.918-8.53 26.996-11.13 32.758"/><path fill="#c8102e" d="M310.733 91.882c1.18 5.906 1.474 10.405 5.904 12.092 4.428 1.688 14.171 5.061 20.372 15.186-7.381-1.968-17.715-4.781-18.602 1.969-.842 6.424 2.116 6.234 7.087 7.31 6.495 1.406 12.696 8.999 12.992 19.124-5.317-3.093-12.697-5.624-17.421-5.624s-6.053.842-7.233 6.466c-1.949 9.276 1.625 9.843 6.052 10.405 4.43.562 13.878 4.781 14.468 20.248-5.02-4.22-15.088-6.57-21.259-7.592-3.395-.562-3.985 1.124-4.427 7.03-.445 5.905.294 7.874 6.198 9.56 5.907 1.689 12.697 5.906 14.468 14.905-5.61-2.53-14.468-1.687-17.125-.562-2.657 1.124-4.096 7.41 1.514 19.5a176.19 176.19 0 0 1 37.163-7.69c27.906-2.799 21.26-21.371 21.26-50.618 0-29.247 61.41-61.866 154.708-113.61-22.439 54.555 8.268 49.493 25.39 43.308 17.125-6.188 57.28-21.935 88.576-34.871-43.107 27.558-64.956 56.805-27.163 69.74-48.421 14.623-70.86 54.555-44.288 79.865-18.12-6.113-43.232 5.42-53.75 21.482 18.896-1.689 55.52 2.703 77.96 8.888 21.367 5.89 56.64-1.007 59.964-19.157.175-.915.265-1.845.268-2.777 0-6.327-1.63-11.104-4.124-14.585-5.488-7.66-15.105-9.318-20.382-9.318-7.677 0-15.648 3.092-15.648 8.436s4.724 7.593 14.172 7.593c5.165 0 13.13.855 21.858-6.711 2.495 3.48 4.124 8.258 4.124 14.585-.008.92-.102 1.836-.28 2.738a56.838 56.838 0 0 1-26.885 6.823c-18.896 0-36.608-7.312-36.608-26.996s21.256-30.934 38.38-30.934c23.62 0 56.687 9 56.687 44.993 0 45.558-62.713 66.864-99.916 66.864 6.237 4.985 13.262 9.627 20.79 12.438 26.349 9.843 49.603 21.935 57.87 40.496-10.038 0-26.573-7.874-34.25-15.749 21.259 24.748-4.525 70.27-1.77 85.49 2.95 16.308 23.029 6.185 23.029 18.841 0 11.247-11.811 9.279-16.239 4.217-4.43-5.061-18.627-9.313-25.982-4.217-6.495 4.5-16.532 6.748-20.962 2.25-4.428-4.5-20.667-2.814-27.457 3.374-6.79 6.185-16.276 6.669-19.192 1.969-3.122-5.033-2.324-11.153 10.307-13.271-5.61-5.626-22.708 3.99-25.659-6.695-2.123-7.679 2.361-11.25 17.123-10.126-1.477-3.654-12.399-5.34-10.925-12.935 1.477-7.593 10.01-12.293 20.079-1.124 26.866 29.808 39.267 13.217 48.418.282-2.95-6.75.297-11.25 5.907-15.467-2.953-4.781-1.183-11.53.884-16.029-4.428-2.53-7.084-13.78-2.36-17.717-3.84 0-9.745-4.22-9.745-11.53a13.768 13.768 0 0 1-16.532-1.686c-5.61 3.093-20.372 3.655-26.869-3.095-8.857 3.375-24.506 2.53-28.637-3.937-7.795 1.97-22.145-4.5-25.096-11.53a30.639 30.639 0 0 1-12.945-3.934c-11.808 8.436-27.8 24.745-11.857 37.119 15.945 12.373 49.011 2.248 49.602 33.181-7.677-6.185-21.849-4.5-26.573-10.685-15.942 22.497-38.971 43.025-72.925 51.461 5.018 3.093 14.172 3.375 17.713 3.093 7.363-.584 13.582 5.344 7.974 12.374-5.61 7.032-17.125 1.124-23.916-4.78-9.772-8.5-16.238-3.656-18.896-1.688-2.656 1.968-6.2 3.095-10.924-1.406-4.724-4.5-9.154-1.404-11.514 1.406-3.838 4.57-12.696-5.906-26.867 6.468-6.814 5.95-23.029-1.686-16.535-10.405-6.79 1.689-18.8-7.707-8.857-16.871 9.154-8.436 26.572 10.967 40.744 5.341-3.185-3.86-9.823-11.01-23.62-12.653-7.086-.844-8.34-8.695-5.02-14.343 4.134-7.03 16.831-2.248 25.393 8.72 6.744 8.639 15.648 8.716 24.8 7.03 6.43-4.084 16.386-4.22 20.816-2.814 0-4.217 6.936-7.874 12.25-7.874-.293-5.624 1.477-10.685 10.04-12.092a31.387 31.387 0 0 1 2.214-.3 20.276 20.276 0 0 1-15.804-6.478c-11.827 2.885-24.93-2.676-26.855-13.313-18.694-1.303-20.553-20.167-15.947-26.308.376-.508.797-.98 1.26-1.409-5.565 4.184-12.675 6.12-21.467 3.073a33.344 33.344 0 0 1-36.058 12.292 27.316 27.316 0 0 1-15.898 11.362c.55 6.816-.92 14.539-9.915 23.612 2.36-12.374-14.172-16.31-10.628-36.556-1.183 14.622-45.765 38.807-52.852 70.864 6.497 2.813 13.584 4.78 18.012 3.937 11.137-2.12 14.762 9 11.514 13.499s-12.4 6.747-16.238 2.81c-3.838-3.935-11.811 1.407-15.649-5.904-3.837-7.312-14.467-4.78-18.895 0-4.428 4.78-19.192-6.187-29.82 4.78-3.976 4.102-17.419 8.436-25.392 6.188-7.971-2.25-12.695-10.125-10.038-14.342-5.314-4.782-5.388-10.637-.294-15.75-1.92-7.17 4.34-21.34 14.91-15.746 6.643 3.514 30.188 20.107 50.708 1.125 17.792-16.664 7.427-30.016 18.821-31.778-1.386-6.765 2.954-15.184 7.678-16.873a12.246 12.246 0 0 1-.697-9.014 29.115 29.115 0 0 1-7.849-1.72 105.655 105.655 0 0 1-27.18 3.986c0 6.748-8.266 23.059-15.353 30.934-2.36-61.867-61.41-68.055-69.383-117.265-.294 7.31-8.268 14.622-9.152 20.808-.886 6.188-4.724 10.967-11.81 8.157-7.085-2.814-8.858-14.625-1.771-16.311 7.087-1.689 5.758-12.937 10.186-14.343s5.166-5.906 3.395-11.53c-1.773-5.623.884-12.373 2.657-16.59 1.77-4.22-.886-11.25-7.087-13.78-6.198-2.53-8.265-8.717-5.904-14.06-6.495-4.5-4.643-14.223 4.133-16.029 10.925-2.25 10.629 14.902 16.83 16.873-.885-3.375.295-9.843 2.953-14.062-3.544-7.313.886-13.216 7.97-13.216 12.402 0 8.268 19.684 5.315 25.872 4.133-5.626 10.63-12.094 15.648-7.592 5.02 4.496 4.2 13.894-1.18 17.995-4.43 3.374-13.582 8.718-10.925 14.624 5.314 8.999 8.561 19.684 9.154 33.464 7.38 5.344 12.104 11.53 12.104 16.59 4.87.283 14.2 4.132 15.5 9.564 5.905-.565 14.723.564 17.271 5.764 1.922-.985 7.043-1.313 10.145-1.033a19.06 19.06 0 0 1 4.323-12.043c-10.038-10.688-9.744-27.558.59-34.309-2.942-7.006-1.77-19.966 7.972-26.716-.21-7.032 1.772-16.308 11.514-22.214-1.476-7.594 3.544-17.997 9.744-18.56-1.477-7.312-.36-16.337 8.2-20.556a10.553 10.553 0 0 1-2.895-7.89c-15.019 3.093-20.888 11.847-25.677 20.01-.59-3.375-1.477-7.874-3.544-11.25 0 8.717-6.79 11.812-7.084 23.904-5.02-5.062-6.79-13.218-6.497-18.842.236-4.501-7.675-8.716-5.314-16.59 11.81 10.405 35.726-12.374 56.393-5.062-20.373-40.776-35.134-21.093-45.469-14.06-10.334 7.03-17.715-3.375-16.532-10.125-13.878-3.093-30.412-2.531-48.421.844 13.285-16.593 44.581-23.903 67.61-22.217 10.038-17.715 22.145-15.184 33.954-13.498 7.72 1.105 16.738 1.129 25.686.7 5.61-14.905 38.382-16.446 41.63-28.258 2.954 2.249 1.16 10.712-1.793 18.022 8.536-2.434 15.866-5.033 18.326-10.147 1.477 4.78-.884 17.715-4.134 21.652a34.287 34.287 0 0 1 10.335-1.125c-10.335 5.624-23.323 14.06-25.39 15.467-2.067 1.406-3.25 4.217 2.067 7.03-5.907 1.125-22.44 6.75-29.23 2.251"/><path fill="#c8102e" d="M86.345 167.95c7.823-5.344 18.52-1.394 20.815 6.467 1.476 5.062-7.492 8.82-8.268 4.079-1.032-6.327-5.314-10.264-12.547-10.546zm30.682-16.349c9.105-2.983 18.163 3.721 17.995 11.88-.11 5.251-9.833 6.402-9.147 1.65.914-6.345-2.002-11.285-8.848-13.53zm33.86 14.396c8.684 3.956 10.203 14.787 4.074 20.49-3.946 3.67-11.723-2.006-7.733-4.938 5.323-3.908 6.883-9.38 3.66-15.552zM81.733 279.659c7.577 5.654 18.442 2.143 21.085-5.62 1.7-4.997-7.094-9.115-8.078-4.408-1.314 6.278-5.768 10.039-13.007 10.028zm53.326 113.719c3.173-8.657 14.31-11.289 20.934-6.115 4.263 3.333-.803 11.32-4.3 7.866-4.668-4.61-10.548-5.485-16.634-1.75zm-9.962 23.284c.528-9.155 13.41-14.909 21.281-11.688 5.07 2.075 2.528 11.088-1.84 8.692-5.825-3.194-14.68-2.2-19.441 2.996zm14 21.604c-3.303-8.613 3.56-17.37 12.128-17.362 5.516.004 6.909 9.24 1.905 8.679-6.675-.75-11.806 2.123-14.033 8.683zm138.863-7.689c1.14-9.105-7.652-16.126-15.989-14.248-5.367 1.21-4.497 10.505.236 8.864 6.319-2.189 12.005-.516 15.752 5.384zm53.267 2.907c-1.976-8.974 6.132-16.705 14.61-15.532 5.46.754 5.452 10.085.583 8.849-6.495-1.652-12.003.49-15.193 6.683zm132.829-2.193c.738-9.144-8.355-15.808-16.602-13.597-5.31 1.424-4.032 10.676.627 8.848 6.217-2.44 11.97-.996 15.975 4.749zm-148.599-16.849c-1.412-9.069 8.035-16.875 16.425-15.224 5.403 1.065 3.942 10.926-.842 9.415-6.38-2.017-12.015-.19-15.583 5.809zm12.366-26.092c.528-9.155 11.431-14.993 19.302-11.77 5.067 2.075 1.554 11.457-2.811 9.061-5.826-3.197-11.73-2.484-16.491 2.709zm203.286 49.914c-1.977-8.975 6.13-16.706 14.609-15.533 5.46.756 5.453 10.088.583 8.85-6.495-1.65-12.003.492-15.192 6.683zm131.931-4.294c2.043-8.962-6.01-16.748-14.496-15.63-5.463.718-5.525 10.05-.648 8.844 6.508-1.607 12.002.571 15.143 6.785zm-148.924-16.505c-1.391-9.072 7.205-16.311 15.59-14.64 5.4 1.076 4.784 10.39.007 8.866-6.376-2.03-12.014-.216-15.597 5.774zm4.914-24.761c.178-9.169 9.896-14.977 17.884-12.028 5.142 1.899 2.946 10.992-1.51 8.75-5.943-2.994-11.815-2.077-16.375 3.278z"/><path fill="none" d="M552.242 93.289c-22.439 7.312-109.241 39.931-125.183 44.993s-24.21 6.188-33.658 26.996"/><path fill="none" d="M510.318 69.103c-56.686 34.87-102.745 65.242-115.736 93.926-12.991 28.683-12.105 46.118-43.698 51.18m-90.934 53.993c14.172-15.748 43.696-34.87 72.04-35.994a169.521 169.521 0 0 0-14.173 26.996"/><path fill="none" d="M317.227 269.889c7.087-9 24.8-28.12 36.02-35.995-5.314 15.187-14.171 51.18-9.447 75.926 2.95-23.62 15.942-60.177 29.523-80.988 10.04 23.06 23.62 55.68 23.62 76.491 2.953-24.747-2.951-67.492-11.809-86.051 24.21 11.81 54.326 45.555 67.317 66.366-8.857-29.247-38.973-64.68-54.918-75.93 39.564 6.75 96.843 30.936 118.099 48.934-34.838-30.934-77.355-55.119-107.469-66.368 47.239-3.935 135.814 6.188 161.204 15.749-37.2-20.249-113.965-30.934-160.023-28.121 48.42-19.686 134.633-42.182 204.31-51.743-53.144 2.81-121.642 16.31-191.91 31.495 31.297-20.248 128.137-58.491 151.167-65.241M274.122 79.79c4.217-13.272 21.423-16.795 35.407-20.785m-12.084 30.629c-11.808-.845-13.907-4.842-7.38-9.281 4.133-2.813 12.694-7.313 18.601-7.875-1.477-.28-5.61-1.406-7.677-1.686 6.2-2.53 16.534-6.188 20.076-9.563"/><path fill="none" d="M283.716 68.261c-4.518.39-9.26.75-14.024.979m-16.532 65.105a56.975 56.975 0 0 0-8.573 1.082m-39.448 142.288a32.454 32.454 0 0 0 8.16 21.982c4.725 5.062 33.66 6.75 34.84-2.812m-38.677-31.214c10.038 10.686 42.515 4.218 42.515-3.655m-41.924-30.653c3.543 8.437 41.334 16.03 41.924 6.186m-33.953-32.902c.296 9.843 34.712 16.236 35.726 9m-24.212-31.214c1.477 7.592 24.212 14.905 27.46 11.53m-17.716-30.09c1.076 5.333 17.42 10.123 23.03 8.155m-14.83-28.711c3.35 3.873 9.849 7.477 21.03 9.307m-77.649-49.212c.294-5.906 6.198-6.749 5.314-12.654m56.687 36.839c2.066 3.092 7.38 9.56 7.97 14.342 2.954-2.25 5.315-7.032 6.201-9.28a18.425 18.425 0 0 1 5.904 8.998c1.183-3.375 3.25-9.28 3.544-12.936a27.39 27.39 0 0 1 11.514 5.623c.59-3.655-1.18-8.436-4.133-10.405 3.263.136 6.51-.54 9.447-1.968-2.066-2.811-5.314-6.468-8.561-8.155 2.954-.844 7.085-4.216 8.858-5.623-2.658-1.124-7.381-3.657-10.335-5.062 1.771-1.688 3.248-5.06 4.134-7.594M203.852 81.9c-1.919 0-2.805 4.217.738 6.89 2.549 1.922 2.51 9.842-2.066 11.81"/><path fill="none" d="M272.94 141.657c-12.99 28.682-24.948 83.097-20.815 122.467m14.024 53.853c0 5.906 9.744 7.03 9.447-7.03"/><path fill="none" d="M274.712 317.977c1.18 5.061 11.219 6.186 9.152-8.719"/><path fill="none" d="M270.579 321.914c.59 10.967 7.97 10.405 8.56 0m5.021-7.594c2.951 6.75 11.218 3.374 8.858-11.53"/><path fill="none" d="M293.312 309.258c3.249 5.626 10.924 1.127 11.81-8.716m-50.192-22.497c-5.066 5.284-10.878 17.147-3.84 28.402 4.137 6.607 15.503 10.265 16.683 6.327m-16.683-6.327c-4.575.704-11.306 10.046-7.97 18.98 2.363 6.328 15.944 10.126 18.01 5.486m128.728-16.593c14.762 1.688 34.25-7.873 35.43-26.996"/><path fill="none" d="M423.515 296.323c8.268 5.061 25.393 6.75 32.477-6.187m-24.799 10.124c-7.678 16.872-14.633 34.8 1.18 47.806 12.99 10.687 22.64-5.245 38.383 10.687 4.724 4.78-.886 13.778-48.421 39.932m-227.34-119.937c3.1 6.327 2.805 18.701-3.1 17.012m-43.549 122.89c10.038-14.622 21.89-2.806 30.41-5.343"/><path fill="#fff" d="M226.735 84.429c-1.772 4.078 2.942 9.783 7.381 10.266 5.166.562 12.547-2.672 10.925-7.874"/><path fill="none" d="M221.567 84.852c2.657-3.516 33.66 7.592 46.059-.282M121.183 189.745c-1.18 2.529-.738 9.982 3.84 14.06M340.256 416.4c2.363-2.81 11.105-5.65 17.567-4.076 6.349 1.545 17.715-.562 25.096-3.376"/><g fill="none"><path d="M272.94 141.657c-2.952 27.558 3.691 69.882 20.668 88.723m-29.584-64.256c.486 24.523 6.79 53.637 19.254 69.664M257.2 192.849c2.454 18.557 7.979 37.218 16.709 49.338m-20.988-21.171c2.95 11.013 7.101 21.12 12.492 28.722m-14.013-2.07a66.724 66.724 0 0 0 5.882 10.136"/><path d="M272.35 158.81c-.885 8.718-6.495 15.466-11.516 19.404m12.106-7.31c-.885 8.716-7.085 16.59-15.205 20.386m16.977-8.295c-.886 8.717-9.744 19.403-19.782 24.183m22.143-12.092c-.884 8.72-12.399 21.935-24.122 26.177m27.814-14.085c-3.396 11.812-16.977 25.592-28.934 28.685m34.248-16.591c-.887 8.716-19.044 26.433-34.692 31.495"/></g><path fill="none" d="M177.724 272.984c1.918 8.013-4.43 15.325-7.677 13.356"/><path fill="none" d="M211.53 300.824c-30.707-6.188-53.537-16.496-66.135-40.496-3.25-6.186 5.314-7.874 4.724-13.498m-9.154-33.464c-5.314-8.999-6.496-18.842-3.543-25.027"/><path fill="none" d="M162.224 263.42c0 5.064-6.349 11.53-8.564 9.14m59.64 27.137c-3.54 8.188 3.305 23.822 18.323 29.199m11.497-3.468a9.532 9.532 0 0 0-3.648 5.187m15.755 11.545c-2.66 4.22-12.992 1.126-15.058-2.531M213.67 388.28c-12.52 11.723-25.272 12.384-40.522 14.06-15.354 1.688-19.634-4.92-25.096.562M313.683 300.26c1.774 7.874 1.181 15.748-5.904 27.56-3.911 6.516-.206 13.546.468 21.943m73.423-26.727c6.767-5.088 11.234-13.48 13.502-19.963m-34.97 23.037a32.604 32.604 0 0 0 3.083-34.849m-39.14 47.14c4.539-6.675 7.254-16.183 7.254-28.58m-98.908 46.681c1.181 5.765 10.335 8.296 11.811 5.485"/><path fill="none" d="M305.712 288.73c0 5.624-5.904 9.843-10.334 6.468.59 8.154-5.608 10.687-10.037 6.75.886 11.53-9.152 12.654-15.649 3.655-7.38 34.588-32.18 60.46-33.953 77.333-.59 3.937-16.387 2.813-12.253-8.716m189.401-53.712c-8.857-1.054-24.436-3.646-31.218 2.528m34.761 23.905c-8.186 3.093-14.8 4.18-20.073 3.812m42.659 19.792c8.158-.305 16.573-5.472 19.93-18.26m-35.734 11.781a24.442 24.442 0 0 0 15.951-12.343"/><path fill="none" d="M463.373 373.375c-5.14-1.547-15.99-3.589-24.357-2.83m-4.87 21.672c3.247-1.689-2.067-9.281-7.384-9.281m-54.619 21.934a130.567 130.567 0 0 0 21.552-11.247m20.817-2.813c4.008 1.274 9.89 6.186 7.823 7.875m30.115-113.048c4.725 7.875 13.58 12.936 25.39 7.875.832 2.372 3.64 4.806 7.134 6.75m32.725-16.593c5.906 4.499-4.428 21.09-19.78 20.528"/><path fill="none" d="M600.367 385.187c2.049 4.68 9.745 4.217 12.698 0 3.372-4.82 9.448-19.686 5.904-49.495-3.543-29.807-33.657-33.744-68.497-40.494-34.84-6.748-43.698-17.435-50.782-37.119"/><path fill="none" d="M606.274 369.72c2.951 4.78 11.218 3.655 12.399-1.126m-11.515-14.903c4.43 2.531 12.991 1.687 12.695-3.937m-15.056-13.78c3.838 0 14.172.562 13.582-3.937m-23.326-7.592c3.248-2.251 12.401-11.812 7.381-14.625m-23.914 12.938c5.609-3.095 11.81-19.123 5.019-20.53m-31.887 17.435c8.858-3.375 17.125-20.81 11.22-21.934m-39.857 17.997c14.465-3.655 18.896-22.214 13.285-23.903m6.495 107.142c15.067 1.148 23.325 8.718 29.23 11.811m-32.772-164.509c13.727-1.265 27.223 18.732 45.934 33.68m105.438-122.259c2.583-8.713 4.748-16.897 5.699-21.655M551.33 415.785a64.602 64.602 0 0 1 10.656-.79m123.117-285.712c-1.995 5.383-6.284 16.34-10.559 26.873M313.72 221.9c-26.04 8.55-53.006 24.97-70.304 55.3 9.448 2.25 27.753 0 36.02-2.812.59 7.312.59 16.873.59 23.061 8.268-6.188 18.306-15.187 25.983-17.435-.593 7.31-.593 20.245-.593 25.31 11.22-11.25 32.477-12.374 38.384 4.496 4.723-24.745 43.695-25.87 53.143-4.497 10.63-19.685 37.793-26.998 55.508-19.685 7.675-20.81 41.332-32.058 63.18-26.996-7.241-9.535-5.947-20.077-.013-29.137"/></g><path stroke-linejoin="round" stroke-width="1.692" d="m230.229 85.39 11.58 2.04s-8.15 10.404-11.58-2.04z"/></g></svg>