<svg xmlns="http://www.w3.org/2000/svg" width="500" height="250" viewBox="0 0 1000 500"><path fill="#006" d="M0 0h1000v500H0z"/><path fill="#BD1021" d="M0 250L1000 0v500L0 250z"/><path fill="#FFF" d="M107.14 250L1000 26.79v446.42"/><path d="M766.47 277.926c6.666.512 6.438 7.12 6.438 7.12l23.602.526c3.02-8.23 6.152-7.276 11.886-3.212 5.448 3.86 11.393 5.585 11.393 5.585 2.278-11.81 19.025-9.422 19.025-9.422 7.14-17.054 7.747-16.827 3.494-18.987-4.254-2.16-5.99-5.814-5.99-5.814-4.036-4.873-6.163-11.922-6.62-16.246-.455-4.324-5.468 2.164-6.38.8-.91-1.365-8.354-.57-8.354-.57 1.823 1.934-4.405.797-4.405.797.61.455 0 2.274 0 2.274-.607-.796-5.316-1.592-5.316-1.592-.456 1.023-1.52 2.16-1.52 2.16-2.58-1.137-7.746-.91-7.746-.91-7.595-.114-12.152 2.274-14.28 3.525s-9.72 5.116-15.95 11.142-9.72 5.344-9.72 5.344c-1.824 6.708-16.71 14.894-16.71 14.894-2.43 2.16-9.874 3.183-13.67 0s0-8.868 0-8.868c1.404-2.658 2.797-2.548 2.952-11.77.105-6.236 6.542-11.182 13.15-18.43 8.077-8.86 19.367-23.45 19.367-23.45.057 4.478 2.506 5.203 2.506 5.203 2.222-4.562 5.412-8.23 5.412-8.23.17.385.627.64.627.64 2.506-3.41 4.044-4.774 4.044-4.774-.854-.34-7.86 0-14.412 5.714-6.55 5.713-11.05 3.795-11.05 3.795-4.558-1.45-4.957-4.947-4.957-4.947-3.327-14.317 9.74-24.558 9.74-24.558-17.544-4.178-4.898-26.434 16.862-35.9s21.53-13.728 21.53-13.728c1.254 1.45 2.28 4.008 2.28 4.008.228-.17 1.823-2.558 14.355-8.1 12.532-5.544 18.57-10.32 18.57-10.32 1.595 3.07 1.253 5.288 1.253 5.288 34.292-12.023 68.072-39.608 68.072-39.608.968 2.302.456 5.798.456 5.798 5.582-5.16 25.748-17.182 25.748-17.182.342 7.675-5.98 10.617-5.98 10.617.683 1.11 1.08 3.112 1.08 3.112 3.305-1.792 18.685-12.536 18.685-12.536 5.638 4.86.512 12.833.512 12.833 1.994-.298 3.475-2.046 3.475-2.046 1.424 8.272-7.747 15.563-7.747 15.563 1.595.043 4.272-1.535 4.272-1.535-1.71 9.04-18.855 19.058-18.855 19.058 2.506 2.217.114 5.16-1.937 6.48s-5.696 4.222-4.557 5.416 8.716-4.136 8.716-4.136c1.31 3.795-8.432 11.256-8.432 11.256 6.78.895 25.634-7.674 25.634-7.674-1.538 7.29-8.66 12.96-17.43 16.244-8.774 3.283-8.318 3.795-8.318 3.795 1.538 1.236 13.67-2.302 13.67-2.302-3.645 8.143-16.29 13.73-16.29 13.73 3.474 2.94 8.202-.47 12.93-3.71s11.165-6.012 18.285-8.4c7.12-2.387 12.132-.596 12.132-.596 5.924-1.877 10.937.766 10.937.766 11.392.938 12.53 5.074 12.53 5.074 1.254.298 2.223.81 5.128 2.942s2.734 8.74 2.62 11.98c-.114 3.24-1.025 3.24-1.595 4.137s-.627 1.918-.627 3.154-2.848 8.91-20.45 8.996c-17.602.085-26.678 0-26.678 0-1.453 0-3.19.853-3.19.853-7.405 3.667-3.494-2.5-12.304 4.747-8.81 7.248-13.292 5.997-13.292 5.997-1.443 1.734-10.67 10.318-15.95 13.73-5.28 3.41-4.33 3.097.266 5.087s11.545 0 11.545 0c-4.443 2.956-1.367 4.32-1.367 4.32 5.848-3.553 9.38-2.245 9.38-2.245 1.86 5.087-4.823 13.13-4.823 13.13 2.582.342 7.443 0 7.443 0-1.177 3.44-6.038 7.22-9.608 8.386-3.57 1.165-2.924 1.62-1.86 3.78s.15 4.35.15 4.35c-6.227-4.32-6.455-.456-6.455-.456-.72 5.12-.608 12.45-.608 12.45-4.405-2.217-4.633.74-4.633.74-1.14 4.66-6.532 10.06-6.532 10.06-.228-2.898-2.886-3.637-2.886-3.637-2.81 5.4-7.975 8.64-7.975 8.64-.685 4.662.607 11.2.607 11.2-3.342-.682-4.557-.625-5.09.17s.76 1.195.76 1.195l43.522 1.08c.607.057 3.19.34 3.265 5.06.076 4.717-3.798 4.945-3.798 4.945l-47.622-1.137s.228 1.307-2.28 2.615-1.67-1.477-2.354 4.378c-.683 5.855-10.177-.455-10.177-.455-1.52 2.274-5.24 5.23-5.24 5.23-2.128-6.424-4.33-8.413-7.748-2.842s6.152 4.606 6.152 4.606 55.9-8.243 58.94-8.527 6.38-.115 7.746 4.15-6.76 4.945-6.76 4.945l-57.344 6.253c-1.216 3.41-6 3.127-6 3.127.38 3.24-3.04 5.287-4.786 6.48-1.747 1.195-7.215.626-7.215.626-6.685 4.55-9.95.967-9.95.967-4.33 1.876-7.065 1.08-10.634-.455-3.57-1.535-3.266-5.855-3.266-5.855l-36.19 3.752a8.752 8.752 0 0 0-2.887 1.733c1.29 1.65-2.592 5.48-2.592 5.48 1.083.745 3.162 2.834 3.447 7.354.3 4.78-5.84 5.585-2.763 8.91s8.687.577 14.953-2.43 12.418-2.62 15.095-2.6c2.677.02 10.14 1.897 14.782 3.54 4.643 1.64 6.238.66 6.55-1.728s2.394-3.07 2.394-3.07c-.57 2.344.684 3.39.684 3.39 1.794.127 4.927-1.62 4.927-1.62-.286 1.726-2.564 2.813-2.564 2.813-4.557 3.048 1.71 1.92 1.71 1.92 12.474-2.56 16.917-2.303 20.164-1.962s18.57 6.865 18.57 6.865c.57-1.535.17-5.33.17-5.33 3.932 1.067 5.527 3.327 5.527 3.327 1.48-1.62.513-4.35.513-4.35 12.646 7.078-2.62 10.276-6.665 11.64-4.044 1.364-3.987 3.027-3.987 3.027 3.36-1.067 5.696-1.45 8.488-1.664 2.79-.213 1.823-.043 8.488-1.364 6.665-1.322 10.083 1.492 10.083 1.492-5.582.298-7.234 1.96-7.234 1.96 3.532 2.43.17 4.478.17 4.478-5.07-6.395-9.398.256-9.398.256 1.737-.256 6.836.81 8.288 1.727 1.124.71 3.76 2.004 7.035 3.517 4.625 2.137 3.76.767 7.348 2.132s2.222 4.818 2.222 4.818c-1.538-2.814-4.842-3.795-4.842-3.795-.285 3.795-4.1 4.434-4.1 4.434 4.67-5.2-5.413-7.46-10.14-7.375s-8.26 3.112-8.26 3.112c9.512 8.91 16.12 6.012 16.12 6.012-1.196 3.24-9.057 1.96-9.057 1.96 3.645 2.77 3.246 4.733 3.246 4.733-1.937-1.876-5.127-.938-11.962-5.372s-12.93-2.983-12.93-2.983c6.664 7.12-2.45 11.34-2.45 11.34-3.36 1.92 1.424 4.52 1.424 4.52-4.215.767-4.785-3.453-4.785-3.453-2.222-.426-5.412 2.26-5.412 2.26.23-4.35 5.925-2.174 6.096-6.694s-5.298-8.015-21.42-5.798-20.848-2.942-20.848-2.942c-1.367.043-1.652 1.407-1.652 1.407 2.677 2.558 3.874 3.624 3.418 5.415-.456 1.79.854 2.388.854 2.388-2.962-.17-3.19-3.71-3.19-3.71-.057 1.45-.684 1.58-1.652 3.113-.968 1.535-.057 3.496-.057 3.496-1.254-1.11-3.533-2.43-1.368-5.586 1.667-2.43-3.475-5.543-3.475-5.543-1.994-2.045-7.29-.127-7.29-.127-10.995 2.174-17.432-4.775-17.432-4.775-1.253 0-3.646-.682-3.646-.682-11.622 5.202-21.818-6.054-21.818-6.054-8.772 1.663-12.76-2.558-15.437-6.694-2.677-4.136-3.19-4.477-6.722-6.608-3.532-2.132-6.833-8.163-3.59-11.34 2.83-2.772 1.995-3.412 1.995-3.412-4.557-7.66 8.127-10.13 8.355-11.963.332-2.675 2.98-4.366 5.83-4.537 2.847-.17 2.847.085 4.727-1.833 1.88-1.92 5.47.47 5.47.47.74-.555 7.006-5.416 12.588-2.9 5.583 2.516 10.197.725 10.197.725 3.93-.853 36.57-5.287 36.57-5.287 2.11-3.155 3.59-6.95 12.59-8.996 9-2.046 15.836-7.632 15.836-7.632-1.594-1.705-4.27-1.62-5.638-1.79-1.367-.172-4.215-2.602-4.215-2.602-1.652.725-2.5.37-14.298 7.546-10.54 6.41-10.843-6.31-10.843-6.31l-22.994.042c-.4 4.86-4.1 6.78-4.1 6.78l-8.375.425c-4.67-2.473-4.728-10.7-4.728-10.7-25.292.383-39.362 9.42-39.362 9.42-28.653-14.666-51.097-17.99-51.097-17.99 34.806-3.796 53.205-13.474 53.205-13.474 19.197 11.512 37.255 11.81 37.255 11.81.684-6.95 5.355-8.655 5.355-8.655l5.296.288z"/><path d="M725.09 335.68c-7.273 4.265-5.958 6.594-5.325 7.904.646 1.336.72 2.615-1.253 4.605-1.975 1.99-1.785 2.68-1.785 2.68.304 7.07 5.31 8.57 7.4 10.304 1.748 1.452 4.714 6.002 4.714 6.002 3.723 5.344 7.672 5.4 10.596 5.4s2.664-.248 1.177-1.563c-1.398-1.237-4.33-3.638-4.33-3.638 3.912 1.364 7.634 5.457 7.634 5.457 7.39 8.086 14.203 7.02 17.203 6.623s2.468-2.132 2.468-2.132c-.158-.288-3.076-.512-3.076-.512-11.09-1.05-14.43-8.327-14.43-8.327 6.683 6.566 17.164 7.902 20.392 7.78s3.038.804 2.354.975-1.67 0-3.152-.114-1.48.256-1.14.88 1.738.69 3.504.626.342.128 4.927 3.688c4.586 3.56 16.007.682 16.007.682-7.377-1.833-8.402-5.16-8.402-5.16-10.026 1.173-14.1-4.838-14.1-4.838-1.793-1.79-7.15-4.56-7.15-4.56-5.666-2.432-6.55-7.56-6.55-7.56 1.596 2.27 4.7 4.872 8.63 5.96s5.042 1.662 5.042 1.662c-1.88.277-2.99-.34-2.99-.34-3.932-1.152-1.71.447-1.71.447 4.33 3.454 5.526 3.2 5.526 3.2 11.364 1.17 5.725-3.37 5.725-3.37 8.09 1.92 9.428-1.108 9.428-1.108 1.68 3.56 7.804 2.28 7.804 2.28-8.146 3.923-1.965 2.803-1.965 2.803 8.23-1.544 9.845.552 9.845.552 2.228 2.072 4.48 1.784 4.48 1.784s1.482.044 4.615.67 7.918 3.296 12.475 2.732 5.298.866 5.298.866c-.854-.295-2.848-.6-6.38.978s-9.627 2.09-18.513 0-9.57-1.833-9.57-1.833c2.108 1.577 3.987 3.795 4.386 5.33s1.937 1.62 1.937 1.62c.627-1.962 3.304-2.815 3.304-2.815 1.752 1.62 6.436 3.752 6.436 3.752.513-1.066 0-1.812 0-1.812 3.418 3.262 7.405 2.28 7.405 2.28 1.082-.764.742-2.6.742-2.6 1.367-.043 1.595.81 2.563 1.45s4.044.213 4.044.213c-1.14-.468-1.938-2.216-1.938-2.216 4.5-3.112 14.24-1.748 14.24-1.748 7.036 1.236 6.153 5.84 6.153 5.84 1.424.683 3.304 2.815 3.304 2.815.597-1.62.056-3.26.056-3.26 3.22 1.534 3.902 5.286 3.902 5.286 3.73-4.264-3.56-9.06-3.56-9.06 3.532-.448 7.434-.128 9.798.213s5.753 1.577 8.516 3.88 7.72 3.367 7.72 3.367c-.153-.95-2.792-2.558-3.39-2.9s-.854-1.17-.854-1.17c2.42.425 4.1.212 4.1.212-8.515-5.203-10.65-7.675-10.65-7.675 3.19.405 4.955-1.578 4.955-1.578-6.722.15-6.95-1.6-6.95-1.6.826.235 3.874.982 7.89.193s9.598.02 9.598.02c-2.904-4.668-14.155-3.88-17.743-3.687s-4.984-.277-4.984-.277c.57-.277 1.168-.874 3.987-.895 2.82-.02 5.582.214 8.772-1.982s7.567-1.47 7.567-1.47c-1.064-2.104-6.115-2.843-10.558 0s-8.47 1.932-8.47 1.932c7.027-.995 9.077-3.468 9.077-3.468-2.128-.512-3.305.17-7.52.995s-5.355-.625-5.355-.625c4.633-2.757 7.86-3.866 7.86-3.866-3.948-.824-7.594-2.51-7.594-2.51-4.1 3.857-7.29 6.034-15.15 1.913s-11.963-3.64-11.963-3.64c6.912-4.092 14.013-2.33 19.178.768s6.646.568 6.646.568c-1.632-1.023-1.404-1.904-1.404-1.904 12.532 6.395 17.963 2.416 20.735.54s-1.252-4.377-1.252-4.377c-.266 4.065-5.393 5.912-9.418 4.548s-7.747-3.098-13.538-5.514-13.045-1.166-19.805.255-7.633.74-8.24.2-.95-2.19-4.406-.768c-3.455 1.42-11.506-2.36-16.52-3.553s-13.218-.54-20.316 3.354-10.595 2.928-12.722 1.96-3.456-3.637-1.177-6.025 2.468-3.04 2.28-6.48c-.19-3.44-3.57-5.487-3.57-5.487 3.113-3.212 3.873-3.922 2.81-5.315-1.064-1.392.607-1.363 2.392-2.16s.987-.91.57-1.96c-.418-1.052-1.443-.88-1.443-.88-4.14.17-6.418-.967-6.418-.967-6.855-3.155-13.216 2.984-13.216 2.984-3.894-2.983-4.785-1.052-5.47-.313s-2.05 1.25-3.873 1.42c-1.658.156-4.164.805-5.033 2.354 0 0-.768 1.245.19 2.608 0 0 1.064 1.605-.872 3.544-1.937 1.94-2.62 2.41-2.022 4.242s.427 3.24-.313 4.434c0 0-.883-1.023-.655-2.28s.228-1.984-.057-2.666c0 0-1.908 1.876-2.25 3.22 0 0-.797-2.07 1.965-4.84s4.02-4.15 3.247-5.223c-.57-.79-2.59.488-3.077.773z" fill="#FFC221"/><path d="M732.94 366.24s-3.456-2.643-3.038-6.31.348-4.12-.035-4.89c0 0-.63.366-.61 1.792.017 1.338-.173 2.73-.305 2.984 0 0-1.785-3.04-2.506-3.61 0 0 .608-3.183-.38-4.548-.987-1.364-1.943-1.45-3.076-1.023-1.568.59-2.752 2.047 2.517 6.367 0 0 1.964 1.563 3.332 5.03 1.366 3.47 3.645 4.01 4.1 4.208zm17.128-10.147s-.266-2.075 1.595-5.742.745-6.39.327-7.3-.67-.572 1.208-2.148c2.31-1.94-.89-4.387 2.908-7.787 0 0 2.506-2.15 3.076-3.03 0 0-4.025 2.16-6.646 3.24-2.62 1.08-12.646 5.997-10.443 9.294s1.975 3.467 1.633 4.83c0 0-5.962-3.154-3.874-8.27 0 0 .947-2.06 3.456-4.377 2.28-2.103.91.455 5.544-2.19 0 0 3.684-2.188 5.62-5.144 0 0-2.43 1.534-3.304 1.79 0 0-5.355.966-7.52 3.24-2.164 2.274-6.76 6.225-5.202 10.63 0 0-5.355-.654-6.57-6.225 0 0-9.912 12.222 10.9 17.907 0 .002 3.798 1.01 7.292 1.28z"/><path d="M841.606 315.23c7.772-1.175 52.815-7.982 56.908-8.397 4.48-.455 6.197-1.053 7.67 2.558 1.672 4.094-6.15 4.15-6.15 4.15l-53.7 6.09c-2.634.303-3.223-.702-3.223-.702-.464-.858-1.362-2-1.98-2.748 0 0-.708-.77.476-.95z" fill="#FFC221"/><path d="M731.61 339.66s-5.81 12.236 17.032 15.263c0 0 .057-1.364.968-3.283s2.905-5.798 1.025-8.314 1.538-1.194 2.05-4.477-.34-2.815 1.254-4.947c0 0-7.178 2.6-9.913 5.756-2.734 3.154 3.703 5.542-.114 8.995 0 0-3.19-1.15-5.07-4.605.002 0-4.44.087-7.233-4.39z" fill="#5A3719"/><path d="M753.94 354.69s5.64 4.882 12.36 4.67 9.57-2.005 11.28-4.67c0 0 1.307 2.065 1.31 3.432 0 0 5.81-4.818 15.836-.64s6.95 3.03 9.17 3.327c0 0-4.26-.76-14.012 3.707-10.025 4.592-36.172 3.027-35.944-9.827z"/><path d="M744.597 333.096s2.535.384 5.07-2.473c0 0-3.418.64-5.07 2.473zm-19.155 22.725s-4.713-3.708-1.694-4.433c0 0 2.15-.34 1.694 4.434z" fill="#5A3719"/><path d="M828.05 379.017s2.505-4.48 9.74-4.48 8.09 3.326 17.203 3.965c0 0-10.944 3.084-18.57.256-3.987-1.478-7.576-.25-8.374.26z"/><path d="M756.446 357.952s10.823 6.566 20.45-.554c0 0 .798.767 1.48 2.515 0 0 7.292-7.036 20.337.554 0 0-1.603-.178-7.747 2.473-8.004 3.454-28.026 5.714-34.52-4.988z" fill="#5A3719"/><path d="M798.2 364.604s10.367 1.202 19.14.682c5.39-.32 11.222-1.306 8.317.52-2.905 1.825-1.48 1.996 10.937.845s-.114 2.346 8.43 3.454c0 0-20.71 10.573-46.824-5.5z"/><path d="M825.43 357.995s6.094-2.217 11.734.426c5.64 2.644 4.785 2.858 8.545 3.24 0 0-2.62 3.753-8.83.726s-7.855-3.61-11.45-4.39zm6.778 18.717s5.98-2.983 12.59.118c.828.388 2.632 1.137 4.328 1.502 0 0-5.065 1.57-10.254-.043-2.157-.67-3.873-1.194-6.664-1.578zm-29.565-10.702s13.33 1.236 20.564-.205c0 0-8.374 4.042 12.646 2.166 0 0 4.67-.51 4.1.214s-.91 1.28 1.368 1.96c.002.002-15.606 6.994-38.677-4.134z" fill="#5A3719"/><path d="M736.05 354.69s.114 1.023 3.076 2.345 4.557 3.688 5.184 4.967 2.136 3.193 4.586 3.803c0 0-10.45 2.18-15.133-3.255 0 0-3.55-3.916 2.174-7.86"/><path d="M818.31 378.8s-4.158-.256-9.798-2.217c-5.64-1.96-7.12-.298-10.31-2.686-3.19-2.388-9.627-.895-10.823-.725-1.197.17-4.615 0-.343-2.77 0 0-3.418-.086-4.728-1.792 0 0-1.54 1.492-7.292.938 0 0 2.563 4.026-7.747 2.866 0 0 3.077 3.572 6.78 4.297s5.247.486 7.633-.212c0 0-.684 3.112 4.1 4.306s5.754 2.132 8.204 3.112c0 0 .342-2.004-6.038-6.65 0 0 3.417-.172 8.316 1.022 4.897 1.194 16.005 4.05 22.044.512zm2.582 4.775s1.025 2.388 4.177 1.848 8.335-1.464 13.348 1.094c0 0 .854-4.264-9.21-4.562 0 0-6.303.34-8.316 1.62zm-85.218-27.372s-3.874 3.183-.36 6.495c3.208 3.025 8.164 2.757 10.537 2.672 0 0-1.423-.81-2.676-2.686s-1.296-3.144-3.93-4.35c-2.735-1.25-3.058-1.576-3.57-2.13zm-4.064-16.542s-5.81 12.237 17.032 15.264c0 0 .057-1.364.968-3.283s2.905-5.797 1.025-8.313 1.538-1.194 2.05-4.477-.34-2.814 1.254-4.946c0 0-7.178 2.6-9.913 5.756-2.734 3.155 3.703 5.543-.114 8.996 0 0-3.19-1.15-5.07-4.605.002.002-4.44.088-7.233-4.39z" fill="#5A3719"/><path d="M791.65 367.89s4.785-.767 16.975 3.795 17.26 3.41 19.083 3.283c0 0-6.876 3.592-17.526-1.097-9.417-4.146-10.044-2.57-18.532-5.98z"/><path d="M867.962 365.158s2.783-.095 4.405.668c0 0 1.063-.91 3.608-1.18 0 0-1.67-1.677-8.013.512zm-8.335-6.75s2.79-.128 3.627-1.464c0 0-1.405-1.79-3.55-2.643 0 0 .435 1.905-.077 4.108zm-93.668-31.153s-.514-1.364 2.39-1.79c2.906-.427 40.882-5.842 40.882-5.842s2.013-.003 2.298 1.322c.308 1.432-.228 2.503-9.4 3.575s-33.38 4.1-33.38 4.1-2.564.426-2.79-1.365z" fill="#FFC221"/><path d="M803.004 325.62s0 5.373 5.47 6.17c5.305.77 7.13-.332 8.544-3.126.37-.734 2-6.343-.357-6.77-.925-.17-2.568-.073-3.743.43-1.83.78-3.528 1.697-2.924 2.614 1.29 1.96 1.543 2.416 1.063 2.558-1.312.39-2.277-.764-2.544-1.563-.333-.996.723-1.637-2.848-1.11-1.46.217-2.66.172-2.66.798z" fill="#FFC221"/><path d="M825.752 321.49c2.794.323 2.582 6.234-.76 8.906-3.6 2.877-7.033 1.848-7.033 1.848-1.817-.767-1.59-.512-.184-2.643 1.33-2.017 1.957-4.733 1.215-6.622-.236-.604.42-1.094 1.346-1.293.002 0 2.53-.527 5.416-.194z" fill="#FFC221"/><path d="M828.182 322.01s1.994 2.51-.495 7.135c0 0-1.1 1.364 1.368 1.165s7.975-2.842 7.405-6.225c0 0-.19-.824-1.633-.74-1.443.086-.266-.795.342-.965s2.486-.867-2.393-4.008c0 0-.805-.725-1.747-.426-.744.236-3.343 1.302-3.343 2.814 0 .62.495 1.25.495 1.25z" fill="#FFC221"/><path d="M833.518 317.76s3.893 2.79 3.874 3.62c-.02.83-.36 1.952.665 1.853 1.025-.1 5.24-.995 4.082-3.78-1.16-2.786-2.318-3.766-4.273-4.448-1.956-.682-2.45.242-4.12 1.506 0 0-1.216.74-.23 1.25zM812.46 321.7s.646-2.075-2.848-2.842c0 0 1.48-1.222 4.443-.568 2.942.65 2.628 2.587 2.605 2.842 0 0-2.3-.086-4.2.568zm7.596-.483s4.048-.71 5.848-.483c0 0-1.994-4.462-7.386-2.942 0 0 1.936 2.19 1.538 3.425zm6.93-1.11s0-1.363 3.437-2.728c0 0-1.668-1.57-3.987-1.42-2.658.17-3.19 1.136-3.19 1.136s2.886 1.002 3.74 3.013zm1.348-4.66s2.127.54 3.456 1.677c0 0 2.016-2.2 3.722-2.672 0 0-3.342-1.79-7.178.995z" fill="#FFC221"/><path d="M716.514 304.7s9.383-7.95 14.64-6.99c5.256.956 2.62.297 8.374-.598 5.753-.895 11.678-1.492 14.07-1.194 0 0-6.95-4.988-19.368-4.903 0 0-8.772 3.027-14.81 7.035 0 0-11.622-6.48-23.64-2.6 0 0 13.044 4.73 20.734 9.25z" fill="#5A3719"/><path d="M816.286 318.472l1.566-.263s2.644 3.273.723 3.31c-1.5.03-.894-.462-1.178-1.414-.285-.952-.797-1.378-1.11-1.634zm-11.79.256s-.94 1.17.825.895c2.152-.333 1.738.072 4.102-1.528 0 0 1.453-1.542 4.158-.582 0 0 2.28.746 4.13-.15s2.28-.83 3.275-.745c.997.085.93.3 2.26-.67 1.33-.972 3.636-.226 5.09-1.44 1.452-1.216 3.274-.193 0-2.538 0 0-.685-.682-.628-1.258 0 0 1.253.362 2.25 1.258.997.895 2.65.618 2.934.47 0 0 .172-2.922 3.077-5.608 2.905-2.686 2.934-2.9 1.225-2.92-1.71-.022-4.586-.683-5.554 0s-9.485 6.266-14.44 7.204c-4.956.94-9.513 2.346-12.703 7.612zm-132.243-30.555s15.21 3.922 18.627 5.57c0 0 .816-2.543-6.095-4.533 0 0 16.785-.512 34.558 7.56 0 0 8.567-7.345 36.137-5.07 0 0 .054-2.436.244-4.31 0 0-19.368-.567-37.14-11.368 0 0-15.912 7.83-46.33 12.15zm84.534 7.347c-1.063-15.548 4.9-16.94 4.9-16.94s2.807.016 5.847.483c0 0-4.71 5.6-3.456 16.713 0 0 .494 1.79-3.494 1.79-3.924 0-3.797-2.046-3.797-2.046z" fill="#FFC221"/><path d="M760.85 305.81s-2.886-2.956-3.19-6.367c0 0-.076-.88 2.848-.796s3.306-.28 4.025 1.42c.7 1.656 2.544 5.146 3 5.544l-6.683.2z" fill="#5A3719"/><path d="M767.096 298.048a36.973 36.973 0 0 1-.32-5.91c.19-8.67 1.628-7.9 2.198-6.818l2.966.054s-2.165-9.778-4.71-4.065c-2.5 5.61-2.316 9.265-2.012 13.7.175 2.553.512 4.143.797 5.1l1.08-2.062z" fill="#FFC221"/><path d="M800.593 298.07s5.725.875-3.048 2.964c0 0 .427 10.6 10.795 3.176 0 0 6.124-3.915 10.367-5.507 0 0 2.136-.74 1.88-2.338 0 0 .17-1.883-2.05-1.514 0 0-1.75.042-2.878-.37 0 0-1.226-1.44-2.052-.887s-2.763.234-1.253 2.068 1.965 1.365 2.706.832c.742-.533 4.017-1.833.998.874s-5.383-1.492-6.352-2.26l-9.113 2.965zm-28.653 1.202l-2.544-.057s-1.367 2.047-2.3-1.167l-1.08 2.06s3.152 11.382 5.924-.836z" fill="#5A3719"/><path d="M768.332 286.14s-1.29 7.447.342 12.052l27.533.512s-.342-5.344.076-12.563h-3.91s-.533 5.998-.04 9.693l-.644.013s-.495-5.186.036-9.705h-3.228s-.532 5.544-.114 9.75h-.608s-.456-4.86.076-9.75h-3.19s-.586 5.02.04 9.68l-.76-.015s-.647-5.088.037-9.664h-3.533s-.873 4.69-.038 9.722h-.723s-.797-4.804.076-9.72h-3.532s-.834 5.314-.113 9.72h-.684s-.57-5.145.19-9.72h-3.304s-.874 4.49-.153 9.72h-.722s-.532-3.894.152-9.72h-3.265zm29.09 13.587s-.762-13.474 1.823-16.94c2.585-3.466 3.114-2.786 7.52 0 4.404 2.785 10.1 5.798 11.012 6.14.91.34 2.203.68 2.203 3.126s.456 3.183-3.342.114c-.57-.46-2.345-2.085-3.627-2.494-3.402-1.086.82.762 2.033 2.494 1.03 1.468 1.823 1.307-.835 1.99s-11.85 3.75-16.786 5.57z" fill="#FFC221"/><path d="M807.06 290.08s-1.994-2.52.54-3.095 2.735 3.986 3.162 6.736c.428 2.75-3.19-2.778-3.702-3.64zm-3.702 11.742s-2.962 1.087-1.025 2.046 7.405-3.58 5.526-3.283c-1.882.3-4.502 1.237-4.502 1.237zm4.016-4.157s2.62-.256 2.108.874c-.513 1.13-1.453.41-1.85.162-.4-.248-2.252-.888-.258-1.037z"/><path d="M821.328 294.14s.703 5.13 5.108 6.432c0 0 2.544.632 2.013-1.613 0 0-.438-1.877-.798-2.66-.36-.78-2.127-1.278-2.317-1.363s-.418-.625.798-.227c1.215.398 1.405.44 1.31-.412-.095-.853-.81-.51-1.926-1.055-.43-.21.046-.494.502-.394.455.098 1.537.425 1.556-1.337 0 0 .24-.98-1.1-1.052-1.463-.077-1.35-.73-.893-.83.456-.1 1.986.96 2.41-.782.438-1.79-2.107-.76-1.765-1.684s2.145.528 2.295-.568c.145-1.066 1.602-1.53-.88-1.874-1.176-.163-.088-.685 1.234-.5 1.415.2 2.27-1.548 3.086-2.117.817-.568 5.43-3.325-.72-2.416-6.154.908-7.957 3.893-8.356 4.49-.4.596-2.11 4.12-1.56 9.96z" fill="#FFC221"/><path d="M835.66 298.117c.792-.152 1.54.063 1.808.614 1.013 2.08-1.31 1.337-2.6 2.872s-1.33 1.222-3.153.685c-1.823-.537-2.506-3.3-2.506-3.3-.205-.848.583-.92 1.527-.812 0 0 3.022.31 4.924-.058zm-6.66-1.105s.127.622 1.17.707c1.045.084 4.08.347 5.883-.235 0 0 .665-.13.366-1.306 0 0-.025-.763-1.65-.454s-3.972 0-4.755-.17c-.783-.17-1.42.014-1.016 1.456zm-.248-3.723s-.057 1.62 1.576 1.832c1.633.213 3.666.205 4.513.038.647-.128 1.81-.364 1.906-1.317.095-.952.36-1.663-1.652-1.165-2.013.497-4.443.17-4.69.114-.247-.057-1.614-.47-1.652.497zm.74-3.27s-.398.74-.34 1.45c.056.71 1.233.952 3.36.98s4.025-.283 4.158-.994c.133-.71.646-1.535-1.025-1.28-1.67.257-3.78.328-4.614-.013-.835-.342-1.397-.46-1.537-.143z" fill="#FFC221"/><path d="M907.57 298.263s-.027 1.482 1.14 2.942l-59.03-1.695s.863-.533 1.083-2.832l56.808 1.585z" fill="#5A3719"/><path d="M829.967 287.576s-.513 1.492.55 1.79c1.064.3 2.887.626 5.3.243 0 0 1.214.084 1.632-1.21s.374-.567-3.06-1.25c0 0-1.08-.315 2.053-.327 0 0 1.747.057 2.013-.242.266-.297 2.582-2.13-.418-2.017-3 .114-1.52-.526 0-.526s1.994.313 2.487-.17c.494-.484.038-.157-.78-.982-.815-.824-.246-.583.343-.128s.95.597 1.614.014c.665-.582-.513-1.434 0-1.335.513.1.76 1.073 2.696.135s4.557-.448 5.27.085c.71.533 2.733 1.215 3.958-.043s-1.453-2.28-.313-2.452 1.937.234 2.393-.682c.456-.917-1.766-1.79.37-2.366 2.136-.576.342-6.566-.4-7.12 0 0-2.39 1.407-5.012 5.65s-4.158 6.714-7.72 5.414c-5.135-1.876-7.76.82-8.555 1.307-1.233.753 2.574 1.123.353 1.165-2.222.043-2.222.234-2.45.576-.227.34-.028.64.37.66.4.022 1.254.875-.113.832-1.367-.043-2.336-.256-1.934 1.197 0 0 .025.317.823.402.796.085 1.08.917-.4.917-.95.002-1.045.37-1.073.464zm5.46 14.8s-1.055.747.398.832 2.222.362 2.677-.416c.456-.778 2.42-.458 1.11-1.546-1.31-1.086-2.192-.468-4.186 1.13z" fill="#FFC221"/><path d="M841.52 284.62s4.915-4.626 9.023-1.492 4.506 3.603 4.563 3.667.484.405-.627 1.386-.03.96 1.195.363 1.31-.043 1.908.618 1.398 1.046-.497 1.067-5.968 0-5.968 0-2.763.234-1.367-.895c1.397-1.13 1.197-2.473.485-2.558s-.057.682-.484 1.215-1.395 1.022-2.363 1-1.823.702-.285 1.258c1.538.555-.17.92-.968.897s-4.643.298-.74.767c3.902.47-.352.356 2.506 1.99 3.16 1.805.883 5.642-.313 5.983 0 0-1.31.713.342.516 1.65-.195 2.562-.43 1.395.465-1.168.895-3.503 3.88-6.75 1.6 0 0-1.48-.704 1.168-.832s-2.165-.694-2.962-1.232-3.844-3.65-1.936-3.265 1.225-.725.085-1.13-1.368-2.153-.086-1.77 2.79 1.1 3.817 1.05c1.026-.047.742-.474-1.452-1.156-2.193-.683-3.105-.79-2.592-2.644s2.905.725 2.336-.66-2.65-.704-1.538-2.538c1.11-1.833 1.367-1.045 1.88-.81s1.333.06-.114-1.023c-.913-.684.082-1.61.34-1.835z" fill="#FFC221"/><path d="M845.053 285.9s-.03-.62.854-.513c.883.107.655-.32.91-.448s2.467.657.4 1.406c-.764.277-1.964.08-2.164-.447z"/><path d="M849.753 291.143s-1.66.846-.157 2.59c1.282 1.485 1.275 1.956 1.168 2.944-.108.988 56.807 1.585 56.807 1.585s-.1-3.656 2.337-5.713c0 0-31.102-.725-60.154-1.407z" fill="#FFC221"/><path d="M908.54 297.26s.23-3.083 1.937-4.105c.94-.563 2.18-.235 2.72 2.25.77 3.537-2.226 6.545-3.617 5.202-1.325-1.278-1.04-3.346-1.04-3.346z" fill="#5A3719"/><path d="M843.32 310.56s3.788-3.22 4.358-4.67c0 0 10.254 7.265 9.627.595 0 0 .03-1.788.313-3.493 0 0 3.707.364 4.272-2.596l-9.57-.282s-.997-.213-2.478 1.386-4.53 3.35-7.377 1.823c0 0-1.192-1.035-2.405-.16s-1.27 1.13-.273 2.067c.998.94 3.134 3.817 3.533 5.33zm22.017-20.06l-5.61-.213s-2.052-2.878-6.04-6.076c0 0-1.167-.51 1.083-2.3 2.25-1.792 2.905-3.71 2.99-4.584s-.14-2.238.713-1.194c.854 1.045 6.665 6.29 7.49 4.733s.97-2.28 1.112-2.75.342-1.92 1.168-.405 1.393 1.127 1.424 5.052c0 0 .142 3.88.74 5.287 0 0-7.35-2.355-5.07 2.45zm-24.353-11.938s4.272 2.388 6.38-.853c2.108-3.24 3.532-3.753 1.937-6.865s.045-4.562 1.248-5.84 2.228-1.067 2.4-6.013 3.588-6.608 5.126-8.143 5.412-3.88-.456-4.86c-5.867-.982-17.488-4.01-20.507-8.528s-4.385-1.833-4.442-1.663c-.057.17-1.025 3.495 1.994 9.507s5.582 9.877 8.488 11.824c2.905 1.948 5.526 3.014 4.044 7.022-1.482 4.007-4.045 11.17-6.21 14.41z" fill="#7B3C20"/><path d="M856.76 265.78s.74 10.275 8.26 13.942c0 0 1.71-4.008 1.025-7.973 0 0 2.45.212 3.133 1.32 0 0 .114-2.983-3.418-4.07-3.532-1.088-1.823-7.782-.57-8.55s.854-2.102 0-3.31-1.082-3.04 1.88-2.274 2.506-.81.74-2.26-1.708-3.24.798-3.24 6.665-2.43 4.158-3.198c-2.506-.767-3.304-1.577.114-2.558s5.07-2.217 2.506-2.515c-2.563-.298-4.272-1.194-1.766-1.62s-.456-2.984-3.36-3.112-9.172 1.066-4.216-2.9-7.12-1.065-2.165-3.666-1.653-1.45-2.564-1.492-.9 0-.565-1.322c.338-1.322-.688-1.92-2.112-1.11s-1.424.81-1.367-1.022-1.708-.468-2.79 0-3.817 2.516-4.9 1.408-1.708-2.26-5.07-.213c-3.36 2.046-2.562.213-2.505-.682s1.31-4.434-3.304-.64c-4.613 3.795-.853-4.093-4.5-1.407s-4.043 3.155-4.613 1.96-1.26-2.173-5.273.385-1.05-1.534-.48-2.43 2.278-6.693-1.254-2.173c0 0-1.71 3.155-5.526-2.473 0 0-4.044 5.59-5.07 3.115-1.025-2.476-2.05-2.732-3.36-1.112s-.343-.085-.912-1.45-.91-3.88-7.633 1.023 2.335 1.323-2.792 3.54-17.488 9.21-6.152 7.59-5.526 4.433-1.595 5.542 2.678 4.52 17.432.47 12.36-.64 19.88-3.88-1.71 1.108 8.374.894c10.083-.213 1.71.043 3.646 2.132s10.48 7.035 18.456 7.845 9.912-2.174 7.633 1.28-3.075 4.774-4.442 5.968-5.127 3.923-5.184 8.7c-.057 4.774-6.266 5.542-3.987 10.828a600.8 600.8 0 0 0 5.413-5.288z" fill="#5A3719"/><path d="M869.88 277.27s-1.823-1.28-1.785-3.553c0 0 1.29.227 1.785 1.052 0 0 4.595-5.203-.893-7.078-5.487-1.876-2.754-6.85-.893-6.88s2.185-.54.618-2.614-1.453-2.16 1.66-2.7 2.692-1.194 1.308-1.96c-1.383-.768-2.444-2.02-2.444-2.02s8.808-3.836 5.96-5.598 0-1.307 2.543-3.127c2.543-1.82 2.885-2.16 3.265-2.87 0 0-2.515.255-4.37-.115 0 0 2.197-1.08 0-2.87-2.2-1.792-3.11-3.412-6.605-2.588s-2.355-.34-.987-1.79c1.367-1.45.72-2.275-1.747-2.644 0 0 .304-1.478 2.165-3.326 0 0-4.746.34-6.34-.483 0 0 1.898-1.307 2.05-2.87 0 0-2.62.852-5.924.54 0 0 1.937-1.678 1.937-3.156 0 0-5.734 1.28-8.393 3.298 0 0-.57-.114-1.025-.74-.456-.624-.798-1.25-7.14.768 0 0 .722-2.814 2.24-3.95s1.292-3.412-8.582 2.756c0 0-1.33-.796-2.43-3.752 0 0-2.127 3.013-3.76 4.036 0 0-1.367.574-1.196-1.347s-.968-.553-1.994 0c-1.025.55-1.71 1.915-1.196-1.965s-1.367-4.69-1.367-4.69-3.076 4.35-4.842 4.818c0 0-3.247-3.155-4.386-5.244s-1.14-2.858-2.28.766c-1.138 3.624-2.562 3.922-2.562 3.922s-1.937-1.663-2.165-2.558c0 0-.342.98-.968 1.407 0 0-1.71-2.004-1.652-4.903 0 0-10.595 5.84-11.905 9.38 0 0-10.026-.597-14.184.17 0 0 1.025-3.24 3.646-4.86 0 0-2.62-.297-2.734-2.983 0 0 2.108.3 3.418-.042s-1.823-4.136 1.48-4.22 5.413 1.576 3.93-2.815c-1.48-4.39-.796-4.39-.796-4.39s5.753 3.41 6.665 2.557-.74-2.686 4.386-1.833 3.704-2.09 5.697-2.217c1.994-.128 3.076 1.28 1.823-8.015s6.21 4.605 1.14-9.422c0 0-1.283-4.242-4.33-6.054 0 0-.684 3.07-4.13.36s-10.225-3.666-7.377-5.797c2.848-2.132 4.187-4.988 3.36-6.78 0 0-3.358 3.512-9.2 1.003-4.613-1.983-5.58 1.663-10.31.597 0 0 .086-1.215 4.074-4.35s-2.307 1.046-4.785 1.6-3.19.107 2.05-3.944c5.242-4.05 15.61-11.214 14.185-17.098 0 0 2.45 3.112 8.886.853s11.222-3.07 13.16-6.395c1.936-3.326 7.006-6.694 8.316-7.42s3.075-1.235 1.08 1.92-5.24 8.57-14.126 12.236c-8.886 3.667-12.304 6.353-13.9 8.27-1.594 1.92-9.683 6.226-4.442 5.5s14.355.13 10.083-1.108c-4.272-1.236-9.114.767-5.184-2.814s4.615-4.775 10.31-7.163 12.02-7.844 11.394-2.046c-.627 5.798-11.222 11.98-13.842 13.856-2.62 1.876-1.652 1.578-1.595 2.345s-.4 2.345-1.48 3.07-.742 1.535-.457 3.155-.285 2.26.513 2.515 1.595.384 1.823 1.535.826 1.3 2.364 1.172 2.506.02 2.62.917c.114.894 1.566 2.11 1.737-.62.17-2.728 1.168-3.26-1.623-2.003s-3.39.81-3.332-.49-.256-1.002-1.424-1.11-1.567-1.747.513-2.834 2.052.02 4.644-2.132 2.592-2.75 2.99-3.75-3.702 2.92-5.667 3.815-1.453-.618-1.11-2.857 5.24-5.16 7.49-5.202 7.32 1.28 5.127 4.35-8.402 6.714-5.725 6.99 3.104-.766 4.642.598.114 4.136-.598 5.607-2.193 3.327-2.848 3.668c0 0-2.82-5.03-2.734-1.045s-.598 5.415 0 5.564 3.73 2.238 4.728 2.28-5.412 3.007-2.734 3.2c2.677.19 6.92-1.173 8.402-3.945 0 0-5.44-1.322-7.633-3.368 0 0 6.352-1.492 4.586-7.61 0 0 6.324 1.727 3.59 4.583-2.734 2.857-4.386 2.43-2.022 3.24s3.532 1.492 3.532 1.492 1.617.81.68 2.13-.965 3.327-.168 3.284 3.475-1.28 1.225-2.643 2.563-1.13.513-2.28c-2.05-1.15-2.592-1.428-3.133-1.983-.54-.554 25.748-15.967 12.475-10.19 0 0 2.763-5.99 6.636-6.012s4.158 3.048 1.965 5.372-3.617 5.948-8.772 6.8c0 0 7.368 3.61-1.338 9.508 0 0-1.89.895-1.206 1.55.684.653 5.848-2.275 6.57-3.923.722-1.65 1.823-2.928 3.798-3.894s11.697-7.59 14.62-12.592 3.723-5.173 9.42-9.75 4.708-3.666 5.43-4.774 1.025-2.928 3.646-4.406 12.798-7.134 15.988-9.437c3.19-2.303 9.722-6.538 12.532-10.12 2.81-3.58 10.378-8.156 12.266-7.305 1.89.85-.19 3.525-4.633 6.907s-15.456 12.28-17.24 13.643-11.128 8.186-14.622 8.64-3.113 1.678-5.202 3.952-6.912 7.05-8.545 8.357c-1.633 1.307-5.507 3.98-5.734 5.855-.23 1.875.683 2.102-2.43 5.03s-12.23 9.55-15.533 10.602c0 0 5.848 1.933 2.354 5.884s-3.265 3.382-3.53 3.638c0 0 8.88-1.307 2.58 5.6 0 0-1.214 1.99 1.596-.086 3.004-2.218 1.71-5.258 1.367-5.685 0 0 4.71-2.928 10.14-3.013s5.24-.455.38-1.848c0 0 3.456-4.207 6.38-2.132s1.975 3.27-1.1 4.917c-3.077 1.65-7.634 2.33-11.014 4.207 0 0 6.417 1.25 9.873-1.364s3.608-1.307 4.063-.853c.456.455.836 1.307-.684 3.496s-1.67 2.302-1.595 2.786c.076.482-.114 1.99-3.228 2.5-3.115.512-4.52 1.82-3.457 3.297s1.1 5.145-1.557 4.804-1.937-2.443-2.962-3.268c-1.025-.824-2.468-2.103-7.102.313-4.633 2.416-5.013-.455-4.785-1.96 0 0-3 2.614-5.507.198-2.506-2.416-.228-3.354 1.215-4.576s7.33-3.78 3.798-3.326-8.81.683-10.026-2.045c-1.215-2.73 2.62-2.416 3.228-2.16s3.114 2.274 3.19-.37c.076-2.643 3.987-2.928 2.658-3.468s-3.19 1.137-3.722 1.79c0 0-2.733-3.808-7.138-2.557s1.405.74 2.582.938.494 2.388-3.456 5.94-2.165 2.474.76 2.474c2.924 0 10.102.028 5.924 3.44s-5.848 5.115-8.013 4.518.265-2.018 1.214-2.615 1.52-1.65-.532-.88-2.772.91-4.405-1.99c-1.633-2.9-.95-2.047-.266-3.952.685-1.904 2.28-3.922.38-3.212s-1.708.768-1.556-1.42c.152-2.19-2.165-2.672-2.165-2.672s.91 2.19.075 3.58-.873 1.877.494 2.246c1.366.37 2.657 1.535.796 2.814s-1.633 1.11-.456 1.876 2.886 1.65 1.063 3.44-.304 1.25.608 1.25 2.975.767 3.007 2.53c.032 1.762-.12 2.19 2.842.54s8.885-1.45 8.81.853c-.077 2.302-.76 2.87 2.392.91s4.557 1.848 6.722 0 3.532-3.638 6.038-.483 1.725 4.11-1.33 6.338 1.482.512 3.8-.682 8.81-1.99 12.53-.34 4.786 1.278 7.52.14 4.14-1.392 8.28 1.365c4.138 2.757 7.366 3.27 9.53 3.212 0 0-4.594 1.79-9.76 2.132s-7.746 1.306-8.77 2.102c0 0 3.105 1.876 3.717 4.178 0 0 3.383-.455 5.054.227 0 0-.873 2.444 1.215 3.752 2.088 1.306 3.53 1.79 1.974 3.58-1.557 1.79 2.393 1.023.152 3.553s-2.848 3.81-2.924 5.855c-.076 2.047.494 2.36-1.52 2.558s.343 2.444-.57 5.116c-.91 2.672-6.53 2.388-6.303 9.55 0 0 1.556-3.496 4.898-6.566s3.456-3.354 3.38-5.202-.228-1.42 1.557-2.814-.797-2.7.987-4.69c1.785-1.99.228-1.592 2.317-3.61s-1.824-2.274.303-4.35-5.127-4.433-3.038-5.77 5.696-3.182-6.456-2.983c0 0 2.923-4.832 13.177-3.78 0 0-2.696 1.904-2.924 3.78 0 0 1.177.597 1.9.767 0 0-.398 1.375-2.355 3.04 0 0 5.43 3.042 6.304 4.833 0 0-3.304 1.023-4.14 2.473 0 0 1.444 1.65 1.938 3.78 0 0-3.684-.455-4.177 2.302-.494 2.757-1.595.88-1.595 2.5s.114 2.275-1.177 2.53-.227 1.62 0 2.53.647 2.985.457 3.64c0 0-1.86.027-2.734.283 0 0 .57 3.95-1.633 4.52s1.177 1.363-1.177 1.79c-2.355.426-2.05.568-4.937 5.742 0 0 2.468-1.393 5.013-3.07 2.543-1.677-.19-1.165 4.024-5.315s3.456-4.463 3.114-6.566-.418-3.81 1.1-5.798c1.52-1.99 2.014-4.264 7.406-3.98 0 0-1.595-3.587-3.57-4.52 0 0 2.582-1.79 5.317-2.044 0 0-2.392-2.87-7.29-5.656 0 0 4.025-3.468 4.975-5.116 0 0-1.86.284-3.342-.057 0 0 .698-1.66 4.33-4.036 0 0 1.936 1.875 1.86 3.836 0 0 6.228-3.58 9.76-3.183 0 0 1.785 4.49-6.874 12.904 0 0 5.354.512 7.632.2 0 0-1.29 4.15-7.785 6.593s1.404 5.3-5.24 4.804-4.596 1.79-4.406 5.173.42 6.85.267 7.788c0 0-5.317-1.734-5.203 3.41s-2.734 6.226-3.304 6.71c0 0-1.543-1.38-3.874-2.19-.005.005-3.303 6.267-8.626 9.925z" fill="#5A3719"/><path d="M862.28 212.78s1.823-.298 4.9 1.62 6.094-2.046 2.676-3.07.057-2.217 3.133.256 4.27 1.236 5.41.384 2.507-1.322.4-2.77c-2.108-1.45 1.424-.768 3.02.255s.967 2.09.74 2.388-.4 3.624 2.734.512 4.67-6.225 4.614-7.76c0 0 1.71 1.066 1.937 3.027s2.62-1.066 3.418-2.132c.797-1.066 2.165-3.756 1.994-5.78 0 0 2.108 3.26 5.24 0s1.767-1.212 5.527-2.193 8.488-3.752 11.05-6.864 2.735-1.023 6.04-1.79c3.303-.768 9.968-5.373 10.594-7.89.627-2.514.513-4.05-.456-3.197s-.57.17-1.994-.725c-1.424-.894-3.532 1.152-3.532 1.152s2.108 1.62.513 2.302-3.134 2.942-6.153 2.09-6.152 2.77-6.152 2.77 2.62 2.174-.91 3.54c-3.533 1.363-2.963 1.832-5.128.34 0 0-3.76 4.775-5.924 5.756 0 0-1.025-.085-1.71-.98 0 0-2.448 2.77-3.702 3.325 0 0-1.537-1.492-2.96-1.96 0 0-2.963 3.666-5.47 4.817 0 0-.74-1.364-2.336-2.302 0 0-.788 4.796-6.038 7.632 0 0 .342-1.28-2.28-3.027 0 0-6.493 5.628-9.056 6.182s-.17-1.194.17-1.92 1.938-3.11-1.195-4.092-2.62.682-3.304.98c-.683.3-.74-.553-2.847-.255-2.108.298-1.766 1.236-2.677 1.578-.91.34-4.557-.597-4.386 1.833s1.88 4.094-1.31 5.5c-3.192 1.408 1.195 1.11 5.41.47z" fill="#7B3C20"/><path d="M875.44 205.92s.74-3.07-1.937-4.562c0 0 17.203-2.643 4.215-9.21 0 0 15.437-3.197 11.792-8.142-3.646-4.946-7.19-3.837-7.725-3.752s3.282-2.857 4.307-2.473 13.444 5.16 10.254 1.067-2.905-3.837-3.418-5.03c0 0 4.1 0 10.31 6.053 0 0 1.31-1.364 1.14-3.837 0 0 4.443 1.236 5.81 2.558 0 0 .74-1.534.456-2.387 0 0 3.817 2.046 5.127 4.22 0 0 1.767-1.534 2.052-3.282 0 0 3.817 1.58 4.785 2.772 0 0 1.253-1.663.797-4.05 0 0 6.323 1.876 7.177-2.046 0 0 6.362 1.38 2.228 3.855-5.313 3.184-.537-.784-5.987 3.01-4.225 2.942-6.588 6.395-8.62 5.685-1.493-.522-3.285 3.823-5.336 1.69s-2.05-1.15-3.475 1.067-3.647 4.477-3.647 4.477-1.11-.64-1.95-1.493c0 0-1.24 2.046-2.835 3.58 0 0-1.253-1.662-3.247-2.685 0 0-3.132 3.624-5.07 4.86 0 0-1.822-1.79-3.76-2.388 0 0-.284 4.903-4.1 7.42 0 0-.797-1.62-3.247-2.602.002 0-1.935 3.1-6.093 5.628z" fill="#5A3719"/><path d="M866.39 198.41s-2.09 1.606-.74 3.326c1.348 1.72 1.423-.298 3.132-.47s22.786-3.794 3.703-9.507c0 0 .797-.726 4.1-1.024s15.267-3.54 9.685-7.802c-5.582-4.264-10.225 1.45-5.526-3.667 3.76-4.093.74-6.097.74-6.097s-11.107 7.42-13.556 8.783-5.98 3.965-1.823 5.33 7.007-4.52 7.405-3.2c.4 1.323-8.374 6.183-7.12 8.443 1.253 2.26.968 4.136 3.133 3.71 2.165-.427 8.032 1.108 3.247.937s-6.38 1.237-6.38 1.237z" fill="#5A3719"/><path d="M874.02 187.798s-1.937 1.36.627.68c2.563-.683 7.69-1.792 6.722-3.113-.97-1.322-4.388.262-7.35 2.433z"/><path d="M907.86 165.8s9.798-.256 13.842 2.473 5.98 4.52 7.177 4.903c0 0-.172 3.71-6.438 1.066 0 0 .342 1.79-.342 3.54 0 0-2.336-1.536-5.013-2.218 0 0-.456 1.407-1.31 2.217 0 0-2.79-2.813-5.924-3.666 0 0-.627 1.407-1.196 1.92 0 0-3.36-1.92-5.924-1.877 0 0 .513 2.047 0 2.857 0 0-7.12-5.585-13.444-4.86 0 0 3.075 4.477 5.07 6.694 0 0-12.818-1.023-10.71-7.93s-.17-5.172 8.203-5.123 16.007.005 16.007.005z" fill="#7B3C20"/><path d="M847.76 184.88s-1.48 1.207 0 2.23c1.48 1.024 6.55-2.642 7.234-3.154.684-.512 2.506-.426 0 1.45s-5.07 3.922-6.665 5.97c0 0 8.487-2.303 14.012-7.078s-.257-1.682 9.17-6.225 14.356-11.853 9.286-11.085c-5.07.767-9.627 6.566-13.557 8.783s-6.15 2.516-5.525 1.237c.627-1.28 3.532-.767 8.943-5.116 5.412-4.348 4.215-4.05 4.272-5.584s-2.05-5.33 6.095-9.593 33.495-19.1 35.66-24.174c0 0-7.406.81-17.147 8.014s-14.956 10.574-17.646 11.47-2.348.297-4.114 2.387-11.393 11.385-13.16 12.75-2.278 2.26-2.43 5.04c-.065 1.267-11.067 9.554-14.428 12.68z" fill="#5A3719"/><path d="M881.25 165.56s-1.88.873-3.703 0-1.253-4.796 3.133-7.14 12.36-5.842 16.406-6.354c0 0-.57 5.074-13.16 9.337 0 0 .8 2.642-2.676 4.157z" fill="#5A3719"/><path d="M885.7 162.26s.366 1.248 0 2.388c0 0 23.412 2.26 35.49-11.98 0 0-16.578 1.534-23.185 5.5 0 0 4.158-5.203 16.577-9.51 12.418-4.305 17.488-9.635 18.57-12.576 0 0-15.705 5.5-23.184 5.5 0 0-1.48-.043-2.905.767s-11.45 8.1-14.127 9.336c0 0 5.64-.47 7.633-2.302-.002 0-3.92 10.54-14.87 12.876z" fill="#AA5323"/><path d="M840.87 175.64s-3.02 2.132-1.766 3.198 3.41 1.28 8-2.558 15.697-13.388 8.678-13.77c0 0-8.988-.555-8.678 4.945.314 5.554-5.783 7.836-6.234 8.185zm-20.735-3.24s5.924 3.452 3.703 6.31c0 0 18.172-15.435 13.045-18.76s-9.17 2.94-7.918 3.58c1.253.64 3.93-.554 2.962.64s-10.652 7.718-11.792 8.23zm-4.728-4.99s3.987 1.195 4.158 2.9 12.02-8.357 8.886-12.577c-1.436-1.935-8.03-2.73-8.316 1.066s5.924-.385 3.76 2.344c-2.838 3.578-7.632 5.67-8.487 6.267zm42.642-8.407s-2.54 1.842-.26 2.95 3.76-.64 4.898-1.662 6.78-5.158 8.09-7.8 3.246-3.454 5.297-4.82c2.05-1.363 16.52-8.57 25.406-16.542s5.185-5.926 14.413-11.043c9.228-5.116 15.266-9.806 17.203-15.35 0 0-4.272 1.408-8.032 3.838s-12.247 7.76-13.956 8.484-4.1.853-5.355 2.174c-1.253 1.323-1.14 2.9-5.583 6.567-4.443 3.667-27.4 19.868-30.19 22.17-2.792 2.305-11.93 11.036-11.93 11.036z" fill="#5A3719"/><path d="M839.58 164.37s2.506-1.382 7.215-1.06c4.71.32 23.317-17.7 28.71-21.337s22.254-15.804 24.533-18.02 2.658-4.606 4.633-5.913 3.8-1.137 8.356-3.752 26.43-15.69 25.14-23.307c0 0-32.583 19.556-40.103 25.923-7.52 6.367-28.406 20.806-32.128 23.137s-6.684 6.367-12.912 11.426-12.38 9.322-13.443 12.904z" fill="#AA5323"/><path d="M832.74 157.44s6.03-.617 6.836 2.33c0 0 12.912-8.867 15.874-12.505s-.987-1.535 6.38-6.367 31.824-21.943 35.318-25.013 10.102-7.106 15.418-10.687c5.317-3.58 26.128-13.757 23.773-22.114 0 0-15.267 10.232-18.685 12.45-3.418 2.217-4.86.966-8.355 3.695s-11.165 8.185-12.532 9.89-13.064 10.687-18.76 14.496-18.456 11.2-24.61 16.543c-6.152 5.342-18.076 15.234-20.658 17.28z" fill="#AA5323"/><path d="M813.95 155.69s3.05.044 3.962 1.238c0 0 5.64-4.947 11.64-.058 0 0 22.026-14.894 24.23-18.646s5.77-3.81 14.354-10.062 13.975-8.868 19.672-13.302c5.696-4.434 10.48-9.437 14.583-12.108 4.102-2.672 14.432-9.437 12.685-15.292 0 0-8.355 4.775-13.823 10.744s-5.013.853-10.557 5.855c-5.545 5.002-14.127 11.823-21.267 15.348s-2.81 3.127-7.975 6.424-4.785 2.786-6.684 3.24c-1.9.455-4.786 1.82-6.685 4.036s-6.988 5.23-12.532 8.357c-5.545 3.126-19.178 11.24-21.603 14.225z" fill="#AA5323"/><path d="M820.59 144.26s-1.196-2.473.91-4.22c2.11-1.75 5.925-6.354 6.552-9.253s.17-2.43 6.266-4.946c6.095-2.514 19.937-8.995 27.742-13.813 7.804-4.818 19.653-12.577 22.102-14.453s8.393-6.054 10.804-8.015c0 0 1.158 3.282-1.462 5.542s-12.703 9.337-14.355 10.446-10.938 7.333-13.786 8.91-9.912 5.16-12.418 7.25-2.184 2.728-13.368 8.185-11.697 6.012-11.355 6.438 5.355-1.747 7.747-3.154c2.393-1.407 11.564-5.585 14.298-7.76 2.734-2.174 7.348-5.585 9.342-6.694s18.513-11 23.24-14.496 6.04-4.647 7.065-4.05c1.025.597 2.677.64.57 2.643-2.108 2.003-8.83 7.887-11.393 9.592-2.563 1.705-10.595 6.48-12.817 7.632s-3.076 3.283-4.33 4.178-4.898 3.496-9.34 4.52-5.242 4.348-8.147 6.224-23.58 13.004-24.206 13.558c0 0 1.25-1.28.338-4.264z" fill="#AA5323"/><path d="M892.13 97.834s-1.14 1.01-.513 1.578c.827.75 3.703 2.77 7.29-.79 3.59-3.56 13.23-11.32 16.357-13.152s4.607-3.58 4.493-6.097c0 0-14.81 7.888-27.627 18.46zm20.393-1.364s2.28-3.795 7.86-7.376 13.964-8.795 15.096-10.062c0 0 1.993 2.26-2.393 5.03s-12.93 8.443-13.956 9.253-2.733 2.046-6.607 3.155z" fill="#AA5323"/><path d="M799 137.78s-6.21 3.326-3.987 5.415 5.526 1.45 6.893.853 3.987-1.236 4.386-1.364 5.81-1.663 7.177-4.178 5.012-5.415 7.917-7.504 3.93-4.178 3.532-5.67c-.002 0-24.454 11.55-25.92 12.448zm-36.913 28.694s4.29-2.55 10.31-.938c0 0-.284-1.467-1.195-2.226 0 0 7.29-1.91 8.886-5.15s1.937-2.558 3.36-3.496 11.28-8.868 10.14-10.574-1.366-3.922-2.22-4.818c0 0-2.052 2.814-11.622 7.46s-20.222 8.144-27.97 18.59-6.95 16.5 2.507 19.143c0 0 6.665-4.178 22.9-2.73 16.235 1.45 21.76 7.547 22.786 8.656 1.024 1.11 4.328 5.117 1.138 11.896 0 0 3.247 1.407 3.532-1.705s.456-2.387 1.196-1.918c.74.47 1.652.554 1.31-1.833-.342-2.39-1.48-7.718-2.962-9.55s.17-1.024 1.14-.64c.967.383 4.385 3.154 2.335-1.962-2.052-5.116-2.564-2.6-2.62-2.345s-.457 1.535-4.9-1.79-8.488-4.947-11.507-5.8-.91-.852.854-1.49c1.766-.64 4.158-1.024 4.956-2.985 0 0-1.766.426-5.013-.725s-9.74-1.28-14.982 2.643c0 0 1.652-6.054-3.133-5.713s-8.146.213-13.216 4.22c0 0-.286-6.096 4.5-9.25s4.157-1.237 6.835-2.047 2.905-3.496 1.766-4.35c0 0 6.267 1.067 16.805-7.673 0 0-5.662 7.42-12.544 8.91 0 0-1.09 3.95-7.336 4.82-6.246.868-6.094 4.476-6.037 5.37z" fill="#7B3C20"/><path d="M744.1 202.61s3.074-18.372 20.28-19.702c15.075-1.165 19.86.71 22.86 1.677s10.33 3.127 7.482 5.486-4.48 1.934-4.48 1.934 3.303-3.667.303-4.292-3.266 1.194-3.684 2.73-.607 3.38-2.088 4.575c0 0-1.52-1.762-3.684-.227s-.304 1.592.57 1.336c.873-.256 2.013-.71 1.785.625s-1.443 3.64-5.013 5.515-3.38 1.762-7.633 2.444-8.203 2.358-13.633 7.02c-5.43 4.66-11.374 3.106-12.57-2.103-1.025-4.467-.494-7.017-.494-7.017z" fill="#5A3719"/><path d="M763.794 202.035s1.652-3.624-1.31-5.287c0 0-9.058 1.553-11.735-1.194 0 0 9.854-.512 15.95-2.9 6.094-2.387 4.27-4.05 2.164-4.433-2.108-.383-5.98.555-6.38 2.474 0 0-1.196-2.046.342-3.41s3.93-1.62 6.095-.982c2.166.64 4.102 1.578 11.223-2.132 0 0 4.1.938 4.215 3.71.114 2.77-.285 3.92-.627 4.348-.34.426-.853 1.236-1.708 1.15-.854-.084-1.937-.297-3.02 1.62-1.08 1.92-1.73 3.582-3.542 4.86 0 0 2.12-5.968-3.122-7.375 0 0-4.33 2.558-7.633 2.686 0 0 4.216 3.923-.91 6.865z"/><path d="M773.25 191.078s-1.994-2.196.627-2.43c2.62-.234 6.095 1.684 5.412 3.304-.685 1.62-3.76 1.556-6.04-.874z" fill="#5A3719"/><path d="M921.3 161.96s-4.785 1.364-.342 4.306 6.608 5.5 9.855 6.353 6.608 2.045 6.55 5.286c-.056 3.24-.683 4.52-2.448 6.736-1.766 2.217.968 3.198 3.304 1.92s4.328-1.962 5.866-2.858 4.1-.767 1.766.426c-2.336 1.194-4.785 1.92-1.766 2.004s21.19.426 25.007-.81 8.772-1.62 9.228-6.566c0 0 .172-2.196 1.596-3.112 1.424-.917 2.393-3.027.313-1.6-2.08 1.43-3.675 2.154-4.074 1.728s-.513-.725.997-1.428 2.364-.043 3.76-2.11c1.396-2.068 1.26-1.727.516-2.515-.745-.788-2.31-1.363-1.542-2.365s1.538-3.986-1.794-2.238-9.893 6.253-12.93 6.964-5.356 1.636-9.457 2.467-6.646 1.712-11.013 4.128-4.063-1.334-3.304-1.847c0 0 1.67 2.927 6.114-.882s2.997-.238 13.86-3.81 8.204-4.15 12.457-6.366 8.28-2.302 5.318-5.258-3.304-3.212-7.14 0c-3.835 3.212-14.43 8.385-20.772 8.527 0 0 24.495-10.575 21.988-12.11-2.506-1.534-5.203-2.898-6.912-3.268s-2.165-.796-6.114.966-4.595 2.19-5.734 2.302-4.443.767-9.114 3.183-7.177 3.382-10.292 5.287c0 0 2.165-4.377 11.81-7.276s14.584-5.57 13.52-6.054c-1.063-.483-3.456-.88-5.28-.597s-1.29-.142-7.176 2.19-3.38 1.818-8.127 2.84-6.684 2.076-9.038 3.07c0 0 .96-1.28 4.158-2.45 1.643-.602-1.798-1.222 2.763-1.407.372-.015.828.093 1.28-.036 5.897-1.69 12.343-4.008 11.356-4.178-.987-.17-6.722-.767-12.532 1.904-5.81 2.672-3.152 1.762-5.203 2.19-2.052.425-6.38 3.154-7.824 4.32-1.444 1.163-3.456 2.044-3.456 2.044z" fill="#FFF"/><path d="M777.84 188.43s2.28.682 2.848 2.28 1.994-.702 1.937-1.427-1.453-3.922-3.93-2.43-1.236 1.44-.855 1.577z" fill="#5A3719"/><path d="M771.484 220.027s4.863-2.287 8.943-2.004c0 0-1.595-5.756 1.253-4.775 2.848.98 2.05.597 2.62.554 0 0 .17-3.795-.57-5.287 0 0 2.905.682 5.867.725 0 0-2.79-5.457.285-9.21 0 0 1.69 3.582 5.487 4.478 0 0 .017-1.535 0-3.155 0 0 2.26-.256 4.025.682s3.247-9.89-1.994-12.28c0 0-1.252 2.047-6.15 3.07-4.9 1.024-4.86 2.008-6.874 5.695s-3.78 3.73-7.88 6.372c-4.102 2.643-6.595 8.015-6.83 8.484.002 0 2.16 2.643 1.818 6.65z" fill="#7B3C20"/><path d="M934.91 157.12c1.78-.312-1.798-1.22 2.763-1.406.372-.015.828.093 1.28-.036 5.897-1.69 12.343-4.008 11.356-4.178-.988-.17-6.723-.767-12.533 1.904-5.81 2.672-3.152 1.762-5.203 2.19-2.05.425-6.38 3.154-7.823 4.32s-3.455 2.045-3.455 2.045-4.785 1.363-.342 4.305 6.608 5.5 9.855 6.353 6.608 2.046 6.55 5.287c-.056 3.24-.683 4.52-2.448 6.736-1.766 2.218.968 3.2 3.304 1.92s4.33-1.96 5.867-2.857 4.102-.767 1.767.426c-2.336 1.193-4.785 1.918-1.766 2.003s21.192.426 25.008-.81 8.772-1.62 9.228-6.566c0 0 .17-2.196 1.595-3.112 1.425-.917 2.394-3.027.314-1.6-2.08 1.43-3.674 2.154-4.073 1.728s-.512-.725.998-1.428 2.364-.043 3.76-2.11c1.396-2.068 1.26-1.727.516-2.515-.382-.405-.98-.753-1.368-1.132 0 0-1.094-.957-2.366-.147s-6.855 3.17-9.095 3.44-4.557 1.222-8.583 3.183-10.71 5.955-11.773 2.245c0 0-2.916 1.04-3.552 1.364-4.49 2.288-4.097-.96-3.304-1.847 0 0-2.354 2.643-2.26.24.095-2.4 1.614-1.99 4.234-2.756s6.76-2.474 5.05-3.895-3.512 1.41-5.41 2.276-5.697 1.633-6.286-1.124-.57-4.676-5.715-4.974-4.956-3.51-3.55-4.89 2.64-3.737 7.463-4.582z" fill="#999"/><path d="M951.263 182.053s8.013-3.695 15.38-5.43c7.367-1.733 1.595.228.342.626s-12.722 4.177-15.418 5.428c-2.697 1.25-2.14.18-.304-.625zm1.86 1.62s9-2.984 10.672-1.734c1.67 1.25.304.624-1.67.91-1.976.283-7.406 1.193-8.85 1.164-1.443-.028-.15-.34-.15-.34zm14.432-3.126s1.71-.313 1.9.313c.19.625-.76.71-1.71.597-.95-.114-1.785-.655-.19-.91z"/><path d="M729.838 258.967s-.336-7.902 3.65-11.91 23.356-24.163 26.318-29.797c0 0 2.506 1.742 2.62 4.94 0 0 3.247-5.592 5.81-7.7 0 0 2.28 2.328 1.88 6.975 0 0 4.67-2.473 11.906-2.515 0 0-2.677 3.155-2.79 4.988 0 0 10.025-1.11 15.265-.256 0 0-13.785 7.717-9.912 8.4s7.918-.044 7.918-.044-4.386 4.477-11.393 5.372c0 0 8.886-.128 10.652 1.876 0 0-8.66 1.322-15.608 6.608 0 0-.65-.298-.695-2.26 0 0-.217 1.748-2.21 3.41s-6.78 5.203-8.546 6.993c-1.766 1.79-5.07 5.33-8.602 5.16 0 0 .797-2.73-1.823-3.582-2.62-.853-5.64-.256-7.748 2.004 0 0-9.342.127-12.304.553 0 0 2.108-3.368 4.044-3.283 1.937.085 9.74 1.15 10.424-4.178.684-5.33-5.013-3.922-2.848-7.077s1.652-3.027 1.71-3.326c0 0-1.767.98-2.792 3.794s-1.766 4.988-5.47 7.802c-3.702 2.814-5.235 4.518-6.26 6.48.002 0-1.687.236-3.198.57z" fill="#FFF"/><path d="M738.82 254.19s.304-1.08 3.038-1.535 2.848-1.762 2.506-2.33-1.975-.57.684-3.582c0 0 .95.256 1.595.995s3.645 7.163-7.823 6.452z" fill="#FFF"/><path d="M732.257 248.61c.142 5.265 7.042 3.31 7.042 3.31-2.46 1.867-3.962 3.246-4.994 4.536.456-2.558-3.89-3.198-3.89-3.198.357-1.564.93-3.22 1.84-4.648zm25.37-28.138c1-1.307 1.757-2.406 2.18-3.21 0 0 2.506 1.74 2.62 4.94 0 0 3.247-5.593 5.81-7.7 0 0 2.28 2.327 1.88 6.974 0 0 4.67-2.473 11.905-2.515 0 0-2.677 3.156-2.79 4.99 0 0 10.025-1.11 15.265-.257 0 0-13.785 7.717-9.912 8.4 3.874.68 7.918-.044 7.918-.044s-4.386 4.476-11.393 5.37c0 0 8.886-.127 10.652 1.877 0 0-2.53.386-5.952 1.576 0 0-2.555-2.4-9.96-2.06 0 0 5.76-3.222 10.33-4.263 0 0-2.014-2.643-5.166-.227 0 0-6.266-4.32-1.1-7.987 0 0-3.647-.767-6.04.938 0 0 .115-2.956 2.773-4.292 0 0-7.026-1.137-8.772 4.036 0 0-1.33-2.132-.722-4.548 0 0-4.253 2.446-6.19 5.217.002 0-.64-5.254-3.335-7.215m-13.616 33.416c-1.26.31-2.95.443-5.187.304 0 0 .192-.68 1.64-1.19 0 0 .414.865 3.547.886" fill="#999"/><path d="M756.787 233.97s3.19 2.514 4.33 4.05c0 0 2.904-2.048 3.986-3.71 0 0 2.28 1.492 3.076 3.71 0 0 1.594-1.11 1.936-2.644 0 0 4.022.853 5.343 2.174 0 0 .614-3.88 0-6.31 0 0 2.802.213 4.51.938 0 0-1.588-2.558 6.526-5.84 0 0-6.136 1.316-8.462 4.007 0 0-2.62.128-3.76-.682 0 0 .17 3.922.057 5.798 0 0-1.58-.64-4.663-1.363 0 0-.747 1.28-1.26 1.577 0 0-1.937-1.535-2.79-3.496 0 0-2.964 2.69-4.102 3.837 0 0-2.79-1.96-4.728-2.046z"/><path d="M738.44 273.88s1.253.597 4.215-1.79 11.336-7.718 12.133-11.982-2.677-4.52-5.412-3.283c-2.734 1.236-1.595 3.624-1.48 4.39s.17 3.753-4.273 7.89c-4.443 4.136-5.183 4.775-5.183 4.775z" fill="#FFC221"/><path d="M737.477 275.24s-6.722-2.814-.684-5.84 8.716-3.838 9.4-6.354c.683-2.516.284-2.09-1.938-1.023s-10.766 4.903-12.076 1.322c0 0 3.53 1.364 7.917-.767s7.975-2.77 5.184-3.667c-2.79-.894-12.873.214-14.525.683-1.652.47-1.253.384-1.538 2.046-.285 1.662-2.165 5.158-2.848 6.18-.685 1.024-2.337 5.288.74 7.164 3.075 1.876 7.95 1.747 10.367.256z" fill="#FFC221"/><path d="M734.858 260.573s-1.54.213-1.255.81c.285.597.687.512 1.255.554s1.423-.298 1.536-.682c.114-.383-.965-.81-1.536-.682z"/><path d="M737.078 273.748s-3.19-1.535.4-3.496 7.46-3.837 7.974-4.647c0 0-1.71 2.43-8.374 8.143z" fill="#FFF"/></svg>
