<svg xmlns="http://www.w3.org/2000/svg" width="600" height="400" version="1"><path fill="#fc0" d="M0 0h600v400H0z"/><path d="M297.992 39.354l.65 5.14-5.612-.591v4.017l5.73-.591-.71 6.202c-1.304.672-2.244 2.023-2.244 3.545 0 .666.169 1.224.472 1.772-.12-.038-.445-.05-.472-.06a7.887 7.887 0 0 0-.65-.826 10.748 10.748 0 0 0-3.013-2.245c-1.205-.608-2.605-1.06-4.075-1.122a8.561 8.561 0 0 0-4.076.827 28.131 28.131 0 0 0-1.36-1.064l-.885.532c-.64 1.652-1.53 3.048-2.777 3.958-1.245.91-2.876 1.447-5.257 1.418h-.532c-.637-.136-1.214-.169-1.772-.06l-.354.119c-.808.271-1.45.845-1.89 1.536-.923 1.447-1.169 3.372-1.064 5.67.21 4.598 1.874 10.489 3.84 14.828 2.42 5.34 5.474 9.644 8.21 12.582a23.69 23.69 0 0 0 3.781 3.308c.553.385 1.057.684 1.536.886.48.202.938.38 1.477.295l-.118-.709 1.063.06c.044-1.652.039-3.26 0-4.844.643-.29 1.445-.524 2.245-.768 1.39-.425 2.852-.733 4.076-.827.062.11.11.247.177.354 1.179 1.89 3.229 3.13 5.612 3.13a6.548 6.548 0 0 0 5.612-3.13c.066-.107.116-.244.177-.354 1.215.092 2.678.4 4.076.827.8.244 1.588.478 2.245.768a94.968 94.968 0 0 0 0 4.843l1.063-.059-.118.71c.539.085.998-.094 1.477-.296.479-.202.983-.501 1.536-.886a23.687 23.687 0 0 0 3.78-3.308c2.737-2.938 5.79-7.242 8.211-12.582 1.966-4.34 3.63-10.23 3.84-14.828.105-2.298-.14-4.223-1.064-5.67-.44-.69-1.082-1.265-1.89-1.536l-.354-.118c-.558-.11-1.135-.077-1.772.059h-.532c-2.38.029-4.012-.508-5.257-1.418-1.246-.91-2.137-2.247-2.777-3.899l-.886-.59c-.475.344-.912.694-1.359 1.063a8.56 8.56 0 0 0-4.075-.827c-1.471.062-2.871.514-4.076 1.122a10.75 10.75 0 0 0-3.013 2.245c-.195.21-.308.435-.473.65l-.472.177-.177.059c.28-.532.472-1.134.472-1.772 0-1.505-.905-2.866-2.186-3.545l-.65-6.202 5.672.59v-4.016l-5.612.59.65-5.139H297.992zM282.869 56.78c7.58 6.284 10.903 16.397 11.46 29.123a6.735 6.735 0 0 0-.709 1.595c.011-.093 0-.2 0-.296 0-1.39-1.153-2.48-2.599-2.48-1.445 0-2.658 1.09-2.658 2.48s1.213 2.54 2.658 2.54c1.084 0 2.024-.632 2.422-1.535-.062.349-.059.697-.059 1.063 0 .451.081.877.177 1.3-1.271.14-2.655.487-3.958.886-.63.192-1.199.426-1.772.65-.597-13.03-4.225-23.562-12.287-30.304 1.78-.228 3.303-.729 4.49-1.595 1.232-.9 2.155-2.082 2.835-3.427zm34.262 0c.68 1.345 1.603 2.527 2.835 3.427 1.187.866 2.71 1.367 4.49 1.595-8.062 6.742-11.69 17.274-12.287 30.303-.56-.221-1.089-.458-1.713-.65-1.322-.404-2.73-.748-4.017-.886.097-.422.177-.848.177-1.3 0-.53-.049-1.041-.177-1.535.244 1.147 1.334 2.008 2.599 2.008 1.446 0 2.6-1.15 2.6-2.54 0-1.39-1.155-2.48-2.6-2.48-1.446 0-2.658 1.09-2.658 2.48 0 .096-.011.203 0 .296a6.986 6.986 0 0 0-.71-1.595c.558-12.726 3.88-22.84 11.46-29.123zm-34.793 3.072c-.578-.027-1.22.162-1.832.532-1.223.74-1.779 2.012-1.24 2.835.539.824 1.966.859 3.19.118 1.223-.74 1.779-2.011 1.24-2.835-.27-.412-.78-.622-1.358-.65zm35.324 0c-.577.028-1.089.238-1.358.65-.539.824.017 2.095 1.24 2.835 1.224.74 2.651.706 3.19-.118.54-.823-.017-2.095-1.24-2.835-.612-.37-1.254-.56-1.832-.532zm-21.265.768c.8.24 1.624.59 3.367.59 1.722 0 2.555-.348 3.367-.59l-1.713 22.211c-.447-.094-.942-.118-1.418-.118-.643 0-1.24.126-1.831.295l-1.772-22.388zM284.7 63.75c-.335.024-.677.147-1.004.296-1.306.595-1.926 1.98-1.358 3.131.567 1.152 2.12 1.6 3.426 1.004 1.306-.595 1.867-1.979 1.3-3.13-.426-.864-1.358-1.37-2.364-1.3zm29.89 0a2.466 2.466 0 0 0-1.653 1.3c-.568 1.152.052 2.536 1.358 3.131 1.307.595 2.8.148 3.367-1.004.568-1.152-.052-2.536-1.358-3.13-.327-.15-.67-.273-1.004-.296-.252-.018-.474-.051-.71 0zm-27.172 6.085c-1.19.24-2.068 1.324-2.068 2.54 0 1.39 1.154 2.481 2.6 2.481 1.445 0 2.599-1.09 2.599-2.48s-1.154-2.54-2.6-2.54c-.18 0-.361-.035-.531 0zm24.101 0c-1.19.24-2.068 1.324-2.068 2.54 0 1.39 1.154 2.481 2.6 2.481 1.445 0 2.658-1.09 2.658-2.48s-1.213-2.54-2.658-2.54c-.181 0-.362-.035-.532 0zm-22.093 7.03c-1.189.239-2.067 1.323-2.067 2.54 0 1.39 1.153 2.54 2.599 2.54 1.445 0 2.599-1.15 2.599-2.54 0-1.39-1.154-2.54-2.6-2.54-.18 0-.361-.034-.53 0zm20.085 0c-1.19.239-2.068 1.323-2.068 2.54 0 1.39 1.154 2.54 2.6 2.54 1.445 0 2.657-1.15 2.657-2.54 0-1.39-1.212-2.54-2.658-2.54-.18 0-.362-.034-.531 0zM300 84.485c.334 0 .69.055 1.004.118.037.008.082-.008.118 0 .274.062.515.131.768.237.094.04.205.072.296.118.08.04.158.133.236.177.2.112.352.275.532.413.095.073.206.098.295.178.148.134.284.321.413.472.054.063.127.112.178.177.62.801 1.004 1.797 1.004 2.895 0 1.121-.419 2.132-1.063 2.953a4.854 4.854 0 0 1-1.595 1.3c-.022.011-.037.048-.06.06-.148.075-.315.116-.472.176-.514.188-1.073.355-1.654.355-.372 0-.714-.039-1.063-.118-.158-.04-.322-.123-.473-.178a5.19 5.19 0 0 1-.472-.177c-.084-.04-.156-.132-.237-.177-.28-.148-.522-.275-.768-.473a5.065 5.065 0 0 1-.768-.768c-.657-.821-1.063-1.832-1.063-2.953 0-1.098.37-2.094 1.004-2.895.05-.062.125-.117.178-.177.116-.133.223-.294.354-.413.176-.164.393-.277.59-.414.057-.038.06-.082.119-.118.22-.14.466-.31.709-.413.016-.007.042.006.059 0 .278-.115.584-.175.886-.237a4.62 4.62 0 0 1 .945-.118zm-45.662 8.447l-2.127.768s-3.157 1.178-10.928 2.6c-7.834 1.432-13.557 1.582-20.085 5.02-3.374 1.778-4.904 4.27-5.553 6.262-.52 1.602-.394 2.425-.354 2.895-.678.394-5.402 3.244-6.202 8.152-.607 3.722.086 6.448 1.476 8.329 1.391 1.88 3.427 2.86 5.317 3.308l1.122.295v-1.181c.034-1.175.013-2.21.118-3.072.105-.862.305-1.515.827-2.068 1.044-1.106 3.775-2.067 10.279-2.067 5.71 0 11.744.75 15.004 3.13l1.063.828.414-1.182c1.966.766 4.024 1.715 5.73 3.19 1.912 1.654 3.403 3.874 3.958 7.384l1.83.118c.037-.129.026-.283.06-.413.192-.73.338-1.481.472-2.245 1.957.286 3.12 1.48 3.958 3.426.898 2.088 1.251 4.93 1.418 7.68l.118 1.949 1.477-1.3c.386-.344.74-.719 1.063-1.122.837.773 1.358 1.54 1.713 2.658.435 1.368.6 3.248.768 6.026l.118 1.772 1.418-1.064c.1-.075.198-.158.295-.236.261.577.454 1.423.296 2.422l-.177 1.122 1.122-.059c.245-.005.475-.032.709-.059 1.25 3.352.83 8.227-2.009 11.874l-.945 1.181a18.539 18.539 0 0 1-1.3-.236v-.06c-.088.007-.15.052-.236.06-3.066-.697-6.124-2.323-9.274-4.549l.06-.059c-.1-.042-.198-.08-.296-.118-.425-.304-.872-.62-1.3-.945-4.684-3.558-9.516-8.29-14.709-13.055-1.971-1.809-3.989-3.623-6.084-5.375v-.06c-.063-.024-.115-.035-.177-.059-8.254-6.877-17.578-12.765-28.768-13.586l-.06-.177c-.186.038-.352.075-.53.118-.688-.04-1.368-.06-2.068-.06-6.345 0-10.822 1.601-14.178 4.313-3.356 2.712-5.587 6.482-7.856 10.751-4.538 8.539-9.13 19.216-22.211 28.827l-2.304 1.654 2.835.06c1.339.016 2.622-.135 3.9-.355-1.632 6.387-4.27 12.618-7.385 18.725l-16.48-31.19 14.117 35.62c-4.296 7.774-9.231 15.317-14 22.507l-1.654 2.481 2.777-1.063c1.582-.624 3.136-1.286 4.607-2.068.165-.087.31-.206.473-.295.063-.034.115-.083.177-.118-4.165 11.36-9.704 25.157-16.067 35.857-7.602 12.78-13.798 23.54-18.785 36.092l-1.064 2.659 2.422-1.477c13.283-8.31 23.614-20.397 31.486-33.553-2.21 6.947-3.423 13.275-4.372 18.667l-.354 2.008 1.772-1.004c6.777-3.982 13.108-12.16 18.785-22.093-1.767 4.65-3.035 8.933-3.78 13.173l-.414 2.127 1.831-1.182c5.382-3.59 11.494-10.83 17.249-19.67l10.042 25.282c-.632.114-1.265.197-1.89.236-2.86.182-5.665-1.522-8.447-.295-3.355 1.479-2.727 4.832-.119 6.143 2.093 1.053 4.604.87 6.97.178a6.97 6.97 0 0 0-.472 1.181c-.359 1.175-.288 2.347.296 3.308.51.841 1.406 1.47 2.48 1.772-.26.394-.528.862-.767 1.418-.427.99-.6 2.336.059 3.662.69 1.389 2.142 1.982 3.544 2.068.26.016.509.019.768 0a3.25 3.25 0 0 0 .236 1.89c.58 1.247 1.85 2.096 3.367 2.422 1.588.342 2.946.408 4.195 0a6.369 6.369 0 0 0 1.949-1.063c-.192.573-.355 1.137-.355 1.772a5.657 5.657 0 0 0 5.671 5.671c3.144 0 5.73-2.528 5.73-5.67a5.727 5.727 0 0 0-3.603-5.317c.086-.042.09-.018.177-.06a71.837 71.837 0 0 0 3.308-1.713c.479-.263.892-.478 1.24-.708.35-.23.62-.407.887-.768.284-.385.413-.827.531-1.3.002-.006.058.006.06 0 1.14.055 3.152-.08 4.37-1.772.017-.022.044-.037.06-.06.918.096 3.273.163 4.667-1.771.025-.036.034-.082.059-.118.838.068 2.477.01 3.662-1.24.829.062 2.394.034 3.544-1.005.281.057.593.107 1.005.118.823.021 1.95-.196 2.717-1.122.077-.094.112-.197.177-.296.043.02.089.076.296.118.28.058.651.108 1.063.119.656.016 1.48-.125 2.185-.65.408.22.843.328 1.241.413a22.528 22.528 0 0 0-1.536 3.486c-1.656 4.883-1.913 10.625-.354 16.067l.827 3.072.945-3.013c1.707-5.454 5.458-10.785 11.164-13.232-.768 4.084-.696 8.5.473 12.582l.886 3.072.945-3.013c.958-3.059 2.67-7.17 5.14-10.514 1.47-1.991 3.174-3.688 5.139-4.785-.11.812-.112 1.686-.06 2.658.123 2.262.75 4.849 2.186 7.089l1.123 1.713.59-1.95c.624-2.04 1.797-5.362 3.486-8.152 1.688-2.789 3.833-4.915 6.143-5.139.177-.017.337-.058.532-.177-.91 4.922-3.31 10.982-5.79 14.65l-.65 1.004 1.064.413c.575.223 1.15.375 1.713.473-5.102 16.344-13.431 28.02-22.034 35.975l-2.008 1.89 2.776-.236c8.017-.73 14.957-5.597 20.321-11.815a50.786 50.786 0 0 0 2.481-3.13c-4.404 8.893-9.489 16.012-14.118 21.384l-1.418 1.654 2.186-.118c5.79-.26 10.494-2.547 14.354-5.849-2.766 4.191-5.467 7.852-7.679 11.047l-1.122 1.536 1.89-.06c3.568-.16 6.879-1.432 9.924-3.426-.942 2.618-1.38 5.454-.886 8.566l.177 1.181 1.122-.472c4.832-1.935 7.903-4.63 10.397-7.798-.124 2.224-.261 4.45-.413 6.912l-.06 1.595 1.418-.71c3.148-1.475 5.57-4.382 7.502-8.033.75 3.334 2.8 6.502 4.785 8.33l.59.53.65-.53c2.221-1.891 4.138-5.046 4.845-8.33 1.932 3.651 4.354 6.558 7.502 8.034l1.417.709-.059-1.595c-.152-2.462-.289-4.688-.413-6.912 2.494 3.167 5.565 5.863 10.397 7.798l1.122.472.177-1.181c.493-3.112.056-5.948-.886-8.566 3.045 1.994 6.356 3.267 9.924 3.427l1.89.059-1.122-1.536c-2.212-3.195-4.913-6.856-7.68-11.047 3.861 3.302 8.565 5.589 14.355 5.849l2.186.118-1.418-1.654c-4.629-5.373-9.714-12.491-14.118-21.384a50.812 50.812 0 0 0 2.48 3.13c5.365 6.218 12.305 11.085 20.322 11.815l2.776.236-2.008-1.89c-8.603-7.955-16.932-19.63-22.034-35.975a9.084 9.084 0 0 0 1.713-.473l1.063-.413-.65-1.004c-2.479-3.668-4.82-9.728-5.73-14.65.147.074.279.154.532.177 2.312.209 4.396 2.35 6.084 5.14 1.689 2.789 2.862 6.11 3.486 8.151l.59 1.95 1.123-1.713c1.436-2.24 2.064-4.827 2.185-7.089.053-.972.05-1.846-.059-2.658 1.965 1.096 3.668 2.794 5.14 4.785 2.47 3.343 4.181 7.455 5.139 10.514l.945 3.013.886-3.072c1.169-4.082 1.241-8.498.473-12.582 5.706 2.447 9.457 7.778 11.164 13.232l.945 3.013.827-3.072c1.559-5.442 1.302-11.184-.354-16.067a22.502 22.502 0 0 0-1.595-3.604c.24-.078.468-.165.709-.295.706.525 1.529.666 2.185.65.412-.011.783-.061 1.064-.119.206-.042.252-.098.295-.118.065.099.1.202.177.296.767.926 1.894 1.143 2.718 1.122.411-.01.723-.06 1.004-.118 1.15 1.039 2.715 1.067 3.544 1.004 1.185 1.25 2.825 1.309 3.663 1.24.024.037.033.083.059.119 1.393 1.934 3.748 1.867 4.666 1.772.016.022.044.037.06.059.533.74 1.192 1.159 1.89 1.418.23.351.45.757.65 1.181.006.018-.007.042 0 .06 1.1 2.863 1.731 3.877 3.308 6.91v.06c1.611 2.703 4.423 5.463 7.03 7.265l.058.06c2.385 1.463 4.14 3.412 7.739 3.898h.236c3.112-.213 5.707-.867 8.152-2.008v-.06c4.048-.356 7.752-2.705 11.282-4.784.022-.013.038-.047.06-.06 2.648-1.313 3.827-2.05 5.257-4.075l.059-.06v-.058c.33-.57 1.256-1.22 1.418-1.89 1.402-1.292 2.16-3.345 2.304-5.612a11.146 11.146 0 0 0-1.714-6.616c-.092-.146-.075-.333-.177-.473l-.413-.59c-.975-8.51-7.05-15.476-15.064-17.84l.237-4.49 2.422.886.945-3.426-3.072-.236 1.122-3.013-3.248-.65.059 3.308-2.836-1.004-.768 3.663 2.895.118-1.064 4.135a21.891 21.891 0 0 0-2.658-.177c-8.792 0-16.271 5.404-19.434 13.054-.025.021-.035.04-.06.06-.22.184-.361.27-.59.472-.285.252-.52.521-.768.768-.18-.076-.318-.168-.532-.236-.896-.286-2.093-.457-3.249.177-.078.043-.163.07-.236.118-.223-.154-.603-.375-1.24-.59-.899-.305-2.087-.461-3.25.177 0 0-.504-.448-1.3-.71a3.793 3.793 0 0 0-2.421 0c-.088-.057-.536-.32-1.24-.53-.585-.176-1.308-.293-2.068-.12a5.295 5.295 0 0 0-.768-.53c-.373-.21-.841-.443-1.359-.532a2.725 2.725 0 0 0-1.654.236c-.014.007-.044-.007-.059 0a5.355 5.355 0 0 0-1.181-.886c-.374-.21-.841-.443-1.359-.532-.427-.073-.891.014-1.358.177-.273-.172-.557-.317-.827-.472 3.46-2.094 5.998-5.082 7.088-8.86l.886-2.895-2.363 1.949c-3.965 3.237-8.108 4.827-12.995 3.249 2.84-1.977 5.015-5.306 6.38-10.042l.531-1.89-1.772.767c-2.21.884-5.444 1.244-8.33 1.005-2.33-.194-4.41-.884-5.611-1.714.46-.263.918-.548 1.359-.886l1.535-1.181-1.89-.532c-4.935-1.298-7.46-5.49-7.325-8.388 1.493.373 2.997.527 4.49.355l2.244-.237-1.772-1.417c-1.843-1.482-3.286-4.068-4.076-6.912-.76-2.739-.886-5.689-.354-8.152.507-1.146 1.128-2.37 1.713-3.603.327-.69.671-1.373.945-2.068.966 3.393 1.88 6.427 3.013 8.92l.886 2.009.886-2.009c1.657-3.923 2.48-8.143 2.835-12.523 3.132 7.742 7.18 13.72 13.35 16.717l1.36.71v-1.537c-.053-5.451-.296-9.577-.946-13.409.14.313.27.637.414.945 3.662 7.83 8.68 13.847 15.89 17.13l1.359.592-.06-1.477c-.042-4.428-.684-8.316-1.594-11.933 3.731 6.704 8.47 11.976 14.472 15.123l1.536.768-.118-1.654c-.425-5.907-.944-10.114-2.304-14.886 5.786 10.818 13.62 19.991 22.152 24.928l1.772 1.063-.354-2.008c-.944-5.363-2.626-10.701-4.549-16.009a173.31 173.31 0 0 0 2.422 4.667c7.399 13.641 16.308 25.716 23.806 30.717l1.831 1.182-.413-2.127c-.746-4.24-2.014-8.523-3.78-13.173 5.676 9.933 12.007 18.111 18.784 22.093l1.772 1.004-.354-2.008c-.949-5.392-2.162-11.72-4.372-18.667 7.872 13.156 18.203 25.243 31.486 33.553l2.422 1.477-1.064-2.659c-4.987-12.553-11.183-23.311-18.785-36.092-6.363-10.7-11.902-24.497-16.067-35.857.062.035.114.084.177.118.164.09.308.208.473.295 1.471.782 3.025 1.444 4.607 2.068l2.777 1.063-1.654-2.48c-9.373-14.134-19.62-29.496-23.747-45.663 1.277.22 2.56.37 3.899.354l2.835-.059-2.304-1.654c-13.082-9.611-17.673-20.288-22.21-28.827-2.27-4.27-4.501-8.04-7.857-10.751-3.356-2.712-7.833-4.312-14.178-4.312-.7 0-1.38.02-2.067.059-.179-.043-.345-.08-.532-.118l-.059.177c-11.19.821-20.514 6.709-28.768 13.586-.062.024-.114.035-.177.06v.059c-2.095 1.752-4.112 3.566-6.084 5.375-5.193 4.764-10.025 9.497-14.71 13.055-.427.325-.874.641-1.299.945a8.826 8.826 0 0 0-.295.118l.059.06c-3.15 2.225-6.208 3.85-9.274 4.548-.086-.008-.148-.053-.237-.06v.06c-.444.094-.857.174-1.3.236l-.944-1.181c-2.838-3.647-3.258-8.522-2.009-11.874.235.027.465.054.709.06l1.122.058-.177-1.122c-.157-.999.035-1.845.296-2.422.097.078.196.161.295.236l1.418 1.064.118-1.772c.168-2.778.333-4.658.768-6.026.355-1.118.876-1.885 1.713-2.658.323.403.677.778 1.063 1.122l1.477 1.3.118-1.95c.167-2.75.52-5.591 1.418-7.679.838-1.947 2.001-3.14 3.958-3.426.135.764.28 1.514.472 2.245.034.13.023.284.06.413l1.83-.118c.555-3.51 2.046-5.73 3.958-7.384 1.706-1.475 3.764-2.424 5.73-3.19l.414 1.182 1.063-.827c3.26-2.38 9.294-3.131 15.004-3.131 6.504 0 9.235.961 10.279 2.067.522.553.722 1.206.827 2.068.105.862.084 1.897.118 3.072v1.181l1.122-.295c1.89-.448 3.926-1.428 5.317-3.308 1.39-1.88 2.084-4.607 1.476-8.33-.8-4.907-5.524-7.757-6.202-8.151.04-.47.167-1.293-.354-2.895-.649-1.992-2.178-4.484-5.553-6.261-6.528-3.439-12.25-3.589-20.085-5.022-7.77-1.42-10.928-2.599-10.928-2.599l-2.126-.768.945 2.068a16.421 16.421 0 0 0 3.662 5.021c-4.493 1.649-11.713 1.908-18.844 1.831v1.536c1.191.52 2.543 1.014 3.958 1.477-1.845 1.352-3.956 2.087-7.325 2.067l-.472 1.182a9.791 9.791 0 0 0 2.362 1.772c-1.23 1.322-2.371 2.514-3.308 3.721-2.576.235-5.072 1.74-7.147 3.545-2.138 1.858-3.82 4.075-4.49 6.025l-.295.827.65.295c-1.087 2.017-1.997 4.188-2.6 6.498-1.925.309-4.065 1.14-6.084 2.363-1.604.972-3.125 2.16-4.312 3.485-.036.041-.083.078-.118.119-1.011.944-1.764 2.144-2.245 3.485-.481-1.341-1.233-2.541-2.245-3.485-.035-.041-.082-.078-.118-.119-1.187-1.326-2.708-2.513-4.312-3.485-2.019-1.224-4.159-2.054-6.085-2.363-.602-2.31-1.512-4.481-2.599-6.498l.65-.295-.295-.827c-.67-1.95-2.352-4.167-4.49-6.025-2.075-1.805-4.57-3.31-7.147-3.545-.937-1.207-2.078-2.399-3.308-3.721a9.79 9.79 0 0 0 2.362-1.772l-.472-1.182c-3.37.02-5.48-.715-7.325-2.067 1.415-.462 2.767-.958 3.958-1.477v-1.536c-7.13.077-14.35-.182-18.844-1.831A16.42 16.42 0 0 0 253.392 95l.946-2.068zm-3.663 3.072c-.813 1.429-1.76 2.775-3.308 3.722l-1.477.945 1.536.709c3.737 1.856 8.877 2.172 14.65 2.244-1.924.338-3.654.72-6.498.827 1.1 2.053 2.364 4.145 2.54 5.967-2.904.251-5.53.365-8.802-.532-3.272-.898-4.43-4.726-4.43-4.726s-.854 2.492 1.772 5.494c2.843 2.438 4.314 4.66 6.144 7.916-4.003.574-7.172.32-9.983-.296.651 1.544.391 2.903.059 4.49-2.92-1.629-6.65-1.787-10.515-2.363-3.954-.59-7.602-2.078-10.338-3.663-2.587-1.498-4.28-3.294-4.844-5.434l-.059-.414s.01-.218 0-.295c.722-.19 1.54-.407 2.363-.65 1.312 1.496 3.375 1.734 5.376 1.24 1.676-.413 2.752-2.308 2.953-4.489 1.573-.825 2.169-2.003 1.831-3.367-3.35 2.509-8.513 4.227-12.286 5.257.035-.136.011-.268.059-.413.519-1.596 1.7-3.577 4.666-5.14 6.153-3.24 11.534-3.447 19.494-4.902 6.336-1.159 8.004-1.776 9.097-2.127zm98.65 0c1.093.351 2.761.968 9.097 2.127 7.96 1.455 13.341 1.662 19.494 4.903 2.965 1.562 4.147 3.543 4.666 5.139.048.145.024.277.06.413-3.774-1.03-8.937-2.748-12.287-5.257-.338 1.364.258 2.542 1.83 3.367.202 2.181 1.278 4.076 2.954 4.49 2 .493 4.064.255 5.376-1.241.822.243 1.641.46 2.363.65-.01.077 0 .295 0 .295l-.06.414c-.564 2.14-2.255 3.936-4.843 5.434-2.736 1.585-6.384 3.073-10.338 3.663-3.866.576-7.596.734-10.515 2.363-.332-1.587-.592-2.946.06-4.49-2.812.616-5.981.87-9.984.296 1.83-3.257 3.3-5.478 6.144-7.916 2.626-3.002 1.772-5.494 1.772-5.494s-1.158 3.828-4.43 4.726c-3.273.898-5.898.783-8.802.532.176-1.822 1.44-3.914 2.54-5.967-2.844-.108-4.574-.489-6.498-.827 5.773-.072 10.913-.388 14.65-2.244l1.536-.71-1.477-.944c-1.548-.947-2.495-2.293-3.308-3.722zm-51.688.65c-5.385.253-9.451 1.401-9.451 2.658 0 1.437 5.285 2.6 11.814 2.6s11.814-1.163 11.814-2.6c0-1.436-5.285-2.658-11.814-2.658-.816 0-1.594-.036-2.363 0zm-35.207 8.86c1.665 1.478 3.226 2.465 5.671 2.836-2.209 1.044-4.952 1.104-7.738.532l-1.595-2.718c1.248-.108 2.463-.351 3.662-.65zm75.14 0c1.199.299 2.414.542 3.662.65l-1.595 2.718c-2.786.572-5.53.512-7.738-.532 2.445-.37 4.006-1.358 5.67-2.835zm-69.41 5.14c2.527 2.734 3.896 4.454 5.021 6.911-2.688.488-4.653.545-7.502-.118-.87-1.685-1.87-3.43-3.485-5.257l.118-.06-.65-1.122c2.532.307 4.66.187 6.498-.354zm63.68 0c1.838.54 3.966.661 6.498.354l-.65 1.123.118.059c-1.615 1.828-2.615 3.572-3.485 5.257-2.849.663-4.814.606-7.502.118 1.125-2.457 2.494-4.177 5.02-6.911zm-80.397 1.536c2.772.383 5.863.689 8.506.354 2.372 2.388 3.084 4.495 4.253 6.793-3.206.16-5.736-.057-8.329-.767-.584-1.262-1.518-2.55-2.48-3.84a99.343 99.343 0 0 0-1.95-2.54zm97.114 0a99.504 99.504 0 0 0-1.95 2.54c-.962 1.29-1.896 2.578-2.48 3.84-2.593.71-5.123.928-8.33.767 1.17-2.298 1.882-4.405 4.254-6.793 2.643.335 5.734.03 8.506-.354zm-132.97.413c.904 2.409 2.927 4.303 5.493 5.79 1.335.773 2.881 1.427 4.49 2.008-4.813.218-7.52.994-8.98 2.54-1.31 1.418-1.472 3.206-1.535 4.962-1.18-.443-2.217-.991-3.013-2.068-1.05-1.42-1.612-3.543-1.063-6.911.462-2.833 3.101-5.177 4.607-6.32zm168.827 0c1.506 1.144 4.145 3.488 4.607 6.321.55 3.368-.013 5.491-1.063 6.911-.796 1.077-1.833 1.625-3.013 2.068-.063-1.756-.225-3.544-1.536-4.962-1.458-1.546-4.166-2.322-8.979-2.54 1.609-.581 3.155-1.235 4.49-2.009 2.566-1.486 4.59-3.38 5.494-5.789zm-109.52 3.308c1.484.523 3.026 1.488 4.372 2.659 1.584 1.377 2.267 2.746 2.953 4.075-2.636.712-5.014.824-7.443-.177a16.227 16.227 0 0 0-1.358-2.717 21.986 21.986 0 0 0 1.772-.354l1.004-.237-.295-.945c-.283-.822-.62-1.6-1.005-2.304zm50.212 0a14.963 14.963 0 0 0-1.005 2.304l-.295.945 1.004.237c.615.151 1.2.261 1.772.354a16.233 16.233 0 0 0-1.358 2.717c-2.43 1.001-4.807.89-7.443.177.686-1.329 1.369-2.698 2.953-4.075 1.346-1.17 2.888-2.136 4.372-2.659zm-58.304 3.722c1.543.286 2.985.362 4.49.295 1.696 2.31 2.427 5.511 2.54 8.27-2.351-.138-4.09-.233-6.262-1.358a30.222 30.222 0 0 0-1.24-5.494l1.299-.118-.65-1.24c-.062-.116-.117-.24-.177-.355zm66.396 0c-.06.116-.115.239-.177.354l-.65 1.24 1.3.119a30.229 30.229 0 0 0-1.24 5.494c-2.174 1.125-3.912 1.22-6.262 1.358.112-2.759.843-5.96 2.54-8.27 1.504.067 2.946-.01 4.49-.295zm-88.194.945c2.89.503 5.754.44 8.566.236 1.598 3.588 1.594 6.426 1.24 9.688-.859-1.797-1.823-2.709-3.13-3.84-2.086-1.803-4.52-2.85-6.676-3.662a15.27 15.27 0 0 0 0-2.422zm109.992 0a15.28 15.28 0 0 0 0 2.422c-2.156.812-4.59 1.859-6.675 3.662-1.308 1.131-2.272 2.043-3.131 3.84-.354-3.262-.358-6.1 1.24-9.688 2.812.204 5.675.267 8.566-.236zm-98.532.059c2.416.594 5.014.946 7.916.827.842 2.554.976 5.063 1.063 7.975-3.07-.053-6.096-.9-8.388-2.127a21.226 21.226 0 0 0-1.536-6.616l.945-.059zm87.072 0l.945.06a21.229 21.229 0 0 0-1.536 6.615c-2.292 1.227-5.317 2.074-8.388 2.127.087-2.912.221-5.42 1.063-7.975 2.902.119 5.5-.233 7.916-.827zm-68.05 4.076c2.36.683 4.86.74 7.324.118 1.39 2.498 1.95 4.962 2.54 7.975-3.206.129-6.207.176-8.683-.65-.202-.753-.396-1.513-.65-2.245v-.236c.062-1.51-.103-3.235-.532-4.962zm49.029 0c-.429 1.727-.594 3.452-.532 4.962v.236c-.254.732-.448 1.492-.65 2.245-2.476.826-5.477.779-8.683.65.59-3.013 1.15-5.477 2.54-7.975a13.94 13.94 0 0 0 7.325-.118zm-56.768 4.253c2.108.97 4.11 1.43 6.498 1.536.95 2.676 1.03 5.286 1.122 8.33-3.083-.399-5.945-.916-8.21-2.068.071-1.609-.096-3.26-.592-4.844.078.007.16-.007.237 0l1.004.059v-1.004c.007-.674-.023-1.351-.06-2.009zm64.506 0a30.571 30.571 0 0 0-.059 2.009v1.004l1.004-.06c.078-.006.16.008.237 0-.496 1.584-.663 3.236-.591 4.845-2.266 1.152-5.128 1.67-8.211 2.067.091-3.043.173-5.653 1.122-8.329 2.388-.106 4.39-.565 6.498-1.536zm-75.14.473c2.15 1.01 4.698 1.76 7.326 2.185 1.403 3.465 1.247 6.69-.532 9.393-.073-4.844-2.111-8.887-6.911-9.747.064-.604.1-1.212.118-1.831zm85.773 0c.018.62.054 1.227.118 1.831-4.8.86-6.838 4.903-6.911 9.747-1.78-2.703-1.935-5.928-.532-9.393 2.629-.425 5.176-1.174 7.325-2.185zm-55.232 3.308c3.515.817 6.141 2.891 8.33 5.789-2.299 2.458-4.981 3.394-8.153 3.78a29.69 29.69 0 0 0-2.422-7.206c.557-.017 1.104-.014 1.654-.06l1.005-.059-.178-1.004c-.066-.426-.154-.822-.236-1.24zm24.692 0c-.082.418-.17.814-.236 1.24l-.178 1.004 1.005.06c.55.045 1.097.042 1.654.059a29.693 29.693 0 0 0-2.422 7.206c-3.172-.386-5.854-1.322-8.152-3.78 2.188-2.898 4.814-4.972 8.329-5.79zm-111.232.295a7.631 7.631 0 0 0-2.009 2.186c-1.086 1.783-1.242 3.64-1.595 4.666 0 0 .61.3 2.009-1.83 2.074-3.16 3.037-5.064 5.966-4.963 4.1.254 7.93 1.168 11.578 2.658-1.03.18-1.915.56-2.658 1.005-1.792 1.071-2.813 2.563-3.603 3.308 0 0 .584.733 3.012-.532 3.663-1.908 4.498-2.784 8.093-1.477 3.09 1.698 6.024 3.762 8.86 5.966-.056.003-.12-.003-.176 0-1.189.072-2.135.425-2.954.827-1.637.806-3.417 1.495-5.966 1.182 0 0 .584 1.133 1.358 1.3 1.459.313 3.98-.052 5.435-.768 1.369-.674 2.555-1.1 5.317-.119a177.534 177.534 0 0 1 5.966 5.258c1.206 1.107 2.369 2.153 3.544 3.249-.97-.047-1.847.144-2.6.354-1.756.491-2.985 1.13-5.434.355 0 0-.2.731 1.182 1.358 1.142.519 3.163.555 4.725.118 1.563-.436 2.845-.68 5.73 1.123 2.181 1.999 4.3 3.908 6.44 5.612-.712.08-1.382.18-2.01.354-1.695.473-3.117 1.033-4.725.945 0 0-.055.677 1.182 1.123.992.357 2.47.135 4.016-.296 1.43-.398 2.748-.544 4.43.06 2.244 1.576 4.5 2.872 6.794 3.78-.543.245-1.036.537-1.477.827-1.252.824-2.211 1.674-3.78 2.363 0 0 .018.987 1.24.886 1.202-.1 2.504-.93 3.604-1.654 1.018-.67 2.051-1.17 3.898-1.359.618.125 1.214.233 1.832.295-.114 1.991-.814 3.948-1.714 5.908-1.837.932-3.372 1.381-4.725 1.417v-.059c-.222.026-.472.048-.71.06-1.331-.089-2.506-.542-3.603-1.123-2.449-1.297-5.14-3.631-7.679-4.608-3.351-1.289-6.384-1.494-10.278-2.54-1.885-.506-3.564-1.382-4.844-2.48a7.46 7.46 0 0 1-1.89-2.423c.68.528 1.629.575 2.067 0-2.578-1.905-5.176-3.726-7.798-5.139-2.087-1.125-3.948-2.391-5.316-4.312 3.808 1.289 5.573.972 7.03.413-7.448-1.987-13.524-2.831-18.726-4.49-.016-.017-.044-.04-.06-.058h-.058c-1.35-.435-2.661-.89-3.9-1.477 2.995-.63 6.294-1.158 7.208-2.48-5.882.717-11.923 1.933-17.663 2.303 1.198-1.673 3.18-3.503 1.536-4.608-6.423 8.278-13.154 15.53-19.14 20.853a52.715 52.715 0 0 1-3.07 2.54l-.12-.06c-.024.078-.033.16-.058.237-3.728 2.808-7.225 4.386-11.46 4.962 11.52-9.367 15.431-19.129 19.612-26.996 2.24-4.214 4.433-7.728 7.443-10.16 2.623-2.12 5.895-3.518 10.692-3.84zm197.772 0c4.797.322 8.07 1.72 10.692 3.84 3.01 2.432 5.204 5.946 7.443 10.16 4.181 7.867 8.093 17.63 19.612 26.996-4.235-.576-7.732-2.154-11.46-4.962-.025-.077-.034-.16-.059-.236l-.118.059c-1-.764-2.01-1.597-3.072-2.54-5.985-5.324-12.716-12.575-19.14-20.853-1.642 1.105.34 2.935 1.537 4.608-5.74-.37-11.781-1.586-17.663-2.304.914 1.323 4.214 1.851 7.207 2.481-1.238.587-2.55 1.042-3.899 1.477h-.059c-.015.018-.043.04-.059.059-5.202 1.658-11.278 2.502-18.726 4.49 1.457.558 3.222.875 7.03-.414-1.368 1.92-3.229 3.187-5.316 4.312-2.622 1.413-5.22 3.234-7.798 5.14.438.574 1.388.527 2.068 0a7.46 7.46 0 0 1-1.89 2.421c-1.28 1.1-2.96 1.975-4.845 2.481-3.893 1.046-6.927 1.251-10.278 2.54-2.539.977-5.23 3.31-7.68 4.608-1.096.58-2.27 1.034-3.603 1.122a10.689 10.689 0 0 1-.709-.059v.06c-1.353-.037-2.888-.486-4.725-1.418-.9-1.96-1.6-3.917-1.714-5.908.618-.062 1.214-.17 1.832-.295 1.847.19 2.88.688 3.898 1.359 1.1.723 2.402 1.555 3.604 1.654 1.222.1 1.24-.886 1.24-.886-1.569-.689-2.528-1.54-3.78-2.363-.44-.29-.934-.582-1.477-.827 2.293-.908 4.55-2.204 6.793-3.78 1.683-.604 3.001-.458 4.43-.06 1.547.431 3.026.653 4.017.296 1.237-.446 1.182-1.123 1.182-1.123-1.608.088-3.03-.472-4.726-.945-.627-.175-1.297-.274-2.008-.354 2.14-1.704 4.258-3.613 6.439-5.612 2.885-1.803 4.167-1.56 5.73-1.123 1.562.437 3.583.4 4.725-.118 1.382-.627 1.182-1.358 1.182-1.358-2.45.775-3.678.136-5.435-.355-.752-.21-1.628-.401-2.6-.354 1.176-1.096 2.339-2.142 3.545-3.25 1.94-1.78 3.932-3.552 5.966-5.257 2.762-.98 3.948-.555 5.317.119 1.456.716 3.976 1.08 5.435.767.774-.166 1.358-1.3 1.358-1.3-2.55.314-4.329-.375-5.966-1.18-.819-.403-1.765-.756-2.954-.828-.055-.003-.12.003-.177 0 2.837-2.204 5.77-4.268 8.86-5.966 3.596-1.307 4.431-.431 8.094 1.477 2.428 1.265 3.012.532 3.012.532-.79-.745-1.81-2.237-3.603-3.308a7.762 7.762 0 0 0-2.658-1.005 36.256 36.256 0 0 1 11.578-2.658c2.93-.1 3.892 1.803 5.966 4.962 1.399 2.13 2.009 1.831 2.009 1.831-.353-1.026-.509-2.883-1.595-4.666a7.63 7.63 0 0 0-2.009-2.186zm-121.747 1.182c1.87.52 3.98.802 6.144.886 1.311 2.495 1.773 4.99 2.303 7.974-2.948.056-5.65-.02-7.974-.709-.08-.333-.196-.67-.296-1.004h.414v-1.004c.023-2.13-.212-4.164-.59-6.143zm45.722 0c-.38 1.98-.614 4.014-.59 6.143v1.004h.413c-.1.333-.217.67-.296 1.004-2.325.69-5.026.765-7.974.71.53-2.986.992-5.48 2.303-7.975 2.163-.084 4.275-.367 6.144-.886zm-55.941 4.548a25.052 25.052 0 0 0 4.076 1.536c1.737 3.494.366 7.296-2.127 9.924-.146-1.64-.222-3.388-.59-4.549-.47-1.478-1.26-2.63-2.423-3.662.526-.992.835-2.108 1.064-3.249zm66.16 0c.229 1.14.538 2.257 1.064 3.249-1.164 1.032-1.953 2.184-2.422 3.662-.37 1.161-.445 2.909-.591 4.549-2.493-2.628-3.864-6.43-2.127-9.924 1.469-.41 2.828-.94 4.076-1.536zm-35.266 1.3c1.587 3.47.906 8.314-3.544 11.046-.064-1.321-.516-2.228-1.063-3.544-.6-1.443-1.33-2.749-2.127-3.78a17.228 17.228 0 0 0 2.068-.828 25.505 25.505 0 0 0 4.666-2.894zm4.372 0a25.508 25.508 0 0 0 4.666 2.894c.695.33 1.372.601 2.068.827-.796 1.032-1.527 2.338-2.127 3.78-.547 1.317-1 2.224-1.063 3.545-4.45-2.732-5.13-7.575-3.544-11.046zm-28.946.768c.685.136 1.375.204 2.068.295 1.164 3.271 1.153 6.667.236 9.156-.811 2.203-2.329 3.487-4.49 3.84a9.034 9.034 0 0 0-.649-2.54c2.618-2.788 4.065-6.862 2.835-10.751zm53.52 0c-1.23 3.889.217 7.963 2.835 10.75a9.037 9.037 0 0 0-.65 2.54c-2.16-.352-3.678-1.636-4.49-3.839-.916-2.489-.927-5.885.237-9.156.693-.09 1.383-.159 2.068-.295zm-37.806 3.426c.764.766 1.832 2.315 2.54 4.017.766 1.842 1.074 3.82.709 4.844l-.71 1.949 1.95-.768c.453-.177.892-.375 1.3-.59 1.436 2.669 1.268 5.245-.237 7.442-1.38 2.015-3.718 3.299-7.206 4.076.32-1.127.073-2.062 0-3.249-.1-1.612-.515-3.148-1.182-4.371.914-1.376 1.457-2.966 1.713-4.608.404-2.591.13-5.296-.709-7.62.06-.003.118.004.178 0l1.004-.118-.118-.945c.25-.002.515-.032.768-.06zm22.092 0c.253.027.519.057.768.059l-.118.945 1.004.118c.06.004.118-.003.178 0-.838 2.324-1.113 5.029-.71 7.62.257 1.642.8 3.232 1.714 4.608-.667 1.223-1.081 2.759-1.182 4.371-.073 1.187-.32 2.122 0 3.25-3.488-.778-5.826-2.062-7.206-4.077-1.505-2.197-1.673-4.773-.237-7.443.408.216.847.414 1.3.591l1.95.768-.71-1.95c-.365-1.022-.057-3 .71-4.843.707-1.702 1.775-3.25 2.54-4.017zm-33.02.236c2.146.578 4.594.911 7.029.945.873 2.115 1.27 4.805.886 7.266-.394 2.528-1.48 4.18-3.603 5.494-.23-3.458-1.573-6.784-4.549-8.861.337-1.508.422-3.154.236-4.844zm43.949 0c-.186 1.69-.101 3.336.236 4.844-2.976 2.077-4.32 5.403-4.549 8.86-2.123-1.312-3.209-2.965-3.603-5.493-.383-2.46.013-5.15.886-7.266 2.435-.034 4.883-.367 7.03-.945zM300 147.515c.66 1.934 1.85 3.75 3.662 5.139-1.546 2.799-1.614 5.789-.413 8.33-.015.616-.373 1.663-1.004 2.657-.552.87-1.324 1.61-2.186 2.245-.964-.616-1.888-1.348-2.422-2.245-.629-1.057-.876-2.185-.827-2.717 1.166-2.525 1.06-5.497-.472-8.27 1.812-1.39 3.003-3.205 3.662-5.14zm-22.802 3.78c2.398 2.024 3.423 5.704 3.308 8.92l-.059 1.418 1.359-.532c.48-.19.939-.4 1.359-.65.094 2.517-.926 4.526-2.836 5.908-2.052 1.483-4.667 1.615-8.388 1.063 2.34-3.88 2.181-8.077.945-11.637 1.98-.786 3.473-2.455 4.312-4.49zm45.604 0c.839 2.035 2.331 3.704 4.312 4.49-1.236 3.56-1.396 7.758.945 11.637-3.72.552-6.336.42-8.388-1.063-1.91-1.382-2.93-3.39-2.836-5.908.42.25.879.46 1.36.65l1.358.532-.06-1.418c-.114-3.216.91-6.896 3.309-8.92zm-116.135 1.359c.833.336 1.67.63 2.54.886.607.593 1.363 1.17 2.185 1.713a337.824 337.824 0 0 1-5.02 13.232c-1.762 1.72-3.683 2.905-6.026 3.485 1.284.766 2.893.584 4.548.06-2.065 4.948-4.238 9.89-6.497 14.531a183.28 183.28 0 0 1-2.009 4.017c-1.684 1.244-3.465 2.09-5.553 2.422 1.08.776 2.482.857 3.958.59-3.195 5.873-6.356 10.765-9.038 13.764 1.444-8.399 3.835-19.564 6.852-30.185 2.664-9.376 5.402-17.546 8.507-23.393 2.071-.068 4.022-.336 5.553-1.122zm186.666 0c1.53.786 3.482 1.054 5.553 1.122 3.105 5.847 5.843 14.017 8.507 23.393 3.017 10.621 5.408 21.786 6.852 30.185-2.682-2.999-5.843-7.891-9.038-13.763 1.476.266 2.878.185 3.958-.591-2.088-.332-3.869-1.178-5.553-2.422-.678-1.31-1.34-2.643-2.009-4.017-2.26-4.64-4.431-9.583-6.497-14.531 1.655.524 3.265.706 4.548-.06-2.343-.58-4.264-1.765-6.025-3.485a337.968 337.968 0 0 1-5.021-13.232c.822-.542 1.578-1.12 2.185-1.713a27.53 27.53 0 0 0 2.54-.886zm-200.076.295c.747.21 1.603.385 2.481.532-1.655 4.184-3.317 9.192-5.08 14.413-1.923 2.022-3.96 3.433-6.557 4.076 1.467.875 3.364.473 5.258-.236-2.453 7.149-5.18 14.52-8.507 21.148-2.017 1.46-4.064 2.376-6.498 2.599 1.201.99 2.939 1.012 4.726.709-3.642 6.272-8.6 11.07-14.65 14.65l-1.772-3.427c1.133-2.11 2.263-4.258 3.544-6.616.21-.342.386-.716.591-1.063.11-.204.246-.386.355-.59 2.353-4.054 4.386-8.326 6.143-12.76 2.745-6.433 4.957-12.847 6.38-18.903 4.39-3.958 8.87-9.073 13.586-14.532zm213.486 0c4.716 5.459 9.197 10.574 13.586 14.532 1.423 6.056 3.635 12.47 6.38 18.903 1.757 4.434 3.79 8.706 6.143 12.76.11.204.246.386.355.59.205.347.38.72.59 1.063 2.557 4.704 4.548 8.777 7.09 12.819-8.536-3.699-15.303-9.395-19.967-17.426 1.787.303 3.525.28 4.726-.709-2.434-.223-4.48-1.14-6.498-2.6-3.326-6.628-6.054-13.998-8.507-21.147 1.894.709 3.791 1.111 5.258.236-2.597-.643-4.634-2.054-6.557-4.076-1.763-5.221-3.425-10.23-5.08-14.413a24.197 24.197 0 0 0 2.48-.532zm-191.157 4.549c2.075.933 4.193 1.653 5.967 2.008.663 1.387 1.898 2.787 3.367 4.135-2.141 4.238-4.087 8.377-5.966 12.346-1.832 1.39-3.773 2.249-6.144 2.836 1.204.718 2.776.98 4.371.886-1.613 3.37-3.197 6.634-4.784 9.57a99.634 99.634 0 0 1-1.714 3.012c-1.338.72-2.72 1.21-4.194 1.477.895.488 1.862.699 2.836.768-2.58 4.075-5.273 7.332-8.211 9.57 1.084-6.603 2.415-13.222 4.017-18.254 2.979-9.36 7.286-22.326 10.455-28.354zm168.828 0c3.169 6.028 7.476 18.993 10.455 28.354 1.602 5.032 2.933 11.65 4.017 18.253-2.938-2.237-5.63-5.494-8.21-9.57.973-.068 1.94-.28 2.835-.767a14.038 14.038 0 0 1-4.194-1.477 99.85 99.85 0 0 1-1.714-3.013c-1.587-2.935-3.171-6.199-4.784-9.57 1.595.095 3.167-.167 4.371-.885-2.37-.587-4.312-1.445-6.144-2.836-1.88-3.969-3.825-8.108-5.966-12.346 1.469-1.348 2.704-2.748 3.367-4.135 1.774-.355 3.892-1.075 5.967-2.008zm-99.3 2.776c.143.592.256 1.193.295 1.831.1 1.615-.208 3.221-.886 4.254l-1.063 1.713 2.008-.237c.122-.014.235-.042.355-.059.013 1.622.025 3.378.118 5.08-1.099.722-2.215.998-3.249 1.064-.062-1.842-.542-3.812-1.536-5.848.096-.065.202-.11.295-.178 2.401-1.735 3.78-4.467 3.663-7.62zm29.772 0c-.116 3.153 1.262 5.885 3.663 7.62.093.068.2.113.295.178-.994 2.036-1.474 4.006-1.536 5.848a6.578 6.578 0 0 1-3.249-1.182c.087-1.665.105-3.378.118-4.962.12.017.233.045.355.06l2.008.236-1.063-1.713c-.678-1.033-.987-2.639-.886-4.254.04-.638.152-1.24.295-1.83zm-10.22 2.836c1.72 2.003 4.295 3.532 7.562 4.312-.067 2.978-.47 5.794-.945 8.27-5.287-1.18-8.06-4.773-8.093-10.101.244-.305.447-.625.65-.945.323-.51.61-1.021.827-1.536zm-9.392.059c.176.473.425.94.71 1.417.237.4.512.8.826 1.182-.095 5.226-2.867 8.757-8.093 9.924-.476-2.476-.878-5.292-.945-8.27 3.232-.771 5.783-2.28 7.502-4.253zm-66.574 3.603c1.956 1.395 3.927 2.497 5.435 2.895.882.665 1.869 1.147 2.894 1.595a678.786 678.786 0 0 1-4.253 8.27c-2.332 1.818-4.5 2.614-7.56 2.894 1.31 1.08 3.195 1.633 5.138 1.595-1.384 2.469-2.67 4.63-3.957 6.439-2.738 3.847-5.548 6.502-9.63 9.156 1.03-5.777 2.21-10.23 3.9-15.536 2.946-9.258 4.879-11.647 8.033-17.308zm142.6 0c3.154 5.66 5.087 8.05 8.033 17.308 1.69 5.307 2.87 9.76 3.9 15.536-4.082-2.654-6.892-5.309-9.63-9.156-1.287-1.81-2.573-3.97-3.957-6.439 1.943.038 3.829-.515 5.139-1.595-3.062-.28-5.23-1.076-7.561-2.894a680.072 680.072 0 0 1-4.253-8.27c1.025-.448 2.012-.93 2.894-1.595 1.508-.398 3.479-1.5 5.435-2.895zm-69.882.532c.379 2.94 1.612 5.6 3.603 7.56.184 1.653-.192 3.972-1.122 6.026-.853 1.883-2.202 3.07-3.84 3.899-1.43-.829-2.834-2.086-3.78-4.017-1.028-2.098-1.535-4.459-1.3-5.907 1.978-1.949 3.215-4.586 3.603-7.502.322.226.643.468 1.005.65l.472.236.414-.295c.327-.195.646-.42.945-.65zm-21.857 1.654c1.527 3.151 1.64 5.934.827 8.21h-.059c.002.057-.002.121 0 .178a8.517 8.517 0 0 1-2.186 3.249c-1.83 1.681-5.173 2.815-7.502 2.54-1.478-.175-2.723-.423-4.194-.945 2.145-3.962 4.105-7.857 3.78-12.464 3.571.701 6.784.38 9.334-.768zm40.878 0c2.55 1.149 5.763 1.47 9.333.768-.323 4.607 1.636 8.502 3.78 12.464-1.47.522-2.715.77-4.193.945-2.329.275-5.672-.859-7.502-2.54a8.518 8.518 0 0 1-2.186-3.249c.002-.057-.002-.121 0-.177h-.06c-.811-2.277-.699-5.06.828-8.211zm-146.616 3.072c-3.617 10.712-8.186 21.239-14.06 29.949l-2.48-4.726c3.563-6.834 6.586-13.9 8.388-21.384 2.825-.776 5.515-2.09 8.152-3.84zm252.354 0c2.637 1.749 5.327 3.063 8.152 3.84 3.57 14.828 11.615 28.134 20.026 40.936-13.404-9.019-22.074-26.696-28.178-44.776zm-184.658.827c.742.189 1.461.314 2.186.472.547.843 1.346 1.574 2.362 2.304.181.13.397.229.591.354-1.386 3.023-2.532 5.772-3.662 8.27-1.454 1.285-2.894 2.092-4.43 2.363.843.513 1.876.71 2.894.768-.224.426-.415.891-.65 1.3-1.866 3.244-4.1 6.05-7.916 8.683.633-4.668 1.045-7.92 1.714-10.514.968-3.756 3.756-8.308 6.91-14zm116.962 0c3.155 5.692 5.943 10.244 6.911 14 .67 2.594 1.081 5.846 1.714 10.514-3.815-2.633-6.05-5.439-7.916-8.683-.235-.409-.426-.874-.65-1.3 1.018-.058 2.051-.255 2.895-.768-1.537-.271-2.977-1.078-4.43-2.363-1.13-2.498-2.277-5.247-3.663-8.27.194-.125.41-.224.59-.354 1.018-.73 1.816-1.461 2.363-2.304.725-.158 1.444-.283 2.186-.472zm-44.6 1.949c1.187.645 2.397.994 3.545 1.063.083.583.181 1.168.355 1.713-.11 3.068-.738 6.171-1.359 8.92-4.979-1.112-7.914-4.558-8.33-9.451 1.265.637 2.7 1.083 4.254 1.3l.827.117.236-.827c.232-.87.363-1.84.473-2.835zm-27.763.118c.11.953.25 1.882.473 2.717l.236.827.827-.118c1.554-.216 2.989-.662 4.253-1.3-.415 4.894-3.35 8.34-8.329 9.452-.62-2.749-1.249-5.852-1.359-8.92.174-.545.272-1.13.355-1.713a8.467 8.467 0 0 0 3.544-.945zm-35.502 3.19c.1.042.195.077.295.118a31.741 31.741 0 0 0 5.671 1.713c-2.063 4.465-3.614 8.128-5.316 10.987-1.647 2.766-3.466 4.976-6.44 7.03-.293-3.212-.012-5.464.65-8.034.995-3.858 2.21-6.447 5.14-11.814zm98.768 0c2.93 5.367 4.145 7.956 5.14 11.814.662 2.57.944 4.822.65 8.034-2.974-2.054-4.793-4.264-6.44-7.03-1.702-2.859-3.253-6.522-5.316-10.987a31.74 31.74 0 0 0 5.67-1.713c.101-.041.197-.076.296-.118zm-55.882.768c.258.92.624 1.82 1.063 2.717.657 1.34 1.493 2.622 2.481 3.663.319 3.126-.716 5.49-2.54 7.206-1.73 1.629-4.236 2.509-6.911 2.659-.242-1.277-.305-2.552-.236-3.9.076-1.226.247-2.526.472-3.957 2.974-1.861 4.955-4.876 5.671-8.388zm12.996.177c.747 3.45 2.722 6.383 5.67 8.211.475 3.006.698 5.418.237 7.857-2.674-.152-5.182-1.03-6.911-2.659-1.767-1.663-2.818-3.929-2.6-6.911 1.17-1.086 2.062-2.451 2.718-3.899.387-.855.662-1.72.886-2.599zm-41.114.59c-.47.892-.925 1.79-1.418 2.718l-.472.886.945.414c.769.333 1.543.562 2.304.768-.972 2.43-2.209 4.92-3.545 7.443-.896-1.357-.881-2.79-.413-4.903-3.022 4.058-4.822 10.85-5.494 16.54-.005.042-.054.076-.059.118a42.025 42.025 0 0 0-1.24 3.19c-3.371 10.05-4.94 16.373-6.557 21.738a47.291 47.291 0 0 1-1.536-11.4c2.336-6.851 4.302-14.775 6.557-23.334.502-.807.94-1.59 1.3-2.363 1.722-3.696 2.19-5.914 5.552-11.046.279-.014.558-.028.827-.06v-.058c1.011-.053 2.093-.274 3.249-.65zm69.232 0c1.156.377 2.238.598 3.249.65v.06c.269.031.548.045.827.059 3.362 5.132 3.83 7.35 5.553 11.046.36.773.797 1.556 1.3 2.363 2.254 8.559 4.22 16.483 6.556 23.333a47.287 47.287 0 0 1-1.536 11.401c-1.616-5.365-3.185-11.687-6.557-21.738a41.996 41.996 0 0 0-1.24-3.19c-.005-.042-.054-.076-.06-.118-.671-5.69-2.471-12.482-5.493-16.54.469 2.112.483 3.546-.413 4.903-1.336-2.522-2.573-5.013-3.545-7.443.76-.206 1.535-.435 2.304-.768l.945-.414-.472-.886c-.493-.928-.948-1.826-1.418-2.717zm-54.11 1.182c.21 2.656.6 5.378 1.182 7.561l.236.827.827-.118c.413-.057.788-.146 1.181-.236.47 3.017-.606 5.402-2.776 6.97-2.018 1.46-4.687 1.69-8.329 1.182 2.038-4.092 2.104-7.799.709-12.169 2.275-.42 4.332-1.388 5.907-2.835a9.932 9.932 0 0 0 1.063-1.182zm38.988 0c.332.42.667.818 1.063 1.182 1.575 1.447 3.632 2.415 5.907 2.835-1.395 4.37-1.329 8.077.709 12.169-3.642.509-6.311.277-8.33-1.182-2.168-1.568-3.244-3.953-2.775-6.97.394.09.768.179 1.181.236l.827.118.236-.827c.583-2.183.972-4.905 1.182-7.56zm-49.502 4.135c.518.031 1.031.077 1.535.06 1.653 2.854 1.389 7.442-.65 11.046h-.177c-.018.124-.04.232-.059.354-.238.39-.487.762-.768 1.123l-.945 1.18 1.24.237c-.505 2.232-1.177 4.098-2.008 5.553-1.003 1.757-2.3 2.609-3.958 3.308-.942-1.894-1.715-4.567-1.949-7.148 2.61-5.107 5.772-10.462 7.739-15.713zm60.016 0c1.967 5.25 5.129 10.606 7.739 15.713-.233 2.58-1.007 5.254-1.95 7.148-1.657-.7-2.954-1.551-3.957-3.308-.83-1.455-1.503-3.32-2.009-5.553l1.24-.236-.944-1.181c-.28-.36-.53-.733-.768-1.123-.02-.122-.04-.23-.06-.354h-.177c-2.037-3.604-2.302-8.192-.65-11.047.505.018 1.018-.028 1.536-.059zm-31.012 1.89c.197.117.384.2.59.296l.414.177.354-.118c.226-.09.437-.186.65-.295.16 2.843 1.36 5.248 3.19 6.97.15.142.314.28.473.414.103 1.315-.331 2.516-1.182 3.662-.776 1.047-1.903 1.968-3.072 2.776h-.177c.003.019-.003.04 0 .06-.067.046-.11.131-.177.177-1.141-.77-2.486-1.777-3.426-3.013-.928-1.22-1.417-2.477-1.3-3.662.159-.133.322-.272.473-.414 1.841-1.734 3.042-4.161 3.19-7.03zm-110.996.06c-2.641 10.44-4.815 20.9-5.612 27.173l-.236 2.067 1.713-1.122c1.525-.993 2.998-2.267 4.43-3.722-2.18 7.137-4.777 13.852-7.797 20.203a22.092 22.092 0 0 1-3.367 3.367l-2.895-5.553c3.542-9.732 6.49-20.355 7.68-29.122.853-.967 1.93-3.608 2.717-5.199a134.337 134.337 0 0 0 3.367-8.092zm224 0a134.402 134.402 0 0 0 3.367 8.092c.788 1.59 1.865 4.232 2.718 5.199 1.736 12.809 7.178 29.649 12.818 41.763 3.835 8.237 6.684 14.878 8.625 20.971-6.4-7.878-12.023-16.147-16.836-25.106 1.957.394 3.576.758 5.376-.177-1.88-.176-6.015-2.968-8.566-6.143-3.02-6.351-5.616-13.066-7.797-20.203 1.432 1.455 2.905 2.73 4.43 3.722l1.713 1.122-.236-2.067c-.796-6.273-2.971-16.733-5.612-27.173zm-209.528 1.358c-1.878 6.526-3.806 15.034-4.725 22.27l-.296 2.009 1.713-1.123c2.421-1.574 4.81-3.646 7.09-6.025-2.154 7.598-4.204 13.536-6.617 18.549-2.534 3.256-6.824 6.14-8.743 6.32 1.713.89 3.25.604 5.08.237-3.28 5.174-7.377 9.956-12.877 15.713l-.06-.178c1.724-6.219 4.131-12.456 6.499-18.725 3.214-8.511 5.218-17.722 6.675-26.583 2.117-3.558 4.015-7.38 5.67-11.105.212-.476.39-.895.591-1.359zm195.056 0c.201.464.379.883.59 1.359 1.656 3.724 3.554 7.547 5.671 11.105 1.457 8.861 3.462 18.072 6.675 26.583 2.413 6.389 4.888 12.743 6.616 19.08-5.592-5.843-9.738-10.66-13.055-15.89 1.83.367 3.368.652 5.08-.237-1.918-.18-6.208-3.064-8.742-6.32-2.413-5.013-4.463-10.951-6.616-18.549 2.278 2.379 4.668 4.45 7.089 6.025l1.713 1.123-.296-2.009c-.918-7.236-2.847-15.744-4.725-22.27zm-165.401.945c-.66 2.936-1.344 6.591-2.127 12.76l-.177 1.536 1.476-.532a24.253 24.253 0 0 0 3.604-1.713 102.447 102.447 0 0 1-4.076 13.35c-2.502 3.367-6.889 6.431-8.86 6.616 1.991 1.035 3.767.488 6.024.06-2.92 6.018-6.526 11.398-10.75 15.476.671-6.258 2.383-11.528 4.253-17.072 2.27-6.733 4.363-11.22 6.084-23.805 1.505-1.764 2.888-3.741 4.253-6.144.107-.188.193-.347.296-.532zm135.746 0c.103.185.19.344.296.532 1.365 2.403 2.748 4.38 4.253 6.143 1.72 12.585 3.814 17.073 6.084 23.806 1.87 5.544 3.582 10.814 4.254 17.072-4.225-4.078-7.831-9.458-10.751-15.477 2.257.429 4.033.976 6.025-.059-1.972-.185-6.36-3.249-8.86-6.616a102.463 102.463 0 0 1-4.077-13.35c1.076.621 2.247 1.2 3.603 1.713l1.477.532-.177-1.536c-.783-6.169-1.468-9.824-2.127-12.76zm-151.223 1.24c-1.281 4.197-2.39 8.574-3.072 13.942l-.236 1.831 1.595-.886c2.268-1.196 4.282-2.372 6.084-3.603-1.43 5.873-3.054 11.22-4.962 16.008-2.53 3.272-6.816 6.2-8.743 6.38 1.942 1.008 3.673.481 5.848.059-2.723 5.26-6.012 9.755-10.042 13.527.638-5.144 1.71-9.47 4.135-15.654 3.364-8.574 4.855-14.069 6.557-26.523 1.038-1.683 2.028-3.388 2.836-5.08zm166.7 0c.808 1.693 1.798 3.398 2.836 5.081 1.702 12.454 3.193 17.95 6.557 26.523 2.425 6.183 3.497 10.51 4.135 15.654-4.03-3.772-7.319-8.266-10.042-13.527 2.175.422 3.906.949 5.848-.06-1.927-.18-6.213-3.107-8.743-6.379-1.908-4.787-3.533-10.135-4.962-16.008 1.802 1.23 3.816 2.407 6.084 3.603l1.595.886-.236-1.831c-.681-5.368-1.79-9.745-3.072-13.941zm-140.472 2.423c-.5 2.68-.713 5.751.177 9.806l.295 1.24 1.123-.65c1.14-.652 2.154-1.393 3.13-2.126-1.008 4.403-2.176 8.525-3.544 12.346-2.38 3.107-5.476 5.734-7.325 5.907 1.808.939 3.035.632 4.844.236-2.24 4.906-4.89 9.125-7.916 12.583.262-5.47.89-9.718 2.304-14.178 1.806-5.693 3.222-9.927 4.903-22.092.786-1.052 1.48-2.075 2.009-3.072zm114.244 0c.53.997 1.223 2.02 2.009 3.072 1.681 12.165 3.097 16.399 4.903 22.092 1.415 4.46 2.042 8.708 2.304 14.178-3.025-3.458-5.676-7.677-7.916-12.583 1.809.396 3.036.703 4.844-.236-1.849-.173-4.945-2.8-7.325-5.907-1.368-3.82-2.536-7.943-3.544-12.346.976.733 1.99 1.474 3.13 2.126l1.123.65.295-1.24c.89-4.055.678-7.126.177-9.806zm-42.531.236c.573 1.694 1.605 3.182 3.071 4.253-.464 2.435-.24 4.742.473 6.794-2.956-1-5.243-3.595-5.848-7.09.33.017.67.065 1.004.06H314l.177-.65c.305-1.143.392-2.252.414-3.367zm-29.24.177c.031 1.058.123 2.106.413 3.19l.236.65h.709c.334.005.673-.043 1.004-.06-.605 3.495-2.892 6.09-5.848 7.09.713-2.052.937-4.359.473-6.794 1.415-1.034 2.426-2.457 3.012-4.076zm21.147 2.186c1.062.585 2.2 1.033 3.426 1.3.38 1.449.198 3.489-.354 5.493-.465 1.687-1.21 3.165-1.89 4.43-2.19-1.097-4.323-3.073-5.199-5.08.913-.749 1.776-1.59 2.481-2.54.79-1.063 1.358-2.277 1.536-3.603zm-12.996.06c.217 1.31.84 2.53 1.654 3.602.698.919 1.524 1.72 2.363 2.422-.863 2.024-2.991 4.033-5.198 5.14-.68-1.266-1.426-2.744-1.89-4.43-.552-2.005-.736-4.045-.355-5.494 1.216-.265 2.37-.663 3.426-1.24zm-12.937 2.775c.339 2.355-.037 4.467-.886 6.203-.5-1.39-.894-3.435-.472-5.67a12.52 12.52 0 0 0 1.358-.533zm38.87 0c.425.2.897.38 1.358.532.422 2.236.028 4.28-.472 5.671-.85-1.736-1.225-3.848-.886-6.203zM272 199.321c1.877.284 3.595.265 5.198 0-.366 2.775.212 5.235.945 6.793l.237.354c-1.54 1.758-3.72 2.869-6.203 3.072-.544-2.85-.648-7.07-.177-10.22zm50.802 0c1.603.265 3.32.284 5.198 0 .471 3.15.367 7.37-.177 10.22-2.484-.204-4.663-1.315-6.203-3.073l.237-.354c.733-1.558 1.31-4.018.945-6.793zm-167.055.886l35.384 75.375c-1.42.761-2.91 1.403-4.43 1.832l-30.954-77.207zm132.498.945c.105.561.26 1.1.413 1.654a24.642 24.642 0 0 0 1.89 4.785c-1.597 3.617-4.695 5.34-8.092 5.907-.805-1.811-1.372-4.66-1.064-7.089 2.93-.637 5.368-2.573 6.853-5.257zm23.51 0c1.485 2.684 3.923 4.62 6.853 5.257.308 2.429-.26 5.278-1.064 7.089-3.397-.567-6.495-2.29-8.093-5.907a24.637 24.637 0 0 0 1.89-4.785c.154-.555.31-1.093.414-1.654zm-156.953.827l1.772 4.371c-3.257 4.116-6.852 7.713-10.929 10.456 3.187-4.85 6.3-9.777 9.157-14.827zm144.135 1.122c.277 2.209-.16 5.304-1.24 7.857-.578 1.364-1.321 2.582-2.127 3.426-.596.623-1.212.804-1.832 1.004-.782-2.327-1.161-4.376-.886-6.675 2.523-1.126 4.857-3.16 6.085-5.612zm2.126 0c1.228 2.452 3.562 4.486 6.085 5.612.275 2.299-.104 4.348-.886 6.675-.62-.2-1.236-.38-1.832-1.004-.806-.844-1.55-2.062-2.126-3.426-1.08-2.553-1.518-5.648-1.24-7.857zm-40.346.768c.486 2.267 1.265 4.437 2.186 5.966l.354.65.71-.236c2.472-.744 4.384-2.304 5.73-4.549.021 1.867.192 3.665.53 5.14.005.018-.003.04 0 .059-.237 2.138-1.373 4.097-2.953 5.612-1.669 1.6-3.781 2.566-5.612 2.776-1.782-2.502-3.544-6.538-3.071-9.452h-.178c.217-.672.418-1.315.65-2.008.437-1.3 1.038-2.606 1.654-3.958zm78.566 0c.616 1.352 1.217 2.657 1.654 3.958.232.693.433 1.336.65 2.008h-.178c.473 2.914-1.289 6.95-3.071 9.452-1.83-.21-3.943-1.176-5.612-2.776-1.58-1.515-2.716-3.474-2.954-5.612-.002-.02.002-.04 0-.06.339-1.474.51-3.272.532-5.139 1.345 2.245 3.257 3.805 5.73 4.549l.709.236.354-.65c.921-1.53 1.7-3.7 2.186-5.966zm-164.692 4.372c-1.121 4.74-2.39 9.553-3.9 14.354l-4.43-8.33a52.549 52.549 0 0 0 8.33-6.024zm250.818 0c3.767 3.341 7.987 6.025 12.228 8.092.007.019-.006.041 0 .06 4.195 11.638 5.103 19.431 11.106 31.544 4.478 9.036 6.655 17.325 8.152 24.633-7.52-7.495-13.839-17.224-18.962-27.941 2.09.413 3.783.862 5.67-.118-1.826-.172-5.825-2.788-8.388-5.849-4.217-9.893-7.42-20.327-9.806-30.421zm-146.025.118c.042 2.378.62 4.746 1.477 6.438-1.634 3.654-5.055 6.318-8.33 7.03-.421-1.367-.87-2.937-1.004-4.667-.15-1.959.024-3.907.591-5.257 2.853-.208 5.396-1.5 7.266-3.544zm41.232 0c1.87 2.045 4.413 3.336 7.266 3.544.567 1.35.741 3.298.59 5.257-.132 1.73-.582 3.3-1.004 4.667-3.274-.712-6.695-3.376-8.329-7.03.857-1.692 1.435-4.06 1.477-6.438zM300 209.954c.185.577.358 1.161.59 1.713.645 1.523 1.459 2.945 2.482 4.017.237.248.506.497.768.708.312 1.597-.043 2.97-.827 4.254-.678 1.108-1.763 2.06-2.954 2.894-1.056-.748-2.194-1.7-2.954-2.894-.882-1.389-1.331-2.85-.945-4.254.262-.211.531-.46.768-.708 1.023-1.072 1.837-2.494 2.481-4.017.234-.552.406-1.136.591-1.713zm-9.097.768c.068 2.094.56 4.1 1.359 6.261l.118.295c-1.87 2.758-5.107 4.421-8.093 4.963-.81-2.399-1.26-4.476-.945-6.853 2.9-.602 5.652-2.104 7.56-4.666zm18.194 0c1.909 2.562 4.661 4.064 7.561 4.666.314 2.377-.136 4.454-.945 6.853-2.986-.542-6.223-2.205-8.093-4.963l.118-.295c.799-2.16 1.29-4.167 1.36-6.261zm-151.933 1.83a147.797 147.797 0 0 1-3.84 5.613l-1.653 2.303 2.717-.886c.708-.226 1.463-.505 2.186-.768-1.912 7.897-4.916 16.268-8.802 24.515-2.56 2.853-6.243 5.154-7.975 5.317 1.75.908 3.315.615 5.199.236-7.383 14.107-17.242 27.451-28.473 37.097 4.25-9.332 9.204-18.128 15.181-28.177 6.898-11.598 12.824-26.696 17.072-38.456a49.648 49.648 0 0 0 8.388-6.793zm285.672 0a49.652 49.652 0 0 0 8.388 6.794c4.248 11.76 10.174 26.858 17.072 38.456 5.977 10.05 10.93 18.845 15.181 28.177-11.23-9.646-21.09-22.99-28.473-37.097 1.884.379 3.45.672 5.199-.236-1.732-.163-5.416-2.464-7.975-5.317-3.886-8.247-6.89-16.618-8.802-24.515.723.263 1.478.542 2.186.768l2.717.886-1.654-2.303a147.902 147.902 0 0 1-3.84-5.612zm-283.545.769l.06.177c-.081.037-.156.083-.237.118.061-.097.119-.196.177-.295zm97.764.886c.686 2.574 2.039 5 3.367 6.734l.295.354h.473c1.774-.054 3.585-.76 5.257-1.83.291 2.379-.364 5.175-1.713 7.56-1.385 2.45-3.537 4.252-5.966 5.021-.095-.294-.247-.59-.355-.886-.053-.295-.049-.6-.118-.886l-.177.06a60.548 60.548 0 0 0-1.595-3.663c-.969-2.044-1.621-4.013-1.477-5.376.61-2.211 1.25-4.535 2.009-7.088zm85.89 0c.759 2.553 1.399 4.877 2.009 7.088.144 1.363-.508 3.332-1.477 5.376a60.598 60.598 0 0 0-1.595 3.662l-.177-.059c-.07.287-.065.591-.118.886-.108.296-.26.592-.355.886-2.429-.769-4.581-2.571-5.966-5.02-1.35-2.386-2.004-5.182-1.713-7.562 1.672 1.072 3.483 1.777 5.257 1.831h.473l.295-.354c1.328-1.733 2.68-4.16 3.367-6.734zm-73.308 2.54c.01.178-.014.354 0 .531.176 2.294.693 4.562 1.3 6.203l.295.709.709-.118c.73-.082 1.468-.295 2.186-.532-.47 2.007-.569 4.116.295 6.025l.177.355.414.118c.997.275 2.078.368 3.19.295-.748 1.732-2.14 3.163-3.781 4.194-1.96 1.232-4.248 1.76-6.084 1.595-1.235-2.811-2.171-7.115-1.123-9.865 1.131-2.633 1.546-5.5.945-8.092.127-.114.29-.178.414-.296a13.39 13.39 0 0 0 1.063-1.122zm60.726 0c.327.397.697.77 1.063 1.122.123.118.287.182.414.296-.601 2.591-.186 5.459.945 8.092 1.048 2.75.112 7.054-1.123 9.865-1.836.166-4.124-.363-6.084-1.595-1.64-1.03-3.033-2.462-3.78-4.194 1.111.073 2.192-.02 3.19-.295l.413-.118.177-.355c.864-1.909.766-4.018.295-6.025.718.237 1.455.45 2.186.532l.709.118.295-.709c.607-1.64 1.124-3.909 1.3-6.203.014-.177-.01-.353 0-.531zm-49.03 1.122c.126 1.997.66 3.915 1.418 5.966l.236.71.71-.119c.8-.089 1.601-.293 2.421-.531-.936 1.436-2.32 2.575-3.899 3.367-2.052 1.028-4.338 1.33-6.143 1.004-.572-1.681-.302-3.677.354-5.73 1.917-1.1 3.598-2.721 4.903-4.667zm37.334 0c1.305 1.946 2.986 3.568 4.903 4.667.656 2.053.926 4.049.354 5.73-1.805.327-4.091.024-6.143-1.004-1.58-.792-2.963-1.931-3.9-3.367.821.238 1.622.442 2.423.531l.709.118.236-.709c.758-2.051 1.292-3.969 1.418-5.966zm-24.456.118c.13 1.306.604 2.569 1.3 3.663.416.655.9 1.278 1.417 1.831-.526 2.494-2.74 4.705-5.907 4.962-1.103-1.84-1.649-3.68-1.3-6.143 1.772-1.07 3.372-2.464 4.49-4.313zm11.578 0c1.118 1.85 2.718 3.243 4.49 4.313.349 2.463-.197 4.303-1.3 6.143-3.119-.253-5.338-2.397-5.907-4.844.603-.596 1.155-1.23 1.595-1.95.66-1.08 1.043-2.334 1.122-3.662zm-144.253.946l5.552 14a152.31 152.31 0 0 1-2.303 5.73c-2.563 3.06-6.561 5.676-8.389 5.848 1.888.98 3.581.53 5.671.118-5.123 10.717-11.443 20.446-18.962 27.94 1.497-7.307 3.674-15.596 8.152-24.632 5.546-11.19 6.819-18.748 10.279-29.005zm84.709 2.835c.354 4.38 1.178 8.6 2.835 12.523l.886 2.009.886-2.009c1.132-2.493 2.047-5.527 3.013-8.92.274.695.618 1.378.945 2.068.585 1.233 1.206 2.457 1.713 3.603.533 2.463.406 5.413-.354 8.152-.79 2.844-2.233 5.43-4.076 6.912l-1.772 1.417 2.244.237c1.493.172 2.998.018 4.49-.355.135 2.897-2.39 7.09-7.325 8.388l-1.89.532 1.535 1.181c.441.338.899.623 1.36.886-1.203.83-3.282 1.52-5.613 1.714-2.885.24-6.12-.12-8.329-1.005l-1.772-.768.532 1.89c1.364 4.737 3.54 8.066 6.38 10.043-4.888 1.578-9.03-.012-12.996-3.25l-2.363-1.948.886 2.894c1.06 3.675 3.476 6.6 6.793 8.684-.369.197-.75.415-1.122.65-.468-.164-.932-.251-1.359-.178-.518.09-.985.323-1.359.532-.68.38-1.102.804-1.181.886-.015-.007-.044.007-.06 0a2.725 2.725 0 0 0-1.653-.236c-.518.089-.985.322-1.359.531-.317.178-.56.364-.768.532-.76-.174-1.482-.057-2.067.118-.705.211-1.153.474-1.24.532a3.793 3.793 0 0 0-2.423 0c-.794.261-1.3.709-1.3.709-1.162-.638-2.35-.482-3.248-.178-.637.216-1.018.437-1.24.591-.074-.048-.159-.075-.237-.118-1.155-.634-2.353-.463-3.249-.177-.214.068-.352.16-.532.236-.247-.247-.483-.516-.767-.768a52.848 52.848 0 0 0-1.832-1.536c-1-.843-2.188-1.66-3.367-2.185-.59-.263-1.185-.468-1.772-.532-.37-.04-.747.044-1.122.177a11.16 11.16 0 0 0-1.832-.532c.103-.05.194-.126.296-.177 3.173-1.59 6.519-3.962 7.207-7.384.431-2.146-.739-4.124-2.718-4.253-.66-.043-1.377.1-2.185.532-2.682 1.435-3.007 4.822-4.962 6.911-.094.1-.199.196-.296.296l-11.105-21.09c6.697-5.217 12.774-12.87 17.485-21.678-1.36 4.772-1.879 8.98-2.304 14.886l-.118 1.654 1.536-.768c6.002-3.147 10.74-8.42 14.472-15.123-.91 3.617-1.552 7.505-1.594 11.933l-.06 1.477 1.36-.591c7.21-3.284 12.227-9.301 15.89-17.13.143-.309.273-.633.413-.946-.65 3.832-.893 7.958-.945 13.41v1.535l1.358-.709c6.172-2.996 10.22-8.975 13.35-16.717zm41.527 3.072c.184 1.92.847 3.619 1.89 5.198l.296.413h.472a8.922 8.922 0 0 0 2.895-.472c-.818 1.323-1.966 2.616-3.367 3.721-2.09 1.65-4.597 2.69-6.853 3.013-.884-2.589-1.323-4.79-.886-7.384.297-.123.598-.21.886-.354 1.85-.927 3.53-2.332 4.667-4.135zm24.456 0c1.137 1.803 2.817 3.208 4.667 4.135.288.144.59.231.886.354.437 2.594-.002 4.795-.886 7.384-2.256-.323-4.764-1.364-6.853-3.013-1.4-1.105-2.549-2.398-3.367-3.721.89.3 1.863.476 2.895.472h.472l.296-.413c1.043-1.579 1.706-3.278 1.89-5.198zm-13.705.059c.339.26.665.5 1.004.709l.473.295.532-.295c.327-.204.632-.424.945-.65.474 1.311 1.321 2.485 2.422 3.426.005.018-.006.04 0 .06.142 1.37-.192 2.584-.886 3.72-.678 1.109-1.763 2.06-2.954 2.895-1.056-.748-2.194-1.7-2.954-2.894-.772-1.215-1.165-2.483-1.004-3.722.006-.018-.005-.04 0-.059a8.203 8.203 0 0 0 2.422-3.485zm-33.67 5.316c.112 1.896.572 3.787 1.18 5.435.464 2.295-1.009 4.986-3.662 7.088-2.112 1.674-4.847 2.628-7.443 2.895 1.341-1.693 2.451-3.67 3.072-5.907.503-1.812.72-3.703.709-5.553 2.434-.572 4.54-2.02 6.143-3.958zm70.295 0c1.602 1.938 3.71 3.386 6.143 3.958-.01 1.85.206 3.74.709 5.553.62 2.236 1.731 4.214 3.072 5.907-2.596-.267-5.331-1.221-7.443-2.895-2.698-2.137-4.2-4.887-3.663-7.206.591-1.625 1.072-3.46 1.182-5.317zm-54.996.296c-.163 2.65.442 5.04 1.418 7.679l.236.65.709-.06c2.102-.131 4.265-.928 6.261-2.067-1.398 5.352-5.25 7.447-10.869 7.325-.933-2.833-1.41-7.03-.236-9.688 1.077-1.083 1.952-2.363 2.48-3.84zm39.696 0c.53 1.476 1.404 2.756 2.481 3.84 1.174 2.657.697 6.854-.236 9.687-5.751.289-9.356-2.102-10.87-7.325 1.997 1.14 4.16 1.936 6.262 2.068l.71.059.235-.65c.976-2.639 1.58-5.029 1.418-7.68zm-25.224.945c.238.624.532 1.215.887 1.772.949 1.493 2.253 2.715 3.544 3.603h-.118c0 2.29-1.567 5.336-3.899 7.739-2.126 2.19-4.793 3.492-7.443 3.84-.438-1.543-.56-3.629-.118-5.435 1.912-1.758 3.298-4.29 3.308-7.561.114-.086.242-.148.354-.237a16.905 16.905 0 0 0 3.485-3.721zm10.81.059a16.944 16.944 0 0 0 3.427 3.662c.112.089.24.15.354.237.01 3.27 1.396 5.803 3.308 7.56.442 1.807.379 4.07-.059 5.613-2.65-.348-5.376-1.826-7.502-4.017-2.332-2.403-3.899-5.45-3.899-7.739 1.43-.977 2.717-2.212 3.604-3.662a8.322 8.322 0 0 0 .768-1.654zM275.19 236.3c-.473 3.104.16 6.536 1.063 8.979l.177.413.473.118.236.06c-2.173 3.695-5.373 5.4-10.22 5.198-1.033-2.89-1.878-6.967-.649-9.63h-.06c.794-1.056 1.37-2.19 1.655-3.366 2.357.306 5.005-.376 7.325-1.772zm49.62 0c2.32 1.396 4.968 2.078 7.325 1.772.285 1.175.86 2.31 1.654 3.367h-.059c1.229 2.662.502 6.799-.532 9.688-4.502.284-7.719-1.257-10.337-5.258.076-.018.161-.038.236-.059l.473-.118.177-.413c.903-2.443 1.536-5.875 1.063-8.98zm-140.945.531c-.79 2.178-1.57 4.37-2.245 6.557l-.59-1.122c.14-.257.273-.51.413-.768a173.022 173.022 0 0 0 2.422-4.667zm-13.941 3.25l2.422 6.202a163.477 163.477 0 0 1-11.874 16.658c1.94-6.093 4.79-12.734 8.625-20.97.28-.603.546-1.257.827-1.89zm130.076.472c.78 1.869 2.053 3.718 3.603 5.316l.237.237c.291 1.57-.053 2.927-.827 4.194-.678 1.108-1.763 2.06-2.954 2.894-1.056-.748-2.194-1.7-2.954-2.894-.882-1.389-1.331-2.85-.945-4.254.07-.07.168-.106.237-.177 1.55-1.598 2.824-3.447 3.603-5.316zm-36.33 3.485c-.268 3.005.49 6.255 1.419 8.565l.177.473.472.118c.098.024.197.039.296.06-.873 1.612-2.659 3.123-4.962 4.016-2.676 1.038-5.841.842-8.743-.59 4.529-2.112 7.043-6.298 6.557-9.866 1.658-.638 3.246-1.52 4.608-2.599.064-.051.113-.125.177-.177zm72.66 0c.063.052.112.126.176.177 1.362 1.079 2.95 1.961 4.608 2.6-.486 3.567 2.028 7.753 6.557 9.864-2.902 1.433-6.067 1.629-8.743.591-2.303-.893-4.09-2.404-4.962-4.017.099-.02.198-.035.296-.059l.472-.118.177-.473c.93-2.31 1.687-5.56 1.418-8.565zm-51.098.532c-.098.946-.044 1.919.06 2.835-.304 2.263-2.198 5.065-4.786 7.148-2.369 1.907-5.133 2.923-7.797 2.953-.25-1.594-.137-3.687.531-5.434.175-.085.36-.144.532-.237 2.302-1.236 4.35-3.16 5.317-5.73 1.959.048 4.15-.454 6.143-1.535zm29.536 0c1.994 1.08 4.184 1.583 6.143 1.536.967 2.57 3.015 4.493 5.317 5.73.172.092.357.15.532.236.668 1.747.664 3.899.413 5.493-2.664-.03-5.31-1.105-7.68-3.012-2.608-2.1-4.504-4.935-4.784-7.207.097-.898.155-1.85.059-2.776zm-20.557 3.249c.117.985.421 1.961.886 2.835-.371 2.23-2.146 4.942-4.667 6.97-2.382 1.918-5.062 2.879-7.738 2.895-.26-1.758-.241-4.193.59-5.966 1.178-1.182 2.204-2.486 2.895-3.84h.65c2.636-.09 5.189-1.229 7.384-2.894zm11.578 0c2.195 1.665 4.748 2.804 7.384 2.894h.65c.691 1.354 1.717 2.658 2.894 3.84.832 1.773.91 4.208.65 5.966-2.676-.016-5.415-.977-7.797-2.894-2.48-1.995-4.256-4.644-4.667-6.853.476-.912.802-1.892.886-2.953zm-9.274 4.843a12.994 12.994 0 0 0 2.422 2.186c.009.237.087.469.118.709-.437 2.413-2.32 5.603-4.844 8.152-2.633 2.66-5.818 4.369-8.27 4.49-.307-1.865-.201-4.226.354-6.144 1.913-.64 3.722-1.67 5.317-2.954 2.258-1.817 4.036-4.082 4.903-6.439zm6.97.178c.888 2.3 2.695 4.484 4.903 6.261 1.596 1.284 3.404 2.315 5.317 2.954.555 1.918.66 4.279.354 6.143-2.452-.12-5.637-1.83-8.27-4.49-2.523-2.548-4.407-5.738-4.844-8.151.028-.219.05-.434.06-.65.9-.605 1.757-1.276 2.48-2.067zm-32.607.118c-.545 2.048-.655 4.276-.119 6.025l.237.59.59.06c3.114.277 6.294-.916 8.98-2.776-.16.8-.228 1.632-.237 2.422-2.705.636-4.787 2.357-6.084 4.37-1.234 1.917-1.789 4.04-1.418 5.908-.96.36-2.41.471-3.958.177-2.02-.384-3.998-1.413-5.02-2.835-.02-2.181.622-4.961 1.771-7.502 1.171-2.588 2.766-4.932 4.312-6.203.314-.062.632-.15.946-.236zm58.244 0c.314.087.632.174.946.236 1.546 1.271 3.141 3.615 4.312 6.203 1.15 2.54 1.792 5.32 1.772 7.502-1.023 1.422-3 2.451-5.021 2.835-1.548.294-2.997.184-3.958-.177.371-1.867-.184-3.991-1.418-5.907-1.297-2.014-3.379-3.735-6.084-4.371-.01-.79-.077-1.623-.236-2.422 2.685 1.86 5.865 3.053 8.979 2.776l.59-.06.237-.59c.536-1.75.426-3.977-.119-6.025zm-64.801 4.726c-.154.309-.27.628-.414.945-1.277 2.822-2.091 5.907-2.008 8.565v.236l.118.178c1.151 1.877 3.193 3.036 5.316 3.662-1.868 1.044-4.031 1.403-6.084 1.182-2.324-.251-4.396-1.21-5.612-2.422-.341-1.27-.273-3.531.355-5.612.653-2.169 1.886-4.036 3.071-4.608v-.059c.924-.16 1.817-.382 2.658-.709a13.93 13.93 0 0 0 2.6-1.358zm71.358 0c.802.526 1.668.997 2.6 1.358.841.327 1.734.548 2.658.71v.058c1.185.572 2.418 2.44 3.071 4.608.628 2.081.696 4.342.355 5.612-1.216 1.213-3.288 2.17-5.612 2.422-2.053.221-4.215-.138-6.084-1.182 2.123-.626 4.165-1.785 5.316-3.662l.118-.178v-.236c.083-2.658-.731-5.743-2.008-8.565-.143-.317-.26-.636-.414-.945zM300 258.747c.876 1.935 2.221 3.871 3.84 5.612.251 1.52-.073 2.841-.827 4.076-.678 1.108-1.763 1.823-2.954 2.658-1.056-.748-2.194-1.463-2.954-2.658-.846-1.331-1.25-2.727-.945-4.076 1.619-1.74 2.964-3.677 3.84-5.612zm-47.317.532c1.134.4 2.278.59 3.427.65-.835 1.112-1.458 2.522-1.89 3.957-.612 2.029-.808 4.105-.532 5.848-3.677 1.127-6.92 1.069-9.57-.295-2.544-1.31-4.543-4.126-6.025-8.152 2.264.577 4.76.912 7.207.709 3.005-.25 5.78-1.02 7.383-2.717zm94.634 0c1.604 1.697 4.378 2.467 7.383 2.717 2.447.203 4.943-.132 7.207-.709-1.482 4.026-3.481 6.843-6.025 8.152-2.65 1.364-5.893 1.422-9.57.295.276-1.743.08-3.819-.531-5.848-.433-1.435-1.056-2.845-1.89-3.958 1.148-.058 2.292-.248 3.426-.65zm-66.87 1.89c.055.301.15.606.237.886l.177.59.65.06c.907.08 1.811.03 2.717-.118-.373 1.676-.587 3.456-.414 5.139-.771.725-2.302 1.512-4.017 1.89-1.817.401-3.707.255-5.02-.413-.23-1.217.04-2.96 1.063-4.549 1.013-1.574 2.598-2.914 4.607-3.485zm39.106 0c2.01.571 3.594 1.91 4.607 3.485 1.023 1.588 1.293 3.332 1.064 4.549-1.314.668-3.204.814-5.021.413-1.715-.378-3.246-1.165-4.017-1.89.173-1.683-.041-3.463-.414-5.14.906.149 1.81.2 2.717.119l.65-.06.177-.59c.086-.28.182-.585.237-.886zm-25.283 5.08c.197 1.13.63 2.23 1.24 3.19.551.866 1.237 1.681 1.95 2.363-.417 1.058-1.356 2.311-2.658 3.19-1.179.794-2.628 1.17-4.135 1.122l-.118-.06c-.16-.89-.296-2.04-.178-3.366.147-1.631.579-3.261 1.064-4.194l-.119-.06a21.796 21.796 0 0 0 2.954-2.185zm11.519 0c.921.81 1.901 1.574 2.895 2.186l-.119.059c.485.933.918 2.563 1.064 4.194.119 1.325-.017 2.475-.178 3.367l-.118.059c-1.506.047-2.956-.327-4.135-1.122-1.283-.866-2.23-2.083-2.658-3.131.817-.72 1.564-1.502 2.127-2.422a7.9 7.9 0 0 0 1.122-3.19zm103.258 2.363c.452-.032.898 0 1.358 0 .1 0 .196-.002.296 0-.479 3.24-1 6.373-1.714 9.924a48.407 48.407 0 0 0-6.734-.473c-3.034 0-5.98.243-8.86.768 3.037-5.689 8.87-9.74 15.654-10.22zm-120.034 1.004a19.01 19.01 0 0 0-.473 2.895c-.16 1.796-.16 3.553.236 4.843l.118.473c-.647.493-1.41.944-2.244 1.3-1.739.742-3.6.974-5.021.531-.498-1.18-.622-2.988 0-4.785.673-1.944 2.057-3.752 4.253-4.607a9.067 9.067 0 0 0 3.13-.65zm21.974 0a9.067 9.067 0 0 0 3.131.65c2.196.855 3.58 2.663 4.253 4.607.622 1.797.498 3.605 0 4.785-1.42.443-3.282.21-5.02-.531a10.625 10.625 0 0 1-2.245-1.3l.118-.473c.395-1.29.397-3.047.236-4.843a18.998 18.998 0 0 0-.473-2.895zm107.098.59a19.26 19.26 0 0 1 11.519 16.305c-1.228-.836-2.536-1.586-3.84-2.304l-.59-.65-.06.295c-2.796-1.484-5.715-2.727-8.802-3.662.713-3.55 1.288-6.693 1.773-9.983zm-186.845.592c3.844 2.08 8.186 2.694 12.878.65 3.034 1.272 6.546 1.222 10.279.058 1.234 1.174 2.894 2.067 4.784 2.54a15.1 15.1 0 0 0-2.717 3.25c-.038.06-.08.116-.118.177a10.1 10.1 0 0 0-1.713.886c-6.214.716-11.953.01-16.422-1.832-3.152-1.299-5.334-3.328-6.97-5.73zm137.52 0c-1.637 2.401-3.82 4.43-6.97 5.73-4.47 1.842-10.209 2.547-16.423 1.83a10.097 10.097 0 0 0-1.713-.885c-.037-.061-.08-.117-.118-.178a15.097 15.097 0 0 0-2.717-3.249c1.89-.473 3.55-1.366 4.784-2.54 3.733 1.164 7.245 1.214 10.279-.059 4.692 2.045 9.034 1.431 12.878-.65zm-94.633.295c1.84.863 4.061.86 6.084.413.477-.105.91-.262 1.359-.413-.783.941-1.337 2.043-1.713 3.13-.821 2.372-.804 4.861.177 6.676-2.719 2.186-5.571 2.674-8.152 2.245-2.63-.438-4.83-1.873-6.085-3.308.984-2.915 2.684-6.678 5.14-8.034 1.175-.025 2.292-.192 3.19-.71zm44.303 0c.448.151.882.308 1.359.413 2.023.447 4.245.45 6.084-.413.898.517 2.015.684 3.19.709 2.456 1.356 4.156 5.119 5.14 8.034-1.255 1.435-3.455 2.87-6.085 3.308-2.58.429-5.433-.06-8.152-2.245.98-1.815.998-4.304.177-6.675-.376-1.088-.93-2.19-1.713-3.131zm-19.434 1.89c.186.13.345.3.531.414l.473.354.532-.354c.182-.114.353-.234.531-.355a9.113 9.113 0 0 0 3.072 3.485 9.025 9.025 0 0 0 4.371 1.536c.023.002.036.058.06.06.14.161.311.318.472.472.674 2.32 0 4.34-1.713 6.262-1.65 1.85-4.282 2.872-7.266 4.194-2.561-1.133-5.32-2.224-7.148-4.194-1.91-2.06-2.774-4.148-1.949-6.203.192-.182.367-.397.532-.59a9.024 9.024 0 0 0 4.371-1.537c1.422-.959 2.496-2.221 3.13-3.544zm-32.608.827c-1.247 1.966-2.097 4.192-2.658 5.966l-.118.473.236.354c1.19 1.595 3.195 3.009 5.612 3.84-1.65 1.075-3.727 1.548-5.79 1.536v-.06c-.08.005-.154.054-.235.06a13.164 13.164 0 0 1-1.595-.118c-2.565-.372-4.757-1.54-5.967-2.895.491-1.42 1.198-3.09 2.186-4.666 1.1-1.755 2.492-3.249 3.84-3.9v-.058c1.484.06 3.022-.036 4.49-.532zm67.224 0c1.467.496 3.005.592 4.49.532v.059c1.347.65 2.74 2.144 3.839 3.899.988 1.576 1.695 3.246 2.186 4.666-1.21 1.355-3.402 2.523-5.967 2.895-.533.077-1.053.105-1.595.118-.08-.006-.154-.055-.236-.06v.06c-2.062.012-4.139-.46-5.789-1.536 2.417-.831 4.422-2.245 5.612-3.84l.236-.354-.118-.473c-.561-1.774-1.41-4-2.658-5.966zm-136.574 3.604c.776.024 1.566.255 2.363.472-.198.356-.38.796-.591 1.063-.377.48-.726.705-1.122.827-.883-.54-2.008-.953-3.367-1.3.645-.303 1.314-.896 1.949-1.003.257-.044.51-.067.768-.06zm39.164.295c.43.21.849.405 1.3.59 1.091.45 2.225.812 3.426 1.123-1.592 1.11-2.927 2.56-4.076 4.253a5.257 5.257 0 0 1-1.181-.236c.32-.915.29-1.955.059-2.895a5.623 5.623 0 0 0-1.004-2.067c.5-.283 1.15-.652 1.476-.768zm127.3.118c.342.173.786.426 1.182.65-.463.6-.82 1.314-1.005 2.067-.23.94-.26 1.98.06 2.895-.177.058-.377.14-.591.177-1.144-1.676-2.497-3.092-4.076-4.194a26.045 26.045 0 0 0 3.426-1.122c.35-.145.666-.314 1.004-.473zm-161.857.118c.068-.019.15-.016.296 0 .29.032.709.144 1.181.355.945.42 2.076 1.209 2.954 1.949.356.286 1.104.886 1.772 1.477.334.295.67.592.886.827.048.051.084.07.118.118.037.39.234 2.236.296 4.49.034 1.25.038 2.534-.06 3.603-.097 1.068-.377 1.938-.472 2.067.072-.097-.075.111-.355.296-.279.184-.67.4-1.122.65a68.929 68.929 0 0 1-3.19 1.653c-.922.446-1.07.48-1.831.827.135-.18.292-.33.414-.531v-.06l.059-.117c.03-.078.033-.16.059-.237l.059.118c1.717-.667 2.953-2.165 3.544-4.725l.177-.827-.768-.296c-1.258-.457-2.747-.53-4.076-.413-.488.043-.93.13-1.358.236.547-.764.957-1.727 1.24-2.953l.06-.237c.14.109.252.216.413.296.898.445 1.953.668 2.953.531l-.295-1.89c-.504.069-1.247-.065-1.831-.354-.585-.29-.946-.72-1.004-.946l-.178-.708h-.708c-.636-.014-1.104-.336-1.536-.887a4.968 4.968 0 0 1-.532-.886 4.423 4.423 0 0 0 1.477-1.24c.511-.651.94-1.382 1.3-2.127.015-.008.018-.048.058-.059zm30.54 1.064c.21-.043.497-.014.65.059.477.227 1.073 1.026 1.3 1.949.226.923.077 1.853-.295 2.304-.317.382-.922.426-1.418.413a4.108 4.108 0 0 1-.709-.059c-.04-.008-.083.008-.118 0a5.77 5.77 0 0 0-.118-1.95 5.815 5.815 0 0 0-.886-1.949c.096-.074.349-.238.768-.472a3.31 3.31 0 0 1 .827-.295zm135.039 0c.21.042.58.156.827.295.419.234.672.398.768.472a5.816 5.816 0 0 0-.886 1.95 5.772 5.772 0 0 0-.119 1.95c-.035.007-.079-.009-.118 0-.223.045-.46.052-.709.058-.496.013-1.1-.03-1.417-.413-.373-.45-.522-1.381-.296-2.304.227-.923.824-1.722 1.3-1.95.153-.072.44-.101.65-.058zm-174.794.945c1.834.205 3.273.798 4.313 1.417.126.292.292.677.531 1.123-2.398 1.864-4.706 3.69-7.502 4.666l-.177.06-.118.118c-1.38 1.252-3.058 1.588-4.962 1.24-.87-.159-1.325-.5-1.595-.945-.27-.445-.354-1.062-.118-1.831.313-1.06.599-1.503 1.063-1.831.464-.329 1.21-.565 2.304-.887l.236-.059.118-.118c1.23-1.102 3.405-2.433 5.907-2.953zm51.156.059c2.68.446 5.562.586 8.566.413-1.8 1.928-3.256 4.452-4.253 7.325-.206.593-.364 1.214-.532 1.831-5.797 1.998-9.776 6.539-12.11 11.578-.578-4.034-.431-8.158.768-11.696 1.478-4.358 4.162-7.801 7.561-9.451zm112.828 0c3.4 1.65 6.083 5.093 7.56 9.451 1.2 3.538 1.347 7.662.769 11.696-2.334-5.04-6.313-9.58-12.11-11.578-.168-.617-.326-1.238-.532-1.83-.996-2.874-2.453-5.398-4.253-7.326 3.004.173 5.887.033 8.566-.413zm-128.009.118c.1.01.16.081.236.118.477.228 1.014 1.027 1.24 1.95.227.922.078 1.853-.295 2.303-.316.383-.921.426-1.417.414.23-.734.315-1.505.177-2.245-.154-.825-.532-1.63-1.122-2.245.204-.102.64-.2.827-.236.112-.021.254-.07.354-.06zm60.43 0c-.024 2.105 1.05 4.125 2.6 5.848-.04.155-.088.315-.119.473-.007.09.008.203 0 .295-1.101 5.22-3.783 7.572-6.793 8.506-.43-1.142-.761-3.019-.65-5.493.12-2.647.537-5.56.946-8.093.89-.166 1.773-.475 2.599-.827.502-.215.957-.45 1.417-.71zm22.389.059c.44.244.881.446 1.358.65.826.352 1.709.661 2.6.827.408 2.533.825 5.446.945 8.093.111 2.474-.22 4.35-.65 5.493-3.063-.95-5.73-3.385-6.793-8.801l-.06-.237s.073-.067.119-.118c1.512-1.696 2.482-3.739 2.48-5.907zm59.84 0c.1-.011.182-.021.295 0 .186.035.622.134.827.236-.59.615-.969 1.42-1.123 2.245-.138.74-.054 1.51.178 2.245-.496.012-1.102-.031-1.418-.414-.373-.45-.522-1.38-.296-2.304.227-.922.765-1.721 1.241-1.949.077-.037.195-.048.295-.06zm-116.195.295c-.385.886-.765 1.726-1.004 2.481l-.177.473.295.354c1.145 1.535 3 2.634 5.14 3.308-2.535 1.247-4.663 3.347-6.38 5.671-1.754 2.374-3.004 4.924-4.017 7.384-.466-4.016-.302-8.162.945-11.755 1.179-3.397 3.038-6.204 5.198-7.916zm90.262 0c2.16 1.712 4.02 4.519 5.198 7.916 1.247 3.593 1.41 7.739.945 11.755-1.013-2.46-2.263-5.01-4.017-7.384-1.717-2.324-3.845-4.424-6.38-5.67 2.14-.675 3.995-1.774 5.14-3.309l.295-.354-.177-.473c-.239-.755-.619-1.595-1.004-2.48zm-120.034.65c.26-.015.565.14.768.236.517.247.918.878 1.063 1.654.145.776.016 1.608-.413 2.127-.315.38-1.343.53-1.89.59.178-.735.184-1.5.058-2.244a5.305 5.305 0 0 0-.827-2.068c.267-.08.95-.278 1.241-.295zm149.215 0c.291.017.974.216 1.24.295a5.306 5.306 0 0 0-.826 2.068 5.584 5.584 0 0 0 .059 2.245c-.547-.061-1.575-.21-1.89-.591-.43-.519-.559-1.35-.414-2.127.145-.776.547-1.407 1.063-1.654.203-.096.509-.25.768-.236zm18.608.118a.23.23 0 0 1 .177.06c.13.132.282.363.355.472.221.332.328.617.472 1.122-.01 1.154.282 2.186.65 3.19 1.9 2.605 2.662 6.191 5.14 9.156.008.012-.01.048 0 .06 1.524 1.999 3.231 4.266 5.73 5.611.012.007.05-.011.058 0 1.407.937 2.937.702 4.135.236 1.214-.47 2.285-1.08 3.131-1.24l.118-.06.177-.058c1.26-.72 2.047-1.798 2.777-2.777.73-.978 1.423-1.838 2.245-2.422l.059-.059.118-.118c.55-.646 1.548-.875 2.363-.65.814.226 1.296.726 1.24 1.714-.072 2.092-1.96 3.73-3.899 5.08-.023.016-.036.043-.059.059-2.002 1.193-3.955 2.415-5.966 3.485-.015.008-.044-.008-.059 0-2.056.792-3.986 1.632-5.966 1.831l.236 1.89c2.399-.241 4.488-1.235 6.498-2.008h.119c2.122-1.127 4.12-2.4 6.143-3.603h.059v-.06c1.638-1.134 3.573-2.665 4.37-4.843l.06.059c1.22-.535 2.243-1.462 3.19-2.068.898-.574 1.564-.736 2.304-.531.548.528.858 1.199.886 2.067.03.97-.963 2.049-1.418 2.836-1.478 2.098-2.49 2.49-4.549 3.485l-.059.059h-.059c-3.6 2.122-7.305 4.467-10.75 4.667h-.237l-.118.118c-2.617 1.222-5.032 1.642-7.502 1.831-2.607-.445-4.14-1.939-6.853-3.603-2.357-1.631-5.034-4.336-6.438-6.676-.009-.016.008-.042 0-.059-1.373-2.668-2.03-3.59-3.25-6.734v-.059c-.007-.015.008-.043 0-.059.036-.001.085.002.119 0 .001.006.057-.006.059 0 .118.473.248.915.531 1.3 0 0 1.614-.544 1.064-3.19-.216-4.201.775-4.74.236-8.093.035-.048.07-.067.118-.118.217-.235.552-.532.886-.827.11-.097.21-.158.296-.236.116-.07.542-.203 1.063-.237zm-110.878.473c.213.031.434-.012.65 0-.129 2.856-1.027 6.71-2.6 10.16-.005.038.006.08 0 .118a23.78 23.78 0 0 1-1.299 2.422c-1.263 2.073-2.756 3.739-4.43 4.667-1.373.76-2.895.903-4.549.532 2.481-4.075 4.663-9.675 5.494-14.532 2.276-.326 4.59-1.378 6.734-3.367zm35.266 0c.216-.012.437.031.65 0 2.144 1.989 4.458 3.041 6.734 3.367.832 4.857 3.013 10.457 5.494 14.532-1.654.37-3.176.229-4.549-.532-1.674-.928-3.167-2.594-4.43-4.667-2.37-3.885-3.733-9.114-3.899-12.7zm-96.11.059c.253-.014.513.014.71.118.502.266.969.984 1.121 1.89.153.907-.024 1.881-.472 2.481-.397.532-1.293.669-1.89.71a7.07 7.07 0 0 0 .059-2.482 6.094 6.094 0 0 0-.946-2.422c.304-.13.898-.267 1.418-.295zm156.659 0c.12-.018.228-.007.354 0 .52.028 1.114.164 1.418.295a6.095 6.095 0 0 0-.945 2.422 7.071 7.071 0 0 0 .059 2.481c-.597-.04-1.494-.177-1.89-.709-.448-.6-.626-1.574-.473-2.48.153-.907.62-1.625 1.122-1.891.098-.052.234-.1.355-.118zm-160.971.413c.307-.018.577.04.827.178.632.346 1.175 1.289 1.359 2.422.184 1.133.023 2.42-.532 3.19-.58.804-1.812.95-2.6.945.22-1.038.21-2.196.06-3.308-.14-1.042-.381-2.088-.827-2.954.356-.173 1.077-.434 1.713-.473zm165.224 0c.137-.03.26-.009.413 0 .636.039 1.357.3 1.713.473-.445.866-.686 1.912-.827 2.954-.15 1.112-.16 2.27.06 3.308-.788.005-2.02-.141-2.6-.946-.554-.77-.715-2.056-.531-3.19.184-1.132.727-2.075 1.358-2.421.125-.069.277-.148.414-.178zm-170.304.296c.308-.018.868-.021 1.122.118.472.259 1.207 1.629 1.418 3.19.21 1.56-.045 3.222-.532 3.898-.6.833-1.997 1.064-2.835 1.064.093-1.151.093-2.428.059-3.663-.06-2.156-.241-3.801-.295-4.371a3.257 3.257 0 0 1 1.063-.236zm175.207 0c.21-.015.437-.01.59 0 .411.024.72.101 1.064.236-.57 2.796-.36 4.655-.237 8.034-.838 0-2.235-.231-2.835-1.064-.487-.676-.742-2.337-.532-3.898.211-1.561.946-2.931 1.418-3.19.127-.07.321-.104.532-.118zm-188.616 1.477c.522.402 1.203.675 1.949.827.089.163.192.316.295.472-1.096-.353-2.329-.424-3.485-.354.416-.313.834-.632 1.24-.945zm202.143 2.362c7.248 0 14.08 1.672 20.203 4.608-.329.29-.637.579-1.004.886-1.006.06-2.021.452-2.777 1.24-.052.055-.127.06-.177.119l.059.059c-1.056.805-1.808 1.755-2.481 2.658-.712.955-1.392 1.758-2.245 2.245v.059c-1.2.3-2.291.833-3.19 1.181-.982.382-1.59.515-2.422-.059h-.059l-.059-.059c-2.056-1.084-3.646-3.105-5.198-5.14v-.058c-1.733-2.056-2.458-4.898-3.958-7.561 1.09-.09 2.19-.178 3.308-.178zm-203.561.473c.77-.067 1.512.053 2.245.177-.327.921-.682 1.569-1.182 2.009a7.43 7.43 0 0 0-1.418-1.832c-.093-.088-.198-.153-.295-.236.224-.045.405-.097.65-.118zm230.38.532c.758.481 1.517.955 2.245 1.476-.06 1.222-.309 2.39-.591 3.545-.07.134-.102.285-.177.413-.373-.036-.717 0-1.064.06-.368-.246-.747-.474-1.122-.71.253-.624.466-1.25.59-1.89a9.602 9.602 0 0 0 .119-2.894zm-233.925.118c.021-.004.29.05.65.236.36.185.787.45 1.182.827.714.682 1.229 1.549 1.358 2.127-.252.71-.615 1.226-2.422 2.067l-.177.118-.118.118c-.828.973-1.89 1.827-3.78 1.95h-.178l-.177.118c-.32.154-.709.311-1.122.413l-.118-.118c-.054.051-.068.125-.119.178a6.453 6.453 0 0 1-1.713.118c-1.016-.063-1.655-.412-1.95-1.005-.395-.796-.348-1.394-.058-2.067.29-.673.847-1.31 1.24-1.95 1.62-.043 3.171-.57 4.49-1.653.093-.077.205-.096.295-.178.965-.36 1.86-.81 2.717-1.3zm72.954.177c-.45.601-.85 1.245-1.24 1.89-1.307 2.16-1.956 4.19-2.659 6.144-.505-1.345-1.171-2.68-1.24-3.958-.077-1.427.154-2.711.413-3.485.616-.177 1.23-.363 1.89-.414.963.024 1.886-.005 2.836-.177zm26.76 0c1.761 1.49 3.816 2.742 5.848 3.662-.608 4.806-2.781 7.021-5.258 8.093-.402-1.065-.829-2.572-.886-4.725-.06-2.28.11-4.785.296-7.03zm40.464 0c.95.172 1.873.201 2.835.177.66.051 1.275.237 1.89.414.26.774.491 2.058.414 3.485-.069 1.278-.735 2.613-1.24 3.958-.703-1.954-1.352-3.985-2.659-6.144-.39-.645-.79-1.289-1.24-1.89zm91.856.118c.051.642.03 1.37-.118 2.127-.289 1.483-1.031 2.903-2.067 3.78a3.593 3.593 0 0 0-1.359-1.358c1.473-1.39 2.647-2.835 3.544-4.549zm-118.616.06c.181 2.201.355 4.63.296 6.852-.057 2.153-.484 3.66-.886 4.725-2.477-1.072-4.65-3.287-5.258-8.093 2.188-.979 4.184-2.138 5.848-3.485zm124.819 3.012c.106.72.222 1.478.177 2.186-.051.806-.246 1.566-.472 2.244a4.677 4.677 0 0 0-.886-1.595c.492-.85.916-1.79 1.181-2.835zm-229.907.236c.77-.067 1.512.053 2.244.177-.338.941-.708 1.582-1.24 2.009-.024-.1-.027-.2-.06-.296a3.694 3.694 0 0 0-1.299-1.772c-.022-.016-.037-.042-.059-.059.149-.018.258-.045.414-.059zm-3.545.827c.568.086 1.418.32 2.009.768.342.26.6.563.709.886.1.296.056.718-.119 1.24-.803 1.282-2.14 2.11-3.603 3.25l-.059.059-.06.059c-.888.995-1.695 1.555-2.54 1.831-.843.276-1.798.3-3.189 0-1.033-.222-1.8-.843-2.068-1.418-.243-.524-.242-1.008.355-1.654.19-.07.411-.1.59-.177v.06c.143-.01.218-.103.355-.119 2.035-.242 3.456-1.193 4.43-2.245.03-.014.03-.045.06-.059 1.62-.768 2.593-1.578 3.13-2.48zm83.764.414c.037 1.843.287 3.466 1.004 4.666l.355.591.65-.118c1.018-.216 1.997-.601 2.953-1.122-.71 2.883-1.899 5.81-3.544 7.797-1.028 1.242-2.227 2.098-3.485 2.481-.948.288-2.096-.016-3.25-.354 2.442-3.971 4.433-8.83 5.199-13.646.044-.096.075-.199.118-.295zm36.034 0c.043.096.074.199.118.295.766 4.816 2.757 9.675 5.198 13.646-1.153.338-2.3.642-3.249.354-1.258-.383-2.457-1.239-3.485-2.481-1.645-1.987-2.833-4.914-3.544-7.797.956.52 1.935.906 2.953 1.122l.65.118.355-.59c.717-1.2.967-2.824 1.004-4.667zm-26.996.236c-.014.738-.078 1.473-.059 2.186.073 2.732.32 5.108 1.359 6.675l.413.59.65-.177c.198-.059.395-.164.59-.236-.218 1.217-.424 2.408-.708 3.544-.467 1.87-1.2 3.701-2.127 5.258-1.359 2.53-3.29 3.763-5.73 4.37a4.671 4.671 0 0 1-.768.12c.712-4.514 2.387-11.444 3.663-16.364.413-1.305.795-2.618 1.004-3.899a11.97 11.97 0 0 0 1.713-2.067zm17.958 0a11.974 11.974 0 0 0 1.713 2.067c.222 1.356.613 2.757 1.063 4.135 1.272 4.908 2.843 11.5 3.545 15.95-2.642-.181-4.773-1.516-6.44-4.312-.956-1.605-1.711-3.505-2.185-5.435-.246-1.004-.421-2.173-.65-3.367.196.072.393.177.591.236l.65.177.413-.59c1.04-1.567 1.286-3.943 1.359-6.675.019-.713-.044-1.448-.06-2.186zM300 295.253c.926 2.485 2.385 4.251 4.076 5.376.084 1.49.315 3.072.709 4.607-.052 1.733-.65 4.226-1.595 6.557-.923 2.276-2.15 3.53-3.19 4.726-.991-1.157-2.134-2.228-3.072-4.371-1-2.288-1.69-4.82-1.713-6.912a24.3 24.3 0 0 0 .71-4.607c1.69-1.125 3.15-2.89 4.075-5.376zm-21.384 2.658c-1.069 3.13-2.554 6.14-4.194 8.566l-.59.886 1.003.473c.844.402 1.67.64 2.481.767-1.915 5.761-5.36 12.306-9.983 17.663-4.453 5.161-9.499 8.952-15.654 10.397 8.105-8.155 15.27-19.368 20.026-34.853a8.493 8.493 0 0 0 3.544-1.063c1.257-.697 2.383-1.681 3.367-2.836zm42.768 0c.984 1.155 2.11 2.139 3.367 2.836a8.493 8.493 0 0 0 3.544 1.063c4.757 15.485 11.685 26.58 19.79 34.734-6.156-1.444-10.965-5.117-15.418-10.278-4.622-5.357-8.068-11.902-9.983-17.663a8.941 8.941 0 0 0 2.48-.767l1.005-.473-.59-.886c-1.641-2.426-3.126-5.436-4.195-8.566zm-118.97.768a3.84 3.84 0 0 1 0 7.68c-2.12 0-3.781-1.72-3.781-3.84s1.66-3.84 3.78-3.84zm82.11 6.97c-.944 3.843-1.785 7.65-2.127 10.398l-.119.945.887.118c.308.038.586.056.886.059-1.761 5.963-4.413 12.62-8.389 17.958-3.814 5.12-8.389 8.602-15.004 9.628 6.921-8.42 14.105-20.055 18.903-36.033l-.177-.06a6.48 6.48 0 0 0 1.122-.236c1.582-.48 2.882-1.49 4.017-2.776zm30.953 0c1.135 1.287 2.436 2.296 4.017 2.777.371.113.73.188 1.122.237l-.177.059c4.798 15.978 12.1 27.732 19.021 36.152-6.615-1.027-11.308-4.627-15.122-9.747-3.976-5.337-6.628-11.995-8.389-17.958.3-.003.578-.02.886-.06l.887-.117-.119-.945c-.342-2.748-1.183-6.555-2.126-10.397zm-9.393 3.368a21.3 21.3 0 0 0 1.182 2.304c1.5 2.516 3.599 4.593 6.143 5.434 4.928 15.415 12.792 26.366 18.608 34.616-6.789-1.315-12.318-6.717-17.072-13.881a74.724 74.724 0 0 1-3.662-6.144l-.178-.354c-3.233-6.134-5.565-12.422-6.852-17.013.222-.48.447-.977.65-1.477a31.036 31.036 0 0 0 1.181-3.485zm-12.227.118a25.366 25.366 0 0 0 1.3 3.78c.18.413.396.788.59 1.182-1.293 4.582-3.643 10.807-6.853 16.895h-.118c-.025.125-.034.23-.059.354a74.704 74.704 0 0 1-3.662 6.144c-4.754 7.164-10.165 12.448-16.954 13.763 5.816-8.25 13.562-19.083 18.49-34.498 2.544-.841 4.644-2.918 6.143-5.434.415-.696.784-1.43 1.123-2.186zm9.156 7.148c1.392 4.52 3.58 10.162 6.498 15.713 2.236 11.156 2.347 17.2 2.776 25.046-3.93-2.782-6.887-8.579-8.743-15.536-1.484-5.562-2.281-11.663-2.599-17.071.112-1.968.192-3.818.177-5.553.677-.697 1.285-1.577 1.89-2.6zm-6.026.059c.62 1 1.257 1.863 1.89 2.54-.014 1.735.066 3.585.178 5.553-.318 5.408-1.115 11.51-2.6 17.071-1.855 6.957-4.812 12.754-8.742 15.536.43-7.846.54-13.89 2.776-25.046 2.906-5.528 5.105-11.144 6.498-15.654zM300 333.768c.432 2.761 1 5.537 1.713 8.211a55.127 55.127 0 0 0 2.127 6.32h-.06c.312 3.213-1.601 6.593-3.78 8.92-2.077-2.308-4.187-5.66-3.78-8.86h-.06a55.11 55.11 0 0 0 2.127-6.38 79.9 79.9 0 0 0 1.713-8.21zm-12.287 3.072c-.75 4.524-1.109 8.216-1.359 11.696-2.472 3.652-5.376 6.54-9.983 8.743-.164-3.342.644-6.344 2.186-9.216 3.015-2.638 5.726-5.943 8.093-9.51.37-.558.709-1.143 1.063-1.713zm24.574 0c.354.57.693 1.155 1.063 1.713 2.367 3.567 5.078 6.872 8.093 9.51 1.543 2.872 2.35 5.874 2.186 9.216-4.607-2.204-7.51-5.09-9.983-8.743-.25-3.48-.609-7.172-1.36-11.696z" fill-rule="evenodd"/></svg>