<svg xmlns="http://www.w3.org/2000/svg" width="375" height="250" viewBox="0 0 900 600"><path d="M0 0h900v600H0z" fill="#cd2a3e"/><path d="M0 90h900v420H0z" fill="#006233"/><path d="M637.5 193.25c-.5 103.13-84.38 186.5-187.5 186.5-103.13 0-187-83.38-187.5-186.5-4.13 15.63-6.25 32.13-6.25 49 0 107 86.63 193.75 193.75 193.75 107.13 0 193.75-86.63 193.75-193.75 0-16.88-2.13-33.38-6.25-49z" fill="#ffc400"/><path d="M450 117.25l-16.88 51.88h-54.37l44 32L405.87 253 450 220.8l44.06 32.07L477.2 201l44.1-32H466.9z" fill="#ffc400"/></svg>