<svg xmlns="http://www.w3.org/2000/svg" width="675" height="450"><path fill="#012a87" d="M0 0h675v450H0z"/><path fill="#dc171d" d="M0 0h675v225H0z"/><path d="M0 0v450l300-225z" fill="#fff"/><path d="M151.516 169.815l.091-3.483s-1.87-2.98.3-6.181c0 0-4.612-2.44-3.538-6.261 0 0-4.17-1.067-3.864-5.654 0 0-4.501-.313-4.968-4.144 0 0-4.502.74-6.482-2.993 0 0-4.392.858-5.63-2.22 0 0-4.27 1.478-6.802-2.14 0 0-4.508 1.821-6.397-1.595-1.865 3.404-6.373 1.595-6.373 1.595-2.503 3.605-6.802 2.11-6.802 2.11-1.196 3.09-5.574 2.213-5.574 2.213-1.975 3.736-6.47 2.993-6.47 2.993-.442 3.821-4.938 4.133-4.938 4.133.356 4.6-3.808 5.643-3.808 5.643 1.098 3.82-3.509 6.253-3.509 6.253 2.227 3.22.374 6.176.374 6.176l-.104 3.213 74.507.344" fill="#ff0"/><path d="M377.175 843.108l.091-3.458s-1.857-2.958.298-6.136c0 0-4.578-2.422-3.512-6.215 0 0-4.139-1.059-3.835-5.613 0 0-4.468-.31-4.931-4.114 0 0-4.468.736-6.434-2.971 0 0-4.359.852-5.588-2.204 0 0-4.237 1.468-6.751-2.124 0 0-4.474 1.808-6.349-1.583-1.851 3.379-6.325 1.583-6.325 1.583-2.484 3.579-6.751 2.094-6.751 2.094-1.187 3.068-5.533 2.198-5.533 2.198-1.96 3.708-6.422 2.971-6.422 2.971-.438 3.793-4.9 4.103-4.9 4.103.353 4.566-3.78 5.601-3.78 5.601 1.09 3.792-3.482 6.208-3.482 6.208 2.21 3.196.371 6.131.371 6.131l-.103 3.189 73.949.342h-.012z" fill="#f9d90f" stroke="#000" stroke-width=".271" transform="matrix(1.00754 0 0 1.00735 -228.502 -679.491)"/><path d="M149.774 165.467c-11.703-1.172-25.178-3.95-35.58 1.907-6.973-4.109-16.682-3.858-24.95-3.053-4.489.803-9.77.803-14.461 1.57l-.736.103c-8.512.565-16.234-1.95-23.632-5.255 2.349 13.331 4.957 26.994 6.238 40.95 2.791 20.672-9.782 38.026-4.624 58.446 3.079 9.799 13.854 15.496 23.717 16.625 9.55.563 19.43 2.127 28.268 4.046 1.68.35 3.674 1.13 4.834 1.631 2.435 1.019 4.22 2.515 5.783 4.115 5.336-5.556 13.155-7.102 20.87-7.917 13.905-1.624 31.047-.74 39.56-13.336v-.712c4.624-6.966 4.01-17.592 2.006-25.485-.135-2.753-.87-5.182-1.27-7.806-8.494-22.432-1.22-47.659 2.435-70.269-4.465 2.44-9.445 3.593-14.412 4.814-3.962.528-8.378.288-12.389.073l-1.662-.447m17.484 64.375" fill="#dc171d"/><path d="M167.253 229.842c-.055 1.477.743 2.638 1.031 4.004 1.625 9.805 3.196 22.793-6.9 28.876-11.168 7.101-25.815 4.06-38.737 7.818-2.583.718-6.14 3.092-7.955 4.771-1.165-.766-2.336-1.944-3.84-2.636-10.634-5.654-24.458-3.76-36.461-6.814-6.03-1.907-12.315-6.603-13.843-12.773-3.925-16.188 5.477-29.986 4.367-46.045-.717-12.265-2.779-24.037-5.612-35.535 9.384 4.372 20.245 5.1 30.795 3.005 7.814-1.092 16.91-1.117 24.233 2.189 4.035-1.736 8.758-2.515 13.107-2.993 8.267.804 17.154 2.3 25.668 2.238 5.685-.295 10.85-1.938 15.793-4.127-2.932 19.004-8.562 38.909-1.65 58.022" fill="#62afe1"/><path d="M150.374 233.631l-.092-17.87h2.202l-27.317-17.641-.05-9.168h2.638l-13.66-9.78-13.59 9.774h2.63l.05 9.16-27.171 17.62 2.171.011.092 17.858 72.09.05" fill="#fff"/><path d="M376.042 906.458l-.091-17.739h2.185l-27.113-17.513-.049-9.101h2.618l-13.557-9.709-13.49 9.703h2.611l.049 9.094-26.967 17.49 2.155.012.091 17.727 71.551.049.006-.013z" fill="none" stroke="#000" stroke-width="1.164" transform="matrix(1.00754 0 0 1.00735 -228.502 -679.491)"/><path d="M158.77 257.105l.007 5.592-88.005-.098-.037-5.567 88.043.074" fill="#fff"/><path d="M384.376 929.761l.006 5.551-87.347-.097-.036-5.527 87.384.074h-.006z" fill="none" stroke="#000" stroke-width="1.164" transform="matrix(1.00754 0 0 1.00735 -228.502 -679.491)"/><path d="M76.616 256.768l-.073-18.924 3.564-.007-.197 19.144.215-18.99-5.134-.147v-4.06l78.653.087.037 4.022h-4.851l.091 19.163-.171-19.163h3.612l.08 18.947" fill="#fff"/><path d="M302.836 929.426l-.073-18.786 3.537-.007-.195 19.005.213-18.852-5.095-.146v-4.03l78.064.086.037 3.993h-4.815l.091 19.023-.17-19.023h3.585l.079 18.809m-58.475-4.698l-.055-13.1h-10.482l.061 13.087 10.476.013m0 0l-.055-13.1h-10.482l.061 13.087 10.476.013m0 0l-.055-13.1h-10.482l.061 13.087 10.476.013m0 0l-.055-13.1h-10.482l.061 13.087 10.476.013m0 0l-.055-13.1h-10.482l.061 13.087 10.476.013m-7.682-10.368l.03 7.609h4.797l-.024-7.609h-4.803m58.925 10.404l-.061-13.087-10.446-.012.049 13.099h10.458m-7.682-10.355l.055 7.585h4.791l-.043-7.585h-4.803m7.603-10.975l-.061-13.101h-10.458l.037 13.101h10.489-.006zm-7.682-10.343l.03 7.597h4.791l-.006-7.597h-4.815m-43.567 10.295l-.073-13.076-10.464-.013.049 13.082h10.489v.007zm-7.683-10.343l.024 7.585 4.803.012-.036-7.597h-4.791m26.651 10.366l-.049-13.076-10.47-.012.043 13.087h10.476m-7.676-10.353l.024 7.585 4.797.024-.03-7.609h-4.791m22.298 10.379l-.073-13.101-10.464-.012.049 13.087 10.489.025m-7.69-10.365l.037 7.609h4.797l-.024-7.609h-4.809" fill="none" stroke="#000" stroke-width="1.164" transform="matrix(1.00754 0 0 1.00735 -228.502 -679.491)"/><path d="M129.896 226.61l.117 30.42-30.562-.049-.11-30.395 30.549.024" fill="#fff"/><path d="M355.717 899.488l.116 30.199-30.333-.049-.11-30.174 30.321.024h.006zm-30.51 8.62l30.54.024m-30.54-.024l30.54.024m-30.54-.024l30.54.024m-30.54-.024l30.54.024m-30.54-.024l30.54.024m-26.729 21.543l-.103-21.342m23.228 21.354l-.103-21.329m14.75-21.732l-17.081-12.474-19.193-.024-16.947 12.449 53.222.049m-34.797-22.827l.03 7.609 16.144.012-.03-7.609-16.144-.012m0 0l.03 7.609 16.144.012-.03-7.609-16.144-.012" fill="none" stroke="#000" stroke-width="1.164" transform="matrix(1.00754 0 0 1.00735 -228.502 -679.491)"/><path d="M331.994 863.799l.03 7.609 16.144.012-.03-7.609-16.144-.012" fill="none" stroke="#000" stroke-width="1.164" transform="matrix(1.00754 0 0 1.00735 -228.502 -679.491)"/><path d="M336.371 865.686l.024 3.792h7.414l-.024-3.792h-7.414m3.665-10.544l8.979 6.348-17.891-.024 8.912-6.325m0 .001l8.979 6.348-17.891-.024 8.912-6.325m0 .001l8.979 6.348-17.891-.024 8.912-6.325m0 .001l8.979 6.348-17.891-.024 8.912-6.325m0 .001l8.979 6.348-17.891-.024 8.912-6.325" fill="none" stroke="#000" stroke-width="1.164" transform="matrix(1.00754 0 0 1.00735 -228.502 -679.491)"/><path d="M150.675 177.602c2.57-.061 3.233 10.584 3.239 15.858 2.207.62 7.102 3.698 9.267 6.481l-24.828-.036c2.134-2.747 6.993-5.838 9.182-6.456 0-5.28.54-15.92 3.14-15.858" fill="#fff"/><path d="M376.341 850.838c2.551-.061 3.208 10.507 3.214 15.742 2.191.615 7.049 3.671 9.198 6.434l-24.642-.036c2.118-2.727 6.94-5.795 9.113-6.409 0-5.242.536-15.803 3.117-15.742m-49.533 49.508h2.21l-.645 1.186m-1.565-1.186h2.21l-.645 1.186m-1.565-1.186h2.21l-.645 1.186m-1.565-1.186h2.21l-.645 1.186m-1.565-1.186h2.21l-.645 1.186s1.065 1.37.018 2.94l.578 1.09h-2.131l.578-1.035s-1.09-1.82.049-2.995l-.657-1.186m4.505 0h2.21l-.639 1.186s1.065 1.334.006 2.94l.572 1.09h-2.124l.572-1.035s-1.065-1.82.055-2.995l-.651-1.186m4.911 0h2.204l-.657 1.186s1.077 1.37.018 2.94l.578 1.114-2.112-.024.566-1.035s-1.077-1.808.043-2.995l-.645-1.186h.006zm5.546.011h2.222l-.651 1.199s1.065 1.346.006 2.922l.597 1.108h-2.143l.572-1.035s-1.065-1.832.073-2.995l-.67-1.199h-.006zm4.93 0h2.204l-.651 1.199s1.071 1.346.012 2.916l.584 1.114h-2.124l.554-1.035s-1.071-1.82.085-2.995l-.664-1.199m4.901.013l2.204-.012-.651 1.199s1.09 1.346.03 2.922l.554 1.108h-2.131l.572-1.035s-1.065-1.82.073-2.995l-.651-1.187" fill="none" stroke="#000" stroke-width="1.164" transform="matrix(1.00754 0 0 1.00735 -228.502 -679.491)"/><path d="M114.765 296.025c11.444.038 25.52-2.3 32.113-5.708l14.48-1.283.288 17.667c-12.266 6.764-40.59 8.216-46.82 8.168-6.238.05-34.91-1.428-47.233-8.216l.16-17.68 14.51 1.307c6.594 3.392 21.098 5.746 32.531 5.746h-.03" fill="#f9d90f"/><path d="M340.699 968.397c11.359.037 25.329-2.283 31.873-5.667l14.372-1.273.286 17.538c-12.175 6.714-40.286 8.156-46.471 8.108-6.191.049-34.649-1.418-46.879-8.156l.158-17.55 14.403 1.297c6.544 3.367 20.94 5.704 32.287 5.704h-.03" fill="none" stroke="#000" stroke-width=".271" transform="matrix(1.00754 0 0 1.00735 -228.502 -679.491)"/><path d="M30.317 220.667l12.758 4.06-3.858 20.654-12.077 1.875s-2.036-10.86 3.177-26.6" fill="#f9d90f"/><path d="M256.883 893.589l12.662 4.03-3.829 20.503-11.986 1.862s-2.021-10.781 3.153-26.407v.012z" fill="none" stroke="#000" stroke-width=".271" transform="matrix(1.00754 0 0 1.00735 -228.502 -679.491)"/><path d="M39.21 245.153l-12.07 2.103 7.635-10.86 4.435 8.757" fill="#7e7e7e"/><path d="M265.709 917.896l-11.98 2.088 7.579-10.781 4.401 8.693" fill="#f9b60f" stroke="#000" stroke-width=".271" transform="matrix(1.00754 0 0 1.00735 -228.502 -679.491)"/><path d="M22.687 235.545l12.297.888c.276 10.42 1.54 50.18 49.023 52.338l-1.478 14.466c-57.8.6-62.191-48.769-59.842-67.692" fill="#f9d90f"/><path d="M249.31 908.358l12.205.882c.274 10.343 1.528 49.813 48.656 51.956l-1.467 14.36c-57.367.596-61.726-48.413-59.394-67.198zm44.797 70.138l14.384-3.141m-14.384 3.141l14.384-3.141m-14.384 3.141l14.384-3.141m-14.384 3.141l14.384-3.141m-14.384 3.141l14.384-3.141" fill="none" stroke="#000" stroke-width=".271" transform="matrix(1.00754 0 0 1.00735 -228.502 -679.491)"/><path d="M198.208 220.814l-12.708 4.023 4.029 20.622 12.1 1.944s1.945-10.854-3.422-26.6" fill="#ff0"/><path d="M423.518 893.735l-12.613 3.993 3.999 20.472 12.01 1.929s1.93-10.774-3.397-26.406v.012z" fill="#f9d90f" stroke="#000" stroke-width=".271" transform="matrix(1.00754 0 0 1.00735 -228.502 -679.491)"/><path d="M189.529 245.245l12.1 2.17-7.74-10.865-4.36 8.695" fill="#7e7e7e"/><path d="M414.904 917.987l12.01 2.155-7.682-10.786-4.328 8.631" fill="#f9b60f" stroke="#000" stroke-width=".271" transform="matrix(1.00754 0 0 1.00735 -228.502 -679.491)"/><path d="M205.978 235.71l-12.315.841c-.178 10.406-1.085 50.185-48.57 52.294l1.614 14.453c57.787.668 61.762-48.677 59.271-67.594" fill="#f9d90f"/><path d="M431.23 908.522l-12.223.835c-.177 10.33-1.077 49.818-48.206 51.912l1.601 14.348c57.355.663 61.3-48.322 58.828-67.101v.005zm-44.194 70.053l-14.421-3.159" fill="none" stroke="#000" stroke-width=".271" transform="matrix(1.00754 0 0 1.00735 -228.502 -679.491)"/><path d="M107.08 304.733c-.325.208-.766.264-1.275.239l-2.294-.117.196-2.863 2.275.122c.447.03.803.117 1.025.252.46.238.662.68.62 1.293-.03.528-.215.871-.553 1.073m-3.852 4.508l.227-3.49 2.674.185c.865.067 1.508-.16 1.945-.602.453-.429.687-.993.717-1.63.055-.743-.135-1.35-.576-1.798-.423-.429-1.025-.655-1.779-.729l-3.82-.239-.528 8.216 1.134.075m8.323-6.862l2.797.03m-2.797-.03l2.797.03m-2.797-.03l2.797.03m-2.797-.03l2.797.03m-2.797-.03l2.797.03c.405.037.723.086.957.196.429.203.631.608.631 1.196 0 .552-.159.92-.472 1.141-.3.202-.736.295-1.257.295l-2.687-.03.025-2.827m-.044 7.279l.024-3.508 2.625.037c.467 0 .81.037 1.049.154.387.178.576.552.594 1.066l.068 1.38c.018.332.024.534.043.67.037.097.056.202.104.276h1.41l-.024-.178c-.159-.086-.288-.25-.343-.503-.05-.159-.074-.399-.086-.699l-.024-1.098c-.018-.496-.104-.839-.294-1.03a1.474 1.474 0 0 0-.743-.528c.393-.208.687-.447.902-.743.202-.325.306-.735.306-1.238 0-.943-.386-1.588-1.172-1.938-.423-.19-.963-.289-1.6-.3l-3.944-.037-.03 8.241h1.134m8.754-1.749c-.503-.612-.773-1.379-.834-2.286-.056-1.142.165-2.012.687-2.601.528-.638 1.208-.944 2.097-.994.896-.05 1.632.239 2.178.803.558.552.876 1.319.932 2.276.03.92-.13 1.734-.553 2.452-.417.73-1.11 1.141-2.134 1.165-1.066.056-1.864-.195-2.373-.816m-1.35-5.188c-.527.816-.742 1.76-.686 2.902.08 1.232.46 2.25 1.177 3.017.797.766 1.852 1.152 3.153 1.078 1.392-.061 2.441-.588 3.152-1.557.577-.876.853-1.896.791-3.152-.08-1.122-.405-2.036-1.011-2.717-.767-.913-1.89-1.317-3.41-1.256-1.435.092-2.49.619-3.171 1.685m38.737-11.851c.791-.135 1.478-.098 2.104.117.92.288 1.54.969 1.925 2.011l-1.134.16c-.245-.564-.594-.95-1.067-1.166-.46-.201-1.037-.252-1.699-.153a2.648 2.648 0 0 0-1.827 1.122c-.43.662-.559 1.545-.368 2.673.16.932.503 1.723 1.067 2.25.52.54 1.288.73 2.288.588.749-.123 1.35-.422 1.772-.938.442-.49.57-1.232.423-2.188l-2.643.404-.135-.907 3.68-.565.717 4.36-.73.11-.453-1.005c-.307.454-.614.804-.884 1.005-.453.357-1.067.584-1.834.693-.993.154-1.9-.025-2.723-.552-.902-.668-1.484-1.662-1.705-3.04-.239-1.356-.024-2.515.602-3.429.594-.882 1.46-1.397 2.624-1.563m8.323-.626l2.637-.957c.362-.134.675-.178.944-.146.485.036.84.325 1.043.9.19.491.19.92-.024 1.222-.227.312-.582.54-1.098.729l-2.478.89-1.024-2.638m2.637 6.814l-1.287-3.305 2.453-.884c.46-.147.779-.226 1.019-.201.435.054.766.32.987.82l.558 1.26c.123.311.22.502.3.587.038.111.117.179.179.251l1.33-.49-.073-.178c-.196 0-.386-.11-.528-.325-.104-.153-.202-.374-.343-.63l-.436-1.031c-.196-.447-.399-.723-.631-.89a2.106 2.106 0 0 0-.877-.238c.27-.314.467-.627.54-.995.08-.373.044-.79-.135-1.256-.337-.876-.957-1.355-1.827-1.416-.46-.036-.988.061-1.595.275l-3.705 1.318 2.993 7.751 1.085-.399m9.64-4.108l-4.704-6.862 5.165-3.293.57.828-4.231 2.704 1.447 2.097 3.908-2.514.534.803-3.908 2.514 1.595 2.312 4.305-2.754.57.81-5.256 3.354m4.121-12.128l1.35-1.484c.625-.662 1.287-.963 2.011-.877.724.062 1.46.442 2.245 1.129.215.165.405.38.602.62.343.446.546.84.675 1.232.11.492.085.939-.086 1.368-.104.214-.288.466-.564.767l-1.355 1.471-4.876-4.236m7.128 3.23c.957-1.054 1.165-2.189.607-3.47a5.873 5.873 0 0 0-1.508-1.957c-.865-.766-1.766-1.159-2.717-1.231-1.055-.081-1.951.3-2.73 1.152l-2.3 2.465 6.341 5.531 2.3-2.477m4.916-6.41l-7.298-4.287.594-.944 7.31 4.262-.6.98m2.859-4.99l-7.881-3.153 2.324-5.543.957.367-1.895 4.569 2.374.932 1.772-4.207.908.374-1.754 4.201 2.656 1.079 1.944-4.623.957.362-2.367 5.642m3.624-9.677l-8.292-1.833.276-1.281 7.66-2.588-6.728-1.484.246-1.005 8.292 1.784-.264 1.245-7.673 2.643 6.729 1.454-.24 1.066m-.663-10.53l.104-1.042c.478.013.883-.061 1.19-.227.601-.325.95-.944 1.042-1.858.038-.428.018-.803-.08-1.16-.178-.686-.563-1.066-1.183-1.128-.46-.05-.791.062-1.03.313-.215.288-.442.704-.614 1.294l-.38 1.085c-.245.71-.473 1.201-.718 1.476-.393.516-.944.694-1.649.645-.755-.08-1.367-.38-1.803-.957-.448-.528-.632-1.281-.521-2.214.073-.852.355-1.57.858-2.146.467-.527 1.19-.78 2.116-.68l-.086 1.042c-.453 0-.816.08-1.079.264-.478.264-.742.822-.822 1.637-.067.675.024 1.128.282 1.473.258.288.583.471.963.502.405.038.724-.091.944-.404.16-.215.35-.68.608-1.435l.374-1.14c.184-.528.405-.932.662-1.22.46-.479 1.06-.681 1.815-.625.92.098 1.576.479 1.914 1.178.331.705.46 1.484.38 2.367-.104 1-.43 1.784-1.031 2.312-.602.539-1.35.723-2.257.65m-171.895-.504l.19 1.03c-.46.091-.828.276-1.098.515-.484.454-.65 1.134-.484 2.06.073.392.214.778.393 1.085.367.626.846.877 1.454.778.447-.08.742-.251.883-.57.135-.314.233-.792.264-1.405l.056-1.159c.037-.717.116-1.281.276-1.595.252-.564.723-.913 1.428-1.03a2.454 2.454 0 0 1 1.987.466c.577.4.957 1.092 1.098 2.012.179.841.098 1.595-.232 2.274-.32.663-.932 1.067-1.871 1.24l-.185-1.042c.436-.16.761-.313.976-.528.367-.41.478-1.005.337-1.821-.11-.663-.337-1.092-.681-1.307-.338-.252-.675-.35-1.043-.288-.41.062-.68.288-.81.656-.08.245-.14.753-.196 1.533l-.056 1.202c-.03.564-.117 1.03-.306 1.35-.3.588-.81.95-1.552 1.067-.938.159-1.662-.056-2.177-.656-.528-.589-.852-1.294-1.018-2.171-.184-1.043-.049-1.852.368-2.501.423-.67 1.092-1.055 2-1.184m-.522 10.861l8.108-2.44 1.89 5.708-.988.312-1.546-4.69-2.465.742 1.428 4.334-.944.3-1.416-4.346-2.748.82 1.57 4.796-.97.277-1.919-5.814m3.594 9.898l7.458-3.955.797 1.39-5.127 5.421 7.489-1.281.772 1.38-7.44 3.93-.527-.914 4.392-2.31c.159-.093.405-.228.76-.418.35-.159.743-.375 1.135-.577l-7.458 1.27-.546-.97 5.091-5.402-.245.123c-.159.091-.435.226-.81.44a6.053 6.053 0 0 1-.822.442l-4.379 2.348-.54-.932m13.898 10.998c-.374-.086-.742-.3-1.104-.675l-1.576-1.625 2.122-1.944 1.589 1.62c.306.3.503.594.607.846.147.483 0 .925-.447 1.342-.405.374-.81.528-1.19.436m-5.992.754l2.6-2.385 1.847 1.87c.594.608 1.202.884 1.84.872a2.597 2.597 0 0 0 1.698-.743c.552-.49.816-1.066.816-1.685-.006-.601-.282-1.165-.79-1.692l-2.65-2.705-6.17 5.666.796.803m7.45 6.622l4.472-7.01 5.287 3.214-.552.834-4.343-2.6-1.343 2.121 3.993 2.422-.515.804-3.999-2.41-1.521 2.373 4.398 2.643-.528.828-5.348-3.22m13.236-1.355l2.686.853c.38.116.656.263.84.429.344.325.436.79.233 1.355-.165.49-.417.81-.81.945-.35.06-.79.06-1.307-.099l-2.533-.809.89-2.674m-2.318 6.886l1.116-3.343 2.503.816c.447.117.772.277.932.442.306.276.399.687.245 1.196l-.373 1.33c-.086.325-.13.54-.166.638 0 .105 0 .215.019.288l1.318.429.08-.19c-.141-.111-.22-.313-.215-.564.03-.154.074-.398.16-.68l.319-1.067c.129-.467.178-.816.061-1.067a1.678 1.678 0 0 0-.54-.73c.418-.074.78-.202 1.086-.43a2.28 2.28 0 0 0 .68-1.09c.3-.89.136-1.632-.527-2.197-.332-.294-.803-.545-1.423-.778l-3.753-1.159-2.625 7.818 1.099.338m11.394-142.283" fill="#012a87"/><path d="M69.042 154.355c.969-2.337 9.948-8.708 39.412-5.918 0 0 4.98 3.041 7.906 2.65 1.668-.216-.982.103-3.159-1.706-2.22-1.808-2.692-5.518 2.38-5.42 5.048.128 23.944 1.195 24.3 2.894.331 1.716-9.991 2.434-13.83 2.336-3.859-.104-3.411 1.846.428 1.7 11.997-.43 25.091-4.656 38.922 5.126 1.649 1.188-4.17 1.379-8.673-.534 0 0-12.2.632-17.474-.233 0 0-4.054 3.298-9.335 2.974.687 1.71-1.95 8.094-18.553 3.292-2.741.84-12.732 2.514-11.64-.454-2.631 0-7.244.847-7.931-.65-.662-1.471 8.12-3.698 9.66-5.292 0 0-18.578.178-22.098-1.104 0 0-10.96 2.459-10.316.325" fill="#bc715f"/><path d="M74.997 180.367c.4-.539.559-1.508 1.405-1.484 1.84.49 3.091 3.857 5.354 1.674.803-.179 1.11.914 1.772 1.042.423 1.87 1.926-.38 3.048-.252 2.398-1.066 5.366-1.318 8.206-.79.086 1.833-1.349 3.857-3.152 4.9.037 1.846 1.71 3.03 1.68 4.887-.288.693-.05 1.784-1.098 2.012-1.33-.239-2.644-.38-3.747-1.122-.135-.135-.245-.4-.528-.313-.135.62.834 1.233 1.214 1.865-.669 1.14-1.778.098-2.711.11-.276.657-.012 1.485-.687 1.908-1.178-.037-1.417-1.318-2.14-1.957-.743.803.52 1.282.699 1.92-.453 2.415-.393 4.776-2.809 6.359l-1.62.804c-.44-1.214-.164-3.055-.46-4.324-.957 1.557-1.704 2.92-3.109 4.237-1.643-.54-2.6-2.477-2.962-4.084-.687-1.87-.294-4.109 1.184-5.464-.503-.98-2.227-.754-2.472-2.151-2.582-1.682-4.01 2.943-5.68.539-.54-2.244.105-5.035 1.73-6.71-.36-.918-1.563-.68-2.274-1.207-1.625-1.38-3.969-2.839-3.852-5.33 4.446-1.68 9.764-.447 12.996 2.931" fill="#008830"/><path d="M77.304 180.116c-.104 2.035 1.374.551 2.471 1.784-.858-.337-1.484 1.484-2.324.442l-.528.503c.306.698.901.791.282 1.558-.92.35-1.104-.803-1.534-1.257-.073-.202.141-.583-.196-.718-.521.442-1.067.602-1.784.528-.197-.393-.577-.907-.19-1.208.704-.95 1.797.343 2.33-.325.085-.588-.43-1.307.238-1.712.46.08 1.05-.17 1.24.405m5.496 1.669c.055.392-.203.944.312 1.22.67-.362 1.38-.086 1.766.577-.006.354.104.82-.361.993l-1.043-.195c.073-.203-.258-.332-.387-.528-.46-.141-.73.232-1.073.46.258.392.852.606.711 1.11-.613.612-.914-.529-1.589-.24-.46-.178.166-1.135-.558-1.423-.858 0-.288 1.41-1.386.858-.393-.442-.78-1.036-.356-1.533.46-.307 1.24-.228 1.631.171.67-.741.736-3.605 2.337-1.471m-6.855 2.956c.448.645-.097 1.521.473 2.239.896-1.674 1.76.361 2.827.202.326.399.111.95.171 1.404-1.318.35-2.906.767-4.072-.288l-.325.374c.693.645 1.349 1.374.797 2.453-.988.214-2.515.239-3.012-.779-.258-.839.601-1.446-.306-2.121-.656.816-.626 1.908-1.993 1.165-.847-.466-1.098-1.428-.675-2.238.883-1.392 2.429.043 3.385-.638.135-1.196-.306-2.238.791-2.9.938-.166 1.374.539 1.945 1.127" fill="#f9d90f"/><path d="M79.695 185.47c-.44 2.035-1.974-.104-2.692-.19.957-1.7 1.558.551 2.692.19m4.778 2.214c-1.067.3-.902-1.03-1.428-1.553l.41-.373c.387.466.682 1.306 1.02 1.926" fill="#fff"/><path d="M83.025 187.279c.307.705-.693 1.27.16 1.784.27-.227.601-.54.742-.67.73.216 1.576.345 2.086 1.068.546 1.497-.97 1.46-1.828 1.876l-.852-.036c.202-.417-.368-.594-.51-.882-.392-.098-.716.024-.937.354.19.951 1.349 1.693.153 2.539-1.012-.067-2.582.325-2.49-1.073-.38-.79 1.031-2.012-.478-2.06-.497 1.067-1.043 2.096-2.337 1.085l.16-1.521c1.239.036 2.705.25 3.262-1.135.356-1.005-.62-1.932.252-2.728 1.263-.289 1.975.558 2.618 1.397" fill="#f9d90f"/><path d="M82.118 189.565c.319.755-.54.804-.944 1.178-.547.043-.926-.171-1.258-.54-.245-.914.435-1.005.957-1.367.608-.252.859.453 1.246.73"/><path d="M81.376 190.056c-.135.178-.325.123-.528.171l-.19-.912c.405.036.932.165.717.741" fill="#fff"/></svg>