<svg xmlns="http://www.w3.org/2000/svg" width="350" height="250" viewBox="0 0 700 500"><path d="M700 0H0v500h700z" fill="#e41e20"/><g><path d="M368.556 371.725c-4.304-3.732-9.523-11.29-9.45-18.576.386-5.433 4.112-8.589 6.519-1.958 3.403 7.32 10.703 19.425 20.762 12.324 4.394-3.226 4.326-7.974-1.7-7.43-7.441-.51-12.011-4.604-15.342-15.145-.605-5.798 1.807-5.653 5.171-1.923 4.327 4.964 12.935 12.464 22.432 8.444 5.278-2.212 6.768-6.776-1.206-7.9-7.549.11-13.711-4.783-19.844-12.248-3.364-4.13 1.597-8.3 4.575-4.784 2.657 2.282 6.377 6.486 9.566 7.066 3.686.724 8.257.364 13.32-2.317 5.46-4.57 3.687-7.865-2.94-8.624-5.136.255-7.934 2.207-14.56-2.212-11.909-8.05-21.377-18.805-22.856-31.743-.972-8.509 3.603-11.086 7.407-10.107 10.347 2.662 17.114 21.996 24.272 32.617 2.344 3.061 4.497 3.111 6.02 2.167 2.872-2.461 5.165-4.486 8.036-7.237 0 0 21.06 3.783 32.528 7.521l-12.77 4.538c-4.834-2.67-10.67.21-10.67 4.841-4.575 3.164-4.207 6.873-2.233 10.453.603-2.493 1.116-5.73 4.73-6.16 5.159 2.133 11.169-.912 11.169-4.94l15.063-5.92 15.218 8.615c0 5.824 5.518 7.669 11.26 6.096 2.705 1.68 4.445 4.595 5.36 7.713 1.696-4.496 1.342-7.67-1.312-9.875 1.523-5.812-6.622-11.402-12.926-7.68l-10.949-6.286 18.74-.525c2.174 3.85 10.036 4.062 12.329 0 1.96-.537 3.616-.878 7.437 1.962-1.204-4.596-3.547-6.56-7.062-6.56-2.672-4.733-12.339-4.711-13.735.617l-19.516.543 11.58-8.245c4.322 2.552 10.387-.285 11.602-4.922 1.724-2.048 3.848-3.01 8.032-1.62-2.156-3.819-5.194-4.959-10.68-2.367-5.006-3.792-11.602.808-10.602 4.626l-15.406 10.482c-11.183-3.336-31.438-8.533-31.438-8.533 2.412-2.536 4.858-4.893 7.266-7.465.87-1.506-.46-3.26-2.305-3.625-18.071-3.73-28.418-11.016-34.687-29.531-2.623-7.755 3.046-10.072 4.995-5.328 2.695 6.596 5.669 13.807 13.784 19.39 2.798 1.957 11.128.359 6.201-4.315-5.103-4.204-7.3-6.012-9.814-16.234 0-5.178 5.278-7.5 8.222-2.536 3.15 10.181 3.472 14.566 9.175 21.127 4.321 4.963 9.956 8.299 12.754 8.224 5.034-.07 10.102-5.508 3.37-9.457-9.889-3.95-13.502-9.348-14.957-14.496-1.592-8.984.146-13.333 5.566-8.914 7.686 8.734 22.359 25.002 30.044 32.577 8.614 6.597 18.496 6.812 26.363.11 4.502-5.183 2.905-10.76-4.146-9.567-15.908 1.343-27.954-6.556-41.172-27.903-2.588-4.819-3.296-11.74 2.412-6.592 6.587 8.914 16.192 16.489 25.122 19.75 8.965 3.22 16.367 1.44 19.239-1.379 3.459-3.459 2.549-12.174-3.438-10.072-4.927 1.738-11.87 2.173-19.096-.619-7.232-2.826-14.742-8.913-22.715-19.24-2.73-5.832-1.841-10.76 3.686-7.754 13.076 11.09 29.942 20.073 38.55 14.675 6.343-3.95 6.45-14.096-1.592-13.442-16.196 2.207-22.324-1.378-37.88-15.11-3.54-2.646-3.297-9.353 2.338-5.073 13.076 8.444 30.933 11.74 37.95 7.32 6.308-3.95 5.385-16.019-5.245-11.744-8.506 5.183-17.895 5.038-36.709-8.404-4.746-3.95-1.206-9.098 2.69-6.886 15.133 8.623 37.174 12.318 42.91-5.218 2.232-6.702-1.806-10.616-7.724-5.978-13.003 12.03-27.744 6.122-35.996.07-2.363-1.393-6.699-8.443.918-7.135 19.702 4.494 39.19.58 42.735-13.373 2.055-4.529-1.988-12.538-9.18-5.832-9.458 9.348-19.487 9.672-32.1 9.603-6.416-1.344-6.484-8.41-1.098-9.458 9.956.215 19.77-4.135 27.636-8.554 7.69-4.419 14.068-10.616 16.09-19.204 1.24-7.68-6.168-15.835-10.63-7.68-6.592 11.919-21.192 23.154-37.423 25.181-.844-1.413-2.973-5.038-5.595-4.02-4.766 1.848-10.445 4.321-16.291 7.098-12.603 5.984-17.855 8.868-16.341 19.208 1.58 10.79-6.738 17.607-13.608 15.724-5.992-1.612-9.297-7.025-8.223-16.413.86-7.48 8.369-16.528 16.83-21.272 5.48-3.066 13.75-4.744 23.707-6.956 6.06-1.193 9.145-3.55 9.497-6.017 0 0-4.14 3.031-10.771 2.577-3.135-.225-5.235-1.603-6.026-3.011 2.305-.47 6.485.075 10.24.075 4.995-.04 16.591-1.159 19.667-8.19.957-4.638-2.09-5.472-4.926-2.501-3.047 3.21-4.302 6.097-10.415 7.175-3.721.654-7.442 1.413-12.227.255 2.695-3.2 6.978-6.477 10.63-5.872 1.201.2 2.798 1.308 4.077 3.3.781-5.073-.605-10.8-14.175-8.409.215-3.84-7.866-5.507-12.72-5.432-2.763.07-8.398 1.702-12.47 3.655-6.45 1.997-12.827 3.445-20.342 3.99 4.36 3.73 5.176 3.95 9.531 7.1-6.587 2.462-11.69 7.535-13.994 10.87 0 0 7.69-.214 9.639.655-8.047 2.352-11.66 3.765-15.913 8.114 1.489.255 3.72.69 4.677 1.054.997.36.738 1.014-.068 1.628-1.733 1.323-8.896 9.642-10.986 11.634-2.09-1.992-9.253-10.311-10.986-11.634-.806-.614-1.065-1.269-.068-1.628.957-.365 3.188-.8 4.677-1.054-4.253-4.349-7.866-5.762-15.913-8.114 1.948-.869 9.639-.654 9.639-.654-2.305-3.336-7.407-8.41-13.994-10.87 4.355-3.152 5.17-3.371 9.53-7.102-7.514-.544-13.89-1.992-20.34-3.99-4.073-1.952-9.708-3.585-12.472-3.654-4.853-.075-12.934 1.592-12.72 5.432-13.569-2.391-14.955 3.336-14.174 8.41 1.28-1.993 2.876-3.102 4.077-3.301 3.652-.605 7.935 2.671 10.63 5.872-4.785 1.158-8.506.4-12.227-.255-6.113-1.078-7.368-3.965-10.415-7.175-2.837-2.971-5.883-2.137-4.926 2.501 3.076 7.031 14.672 8.15 19.668 8.19 3.754 0 7.934-.545 10.239-.075-.791 1.408-2.89 2.786-6.026 3.01-6.63.455-10.771-2.576-10.771-2.576.351 2.467 3.437 4.824 9.497 6.017 9.956 2.212 18.228 3.89 23.706 6.956 8.462 4.744 15.972 13.792 16.831 21.272 1.074 9.388-2.231 14.8-8.223 16.413-6.87 1.883-15.188-4.935-13.608-15.724 1.514-10.34-3.738-13.224-16.34-19.208-5.847-2.777-11.526-5.25-16.292-7.097-2.622-1.019-4.75 2.606-5.595 4.02-16.231-2.028-30.83-13.263-37.422-25.182-4.463-8.155-11.87 0-10.63 7.68 2.021 8.588 8.398 14.785 16.089 19.204 7.866 4.42 17.68 8.769 27.636 8.554 5.386 1.049 5.318 8.114-1.098 9.458-12.613.07-22.642-.255-32.1-9.603-7.192-6.706-11.235 1.303-9.18 5.832 3.545 13.952 23.033 17.867 42.735 13.373 7.617-1.308 3.281 5.742.918 7.135-8.252 6.052-22.993 11.96-35.996-.07-5.918-4.638-9.956-.724-7.725 5.978 5.737 17.536 27.778 13.841 42.91 5.218 3.897-2.212 7.437 2.936 2.69 6.886-18.813 13.442-28.202 13.587-36.708 8.404-10.63-4.275-11.553 7.794-5.244 11.744 7.016 4.42 24.873 1.124 37.949-7.32 5.634-4.28 5.879 2.427 2.339 5.073-15.557 13.732-21.685 17.317-37.881 15.11-8.042-.654-7.935 9.493-1.592 13.442 8.608 5.398 25.474-3.585 38.55-14.675 5.527-3.006 6.416 1.922 3.686 7.755-7.973 10.326-15.483 16.413-22.715 19.24-7.226 2.79-14.17 2.356-19.096.618-5.987-2.102-6.897 6.613-3.438 10.072 2.872 2.82 10.274 4.6 19.239 1.378 8.93-3.26 18.535-10.835 25.122-19.749 5.708-5.148 5 1.773 2.412 6.592-13.218 21.347-25.264 29.246-41.172 27.903-7.05-1.194-8.648 4.384-4.146 9.567 7.867 6.702 17.75 6.487 26.363-.11 7.685-7.575 22.358-23.843 30.044-32.577 5.42-4.419 7.158-.07 5.566 8.914-1.455 5.148-5.068 10.546-14.956 14.496-6.733 3.95-1.665 9.387 3.37 9.457 2.797.075 8.432-3.26 12.753-8.224 5.703-6.561 6.025-10.946 9.175-21.127 2.944-4.964 8.222-2.642 8.222 2.536-2.514 10.222-4.711 12.03-9.814 16.234-4.927 4.674 3.403 6.272 6.201 4.314 8.115-5.582 11.089-12.793 13.784-19.39 1.949-4.743 7.618-2.426 4.995 5.329-6.27 18.515-16.616 25.8-34.687 29.531-1.846.364-3.174 2.119-2.305 3.625 2.407 2.572 4.854 4.929 7.266 7.465 0 0-20.255 5.197-31.438 8.533l-15.406-10.482c1-3.818-5.596-8.418-10.602-4.626-5.486-2.592-8.524-1.452-10.68 2.367 4.183-1.39 6.308-.428 8.032 1.62 1.215 4.637 7.28 7.474 11.602 4.922l11.58 8.245-19.516-.543c-1.396-5.328-11.063-5.35-13.735-.617-3.515 0-5.858 1.964-7.062 6.56 3.821-2.84 5.478-2.499 7.437-1.962 2.293 4.062 10.155 3.85 12.329 0l18.74.525-10.949 6.287c-6.304-3.723-14.45 1.867-12.926 7.679-2.654 2.205-3.008 5.379-1.313 9.875.916-3.118 2.656-6.033 5.362-7.713 5.74 1.573 11.259-.272 11.259-6.096l15.218-8.616 15.063 5.92c0 4.03 6.01 7.074 11.169 4.94 3.614.431 4.127 3.668 4.73 6.161 1.974-3.58 2.342-7.289-2.233-10.453 0-4.632-5.836-7.51-10.67-4.84l-12.77-4.539c11.468-3.738 32.528-7.521 32.528-7.521 2.871 2.751 5.164 4.776 8.035 7.237 1.524.944 3.677.894 6.02-2.167 7.159-10.62 13.926-29.955 24.273-32.617 3.804-.979 8.379 1.598 7.407 10.107-1.48 12.938-10.947 23.694-22.856 31.743-6.626 4.42-9.424 2.467-14.56 2.212-6.627.76-8.4 4.055-2.94 8.624 5.063 2.681 9.634 3.04 13.32 2.317 3.189-.58 6.91-4.784 9.566-7.066 2.978-3.515 7.939.654 4.575 4.784-6.133 7.465-12.295 12.358-19.844 12.249-7.974 1.123-6.484 5.687-1.206 7.9 9.497 4.019 18.105-3.481 22.432-8.445 3.364-3.73 5.776-3.875 5.17 1.923-3.33 10.54-7.9 14.635-15.341 15.145-6.026-.544-6.094 4.204-1.7 7.43 10.06 7.1 17.359-5.003 20.762-12.324 2.407-6.631 6.133-3.475 6.519 1.958.073 7.285-5.146 14.844-9.45 18.576C327.14 375.458 350 399.191 350 399.191s22.86-23.733 18.556-27.466zm30.635-268.758c-3.559 0-5.757 1.247-5.757 2.76 0 1.534 2.198 2.786 5.757 2.786 3.536 0 5.783-1.364 5.783-2.904 0-1.512-2.247-2.642-5.783-2.642zm-98.382 0c3.559 0 5.757 1.247 5.757 2.76 0 1.534-2.198 2.786-5.757 2.786-3.536 0-5.783-1.364-5.783-2.904 0-1.512 2.247-2.642 5.783-2.642z" fill-rule="evenodd"/></g></svg>