<svg xmlns="http://www.w3.org/2000/svg" height="150" width="300" xmlns:xlink="http://www.w3.org/1999/xlink" viewBox="0 0 12 6"><path fill="#ed1c24" d="M0 0h12v6H0z"/><path fill="#005da4" d="M0 0h12v4H0z"/><path fill="#fff" d="M0 0h12v2H0z"/><svg width="12" viewBox="-120 -190.22 240 309.19" height="15.46" transform="translate(2.224 1) scale(.12937)"><path d="M110.26-19.48L120-163.23a280.22 280.22 0 0 0-240 0l9.74 143.75A155.6 155.6 0 0 0 0 118.97 155.6 155.6 0 0 0 110.26-19.48" fill="#005da4"/><path d="M-90 0A138.3 138.3 0 0 0 0 100.77 138.3 138.3 0 0 0 90 0L45-60 27-36 0-90l-27 54-18-24-45 60" fill="#fff"/><path d="M-85.98 15A30 30 0 0 0-45 25.98a30 30 0 0 1 30 0 30 30 0 0 0 30 0 30 30 0 0 1 30 0A30 30 0 0 0 85.98 15v8.66A30 30 0 0 1 45 34.64a30 30 0 0 0-30 0 30 30 0 0 1-30 0 30 30 0 0 0-30 0 30 30 0 0 1-40.98-10.98z" id="a" fill="#005da4"/><use xlink:href="#a" transform="translate(0 17.32)"/><path stroke-width=".2" d="M0-131.25l2.25 7.35 7.5-1.73L4.5-120l5.24 5.63-7.5-1.73L0-108.75l-2.25-7.35-7.5 1.73L-4.5-120l-5.24-5.63 7.5 1.73z" fill="#fd0" id="b"/><use xlink:href="#b" transform="translate(-33.75 -45)"/><use xlink:href="#b" transform="translate(33.75 -45)"/><path d="M-111.58-167.05l9.96 147A146.95 146.95 0 0 0 0 109.88 146.95 146.95 0 0 0 101.62-20.07l9.96-147a280.22 280.22 0 0 0 8.42 3.83l-9.74 143.75A155.6 155.6 0 0 1 0 118.97 155.6 155.6 0 0 1-110.26-19.48L-120-163.23a280.22 280.22 0 0 0 8.42-3.82" fill="#ed1c24"/></svg></svg>