<svg xmlns="http://www.w3.org/2000/svg" xmlns:xlink="http://www.w3.org/1999/xlink" width="500" height="250" viewBox="0 0 1400 700"><path d="M0 0h1400v700H0V0z" fill="#006400"/><path d="M0 100h1400v500H0V100z" fill="#ffd200"/><path d="M0 200h1400v300H0V200z" fill="#d40000"/><path d="M0 0v700h25.448l400.02-300H1400V300H425.469L25.448 0H0z"/><path d="M0 0l466.667 350L0 700" fill="#fff"/><path d="M177.534 174.025L269.965 458.5 27.976 282.685h299.115L85.102 458.5z" fill="#d40000"/><path d="M137.95 422.765l16.333-2.97 30.293-1.188 11.137 1.04 24.946 4.157 1.93-2.524v-17.967l2.822-15.444 5.197-15.74 5.346-12.473 6.98-12.919 11.433 2.821h2.97l.297-2.227-23.907-20.492-25.095-19.155-36.084-27.026-3.267-.891-4.01-28.213-2.82-8.613-3.713-3.267-7.276-2.376-8.019.297-3.563 2.08-7.722 1.781-4.01.594-2.672 3.118-.297 4.01 11.137.297 2.821 1.188-.297 1.188-6.385.89-2.97.891 3.564 2.673 3.564 1.337 4.752 1.782.89 3.118.446 43.211-2.524 6.682-.891 12.474 3.712 14.997-9.355 10.543-5.197 9.504-.891 5.94-2.822 5.79-.445 3.713 1.93 3.86 7.128 23.76 3.712 19.452.891.297z" fill="#fc0"/><path d="M146.594 236.531c-2.859-.002-4.23.492-7.063 2.031-2.556 1.39-5.59 2.313-7.656 2.313-4.201 0-7.594 3.016-7.594 6.781v2.5l6.125-.187c17.557.587 1.528 2.205.25 2.437-4.359.791.967 4.346 6.094 6.063 5.517 1.847 5.281.778 5.281 24.969 0 19.862-.172 22.672-1.687 27.25-2.225 6.72-2.225 16.708 0 23.28.899 2.657 1.64 5.134 1.656 5.5.015.368-2.598 3.616-5.813 7.22-5.805 6.507-9.375 13.491-9.375 18.375 0 1.124-.758 3.021-1.687 4.25-2.144 2.833-2.206 7.71-.125 9.562 2.158 1.92 11.07 36.321 11.094 42.813.008 2.367.431 2.352 13.969-.375 10.928-2.203 36.765-2.67 49.843-.907 6.041.815 13.07 2 15.625 2.656 8.05 2.067 7.606 2.493 7.625-7.218.03-15.015 2.766-29.294 8.563-44.563 2.637-6.946 9.568-21.051 11.406-23.219.182-.214 3.134.332 6.563 1.22 7.014 1.815 8.937 1.476 8.937-1.563 0-1.74-7.16-7.71-42.219-35.156-23.623-18.494-42.999-33.063-43.969-33.063-.953 0-1.916-.49-2.125-1.094-.208-.604-1.322-7.753-2.5-15.906-1.177-8.153-2.768-16.204-3.53-17.875-2.232-4.886-6.851-7.477-14.22-7.969a52.05 52.05 0 0 0-3.468-.125zm.25 1.75c.92-.01 1.954.028 3.219.094 11.068.58 13.162 3.635 16.062 23.313 1.126 7.637 2.053 14.699 2.063 15.718.012 1.325-1.526 2.892-5.407 5.5-5.715 3.842-13.09 10.848-16.687 15.813l-2.156 2.937-.407-6.906c-.237-3.796-.237-12.656 0-19.688.49-14.532.11-15.966-4.656-17.562-3.89-1.303-8.968-2.703-7.469-3.594 1.637-.972 3.152-.277 7.313-1.312 1.473-.367 1.393-.305 1.156-1.563-.427-2.266-2.64-3.306-8.906-2.969-4.921.266-5.552.138-5.219-1.187.674-2.679 3.46-4.438 7.594-4.844 2.226-.218 5.473-1.204 7.25-2.187 1.966-1.088 3.492-1.53 6.25-1.563zm24.781 43.125c.233-.004.45 0 .656.031 2.837.446 84.656 64.416 84.656 66.188 0 .701-.655 1.263-1.468 1.25-.814-.013-21.638-5.91-46.25-13.094-39.334-11.48-44.99-13.354-46.688-15.406-2.413-2.916-2.494-7.369-.219-10.375.93-1.228 1.688-2.738 1.688-3.375 0-1.943-4.17 3.013-4.969 5.906-.933 3.382.806 9.042 3.344 10.875 1.003.725 8.5 3.301 16.656 5.719 13.92 4.126 14.855 4.57 15.594 6.875 1.774 5.533-4.072 11.956-12.531 13.781-2.728.589-6.198 2.195-8.594 4-9.526 7.177-16.159 11.417-21.719 13.813-3.27 1.408-6.427 3-7 3.562-.572.563-1.407 3.123-1.875 5.688-.993 5.446-1.415 6.281-3.031 6.281-.935 0-1.02-.49-.375-2.25 1.188-3.248 1.058-7.406-.25-7.406-.692 0-1.125 1.157-1.125 3.094 0 1.69-.477 3.552-1.094 4.156-.926.907-1.043.236-.656-3.938.258-2.777.145-5.062-.25-5.062-.758 0-2.247 4.209-2.781 7.906-.313 2.168-.332 2.15-1.031-.406-.547-1.997-.282-3.336 1.125-5.875 1.002-1.811 1.843-4.446 1.843-5.875 0-2.153 1.587-4.236 9.375-12.125 5.17-5.237 11.19-11.736 13.375-14.438 3.78-4.675 3.98-5.17 3.844-9.906-.079-2.737-.395-5.196-.688-5.5-.987-1.026-2.303 4.264-1.78 7.156.471 2.615-.016 3.506-5.47 9.938-3.291 3.882-8.882 9.736-12.406 13.031-6.49 6.069-8.812 9.349-8.812 12.438 0 .937-.727 3.415-1.625 5.5-.898 2.084-1.394 4.214-1.125 4.718.3.565.086.528-.531-.062-.732-.699-.79-1.993-.188-4.781.455-2.104.642-4.136.406-4.532-.906-1.524-1.969.433-2.5 4.594-.304 2.386-.875 4.136-1.281 3.875-1.222-.785-.837-5.129.656-7.344.77-1.141 1.73-3.86 2.125-6.062 1.11-6.174 3.763-11.075 9.656-17.75 2.97-3.365 5.407-6.243 5.407-6.406 0-.164-.792-2.648-1.75-5.5-2.216-6.597-2.363-16.643-.344-22.75 2.127-6.437 6.51-12.808 13.438-19.532 6.703-6.507 13.073-10.567 16.562-10.625zm25.031 53.625a1.432.955 0 0 1 1.656.938 1.432.955 0 0 1-2.843 0 1.432.955 0 0 1 1.187-.938zm4.125.531a1.432.955 0 0 1 .031 0 1.432.955 0 0 1 1.688.97 1.438.958 0 0 1-2.875 0 1.432.955 0 0 1 1.156-.97zm4.375.813a1.432.955 0 0 1 .156 0 1.432.955 0 0 1 1.532.969 1.432.955 0 0 1-2.844 0 1.432.955 0 0 1 1.156-.969zm3.938.813a1.432.955 0 0 1 .187 0 1.432.955 0 0 1 1.531.968 1.438.958 0 0 1-2.875 0 1.432.955 0 0 1 1.157-.969zm-10.5.968a1.432.955 0 0 1 .031 0 1.432.955 0 0 1 1.688.969 1.438.958 0 0 1-2.875 0 1.432.955 0 0 1 1.156-.969zm4.125.688a1.432.955 0 0 1 1.687.937 1.438.958 0 0 1-2.875 0 1.432.955 0 0 1 1.188-.937zm8.656.344a1.432.955 0 0 1 1.688.937 1.438.958 0 0 1-2.875 0 1.432.955 0 0 1 1.187-.938zm-4.563.062a1.432.955 0 0 1 1.688.938 1.438.958 0 0 1-2.875 0 1.432.955 0 0 1 1.188-.938zm8.438.969c.127-.188 6.125 1.338 13.313 3.406l13.062 3.75-2.531 4.5c-1.393 2.466-3.151 5.774-3.906 7.344-1.534 3.187-2.078 3.242-9.938 1.437-8.692-1.996-22.432-3.892-36.406-5.031l-13.438-1.094 5.063-1.906c2.788-1.057 6.797-2.867 8.906-4.031 3.309-1.826 4.643-2.061 9.719-1.688 7.536.555 12.615-.835 14.5-3.969.787-1.309 1.529-2.53 1.656-2.718zm-14.75.937a1.432.955 0 0 1 .031 0 1.432.955 0 0 1 1.688.969 1.438.958 0 0 1-2.875 0 1.432.955 0 0 1 1.156-.969zm9.406 0a1.432.955 0 0 1 .031 0 1.432.955 0 0 1 1.688.969 1.438.958 0 0 1-2.875 0 1.432.955 0 0 1 1.156-.969zm-13.5.125a1.432.955 0 0 1 .188 0 1.432.955 0 0 1 1.531.969 1.438.958 0 0 1-2.875 0 1.432.955 0 0 1 1.156-.969zm8.906.156a1.432.955 0 0 1 1.688.938 1.438.958 0 0 1-2.875 0 1.432.955 0 0 1 1.188-.938zm-10.937 1.97a1.432.955 0 0 1 .031 0 1.432.955 0 0 1 1.656.968 1.432.955 0 0 1-2.843 0 1.432.955 0 0 1 1.156-.969zm4.094.062a1.432.955 0 0 1 .156 0 1.432.955 0 0 1 1.531.969 1.432.955 0 0 1-2.844 0 1.432.955 0 0 1 1.157-.97zm4.375.156a1.432.955 0 0 1 1.687.938 1.438.958 0 0 1-2.875 0 1.432.955 0 0 1 1.188-.938zm4.625.125a1.432.955 0 0 1 .031 0 1.432.955 0 0 1 1.656.969 1.432.955 0 0 1-2.844 0 1.432.955 0 0 1 1.157-.969zm-33.844 13.469c5.718-.183 25.682 1.265 35.156 2.687 8.339 1.252 22.945 3.963 23.438 4.344.123.095-1.129 4.092-2.813 8.875-1.684 4.783-3.22 9.248-3.406 9.906-.255.898-1.281 1.037-4.125.594-13.885-2.164-53.893-1.968-69.281.344-8.748 1.314-10.033 1.218-9.281-.625.344-.846 1.076-3.491 1.625-5.906l1-4.407 9.28-4.812c5.102-2.657 10.787-6.043 12.626-7.531 1.838-1.49 3.756-2.967 4.281-3.282.164-.098.683-.161 1.5-.187zm-44.938 23.719c.417 0 1.458.48 2.657 1.25 1.565 1.005 3.563 1.833 4.437 1.843 4.354.054 6.746 6.187 10.438 26.781.52 2.899 1.13 6.11 1.344 7.157.34 1.668-.138 2.042-3.875 2.875-4.725 1.053-5.875 1.13-5.875.5 0-1.769-4.698-22.869-6.75-30.313-1.398-5.07-2.563-9.535-2.563-9.937 0-.05.024-.102.063-.125a.216.216 0 0 1 .125-.031zm47.688 3.093h4.781l-1.594 1.813c-2.83 3.25-4.182 3.559-6.156 1.375-.993-1.1-1.812-2.263-1.812-2.594 0-.331 2.153-.594 4.781-.594zm10.125 0h9.062l-2 2.188c-2.45 2.71-2.612 2.71-5.062 0l-2-2.188zm13.688 0h2.093c1.14 0 3.231.235 4.656.531l2.594.532-2.406 2.094c-1.318 1.152-2.522 2.089-2.688 2.062-.165-.027-1.2-1.234-2.28-2.656l-1.97-2.563zm14.093.625l2.094.531c1.162.304 3.641.585 5.5.594h3.375l-2.531 2.156c-1.394 1.188-2.739 2.17-3 2.188-.262.017-1.604-1.2-2.969-2.719l-2.469-2.75zm-50.344.281c.243.007.395.018.438.063.171.179-.535 1.378-1.594 2.656l-1.937 2.313-2.438-2-2.437-2.031 4.062-.625c1.67-.26 3.178-.396 3.906-.375zm3.844.25c0-.083 1.215.976 2.688 2.344l2.687 2.5-4.969.281-4.968.282 2.281-2.625c1.255-1.447 2.28-2.698 2.281-2.781zm30.188 0c.356.024.7.228 1.125.594.736.635 1.7 1.896 2.156 2.781.714 1.388.498 1.576-1.531 1.5-1.295-.048-3.232-.34-4.313-.656l-1.969-.562 2.157-2.094c1.139-1.112 1.781-1.602 2.375-1.563zm-14 .032c.935-.13 1.662.568 2.656 2.125 1.217 1.905 1.174 1.933-3.313 1.906l-4.53-.031 2.405-2.188c1.192-1.089 2.055-1.712 2.782-1.812zm28.281.312l2.063 2.031c2.259 2.207 2.658 3.554 1 3.313-.581-.084-2.678-.284-4.657-.469l-3.594-.344 2.594-2.25 2.594-2.28zm-58.563 1.125c.391 0 1.599.955 2.657 2.125l1.906 2.125-4.094.563c-2.255.303-4.852.712-5.781.906-1.256.262-.876-.434 1.469-2.688 1.736-1.668 3.453-3.03 3.844-3.03zm-6.25.125c.279-.004.533.027.75.063 1.385.224 1.253.579-1 2.812l-2.593 2.563-.75-2.125c-.627-1.743-.444-2.24 1-2.813.724-.287 1.758-.486 2.594-.5zm76.594 2.938c.401-.025.486.3.25.937-.513 1.39-2 1.732-2 .469 0-.431.577-.981 1.25-1.25.205-.082.367-.148.5-.156zm-35.531 2.656c12.78 0 25.8.318 28.938.719 5.277.674 5.687.877 5.687 2.844 0 2.342-.713 2.454-7.594 1.218-2.09-.375-10.477-1.173-18.656-1.781-14.196-1.056-31.792-.485-47.469 1.531-3.236.416-4 .257-4-.812 0-2.265 16.945-3.719 43.094-3.719zm-17.188 4.813h9.032l-2 2.187c-2.45 2.71-2.613 2.71-5.063 0l-1.969-2.188zm11.594 0l2.375 2.343c1.306 1.3 2.375 2.505 2.375 2.656 0 .152-2.17.282-4.812.282h-4.813l2.438-2.656 2.437-2.625zm3.594 0h9.062l-2 2.187c-2.45 2.71-2.612 2.71-5.062 0l-2-2.188zm-21.375.125c.396.025.04.693-1.156 2.375-1.088 1.528-2.235 2.78-2.531 2.78-.297 0-1.41-1.01-2.5-2.218l-2-2.188h3.03c1.67 0 3.695-.272 4.5-.593.296-.118.525-.165.657-.156zm3.406.75l2.156 1.968c1.192 1.087 2.29 2.051 2.438 2.125.149.074-1.81.27-4.375.438l-4.688.312 2.25-2.437 2.22-2.406zm28.938 0l2.437 2.656c2.656 2.881 2.39 3.007-3.656 1.844l-2.844-.532 2.031-2 2.032-1.969zm3.406 0h3.938c4.267 0 4.817.67 2.406 2.937-1.983 1.865-1.993 1.85-4.344-.75l-2-2.188zm-51.031.906c1.92-.018 1.863.164-.625 2.594-1.908 1.862-2.138 1.903-2.656.5-.62-1.681.867-3.072 3.28-3.094zm64.656.25c.648-.006 1.981.142 3.469.406l3.625.625-2.094 2.031-2.063 2.031-1.812-2.375c-.992-1.31-1.683-2.498-1.531-2.656.038-.04.19-.06.406-.062zm-59.938.781c.513-.087.966.33 1.844 1.156 1.675 1.576 1.696 1.72.25 2.313-.843.345-2.679.653-4.062.687l-2.5.063 2.281-2.375c1.123-1.167 1.675-1.757 2.188-1.844zm56.813.469c.587-.033 1.053.47 1.875 1.625l1.531 2.125h-3.5c-2.28 0-3.37-.364-3.156-1.031.18-.563 1.065-1.514 1.969-2.125.534-.362.929-.575 1.281-.594zm10.688 2.25c.186.042.218.348.218.906 0 1.64-1.364 2.715-2.031 1.594-.26-.436.09-1.278.781-1.875.512-.441.845-.668 1.031-.625zm-43.22 2c14.451-.016 30.522.944 39.845 2.687l2.75.531v7.344c0 5.373-.262 7.339-1.032 7.25-.58-.066-4.3-.83-8.25-1.719-11.918-2.68-25.393-3.717-40.562-3.093-7.668.315-15.691.891-17.844 1.281l-3.938.719-.968-6.125c-.534-3.361-.836-6.221-.688-6.375.148-.154 3.853-.781 8.25-1.375 5.662-.765 13.767-1.116 22.438-1.125z"/><path d="M207.938 362.938c-4.941 0-8.47 3.645-8.47 8.78 0 8.002 8.996 11.876 14.438 6.22 5.443-5.657 1.73-15-5.969-15zm-.032 2.062c3.65-.144 6.781 2.696 6.781 6.813 0 4.817-5.575 8.177-9.875 5.937-4.597-2.395-4.256-10.095.532-12.156a7.138 7.138 0 0 1 2.562-.594z" id="a"/><use transform="translate(-33.441 -1)" width="1400" height="700" xlink:href="#a"/><path d="M146.688 242.125a2.871 2.94 0 0 0-2.657 2.938 2.875 2.943 0 1 0 5.75 0 2.871 2.94 0 0 0-3.094-2.938zm.187 1.031a1.933 1.905 0 0 1 1.875 1.906 1.938 1.91 0 1 1-3.875 0 1.933 1.905 0 0 1 2-1.906z"/></svg>