<svg xmlns="http://www.w3.org/2000/svg" xmlns:xlink="http://www.w3.org/1999/xlink" width="750" height="500" version="1"><defs><pattern id="d" patternTransform="translate(707.624 959.29)" height="14.723" width="26.98" patternUnits="userSpaceOnUse"><path style="marker:none" d="M0 0v1.035h12.947v6.25H0v1.031h6.477v6.407H7.54V8.316h11.939v6.407h1V8.316h6.501V0H0zm14.01 1.035h11.939v6.25h-11.94v-6.25z" stroke-linecap="round" stroke-linejoin="round" overflow="visible"/></pattern><pattern id="c" patternTransform="translate(628.167 698.237)" height="14.723" width="26.98" patternUnits="userSpaceOnUse"><path style="marker:none" d="M0 0v1.035h12.947v6.25H0v1.031h6.477v6.407H7.54V8.316h11.939v6.407h1V8.316h6.501V0H0zm14.01 1.035h11.939v6.25h-11.94v-6.25z" fill="#8f7500" stroke-linecap="round" stroke-linejoin="round" overflow="visible"/></pattern><linearGradient id="a"><stop offset="0" stop-color="#5d070b"/><stop offset=".5" stop-color="#ed1c24"/><stop offset="1" stop-color="#5d070a"/></linearGradient><linearGradient id="b"><stop offset="0" stop-color="#403800"/><stop offset=".5" stop-color="#c8af00"/><stop offset="1" stop-color="#403900"/></linearGradient><pattern patternTransform="matrix(1.1136 0 0 1.1136 1033.638 692.466)" id="e" xlink:href="#c"/><pattern patternTransform="translate(649.42 698.237)" id="f" xlink:href="#c"/><linearGradient id="g"><stop offset="0" stop-color="#776201"/><stop offset=".5" stop-color="#eac102"/><stop offset="1" stop-color="#776201"/></linearGradient></defs><g fill-rule="evenodd"><path d="M375 250L0 500V250h375z"/><path d="M0 500l375-250v250H0z" fill="#fff"/><path d="M0 0l375 250V0H0z"/><path d="M375 250L0 0v250h375z" fill="#fff"/><g><path d="M375 250L750 0v250H375z"/><path d="M750 0L375 250V0h375z" fill="#fff"/></g><g><path d="M750 500L375 250v250h375z"/><path d="M375 250l375 250V250H375z" fill="#fff"/></g></g><path class="fil3" d="M319.716 207.293c.392-.563 31.121-9.589 54.884-9.589 23.762 0 57.171 8.609 57.171 8.609l-.98 11.588c.196.98-31.942-6.782-55.705-6.782-23.762 0-56.205 7.567-56.205 7.567l.835-11.393z" font-size="12" fill="#eebf00" stroke="#87675c" stroke-width="1.32229744"/><path class="fil6" d="M368.263 204.48l6.808-3.95 6.808 3.95-6.808 4.08-6.808-4.08zM315.216 213.226l4.541-4.02 5.697 3.326-6.306 3.825-3.932-3.13z" font-size="12" fill="red" stroke="#87675d" stroke-width="1.44510427" stroke-linejoin="round"/><path class="fil6" d="M435.143 213.31l-3.69-4.034-5.95 1.707 5.063 3.837 4.577-1.51z" font-size="12" fill="red" stroke="#87675c" stroke-width="1.44510427" stroke-linejoin="round"/><path d="M378.815 180.333c.447-1.794.458-3.703 1.178-5.424.304-.69.659-1.355.996-2.026a6.672 6.672 0 0 1 1.904-1.64c1.062-.403 2.198-.52 3.315-.654.735.244 1.228.93 1.962 1.18.734.379 1.502.746 2.333.818.532.224 1.11.037 1.615-.168.676-.275 1.249-.76 1.772-1.264.266-.291.336-.694.532-1.03a8.19 8.19 0 0 0 .532-1.526c.08-.48.058-.973.025-1.455-.08-.4-.303-.787-.221-1.207.296-.35.836-.202 1.148-.528.704-.501 1.447-.977 2.02-1.64.242-.278.363-.636.624-.898.295-.388.542-.812.774-1.24.196-.405.284-.855.523-1.24.305-.567.578-1.184.559-1.847.053-.563.18-1.125.111-1.693.006-.632.062-1.285-.173-1.885a4.31 4.31 0 0 0-1.638-2.322c-.284-.2-.515-.614-.913-.535-.285.115-.506.351-.789.478-.84.428-1.682.852-2.52 1.287-.773.105-1.467-.376-2.042-.848-.586-.502-1.132-1.066-1.811-1.44-1.027-.638-2.054-1.34-3.24-1.623-.34-.083-.654-.262-1.01-.282-.191-.065-.676.044-.495-.288.137-.38.426-.675.676-.98.628-.578 1.514-.585 2.276-.849.462-.189.886-.467 1.302-.74a4.43 4.43 0 0 0 .902-1.429c.24-.68.496-1.43.254-2.15-.147-.577-.278-1.182-.656-1.654-1.013-1.361-2.2-2.647-3.704-3.436a8.703 8.703 0 0 0-1.9-.692c-.526-.108-1.063-.049-1.594-.022-.29.025-.53-.15-.7-.375-.805-.938-1.528-1.98-2.523-2.722-.63-.473-1.402-.674-2.148-.862-.796-.058-1.62.042-2.356.361-.376.151-.648.616-1.09.54-.457-.1-.752-.53-1.203-.653a5.416 5.416 0 0 0-1.748-.272c-.662.022-1.286.282-1.892.532-.728.309-1.26.922-1.79 1.494-.55.616-1.056 1.272-1.596 1.896-.859.131-1.766-.122-2.59.238-1.142.364-2.232.944-3.1 1.796-.872.795-1.667 1.696-2.272 2.72-.2.522-.299 1.078-.425 1.62-.04.628.244 1.206.397 1.8.336.569.639 1.233 1.261 1.527.502.305 1.025.626 1.621.67.734.139 1.53.424 1.929 1.119.137.204.57.654.168.792-.334-.024-.665.022-.963.192-.429.144-.882.213-1.298.402-1.033.44-1.953 1.103-2.906 1.693-.762.569-1.385 1.345-2.264 1.738a1.354 1.354 0 0 1-1.445-.026c-.726-.373-1.455-.74-2.18-1.112-.33-.245-.78-.632-1.182-.3-.294.228-.535.52-.844.73-.703.605-1.131 1.489-1.35 2.389-.124.651-.05 1.317-.07 1.975-.004.488.134.96.142 1.446.019.445.15.875.366 1.26.249.502.515 1.001.664 1.546.188.398.487.73.671 1.131.459.424.633 1.094 1.153 1.46.599.528 1.258.985 1.923 1.418.311.112.897.033.91.505-.085.398-.272.773-.291 1.188-.09.768.047 1.547.331 2.26.158.51.455.96.65 1.451.285.418.748.647 1.108.984.54.37 1.166.621 1.81.7.454-.032.899-.149 1.341-.243 1.061-.357 2.086-.86 2.962-1.575.303-.224.692-.346 1.06-.233 1 .162 2.04.229 2.971.667.535.322.993.759 1.449 1.184.516.559.76 1.301 1.109 1.968.352.734.622 1.513.744 2.323.3 1.36.377 2.77.777 4.107.209.505.55.955.97 1.292.368.172.762.283 1.13.453.564.156 1.147-.054 1.632-.345.265-.148.523.025.754.15.5.224 1.117.385 1.622.084.36-.205.834-.2 1.101-.562.394-.402.72-.897.87-1.448.01-.06.01-.12.003-.18z" font-size="12" fill="#eebf00" stroke="#87675d" stroke-width="1.44498184"/><path class="fil4" d="M375.732 148.082v4.607h-1.798v-4.607h1.798zm0 17.508v4.08h-1.798v-4.08h1.798z" font-size="12" fill="#87675d"/><path d="M330.34 195.472c3.058-.456 5.065-3.266 6.223-5.979.852-2.029 1.447-4.167 1.828-6.336.33-1.84 2.185-3.17 3.983-2.754 1.902.2 3.082 1.854 4.148 3.287 1.24 1.385 3.09 1.916 4.653 2.817 3.3 1.52 7.032 2.74 10.662 1.88 3.217-.908 5.96-3.944 6.099-7.43.06-1.213-.744-3.813-2.275-2.943-.851 1.19-1.113 2.896-2.522 3.621-1.953 1.253-4.672-.483-4.704-2.762.009-1.996 1.62-3.425 2.562-5.022 1.468-2.014 4.053-3.309 6.506-2.658 3.576.649 5.993 4.18 6.612 7.667.88 5.17-1.726 10.467-5.709 13.57-2.913 2.298-6.75 2.803-10.321 2.635-5.12-.277-9.94-2.46-14.23-5.212-1.488-.146-1.285 2.113-2.12 2.976-1.867 3.453-5.17 6.46-8.912 7.958-3.442 1.35-6.228 1.423-9.751.727-2.471-.585-4.949-1.21-7.351-2.05-2.766-1.096-5.51-2.642-7.358-5.067-1.805-2.934-2.616-6.42-2.886-9.846-.17-2.336.261-4.648.728-6.92.198-1.504-1.144-2.542-2.112-3.44-2.19-1.745-5.103-2.267-7.809-1.895-1.553.526-2.5-.937-3.485-1.896-1.185-.805-2.623-1.171-4.014-1.437-1.148-.164-2.326-.372-3.44-.033-1.8-.05-.909-1.988-.125-2.772 1.63-1.924 4.352-2.122 6.654-1.804 1.53.427 2.13-1.055 2.556-2.233 1.194-2.234 2.755-4.267 4.505-6.068 2.786-2.511 6.257-4.273 9.95-4.787.955.068 3.12-1.028 3.214.425-.837 1.477-1.684 2.957-2.514 4.448-.83 1.004-1.266 2.461.34 2.863 1.44.524 2.476 1.968 4.043 2.136 2.881-.174 5.778-.18 8.665-.287 1.138 3.135.157 6.748-1.9 9.242-1.434.717-.412 2.32.51 2.931.684.572 2.209 2.043.393 2.051-3.09.663-5.966 3.052-6.545 6.342-.55 2.877.29 5.854 1.886 8.237 1.405 2.148 3.568 3.68 5.81 4.787 2.395.906 5.013 1.236 7.553 1.03z" font-size="12" fill="#eebf00" stroke="#87675d" stroke-width="1.44498184"/><path class="fil6" d="M374.062 367.265c58.378 0 58.57-56.21 58.57-56.21v-89.25h-117.14v89.25s-.146 56.21 58.57 56.21z" font-size="12" fill="#e60000"/><path class="fil7" d="M374.19 341.99c31.795 0 32.112-35.41 32.112-35.41v-56.21h-64.223v56.21s.19 35.41 32.112 35.41z" font-size="12" fill="#fff"/><path d="M372.18 137.793s1.253 1.095 2.507 1.095c1.254 0 2.508-1.095 2.508-1.095s.418 7.314-2.508 7.314c-2.806 0-2.508-7.314-2.508-7.314z" font-size="12" fill="none" stroke="#87675d" stroke-width="1.44498184"/><path d="M419.66 195.472c-3.058-.456-5.065-3.266-6.223-5.979-.852-2.029-1.447-4.167-1.828-6.336-.33-1.84-2.185-3.17-3.983-2.754-1.902.2-3.082 1.854-4.148 3.287-1.24 1.385-3.09 1.916-4.653 2.817-3.3 1.52-7.032 2.74-10.662 1.88-3.217-.908-5.96-3.944-6.099-7.43-.06-1.213.744-3.813 2.275-2.943.851 1.19 1.113 2.896 2.522 3.621 1.953 1.253 4.672-.483 4.704-2.762-.01-1.996-1.62-3.425-2.562-5.022-1.468-2.014-4.053-3.309-6.506-2.658-3.576.649-5.993 4.18-6.612 7.667-.88 5.17 1.726 10.467 5.709 13.57 2.913 2.298 6.75 2.803 10.321 2.635 5.12-.277 9.94-2.46 14.23-5.212 1.488-.146 1.285 2.113 2.12 2.976 1.867 3.453 4.779 6.46 8.52 7.958 3.638.958 6.62 1.423 10.143.727 2.471-.585 4.948-1.21 7.351-2.05 2.766-1.096 5.51-2.642 7.358-5.067 1.805-2.934 2.616-6.42 2.886-9.846.17-2.336-.261-4.648-.728-6.92-.198-1.504 1.144-2.542 2.112-3.44 2.19-1.745 5.103-2.267 7.809-1.895 1.553.526 2.5-.937 3.485-1.896 1.185-.805 2.623-1.171 4.014-1.437 1.148-.164 2.326-.372 3.44-.033 1.8-.05.909-1.988.125-2.772-1.63-1.924-4.352-2.122-6.654-1.804-1.53.427-2.13-1.055-2.555-2.233-1.195-2.234-2.756-4.267-4.506-6.068-2.786-2.511-6.257-4.273-9.95-4.787-.955.068-3.12-1.028-3.214.425.837 1.477 1.684 2.957 2.514 4.448.83 1.004 1.266 2.461-.34 2.863-1.44.524-2.476 1.968-4.043 2.136-2.881-.174-5.778-.18-8.665-.287-1.138 3.135-.157 6.748 1.9 9.242 1.434.717.412 2.32-.51 2.931-.684.572-2.209 2.043-.393 2.051 3.09.663 5.966 3.052 6.545 6.342.55 2.877-.29 5.854-1.886 8.237-1.405 2.148-3.568 3.68-5.81 4.787-2.395.906-5.013 1.236-7.553 1.03z" font-size="12" fill="#eebf00" stroke="#87675d" stroke-width="1.44498184"/><path d="M741.832 1113.223a62.475 36.827 0 1 1-124.95 0 62.475 36.827 0 1 1 124.95 0z" transform="matrix(.06868 -.07573 .07121 .07304 322.515 147.04)" font-size="12" fill="#004c7f" fill-rule="evenodd" stroke="#87675d" stroke-width="14.163" stroke-linecap="square" stroke-linejoin="bevel" stroke-dashoffset="1"/><path d="M439.101 164.849c1.364 2.252 3.1 4.266 2.413 7.832M443.726 159.697c3.135 2.335 4.19 4.671 5.229 7.007" font-size="12" fill="none" stroke="#87675d" stroke-width="1.44498184" stroke-linecap="square"/><path transform="matrix(.12845 0 0 .13164 374.704 43.693)" d="M335.21 907.003a34.805 51.837 0 1 1-69.61 0 34.805 51.837 0 1 1 69.61 0z" font-size="12" fill="#dfdbd7" fill-rule="evenodd" stroke="#876666" stroke-width="11.113" stroke-linecap="square" stroke-linejoin="bevel" stroke-dashoffset="1"/><path d="M335.21 907.003a34.805 51.837 0 1 1-69.61 0 34.805 51.837 0 1 1 69.61 0z" transform="matrix(.11067 .06682 -.0652 .11342 442.416 52.428)" font-size="12" fill="#dfdbd7" fill-rule="evenodd" stroke="#87665c" stroke-width="11.137" stroke-linecap="square" stroke-linejoin="bevel" stroke-dashoffset="1"/><path transform="matrix(.12843 -.00226 .0022 .13162 365.668 54.139)" d="M335.21 907.003a34.805 51.837 0 1 1-69.61 0 34.805 51.837 0 1 1 69.61 0z" font-size="12" fill="#dfdbd7" fill-rule="evenodd" stroke="#87665c" stroke-width="11.113" stroke-linecap="square" stroke-linejoin="bevel" stroke-dashoffset="1"/><path transform="matrix(-.06868 -.07573 -.07121 .07304 427.485 147.04)" d="M741.832 1113.223a62.475 36.827 0 1 1-124.95 0 62.475 36.827 0 1 1 124.95 0z" font-size="12" fill="#004c7f" fill-rule="evenodd" stroke="#87675d" stroke-width="14.163" stroke-linecap="square" stroke-linejoin="bevel" stroke-dashoffset="1"/><path d="M310.899 164.849c-1.364 2.252-3.1 4.266-2.413 7.832M306.274 159.697c-3.135 2.335-4.19 4.671-5.229 7.007" font-size="12" fill="none" stroke="#87675d" stroke-width="1.44498184" stroke-linecap="square"/><path d="M335.21 907.003a34.805 51.837 0 1 1-69.61 0 34.805 51.837 0 1 1 69.61 0z" transform="matrix(-.12845 0 0 .13164 375.296 43.693)" font-size="12" fill="#dfdbd7" fill-rule="evenodd" stroke="#87665c" stroke-width="11.113" stroke-linecap="square" stroke-linejoin="bevel" stroke-dashoffset="1"/><path transform="matrix(-.11067 .06682 .0652 .11342 307.584 52.428)" d="M335.21 907.003a34.805 51.837 0 1 1-69.61 0 34.805 51.837 0 1 1 69.61 0z" font-size="12" fill="#dfdbd7" fill-rule="evenodd" stroke="#87665c" stroke-width="11.113" stroke-linecap="square" stroke-linejoin="bevel" stroke-dashoffset="1"/><path d="M335.21 907.003a34.805 51.837 0 1 1-69.61 0 34.805 51.837 0 1 1 69.61 0z" transform="matrix(-.12843 -.00226 -.0022 .13162 384.332 54.139)" font-size="12" fill="#dfdbd7" fill-rule="evenodd" stroke="#87665c" stroke-width="11.113" stroke-linecap="square" stroke-linejoin="bevel" stroke-dashoffset="1"/><path d="M364.35 153.719c5.556 0 10.265 5.33 10.354 5.42.09.092 10.355 6.49 10.355 11.613" font-size="12" fill="none" stroke="#87675d" stroke-width="1.44498184" stroke-linecap="square"/><path d="M385.059 153.719c-5.557 0-10.265 5.33-10.355 5.42-.089.092-10.354 6.49-10.354 11.613" font-size="12" fill="none" stroke="#87675d" stroke-width="1.44498184" stroke-linecap="square"/><path d="M26.829 874.753a26.963 48.347 0 1 1-53.926 0 26.963 48.347 0 1 1 53.926 0z" transform="matrix(.12845 0 0 .13164 374.722 43.989)" font-size="12" fill="#004c7f" fill-rule="evenodd" stroke="#87675d" stroke-width="11.113" stroke-linecap="square" stroke-linejoin="bevel" stroke-dashoffset="1"/><path transform="matrix(-.02116 -.12984 .12669 -.02168 237.7 225.964)" d="M26.829 874.753a26.963 48.347 0 1 1-.096-4.063" font-size="12" fill="#004c7f" fill-rule="evenodd" stroke="#87675d" stroke-width="11.113" stroke-linecap="square" stroke-linejoin="bevel" stroke-dashoffset="1"/><path d="M26.829 874.753a26.963 48.347 0 1 1-53.926 0 26.963 48.347 0 1 1 53.926 0z" transform="matrix(.02116 -.12984 -.12669 -.02168 515.725 226.577)" font-size="12" fill="#004c7f" fill-rule="evenodd" stroke="#87675d" stroke-width="11.113" stroke-linecap="square" stroke-linejoin="bevel" stroke-dashoffset="1"/><path d="M355.271 165.567s4.423-5.887 9.605-5.887M394.137 165.567s-4.422-5.887-9.604-5.887" font-size="12" fill="none" stroke="#87675d" stroke-width="1.44498184" stroke-linecap="square"/><path class="fil11" d="M374.512 279.988c7.967 0 7.385-8.161 7.385-8.161v-13.032h-14.77v13.032s-.617 8.161 7.385 8.161z" font-size="12" fill="#004c7f" stroke="#000" stroke-width=".36124546"/><g font-size="12" fill="#fff" fill-rule="evenodd" stroke="#000" stroke-width="2.377" stroke-linecap="square" stroke-linejoin="bevel" stroke-dashoffset="1"><path d="M10.392 1722.749a11.808 11.808 0 1 1-23.617 0 11.808 11.808 0 1 1 23.617 0z" transform="matrix(.15011 0 0 .15384 371.192 -.734)"/><path transform="matrix(.15011 0 0 .15384 378.182 8.775)" d="M10.392 1722.749a11.808 11.808 0 1 1-23.617 0 11.808 11.808 0 1 1 23.617 0z"/><path transform="matrix(.15011 0 0 .15384 374.687 4.02)" d="M10.392 1722.749a11.808 11.808 0 1 1-23.617 0 11.808 11.808 0 1 1 23.617 0z"/><path transform="matrix(.15011 0 0 .15384 371.192 8.775)" d="M10.392 1722.749a11.808 11.808 0 1 1-23.617 0 11.808 11.808 0 1 1 23.617 0z"/><path transform="matrix(.15011 0 0 .15384 378.182 -.734)" d="M10.392 1722.749a11.808 11.808 0 1 1-23.617 0 11.808 11.808 0 1 1 23.617 0z"/></g><path d="M374.512 334.116c7.967 0 7.385-8.162 7.385-8.162v-13.032h-14.771v13.032s-.616 8.162 7.386 8.162zM374.512 307.052c7.967 0 7.385-8.161 7.385-8.161v-13.033h-14.771v13.033s-.616 8.161 7.386 8.161zM355.242 307.052c7.967 0 7.385-8.161 7.385-8.161v-13.033h-14.77v13.033s-.617 8.161 7.385 8.161zM393.781 307.052c7.968 0 7.386-8.161 7.386-8.161v-13.033h-14.771v13.033s-.616 8.161 7.385 8.161z" class="fil11" font-size="12" fill="#004c7f" stroke="#000" stroke-width=".3610935"/><g font-size="12" fill="#fff" fill-rule="evenodd" stroke="#000" stroke-width="2.377" stroke-linecap="square" stroke-linejoin="bevel" stroke-dashoffset="1"><path transform="matrix(.15011 0 0 .15384 371.192 26.67)" d="M10.392 1722.749a11.808 11.808 0 1 1-23.617 0 11.808 11.808 0 1 1 23.617 0z"/><path d="M10.392 1722.749a11.808 11.808 0 1 1-23.617 0 11.808 11.808 0 1 1 23.617 0z" transform="matrix(.15011 0 0 .15384 378.182 36.178)"/><path d="M10.392 1722.749a11.808 11.808 0 1 1-23.617 0 11.808 11.808 0 1 1 23.617 0z" transform="matrix(.15011 0 0 .15384 374.687 31.424)"/><path d="M10.392 1722.749a11.808 11.808 0 1 1-23.617 0 11.808 11.808 0 1 1 23.617 0z" transform="matrix(.15011 0 0 .15384 371.192 36.178)"/><path d="M10.392 1722.749a11.808 11.808 0 1 1-23.617 0 11.808 11.808 0 1 1 23.617 0z" transform="matrix(.15011 0 0 .15384 378.182 26.67)"/></g><g font-size="12" fill="#fff" fill-rule="evenodd" stroke="#000" stroke-width="2.377" stroke-linecap="square" stroke-linejoin="bevel" stroke-dashoffset="1"><path d="M10.392 1722.749a11.808 11.808 0 1 1-23.617 0 11.808 11.808 0 1 1 23.617 0z" transform="matrix(.15011 0 0 .15384 371.192 53.733)"/><path transform="matrix(.15011 0 0 .15384 378.182 63.242)" d="M10.392 1722.749a11.808 11.808 0 1 1-23.617 0 11.808 11.808 0 1 1 23.617 0z"/><path transform="matrix(.15011 0 0 .15384 374.687 58.487)" d="M10.392 1722.749a11.808 11.808 0 1 1-23.617 0 11.808 11.808 0 1 1 23.617 0z"/><path transform="matrix(.15011 0 0 .15384 371.192 63.242)" d="M10.392 1722.749a11.808 11.808 0 1 1-23.617 0 11.808 11.808 0 1 1 23.617 0z"/><path transform="matrix(.15011 0 0 .15384 378.182 53.733)" d="M10.392 1722.749a11.808 11.808 0 1 1-23.617 0 11.808 11.808 0 1 1 23.617 0z"/></g><g font-size="12" fill="#fff" fill-rule="evenodd" stroke="#000" stroke-width="2.377" stroke-linecap="square" stroke-linejoin="bevel" stroke-dashoffset="1"><path d="M10.392 1722.749a11.808 11.808 0 1 1-23.617 0 11.808 11.808 0 1 1 23.617 0z" transform="matrix(.15011 0 0 .15384 351.959 26.67)"/><path transform="matrix(.15011 0 0 .15384 358.948 36.178)" d="M10.392 1722.749a11.808 11.808 0 1 1-23.617 0 11.808 11.808 0 1 1 23.617 0z"/><path transform="matrix(.15011 0 0 .15384 355.454 31.424)" d="M10.392 1722.749a11.808 11.808 0 1 1-23.617 0 11.808 11.808 0 1 1 23.617 0z"/><path transform="matrix(.15011 0 0 .15384 351.959 36.178)" d="M10.392 1722.749a11.808 11.808 0 1 1-23.617 0 11.808 11.808 0 1 1 23.617 0z"/><path transform="matrix(.15011 0 0 .15384 358.948 26.67)" d="M10.392 1722.749a11.808 11.808 0 1 1-23.617 0 11.808 11.808 0 1 1 23.617 0z"/></g><g font-size="12" fill="#fff" fill-rule="evenodd" stroke="#000" stroke-width="2.377" stroke-linecap="square" stroke-linejoin="bevel" stroke-dashoffset="1"><path d="M10.392 1722.749a11.808 11.808 0 1 1-23.617 0 11.808 11.808 0 1 1 23.617 0z" transform="matrix(.15011 0 0 .15384 390.499 26.67)"/><path transform="matrix(.15011 0 0 .15384 397.488 36.178)" d="M10.392 1722.749a11.808 11.808 0 1 1-23.617 0 11.808 11.808 0 1 1 23.617 0z"/><path transform="matrix(.15011 0 0 .15384 393.993 31.424)" d="M10.392 1722.749a11.808 11.808 0 1 1-23.617 0 11.808 11.808 0 1 1 23.617 0z"/><path transform="matrix(.15011 0 0 .15384 390.499 36.178)" d="M10.392 1722.749a11.808 11.808 0 1 1-23.617 0 11.808 11.808 0 1 1 23.617 0z"/><path transform="matrix(.15011 0 0 .15384 397.488 26.67)" d="M10.392 1722.749a11.808 11.808 0 1 1-23.617 0 11.808 11.808 0 1 1 23.617 0z"/></g><path font-size="12" fill="#eebf00" d="M321.603 230.595h3.87v6.358h-3.87v-6.358z"/><path font-size="12" fill="none" stroke="#fff" d="M321.603 230.595h3.87v6.358h-3.87v-6.358z" stroke-width=".27645"/><path font-size="12" fill="none" stroke="#000" d="M321.603 230.595h3.87v6.358h-3.87v-6.358z" stroke-width=".27645"/><path font-size="12" fill="#eebf00" d="M327.685 229.212h3.87v7.465h-3.87v-7.465z"/><path font-size="12" fill="none" stroke="#fff" d="M327.685 229.212h3.87v7.465h-3.87v-7.465z" stroke-width=".27645"/><path font-size="12" fill="none" stroke="#000" d="M327.685 229.212h3.87v7.465h-3.87v-7.465z" stroke-width=".27645"/><path font-size="12" fill="#eebf00" d="M333.767 230.595h3.87v6.082h-3.87v-6.082z"/><path font-size="12" fill="none" stroke="#fff" d="M333.767 230.595h3.87v6.082h-3.87v-6.082z" stroke-width=".27645"/><path font-size="12" fill="none" stroke="#000" d="M333.767 230.595h3.87v6.082h-3.87v-6.082z" stroke-width=".27645"/><path font-size="12" fill="#004c7f" d="M331.279 228.107h1.106v1.105h-5.53v-1.105h1.106v.553h1.106v-.553h1.106v.553h1.106v-.553z"/><path font-size="12" fill="none" stroke="#fff" d="M331.279 228.107h1.106v1.105h-5.53v-1.105h1.106v.553h1.106v-.553h1.106v.553h1.106v-.553z" stroke-width=".27645"/><path font-size="12" fill="none" stroke="#000" d="M331.279 228.107h1.106v1.105h-5.53v-1.105h1.106v.553h1.106v-.553h1.106v.553h1.106v-.553z" stroke-width=".27645"/><path font-size="12" fill="#eebf00" d="M320.774 243.864l.553-7.464.276.277h16.034l.277-.277.552 7.464h-17.692z"/><path font-size="12" fill="none" stroke="#fff" d="M320.774 243.864l.553-7.464.276.277h16.034l.277-.277.552 7.464h-17.692z" stroke-width=".27645"/><path font-size="12" fill="none" stroke="#000" d="M320.774 243.864l.553-7.464.276.277h16.034l.277-.277.552 7.464h-17.692z" stroke-width=".27645"/><path font-size="12" fill="#004c7f" d="M337.36 229.489h1.106v1.106h-5.529v-1.106h1.106v.553h1.106v-.553h1.106v.553h1.106v-.553z"/><path font-size="12" fill="none" stroke="#fff" d="M337.36 229.489h1.106v1.106h-5.529v-1.106h1.106v.553h1.106v-.553h1.106v.553h1.106v-.553z" stroke-width=".27645"/><path font-size="12" fill="none" stroke="#000" d="M337.36 229.489h1.106v1.106h-5.529v-1.106h1.106v.553h1.106v-.553h1.106v.553h1.106v-.553z" stroke-width=".27645"/><path font-size="12" fill="#004c7f" d="M324.091 238.888v.83h-.83v-.83h.83z"/><path font-size="12" fill="none" stroke="#fff" d="M324.091 238.888v.83h-.83v-.83h.83z" stroke-width=".27645"/><path font-size="12" fill="none" stroke="#000" d="M324.091 238.888v.83h-.83v-.83h.83z" stroke-width=".27645"/><path font-size="12" fill="#004c7f" d="M329.344 230.871h.553v-.553h-.553v.553z"/><path font-size="12" fill="none" stroke="#fff" d="M329.344 230.871h.553v-.553h-.553v.553z" stroke-width=".27645"/><path font-size="12" fill="none" stroke="#000" d="M329.344 230.871h.553v-.553h-.553v.553z" stroke-width=".27645"/><path font-size="12" fill="#004c7f" d="M323.262 232.253h.553v-.553h-.553v.553z"/><path font-size="12" fill="none" stroke="#fff" d="M323.262 232.253h.553v-.553h-.553v.553z" stroke-width=".27645"/><path font-size="12" fill="none" stroke="#000" d="M323.262 232.253h.553v-.553h-.553v.553z" stroke-width=".27645"/><path font-size="12" fill="#004c7f" d="M335.425 232.253h.553v-.553h-.553v.553z"/><path font-size="12" fill="none" stroke="#fff" d="M335.425 232.253h.553v-.553h-.553v.553z" stroke-width=".27645"/><path font-size="12" fill="none" stroke="#000" d="M335.425 232.253h.553v-.553h-.553v.553z" stroke-width=".27645"/><path font-size="12" fill="#eebf00" d="M337.084 236.677h-1.935v-.83h-1.382v.83h-1.935v-.83h-1.383v.83h-1.935v-.83h-1.382v.83h-1.935v-.83h-1.382v.83h-1.935v-.83h-1.106v1.659h17.692v-1.659h-1.382v.83z"/><path font-size="12" fill="none" stroke="#fff" d="M337.084 236.677h-1.935v-.83h-1.382v.83h-1.935v-.83h-1.383v.83h-1.935v-.83h-1.382v.83h-1.935v-.83h-1.382v.83h-1.935v-.83h-1.106v1.659h17.692v-1.659h-1.382v.83z" stroke-width=".27645"/><path font-size="12" fill="none" stroke="#000" d="M337.084 236.677h-1.935v-.83h-1.382v.83h-1.935v-.83h-1.383v.83h-1.935v-.83h-1.382v.83h-1.935v-.83h-1.382v.83h-1.935v-.83h-1.106v1.659h17.692v-1.659h-1.382v.83z" stroke-width=".27645"/><path font-size="12" fill="#004c7f" d="M325.197 229.489h1.106v1.106h-5.53v-1.106h1.107v.553h1.105v-.553h1.106v.553h1.106v-.553z"/><path font-size="12" fill="none" stroke="#fff" d="M325.197 229.489h1.106v1.106h-5.53v-1.106h1.107v.553h1.105v-.553h1.106v.553h1.106v-.553z" stroke-width=".27645"/><path font-size="12" fill="none" stroke="#000" d="M325.197 229.489h1.106v1.106h-5.53v-1.106h1.107v.553h1.105v-.553h1.106v.553h1.106v-.553z" stroke-width=".27645"/><path font-size="12" fill="#004c7f" d="M336.255 238.888v.83h-.83v-.83h.83z"/><path font-size="12" fill="none" stroke="#fff" d="M336.255 238.888v.83h-.83v-.83h.83z" stroke-width=".27645"/><path font-size="12" fill="none" stroke="#000" d="M336.255 238.888v.83h-.83v-.83h.83z" stroke-width=".27645"/><path d="M329.62 243.588c.277 0 1.382-.553 1.106-.553-.277 0-.265-.59-.27-1.124-.007-.535-.007 1.124-.007-1.364 0-2.488-1.658-2.488-1.658 0v1.382c0 .553 0 1.106-.277 1.106-.276 0 .83.553 1.106.553z" font-size="12" fill="#004c7f"/><path d="M329.62 243.588c.277 0 1.382-.553 1.106-.553-.277 0-.265-.59-.27-1.124-.007-.535-.007 1.124-.007-1.364 0-2.488-1.658-2.488-1.658 0v1.382c0 .553 0 1.106-.277 1.106-.276 0 .83.553 1.106.553" font-size="12" fill="none" stroke="#000" stroke-width=".27645"/><path font-size="12" fill="#eebf00" d="M339.02 243.035v1.382H320.22v-1.382h18.798z"/><path font-size="12" fill="none" stroke="#fff" d="M339.02 243.035v1.382H320.22v-1.382h18.798z" stroke-width=".27645"/><path font-size="12" fill="none" stroke="#000" d="M339.02 243.035v1.382H320.22v-1.382h18.798z" stroke-width=".27645"/><path font-size="12" fill="#eebf00" d="M321.603 279.186h3.87v6.358h-3.87v-6.358z"/><path font-size="12" fill="none" stroke="#fff" d="M321.603 279.186h3.87v6.358h-3.87v-6.358z" stroke-width=".27645"/><path font-size="12" fill="none" stroke="#000" d="M321.603 279.186h3.87v6.358h-3.87v-6.358z" stroke-width=".27645"/><path font-size="12" fill="#eebf00" d="M327.685 277.804h3.87v7.464h-3.87v-7.464z"/><path font-size="12" fill="none" stroke="#fff" d="M327.685 277.804h3.87v7.464h-3.87v-7.464z" stroke-width=".27645"/><path font-size="12" fill="none" stroke="#000" d="M327.685 277.804h3.87v7.464h-3.87v-7.464z" stroke-width=".27645"/><path font-size="12" fill="#eebf00" d="M333.767 279.186h3.87v6.082h-3.87v-6.082z"/><path font-size="12" fill="none" stroke="#fff" d="M333.767 279.186h3.87v6.082h-3.87v-6.082z" stroke-width=".27645"/><path font-size="12" fill="none" stroke="#000" d="M333.767 279.186h3.87v6.082h-3.87v-6.082z" stroke-width=".27645"/><path font-size="12" fill="#004c7f" d="M331.279 276.698h1.106v1.106h-5.53v-1.106h1.106v.553h1.106v-.553h1.106v.553h1.106v-.553z"/><path font-size="12" fill="none" stroke="#fff" d="M331.279 276.698h1.106v1.106h-5.53v-1.106h1.106v.553h1.106v-.553h1.106v.553h1.106v-.553z" stroke-width=".27645"/><path font-size="12" fill="none" stroke="#000" d="M331.279 276.698h1.106v1.106h-5.53v-1.106h1.106v.553h1.106v-.553h1.106v.553h1.106v-.553z" stroke-width=".27645"/><path font-size="12" fill="#eebf00" d="M320.774 292.455l.553-7.464.276.277h16.034l.277-.277.552 7.464h-17.692z"/><path font-size="12" fill="none" stroke="#fff" d="M320.774 292.455l.553-7.464.276.277h16.034l.277-.277.552 7.464h-17.692z" stroke-width=".27645"/><path font-size="12" fill="none" stroke="#000" d="M320.774 292.455l.553-7.464.276.277h16.034l.277-.277.552 7.464h-17.692z" stroke-width=".27645"/><path font-size="12" fill="#004c7f" d="M337.36 278.08h1.106v1.106h-5.529v-1.106h1.106v.553h1.106v-.553h1.106v.553h1.106v-.553z"/><path font-size="12" fill="none" stroke="#fff" d="M337.36 278.08h1.106v1.106h-5.529v-1.106h1.106v.553h1.106v-.553h1.106v.553h1.106v-.553z" stroke-width=".27645"/><path font-size="12" fill="none" stroke="#000" d="M337.36 278.08h1.106v1.106h-5.529v-1.106h1.106v.553h1.106v-.553h1.106v.553h1.106v-.553z" stroke-width=".27645"/><path font-size="12" fill="#004c7f" d="M324.091 287.48v.829h-.83v-.83h.83z"/><path font-size="12" fill="none" stroke="#fff" d="M324.091 287.48v.829h-.83v-.83h.83z" stroke-width=".27645"/><path font-size="12" fill="none" stroke="#000" d="M324.091 287.48v.829h-.83v-.83h.83z" stroke-width=".27645"/><path font-size="12" fill="#004c7f" d="M329.344 279.462h.553v-.553h-.553v.553z"/><path font-size="12" fill="none" stroke="#fff" d="M329.344 279.462h.553v-.553h-.553v.553z" stroke-width=".27645"/><path font-size="12" fill="none" stroke="#000" d="M329.344 279.462h.553v-.553h-.553v.553z" stroke-width=".27645"/><path font-size="12" fill="#004c7f" d="M323.262 280.844h.553v-.552h-.553v.552z"/><path font-size="12" fill="none" stroke="#fff" d="M323.262 280.844h.553v-.552h-.553v.552z" stroke-width=".27645"/><path font-size="12" fill="none" stroke="#000" d="M323.262 280.844h.553v-.552h-.553v.552z" stroke-width=".27645"/><path font-size="12" fill="#004c7f" d="M335.425 280.844h.553v-.552h-.553v.552z"/><path font-size="12" fill="none" stroke="#fff" d="M335.425 280.844h.553v-.552h-.553v.552z" stroke-width=".27645"/><path font-size="12" fill="none" stroke="#000" d="M335.425 280.844h.553v-.552h-.553v.552z" stroke-width=".27645"/><path font-size="12" fill="#eebf00" d="M337.084 285.268h-1.935v-.83h-1.382v.83h-1.935v-.83h-1.383v.83h-1.935v-.83h-1.382v.83h-1.935v-.83h-1.382v.83h-1.935v-.83h-1.106v1.659h17.692v-1.659h-1.382v.83z"/><path font-size="12" fill="none" stroke="#fff" d="M337.084 285.268h-1.935v-.83h-1.382v.83h-1.935v-.83h-1.383v.83h-1.935v-.83h-1.382v.83h-1.935v-.83h-1.382v.83h-1.935v-.83h-1.106v1.659h17.692v-1.659h-1.382v.83z" stroke-width=".27645"/><path font-size="12" fill="none" stroke="#000" d="M337.084 285.268h-1.935v-.83h-1.382v.83h-1.935v-.83h-1.383v.83h-1.935v-.83h-1.382v.83h-1.935v-.83h-1.382v.83h-1.935v-.83h-1.106v1.659h17.692v-1.659h-1.382v.83z" stroke-width=".27645"/><path font-size="12" fill="#004c7f" d="M325.197 278.08h1.106v1.106h-5.53v-1.106h1.107v.553h1.105v-.553h1.106v.553h1.106v-.553z"/><path font-size="12" fill="none" stroke="#fff" d="M325.197 278.08h1.106v1.106h-5.53v-1.106h1.107v.553h1.105v-.553h1.106v.553h1.106v-.553z" stroke-width=".27645"/><path font-size="12" fill="none" stroke="#000" d="M325.197 278.08h1.106v1.106h-5.53v-1.106h1.107v.553h1.105v-.553h1.106v.553h1.106v-.553z" stroke-width=".27645"/><path font-size="12" fill="#004c7f" d="M336.255 287.48v.829h-.83v-.83h.83z"/><path font-size="12" fill="none" stroke="#fff" d="M336.255 287.48v.829h-.83v-.83h.83z" stroke-width=".27645"/><path font-size="12" fill="none" stroke="#000" d="M336.255 287.48v.829h-.83v-.83h.83z" stroke-width=".27645"/><path d="M329.62 292.179c.277 0 1.382-.553 1.106-.553-.277 0-.265-.59-.27-1.124-.007-.535-.007 1.124-.007-1.364 0-2.488-1.658-2.488-1.658 0v1.382c0 .553 0 1.106-.277 1.106-.276 0 .83.553 1.106.553z" font-size="12" fill="#004c7f"/><path d="M329.62 292.179c.277 0 1.382-.553 1.106-.553-.277 0-.265-.59-.27-1.124-.007-.535-.007 1.124-.007-1.364 0-2.488-1.658-2.488-1.658 0v1.382c0 .553 0 1.106-.277 1.106-.276 0 .83.553 1.106.553" font-size="12" fill="none" stroke="#000" stroke-width=".27645"/><path font-size="12" fill="#eebf00" d="M339.02 291.626v1.382H320.22v-1.382h18.798z"/><path font-size="12" fill="none" stroke="#fff" d="M339.02 291.626v1.382H320.22v-1.382h18.798z" stroke-width=".27645"/><path font-size="12" fill="none" stroke="#000" d="M339.02 291.626v1.382H320.22v-1.382h18.798z" stroke-width=".27645"/><path font-size="12" fill="#eebf00" d="M411.964 230.6h3.87v6.358h-3.87V230.6z"/><path font-size="12" fill="none" stroke="#fff" d="M411.964 230.6h3.87v6.358h-3.87V230.6z" stroke-width=".27645"/><path font-size="12" fill="none" stroke="#000" d="M411.964 230.6h3.87v6.358h-3.87V230.6z" stroke-width=".27645"/><path font-size="12" fill="#ffbf00" d="M418.046 229.217h3.87v7.464h-3.87v-7.464z"/><path font-size="12" fill="none" stroke="#fff" d="M418.046 229.217h3.87v7.464h-3.87v-7.464z" stroke-width=".27645"/><path font-size="12" fill="none" stroke="#000" d="M418.046 229.217h3.87v7.464h-3.87v-7.464z" stroke-width=".27645"/><path font-size="12" fill="#eebf00" d="M424.128 230.6h3.87v6.081h-3.87V230.6z"/><path font-size="12" fill="none" stroke="#fff" d="M424.128 230.6h3.87v6.081h-3.87V230.6z" stroke-width=".27645"/><path font-size="12" fill="none" stroke="#000" d="M424.128 230.6h3.87v6.081h-3.87V230.6z" stroke-width=".27645"/><path font-size="12" fill="#004c7f" d="M421.64 228.112h1.106v1.105h-5.53v-1.105h1.106v.552h1.106v-.552h1.106v.552h1.106v-.552z"/><path font-size="12" fill="none" stroke="#fff" d="M421.64 228.112h1.106v1.105h-5.53v-1.105h1.106v.552h1.106v-.552h1.106v.552h1.106v-.552z" stroke-width=".27645"/><path font-size="12" fill="none" stroke="#000" d="M421.64 228.112h1.106v1.105h-5.53v-1.105h1.106v.552h1.106v-.552h1.106v.552h1.106v-.552z" stroke-width=".27645"/><path font-size="12" fill="#eebf00" d="M411.135 243.869l.553-7.464.276.276h16.034l.276-.276.553 7.464h-17.692z"/><path font-size="12" fill="none" stroke="#fff" d="M411.135 243.869l.553-7.464.276.276h16.034l.276-.276.553 7.464h-17.692z" stroke-width=".27645"/><path font-size="12" fill="none" stroke="#000" d="M411.135 243.869l.553-7.464.276.276h16.034l.276-.276.553 7.464h-17.692z" stroke-width=".27645"/><path font-size="12" fill="#004c7f" d="M427.722 229.494h1.105v1.106h-5.529v-1.106h1.106v.553h1.106v-.553h1.106v.553h1.106v-.553z"/><path font-size="12" fill="none" stroke="#fff" d="M427.722 229.494h1.105v1.106h-5.529v-1.106h1.106v.553h1.106v-.553h1.106v.553h1.106v-.553z" stroke-width=".27645"/><path font-size="12" fill="none" stroke="#000" d="M427.722 229.494h1.105v1.106h-5.529v-1.106h1.106v.553h1.106v-.553h1.106v.553h1.106v-.553z" stroke-width=".27645"/><path font-size="12" fill="#004c7f" d="M414.452 238.893v.83h-.83v-.83h.83z"/><path font-size="12" fill="none" stroke="#fff" d="M414.452 238.893v.83h-.83v-.83h.83z" stroke-width=".27645"/><path font-size="12" fill="none" stroke="#000" d="M414.452 238.893v.83h-.83v-.83h.83z" stroke-width=".27645"/><path font-size="12" fill="#004c7f" d="M419.705 230.876h.553v-.553h-.553v.553z"/><path font-size="12" fill="none" stroke="#fff" d="M419.705 230.876h.553v-.553h-.553v.553z" stroke-width=".27645"/><path font-size="12" fill="none" stroke="#000" d="M419.705 230.876h.553v-.553h-.553v.553z" stroke-width=".27645"/><path font-size="12" fill="#004c7f" d="M413.623 232.258h.553v-.553h-.553v.553z"/><path font-size="12" fill="none" stroke="#fff" d="M413.623 232.258h.553v-.553h-.553v.553z" stroke-width=".27645"/><path font-size="12" fill="none" stroke="#000" d="M413.623 232.258h.553v-.553h-.553v.553z" stroke-width=".27645"/><path font-size="12" fill="#004c7f" d="M425.786 232.258h.553v-.553h-.553v.553z"/><path font-size="12" fill="none" stroke="#fff" d="M425.786 232.258h.553v-.553h-.553v.553z" stroke-width=".27645"/><path font-size="12" fill="none" stroke="#000" d="M425.786 232.258h.553v-.553h-.553v.553z" stroke-width=".27645"/><path font-size="12" fill="#eebf00" d="M427.445 236.681h-1.935v-.829h-1.382v.83h-1.935v-.83h-1.383v.83h-1.935v-.83h-1.382v.83h-1.935v-.83h-1.382v.83h-1.935v-.83h-1.106v1.659h17.692v-1.659h-1.382v.83z"/><path font-size="12" fill="none" stroke="#fff" d="M427.445 236.681h-1.935v-.829h-1.382v.83h-1.935v-.83h-1.383v.83h-1.935v-.83h-1.382v.83h-1.935v-.83h-1.382v.83h-1.935v-.83h-1.106v1.659h17.692v-1.659h-1.382v.83z" stroke-width=".27645"/><path font-size="12" fill="none" stroke="#000" d="M427.445 236.681h-1.935v-.829h-1.382v.83h-1.935v-.83h-1.383v.83h-1.935v-.83h-1.382v.83h-1.935v-.83h-1.382v.83h-1.935v-.83h-1.106v1.659h17.692v-1.659h-1.382v.83z" stroke-width=".27645"/><path font-size="12" fill="#004c7f" d="M415.558 229.494h1.106v1.106h-5.53v-1.106h1.107v.553h1.105v-.553h1.106v.553h1.106v-.553z"/><path font-size="12" fill="none" stroke="#fff" d="M415.558 229.494h1.106v1.106h-5.53v-1.106h1.107v.553h1.105v-.553h1.106v.553h1.106v-.553z" stroke-width=".27645"/><path font-size="12" fill="none" stroke="#000" d="M415.558 229.494h1.106v1.106h-5.53v-1.106h1.107v.553h1.105v-.553h1.106v.553h1.106v-.553z" stroke-width=".27645"/><path font-size="12" fill="#004c7f" d="M426.616 238.893v.83h-.83v-.83h.83z"/><path font-size="12" fill="none" stroke="#fff" d="M426.616 238.893v.83h-.83v-.83h.83z" stroke-width=".27645"/><path font-size="12" fill="none" stroke="#000" d="M426.616 238.893v.83h-.83v-.83h.83z" stroke-width=".27645"/><path d="M419.981 243.592c.277 0 1.382-.552 1.106-.552-.277 0-.265-.59-.27-1.124-.007-.535-.007 1.124-.007-1.364 0-2.488-1.658-2.488-1.658 0v1.382c0 .553 0 1.106-.277 1.106-.276 0 .83.552 1.106.552z" font-size="12" fill="#004c7f"/><path d="M419.981 243.592c.277 0 1.382-.552 1.106-.552-.277 0-.265-.59-.27-1.124-.007-.535-.007 1.124-.007-1.364 0-2.488-1.658-2.488-1.658 0v1.382c0 .553 0 1.106-.277 1.106-.276 0 .83.552 1.106.552" font-size="12" fill="none" stroke="#000" stroke-width=".27645"/><path font-size="12" fill="#eebf00" d="M429.38 243.04v1.382h-18.798v-1.382h18.798z"/><path font-size="12" fill="none" stroke="#fff" d="M429.38 243.04v1.382h-18.798v-1.382h18.798z" stroke-width=".27645"/><path font-size="12" fill="none" stroke="#000" d="M429.38 243.04v1.382h-18.798v-1.382h18.798z" stroke-width=".27645"/><path font-size="12" fill="#eebf00" d="M411.964 279.185h3.87v6.358h-3.87v-6.358z"/><path font-size="12" fill="none" stroke="#fff" d="M411.964 279.185h3.87v6.358h-3.87v-6.358z" stroke-width=".27645"/><path font-size="12" fill="none" stroke="#000" d="M411.964 279.185h3.87v6.358h-3.87v-6.358z" stroke-width=".27645"/><path font-size="12" fill="#eebf00" d="M418.046 277.802h3.87v7.464h-3.87v-7.464z"/><path font-size="12" fill="none" stroke="#fff" d="M418.046 277.802h3.87v7.464h-3.87v-7.464z" stroke-width=".27645"/><path font-size="12" fill="none" stroke="#000" d="M418.046 277.802h3.87v7.464h-3.87v-7.464z" stroke-width=".27645"/><path font-size="12" fill="#eebf00" d="M424.128 279.185h3.87v6.081h-3.87v-6.081z"/><path font-size="12" fill="none" stroke="#fff" d="M424.128 279.185h3.87v6.081h-3.87v-6.081z" stroke-width=".27645"/><path font-size="12" fill="none" stroke="#000" d="M424.128 279.185h3.87v6.081h-3.87v-6.081z" stroke-width=".27645"/><path font-size="12" fill="#004c7f" d="M421.64 276.697h1.106v1.105h-5.53v-1.105h1.106v.553h1.106v-.553h1.106v.553h1.106v-.553z"/><path font-size="12" fill="none" stroke="#fff" d="M421.64 276.697h1.106v1.105h-5.53v-1.105h1.106v.553h1.106v-.553h1.106v.553h1.106v-.553z" stroke-width=".27645"/><path font-size="12" fill="none" stroke="#000" d="M421.64 276.697h1.106v1.105h-5.53v-1.105h1.106v.553h1.106v-.553h1.106v.553h1.106v-.553z" stroke-width=".27645"/><path font-size="12" fill="#eebf00" d="M411.135 292.454l.553-7.464.276.276h16.034l.276-.276.553 7.464h-17.692z"/><path font-size="12" fill="none" stroke="#fff" d="M411.135 292.454l.553-7.464.276.276h16.034l.276-.276.553 7.464h-17.692z" stroke-width=".27645"/><path font-size="12" fill="none" stroke="#000" d="M411.135 292.454l.553-7.464.276.276h16.034l.276-.276.553 7.464h-17.692z" stroke-width=".27645"/><path font-size="12" fill="#004c7f" d="M427.722 278.079h1.105v1.106h-5.529v-1.106h1.106v.553h1.106v-.553h1.106v.553h1.106v-.553z"/><path font-size="12" fill="none" stroke="#fff" d="M427.722 278.079h1.105v1.106h-5.529v-1.106h1.106v.553h1.106v-.553h1.106v.553h1.106v-.553z" stroke-width=".27645"/><path font-size="12" fill="none" stroke="#000" d="M427.722 278.079h1.105v1.106h-5.529v-1.106h1.106v.553h1.106v-.553h1.106v.553h1.106v-.553z" stroke-width=".27645"/><path font-size="12" fill="#004c7f" d="M414.452 287.478v.83h-.83v-.83h.83z"/><path font-size="12" fill="none" stroke="#fff" d="M414.452 287.478v.83h-.83v-.83h.83z" stroke-width=".27645"/><path font-size="12" fill="none" stroke="#000" d="M414.452 287.478v.83h-.83v-.83h.83z" stroke-width=".27645"/><path font-size="12" fill="#004c7f" d="M419.705 279.461h.553v-.553h-.553v.553z"/><path font-size="12" fill="none" stroke="#fff" d="M419.705 279.461h.553v-.553h-.553v.553z" stroke-width=".27645"/><path font-size="12" fill="none" stroke="#000" d="M419.705 279.461h.553v-.553h-.553v.553z" stroke-width=".27645"/><path font-size="12" fill="#004c7f" d="M413.623 280.843h.553v-.553h-.553v.553z"/><path font-size="12" fill="none" stroke="#fff" d="M413.623 280.843h.553v-.553h-.553v.553z" stroke-width=".27645"/><path font-size="12" fill="none" stroke="#000" d="M413.623 280.843h.553v-.553h-.553v.553z" stroke-width=".27645"/><path font-size="12" fill="#004c7f" d="M425.786 280.843h.553v-.553h-.553v.553z"/><path font-size="12" fill="none" stroke="#fff" d="M425.786 280.843h.553v-.553h-.553v.553z" stroke-width=".27645"/><path font-size="12" fill="none" stroke="#000" d="M425.786 280.843h.553v-.553h-.553v.553z" stroke-width=".27645"/><path font-size="12" fill="#eebf00" d="M427.445 285.266h-1.935v-.829h-1.382v.83h-1.935v-.83h-1.383v.83h-1.935v-.83h-1.382v.83h-1.935v-.83h-1.382v.83h-1.935v-.83h-1.106v1.659h17.692v-1.659h-1.382v.83z"/><path font-size="12" fill="none" stroke="#fff" d="M427.445 285.266h-1.935v-.829h-1.382v.83h-1.935v-.83h-1.383v.83h-1.935v-.83h-1.382v.83h-1.935v-.83h-1.382v.83h-1.935v-.83h-1.106v1.659h17.692v-1.659h-1.382v.83z" stroke-width=".27645"/><path font-size="12" fill="none" stroke="#000" d="M427.445 285.266h-1.935v-.829h-1.382v.83h-1.935v-.83h-1.383v.83h-1.935v-.83h-1.382v.83h-1.935v-.83h-1.382v.83h-1.935v-.83h-1.106v1.659h17.692v-1.659h-1.382v.83z" stroke-width=".27645"/><path font-size="12" fill="#004c7f" d="M415.558 278.079h1.106v1.106h-5.53v-1.106h1.107v.553h1.105v-.553h1.106v.553h1.106v-.553z"/><path font-size="12" fill="none" stroke="#fff" d="M415.558 278.079h1.106v1.106h-5.53v-1.106h1.107v.553h1.105v-.553h1.106v.553h1.106v-.553z" stroke-width=".27645"/><path font-size="12" fill="none" stroke="#000" d="M415.558 278.079h1.106v1.106h-5.53v-1.106h1.107v.553h1.105v-.553h1.106v.553h1.106v-.553z" stroke-width=".27645"/><path font-size="12" fill="#004c7f" d="M426.616 287.478v.83h-.83v-.83h.83z"/><path font-size="12" fill="none" stroke="#fff" d="M426.616 287.478v.83h-.83v-.83h.83z" stroke-width=".27645"/><path font-size="12" fill="none" stroke="#000" d="M426.616 287.478v.83h-.83v-.83h.83z" stroke-width=".27645"/><path d="M419.981 292.178c.277 0 1.382-.553 1.106-.553-.277 0-.265-.59-.27-1.124-.007-.535-.007 1.124-.007-1.364 0-2.488-1.658-2.488-1.658 0v1.382c0 .553 0 1.106-.277 1.106-.276 0 .83.553 1.106.553z" font-size="12" fill="#004c7f"/><path d="M419.981 292.178c.277 0 1.382-.553 1.106-.553-.277 0-.265-.59-.27-1.124-.007-.535-.007 1.124-.007-1.364 0-2.488-1.658-2.488-1.658 0v1.382c0 .553 0 1.106-.277 1.106-.276 0 .83.553 1.106.553" font-size="12" fill="none" stroke="#000" stroke-width=".27645"/><path font-size="12" fill="#eebf00" d="M429.38 291.625v1.382h-18.798v-1.382h18.798z"/><path font-size="12" fill="none" stroke="#fff" d="M429.38 291.625v1.382h-18.798v-1.382h18.798z" stroke-width=".27645"/><path font-size="12" fill="none" stroke="#000" d="M429.38 291.625v1.382h-18.798v-1.382h18.798z" stroke-width=".27645"/><path font-size="12" fill="#eebf00" d="M326.508 332.013l3.385-1.876 3.082 5.561-3.385 1.876-3.082-5.56z"/><path font-size="12" fill="none" stroke="#fff" d="M326.508 332.013l3.385-1.876 3.082 5.561-3.385 1.876-3.082-5.56z" stroke-width=".27645"/><path font-size="12" fill="none" stroke="#000" d="M326.508 332.013l3.385-1.876 3.082 5.561-3.385 1.876-3.082-5.56z" stroke-width=".27645"/><path font-size="12" fill="#eebf00" d="M331.157 327.856l3.385-1.876 3.618 6.528-3.385 1.876-3.618-6.528z"/><path font-size="12" fill="none" stroke="#fff" d="M331.157 327.856l3.385-1.876 3.618 6.528-3.385 1.876-3.618-6.528z" stroke-width=".27645"/><path font-size="12" fill="none" stroke="#000" d="M331.157 327.856l3.385-1.876 3.618 6.528-3.385 1.876-3.618-6.528z" stroke-width=".27645"/><path font-size="12" fill="#eebf00" d="M337.146 326.116l3.385-1.876 2.949 5.32-3.385 1.876-2.949-5.32z"/><path font-size="12" fill="none" stroke="#fff" d="M337.146 326.116l3.385-1.876 2.949 5.32-3.385 1.876-2.949-5.32z" stroke-width=".27645"/><path font-size="12" fill="none" stroke="#000" d="M337.146 326.116l3.385-1.876 2.949 5.32-3.385 1.876-2.949-5.32z" stroke-width=".27645"/><path font-size="12" fill="#004c7f" d="M333.764 325.146l.967-.536.536.968-4.836 2.68-.536-.967.967-.536.268.483.968-.536-.268-.483.967-.536.268.483.967-.536-.268-.484z"/><path font-size="12" fill="none" stroke="#fff" d="M333.764 325.146l.967-.536.536.968-4.836 2.68-.536-.967.967-.536.268.483.968-.536-.268-.483.967-.536.268.483.967-.536-.268-.484z" stroke-width=".27645"/><path font-size="12" fill="none" stroke="#000" d="M333.764 325.146l.967-.536.536.968-4.836 2.68-.536-.967.967-.536.268.483.968-.536-.268-.483.967-.536.268.483.967-.536-.268-.484z" stroke-width=".27645"/><path font-size="12" fill="#eebf00" d="M332.215 344.021l-3.135-6.796.376.108 14.024-7.774.107-.376 4.103 6.26-15.475 8.578z"/><path font-size="12" fill="none" stroke="#fff" d="M332.215 344.021l-3.135-6.796.376.108 14.024-7.774.107-.376 4.103 6.26-15.475 8.578z" stroke-width=".27645"/><path font-size="12" fill="none" stroke="#000" d="M332.215 344.021l-3.135-6.796.376.108 14.024-7.774.107-.376 4.103 6.26-15.475 8.578z" stroke-width=".27645"/><path font-size="12" fill="#004c7f" d="M339.753 323.407l.967-.536.536.967-4.835 2.68-.536-.967.967-.536.268.484.967-.536-.268-.484.967-.536.268.484.967-.537-.268-.483z"/><path font-size="12" fill="none" stroke="#fff" d="M339.753 323.407l.967-.536.536.967-4.835 2.68-.536-.967.967-.536.268.484.967-.536-.268-.484.967-.536.268.484.967-.537-.268-.483z" stroke-width=".27645"/><path font-size="12" fill="none" stroke="#000" d="M339.753 323.407l.967-.536.536.967-4.835 2.68-.536-.967.967-.536.268.484.967-.536-.268-.484.967-.536.268.484.967-.537-.268-.483z" stroke-width=".27645"/><path font-size="12" fill="#004c7f" d="M332.704 338.06l.402.726-.725.402-.402-.725.725-.402z"/><path font-size="12" fill="none" stroke="#fff" d="M332.704 338.06l.402.726-.725.402-.402-.725.725-.402z" stroke-width=".27645"/><path font-size="12" fill="none" stroke="#000" d="M332.704 338.06l.402.726-.725.402-.402-.725.725-.402z" stroke-width=".27645"/><path font-size="12" fill="#004c7f" d="M333.412 328.503l.483-.269-.268-.483-.483.268.268.484z"/><path font-size="12" fill="none" stroke="#fff" d="M333.412 328.503l.483-.269-.268-.483-.483.268.268.484z" stroke-width=".27645"/><path font-size="12" fill="none" stroke="#000" d="M333.412 328.503l.483-.269-.268-.483-.483.268.268.484z" stroke-width=".27645"/><path font-size="12" fill="#004c7f" d="M328.762 332.66l.484-.268-.268-.484-.484.268.268.484z"/><path font-size="12" fill="none" stroke="#fff" d="M328.762 332.66l.484-.268-.268-.484-.484.268.268.484z" stroke-width=".27645"/><path font-size="12" fill="none" stroke="#000" d="M328.762 332.66l.484-.268-.268-.484-.484.268.268.484z" stroke-width=".27645"/><path font-size="12" fill="#004c7f" d="M339.4 326.763l.485-.268-.269-.484-.483.268.268.484z"/><path font-size="12" fill="none" stroke="#fff" d="M339.4 326.763l.485-.268-.269-.484-.483.268.268.484z" stroke-width=".27645"/><path font-size="12" fill="none" stroke="#000" d="M339.4 326.763l.485-.268-.269-.484-.483.268.268.484z" stroke-width=".27645"/><path font-size="12" fill="#eebf00" d="M342.996 329.827l-1.692.939-.403-.726-1.208.67.402.726-1.693.938-.402-.726-1.209.67.402.726-1.692.938-.402-.725-1.21.67.403.725-1.693.938-.402-.725-1.209.67.402.725-1.692.939-.402-.726-.967.536.804 1.451 15.474-8.577-.804-1.451-1.209.67.402.725z"/><path font-size="12" fill="none" stroke="#fff" d="M342.996 329.827l-1.692.939-.403-.726-1.208.67.402.726-1.693.938-.402-.726-1.209.67.402.726-1.692.938-.402-.725-1.21.67.403.725-1.693.938-.402-.725-1.209.67.402.725-1.692.939-.402-.726-.967.536.804 1.451 15.474-8.577-.804-1.451-1.209.67.402.725z" stroke-width=".27645"/><path font-size="12" fill="none" stroke="#000" d="M342.996 329.827l-1.692.939-.403-.726-1.208.67.402.726-1.693.938-.402-.726-1.209.67.402.726-1.692.938-.402-.725-1.21.67.403.725-1.693.938-.402-.725-1.209.67.402.725-1.692.939-.402-.726-.967.536.804 1.451 15.474-8.577-.804-1.451-1.209.67.402.725z" stroke-width=".27645"/><path font-size="12" fill="#004c7f" d="M329.115 329.304l.967-.536.536.967-4.836 2.68-.536-.967.967-.536.268.484.967-.536-.268-.484.968-.536.268.484.967-.536-.268-.484z"/><path font-size="12" fill="none" stroke="#fff" d="M329.115 329.304l.967-.536.536.967-4.836 2.68-.536-.967.967-.536.268.484.967-.536-.268-.484.968-.536.268.484.967-.536-.268-.484z" stroke-width=".27645"/><path font-size="12" fill="none" stroke="#000" d="M329.115 329.304l.967-.536.536.967-4.836 2.68-.536-.967.967-.536.268.484.967-.536-.268-.484.968-.536.268.484.967-.536-.268-.484z" stroke-width=".27645"/><path font-size="12" fill="#004c7f" d="M343.343 332.164l.402.725-.725.402-.402-.725.725-.402z"/><path font-size="12" fill="none" stroke="#fff" d="M343.343 332.164l.402.725-.725.402-.402-.725.725-.402z" stroke-width=".27645"/><path font-size="12" fill="none" stroke="#000" d="M343.343 332.164l.402.725-.725.402-.402-.725.725-.402z" stroke-width=".27645"/><path d="M339.818 339.49c.242-.133.941-1.153.7-1.02-.242.135-.518-.386-.782-.85-.264-.466.54.985-.666-1.191-1.207-2.176-2.657-1.372-1.451.804l.67 1.209c.268.484.536.967.294 1.101-.242.134.994.082 1.235-.052z" font-size="12" fill="#004c7f"/><path d="M339.818 339.49c.242-.133.941-1.153.7-1.02-.242.135-.518-.386-.782-.85-.264-.466.54.985-.666-1.191-1.207-2.176-2.657-1.372-1.451.804l.67 1.209c.268.484.536.967.294 1.101-.242.134.994.082 1.235-.052" font-size="12" fill="none" stroke="#000" stroke-width=".27645"/><path font-size="12" fill="#eebf00" d="M347.771 334.45l.67 1.21L332 344.772l-.67-1.21 16.441-9.113z"/><path font-size="12" fill="none" stroke="#fff" d="M347.771 334.45l.67 1.21L332 344.772l-.67-1.21 16.441-9.113z" stroke-width=".27645"/><path font-size="12" fill="none" stroke="#000" d="M347.771 334.45l.67 1.21L332 344.772l-.67-1.21 16.441-9.113z" stroke-width=".27645"/><path font-size="12" fill="#eebf00" d="M408.722 324.186l3.385 1.876-3.083 5.561-3.385-1.876 3.083-5.561z"/><path font-size="12" fill="none" stroke="#fff" d="M408.722 324.186l3.385 1.876-3.083 5.561-3.385-1.876 3.083-5.561z" stroke-width=".27645"/><path font-size="12" fill="none" stroke="#000" d="M408.722 324.186l3.385 1.876-3.083 5.561-3.385-1.876 3.083-5.561z" stroke-width=".27645"/><path font-size="12" fill="#eebf00" d="M414.711 325.926l3.385 1.876-3.618 6.528-3.385-1.876 3.618-6.528z"/><path font-size="12" fill="none" stroke="#fff" d="M414.711 325.926l3.385 1.876-3.618 6.528-3.385-1.876 3.618-6.528z" stroke-width=".27645"/><path font-size="12" fill="none" stroke="#000" d="M414.711 325.926l3.385 1.876-3.618 6.528-3.385-1.876 3.618-6.528z" stroke-width=".27645"/><path font-size="12" fill="#eebf00" d="M419.36 330.083l3.386 1.876-2.949 5.32-3.385-1.877 2.949-5.319z"/><path font-size="12" fill="none" stroke="#fff" d="M419.36 330.083l3.386 1.876-2.949 5.32-3.385-1.877 2.949-5.319z" stroke-width=".27645"/><path font-size="12" fill="none" stroke="#000" d="M419.36 330.083l3.386 1.876-2.949 5.32-3.385-1.877 2.949-5.319z" stroke-width=".27645"/><path font-size="12" fill="#004c7f" d="M418.39 326.7l.968.537-.536.967-4.836-2.68.536-.968.967.536-.268.484.967.536.268-.483.968.536-.269.483.968.536.268-.483z"/><path font-size="12" fill="none" stroke="#fff" d="M418.39 326.7l.968.537-.536.967-4.836-2.68.536-.968.967.536-.268.484.967.536.268-.483.968.536-.269.483.968.536.268-.483z" stroke-width=".27645"/><path font-size="12" fill="none" stroke="#000" d="M418.39 326.7l.968.537-.536.967-4.836-2.68.536-.968.967.536-.268.484.967.536.268-.483.968.536-.269.483.968.536.268-.483z" stroke-width=".27645"/><path font-size="12" fill="#eebf00" d="M401.563 335.39l4.103-6.26.107.375 14.024 7.774.376-.108-3.135 6.796-15.475-8.577z"/><path font-size="12" fill="none" stroke="#fff" d="M401.563 335.39l4.103-6.26.107.375 14.024 7.774.376-.108-3.135 6.796-15.475-8.577z" stroke-width=".27645"/><path font-size="12" fill="none" stroke="#000" d="M401.563 335.39l4.103-6.26.107.375 14.024 7.774.376-.108-3.135 6.796-15.475-8.577z" stroke-width=".27645"/><path font-size="12" fill="#004c7f" d="M423.04 330.858l.967.536-.536.967-4.836-2.68.536-.967.967.536-.268.483.967.537.269-.484.967.536-.268.484.967.536.268-.484z"/><path font-size="12" fill="none" stroke="#fff" d="M423.04 330.858l.967.536-.536.967-4.836-2.68.536-.967.967.536-.268.483.967.537.269-.484.967.536-.268.484.967.536.268-.484z" stroke-width=".27645"/><path font-size="12" fill="none" stroke="#000" d="M423.04 330.858l.967.536-.536.967-4.836-2.68.536-.967.967.536-.268.483.967.537.269-.484.967.536-.268.484.967.536.268-.484z" stroke-width=".27645"/><path font-size="12" fill="#004c7f" d="M406.877 332.646l-.402.725-.725-.402.402-.725.725.402z"/><path font-size="12" fill="none" stroke="#fff" d="M406.877 332.646l-.402.725-.725-.402.402-.725.725.402z" stroke-width=".27645"/><path font-size="12" fill="none" stroke="#000" d="M406.877 332.646l-.402.725-.725-.402.402-.725.725.402z" stroke-width=".27645"/><path font-size="12" fill="#004c7f" d="M415.358 328.18l.483.268.269-.483-.484-.268-.268.483z"/><path font-size="12" fill="none" stroke="#fff" d="M415.358 328.18l.483.268.269-.483-.484-.268-.268.483z" stroke-width=".27645"/><path font-size="12" fill="none" stroke="#000" d="M415.358 328.18l.483.268.269-.483-.484-.268-.268.483z" stroke-width=".27645"/><path font-size="12" fill="#004c7f" d="M409.369 326.44l.483.269.268-.484-.483-.268-.268.484z"/><path font-size="12" fill="none" stroke="#fff" d="M409.369 326.44l.483.269.268-.484-.483-.268-.268.484z" stroke-width=".27645"/><path font-size="12" fill="none" stroke="#000" d="M409.369 326.44l.483.269.268-.484-.483-.268-.268.484z" stroke-width=".27645"/><path font-size="12" fill="#004c7f" d="M420.007 332.338l.484.268.268-.484-.484-.268-.268.484z"/><path font-size="12" fill="none" stroke="#fff" d="M420.007 332.338l.484.268.268-.484-.484-.268-.268.484z" stroke-width=".27645"/><path font-size="12" fill="none" stroke="#000" d="M420.007 332.338l.484.268.268-.484-.484-.268-.268.484z" stroke-width=".27645"/><path font-size="12" fill="#eebf00" d="M419.313 337.01l-1.692-.938.402-.725-1.209-.67-.402.725-1.693-.938.403-.725-1.21-.67-.401.725-1.693-.938.402-.726-1.209-.67-.402.726-1.692-.938.402-.726-1.21-.67-.401.725-1.693-.938.402-.725-.967-.536-.804 1.45 15.474 8.578.804-1.45-1.209-.67-.402.725z"/><path font-size="12" fill="none" stroke="#fff" d="M419.313 337.01l-1.692-.938.402-.725-1.209-.67-.402.725-1.693-.938.403-.725-1.21-.67-.401.725-1.693-.938.402-.726-1.209-.67-.402.726-1.692-.938.402-.726-1.21-.67-.401.725-1.693-.938.402-.725-.967-.536-.804 1.45 15.474 8.578.804-1.45-1.209-.67-.402.725z" stroke-width=".27645"/><path font-size="12" fill="none" stroke="#000" d="M419.313 337.01l-1.692-.938.402-.725-1.209-.67-.402.725-1.693-.938.403-.725-1.21-.67-.401.725-1.693-.938.402-.726-1.209-.67-.402.726-1.692-.938.402-.726-1.21-.67-.401.725-1.693-.938.402-.725-.967-.536-.804 1.45 15.474 8.578.804-1.45-1.209-.67-.402.725z" stroke-width=".27645"/><path font-size="12" fill="#004c7f" d="M412.401 324.961l.967.536-.536.967-4.835-2.68.536-.967.967.536-.268.483.967.537.268-.484.967.536-.268.484.967.536.268-.484z"/><path font-size="12" fill="none" stroke="#fff" d="M412.401 324.961l.967.536-.536.967-4.835-2.68.536-.967.967.536-.268.483.967.537.268-.484.967.536-.268.484.967.536.268-.484z" stroke-width=".27645"/><path font-size="12" fill="none" stroke="#000" d="M412.401 324.961l.967.536-.536.967-4.835-2.68.536-.967.967.536-.268.483.967.537.268-.484.967.536-.268.484.967.536.268-.484z" stroke-width=".27645"/><path font-size="12" fill="#004c7f" d="M417.516 338.543l-.402.725-.726-.402.403-.725.725.402z"/><path font-size="12" fill="none" stroke="#fff" d="M417.516 338.543l-.402.725-.726-.402.403-.725.725.402z" stroke-width=".27645"/><path font-size="12" fill="none" stroke="#000" d="M417.516 338.543l-.402.725-.726-.402.403-.725.725.402z" stroke-width=".27645"/><path d="M409.435 339.437c.241.134 1.477.186 1.235.052s.054-.644.308-1.114c.254-.47-.55.98.656-1.196s-.244-2.98-1.45-.804c-1.207 2.176-.403.725-.67 1.209-.269.483-.537.967-.778.833-.242-.134.457.886.699 1.02z" font-size="12" fill="#004c7f"/><path d="M409.435 339.437c.241.134 1.477.186 1.235.052s.054-.644.308-1.114c.254-.47-.55.98.656-1.196s-.244-2.98-1.45-.804c-1.207 2.176-.403.725-.67 1.209-.269.483-.537.967-.778.833-.242-.134.457.886.699 1.02" font-size="12" fill="none" stroke="#000" stroke-width=".27645"/><path font-size="12" fill="#eebf00" d="M417.923 343.51l-.67 1.209-16.441-9.114.67-1.209 16.441 9.114z"/><path font-size="12" fill="none" stroke="#fff" d="M417.923 343.51l-.67 1.209-16.441-9.114.67-1.209 16.441 9.114z" stroke-width=".27645"/><path font-size="12" fill="none" stroke="#000" d="M417.923 343.51l-.67 1.209-16.441-9.114.67-1.209 16.441 9.114z" stroke-width=".27645"/><path font-size="12" fill="#eebf00" d="M366.11 349.097h3.87v6.359h-3.87v-6.359z"/><path font-size="12" fill="none" stroke="#fff" d="M366.11 349.097h3.87v6.359h-3.87v-6.359z" stroke-width=".27645"/><path font-size="12" fill="none" stroke="#000" d="M366.11 349.097h3.87v6.359h-3.87v-6.359z" stroke-width=".27645"/><path font-size="12" fill="#eebf00" d="M372.191 347.715h3.87v7.464h-3.87v-7.464z"/><path font-size="12" fill="none" stroke="#fff" d="M372.191 347.715h3.87v7.464h-3.87v-7.464z" stroke-width=".27645"/><path font-size="12" fill="none" stroke="#000" d="M372.191 347.715h3.87v7.464h-3.87v-7.464z" stroke-width=".27645"/><path font-size="12" fill="#eebf00" d="M378.273 349.097h3.87v6.082h-3.87v-6.082z"/><path font-size="12" fill="none" stroke="#fff" d="M378.273 349.097h3.87v6.082h-3.87v-6.082z" stroke-width=".27645"/><path font-size="12" fill="none" stroke="#000" d="M378.273 349.097h3.87v6.082h-3.87v-6.082z" stroke-width=".27645"/><path font-size="12" fill="#004c7f" d="M375.785 346.61h1.106v1.105h-5.53v-1.106h1.107v.553h1.105v-.553h1.106v.553h1.106v-.553z"/><path font-size="12" fill="none" stroke="#fff" d="M375.785 346.61h1.106v1.105h-5.53v-1.106h1.107v.553h1.105v-.553h1.106v.553h1.106v-.553z" stroke-width=".27645"/><path font-size="12" fill="none" stroke="#000" d="M375.785 346.61h1.106v1.105h-5.53v-1.106h1.107v.553h1.105v-.553h1.106v.553h1.106v-.553z" stroke-width=".27645"/><path font-size="12" fill="#eebf00" d="M365.28 362.367l.553-7.464.276.276h16.034l.277-.276.553 7.464H365.28z"/><path font-size="12" fill="none" stroke="#fff" d="M365.28 362.367l.553-7.464.276.276h16.034l.277-.276.553 7.464H365.28z" stroke-width=".27645"/><path font-size="12" fill="none" stroke="#000" d="M365.28 362.367l.553-7.464.276.276h16.034l.277-.276.553 7.464H365.28z" stroke-width=".27645"/><path font-size="12" fill="#004c7f" d="M381.867 347.992h1.106v1.105h-5.53v-1.105h1.106v.552h1.106v-.552h1.106v.552h1.106v-.552z"/><path font-size="12" fill="none" stroke="#fff" d="M381.867 347.992h1.106v1.105h-5.53v-1.105h1.106v.552h1.106v-.552h1.106v.552h1.106v-.552z" stroke-width=".27645"/><path font-size="12" fill="none" stroke="#000" d="M381.867 347.992h1.106v1.105h-5.53v-1.105h1.106v.552h1.106v-.552h1.106v.552h1.106v-.552z" stroke-width=".27645"/><path font-size="12" fill="#004c7f" d="M368.597 357.39v.83h-.829v-.83h.83z"/><path font-size="12" fill="none" stroke="#fff" d="M368.597 357.39v.83h-.829v-.83h.83z" stroke-width=".27645"/><path font-size="12" fill="none" stroke="#000" d="M368.597 357.39v.83h-.829v-.83h.83z" stroke-width=".27645"/><path font-size="12" fill="#004c7f" d="M373.85 349.374h.553v-.553h-.553v.553z"/><path font-size="12" fill="none" stroke="#fff" d="M373.85 349.374h.553v-.553h-.553v.553z" stroke-width=".27645"/><path font-size="12" fill="none" stroke="#000" d="M373.85 349.374h.553v-.553h-.553v.553z" stroke-width=".27645"/><path font-size="12" fill="#004c7f" d="M367.768 350.756h.553v-.553h-.553v.553z"/><path font-size="12" fill="none" stroke="#fff" d="M367.768 350.756h.553v-.553h-.553v.553z" stroke-width=".27645"/><path font-size="12" fill="none" stroke="#000" d="M367.768 350.756h.553v-.553h-.553v.553z" stroke-width=".27645"/><path font-size="12" fill="#004c7f" d="M379.932 350.756h.553v-.553h-.553v.553z"/><path font-size="12" fill="none" stroke="#fff" d="M379.932 350.756h.553v-.553h-.553v.553z" stroke-width=".27645"/><path font-size="12" fill="none" stroke="#000" d="M379.932 350.756h.553v-.553h-.553v.553z" stroke-width=".27645"/><path font-size="12" fill="#eebf00" d="M381.59 355.18h-1.935v-.83h-1.382v.83h-1.935v-.83h-1.382v.83h-1.935v-.83h-1.383v.83h-1.935v-.83h-1.382v.83h-1.935v-.83h-1.106v1.658h17.693v-1.658h-1.383v.83z"/><path font-size="12" fill="none" stroke="#fff" d="M381.59 355.18h-1.935v-.83h-1.382v.83h-1.935v-.83h-1.382v.83h-1.935v-.83h-1.383v.83h-1.935v-.83h-1.382v.83h-1.935v-.83h-1.106v1.658h17.693v-1.658h-1.383v.83z" stroke-width=".27645"/><path font-size="12" fill="none" stroke="#000" d="M381.59 355.18h-1.935v-.83h-1.382v.83h-1.935v-.83h-1.382v.83h-1.935v-.83h-1.383v.83h-1.935v-.83h-1.382v.83h-1.935v-.83h-1.106v1.658h17.693v-1.658h-1.383v.83z" stroke-width=".27645"/><path font-size="12" fill="#004c7f" d="M369.703 347.992h1.106v1.105h-5.529v-1.105h1.106v.552h1.106v-.552h1.105v.552h1.106v-.552z"/><path font-size="12" fill="none" stroke="#fff" d="M369.703 347.992h1.106v1.105h-5.529v-1.105h1.106v.552h1.106v-.552h1.105v.552h1.106v-.552z" stroke-width=".27645"/><path font-size="12" fill="none" stroke="#000" d="M369.703 347.992h1.106v1.105h-5.529v-1.105h1.106v.552h1.106v-.552h1.105v.552h1.106v-.552z" stroke-width=".27645"/><path font-size="12" fill="#004c7f" d="M380.761 357.39v.83h-.83v-.83h.83z"/><path font-size="12" fill="none" stroke="#fff" d="M380.761 357.39v.83h-.83v-.83h.83z" stroke-width=".27645"/><path font-size="12" fill="none" stroke="#000" d="M380.761 357.39v.83h-.83v-.83h.83z" stroke-width=".27645"/><path d="M374.126 362.09c.277 0 1.383-.553 1.106-.553-.276 0-.265-.589-.27-1.124-.006-.534-.006 1.124-.006-1.364 0-2.488-1.659-2.488-1.659 0v1.383c0 .552 0 1.105-.276 1.105-.277 0 .829.553 1.105.553z" font-size="12" fill="#004c7f"/><path d="M374.126 362.09c.277 0 1.383-.553 1.106-.553-.276 0-.265-.589-.27-1.124-.006-.534-.006 1.124-.006-1.364 0-2.488-1.659-2.488-1.659 0v1.383c0 .552 0 1.105-.276 1.105-.277 0 .829.553 1.105.553" font-size="12" fill="none" stroke="#000" stroke-width=".27645"/><path font-size="12" fill="#eebf00" d="M383.525 361.537v1.383h-18.798v-1.383h18.798z"/><path font-size="12" fill="none" stroke="#fff" d="M383.525 361.537v1.383h-18.798v-1.383h18.798z" stroke-width=".27645"/><path font-size="12" fill="none" stroke="#000" d="M383.525 361.537v1.383h-18.798v-1.383h18.798z" stroke-width=".27645"/><path transform="matrix(.07713 .02742 -.01377 .03872 408.094 166.464)" d="M335.21 907.003a34.805 51.837 0 1 1-69.61 0 34.805 51.837 0 1 1 69.61 0z" font-size="12" fill="#dfdbd7" fill-rule="evenodd" stroke="#87665c" stroke-width="24.969" stroke-linecap="square" stroke-linejoin="round" stroke-dashoffset="1"/><path transform="matrix(.06014 .01061 -.00684 .02612 378.343 178.554)" d="M335.21 907.003a34.805 51.837 0 1 1-69.61 0 34.805 51.837 0 1 1 69.61 0z" font-size="12" fill="#dfdbd7" fill-rule="evenodd" stroke="#87665c" stroke-width="34.539" stroke-linecap="square" stroke-linejoin="round" stroke-dashoffset="1"/><path transform="matrix(.06115 -.00247 -.00038 .02876 343.757 179.882)" d="M335.21 907.003a34.805 51.837 0 1 1-69.61 0 34.805 51.837 0 1 1 69.61 0z" font-size="12" fill="#dfdbd7" fill-rule="evenodd" stroke="#87665c" stroke-width="34.539" stroke-linecap="square" stroke-linejoin="bevel" stroke-dashoffset="1"/><path transform="matrix(.07933 -.0202 .01014 .03982 301.134 179.964)" d="M335.21 907.003a34.805 51.837 0 1 1-69.61 0 34.805 51.837 0 1 1 69.61 0z" font-size="12" fill="#dfdbd7" fill-rule="evenodd" stroke="#87665c" stroke-width="24.969" stroke-linecap="square" stroke-linejoin="bevel" stroke-dashoffset="1"/><path class="fil3" d="M317.541 205.274c0 .025 32.436-9.763 57.521-9.763s57.998 9.617 58.024 9.814l-.563 1.907s-31.959-9.053-57.044-9.053c-25.085 0-58.109 9.565-58.109 9.736l.171-2.641z" font-size="12" fill="#eebf00" stroke="#87675c" stroke-width="1.44819375" stroke-linejoin="round"/><path class="fil3" d="M317.225 218.75c.026.196 32.752-7.86 57.837-7.86s57.069 7.417 56.898 7.221v3.11c.392-.393-31.94-7.612-57.025-7.612-25.085 0-58.102 7.612-57.931 7.782l.221-2.64z" font-size="12" fill="#eebf00" stroke="#87675d" stroke-width="1.44819375" stroke-linejoin="round"/></svg>