<svg xmlns="http://www.w3.org/2000/svg" viewBox="0 0 300 150" width="500" height="250"><path fill="#ed1c24" d="M0 0H300V150H0z"/><path fill="#005da4" d="M0 0H300V100H0z"/><path fill="#fff" d="M0 0H300V50H0z"/><path d="m92.84 52.6 1.575-23.25a45.31 45.31 0 0 0 -38.81 0l1.575 23.25a25.16 25.16 0 0 0 17.83 22.4 25.16 25.16 0 0 0 17.84 -22.4" fill="#005da4"/><path d="m60.45 55.75a22.36 22.36 0 0 0 14.55 16.3 22.36 22.36 0 0 0 14.55 -16.3l-7.276-9.702-2.911 3.881-4.366-8.732-4.366 8.732-2.911-3.881-7.276 9.702" fill="#fff"/><path fill="#005da4" d="m61.09 58.18a4.851 4.851 0 0 0 6.63 1.776 4.851 4.851 0 0 1 4.851 0 4.851 4.851 0 0 0 4.851 0 4.851 4.851 0 0 1 4.851 0 4.851 4.851 0 0 0 6.627 -1.776v1.4a4.851 4.851 0 0 1 -6.627 1.776 4.851 4.851 0 0 0 -4.851 0 4.851 4.851 0 0 1 -4.851 0 4.851 4.851 0 0 0 -4.851 0 4.851 4.851 0 0 1 -6.627 -1.776z"/><path d="m61.09 60.98a4.851 4.851 0 0 0 6.63 1.776 4.851 4.851 0 0 1 4.851 0 4.851 4.851 0 0 0 4.851 0 4.851 4.851 0 0 1 4.851 0 4.851 4.851 0 0 0 6.627 -1.776v1.4a4.851 4.851 0 0 1 -6.627 1.776 4.851 4.851 0 0 0 -4.851 0 4.851 4.851 0 0 1 -4.851 0 4.851 4.851 0 0 0 -4.851 0 4.851 4.851 0 0 1 -6.627 -1.776z" fill="#005da4"/><path d="M75 34.53l.3638 1.189 1.212-.2794-.8477.9096.8477.9096-1.212-.2794-.3638 1.189-.3638-1.189-1.212.2794.8477-.9096-.8477-.9096 1.212.2794zM69.54 27.25l.3638 1.189 1.212-.2794-.8477.9096.8477.9096-1.212-.2794-.3638 1.189-.3638-1.189-1.212.2794.8477-.9096-.8477-.9096 1.212.2794zM80.46 27.25l.3638 1.189 1.212-.2794-.8477.9096.8477.9096-1.212-.2794-.3638 1.189-.3638-1.189-1.212.2794.8477-.9096-.8477-.9096 1.212.2794z" fill="#fd0"/><path d="m56.95 28.75 1.61 23.77a23.77 23.77 0 0 0 16.43 21.01 23.77 23.77 0 0 0 16.43 -21.03l1.61-23.77a45.31 45.31 0 0 0 1.362 .6178l-1.57 23.25a25.16 25.16 0 0 1 -17.84 22.4 25.16 25.16 0 0 1 -17.83 -22.4l-1.57-23.24a45.31 45.31 0 0 0 1.362 -.6178" fill="#ed1c24"/></svg>