<svg xmlns="http://www.w3.org/2000/svg" viewBox="0 0 450 300" height="250" width="375"><path d="M0 150V0h450v300H0z" fill="#d8241b"/><path d="M0 149.575l450-.01V300H0V149.575z" fill="#1f1916"/><path style="line-height:normal;text-indent:0;text-align:start;text-decoration-line:none;text-decoration-style:solid;text-decoration-color:#000;text-transform:none;block-progression:tb;isolation:auto;mix-blend-mode:normal" d="M263.074 198.837l3.646-3.26-4.842-5.723a79.317 79.317 0 0 0 9.186-11.51l7.476 2.438 5.534-12.37-6.028-3.208a80.524 80.524 0 0 0 4.527-14.7l7.81-.358.975-13.56-7.12-.923a80.69 80.69 0 0 0-.995-14.12 91.254 91.254 0 0 0-.37-2.123l6.82-3.09-3.942-12.987-6.954 1.784a79.874 79.874 0 0 0-9.4-17.43l5.102-5.45-8.5-10.478-6.27 4.736a78.727 78.727 0 0 0-11.552-9.166l2.695-7.222-11.816-6.297-3.885 6.685a77.317 77.317 0 0 0-13.095-4.043l-2.278 11.075c27.22 5.82 48.053 27.993 52.49 55.82 3.86 24.208-5.38 48.308-23.66 63.535" color="#000" font-family="sans-serif" white-space="normal" overflow="visible" solid-color="#000000" fill="#f7d418"/><path style="line-height:normal;text-indent:0;text-align:start;text-decoration-line:none;text-decoration-style:solid;text-decoration-color:#000;text-transform:none;block-progression:tb;isolation:auto;mix-blend-mode:normal" d="M255.76 195.557c.51-.427 1.013-.86 1.51-1.3m-15.523 10.663c.577-.3 1.152-.61 1.724-.927" color="#000" font-family="sans-serif" white-space="normal" overflow="visible" opacity=".785" solid-color="#000000" fill="#0f0"/><path style="line-height:normal;text-indent:0;text-align:start;text-decoration-line:none;text-decoration-style:solid;text-decoration-color:#000;text-transform:none;block-progression:tb;isolation:auto;mix-blend-mode:normal" d="M230.535 197.677c-22.15 8.847-47.588 5.206-66.587-10.198l-6.91 8.857a78.415 78.415 0 0 0 9.314 6.483l-2.073 6.987 12.22 5.442 3.044-6.185a77.443 77.443 0 0 0 13.52 3.555l.737 7.62 13.335.267.49-6.823c4.95-.107 9.897-.69 14.776-1.752l3.14 6.945 12.684-4.196-1.882-7.2a77.727 77.727 0 0 0 5.405-2.56" color="#000" font-family="sans-serif" white-space="normal" overflow="visible" solid-color="#000000" fill="#f7d418"/><path style="line-height:normal;text-indent:0;text-align:start;text-decoration-line:none;text-decoration-style:solid;text-decoration-color:#000;text-transform:none;block-progression:tb;isolation:auto;mix-blend-mode:normal" d="M232.46 196.873c-.64.28-1.28.547-1.925.804" color="#000" font-family="sans-serif" white-space="normal" overflow="visible" opacity=".785" solid-color="#000000" fill="#0f0"/><path d="M212.91 99.37l5.91-18.074 5.73 18.073h18.8l-15.04 11.683 6.267 18.803-15.937-11.866-15.58 11.866 6.268-18.62-15.4-11.684h18.982zm-25.007 34.624c-17.66 37.177 16.707 39.47 83.822 88.553l5.556-6.447-66.49-51.63c-.43-.324-.218-1.02.317-1.04a.566.566 0 0 1 .368.123l66.554 51.68 1.038-1.206c-78.05-59.72-87.13-65.697-91.165-80.033zm92.971 81.549l-6.12 7.688 19.563 15.043c2.555 7.194 8.02 7.463 11.147 4.345 1.394-1.388 1.855-5.777-.655-7.8l-23.936-19.275zm6.12 8.357a.874.89 0 0 1 .875.89.874.89 0 0 1-.875.892.874.89 0 0 1-.875-.89.874.89 0 0 1 .875-.892zm4.7 3.565a.874.89 0 0 1 .874.892.874.89 0 0 1-.874.89.874.89 0 0 1-.874-.89.874.89 0 0 1 .874-.892zm4.59 3.566a.874.89 0 0 1 .874.892.874.89 0 0 1-.874.89.874.89 0 0 1-.874-.89.874.89 0 0 1 .874-.89z" fill="#f7d418" fill-rule="evenodd"/></svg>