<svg xmlns="http://www.w3.org/2000/svg" height="1050" width="1500" version="1"><title>Bali Flag</title><path d="M0 .002h1500v1049.994H0z" fill="#f95"/><switch transform="matrix(1 0 0 1 496.372 232.022)"><g><path fill="#5087c6" d="M253.17 1.854l251.4 182.656-96.03 295.54H97.787L1.763 184.51z"/><path d="M406.98 370.13v-13.714h-6.857v-3.999h6v-5.715h4.143v-6.143h-4.285v-6.284h-34.71v17.428h4.857v6.857h8.285v9.143h-3.715v-7h-7.285v-6.143h-4.428v-4.144h-5.572v-21.855h7.715v-4.286h6.857v-5.856s5.713-.571 6.713-3.429c1-2.858-2.285-4.286-2.285-4.286s1-.714 3.572-3.856c2.57-3.143 4.143-7.285 2.57-14.571-1.57-7.286-8.855-13.428-12.428-12.57-3.57.857-3.57 5.571-.57 6.143 3 .572 2.713-1 2.713-1s2 1.143 2.143 5.714c.143 4.571-7.57 8.571-10.855 10-3.285 1.429-3 6.856-3 6.856h-3.285v-5.714h-9.143v-5.857h5.713c2.715 0 4.572-1.714 4.715-3.143.143-1.429-1.857-2.714-1.857-2.714s7.43-10 7.43-19.714c0-9.714-3.572-13.143-7.715-13.285-4.143-.142-3.143 5.286-1.57 5.286 1.57 0 2.285-1.572 2.285-1.572s1.143 1.143 1.285 3.286c.145 2.143-2.57 4.714-6.428 8.286-3.857 3.571-4 10.428-4 10.428h-4.57v-4.714h-5.143v-6.857h4s4.713-2 4.713-3.714-1.143-3.714-1.143-3.714c.572-4 3-3.571 5.857-11 2.855-7.429-2.43-16.999-6.285-18.142-3.857-1.143-6.145 5.714-3.715 6.286 2.428.571 3.143-1.429 3.143-1.429s1.572.714 1.715 4c.143 3.286-2.857 4.286-6.143 6.714-3.286 2.428-2.859 6.429-2.859 6.429h-5.57v-6.857h-4.715v-5.857h5.143v-4.857s3.715-2 6.43-6.142c4.391-6.701-.002-16.429-3.145-17.857-3.143-1.428-4.713 2.286-3.57 4 1.143 1.714 2.428 0 2.428 0s.715 1.286.43 4.285-4.572 4.714-6.715 5.429c-2.143.715-1.285 6.428-1.285 6.428h-5.143v-5.143h-8v-4.286h3.857v-2.571h4.855v-4s-.713-.143 2.857-2c3.572-1.857 3.43-6 3.43-9.857 0-3.857-4-8.714-4.857-7.714-.857 1 .715 2.286.57 5.571-.143 3.286-2.285 4.286-3.713 4.286-1.43 0-1.715 3.857-1.715 3.857h-5.715v-2.857h3.572v-3.571s4.143-3.714 4.143-7.286c0-3.572-.43-8.714-2-8.714-1.572 0-1.857.857-1.572 4.285.287 3.428-3.57 5.714-5.428 5.429-1.858-.285-5.143.286-5.143.286s.285-1.429 1.715-1.714c1.428-.286 3.57-3.571 3.285-5.428-.287-1.857-4.43-1.714-4.43-1.714s0-2.714.145-4.857c.143-2.143-5.143-4.857-5.143-4.857v190h-110.81v-190.02s-5.285 2.715-5.143 4.857c.145 2.143.145 4.857.145 4.857s-4.143-.143-4.43 1.714c-.285 1.857 1.857 5.143 3.285 5.428 1.43.286 1.715 1.714 1.715 1.714s-3.285-.571-5.143-.286c-1.858.285-5.715-2-5.428-5.429.285-3.428 0-4.285-1.572-4.285-1.57 0-2 5.143-2 8.714 0 3.571 4.143 7.286 4.143 7.286v3.571h3.572v2.857h-5.715s-.285-3.857-1.715-3.857c-1.428 0-3.57-1-3.713-4.286-.145-3.286 1.428-4.571.57-5.571s-4.857 3.856-4.857 7.714c0 3.858-.143 8 3.43 9.857 3.57 1.857 2.857 2 2.857 2v4h4.855v2.571h3.857v4.286h-8v5.143h-5.143s.857-5.714-1.285-6.428c-2.142-.714-6.43-2.429-6.715-5.429-.285-3 .43-4.285.43-4.285s1.285 1.714 2.428 0-.428-5.428-3.57-4-7.535 11.156-3.145 17.857c2.715 4.143 6.43 6.142 6.43 6.142v4.857h5.143v5.857h-4.715v6.857h-5.57s.426-4-2.859-6.429c-3.285-2.429-6.285-3.428-6.143-6.714.142-3.286 1.715-4 1.715-4s.715 2 3.143 1.429c2.43-.571.143-7.429-3.715-6.286-3.855 1.143-9.141 10.713-6.285 18.142 2.857 7.429 5.285 7 5.857 11 0 0-1.143 2-1.143 3.714s2.713 3.714 4.713 3.714h4v6.857h-5.143v4.714h-4.57s-.143-6.857-4-10.428c-3.857-3.571-6.572-6.143-6.428-8.286.143-2.143 1.285-3.286 1.285-3.286s.715 1.572 2.285 1.572c1.572 0 2.572-5.428-1.57-5.286-4.142.142-7.715 3.571-7.715 13.285s7.43 19.714 7.43 19.714-2 1.285-1.857 2.714c.143 1.429 2 3.143 4.715 3.143h5.713v5.857h-9.143v5.714h-3.285s.285-5.428-3-6.856-10.998-5.429-10.855-10c.143-4.571 2.143-5.714 2.143-5.714s-.287 1.571 2.713 1 3-5.285-.57-6.143c-3.572-.857-10.857 5.284-12.428 12.57-1.572 7.286 0 11.429 2.57 14.571 2.572 3.143 3.572 3.856 3.572 3.856s-3.285 1.429-2.285 4.286c1 2.857 6.713 3.429 6.713 3.429v5.856h6.857v4.286h7.715v21.855h-5.572v4.144h-4.428v6.143h-7.285v7h-3.715v-9.143h8.285v-6.857h4.857v-17.428h-34.713v6.284h-4.285v6.143h4.143v5.715h6v3.999h-6.857v13.714h-36.57s2.187 7.635 5.832 18.431h3.553v6.785h6.552s.513 16.321 4.722 31.139c4.468 9.624 9.354 18.454 14.34 24.499 18.143 22 43.57 27.57 55.141 27.57 11.607 0 20.607-4.329 20.607-4.329s15.006.86 26.112-3.906c3.352-2.925 7.965-7.323 8.561-9.854.948-4.03.475-7.113.475-7.113l5.418-.625a27.364 27.364 0 0 0-3.056-4.42l-4.26 1.015s-.858-2.055-4.505-4.742c-4.504-3.319-11.617-3.557-11.617-3.557s-1.186-3.556.237-3.556c.277 0 .839-.045 1.595-.097 5.14-3.28 23.031-13.072 53.532-13.072h14.299c30.608 0 48.52 9.861 53.588 13.107.491.035.873.062 1.082.062 1.423 0 .237 3.556.237 3.556s-7.113.237-11.617 3.557c-3.646 2.688-4.505 4.742-4.505 4.742l-3.658-.871a29.763 29.763 0 0 0-3.1 4.341l4.86.561s-.474 3.083.475 7.113c.567 2.41 4.778 6.515 8.074 9.426 11.178 5.241 27.056 4.334 27.056 4.334s9 4.329 20.607 4.329c11.57 0 36.998-5.57 55.141-27.57 4.998-6.062 9.898-14.922 14.376-24.577 4.188-14.796 4.699-31.061 4.699-31.061h6.552v-6.785h3.539c3.646-10.796 5.832-18.431 5.832-18.431h-36.577z" fill="#f2c008"/><path d="M286.93 457.11c1.344-.684 2.636-1.552 3.454-2.614.743-.966 1.617-2.366 2.541-3.849.962-1.541 2.57-4.12 3.188-4.62 1.474-1.146 4.836-3.502 4.869-3.525a2.5 2.5 0 0 0 .867-3.026 2.478 2.478 0 0 0-.679-.914 2.487 2.487 0 0 0 .533-1.604 2.498 2.498 0 0 0-1.979-2.378c-.248-.053-6.025-1.23-13.432.413a2.47 2.47 0 0 0-.269-.555c-.563-.862-1.203-2.482-.926-3.26a2.5 2.5 0 0 0-4.253-2.468c-1.657 1.934-4.317 4.937-5.044 5.559l-.263.224c-.374-.869.547-3.505 1.616-5.242a2.502 2.502 0 0 0-3.203-3.571c-.161.076-3.978 1.907-6.628 4.369-.671.623-1.367 1.606-2.051 2.795-.155-.517-.258-.938-.265-1.143 0-.768.28-1.792.388-2.121a2.502 2.502 0 0 0-4.066-2.625c-1.504 1.384-3.216 3.145-4.269 4.814a60.202 60.202 0 0 0-1.529-2.599 2.5 2.5 0 0 0-2.112-1.162h-.516a2.5 2.5 0 0 0-2.112 1.162 59.89 59.89 0 0 0-1.529 2.6c-1.054-1.671-2.764-3.432-4.269-4.815a2.5 2.5 0 1 0-4.064 2.631c.105.323.386 1.348.386 2.124-.007.201-.109.619-.265 1.135-.684-1.189-1.38-2.173-2.051-2.796-2.65-2.462-6.467-4.293-6.628-4.369a2.498 2.498 0 0 0-3.199 3.575c1.066 1.733 1.987 4.369 1.613 5.238l-.263-.224c-.728-.623-3.388-3.625-5.044-5.559a2.499 2.499 0 0 0-4.253 2.468c.277.777-.363 2.397-.932 3.27-.053.08-.107.173-.15.259-.047.093-.079.189-.112.286-7.326-1.627-13.198-.53-13.791-.309a2.5 2.5 0 0 0-1.09 3.879 2.505 2.505 0 0 0-.676.912 2.5 2.5 0 0 0 .867 3.026c.033.023 3.396 2.379 4.871 3.527.617.503 2.225 3.078 3.186 4.618.924 1.482 1.798 2.883 2.541 3.849.818 1.063 2.11 1.931 3.454 2.614-5.021 3.246-12.904 12.664-13.857 13.814a2.501 2.501 0 0 0 2.279 4.07c.106-.016 2.679-.394 7.467-1.989 2.1-.7 3.891-.636 5.965-.562 1.915.068 3.896.139 6.174-.408 1.674-.401 3.973-1.542 6.275-2.868.101.117.202.233.324.331.008.007.699.563 1.405 1.257.2.393.479 1.592.588 2.557a2.501 2.501 0 0 0 4.484 1.222c.579-.767 1.535-1.758 2.032-2.007.658-.329 2.878-.928 4.614-1.31 1.094 2.091 2.415 4.225 3.678 6.118a2.501 2.501 0 0 0 2.08 1.113h.516c.836 0 1.616-.418 2.08-1.113 1.263-1.894 2.584-4.027 3.678-6.118 1.736.382 3.956.98 4.614 1.31.543.271 1.546 1.358 2.032 2.007a2.5 2.5 0 0 0 4.484-1.224c.109-.963.389-2.162.588-2.555.707-.693 1.397-1.25 1.405-1.257.122-.098.224-.215.324-.331 2.303 1.326 4.602 2.467 6.275 2.868 2.278.547 4.259.477 6.174.408 2.074-.074 3.865-.139 5.965.562 4.788 1.596 7.36 1.974 7.467 1.989a2.501 2.501 0 0 0 2.279-4.07c-.95-1.13-8.84-10.55-13.86-13.8zM241.87 49.113l-16.93-12.476 21.05.046 7.17-20.551 7.2 20.551 21.03-.046-17.21 12.283 6.43 20.121-17.45-11.782L235.72 69.8z" fill="#f2c008"/><path d="M252.22 16.463l7.201 20.55c.141.402.52.67.945.669l21.027-.045a1.001 1.001 0 0 1-.583-1.814l-17.205 12.283a.998.998 0 0 0-.371 1.118l6.43 20.121a.998.998 0 0 1 1.512-1.132l-17.453-11.781a1 1 0 0 0-1.144.017L235.141 68.99a1 1 0 0 1 1.543 1.097L242.83 49.4a.999.999 0 0 0-.365-1.089l-16.924-12.476a.999.999 0 0 1-.596 1.805l21.045.045a1 1 0 0 0 .946-.67l7.17-20.55a1 1 0 0 1-.943.67 1.001 1.001 0 0 1-.96-.672zm-6.23 19.22l-21.045-.045a1 1 0 0 0-.596 1.806l16.924 12.476a1 1 0 0 1-.365-1.089l-6.146 20.687a1 1 0 0 0 1.543 1.097l17.438-12.541c-.34.244-.797.251-1.144.017l17.453 11.781a1 1 0 0 0 1.512-1.132l-6.43-20.121a.999.999 0 0 1-.371 1.118l17.205-12.283a1 1 0 0 0-.583-1.814l-21.027.045a.998.998 0 0 1 .945.669l-7.201-20.55a.999.999 0 0 0-1.887.001l-7.17 20.55a.978.978 0 0 1 .94-.672z" fill="#5087c6"/><path fill="#f2c008" d="M222.58 236.48h-7.36v3h-2.72v20.16h6.81v67.56h-9.81v9.54h6.27v8.42h74.79v-8.42h6.27v-9.54h-9.81v-67.56h6.81v-20.16h-2.72v-3h-7.36v-6.66h-61.17z"/><path d="M291.56 345.16v-8.422a1 1 0 0 1-1 1h6.266a1 1 0 0 0 1-1v-9.54a1 1 0 0 0-1-1h-9.807a1 1 0 0 1 1 1v-67.564a1 1 0 0 1-1 1h6.811a1 1 0 0 0 1-1v-20.16a1 1 0 0 0-1-1h-2.725a1 1 0 0 1 1 1v-2.997a1 1 0 0 0-1-1h-7.355a1 1 0 0 1 1 1v-6.662a1 1 0 0 0-1-1h-61.174a1 1 0 0 0-1 1v6.662a1 1 0 0 1 1-1h-7.355a1 1 0 0 0-1 1v2.997a1 1 0 0 1 1-1h-2.725a1 1 0 0 0-1 1v20.16a1 1 0 0 0 1 1h6.811a1 1 0 0 1-1-1v67.56a1 1 0 0 1 1-1h-9.81a1 1 0 0 0-1 1v9.535a1 1 0 0 0 1 1h6.268a1 1 0 0 1-1-1v8.422a1 1 0 0 0 1 1h74.795c.56 0 1-.45 1-1zm-74.79 0v-8.422a1 1 0 0 0-1-1h-6.27a1 1 0 0 1 1 1v-9.54a1 1 0 0 1-1 1h9.809a1 1 0 0 0 1-1v-67.564a1 1 0 0 0-1-1h-6.811a1 1 0 0 1 1 1v-20.16a1 1 0 0 1-1 1h2.725a1 1 0 0 0 1-1v-2.997a1 1 0 0 1-1 1h7.355a1 1 0 0 0 1-1v-6.662a1 1 0 0 1-1 1h61.174a1 1 0 0 1-1-1v6.662a1 1 0 0 0 1 1h7.355a1 1 0 0 1-1-1v2.997a1 1 0 0 0 1 1h2.725a1 1 0 0 1-1-1v20.16a1 1 0 0 1 1-1h-6.811a1 1 0 0 0-1 1v67.56a1 1 0 0 0 1 1h9.807a1 1 0 0 1-1-1v9.535a1 1 0 0 1 1-1h-6.266a1 1 0 0 0-1 1v8.422a1 1 0 0 1 1-1h-74.795c.56 0 1.01.44 1.01 1z" fill="#5087c6"/><path fill="#f2c008" d="M269.54 281.11h-5v-3.75h-4.75v-3.75h-13.25v3.75h-4.75v3.75h-5v64.05h32.75z"/><path d="M270.54 345.16v-64.046a1 1 0 0 0-1-1h-5a1 1 0 0 1 1 1v-3.75a1 1 0 0 0-1-1h-4.75a1 1 0 0 1 1 1v-3.75a1 1 0 0 0-1-1h-13.25a1 1 0 0 0-1 1v3.75a1 1 0 0 1 1-1h-4.75a1 1 0 0 0-1 1v3.75a1 1 0 0 1 1-1h-5a1 1 0 0 0-1 1v64.046a1 1 0 0 0 1 1h32.75c.55 0 1-.45 1-1zm-32.75 0v-64.046a1 1 0 0 1-1 1h5a1 1 0 0 0 1-1v-3.75a1 1 0 0 1-1 1h4.75a1 1 0 0 0 1-1v-3.75a1 1 0 0 1-1 1h13.25a1 1 0 0 1-1-1v3.75a1 1 0 0 0 1 1h4.75a1 1 0 0 1-1-1v3.75a1 1 0 0 0 1 1h5a1 1 0 0 1-1-1v64.046a1 1 0 0 1 1-1h-32.75c.55 0 1 .44 1 1z" fill="#5087c6"/><path fill="#f2c008" d="M220.85 345.02h64.639v8.942H220.85z"/><path d="M285.48 352.96h-64.639a1 1 0 0 1 1 1v-8.942a1 1 0 0 1-1 1h64.639a1 1 0 0 1-1-1v8.942c0-.55.45-1 1-1zm0-8.94h-64.639a1 1 0 0 0-1 1v8.942a1 1 0 0 0 1 1h64.639a1 1 0 0 0 1-1v-8.942c0-.55-.44-1-1-1z" fill="#5087c6"/><path fill="#f2c008" d="M213.63 353.73h79.064v8.941H213.63z"/><path d="M292.7 361.67h-79.064a1 1 0 0 1 1 1v-8.941a1 1 0 0 1-1 1H292.7a1 1 0 0 1-1-1v8.941c0-.55.44-1 1-1zm0-8.94h-79.064a1 1 0 0 0-1 1v8.941a1 1 0 0 0 1 1H292.7a1 1 0 0 0 1-1v-8.941c0-.55-.45-1-1-1z" fill="#5087c6"/><path fill="#f2c008" d="M206.7 362.43h92.936v8.942H206.7z"/><path d="M299.63 370.38h-92.936a1 1 0 0 1 1 1v-8.942a1 1 0 0 1-1 1h92.936a1 1 0 0 1-1-1v8.942c0-.56.45-1 1-1zm0-8.95h-92.936a1 1 0 0 0-1 1v8.942a1 1 0 0 0 1 1h92.936a1 1 0 0 0 1-1v-8.942c0-.55-.44-1-1-1z" fill="#5087c6"/><path d="M276.9 206.12v-5.602c9.732 0 14.77-6.014 16.647-11.86 1.877-5.846-1.195-12.027-3.757-11.192-2.561.835-.341 4.009-.341 4.009.512 4.01-2.714 5.479-5.464 5.346-3.416-.167-7.086 3.675-7.086 3.675v-6.632h-47.466v6.632s-3.67-3.842-7.086-3.675c-2.75.134-5.976-1.336-5.464-5.346 0 0 2.22-3.173-.341-4.009-2.562-.835-5.635 5.346-3.757 11.192 1.878 5.846 6.915 11.86 16.647 11.86v5.602H276.9z" fill="#f2c008"/><path d="M277.9 206.12v-5.602a1 1 0 0 1-1 1c8.495 0 15.074-4.693 17.6-12.554 1.459-4.542.171-9.407-1.917-11.486-.963-.959-2.064-1.301-3.102-.962-1.145.374-1.604 1.105-1.786 1.653-.559 1.672.781 3.659.936 3.88a1.006 1.006 0 0 1-.173-.447c.16 1.252-.098 2.252-.765 2.975-.789.853-2.157 1.319-3.658 1.246-3.828-.187-7.695 3.813-7.857 3.983a1 1 0 0 1 1.723.691v-6.632a1 1 0 0 0-1-1h-47.466a1 1 0 0 0-1 1v6.632a1 1 0 0 1 1.723-.691c-.163-.17-4.03-4.17-7.858-3.983-1.501.073-2.869-.393-3.658-1.246-.667-.722-.925-1.723-.765-2.975-.021.161-.08.314-.173.447.155-.221 1.495-2.208.936-3.88-.183-.548-.642-1.279-1.786-1.653-1.038-.338-2.139.003-3.102.962-2.088 2.079-3.376 6.944-1.917 11.486 2.525 7.861 9.104 12.554 17.6 12.554a1 1 0 0 1-1-1v5.602a1 1 0 0 0 1 1h47.466c.54 0 .99-.44.99-1zm-47.47 0v-5.602a1 1 0 0 0-1-1c-10.929 0-14.617-7.809-15.695-11.166-1.335-4.155.061-8.1 1.424-9.458.234-.232.684-.604 1.071-.478.427.139.487.318.509.385.181.541-.353 1.634-.678 2.1a1.006 1.006 0 0 0-.173.447c-.296 2.324.533 3.776 1.281 4.585 1.186 1.283 3.139 1.987 5.224 1.886 2.418-.118 5.378 2.391 6.314 3.367a1 1 0 0 0 1.722-.692v-6.632a1 1 0 0 1-1 1h47.466a1 1 0 0 1-1-1v6.632a1 1 0 0 0 1.723.691c.937-.976 3.896-3.485 6.314-3.367 2.086.101 4.038-.604 5.224-1.886.748-.809 1.577-2.261 1.281-4.585a1.006 1.006 0 0 0-.173-.447c-.375-.542-.851-1.586-.677-2.101.022-.067.082-.245.509-.384.387-.126.836.246 1.07.478 1.363 1.358 2.759 5.302 1.424 9.458-1.078 3.357-4.767 11.166-15.695 11.166a1 1 0 0 0-1 1v5.602a1 1 0 0 1 1-1h-47.466a.979.979 0 0 1 1.02.98z" fill="#5087c6"/><path d="M271.15 183.87v-4.917c9.732 0 14.77-5.054 16.647-9.967 1.878-4.914-1.195-10.107-3.757-9.405-2.561.702-.341 3.369-.341 3.369.512 3.37-2.714 4.604-5.464 4.492-3.416-.141-7.086 3.088-7.086 3.088v-5.479h-35.97v5.479s-3.67-3.229-7.086-3.088c-2.75.112-5.976-1.123-5.464-4.492 0 0 2.22-2.667-.341-3.369-2.562-.702-5.635 4.492-3.757 9.405 1.878 4.913 6.915 9.967 16.647 9.967v4.917h35.97z" fill="#f2c008"/><path d="M272.15 183.87v-4.917a1 1 0 0 1-1 1c12.208 0 16.362-7.42 17.581-10.61 1.447-3.786.275-7.53-1.427-9.407-1.056-1.164-2.341-1.645-3.528-1.32-1.231.337-1.694 1.057-1.865 1.6-.466 1.483.769 3.07 1.021 3.373a1.01 1.01 0 0 1-.22-.489c.132.873-.039 1.561-.525 2.103-.746.833-2.244 1.308-3.909 1.24-3.773-.155-7.625 3.193-7.787 3.336a1 1 0 0 1 1.66.751v-5.479a1 1 0 0 0-1-1h-35.97a1 1 0 0 0-1 1v5.479a.999.999 0 0 1 1.661-.751c-.162-.143-4.015-3.491-7.788-3.336-1.666.068-3.164-.407-3.91-1.24-.485-.542-.657-1.23-.524-2.103a1 1 0 0 1-.22.489c.252-.303 1.487-1.89 1.021-3.373-.171-.543-.633-1.263-1.866-1.6-1.187-.325-2.473.156-3.528 1.32-1.702 1.876-2.874 5.621-1.427 9.407 1.219 3.19 5.374 10.61 17.582 10.61a1 1 0 0 1-1-1v4.917a1 1 0 0 0 1 1h35.97c.57 0 1.02-.45 1.02-1zm-35.97 0v-4.917a.997.997 0 0 0-1-1c-10.965 0-14.642-6.521-15.713-9.324-1.095-2.864-.305-5.865 1.041-7.35.251-.277.902-.903 1.518-.734.266.073.457.179.486.271.091.286-.275 1.039-.651 1.496a.999.999 0 0 0-.219.487c-.221 1.458.128 2.751 1.012 3.737 1.151 1.285 3.2 1.997 5.481 1.904 2.968-.122 6.352 2.811 6.385 2.84a1 1 0 0 0 1.659-.752v-5.479a1 1 0 0 1-1 1h35.97a1 1 0 0 1-1-1v5.479a.999.999 0 0 0 1.66.751c.033-.029 3.417-2.962 6.385-2.84 2.281.093 4.33-.619 5.481-1.904.884-.986 1.233-2.279 1.012-3.737a1.004 1.004 0 0 0-.22-.49c-.374-.455-.74-1.208-.649-1.494.029-.092.22-.198.486-.271.615-.168 1.267.458 1.518.734 1.346 1.484 2.135 4.485 1.04 7.35-1.071 2.803-4.748 9.324-15.713 9.324a1.003 1.003 0 0 0-1 1v4.917a1 1 0 0 1 1-1h-35.97c.54-.01.99.43.99.99z" fill="#5087c6"/><path d="M267.82 165.05v-4.777c8.78 0 13.324-5.054 15.019-9.967 1.694-4.914-1.078-10.107-3.389-9.405s-.308 3.369-.308 3.369c.462 3.37-2.448 4.604-4.93 4.492-3.082-.141-6.393 3.088-6.393 3.088v-5.12h-29.312v5.12s-3.311-3.229-6.393-3.088c-2.481.112-5.392-1.123-4.93-4.492 0 0 2.003-2.667-.308-3.369-2.311-.702-5.083 4.492-3.389 9.405 1.694 4.913 6.238 9.967 15.019 9.967v4.777h29.311z" fill="#f2c008"/><path d="M268.82 165.05v-4.777a.997.997 0 0 1-1 1c7.698 0 13.666-3.978 15.964-10.641 1.324-3.841.176-7.848-1.577-9.668-.936-.971-2.018-1.333-3.048-1.021-1.105.336-1.538 1.021-1.706 1.535-.479 1.463.657 3.082.89 3.391a1 1 0 0 1-.191-.465c.13.944-.063 1.705-.571 2.263-.674.738-1.946 1.157-3.322 1.095-3.475-.159-6.988 3.227-7.136 3.371a1 1 0 0 1 1.698.715v-5.12a1 1 0 0 0-1-1h-29.312a1 1 0 0 0-1 1v5.12a1 1 0 0 1 1.698-.715c-.148-.144-3.661-3.53-7.136-3.371-1.375.063-2.648-.357-3.322-1.095-.509-.558-.701-1.319-.572-2.263a1 1 0 0 1-.191.465c.232-.31 1.368-1.928.89-3.391-.168-.515-.601-1.199-1.707-1.535-1.03-.313-2.112.05-3.047 1.021-1.753 1.82-2.902 5.827-1.577 9.668 2.298 6.663 8.266 10.641 15.964 10.641a.997.997 0 0 1-1-1v4.777a1 1 0 0 0 1 1h29.312c.57 0 1.02-.45 1.02-1zm-29.31 0v-4.777a.997.997 0 0 0-1-1c-9.809 0-13.109-6.499-14.073-9.293-1.131-3.28-.022-6.436 1.126-7.628.181-.188.643-.611 1.026-.494.127.039.347.121.387.242.101.307-.228 1.083-.59 1.571-.1.135-.167.296-.189.462-.266 1.943.438 3.184 1.076 3.883 1.079 1.182 2.907 1.834 4.89 1.744 2.173-.099 4.814 1.991 5.649 2.805a1 1 0 0 0 1.698-.715v-5.12a1 1 0 0 1-1 1h29.312a1 1 0 0 1-1-1v5.12a1 1 0 0 0 1.698.715c.837-.813 3.486-2.903 5.648-2.805 1.983.09 3.811-.563 4.89-1.744.639-.699 1.343-1.94 1.077-3.883a1.015 1.015 0 0 0-.191-.465c-.36-.486-.689-1.262-.588-1.569.039-.121.259-.204.387-.242.384-.117.845.307 1.025.494 1.149 1.192 2.258 4.348 1.127 7.628-.964 2.794-4.264 9.293-14.073 9.293a1.003 1.003 0 0 0-1 1v4.777a1 1 0 0 1 1-1H238.51c.51-.01.96.44.96.99z" fill="#5087c6"/><path d="M263.51 146.73v-3.796c8.125 0 12.33-4.375 13.898-8.628 1.567-4.253-.998-8.75-3.136-8.142-2.139.607-.285 2.916-.285 2.916.428 2.917-2.266 3.986-4.562 3.889-2.852-.122-5.916 2.673-5.916 2.673v-4.471h-20.685v4.471s-3.064-2.795-5.916-2.673c-2.296.097-4.989-.972-4.562-3.889 0 0 1.854-2.309-.285-2.916-2.138-.607-4.703 3.889-3.136 8.142 1.568 4.252 5.773 8.628 13.898 8.628v3.796h20.687z" fill="#f2c008"/><path d="M264.51 146.73v-3.796a1 1 0 0 1-1 1c7.146 0 12.693-3.47 14.837-9.282 1.202-3.264.249-6.68-1.314-8.367-.907-.979-2.012-1.373-3.033-1.083-1.085.308-1.5.961-1.657 1.454-.429 1.343.646 2.776.865 3.05a.997.997 0 0 1-.209-.481c.108.739-.034 1.315-.436 1.76-.598.663-1.783 1.04-3.095.985-3.226-.138-6.494 2.808-6.632 2.933a1 1 0 0 1 1.674.739v-4.471a1 1 0 0 0-1-1h-20.685a1 1 0 0 0-1 1v4.471a1 1 0 0 1 1.674-.739c-.138-.125-3.406-3.071-6.633-2.933-1.31.055-2.496-.322-3.093-.985-.402-.445-.544-1.021-.436-1.76a1.006 1.006 0 0 1-.209.481c.22-.273 1.294-1.707.866-3.05-.157-.493-.573-1.146-1.657-1.454-1.021-.29-2.126.104-3.033 1.083-1.564 1.688-2.518 5.103-1.315 8.367 2.144 5.813 7.69 9.282 14.837 9.282a1 1 0 0 1-1-1v3.796a1 1 0 0 0 1 1h20.685c.52.02.97-.43.97-.98zm-20.69 0v-3.796a1 1 0 0 0-1-1c-9.043 0-12.076-5.576-12.96-7.974-.914-2.481-.216-5.105.905-6.316.371-.4.752-.594 1.019-.518.203.058.287.123.3.142a.008.008 0 0 0-.002-.004c.065.172-.211.806-.52 1.19a.997.997 0 0 0-.209.481c-.195 1.328.126 2.5.929 3.39 1.001 1.11 2.745 1.725 4.664 1.644 2.001-.085 4.432 1.712 5.2 2.413a1 1 0 0 0 1.674-.739v-4.471a1 1 0 0 1-1 1h20.685a1 1 0 0 1-1-1v4.471a1 1 0 0 0 1.674.739c.771-.699 3.209-2.498 5.199-2.413 1.92.082 3.663-.533 4.665-1.644.802-.89 1.123-2.062.929-3.39a.989.989 0 0 0-.21-.481c-.346-.438-.579-1.032-.52-1.19a.008.008 0 0 1-.002.004c.014-.019.098-.084.301-.142.267-.076.647.118 1.019.518 1.121 1.21 1.819 3.835.905 6.316-.884 2.397-3.917 7.974-12.96 7.974a1 1 0 0 0-1 1v3.796a1 1 0 0 1 1-1H242.82c.56-.01 1 .44 1 .99z" fill="#5087c6"/><g><path d="M259.56 131.17v-3.345c7.574 0 11.494-3.81 12.957-7.513 1.461-3.703-.932-7.618-2.924-7.089-1.993.529-.266 2.539-.266 2.539.398 2.541-2.112 3.471-4.253 3.386-2.658-.106-5.515 2.327-5.515 2.327v-4.095h-12.78v4.095s-2.856-2.433-5.515-2.327c-2.141.085-4.651-.846-4.253-3.386 0 0 1.728-2.01-.266-2.539-1.992-.529-4.385 3.386-2.924 7.089 1.463 3.703 5.383 7.513 12.957 7.513v3.345h12.775z" fill="#f2c008"/><path d="M260.56 131.17v-3.345a1 1 0 0 1-1 1c9.63 0 12.92-5.696 13.887-8.146 1.14-2.886.239-5.795-1.078-7.275-.894-1.004-1.998-1.422-3.032-1.147-1.069.284-1.47.91-1.617 1.386-.387 1.246.641 2.527.85 2.771a1.002 1.002 0 0 1-.229-.497c.089.562-.018 1.002-.324 1.346-.523.588-1.662.936-2.9.887-3.015-.12-6.074 2.455-6.203 2.565a1.001 1.001 0 0 1 1.648.762v-4.095a1 1 0 0 0-1-1h-12.78a1 1 0 0 0-1 1v4.095a1.001 1.001 0 0 1 1.649-.762c-.129-.11-3.188-2.685-6.203-2.565-1.239.049-2.377-.299-2.9-.887-.307-.344-.413-.784-.325-1.346a1.002 1.002 0 0 1-.229.497c.21-.244 1.236-1.525.85-2.771-.148-.476-.548-1.103-1.618-1.386-1.033-.274-2.138.144-3.031 1.147-1.318 1.48-2.218 4.389-1.079 7.275.968 2.449 4.257 8.146 13.887 8.146a1 1 0 0 1-1-1v3.345a1 1 0 0 0 1 1h12.78c.53-.01.98-.46.98-1.01zm-12.78 0v-3.345a1 1 0 0 0-1-1c-8.402 0-11.21-4.812-12.027-6.88-.792-2.006-.241-4.14.712-5.211.363-.407.755-.616 1.025-.544.195.052.253.104.254.105a.164.164 0 0 1-.038-.074c.017.155-.213.606-.456.893-.118.14-.198.313-.227.494-.182 1.157.097 2.189.806 2.985.933 1.048 2.605 1.629 4.474 1.555 2.229-.089 4.802 2.068 4.828 2.09a1.001 1.001 0 0 0 1.647-.762v-4.095a1 1 0 0 1-1 1h12.78a1 1 0 0 1-1-1v4.095a1.001 1.001 0 0 0 1.648.762c.024-.021 2.598-2.178 4.826-2.089 1.869.074 3.542-.507 4.475-1.555.709-.796.987-1.829.807-2.985a1.002 1.002 0 0 0-.229-.497c-.24-.284-.47-.734-.453-.89a.162.162 0 0 1-.037.074s.059-.053.254-.104c.27-.072.662.137 1.024.544.953 1.071 1.504 3.205.712 5.211-.816 2.068-3.624 6.88-12.026 6.88a1 1 0 0 0-1 1v3.345a1 1 0 0 1 1-1h-12.78a.965.965 0 0 1 1.02.97z" fill="#5087c6"/></g><g><path d="M257.94 102.04v6.827s2.589-2.265 4.998-2.166c1.939.079 4.215-.788 3.854-3.152 0 0-1.565-1.871.241-2.363s3.974 3.151 2.649 6.598c-1.325 3.446-4.878 6.992-11.742 6.992v2.605h-9.546v-2.605c-6.864 0-10.417-3.545-11.742-6.992-1.324-3.447.844-7.09 2.649-6.598 1.807.492.241 2.363.241 2.363-.361 2.364 1.914 3.23 3.854 3.152 2.409-.099 4.998 2.166 4.998 2.166v-6.827h9.548z" fill="#f2c008"/><path d="M256.94 102.04v6.827a.999.999 0 0 0 1.658.753c.64-.556 2.66-1.986 4.299-1.919 1.7.069 3.234-.47 4.104-1.441.68-.76.949-1.75.779-2.861a.988.988 0 0 0-.222-.491c-.203-.249-.405-.649-.396-.79a.2.2 0 0 1-.057.109s.047-.038.189-.077c.189-.052.497.12.784.437.881.975 1.395 2.95.669 4.838-.734 1.909-3.257 6.35-10.809 6.35a1 1 0 0 0-1 1v2.605a1 1 0 0 1 1-1h-9.546a1 1 0 0 1 1 1v-2.605a1 1 0 0 0-1-1c-7.552 0-10.075-4.441-10.809-6.351-.726-1.888-.212-3.862.669-4.837.287-.317.594-.489.783-.437.143.039.19.076.19.077a.201.201 0 0 1-.056-.109c.009.141-.192.541-.399.793a.993.993 0 0 0-.218.487c-.17 1.111.1 2.101.78 2.861.869.971 2.402 1.51 4.103 1.441 1.649-.068 3.663 1.362 4.299 1.919a.998.998 0 0 0 1.658-.753v-6.827a1 1 0 0 1-1 1h9.546c-.55 0-.99-.45-.99-1zm-9.55 0v6.827a.999.999 0 0 1 1.658-.753c-.118-.104-2.921-2.526-5.697-2.412-1.076.043-2.07-.261-2.531-.776-.276-.309-.372-.709-.293-1.226a.996.996 0 0 1-.221.491c.195-.233 1.149-1.457.776-2.646-.143-.454-.522-1.051-1.522-1.324-.951-.259-1.969.114-2.793 1.025-1.251 1.384-2.114 4.132-1.053 6.896 1.838 4.779 6.577 7.633 12.676 7.633a1 1 0 0 1-1-1v2.605a1 1 0 0 0 1 1h9.546a1 1 0 0 0 1-1v-2.605a1 1 0 0 1-1 1c6.1 0 10.838-2.854 12.676-7.633 1.062-2.764.198-5.512-1.053-6.896-.823-.911-1.842-1.285-2.793-1.025-1 .272-1.38.87-1.521 1.324-.373 1.189.581 2.413.776 2.646a.997.997 0 0 1-.222-.491c.078.516-.018.917-.294 1.226-.461.515-1.454.82-2.531.776-2.775-.114-5.578 2.309-5.696 2.412a1 1 0 0 1 1.658.753v-6.827a1 1 0 0 0-1-1h-9.546c-.59 0-1.04.45-1.04 1z" fill="#5087c6"/></g><g><path d="M258.85 102.04v-2.334h1.797s-.898.539.538-.18c1.436-.719 1.977-3.233 1.977-6.825s-3.233-5.568-4.85-4.669c-1.617.899 1.077 2.514 1.077 2.514s.719.359.18 1.976c-.539 1.617-3.771 1.078-3.771 1.078s2.155-12.214 2.335-15.447c.18-3.233-3.054-4.67-3.054-4.67h-3.829s-3.233 1.437-3.054 4.67c.179 3.233 2.335 15.447 2.335 15.447s-3.232.539-3.771-1.078c-.539-1.617.18-1.976.18-1.976s2.693-1.616 1.077-2.514c-1.616-.898-4.85 1.077-4.85 4.669 0 3.592.54 6.106 1.977 6.825 1.437.719.538.18.538.18h1.797v2.334h11.351z" fill="#f2c008"/><path d="M259.85 102.04v-2.334a1 1 0 0 1-1 1h1.797a1 1 0 0 1-.515-1.858c-.92.552-.855 1.137-.639 1.531.479.872 1.285.468 2.139.041 1.726-.864 2.529-3.316 2.529-7.72 0-2.642-1.481-4.455-2.868-5.271-1.204-.708-2.5-.811-3.468-.273-.882.49-1.023 1.185-1.03 1.554-.021 1.327 1.586 2.396 2.079 2.691-.089-.041-.124-.111-.128-.119.029.063.063.353-.126.921-.162.485-1.707.566-2.659.408a.998.998 0 0 1 .82 1.16c.089-.501 2.168-12.31 2.349-15.565.216-3.877-3.488-5.569-3.646-5.639a1 1 0 0 0-.406-.086h-3.829a.997.997 0 0 0-.406.086c-.157.07-3.861 1.762-3.646 5.639.181 3.255 2.26 15.064 2.349 15.565a1.001 1.001 0 0 1 .82-1.16c-1.106.18-2.509.042-2.659-.408-.19-.569-.156-.858-.127-.921-.003.008-.039.078-.195.156.561-.333 2.168-1.401 2.146-2.729-.006-.37-.148-1.064-1.03-1.554-.967-.538-2.263-.436-3.467.273-1.387.815-2.868 2.628-2.868 5.271 0 4.403.804 6.856 2.529 7.72.854.427 1.66.831 2.139-.041.216-.394.281-.979-.639-1.531a1 1 0 0 1-.515 1.858h1.797a1 1 0 0 1-1-1v2.334a1 1 0 0 0 1 1h11.372c.57 0 1.02-.45 1.02-1zm-11.37 0v-2.334a1 1 0 0 0-1-1h-1.797a1 1 0 0 0-.515 1.858c.059.036.135.083.158.101-.408-.294-.485-.799-.246-1.241.239-.442.705-.654 1.174-.474-.021-.008-.148-.06-.662-.317-.532-.266-1.424-1.39-1.424-5.931 0-1.799.972-3.012 1.882-3.547.561-.33 1.156-.43 1.481-.249.057.032.078.052.079.052a.343.343 0 0 1-.07-.277c-.068.212-.62.711-1.115 1.008-.085.04-1.404.779-.614 3.15.787 2.359 4.467 1.817 4.884 1.748a.998.998 0 0 0 .82-1.16c-.021-.122-2.146-12.192-2.321-15.329-.14-2.515 2.435-3.689 2.461-3.7a1 1 0 0 1-.406.086h3.829a.997.997 0 0 1-.406-.086c.103.046 2.6 1.213 2.462 3.7-.175 3.137-2.3 15.207-2.321 15.329a.997.997 0 0 0 .82 1.16c.417.07 4.098.612 4.884-1.748.791-2.371-.527-3.11-.681-3.187-.437-.268-.979-.758-1.048-.971a.345.345 0 0 1-.069.277s.021-.021.079-.052c.325-.181.921-.081 1.481.249.909.535 1.882 1.748 1.882 3.547 0 4.541-.893 5.665-1.424 5.931a10.89 10.89 0 0 1-.662.317c.47-.181.935.031 1.174.474.239.442.162.947-.246 1.241.023-.017.099-.065.158-.101a1 1 0 0 0-.515-1.858h-1.797a1 1 0 0 0-1 1v2.334a1 1 0 0 1 1-1h-11.372c.57 0 1.02.45 1.02 1z" fill="#5087c6"/></g><g><path d="M284.8 229.74v-5.927c10.237 0 15.536-6.466 17.512-12.752 1.976-6.286-1.257-12.932-3.951-12.034-2.694.898-.359 4.311-.359 4.311.539 4.311-2.854 5.892-5.747 5.748-3.593-.179-7.454 3.952-7.454 3.952v-6.915h-63.278v6.915s-3.861-4.131-7.454-3.952c-2.893.144-6.286-1.437-5.747-5.748 0 0 2.335-3.413-.359-4.311-2.694-.898-5.927 5.748-3.951 12.034 1.976 6.286 7.274 12.752 17.512 12.752v5.927h63.284z" fill="#f2c008"/><path d="M285.8 229.74v-5.927a1 1 0 0 1-1 1c8.915 0 15.818-5.029 18.466-13.452 1.548-4.925.166-10.135-2.063-12.327-.984-.967-2.105-1.307-3.158-.956-1.172.391-1.645 1.147-1.835 1.712-.592 1.759.806 3.876.967 4.112a1.007 1.007 0 0 1-.167-.441c.174 1.392-.113 2.502-.854 3.3-.842.908-2.282 1.403-3.852 1.325-4.01-.2-8.063 4.085-8.234 4.267a1 1 0 0 1 1.731.683v-6.915a1 1 0 0 0-1-1h-63.278a1 1 0 0 0-1 1v6.915a1 1 0 0 1 1.731-.683c-.17-.182-4.224-4.467-8.234-4.267-1.569.078-3.009-.417-3.852-1.325-.74-.797-1.027-1.908-.853-3.3-.02.158-.077.309-.167.441.161-.236 1.558-2.353.967-4.112-.19-.565-.664-1.322-1.835-1.712-1.053-.351-2.174-.011-3.158.956-2.23 2.192-3.612 7.402-2.064 12.327 2.647 8.423 9.55 13.452 18.466 13.452a1 1 0 0 1-1-1v5.927a1 1 0 0 0 1 1h63.278c.53-.01.97-.46.97-1.01zm-63.27 0v-5.927a1 1 0 0 0-1-1c-11.526 0-15.419-8.428-16.558-12.052-1.374-4.372.022-8.791 1.558-10.301.244-.24.714-.621 1.123-.485.473.157.545.372.572.453.218.647-.404 1.881-.721 2.345a.998.998 0 0 0-.167.44c-.313 2.499.573 4.048 1.372 4.908 1.24 1.336 3.265 2.069 5.417 1.962 2.557-.127 5.685 2.582 6.674 3.637a1.002 1.002 0 0 0 1.73-.684v-6.915a1 1 0 0 1-1 1h63.278a1 1 0 0 1-1-1v6.915a1 1 0 0 0 1.731.683c.989-1.054 4.116-3.764 6.674-3.636 2.152.107 4.178-.626 5.417-1.962.799-.86 1.685-2.41 1.372-4.908a.998.998 0 0 0-.167-.44c-.406-.601-.918-1.764-.721-2.346.027-.08.1-.294.571-.451.409-.136.879.245 1.123.485 1.536 1.51 2.932 5.929 1.558 10.301-1.139 3.624-5.032 12.052-16.558 12.052a1 1 0 0 0-1 1v5.927a1 1 0 0 1 1-1H221.53a.979.979 0 0 1 1.02.98z" fill="#5087c6"/></g><g><path d="M187.3 113.14c-3.366-3.703-13.127-8.415-16.493-6.059-3.366 2.356-5.722 13.127-5.722 17.503 0 .258.015.502.039.738-2.306 1.228-5.185 2.984-8.327 4.976-3.17-3.211-6.544-6.061-9.551-7.397 0 0-8.751 3.365-12.117 10.771-2.919 6.42-3.559 11.316-3.677 12.506a199.689 199.689 0 0 0-5.943 4.008 11.702 11.702 0 0 0-1.15-1.368c-4.712-4.712-18.176-8.078-18.176-8.078-9.761 6.731-9.088 18.176-8.415 21.542.256 1.28 2.169 3.535 4.736 5.836a211.062 211.062 0 0 0-3.793 3.379c-4.752-3.057-12.051-5.177-12.051-5.177s-6.731 10.098-7.068 17.166c-.13 2.729.952 5.151 2.785 7.103a81.27 81.27 0 0 0-1.942 3.458 196.84 196.84 0 0 0-10.267-2.819H58.052s-6.059 1.346-5.723 8.751c.278 6.13 7.243 13.408 12.69 16.689a14.69 14.69 0 0 0-1.583.14c-9.088 1.346-13.463 9.761-13.463 9.761s-3.703 7.741-.337 14.136c3.366 6.395 16.156 7.742 16.156 7.742s1.806-.577 4.245-1.417c.195 1.222.413 2.348.65 3.378-1.392 1.024-2.416 1.984-2.876 2.751-2.02 3.366-8.078 11.107-4.712 15.483 3.366 4.376 23.562 3.029 25.244 1.683 1.682-1.346 6.395-7.068 6.395-13.126s-4.375-14.474-4.375-14.474c-3.758 0-8.702 1.667-13.03 3.766-.107-.682-.214-1.353-.321-2.019 2.944-1.173 5.446-2.343 5.946-3.093 1.346-2.02 4.039-8.751 4.039-12.117 0-3.366-.337-6.059-.337-6.059s-3.774-2.064-8.673-3.876c.058-.363.114-.727.174-1.089 4.553-.645 9.142-1.859 11.528-2.776 4.376-1.683 7.405-12.454 7.405-12.454s-4.885-4.551-10.809-6.943a358.95 358.95 0 0 0 1.578-1.838 19.543 19.543 0 0 0 7.211 1.377c8.078 0 20.195-10.771 20.195-10.771s-6.794-4.983-11.466-9.003a329.132 329.132 0 0 1 3.567-3.883c3.158 2.168 6.408 3.799 8.571 3.799 5.386 0 15.819-9.088 15.819-9.088s-1.357-6.608-3.828-12.131a627.567 627.567 0 0 0 6.116-3.831c2.633 3.109 7.478 6.57 15.552 5.191 13.8-2.356 19.185-11.107 19.185-11.107s-3.771-5.399-8.676-10.929c2.813-1.84 5.256-3.445 7.139-4.683.81.602 1.537.802 1.537.802s7.405-1.01 14.474-1.01 11.444-4.039 11.444-4.039-4.03-8.07-7.39-11.78z" fill="#0db14b"/><path d="M180.54 104.36s-3.877-4.962-7.598-3.566-4.961 6.822-2.325 7.752c2.636.93 6.977-.155 6.977-.155s-3.256 4.187.775 6.047c4.031 1.86 6.202-.31 6.202-.31s-1.085 4.807 1.551 6.357c2.636 1.55 5.271.93 5.271.93s-1.551 6.667 3.721 6.512c5.272-.155 8.063-6.513 5.582-9.303-2.481-2.79-4.496-2.946-4.496-2.946s-.465-5.272-3.256-6.512c-2.791-1.24-3.877-.155-3.877-.155s-.46-7.43-8.52-4.64z" fill="#fff"/><path d="M181.33 103.74c-.177-.226-4.379-5.521-8.737-3.887-2.874 1.078-4.401 4.076-4.379 6.349.016 1.604.791 2.831 2.072 3.283 2.886 1.019 7.363-.08 7.552-.127l-1.032-1.584c-.196.252-1.898 2.527-1.343 4.81.202.828.797 1.978 2.489 2.759 4.611 2.128 7.219-.402 7.328-.511l-1.683-.927c-.051.226-1.208 5.541 2.02 7.439 2.947 1.734 5.884 1.071 6.007 1.042l-1.203-1.2c-.038.162-.898 3.979.926 6.209.871 1.063 2.148 1.578 3.798 1.529 3.565-.105 5.875-2.554 6.85-4.812.992-2.299.782-4.658-.549-6.156-2.672-3.005-4.919-3.259-5.167-3.278l.919.909c-.053-.6-.61-5.9-3.846-7.338-3.323-1.476-4.829-.109-4.99.052l1.705.645c-.009-.143-.249-3.526-2.844-5.254-1.773-1.182-4.132-1.276-7.009-.28l1.1.33zm8.44 5.98l-.042.039c.007-.006.783-.576 2.806.323 1.84.817 2.548 4.382 2.666 5.687l.076.842.843.066c-.001 0 1.697.218 3.825 2.613.797.896.879 2.48.208 4.034-.73 1.692-2.446 3.527-5.072 3.605-1.012.03-1.729-.231-2.192-.797-1.003-1.225-.719-3.656-.525-4.489l.365-1.569-1.568.369c-.018.004-2.3.496-4.536-.818-1.636-.963-1.336-4.135-1.082-5.276l.746-3.353-2.429 2.427c-.062.058-1.782 1.629-5.076.109-.786-.362-1.238-.824-1.382-1.411-.282-1.145.611-2.638.979-3.116l1.75-2.276c.002-.002-2.783.694-2.783.694-1.128.281-4.478.861-6.401.182-.601-.212-.732-.887-.738-1.417-.016-1.617 1.132-3.726 3.081-4.457 2.951-1.107 6.424 3.202 6.458 3.246l.44.563.675-.234c2.249-.778 4.01-.762 5.235.048 1.77 1.169 1.965 3.699 1.967 3.725l.153 2.189 1.53-1.53z" fill="#5087c6"/><path d="M147.67 116.61c2.604-2.09 8.683.155 9.303 3.101.62 2.946 1.396 4.186 1.396 4.186s7.907-3.411 10.854 2.481c2.947 5.892 2.016 9.923 2.016 9.923s8.372 6.667 4.651 9.768c-3.721 3.101-10.233 2.016-12.714-1.55s-1.86-7.442-1.86-7.442-5.892.93-8.683-2.481c-2.791-3.411-2.481-6.512-2.481-6.512s-13.5-2.64-2.49-11.48z" fill="#fff"/><path d="M148.29 117.39c.922-.74 2.693-.799 4.51-.149 1.698.607 2.979 1.683 3.188 2.676.638 3.032 1.437 4.368 1.526 4.51l.456.728.789-.34c.287-.123 7.078-2.959 9.563 2.01 2.725 5.449 1.943 9.218 1.935 9.256l-.134.608c-.001.005.486.394.486.394 2.009 1.603 5.205 4.915 5.228 6.981.005.502-.183.895-.593 1.237-1.521 1.268-3.718 1.816-6.026 1.505-2.238-.302-4.191-1.37-5.227-2.858-2.206-3.171-1.699-6.682-1.693-6.717l.208-1.353c0-.003-1.351.21-1.351.21-.052.008-5.364.792-7.753-2.126-2.466-3.013-2.269-5.674-2.26-5.786l.077-.895c0-.007-.88-.179-.88-.179-1.464-.289-5.387-1.525-5.931-3.74-.4-1.56.94-3.62 3.86-5.97zm.86 10.59c-.014.143-.316 3.555 2.703 7.244 3.119 3.811 9.349 2.877 9.612 2.835l-1.143-1.146c-.028.174-.653 4.318 2.027 8.171 1.35 1.94 3.817 3.323 6.601 3.699 2.862.386 5.623-.325 7.574-1.951.871-.726 1.325-1.693 1.313-2.796-.042-3.687-5.374-8.039-5.981-8.522l.352 1.007c.041-.179.976-4.453-2.096-10.595-2.665-5.329-9.109-4.261-12.144-2.952l1.244.388c-.003-.005-.7-1.175-1.265-3.862-.428-2.032-2.59-3.475-4.471-4.147-1.956-.699-4.673-.942-6.436.473-3.628 2.912-5.167 5.608-4.574 8.013.946 3.838 6.822 5.092 7.488 5.222l-.8-1.07z" fill="#5087c6"/><path d="M114.33 133.82s-4.496 4.341-3.411 10.698c1.085 6.357 9.613 6.047 9.613 6.047s5.737 3.411 5.427 5.117c-.31 1.706 1.86 7.287 3.101 7.597 1.241.31 4.807.621 4.807.621s9.147 3.721 10.543-.465c1.396-4.186 1.396-8.373-2.636-10.233-4.032-1.86-5.271-2.326-5.271-2.326s3.101-5.271-2.946-8.837c-6.047-3.566-11.163-2.946-11.163-2.946s1.4-8.06-8.06-5.27z" fill="#fff"/><path d="M113.64 133.1c-.199.192-4.863 4.786-3.702 11.586.975 5.71 7.383 6.996 10.635 6.878l-.547-.14c2.505 1.491 4.864 3.459 4.951 4.13 0 0-.002-.02.003-.052-.365 2.006 1.866 8.252 3.842 8.747 1.302.326 4.814.634 4.963.646l-.291-.07c.667.271 6.608 2.605 9.901 1.09.963-.443 1.643-1.192 1.968-2.166 2.387-7.161-.404-10.184-3.166-11.458-4.019-1.854-5.287-2.334-5.339-2.354l.511 1.443c.036-.061 3.528-6.178-3.3-10.206-6.267-3.696-11.568-3.104-11.791-3.078l1.105 1.163c.026-.15.612-3.71-1.666-5.739-1.636-1.457-4.215-1.68-7.665-.662l-.235.069-.16.17zm8.88 6.98h-.002c.048-.006 4.887-.518 10.538 2.814 5 2.949 2.851 7.019 2.59 7.473l-.587 1.021c-.002.004 1.101.418 1.101.418.011.004 1.281.487 5.204 2.298 2.938 1.355 3.646 4.387 2.106 9.009-.151.455-.439.766-.907.981-2.133.982-6.723-.48-8.311-1.126l-.14-.057-.15-.013c-.97-.084-3.697-.356-4.65-.595a.331.331 0 0 1 .089.034c-.833-.52-2.695-5.128-2.448-6.481.378-2.079-3.534-4.749-5.899-6.155l-.253-.151-.294.011c-.312.011-7.668.195-8.591-5.216-.985-5.769 3.079-9.771 3.12-9.811l-.412.24c2.698-.796 4.691-.716 5.762.232 1.45 1.283 1.036 3.887 1.031 3.913l-.22 1.318c-.01.01 1.32-.15 1.32-.15z" fill="#5087c6"/><path d="M95.573 158.94s2.016-5.736-5.582-4.806c-7.598.93-7.752 10.078-5.892 14.419 1.86 4.341 8.062 4.806 11.008 4.806 2.946 0 5.427-.155 5.427-.155s-1.24 8.838 2.946 10.543 6.978.62 6.978.62 3.565 5.271 8.217 2.636c4.652-2.635 6.202-9.303 2.791-11.164-3.411-1.861-7.598-1.86-7.598-1.86s1.705-7.752-5.271-10.078c-6.976-2.326-6.977-.775-6.977-.775s1.71-7.6-6.047-4.18z" fill="#fff"/><path d="M96.516 159.27c.039-.11.926-2.707-.575-4.573-1.118-1.39-3.161-1.914-6.072-1.558-2.787.341-4.963 1.745-6.295 4.059-2.042 3.55-1.744 8.597-.394 11.747 2.018 4.709 8.338 5.412 11.927 5.412 2.943 0 5.464-.155 5.489-.157l-1.053-1.137c-.138.984-1.211 9.666 3.559 11.609 4.503 1.834 7.588.676 7.717.626l-1.19-.372c1.412 2.088 5.223 5.391 9.538 2.946 3.053-1.73 5.167-5.229 5.141-8.509-.017-1.987-.878-3.592-2.364-4.402-3.594-1.96-7.896-1.982-8.077-1.982l.977 1.215c.657-2.985.262-9.176-5.932-11.242-5.486-1.829-7.02-1.393-7.695-.906-.375.27-.598.673-.598 1.079l1.976.219c.087-.388.792-3.836-1.227-5.498-1.34-1.103-3.425-1.043-6.198.176l1.324 1.24zm6.104 3.85c0 .355-.192.528-.259.56.041-.02 1.05-.459 5.919 1.164 6.022 2.008 4.671 8.636 4.611 8.917l-.022.104v1.108h1c.039 0 3.982.028 7.119 1.738 1.079.588 1.314 1.773 1.322 2.663.018 2.184-1.394 5.204-4.127 6.752-3.781 2.143-6.771-2.144-6.896-2.328l-.448-.656c-.001-.002-.741.286-.741.286-.094.035-2.519.901-6.238-.614-2.843-1.158-2.648-7.234-2.333-9.478l.17-1.213-1.223.076c-.024.001-2.486.153-5.364.153-3.096 0-8.522-.545-10.089-4.2-1.126-2.627-1.407-7.012.29-9.961 1.02-1.772 2.636-2.806 4.804-3.071 2.148-.263 3.625.022 4.271.826.798.993.252 2.64.246 2.656l-.765 2.175 2.111-.928c1.966-.865 3.43-1.03 4.12-.465.915.749.697 2.844.548 3.519l.144-.338 1.84.56z" fill="#5087c6"/><g><path d="M92.316 193.05s8.528-.466 8.373 5.116c-.155 5.582-2.326 7.908-4.807 7.288-2.481-.62-6.357-3.411-6.357-3.411s-4.186 1.24-6.201-.465c-2.015-1.705-4.497-5.892-4.497-5.892l-5.116-.62s-1.861 3.101-5.582 3.101-6.047-4.031-6.047-4.031-2.171 1.706-4.807.621c-2.636-1.085-6.666-8.683 2.481-9.768 9.147-1.085.62-6.047 6.047-5.737 5.427.31 5.892 2.791 5.892 2.791s4.65-5.581 10.388-1.395c5.738 4.186 4.807 10.543 4.807 10.543l5.425 1.87z" fill="#fff"/><path d="M92.371 194.04c1.228-.064 4.777.118 6.415 1.715.636.621.931 1.397.904 2.375-.083 2.962-.786 5.159-1.93 6.026-.485.368-1.02.473-1.635.319-2.264-.566-5.979-3.226-6.016-3.252l-.398-.287-.47.139c-1.021.3-3.963.837-5.271-.27-1.866-1.579-4.259-5.598-4.283-5.638l-.251-.424-.489-.059-5.116-.62-.644-.078-.334.556c-.063.103-1.64 2.615-4.725 2.615-3.086 0-5.161-3.498-5.182-3.533l-.579-.993c-.001-.002-.904.708-.904.708-.066.05-1.767 1.323-3.808.482-1.039-.428-2.83-2.75-2.549-4.801.286-2.087 2.75-2.81 4.767-3.049l.795-.095.082-.796c.022-.206.603-5.091 4.995-4.84 4.423.252 4.97 2 4.975 2.017l.518 1.823c.012.048 1.225-1.408 1.225-1.408.165-.195 4.136-4.798 9.03-1.228 5.156 3.762 4.439 9.357 4.406 9.594l-.114.817c0 .003.78.271.78.271l5.427 1.861.184.063.195-.02zm-4.493-2.71c.042-.284.947-7.006-5.207-11.496-5.137-3.749-9.929-.617-11.745 1.563l1.751.456c-.063-.333-.783-3.26-6.817-3.605-5.047-.288-6.851 4.213-7.099 6.633l.877-.891c-5.183.615-6.306 3.249-6.513 4.764-.386 2.815 1.746 6.089 3.769 6.922 3.14 1.292 5.698-.675 5.805-.759l-1.484-.286c.107.185 2.664 4.531 6.913 4.531 4.238 0 6.352-3.439 6.439-3.586l-.978.478 5.116.62-.74-.483c.105.177 2.592 4.352 4.711 6.145 2.36 1.997 6.65.804 7.131.661l-.869-.147c.165.119 4.063 2.911 6.699 3.57 1.206.301 2.357.071 3.329-.666 1.677-1.272 2.618-3.888 2.72-7.564.043-1.547-.465-2.848-1.511-3.866-2.605-2.536-7.701-2.288-7.917-2.276l.379.053-5.427-1.861.663 1.12z" fill="#5087c6"/></g><g><path d="M75.571 215.53s2.636-4.186 8.063-2.326c5.427 1.86 9.924 7.442 8.838 9.613-1.086 2.171-7.906 4.807-10.543 3.256-2.637-1.551-3.411-2.481-3.411-2.481s-2.482 3.566-5.272 2.636c-2.79-.93-7.441-5.737-7.441-5.737s-2.792 8.528-9.148 8.838c-6.356.31-10.233-.155-10.698-1.706-.465-1.551-.155-5.117-.155-5.117s-3.411-1.24-3.256-4.806c.155-3.566 1.396-9.148 5.271-9.458 3.875-.31 6.822 3.876 6.822 3.876s2.016.465 4.187.155c2.171-.31 3.101-.155 3.101-.155s-.619-4.031 3.102-4.341c3.721-.31 7.594.79 10.54 7.77z" fill="#fff"/><path d="M76.417 216.06l-.003.005c.092-.143 2.316-3.487 6.895-1.917 3.778 1.295 7.137 4.592 8.083 6.905.28.683.279 1.127.185 1.315-.372.744-2.26 1.986-4.661 2.697-1.94.574-3.657.629-4.481.145-2.39-1.406-3.15-2.26-3.157-2.268l-.842-.964c-.008-.009-.739 1.042-.739 1.042-.02.028-2.126 2.928-4.135 2.258-2.096-.699-5.792-4.195-7.039-5.483l-1.153-1.191-.516 1.575c-.026.078-2.661 7.877-8.247 8.15-9.153.447-9.674-.935-9.691-.994-.336-1.119-.198-3.803-.117-4.743l.066-.764-.721-.262c-.106-.04-2.719-1.054-2.599-3.823.132-3.04 1.198-8.252 4.352-8.505 3.27-.261 5.899 3.418 5.925 3.455l.22.313.373.086c.09.021 2.224.503 4.553.17 1.936-.276 2.797-.158 2.805-.157l1.337.193a62.05 62.05 0 0 0-.195-1.333c-.001-.01-.206-1.5.529-2.424.361-.454.906-.705 1.667-.769 3.115-.26 6.685.386 9.539 7.145l.746 1.766 1.021-1.65zm-11.472-9.28c-1.329.111-2.364.625-3.077 1.53-1.272 1.614-.944 3.864-.93 3.959l1.152-1.138c-.111-.019-1.147-.171-3.406.152-1.963.28-3.802-.136-3.82-.14l.593.398c-.134-.19-3.326-4.648-7.72-4.297-4.245.339-5.981 5.601-6.191 10.411-.148 3.4 2.495 5.274 3.913 5.79l-.654-1.026c-.034.384-.312 3.806.193 5.49.619 2.064 4.12 2.787 11.705 2.417 6.964-.34 9.927-9.151 10.05-9.526l-1.669.384c.494.51 4.906 5.011 7.844 5.99 3.46 1.153 6.291-2.842 6.41-3.013l-1.589.068c.091.109.964 1.11 3.673 2.703 1.813 1.067 4.577.489 6.062.049 2.349-.695 5.079-2.115 5.882-3.72.274-.547.475-1.507-.123-2.967-1.136-2.776-4.919-6.542-9.286-8.039-4.885-1.675-8.175 1.059-9.233 2.739l1.768.144c-3.409-8.05-8.222-8.62-11.547-8.34z" fill="#5087c6"/></g><g><path d="M76.5 241.58s1.55-3.875 6.356-4.496c4.806-.621 9.613 1.241 8.218 5.737-1.395 4.496-4.961 8.217-5.892 8.217H79.6l-4.342-.31s-.619 9.923-3.41 11.628c-2.791 1.705-6.513.775-6.513.775s1.396 6.202-3.101 5.737c-4.497-.465-11.938-5.737-9.303-10.543 2.635-4.806 8.837-6.977 8.837-6.977s-2.945-6.512 2.481-7.907c5.426-1.395 12.251-1.87 12.251-1.87z" fill="#fff"/><path d="M77.429 241.95l-.002.005c.057-.137 1.426-3.347 5.558-3.881 2.917-.376 5.628.263 6.745 1.591.627.747.755 1.681.39 2.857-1.268 4.085-4.334 7.268-5.076 7.532 0 0 .051-.018.139-.018h-5.582c.071.002-4.271-.308-4.271-.308l-1.006-.072-.063 1.007c-.245 3.905-1.317 9.85-2.934 10.837-2.406 1.47-5.716.667-5.749.659l-1.575-.394.356 1.583c.166.748.446 3.105-.42 4.077-.123.139-.499.56-1.602.446-2.763-.286-6.955-2.707-8.43-5.519-.664-1.265-.697-2.459-.099-3.549 2.423-4.419 8.232-6.494 8.291-6.514l1.031-.361-.45-.995c-.368-.821-1.152-3.31-.372-4.931.382-.793 1.099-1.315 2.191-1.596 5.271-1.355 12.001-1.827 12.068-1.832l.627-.042.235-.61zm-13.427.52c-1.678.431-2.854 1.331-3.499 2.672-1.342 2.798.285 6.46.355 6.615l.581-1.356c-.268.094-6.595 2.356-9.383 7.44-.926 1.69-.898 3.571.082 5.44 1.839 3.507 6.653 6.233 9.995 6.579 1.756.182 2.767-.502 3.305-1.108 1.698-1.912.964-5.446.875-5.843l-1.218 1.19c.169.042 4.164 1.01 7.277-.892 3.079-1.882 3.778-10.676 3.887-12.419l-1.069.935 4.342.31c.071.002 5.653.002 5.653.002 1.705 0 5.473-4.495 6.847-8.921.716-2.307-.023-3.85-.77-4.737-1.585-1.886-4.854-2.762-8.531-2.288-5.328.688-7.085 4.936-7.157 5.117l.861-.626c-.285.03-6.979.5-12.433 1.9z" fill="#5087c6"/></g><g><path d="M92.469 257.08s4.497-6.512 9.613-3.256 5.271 7.907 5.271 7.907-1.396 6.667-4.962 7.288c-3.566.621-7.752.62-7.752.62s7.908 4.186 8.218 7.442c.31 3.256-1.396 11.784-11.009 10.389-9.613-1.395-16.435-1.396-15.35-6.667 1.085-5.272 5.271-6.202 5.271-6.202s-6.821-6.667 1.551-9.613c8.372-2.946 9.303-2.791 9.303-2.791s-3.103-2.33-.157-5.12z" fill="#fff"/><path d="M93.292 257.65c.161-.232 4.017-5.676 8.253-2.98 4.573 2.91 4.802 6.933 4.81 7.102l.02-.244c-.352 1.67-1.786 6.096-4.154 6.507-3.44.599-7.54.605-7.581.605l-.468 1.884c3.086 1.635 7.512 4.78 7.69 6.653.175 1.841-.385 5.359-2.646 7.511-1.719 1.637-4.149 2.24-7.224 1.794l-3.895-.527c-5.117-.666-9.158-1.191-10.34-2.85-.237-.332-.523-.911-.278-2.1.933-4.531 4.37-5.394 4.516-5.429l-.224.025h2.454l-1.755-1.715c-.772-.759-2.685-3.156-2.255-5.086.266-1.194 1.423-2.159 3.439-2.868 7.517-2.646 8.896-2.733 8.951-2.736l2.789-.125c.064 0-2.168-1.674-2.168-1.674-.005-.003-.973-.76-1.024-1.747-.03-.593.292-1.214.956-1.843l.076-.072.06-.06zm-.503 3.56c-.979-.164-5.869 1.451-9.799 2.834-2.714.955-4.305 2.411-4.729 4.327-.755 3.412 2.665 6.802 2.811 6.945l.482-1.691c-.197.043-4.833 1.138-6.034 6.977-.298 1.446-.093 2.679.609 3.663 1.688 2.368 5.892 2.915 11.71 3.672l3.866.522c3.713.539 6.704-.242 8.89-2.323 2.994-2.85 3.44-7.23 3.258-9.149-.343-3.61-7.345-7.49-8.746-8.231l-.468 1.884c.174 0 4.314-.007 7.923-.635 4.115-.716 5.612-7.317 5.769-8.068l.025-.118-.004-.12c-.007-.211-.236-5.219-5.734-8.718-4.69-2.984-9.229 1.005-10.973 3.531l.135-.158c-1.116 1.057-1.647 2.208-1.577 3.42.109 1.888 1.645 3.092 1.82 3.223l.754-1.77z" fill="#5087c6"/></g><g><path d="M92.056 270.14s3.448 3.203 5.42 3.696c1.972.493 6.16.493 6.16.493s-2.957 2.957-4.928 2.957-3.942 1.725-5.421 1.725h-6.16s5.175 3.942 6.899 3.942c1.724 0 3.696-.739 3.696-.739l-1.232 4.436s17.741.246 26.611-11.827c8.87-12.073 11.58-35.728 11.58-35.728l6.899 9.856s-3.449-21.437-.985-27.35c0 0 7.049-2.625 4.928-7.638-4.289-10.134 6.159-19.219 13.798-11.334 0 0-5.666 4.189-1.231 7.392 4.435 3.203 9.116-1.971 8.131-8.624-.985-6.653-5.914-10.595-14.784-10.595-8.87 0-16.016 15.03-16.262 21.683-.246 6.653-4.928 18.973-8.131 23.654-3.203 4.681-8.132 10.349-8.132 10.349s2.218.985 6.16-1.479 4.928-6.653 4.928-6.653-3.941 20.451-10.102 21.929c-6.161 1.478-13.306 1.971-13.306 1.971s-1.726 6.653-7.639 6.653h-6.406l-.509 1.22z" fill="#f2c008"/><path d="M91.375 270.87c.373.346 3.699 3.393 5.858 3.933 2.067.517 6.227.523 6.403.523a1.002 1.002 0 0 1-.707-1.707c-1.108 1.105-3.151 2.664-4.221 2.664-1.279 0-2.468.558-3.518 1.05-.708.332-1.44.675-1.903.675h-6.16a1 1 0 0 0-.606 1.796c1.277.973 5.592 4.146 7.505 4.146 1.884 0 3.96-.771 4.047-.803a1 1 0 0 1-1.314-1.204l-1.232 4.436a.999.999 0 0 0 .95 1.267c.745.01 18.36.111 27.431-12.235 8.925-12.148 11.656-35.229 11.768-36.206a.999.999 0 0 1-1.813.459l6.899 9.856a1 1 0 0 0 1.807-.732c-.947-5.885-2.98-22.172-1.05-26.807a.997.997 0 0 1-.574.552c.171-.064 4.216-1.6 5.55-4.694.588-1.365.571-2.802-.05-4.271-2.25-5.316-.102-9.84 2.847-11.792 2.981-1.975 6.462-1.397 9.312 1.543a.998.998 0 0 1 .124-1.5c-.342.253-3.348 2.558-3.332 5.396.007 1.39.717 2.605 2.11 3.61 1.939 1.401 4.142 1.542 6.042.386 2.82-1.714 4.292-5.72 3.664-9.967-1.093-7.382-6.695-11.448-15.773-11.448-9.878 0-17.02 16.114-17.261 22.646-.231 6.261-4.679 18.336-7.957 23.126-3.133 4.579-8.012 10.201-8.061 10.257a1 1 0 0 0 .348 1.57c.277.123 2.827 1.124 7.096-1.544 4.243-2.652 5.327-7.084 5.372-7.272a1 1 0 0 1-1.956-.418c-1.478 7.663-5.324 20.179-9.353 21.146-6.004 1.441-13.07 1.941-13.141 1.946a1 1 0 0 0-.899.747c-.063.239-1.617 5.904-6.671 5.904H92.55a1 1 0 0 0-.929.629l-.492 1.232a.919.919 0 0 0 .213 1.09zm1.173-.96h6.406c5.289 0 7.942-4.842 8.606-7.402a1 1 0 0 1-.899.747c.295-.02 7.3-.515 13.47-1.997 6.596-1.583 10.434-20.554 10.85-22.712a1 1 0 0 0-1.956-.418c-.008.035-.959 3.831-4.484 6.034-3.356 2.097-5.227 1.411-5.246 1.404.304.118.52.371.598.688a.997.997 0 0 1-.228.892c.05-.057 5.004-5.765 8.203-10.44 3.453-5.047 8.056-17.444 8.305-24.182.222-6.009 7.04-20.72 15.262-20.72 8.081 0 12.851 3.369 13.795 9.741.589 3.977-.999 6.917-2.724 7.965-1.215.738-2.54.635-3.833-.298-.856-.619-1.276-1.272-1.281-1.997-.011-1.553 1.817-3.256 2.522-3.781a1.002 1.002 0 0 0 .122-1.499c-4.207-4.343-8.881-3.787-11.853-1.819-3.73 2.471-6.16 8.155-3.584 14.239.406.959.424 1.84.058 2.695-.99 2.308-4.381 3.604-4.415 3.617a1.002 1.002 0 0 0-.572.552c-2.544 6.106.778 27.007.921 27.894a1 1 0 0 1 1.807-.731l-6.899-9.856a1 1 0 0 0-1.813.459c-.027.234-2.784 23.532-11.392 35.249-8.467 11.525-25.62 11.422-25.792 11.419a.999.999 0 0 1 .95 1.267l1.232-4.436a.998.998 0 0 0-1.314-1.204c-.018.007-1.829.676-3.345.676-.83 0-3.924-1.933-6.293-3.738a1 1 0 0 1-.606 1.796h6.16c.909 0 1.805-.42 2.752-.864.902-.423 1.835-.86 2.668-.86 2.318 0 5.302-2.917 5.635-3.25a1 1 0 0 0-.707-1.707c-.041 0-4.089-.006-5.917-.463-1.252-.313-3.721-2.288-4.982-3.458a1 1 0 0 1 .249 1.104l.492-1.232c-.187.39-.554.64-.964.64z" fill="#5087c6"/></g><g><path d="M411.08 272.79c6.029-.081 16.091-.33 20.361-1.106 6.293-1.144 13.159-4.291 17.163-10.012s8.01-16.591 8.01-16.591-3.146 1.716-6.865 3.719c-3.719 2.003-4.577 6.293-4.577 6.293s-.857-3.146.858-6.293c1.715-3.147 6.865-3.433 9.727-11.156 2.862-7.723-1.145-28.892-1.145-28.892s-2.289 8.582-5.436 12.3-4.291 12.301-4.291 12.301-1.144-8.01.858-12.301 6.579-13.159 7.151-23.17c.572-10.011-7.438-28.892-7.438-28.892s0 7.438-2.574 12.587-2.002 14.303-2.574 18.593c-.572 4.29.572 7.724.572 7.724s-.858-.572-2.575-4.291c-1.717-3.719.858-12.015-1.144-26.031-2.002-14.016-11.729-16.306-13.731-16.877-2.002-.571-4.862-6.866-4.862-6.866s-1.145 4.291.285 6.58c1.43 2.289.286 5.435.286 11.442 0 6.007 6.294 12.873 6.294 12.873s-8.868-7.438-9.727-10.298c-.859-2.86.286-2.86-1.144-12.3-1.43-9.44-14.875-14.017-16.878-16.877-2.003-2.86-4.005-7.438-4.005-7.438s-2.574 9.44-1.43 12.873 7.151 8.296 9.726 10.584c2.575 2.288 3.433 5.436 3.433 5.436s-13.73-9.726-16.02-13.159c-2.29-3.433 0-9.154-1.144-14.875s-12.301-12.301-16.306-17.164c-4.005-4.863-10.584-8.868-10.584-8.868s1.431 2.002 4.291 4.577c2.86 2.575 4.291 8.296 5.435 12.873 1.144 4.577 5.722 13.445 5.722 13.445s-6.294-4.577-9.727-6.865c-3.433-2.288-3.146-6.58-4.862-14.303-1.716-7.723-12.873-14.017-16.592-16.019-3.719-2.002-6.007-5.435-6.007-5.435s3.433 10.87 6.579 13.731c3.146 2.861 6.865 11.728 6.865 11.728s-2.288-5.149-9.439-11.156c-7.151-6.007-15.161-8.582-18.021-9.154-2.86-.572-8.296-7.724-8.296-7.724-2.001 4.863 2.001 12.586 4.861 16.019 2.86 3.433 8.582 7.724 8.582 7.724s-2.289-1.43-4.291-1.43c-2.002 0-16.02.572-16.02.572s4.291 7.438 10.584 10.584c6.293 3.146 10.298.858 15.161.858 4.863 0 13.445 2.288 16.878 4.863 3.433 2.575 12.014 6.293 12.014 6.293l-4.29.286s-6.294-2.002-13.159-6.293c-6.865-4.291-14.875-2.002-14.875-2.002s3.433 5.721 4.577 7.151c1.144 1.43 7.438 5.149 12.586 6.293 5.148 1.144 18.309 0 23.743 2.574 5.434 2.574 13.159 9.726 13.159 9.726s-4.291-.858-7.438-3.146c-3.147-2.288-9.727-4.863-17.736-6.007-8.009-1.144-11.156.858-11.156.858s9.155 7.724 10.3 8.296c1.145.572 8.296 4.005 11.729 4.863 3.433.858 13.444 2.288 17.735 2.574 2.788.186 6.413 2.542 8.616 4.171-3.828-1.675-11.433-1.256-14.909-1.024-4.291.286-11.729-.858-11.729-.858s4.577 3.146 6.579 4.291c2.002 1.145 10.298 8.295 17.45 9.726 7.152 1.431 16.305 0 24.314 5.721s9.439 17.736 9.439 17.736-3.719-8.868-10.298-14.875c-6.579-6.007-24.601-4.005-24.601-4.005s2.574 2.575 4.863 6.865c2.289 4.29 9.439 8.868 14.875 11.442s16.305 10.87 20.023 18.594c3.718 7.724-2.86 25.745-2.86 25.745s.572-14.589-2.003-24.601c-2.575-10.012-17.735-15.733-17.735-15.733s2.575 7.438 2.575 10.584 1.43 14.303 5.435 20.596c4.005 6.293 5.436 12.301 2.86 17.164-1.839 3.473-11.701 6.654-17.188 8.188-2.18-.488-3.655-1.929-4.6-3.34 4.208-3.039 12.759-10.005 13.239-16.732.639-8.942-2.555-18.948-2.555-18.948s-7.665 16.181-10.22 20.226c-1.721 2.725-2.861 8.633-3.423 12.203-2.411-.225-7.366-.776-11.819-1.845-6.16-1.479-10.102-21.929-10.102-21.929s.985 4.189 4.928 6.653c3.943 2.464 6.16 1.479 6.16 1.479s-4.929-5.667-8.132-10.349c-3.203-4.682-7.885-17.001-8.131-23.654-.246-6.653-7.392-21.683-16.262-21.683-8.87 0-13.799 3.942-14.784 10.595-.985 6.653 3.696 11.827 8.131 8.624 4.435-3.203-1.231-7.392-1.231-7.392 7.639-7.885 18.087 1.2 13.798 11.334-2.121 5.013 4.928 7.638 4.928 7.638 2.464 5.914-.985 27.35-.985 27.35l6.899-9.856s2.71 23.654 11.58 35.728a27.812 27.812 0 0 0 3.074 3.512c1.954 5.484 6.465 14.73 15.159 16.941 12.561 3.193 32.999-2.342 32.999-2.342s-12.774.426-18.31-2.555c-5.536-2.981-8.941-5.962-12.561-6.813-3.62-.851-10.646-8.09-13.413-9.154-2.767-1.064 5.354 2.241 10.808 4.428 3.858 3.213 10.229 6.643 19.85 6.643 18.097 0 28.529-11.496 28.529-11.496s-23.845.213-32.361 1.277c-5.726.716-11.246-.204-14.258-.883l-.051-.05s4.188 0 6.16-.493c.58-.13 1.32-.53 2.05-1.02z" fill="#f2c008"/><path d="M411.1 273.79c7.068-.095 16.367-.366 20.526-1.122 7.652-1.391 14.142-5.19 17.804-10.423 4.032-5.761 7.963-16.37 8.129-16.819a1.002 1.002 0 0 0-1.417-1.224l-6.861 3.716c-4.086 2.2-5.044 6.784-5.083 6.978a.999.999 0 0 1 1.945-.066c-.007-.024-.719-2.818.771-5.552.521-.954 1.483-1.63 2.704-2.487 2.18-1.531 5.166-3.629 7.082-8.8 2.925-7.893-.934-28.549-1.1-29.425a1 1 0 0 0-1.948-.071c-.022.083-2.27 8.409-5.233 11.912-3.298 3.897-4.471 12.452-4.519 12.814a1 1 0 0 1 1.981-.009c-.012-.077-1.077-7.768.774-11.737l.536-1.136c2.156-4.547 6.171-13.011 6.707-22.4.579-10.128-7.185-28.56-7.515-29.34a1 1 0 0 0-1.921.391c0 .072-.033 7.268-2.469 12.14-1.925 3.851-2.169 9.626-2.365 14.267-.078 1.849-.146 3.445-.306 4.642-.596 4.468.565 8.023.615 8.172a1 1 0 0 1 1.503-1.149c.022.013-.737-.661-2.222-3.877-.687-1.487-.574-4.076-.418-7.66.19-4.396.452-10.417-.644-18.094-.928-6.494-4.152-14.827-14.249-17.642l-.198-.056c-.932-.266-2.938-3.482-4.227-6.318a1 1 0 0 0-1.876.156c-.129.482-1.21 4.785.403 7.367.747 1.196.61 2.88.402 5.43-.119 1.475-.269 3.311-.269 5.482 0 6.324 6.289 13.256 6.557 13.548a1 1 0 0 1 1.38-1.442c-3.34-2.802-8.849-7.945-9.411-9.82-.329-1.098-.326-1.673-.318-2.819.011-1.562.026-3.922-.795-9.343-1.064-7.033-8.255-11.474-13.013-14.412-1.822-1.126-3.545-2.19-4.034-2.889-1.922-2.744-3.889-7.22-3.908-7.265a.998.998 0 0 0-1.076-.587 1.002 1.002 0 0 0-.805.724c-.271.996-2.619 9.836-1.413 13.452 1.085 3.255 5.78 7.334 8.887 10.033l1.123.982c2.307 2.051 3.124 4.924 3.133 4.953a.998.998 0 0 1 1.542-1.081c-3.777-2.676-13.973-10.208-15.766-12.897-1.104-1.655-.951-4.114-.775-6.961.143-2.312.305-4.932-.22-7.555-.799-3.999-5.633-8.02-10.307-11.909-2.479-2.062-4.819-4.009-6.208-5.695-4.065-4.937-10.561-8.919-10.836-9.086a1 1 0 0 0-1.333 1.435c.061.085 1.527 2.121 4.436 4.738 2.635 2.371 4.021 7.916 5.134 12.372 1.158 4.637 5.613 13.295 5.803 13.661a1 1 0 0 1 1.476-1.267c-.063-.046-6.35-4.616-9.76-6.889-2.199-1.466-2.656-4.064-3.413-8.37-.273-1.557-.584-3.322-1.027-5.318-1.56-7.021-10.157-12.947-17.095-16.683-3.459-1.863-5.627-5.077-5.648-5.109a1 1 0 0 0-1.786.856c.143.454 3.552 11.162 6.859 14.169 2.946 2.679 6.579 11.289 6.616 11.375a1 1 0 0 1 1.836-.793c-.098-.219-2.466-5.43-9.71-11.516-6.999-5.879-14.902-8.655-18.469-9.369-1.812-.362-5.682-4.7-7.696-7.348a1 1 0 0 0-1.721.224c-2.293 5.573 2.391 13.887 5.018 17.04 2.902 3.482 8.513 7.706 8.751 7.883a1 1 0 0 1 1.129-1.648c-.104-.064-2.559-1.582-4.821-1.582-1.999 0-15.487.55-16.061.573a.998.998 0 0 0-.825 1.499c.182.314 4.516 7.735 11.003 10.979 4.718 2.359 8.213 1.847 11.593 1.353 1.365-.2 2.654-.389 4.016-.389 4.529 0 12.93 2.152 16.278 4.663 3.486 2.616 11.861 6.257 12.216 6.411a1 1 0 0 1 .331-1.915l-4.29.286c.125-.008.25.007.369.044-.062-.02-6.264-2.021-12.932-6.188-7.16-4.475-15.336-2.214-15.68-2.116a.998.998 0 0 0-.583 1.476c.142.236 3.48 5.795 4.653 7.262 1.398 1.746 7.983 5.496 13.15 6.645 2.103.467 5.426.568 8.944.675 5.373.163 11.464.347 14.588 1.827 5.231 2.478 12.831 9.486 12.907 9.556a1 1 0 0 1 .876-1.714c-.04-.008-4.121-.848-7.046-2.975-3.733-2.715-10.87-5.144-18.183-6.188-8.281-1.183-11.693.914-11.835 1.004a1 1 0 0 0-.107 1.608c1.544 1.303 9.307 7.832 10.497 8.426.079.039 8.076 3.974 11.934 4.939 3.371.843 13.415 2.302 17.911 2.602 1.922.128 4.794 1.541 8.088 3.978a1.001 1.001 0 0 1 .995-1.72c-4.228-1.85-12.619-1.29-15.376-1.106-4.131.275-11.437-.838-11.51-.849a1 1 0 0 0-.719 1.813c.188.129 4.635 3.183 6.649 4.335.4.229 1.159.783 2.119 1.483 3.448 2.517 9.867 7.202 15.631 8.354 2.162.432 4.446.606 6.865.791 5.72.436 11.636.886 17.064 4.764 7.547 5.39 9.014 16.925 9.027 17.041a1 1 0 0 1 1.915-.505c-.155-.371-3.88-9.141-10.546-15.227-6.835-6.241-24.631-4.344-25.385-4.26a.998.998 0 0 0-.597 1.701c.024.024 2.504 2.536 4.688 6.629 2.432 4.559 9.777 9.247 15.329 11.875 5.032 2.383 15.869 10.478 19.55 18.124 3.495 7.26-2.834 24.792-2.898 24.969a1 1 0 0 1 1.939.382c.023-.602.549-14.851-2.033-24.889-2.674-10.396-17.712-16.179-18.351-16.42a1 1 0 0 0-1.299 1.263c.025.073 2.521 7.315 2.521 10.257 0 3.165 1.376 14.511 5.591 21.133 4.121 6.475 5.069 11.911 2.82 16.159-1.19 2.248-7.386 5.124-16.574 7.693.159-.044.327-.049.488-.013-1.586-.354-2.928-1.337-3.987-2.92a1 1 0 0 1-.245 1.367c4.884-3.527 13.152-10.488 13.65-17.471.646-9.03-2.467-18.908-2.599-19.324a1 1 0 0 0-1.857-.124c-.077.161-7.669 16.172-10.162 20.12-1.745 2.764-2.902 8.368-3.565 12.582a1 1 0 0 1 1.081-.84c-2.495-.232-7.33-.778-11.679-1.822-4.029-.967-7.875-13.484-9.354-21.146a.998.998 0 0 1-.772 1.167 1.001 1.001 0 0 1-1.183-.749c.044.188 1.129 4.62 5.371 7.272 4.27 2.668 6.819 1.667 7.097 1.544a1.002 1.002 0 0 0 .348-1.57c-.049-.056-4.929-5.679-8.062-10.257-3.278-4.79-7.726-16.866-7.957-23.126-.241-6.531-7.383-22.646-17.261-22.646-9.078 0-14.68 4.066-15.773 11.448-.629 4.248.843 8.253 3.663 9.967 1.901 1.155 4.104 1.015 6.043-.386 1.392-1.005 2.102-2.22 2.109-3.61.016-2.839-2.989-5.143-3.332-5.396a1.002 1.002 0 0 1 .123 1.5c2.85-2.941 6.331-3.518 9.313-1.543 2.948 1.953 5.097 6.476 2.847 11.792-.622 1.469-.639 2.906-.051 4.271 1.334 3.094 5.379 4.63 5.551 4.694a1 1 0 0 1-.574-.552c1.931 4.634-.104 20.922-1.05 26.807a1 1 0 0 0 1.806.732l6.899-9.856a.999.999 0 0 1-1.812-.459c.111.977 2.843 24.058 11.768 36.206.938 1.277 2.01 2.5 3.185 3.638a1.011 1.011 0 0 1-.247-.383c1.982 5.562 6.677 15.24 15.855 17.574 12.669 3.222 32.662-2.116 33.507-2.346a1 1 0 0 0-.294-1.964c-.125.004-12.569.382-17.803-2.437-2.027-1.091-3.793-2.201-5.351-3.18-2.692-1.691-5.019-3.153-7.454-3.727-1.844-.434-5.093-3.06-7.703-5.169-2.278-1.841-4.245-3.432-5.58-3.945a1.002 1.002 0 0 0-1.292.563.996.996 0 0 0 .547 1.293l10.821 4.433a1.037 1.037 0 0 1-.268-.159c3.766 3.136 10.378 6.874 20.489 6.874 18.329 0 28.832-11.341 29.27-11.824a1 1 0 1 0-.749-1.672c-.977.009-24 .226-32.477 1.285-5.641.705-11.139-.24-13.914-.867a.988.988 0 0 1 .481.263c.289.285.353.691.199 1.067-.154.375-.545.596-.951.596.176 0 4.335-.006 6.402-.523.656-.164 1.437-.549 2.387-1.177-.18.19-.36.25-.55.25zm-2.34-.93c-1.829.458-5.877.463-5.918.463a.998.998 0 1 0-.698 1.715c.132.129.349.269.529.31 2.902.655 8.659 1.643 14.602.9 8.362-1.045 32.009-1.268 32.246-1.27a1 1 0 0 1-.749-1.672c-.102.111-10.378 11.168-27.789 11.168-9.514 0-15.697-3.486-19.21-6.411a1.02 1.02 0 0 0-.268-.159l-10.794-4.422a.997.997 0 0 1 .547 1.293c-.202.509-.78.759-1.292.563 1.041.4 3.075 2.044 5.042 3.634 3.055 2.469 6.214 5.022 8.501 5.561 2.112.497 4.203 1.811 6.849 3.473 1.585.996 3.381 2.124 5.468 3.248 5.707 3.072 18.284 2.691 18.816 2.673a.999.999 0 0 1-.294-1.964c-.201.055-20.333 5.429-32.491 2.338-8.278-2.105-12.615-11.121-14.463-16.309a1.02 1.02 0 0 0-.247-.383 26.973 26.973 0 0 1-2.964-3.385c-8.613-11.723-11.365-35.015-11.393-35.249a.999.999 0 0 0-1.812-.459l-6.899 9.856a1 1 0 0 1 1.806.731c.143-.887 3.465-21.788.921-27.894a.997.997 0 0 0-.574-.552c-.032-.012-3.423-1.309-4.413-3.617-.367-.854-.348-1.736.058-2.695 2.575-6.084.146-11.769-3.585-14.239-2.971-1.968-7.645-2.523-11.852 1.819a.998.998 0 0 0 .123 1.5c.704.524 2.533 2.228 2.521 3.78-.005.725-.424 1.378-1.281 1.997-1.292.934-2.617 1.037-3.832.298-1.725-1.048-3.313-3.988-2.724-7.965.943-6.373 5.714-9.741 13.795-9.741 8.222 0 15.04 14.711 15.263 20.72.249 6.738 4.852 19.135 8.305 24.182 3.198 4.675 8.152 10.383 8.202 10.44a1.003 1.003 0 0 1 .348-1.57c.003-.001-1.868.685-5.224-1.413-3.525-2.203-4.476-5.999-4.485-6.037a1 1 0 0 0-1.954.421c.415 2.158 4.253 21.129 10.85 22.712 4.469 1.073 9.412 1.631 11.96 1.869a1 1 0 0 0 1.081-.84c.896-5.693 2.061-9.893 3.28-11.824 2.558-4.05 9.964-19.669 10.277-20.332a.999.999 0 0 1-1.857-.124c.031.098 3.127 9.934 2.511 18.573-.458 6.403-9.123 13.317-12.828 15.993a.999.999 0 0 0-.245 1.367c1.336 1.996 3.138 3.295 5.212 3.76.161.036.329.031.488-.013 7.071-1.978 15.899-5.089 17.803-8.684 2.61-4.929 1.635-11.042-2.9-18.168-4.015-6.307-5.278-17.464-5.278-20.059 0-3.277-2.522-10.601-2.63-10.911a1 1 0 0 1-1.299 1.263c.146.056 14.706 5.66 17.12 15.047 2.51 9.757 1.979 24.168 1.973 24.313a1 1 0 1 0 1.939.382c.274-.752 6.68-18.51 2.822-26.521-3.758-7.805-14.505-16.226-20.497-19.064-5.692-2.696-12.359-7.146-14.421-11.009-2.332-4.372-4.929-6.992-5.038-7.102a1 1 0 0 1-.597 1.701c.176-.02 17.648-1.882 23.816 3.749 6.343 5.792 10.013 14.437 10.05 14.523a1 1 0 1 0 1.915-.505c-.061-.508-1.577-12.521-9.852-18.432-5.883-4.202-12.36-4.695-18.075-5.13-2.356-.18-4.582-.349-6.624-.757-5.333-1.066-11.521-5.583-14.845-8.009-1.05-.767-1.809-1.32-2.306-1.604-1.942-1.111-6.463-4.216-6.509-4.247a1 1 0 0 1-.719 1.813c.309.047 7.597 1.158 11.947.868 2.637-.176 10.661-.711 14.442.943a1 1 0 0 0 .995-1.72c-2.545-1.883-6.197-4.169-9.145-4.365-4.418-.295-14.264-1.723-17.56-2.547-3.193-.799-10.008-4.03-11.523-4.788-.704-.362-5.73-4.478-10.103-8.166a1.002 1.002 0 0 1-.107 1.608c.02-.012 3.04-1.774 10.478-.712 8.521 1.217 14.64 3.899 17.29 5.826 3.285 2.39 7.646 3.282 7.829 3.318a1 1 0 0 0 .876-1.714c-.32-.296-7.9-7.286-13.411-9.896-3.501-1.659-9.813-1.85-15.383-2.019-3.422-.104-6.653-.202-8.571-.628-5.014-1.115-11.099-4.789-12.021-5.942-1.09-1.361-4.467-6.984-4.501-7.041a.998.998 0 0 1-.583 1.476c.075-.021 7.681-2.104 14.07 1.889 7.023 4.389 13.394 6.402 13.447 6.415.101.025.205.035.309.028l4.29-.286a1 1 0 0 0 .331-1.915c-.085-.037-8.513-3.702-11.812-6.176-3.738-2.805-12.618-5.063-17.478-5.063-1.507 0-2.93.208-4.305.41-3.216.471-6.254.916-10.409-1.163-5.955-2.978-10.124-10.117-10.165-10.189a.999.999 0 0 1-.825 1.499c.14-.005 14.02-.571 15.979-.571 1.685 0 3.741 1.266 3.762 1.279a1 1 0 0 0 1.128-1.649c-.056-.042-5.662-4.262-8.413-7.564-2.937-3.524-6.463-10.728-4.705-14.999a.998.998 0 0 1-1.721.224c.945 1.245 5.82 7.484 8.896 8.099 3.147.63 10.872 3.309 17.574 8.939 6.858 5.761 9.147 10.749 9.17 10.798a1 1 0 0 0 1.835-.795c-.155-.371-3.842-9.105-7.114-12.081-2.416-2.197-5.365-10.34-6.299-13.292a1 1 0 0 1-1.786.856c.099.148 2.471 3.664 6.364 5.761 9.287 5.001 15.001 10.454 16.09 15.355.435 1.953.74 3.695 1.011 5.231.82 4.665 1.362 7.747 4.273 9.687 3.376 2.25 9.63 6.796 9.693 6.842a.999.999 0 0 0 1.476-1.267c-.045-.088-4.538-8.818-5.641-13.229-1.179-4.72-2.646-10.594-5.735-13.374-2.731-2.458-4.133-4.396-4.146-4.416a1 1 0 0 1-1.333 1.436c.063.04 6.484 3.978 10.332 8.649 1.508 1.832 3.919 3.837 6.472 5.961 4.202 3.496 8.964 7.458 9.625 10.763.474 2.368.326 4.743.185 7.04-.19 3.075-.37 5.979 1.107 8.194 2.364 3.546 15.707 13.019 16.273 13.42a1 1 0 0 0 1.543-1.08c-.038-.14-.969-3.462-3.733-5.92l-1.14-.997c-2.764-2.401-7.389-6.419-8.302-9.156-.859-2.578.753-9.748 1.446-12.293a1 1 0 0 1-1.881.137c.083.19 2.065 4.701 4.102 7.61.727 1.037 2.36 2.046 4.622 3.443 4.71 2.909 11.16 6.892 12.087 13.01.797 5.265.782 7.531.771 9.03-.008 1.218-.013 2.022.402 3.408.918 3.059 9.11 9.996 10.042 10.777a1 1 0 0 0 1.38-1.442c-.061-.065-6.031-6.654-6.031-12.197 0-2.09.14-3.807.263-5.321.23-2.841.397-4.894-.701-6.651-.979-1.568-.452-4.713-.166-5.793a.999.999 0 0 1-1.877.157c.716 1.575 3.227 6.766 5.498 7.414l.21.059c7.271 2.027 11.579 7.41 12.806 15.999 1.07 7.492.813 13.406.626 17.724-.168 3.866-.29 6.658.6 8.585 1.703 3.689 2.673 4.533 2.929 4.704a1 1 0 0 0 1.503-1.149c-.01-.031-1.062-3.285-.529-7.275.172-1.287.241-2.925.321-4.821.188-4.451.423-9.989 2.156-13.457 2.649-5.3 2.68-12.721 2.68-13.034a1 1 0 0 1-1.921.391c.079.187 7.912 18.782 7.36 28.444-.515 8.999-4.42 17.233-6.518 21.657l-.542 1.147c-2.104 4.509-.99 12.526-.942 12.865a1 1 0 0 0 1.981-.009c.011-.083 1.145-8.337 4.063-11.787 3.254-3.846 5.542-12.329 5.638-12.688a1 1 0 0 1-1.948-.071c.039.209 3.922 20.983 1.189 28.358-1.699 4.587-4.174 6.325-6.356 7.858-1.32.927-2.566 1.803-3.311 3.167-1.887 3.46-.984 6.891-.945 7.035a1 1 0 0 0 1.945-.066c.008-.036.828-3.863 4.07-5.609l6.87-3.721a1.001 1.001 0 0 1-1.417-1.224c-.039.107-4.008 10.816-7.891 16.364-3.362 4.804-9.385 8.304-16.522 9.602-4.236.77-14.472 1.014-20.196 1.09a.994.994 0 0 0-.538.166c-.97.64-1.51.86-1.81.93z" fill="#5087c6"/><g><path d="M350.25 131.06c.067.017 6.916 1.72 11.503 6.846a1 1 0 1 0 1.49-1.334c-5.014-5.603-12.222-7.384-12.526-7.457a1 1 0 0 0-1.206.739c-.129.537.22 1.07.75 1.2zM378.8 149.92c.997.309 1.668 1.258 2.379 2.262.367.519.746 1.055 1.191 1.533 1.476 1.585 3.361 2.779 5.308 3.359a1 1 0 1 0 .572-1.916c-1.588-.474-3.197-1.497-4.417-2.806-.353-.379-.678-.839-1.021-1.325-.832-1.175-1.774-2.507-3.419-3.017a1 1 0 0 0-1.251.659c-.164.528.13 1.1.66 1.26zM409.15 176.69c1.941 2.95 5.396 6.822 8.39 8.351a1 1 0 0 0 .91-1.781c-2.553-1.303-5.771-4.844-7.63-7.669a1.001 1.001 0 0 0-1.385-.286 1.01 1.01 0 0 0-.29 1.39zM429.35 194.87c.354.672.729 1.328 1.094 1.963 1.558 2.716 2.903 5.062 2.359 8.079a1 1 0 0 0 1.969.354c.673-3.734-.987-6.629-2.594-9.428-.354-.619-.722-1.259-1.057-1.897a1 1 0 0 0-1.351-.42c-.49.257-.67.87-.42 1.36zM437.42 225.23c2.143 4.19 3.323 6.498 3.323 11.215 0 .393.027.865.056 1.365.055.958.184 3.201-.207 3.601l.013-.01a1.002 1.002 0 0 0 1.133 1.649c1.313-.902 1.178-3.267 1.059-5.353-.027-.47-.053-.915-.053-1.25 0-5.199-1.333-7.806-3.542-12.125a1 1 0 0 0-1.346-.435c-.49.25-.68.86-.43 1.35zM437.8 261.38c-3.546 2.074-6.237 3.163-10.297 2.975a1 1 0 0 1 .865 1.413c.87-1.915 4.407-6.061 6.205-7.271a1 1 0 0 0-1.117-1.659c-2.131 1.435-5.875 5.828-6.908 8.103a1 1 0 0 0 .865 1.413c4.556.211 7.521-.978 11.398-3.246a1 1 0 0 0 .358-1.368c-.29-.49-.9-.65-1.38-.37z" fill="#5087c6"/></g></g></g><g><path d="M189.71 386.81c0-.007.003-.017.005-.021 0 .001-.021.032-.084.032h-16.934c-.063 0-.085-.032-.086-.032a.043.043 0 0 1 .006.021v-7.444c0 .008-.003.018-.006.021 0 0 .022-.032.086-.032h16.934c.063 0 .084.032.085.032a.047.047 0 0 1-.006-.021v7.437zm4-7.45c0-2.212-1.83-4.011-4.079-4.011h-16.934c-2.25 0-4.08 1.799-4.08 4.011v7.444c0 2.212 1.83 4.012 4.08 4.012h16.934c2.249 0 4.079-1.8 4.079-4.012v-7.438zM225.71 386.81c0-.007.003-.017.005-.021 0 .001-.021.032-.084.032h-16.934c-.063 0-.085-.032-.086-.032a.043.043 0 0 1 .006.021v-7.444c0 .008-.003.018-.006.021 0 0 .022-.032.086-.032h16.934c.063 0 .084.032.085.032a.047.047 0 0 1-.006-.021v7.437zm4-7.45c0-2.212-1.83-4.011-4.079-4.011h-16.934c-2.25 0-4.08 1.799-4.08 4.011v7.444c0 2.212 1.83 4.012 4.08 4.012h16.934c2.249 0 4.079-1.8 4.079-4.012v-7.438z" fill="#ed1a3a"/><path d="M188.92 385.08h19.987a2 2 0 0 0 0-4H188.92a2 2 0 0 0 0 4zM261.71 386.81c0-.007.003-.017.005-.021 0 .001-.021.032-.084.032h-16.934c-.063 0-.085-.032-.086-.032a.043.043 0 0 1 .006.021v-7.444c0 .008-.003.018-.006.021 0 0 .022-.032.086-.032h16.934c.063 0 .084.032.085.032a.047.047 0 0 1-.006-.021v7.437zm4-7.45c0-2.212-1.83-4.011-4.079-4.011h-16.934c-2.25 0-4.08 1.799-4.08 4.011v7.444c0 2.212 1.83 4.012 4.08 4.012h16.934c2.249 0 4.079-1.8 4.079-4.012v-7.438z" fill="#ed1a3a"/><path d="M224.92 385.08h19.987a2 2 0 0 0 0-4H224.92a2 2 0 0 0 0 4zM297.71 386.81c0-.007.003-.017.005-.021 0 .001-.021.032-.084.032h-16.934c-.063 0-.085-.032-.086-.032a.043.043 0 0 1 .006.021v-7.444c0 .008-.003.018-.006.021 0 0 .022-.032.086-.032h16.934c.063 0 .084.032.085.032a.047.047 0 0 1-.006-.021v7.437zm4-7.45c0-2.212-1.83-4.011-4.079-4.011h-16.934c-2.25 0-4.08 1.799-4.08 4.011v7.444c0 2.212 1.83 4.012 4.08 4.012h16.934c2.249 0 4.079-1.8 4.079-4.012v-7.438z" fill="#ed1a3a"/><path d="M260.92 385.08h19.987a2 2 0 0 0 0-4H260.92a2 2 0 0 0 0 4zM333.71 386.81c0-.007.003-.017.005-.021 0 .001-.021.032-.084.032h-16.934c-.063 0-.085-.032-.086-.032a.043.043 0 0 1 .006.021v-7.444c0 .008-.003.018-.006.021 0 0 .022-.032.086-.032h16.934c.063 0 .084.032.085.032a.047.047 0 0 1-.006-.021v7.437zm4-7.45c0-2.212-1.83-4.011-4.079-4.011h-16.934c-2.25 0-4.08 1.799-4.08 4.011v7.444c0 2.212 1.83 4.012 4.08 4.012h16.934c2.249 0 4.079-1.8 4.079-4.012v-7.438z" fill="#ed1a3a"/><path d="M296.92 385.08h19.987a2 2 0 0 0 0-4H296.92a2 2 0 0 0 0 4z" fill="#ed1a3a"/></g><g><path d="M95.772 386.81c0-.007.003-.017.005-.021 0 .001-.021.032-.084.032H78.759c-.063 0-.085-.032-.086-.032a.043.043 0 0 1 .006.021v-7.444c0 .008-.003.018-.006.021 0 0 .022-.032.086-.032h16.934c.063 0 .084.032.085.032a.047.047 0 0 1-.006-.021v7.437zm4-7.45c0-2.212-1.83-4.011-4.079-4.011H78.759c-2.25 0-4.08 1.799-4.08 4.011v7.444c0 2.212 1.83 4.012 4.08 4.012h16.934c2.249 0 4.079-1.8 4.079-4.012v-7.438zM132.27 386.81c0-.007.003-.017.005-.021 0 .001-.021.032-.084.032h-16.934c-.063 0-.085-.032-.086-.032a.043.043 0 0 1 .006.021v-7.444c0 .008-.003.018-.006.021 0 0 .022-.032.086-.032h16.934c.063 0 .084.032.085.032a.047.047 0 0 1-.006-.021v7.437zm4-7.45c0-2.212-1.83-4.011-4.079-4.011h-16.934c-2.25 0-4.08 1.799-4.08 4.011v7.444c0 2.212 1.83 4.012 4.08 4.012h16.934c2.249 0 4.079-1.8 4.079-4.012v-7.438z" fill="#ed1a3a"/><path d="M95.476 385.08h19.987a2 2 0 0 0 0-4H95.479a2 2 0 0 0 0 4z" fill="#ed1a3a"/><g><path d="M78.963 381.08H66.059l1.316 4h11.588a2 2 0 0 0 0-4z" fill="#ed1a3a"/></g><g><path d="M410.56 379.36c0 .007-.003.018-.006.021.001 0 .022-.032.085-.032h16.934c.063 0 .086.032.086.032a.043.043 0 0 1-.006-.021v7.444c0-.007.003-.017.006-.021-.001 0-.022.032-.086.032h-16.934c-.063 0-.084-.031-.084-.032a.059.059 0 0 1 .005.021v-7.438zm-4 7.45c0 2.212 1.83 4.012 4.079 4.012h16.934c2.25 0 4.08-1.8 4.08-4.012v-7.444c0-2.212-1.83-4.011-4.08-4.011h-16.934c-2.249 0-4.079 1.799-4.079 4.011v7.437zM374.06 379.36c0 .007-.003.018-.006.021.001 0 .022-.032.085-.032h16.934c.063 0 .086.032.086.032a.043.043 0 0 1-.006-.021v7.444c0-.007.003-.017.006-.021-.001 0-.022.032-.086.032h-16.934c-.063 0-.084-.031-.084-.032a.059.059 0 0 1 .005.021v-7.438zm-4 7.45c0 2.212 1.83 4.012 4.079 4.012h16.934c2.25 0 4.08-1.8 4.08-4.012v-7.444c0-2.212-1.83-4.011-4.08-4.011h-16.934c-2.249 0-4.079 1.799-4.079 4.011v7.437z" fill="#ed1a3a"/><path d="M410.86 385.08h-19.987a2 2 0 0 1 0-4h19.987a2 2 0 0 1 0 4z" fill="#ed1a3a"/><g><path d="M427.37 381.08h12.904l-1.316 4H427.37a2 2 0 0 1-2-2c0-1.104.9-2 2.01-2z" fill="#ed1a3a"/></g></g></g><g><path d="M150.27 472.84c-1.109-1.586-4.604-6.283-8.039-7.787-3.258-1.426-10.503-.81-13.447-.482-.912-2.317-3.255-7.504-6.741-9.828-3.186-2.124-7.552-1.39-10.143-.65-.044-2.113-.427-5.347-2.08-8.353-2.007-3.649-6.556-4.485-9.344-4.641.596-1.914 1.165-4.832.404-7.725-.95-3.612-5.174-5.527-7.842-6.397 1.313-2.112 2.938-5.645 1.652-8.766-1.197-2.908-4.354-5.161-6.398-6.376 1.556-1.745 3.734-4.799 3.561-8.106-.225-4.268-4.824-6.45-6.792-7.191l-.014-.273a1.47 1.47 0 0 0-.075-.396h-2.848a1.463 1.463 0 0 0-.075.51c.063 1.672 1.85 41.164 27.349 61.024 22.682 17.664 41.271 18.639 43.576 18.689v-3.003c-.41-.01-1.34-.06-2.71-.24zm-64.918-72.89c1.534.774 3.409 2.091 3.506 3.938.095 1.794-1.008 3.715-2.141 5.164a110.46 110.46 0 0 1-1.365-9.1zm5.555 24.71a104.222 104.222 0 0 1-2.818-9.398c1.557 1.085 3.189 2.533 3.83 4.088.641 1.56-.11 3.66-1.012 5.31zm6.901 14.86a77.074 77.074 0 0 1-4.746-9.331c2.082.816 4.445 2.15 4.919 3.951.498 1.89.219 3.88-.173 5.38zm3.042 4.61c2.286.207 5.189.955 6.343 3.054 1.101 2.002 1.515 4.165 1.653 5.852-3.03-2.69-5.68-5.7-7.99-8.9zm12.68 12.63c2.184-.514 5.005-.757 6.852.475 2.264 1.509 4.037 4.818 5.049 7.089-3.76-2.02-7.76-4.51-11.9-7.57zm18.03 10.57c3.345-.25 7.614-.338 9.466.473 1.586.694 3.421 2.554 4.869 4.278-3.7-.8-8.62-2.22-14.34-4.75zM141.44 397.82l23.75 25.12s-12.332 2.056-19.868-5.252c-7.09-6.88-3.88-19.87-3.88-19.87zM135.64 406.31l-18.48 7.355a54.289 54.289 0 0 0 2.655 7.753l16.531-10.76c-.32-1.47-.55-2.95-.71-4.34zm1.87 8.47l-14.399 12.876a36.36 36.36 0 0 0 4.092 5.282l13.08-13.06c-1.17-1.42-2.07-3.19-2.77-5.1zm-5.23 22.58c2.858 2.02 5.943 3.569 9.074 4.76l5.498-17.12a24.559 24.559 0 0 1-3.708-2.427l-10.86 14.79zm33.14-9.62s-2.006.438-5.051.448l1.187 17.65c5.047.136 8.432-.286 8.432-.286l-4.57-17.81zm-17.57 16.36c2.425.576 4.801.978 7.045 1.247l1.491-17.403a28.769 28.769 0 0 1-5.752-1.312l-2.79 17.46zm-12.57-45.82l-20.097 1.826s.003 2.703.597 6.751l19.545-4.496c-.11-2.44-.04-4.08-.04-4.08z" fill="#5087c6"/><g><path d="M174.53 457.25a62.704 62.704 0 0 0-2.784 6.521c1.808-1.587 4.069-3.417 6.604-5.114l-3.82-1.41zm-.91 9.99c2.311.48 5.772 1.096 9.337 1.352l-.718-6.618c-3.64 2.13-6.69 4.04-8.62 5.27zm30-17.29c-1.209-2.025-5.611-7.913-15.253-6.289-2.589.436-4.895 1.825-6.919 3.714 3.493 1.064 8.915 2.952 11.392 5.054 4.28-1.2 8-2.05 10.78-2.47zm1.58 6.03c-.15-.772-.284-1.433-.405-2.007-2.718.366-6.112.963-9.506 1.925 1.621 3.632 1.886 8.253 1.616 9.962-.02.126-.041.233-.062.352 5.3-2.65 9.02-6.8 8.35-10.23zm-17.68-1.95c.317-.101.627-.195.941-.293-2.825-1.667-6.683-3.233-9.084-4.143-1.42 1.713-2.665 3.629-3.735 5.547l6.09 1.44c1.86-1.04 3.81-1.93 5.79-2.56zm.12 4.88a214.98 214.98 0 0 0-2.737 1.528c.271 1.712.541 3.666.541 4.692v3.573c2.36.042 4.658-.125 6.587-.646.378-.102.749-.219 1.12-.338.188-2.569.334-7.726-1.164-10.753-1.53.57-2.99 1.21-4.35 1.95z" fill="#5087c6"/></g><g><path d="M353.36 473.09v3.003c2.305-.051 20.895-1.025 43.576-18.689 25.499-19.86 27.285-59.353 27.349-61.024a1.463 1.463 0 0 0-.075-.51h-2.848c-.04.126-.07.258-.075.396l-.014.273c-1.968.741-6.567 2.924-6.792 7.191-.174 3.308 2.005 6.361 3.561 8.106-2.044 1.215-5.201 3.468-6.398 6.376-1.285 3.121.34 6.653 1.652 8.766-2.668.87-6.892 2.785-7.842 6.397-.761 2.893-.191 5.811.404 7.725-2.788.155-7.337.991-9.344 4.641-1.653 3.006-2.036 6.239-2.08 8.353-2.591-.739-6.957-1.474-10.143.65-3.486 2.324-5.829 7.511-6.741 9.828-2.944-.327-10.189-.943-13.447.482-3.436 1.504-6.93 6.201-8.039 7.787-1.39.16-2.32.21-2.72.23zm66.25-64.04c-1.133-1.449-2.235-3.37-2.141-5.164.097-1.848 1.972-3.164 3.506-3.938-.24 2.24-.65 5.39-1.37 9.1zm-5.2 10.3c.641-1.555 2.273-3.003 3.83-4.088a104.125 104.125 0 0 1-2.818 9.398c-.9-1.65-1.65-3.75-1.01-5.31zm-6.06 14.79c.474-1.801 2.837-3.135 4.919-3.951a77.074 77.074 0 0 1-4.746 9.331c-.39-1.5-.67-3.49-.17-5.38zm-10.86 18.9c.139-1.687.553-3.85 1.653-5.852 1.153-2.099 4.057-2.847 6.343-3.054-2.31 3.19-4.96 6.2-7.99 8.9zm-16.59 11.29c1.012-2.271 2.785-5.58 5.049-7.089 1.847-1.231 4.668-.988 6.852-.475-4.14 3.06-8.14 5.55-11.9 7.57zm-20.47 7.75c1.448-1.725 3.283-3.584 4.869-4.278 1.852-.811 6.121-.723 9.466-.473-5.72 2.53-10.64 3.95-14.34 4.75zM364.89 397.82l-23.75 25.12s12.332 2.056 19.868-5.252c7.09-6.88 3.88-19.87 3.88-19.87zM369.98 410.65l16.531 10.76a54.165 54.165 0 0 0 2.655-7.753l-18.48-7.355c-.15 1.4-.38 2.88-.7 4.35zm-3.94 9.23l13.08 13.06a36.36 36.36 0 0 0 4.092-5.282l-14.399-12.876c-.69 1.91-1.59 3.68-2.77 5.1zm-2.86 2.7a24.559 24.559 0 0 1-3.708 2.427l5.498 17.12c3.131-1.19 6.216-2.74 9.074-4.76l-10.86-14.79zm-26.84 22.97s3.385.422 8.432.286l1.187-17.65c-3.045-.01-5.051-.448-5.051-.448l-4.57 17.81zm19.36-18.92c-2 .683-3.953 1.089-5.752 1.312l1.491 17.403c2.244-.27 4.62-.671 7.045-1.247l-2.78-17.46zm15.31-24.27l19.545 4.496c.594-4.048.597-6.751.597-6.751l-20.097-1.826c-.01 0 .06 1.64-.05 4.08z" fill="#5087c6"/><g><path d="M327.98 458.65c2.535 1.697 4.797 3.527 6.604 5.114a62.522 62.522 0 0 0-2.784-6.521l-3.82 1.41zm-3.89 3.32l-.718 6.618c3.564-.256 7.026-.871 9.337-1.352-1.93-1.23-4.98-3.14-8.62-5.27zm-10.6-9.54c2.477-2.102 7.898-3.989 11.392-5.054-2.024-1.889-4.33-3.278-6.919-3.714-9.642-1.624-14.044 4.264-15.253 6.289 2.78.41 6.5 1.26 10.78 2.47zm-4.01 13.79c-.021-.118-.042-.226-.062-.352-.27-1.709-.005-6.33 1.616-9.962-3.394-.962-6.788-1.559-9.506-1.925a127.08 127.08 0 0 0-.405 2.007c-.66 3.42 3.06 7.57 8.36 10.23zm15.12-9.64l6.09-1.44c-1.07-1.918-2.315-3.834-3.735-5.547-2.401.909-6.259 2.476-9.084 4.143.314.098.624.192.941.293 1.97.64 3.92 1.53 5.78 2.56zm-10.26.39c-1.498 3.027-1.352 8.184-1.164 10.753.371.119.742.236 1.12.338 1.929.521 4.227.688 6.587.646v-3.573c0-1.026.27-2.98.541-4.692a216.428 216.428 0 0 0-2.737-1.528c-1.35-.75-2.82-1.39-4.35-1.95z" fill="#5087c6"/></g></g></g><g><path d="M252.91 475.95s-6.517-9.773-5.659-12.518c.858-2.745 4.802-1.028 4.802-1.028l1.029 4.973 1.201-4.973s3.944-1.716 4.802 1.028c.858 2.744-5.659 12.518-5.659 12.518h-.512zM248.11 456.75s-4.287-3.944-4.63-8.745c-.343-4.801-3.772-13.889-6.173-16.118-2.401-2.229-6.002-3.944-6.002-3.944s3.087 4.974 1.715 7.717c-1.372 2.743.857 12.518 4.63 16.29 3.773 3.772 7.88 5.14 10.46 4.8zM236.79 455.72s-2.401-.171-6.345-5.315-3.259-11.147-10.46-12.861c-7.201-1.714-12.86-.514-12.86-.514s10.289 2.743 11.832 8.573c1.543 5.83 6.344 10.46 9.431 10.975 3.087.515 8.41-.86 8.41-.86zM241.08 461.38s-9.945 7.203-14.232 8.231c-4.287 1.028-7.716-.515-12.346 1.028-4.63 1.543-7.031 1.887-7.031 1.887s9.773-11.79 14.232-13.848c4.459-2.058 17.66 1.5 19.38 2.7zM243.3 462.24l2.571.172s-.857 3.259-.343 4.63 1.2 1.715 1.2 1.715-3.943.857-5.315 1.543c-1.372.686-2.915 2.743-2.915 2.743s-.343-3.086-1.2-3.943c-.857-.857-1.715-1.543-1.715-1.543s7.21-4.3 7.72-5.32z" fill="#ed1a3a"/><path d="M223.58 430.34s4.115 4.802 5.315 5.83c1.2 1.028 2.058 1.715 2.058 1.715s0 4.115 1.372 7.716 5.487 8.06 5.487 8.06-5.831-1.886-9.432-9.945l-2.229-4.973-3.772-2.915c-.01-.01 2.05-3.1 1.19-5.5zM206.78 440.46s9.604 1.886 10.632 4.63c1.028 2.744 2.571 8.06 5.144 9.774 2.573 1.714 2.572 1.715 2.572 1.715s-5.487-1.373-7.202-3.602c-1.715-2.229-4.63-7.716-6.173-8.916-1.543-1.2-4.97-3.6-4.97-3.6zM242.45 436.34s1.372-3.258 1.372-4.63c0-1.372-.515-2.915-.515-2.915s4.286 3.943 4.458 5.658c.172 1.715.172 2.4.172 2.4l-3.087 6.517c.01-.01-1.19-5.32-2.39-7.04zM253.77 457.95s7.202-2.745 6.688-9.946c-.514-7.201-7.031-17.49-7.031-17.49h-.516s-6.517 10.289-7.031 17.49c-.514 7.201 6.688 9.946 6.688 9.946h1.197z" fill="#ed1a3a"/><path d="M258.22 456.75s4.287-3.944 4.63-8.745c.343-4.801 3.772-13.889 6.173-16.118 2.401-2.229 6.002-3.944 6.002-3.944s-3.087 4.974-1.715 7.717c1.372 2.743-.857 12.518-4.63 16.29-3.773 3.772-7.87 5.14-10.45 4.8zM269.54 455.72s2.401-.171 6.345-5.315 3.259-11.147 10.46-12.861c7.201-1.714 12.86-.514 12.86-.514s-10.289 2.743-11.832 8.573c-1.543 5.83-6.344 10.46-9.431 10.975-3.087.515-8.4-.86-8.4-.86zM265.26 461.38s9.945 7.203 14.232 8.231c4.287 1.028 7.716-.515 12.346 1.028 4.63 1.543 7.031 1.887 7.031 1.887s-9.773-11.79-14.232-13.848c-4.459-2.058-17.67 1.5-19.38 2.7zM263.03 462.24l-2.571.172s.857 3.259.343 4.63-1.2 1.715-1.2 1.715 3.943.857 5.315 1.543c1.372.686 2.915 2.743 2.915 2.743s.343-3.086 1.2-3.943c.857-.857 1.715-1.543 1.715-1.543s-7.22-4.3-7.73-5.32z" fill="#ed1a3a"/><path d="M282.75 430.34s-4.115 4.802-5.315 5.83c-1.2 1.028-2.058 1.715-2.058 1.715s0 4.115-1.372 7.716-5.487 8.06-5.487 8.06 5.831-1.886 9.432-9.945l2.229-4.973 3.772-2.915c0-.01-2.06-3.1-1.2-5.5zM299.55 440.46s-9.604 1.886-10.632 4.63c-1.028 2.744-2.571 8.06-5.144 9.774-2.573 1.714-2.572 1.715-2.572 1.715s5.487-1.373 7.202-3.602c1.715-2.229 4.63-7.716 6.173-8.916 1.543-1.2 4.97-3.6 4.97-3.6zM263.88 436.34s-1.372-3.258-1.372-4.63c0-1.372.515-2.915.515-2.915s-4.286 3.943-4.458 5.658c-.172 1.715-.172 2.4-.172 2.4l3.087 6.517c0-.01 1.2-5.32 2.4-7.04z" fill="#ed1a3a"/></g><g><path d="M255.12 426.46c46.351 0 61.476 15.125 61.476 15.125s19.027-12.197 37.567-30.249 25.371-37.081 25.371-37.081h-34.152s-11.223 18.052-20.98 26.347c-9.757 8.295-14.148 10.734-14.148 10.734s-18.541-12.198-53.182-12.198h-7.807c-34.641 0-53.182 12.198-53.182 12.198s-4.391-2.439-14.148-10.734-20.98-26.347-20.98-26.347h-34.152s6.831 19.029 25.371 37.081c18.54 18.052 37.567 30.249 37.567 30.249s15.125-15.125 61.476-15.125h3.888z" fill="#fff"/><path d="M255.12 427.46c45.411 0 60.62 14.684 60.769 14.832a1 1 0 0 0 1.247.135c.19-.122 19.325-12.459 37.725-30.374 18.492-18.005 25.546-37.268 25.615-37.46a1.003 1.003 0 0 0-.941-1.338h-34.152c-.346 0-.667.179-.85.472-.111.18-11.254 18.016-20.778 26.113-9.532 8.104-13.944 10.599-13.987 10.622a.998.998 0 0 1 1.036.039c-.768-.505-19.188-12.363-53.731-12.363h-7.807c-34.543 0-52.964 11.858-53.731 12.363a1 1 0 0 1 1.036-.039c-.042-.023-4.454-2.519-13.987-10.622-9.525-8.098-20.667-25.934-20.779-26.113a1.001 1.001 0 0 0-.849-.472h-34.152a1 1 0 0 0-.942 1.338c.069.192 7.123 19.455 25.615 37.46 18.4 17.915 37.534 30.252 37.726 30.374a1 1 0 0 0 1.247-.135c.148-.146 15.493-14.832 60.769-14.832h3.888zm-3.91-2c-46.233 0-61.553 14.788-62.183 15.418a1 1 0 0 1 1.247-.135c-.189-.121-19.161-12.355-37.409-30.124-18.144-17.665-25.06-36.514-25.128-36.702a1 1 0 0 1-.941 1.338h34.152a1 1 0 0 1-.849-.472c.461.742 11.417 18.279 21.182 26.58 9.721 8.265 14.127 10.745 14.31 10.847a1 1 0 0 0 1.036-.039c.183-.119 18.738-12.033 52.632-12.033h7.807c33.894 0 52.449 11.914 52.633 12.034a.999.999 0 0 0 1.034.038c.184-.102 4.589-2.582 14.311-10.847 9.765-8.301 20.721-25.838 21.183-26.58a1.003 1.003 0 0 1-.85.472h34.152a.999.999 0 0 1-.941-1.338c-.067.188-6.984 19.037-25.127 36.702-18.249 17.769-37.221 30.003-37.41 30.124a1 1 0 0 1 1.247.135c-.63-.63-15.949-15.418-62.183-15.418h-3.897z" fill="#5087c6"/></g><g><path d="M99.213 479.59L3.19 184.05l-.545 1.677 251.4-182.66h-1.764l251.4 182.66-.545-1.677-96.025 295.54 1.427-1.036H97.778l1.426 1.04zm310.76.92l96.025-295.54.337-1.036-.882-.641L254.043.643l-.88-.641-.882.641L.871 183.303l-.881.64.336 1.036 96.023 295.54.337 1.036h312.94l.34-1.05z" fill="#0054a6"/></g><g><path d="M144.94 395.09l11.484-11.563 4.476 4.444c.916.91 1.35 1.907 1.304 2.992-.052 1.016-.494 1.942-1.327 2.781a4.25 4.25 0 0 1-1.504 1.004c-.729.28-1.48.302-2.257.063.283.772.415 1.413.394 1.927-.051.95-.502 1.854-1.354 2.713-.97.977-2.056 1.485-3.259 1.526-1.303.048-2.497-.467-3.582-1.545l-4.37-4.33zm6.72-4.02l-4.019 4.047 2.928 2.907c.707.703 1.426 1.05 2.156 1.04.729-.008 1.424-.345 2.083-1.008.723-.728.99-1.506.799-2.332-.151-.64-.566-1.297-1.245-1.971l-2.7-2.69zm4.8-4.84l-3.534 3.56 2.478 2.46c.698.693 1.351 1.074 1.957 1.145.676.073 1.35-.228 2.021-.903.554-.558.808-1.145.76-1.756-.048-.612-.444-1.289-1.189-2.03l-2.5-2.48zM164.15 407.48l-4.065-4.037-4.418 2.312-1.422-1.417 15.308-7.766 1.557 1.546-7.802 15.22-1.501-1.49 2.34-4.36zm-2.28-5.02l3.155 3.133 3.542-6.565-6.69 3.44zM178.13 405.09l-10.107 10.177 5.153 5.118-1.377 1.386-6.527-6.483 11.483-11.563 1.39 1.35zM186.92 413.82l-11.484 11.563-1.374-1.365 11.483-11.563 1.37 1.36z" fill="#231f20"/></g><g><path d="M321.71 424.76l1.302-1.262.79.814c.652.673 1.27 1.033 1.853 1.079.522.042 1.037-.184 1.544-.676.601-.583.852-1.194.75-1.835-.086-.548-.44-1.143-1.062-1.783l-8.375-8.636 1.391-1.349 8.284 8.541c1.201 1.239 1.771 2.467 1.711 3.686-.052.979-.489 1.866-1.311 2.663-1.06 1.027-2.181 1.44-3.362 1.234-.887-.151-1.685-.591-2.392-1.319l-1.11-1.15zM336.53 411.07l-4.113 3.989 2.229 4.461-1.443 1.395-7.478-15.45 1.575-1.528 15.071 8.087-1.519 1.473-4.32-2.43zm-5.05 2.18l3.191-3.096-6.498-3.664 3.31 6.76zM344.18 401.13l4.565 4.708-1.391 1.349-4.565-4.707-10.661-3.228 1.618-1.568 8.403 2.757-2.497-8.483 1.628-1.582 2.91 10.75zM357.08 391.15l-4.112 3.989 2.229 4.461-1.443 1.395-7.479-15.45 1.576-1.528 15.07 8.087-1.519 1.473-4.33-2.43zm-5.06 2.18l3.19-3.096-6.498-3.664 3.31 6.76z" fill="#231f20"/></g><g><path d="M213.42 425.52l-3.074-16 5.704-1.097c1.804-.347 3.379.091 4.725 1.311 1.346 1.22 2.242 2.997 2.69 5.329.419 2.184.351 4.084-.206 5.701-.704 2.045-2.108 3.27-4.213 3.674l-5.63 1.09zM212.6 411l2.365 12.313 3.688-.708c1.254-.241 2.144-.975 2.667-2.201.523-1.226.594-2.835.211-4.828-.38-1.978-1.042-3.411-1.985-4.302-.944-.891-2.076-1.209-3.396-.955l-3.54.68zM236.03 422.13l-2.031.129-4.76-16.028 2.084-.131 3.515 13.044 2.406-13.423 2.11-.134 4.048 13.027 1.866-13.404 2.134-.136-2.729 16.505-2.031.13-4.125-13.276-2.49 13.7zM256.76 405.28l-.253 16.297-1.938-.03.253-16.297 1.94.03zM266.45 415.08l-.529 6.859-1.938-.149 1.255-16.25 6.431.496c1.301.101 2.3.606 2.997 1.518.697.912.994 2.038.891 3.381-.1 1.298-.502 2.359-1.206 3.185-.837.982-1.972 1.419-3.403 1.308l-4.5-.35zm.59-7.52l-.436 5.641 3.843.297c.929.071 1.648-.086 2.159-.472.567-.427.892-1.169.973-2.227.075-.966-.143-1.697-.651-2.192-.448-.43-1.103-.678-1.966-.744l-3.91-.31zM289.72 420.1l-5.671-.987-2.292 4.412-1.96-.339 8.102-15.123 2.163.377 2.317 16.937-2.083-.363-.58-4.92zm-4.75-2.8l4.374.762-.853-7.404-3.52 6.64z" fill="#231f20"/></g><g><path d="M278.98 243.6c-2.229-3.714-7.428-2.6-8.541-2.042-.212.106-.464.17-.729.218a33.33 33.33 0 0 0 .633-5.625s-1.584.899-3.231 2.61c-.315-.613-1.357-2.362-3.192-2.846-2.236-.589-6.594-.471-6.594-.471s.199-.347-.59-1.531c-.705-1.06-3.061-1.531-3.061-1.531h-1.178s-2.355.471-3.061 1.531c-.789 1.184-.59 1.531-.59 1.531s-4.357-.118-6.594.471c-1.661.438-2.673 1.913-3.083 2.644-1.576-1.582-3.038-2.408-3.038-2.408.053 2.032.295 3.923.639 5.652-.323-.046-.626-.12-.877-.246-1.115-.557-6.314-1.672-8.543 2.042-2.229 3.714-3.156 11.328 1.672 13.556 4.828 2.228 7.242-.743 7.242-2.229 0-1.486-.186-6.128-2.785-5.942-2.599.186-2.414 1.114-2.229 2.229.185 1.115 1.299 1.3 1.299 1.3s-3.344-.371-1.857-3.342c1.487-2.971 5.758-1.114 6.686.557.93 1.671 0 5.942 1.115 7.613 1.113 1.671 4.828 2.042 5.57 2.971.742.929.373 6.128 2.414 6.128l5.088 1.667h3l5.287-1.667c2.043 0 1.672-5.199 2.414-6.128.742-.929 4.457-1.3 5.572-2.971 1.113-1.671.186-5.942 1.113-7.613.93-1.671 5.199-3.528 6.686-.557s-1.857 3.342-1.857 3.342 1.115-.186 1.301-1.3c.186-1.114.371-2.042-2.229-2.229-2.6-.187-2.785 4.457-2.785 5.942 0 1.485 2.414 4.457 7.242 2.229 4.828-2.228 3.91-9.84 1.68-13.55z" fill="#f2c008"/><path d="M279.84 243.08c-2.579-4.298-8.423-3.134-9.846-2.422-.095.047-.249.09-.457.127a1.001 1.001 0 0 1 1.158 1.179c.383-1.938.603-3.886.651-5.793a.999.999 0 1 0-1.493-.895c-.07.04-1.73.991-3.459 2.786a1 1 0 0 1 1.609.236c-.42-.816-1.634-2.778-3.826-3.355-2.348-.619-6.692-.508-6.876-.503a1 1 0 0 1 .895 1.497c.337-.586.127-1.456-.625-2.583-.89-1.336-3.235-1.864-3.696-1.957a.995.995 0 0 0-.196-.02h-1.178a.925.925 0 0 0-.196.02c-.461.092-2.807.62-3.697 1.957-.751 1.127-.961 1.996-.625 2.583a.998.998 0 0 1 .895-1.497c-.184-.005-4.528-.115-6.876.503-1.989.523-3.172 2.18-3.7 3.121a1.001 1.001 0 0 1 1.58-.216c-1.71-1.716-3.285-2.589-3.299-2.597a.999.999 0 0 0-1.447.921 34.61 34.61 0 0 0 .657 5.821 1.002 1.002 0 0 1 1.123-1.185c-.253-.037-.445-.087-.57-.149-1.426-.712-7.271-1.875-9.849 2.421-1.574 2.624-2.597 7.131-1.505 10.67.62 2.013 1.871 3.503 3.616 4.309 3.408 1.573 5.629.712 6.649.06 1.203-.77 2.012-2.054 2.012-3.196 0-2.091-.299-4.863-1.725-6.19a2.767 2.767 0 0 0-2.131-.75c-1.449.104-2.319.435-2.822 1.074-.584.742-.442 1.594-.328 2.278.245 1.474 1.452 2.048 2.127 2.16a1 1 0 0 1 .275-1.981c-.32-.039-1.061-.252-1.277-.654-.18-.335.011-.863.204-1.247.334-.668.873-1.001 1.646-1.018 1.411-.03 2.903.951 3.27 1.613.322.578.342 1.933.359 3.128.025 1.688.051 3.435.798 4.555.832 1.249 2.505 1.833 3.981 2.349.583.204 1.463.511 1.647.7a.205.205 0 0 1-.028-.039c.124.22.253 1.119.338 1.713.292 2.034.691 4.82 2.878 4.82-.106 0-.211-.017-.312-.05l5.088 1.667c.101.033.206.05.312.05h3c.102 0 .203-.016.301-.046l5.287-1.667a.995.995 0 0 1-.301.046c2.188 0 2.588-2.787 2.879-4.821.085-.594.214-1.493.338-1.712 0 0-.007.012-.021.03.178-.181 1.058-.488 1.641-.692 1.476-.516 3.149-1.1 3.982-2.349.746-1.121.772-2.867.797-4.555.019-1.196.038-2.551.358-3.128.368-.662 1.862-1.644 3.272-1.613.772.017 1.311.35 1.645 1.018.192.385.384.915.202 1.25-.226.414-1.014.623-1.275.651a1 1 0 0 1 .275 1.981c.676-.112 1.884-.686 2.123-2.122.121-.723.263-1.574-.321-2.316-.503-.639-1.374-.97-2.822-1.074a2.762 2.762 0 0 0-2.131.75c-1.427 1.327-1.726 4.099-1.726 6.19 0 1.142.809 2.427 2.012 3.196 1.021.653 3.241 1.514 6.649-.06 1.745-.806 2.995-2.295 3.615-4.307 1.09-3.52.07-8.03-1.5-10.66zm-2.95 13.17c-1.886.87-3.566.938-4.733.191-.823-.527-1.09-1.246-1.09-1.512 0-2.291.417-4.102 1.088-4.727a.763.763 0 0 1 .626-.218c1.175.084 1.392.314 1.395.317a.078.078 0 0 1-.01-.015c.039.105-.023.479-.064.726a.627.627 0 0 1-.505.52 1.012 1.012 0 0 0-.792 1.14.99.99 0 0 0 1.086.837c.206-.023 2.039-.265 2.812-1.684.328-.603.564-1.63-.17-3.1-.668-1.335-1.872-2.089-3.39-2.123-2.125-.046-4.334 1.328-5.064 2.641-.564 1.017-.586 2.5-.609 4.07-.021 1.334-.043 2.846-.462 3.476-.461.691-1.856 1.178-2.978 1.57-1.147.4-2.053.717-2.544 1.331-.412.516-.541 1.302-.733 2.648-.368 2.566-.692 3.104-.899 3.104-.102 0-.203.016-.301.046l-5.287 1.667a.995.995 0 0 1 .301-.046h-3c.105 0 .211.017.312.05l-5.088-1.667a.993.993 0 0 0-.311-.05c-.207 0-.53-.539-.898-3.104-.193-1.346-.322-2.132-.734-2.648-.491-.614-1.396-.931-2.543-1.331-1.121-.392-2.516-.879-2.977-1.57-.42-.63-.443-2.142-.462-3.475-.023-1.57-.045-3.054-.611-4.07-.729-1.312-2.937-2.686-5.062-2.641-1.519.033-2.724.787-3.392 2.123-.735 1.469-.498 2.497-.17 3.1.772 1.419 2.605 1.661 2.812 1.684a1 1 0 0 0 .275-1.981c-.082-.018-.417-.117-.477-.478-.048-.286-.11-.66-.072-.765a.046.046 0 0 1-.009.015c.002-.002.219-.233 1.394-.317a.76.76 0 0 1 .626.218c.671.625 1.088 2.436 1.088 4.727 0 .266-.266.985-1.089 1.512-1.167.747-2.849.679-4.734-.191-1.232-.569-2.087-1.606-2.542-3.082-.909-2.948-.003-6.864 1.309-9.052 1.922-3.204 6.668-1.947 7.239-1.663.321.161.708.273 1.182.341a.999.999 0 0 0 1.123-1.185 32.498 32.498 0 0 1-.62-5.483 1 1 0 1 1-1.491.897c.012.007 1.373.789 2.821 2.243a.999.999 0 0 0 1.58-.216c.3-.535 1.142-1.818 2.466-2.167 2.074-.546 6.27-.439 6.312-.438a1 1 0 0 0 .895-1.497c.129.225.109.388.109.389 0-.002.039-.257.446-.868.311-.467 1.607-.941 2.425-1.105a.995.995 0 0 1-.196.02h1.178a.925.925 0 0 1-.196-.02c.818.166 2.117.642 2.424 1.104.408.611.446.866.446.868 0-.001-.021-.164.109-.389a.998.998 0 0 0 .895 1.497c.042-.001 4.241-.107 6.312.438 1.455.383 2.326 1.885 2.559 2.336a.998.998 0 0 0 1.609.237c1.516-1.575 2.991-2.426 3.006-2.435a1 1 0 0 1-1.495-.894 32.447 32.447 0 0 1-.614 5.456 1.003 1.003 0 0 0 1.158 1.179 3.614 3.614 0 0 0 1-.308c.57-.286 5.313-1.543 7.236 1.663 1.313 2.189 2.219 6.105 1.311 9.053-.51 1.48-1.37 2.52-2.6 3.09z" fill="#5087c6"/><ellipse cx="246.18" cy="247.21" ry="2.945" rx="3.15" fill="#f2c008"/><path d="M250.33 247.21c0-1.066-.44-2.065-1.24-2.813a4.24 4.24 0 0 0-2.911-1.132c-2.289 0-4.15 1.77-4.15 3.945s1.862 3.944 4.15 3.944c1.096 0 2.13-.402 2.911-1.132.8-.76 1.24-1.76 1.24-2.82zm-4.15 1.94c-1.186 0-2.15-.872-2.15-1.944s.965-1.945 2.15-1.945c.587 0 1.136.21 1.545.593.391.365.605.845.605 1.352 0 .506-.215.986-.605 1.352-.41.39-.96.6-1.54.6z" fill="#5087c6"/><path d="M241.79 241.65s1.563-1.986 4.25-.993c2.687.993 5.125 2.863 4.625 4.206-.5 1.344-2.063.935-4.438 0-2.375-.935-5.063-.701-5.063-.701s-.24-1.71.63-2.52z" fill="#f2c008"/><path d="M242.58 242.27l-.007.008c.119-.144 1.213-1.388 3.124-.682 2.143.792 3.65 1.986 3.981 2.708.054.116.061.19.053.212-.053.143-.098.162-.116.171-.518.231-2.4-.509-3.018-.753-2.564-1.009-5.396-.777-5.516-.766a1 1 0 0 1 1.076.85c-.066-.475-.011-1.328.318-1.636.05-.04.09-.07.12-.11zm-1.32 2.89h-.001c.024-.002 2.494-.198 4.611.635 2.128.837 3.486 1.2 4.565.718.379-.169.89-.532 1.176-1.3.141-.379.236-.989-.109-1.743-.76-1.655-3.226-3.055-5.106-3.75-2.666-.985-4.687.428-5.383 1.313a.92.92 0 0 1 .104-.112c-1.223 1.143-.965 3.162-.932 3.389.07.51.54.88 1.07.84z" fill="#5087c6"/><ellipse cx="260.15" cy="247.21" ry="2.945" rx="3.15" fill="#f2c008"/><path d="M258 247.21c0-1.072.965-1.945 2.15-1.945.587 0 1.136.21 1.545.593.391.365.605.845.605 1.352 0 .506-.215.986-.605 1.352a2.25 2.25 0 0 1-1.545.593c-1.19.01-2.16-.86-2.16-1.93zm2.15 3.94c1.096 0 2.13-.402 2.91-1.132a3.82 3.82 0 0 0 1.24-2.813c0-1.067-.44-2.065-1.239-2.813a4.241 4.241 0 0 0-2.911-1.132c-2.288 0-4.15 1.77-4.15 3.945 0 2.16 1.86 3.93 4.15 3.93z" fill="#5087c6"/><g><path d="M255.95 252.58v1.041c0 .521 2.229 0 2.6-1.041s-1.115-2.777-2.414-2.777c-1.301 0-.557-1.563-.186-3.125.371-1.563-1.486-1.909-1.486-1.909h-2.605s-1.855.347-1.484 1.909 1.113 3.125-.186 3.125c-1.301 0-2.785 1.736-2.414 2.777.371 1.041 2.6 1.562 2.6 1.041v-1.041s.854 1.178 2.854 1.178 2.72-1.18 2.72-1.18z" fill="#f2c008"/><path d="M254.95 252.58v1.041c0 .494.329 1.05 1.063 1.177.908.157 2.969-.454 3.479-1.882.258-.726.074-1.612-.504-2.433-.547-.775-1.621-1.68-2.853-1.68-.03 0-.044-.002-.044-.002.125.021.29.189.31.316-.03-.202.155-.858.277-1.292.083-.295.17-.6.244-.915.163-.685.063-1.332-.288-1.873-.633-.973-1.851-1.225-1.987-1.25a1.033 1.033 0 0 0-.184-.017h-2.605c-.062 0-.123.006-.184.017-.137.025-1.353.277-1.985 1.25-.352.541-.452 1.188-.289 1.873.075.314.161.619.244.912.123.435.309 1.092.277 1.295.02-.127.185-.295.311-.316 0 0-.014.002-.044.002-1.231 0-2.306.904-2.852 1.679-.579.821-.763 1.708-.504 2.434.509 1.428 2.57 2.039 3.478 1.882.734-.127 1.063-.683 1.063-1.177v-1.041a1 1 0 0 1-1.809.587c.118.163 1.224 1.591 3.663 1.591 2.488 0 3.471-1.485 3.575-1.655a1 1 0 0 1-1.124.439c-.431-.122-.75-.51-.75-.96zm-1.72.18c-1.422 0-2.03-.749-2.056-.78a1.013 1.013 0 0 0-1.119-.333.996.996 0 0 0-.679.936v1.041c0-.485.404-.78.611-.796-.324.024-1.163-.331-1.27-.582l.002.006c-.014-.065.042-.361.344-.735.377-.467.853-.711 1.127-.711.765 0 1.185-.341 1.401-.628.58-.768.288-1.802-.021-2.896-.077-.274-.157-.558-.223-.831-.051-.213-.001-.289.02-.321.131-.201.531-.347.676-.374a1.033 1.033 0 0 1-.184.017h2.605c-.062 0-.123-.006-.184-.017.198.041.561.191.679.377.021.032.068.107.019.318-.065.274-.146.558-.224.833-.309 1.094-.601 2.126-.021 2.894.217.287.637.628 1.402.628.273 0 .748.244 1.126.711.303.374.358.67.345.735l.001-.005c-.105.25-.944.605-1.269.581.208.016.611.311.611.796v-1.041a1 1 0 0 0-1.853-.523c-.01-.01-.51.68-1.88.68z" fill="#5087c6"/></g><g><path d="M264.54 241.65s-1.563-1.986-4.25-.993c-2.687.993-5.125 2.863-4.625 4.206.5 1.344 2.063.935 4.438 0 2.375-.935 5.063-.701 5.063-.701s.25-1.71-.62-2.52z" fill="#f2c008"/><path d="M265.32 241.03c-.696-.885-2.717-2.298-5.383-1.313-1.881.695-4.347 2.094-5.106 3.75-.346.754-.25 1.364-.109 1.743.286.768.797 1.131 1.176 1.3 1.079.482 2.438.12 4.565-.718 2.117-.833 4.586-.637 4.611-.635.525.044.997-.328 1.074-.851.033-.227.291-2.246-.932-3.389.05.03.08.07.11.11zm-.07 2.13c-.119-.011-2.951-.243-5.516.766-.618.244-2.5.984-3.018.753-.02-.009-.063-.028-.116-.171-.009-.021-.001-.096.053-.212.331-.722 1.839-1.916 3.981-2.708 1.91-.706 3.005.538 3.124.682a.949.949 0 0 0 .097.104c.329.308.384 1.161.317 1.64.08-.52.56-.89 1.09-.85z" fill="#5087c6"/></g><g><ellipse cx="253.26" cy="239.03" ry="3.238" rx="2.296" fill="#f2c008"/><path d="M254.56 239.03c0 1.281-.684 2.238-1.295 2.238-.612 0-1.297-.957-1.297-2.238 0-1.281.685-2.238 1.297-2.238.61.01 1.3.96 1.3 2.24zm-1.3-4.23c-1.849 0-3.297 1.861-3.297 4.238 0 2.377 1.448 4.238 3.297 4.238 1.848 0 3.295-1.862 3.295-4.238 0-2.376-1.45-4.24-3.3-4.24z" fill="#5087c6"/></g><g><path d="M264.31 251.63c-3.156.769-3.898 4.614-3.898 4.614-.128.33-.207.625-.266.905a5.226 5.226 0 0 1-.559.288c-.625-1.439-2.148-.47-2.148.345 0 0-.012.122-.024.318-.151.031-.316.059-.481.086-.15-.331-.404-.562-.707-.562h-.727c-.374 0-.682.336-.797.797l-.136.007c-.128-.425-.432-.725-.786-.725h-1.131c-.353 0-.655.295-.784.716a6.169 6.169 0 0 1-.24-.016c-.118-.452-.424-.78-.792-.78h-.727c-.28 0-.517.199-.672.487a15.06 15.06 0 0 1-.526-.118c-.009-.132-.017-.21-.017-.21 0-.774-1.377-1.692-2.051-.549a5.11 5.11 0 0 1-.751-.47c-.049-.167-.098-.336-.169-.519 0 0-.742-3.846-3.9-4.614-3.156-.769-4.086 3.845-4.086 3.845s2.973-4.102 4.271 0c1.301 4.102 1.672 4.871 1.672 4.871s.909-.069 1.61-.638c.2.153.481.354.844.579-.716 3.332-3.94 6.979-3.94 6.979s2.229 0 4.643-2.05c1.03-.875 1.517-2.357 1.739-3.768.17.06.345.119.526.175.099.497.415.869.807.869h.727c.25 0 .469-.155.624-.394.115.016.237.023.355.037.038.599.392 1.075.837 1.075h1.131c.44 0 .79-.467.834-1.057.092-.009.183-.016.272-.026.154.223.37.365.612.365h.727c.368 0 .675-.33.792-.783.191-.054.377-.109.556-.169.229 1.384.715 2.82 1.723 3.676 2.414 2.05 4.643 2.05 4.643 2.05s-3.15-3.559-3.917-6.856c.402-.248.709-.471.913-.633.687.504 1.52.568 1.52.568s.371-.769 1.67-4.871c1.301-4.102 4.271 0 4.271 0s-.88-4.65-4.04-3.88z" fill="#f2c008"/><path d="M264.07 250.66c-3.737.91-4.608 5.214-4.644 5.396a.937.937 0 0 1 .049-.172 6.693 6.693 0 0 0-.312 1.061 1 1 0 0 1 .46-.65 4.495 4.495 0 0 1-.452.232c.244-.11.522-.118.772-.022.249.097.45.289.557.535-.52-1.197-1.516-1.455-2.274-1.297-.987.205-1.791 1.121-1.791 2.041.004-.09-.009.044-.022.253a1 1 0 0 1 .799-.916c-.136.027-.288.053-.445.08a1 1 0 0 1 1.073.572c-.327-.719-.932-1.148-1.617-1.148h-.727c-.824 0-1.534.625-1.767 1.555a1 1 0 0 1 .904-.755c-.038.002-.075.005-.113.006a.998.998 0 0 1 1 .71c-.263-.872-.946-1.436-1.743-1.436h-1.131c-.792 0-1.476.559-1.74 1.423.135-.439.552-.73 1.01-.706a8.62 8.62 0 0 1-.214-.014 1 1 0 0 1 .888.744c-.239-.914-.946-1.527-1.76-1.527h-.727c-.631 0-1.212.379-1.553 1.014a1 1 0 0 1 1.085-.506c-.151-.032-.328-.069-.488-.109a1 1 0 0 1 .755.9c-.01-.142-.019-.229-.02-.239.005-.79-.712-1.655-1.663-1.915-.893-.244-1.753.123-2.244.957a1 1 0 0 1 1.325-.378 4.1 4.1 0 0 1-.601-.374.997.997 0 0 1 .347.51 6.959 6.959 0 0 0-.196-.6c.021.056.038.113.049.171-.035-.183-.907-4.486-4.646-5.396-.997-.243-1.96-.094-2.785.431-1.866 1.187-2.457 3.885-2.518 4.188a1 1 0 0 0 1.79.785c.525-.718 1.415-1.473 1.818-1.407.131.021.424.282.69 1.122 1.285 4.053 1.683 4.918 1.725 5.003a1 1 0 0 0 .976.563c.125-.009 1.248-.114 2.165-.858a1 1 0 0 1-1.237.019c.287.219.598.432.924.634a1 1 0 0 1-.451-1.06c-.651 3.031-3.682 6.493-3.712 6.528a1.002 1.002 0 0 0 .75 1.662c.106 0 2.626-.026 5.29-2.288 1.064-.904 1.764-2.376 2.08-4.375a1 1 0 0 1-1.321.787c.2.07.385.131.563.187a.999.999 0 0 1-.685-.76c.2 1.001.918 1.673 1.787 1.673h.727c.578 0 1.11-.309 1.462-.848a1 1 0 0 1-.973.445c.091.012.178.021.254.027l.125.012a1.002 1.002 0 0 1-.887-.93c.073 1.147.861 2.012 1.835 2.012h1.131c.96 0 1.747-.853 1.831-1.983a.999.999 0 0 1-.901.921l.29-.028a1.001 1.001 0 0 1-.936-.425c.35.506.873.796 1.435.796h.727c.815 0 1.523-.616 1.76-1.532a1.001 1.001 0 0 1-.695.712c.239-.068.431-.126.602-.184a.998.998 0 0 1-1.305-.785c.321 1.948 1.016 3.387 2.062 4.275 2.663 2.262 5.184 2.288 5.29 2.288a1 1 0 0 0 .749-1.662c-.029-.034-2.993-3.414-3.692-6.42a.998.998 0 0 1-.449 1.078c.464-.285.805-.539 1.01-.7a1 1 0 0 1-1.213.021c.891.655 1.92.751 2.035.76a1 1 0 0 0 .977-.563c.041-.085.439-.951 1.723-5.003.267-.84.56-1.1.691-1.122.403-.066 1.293.689 1.818 1.408a1.002 1.002 0 0 0 1.789-.786c-.062-.304-.65-3.001-2.517-4.188-.78-.48-1.75-.63-2.75-.39zm5.13 4.23c-.305-.421-1.917-2.504-3.754-2.208-1.042.168-1.81 1.006-2.28 2.492-1.229 3.878-1.606 4.714-1.622 4.748a.99.99 0 0 1 .981-.572c.003 0-.567-.056-1.004-.377a1 1 0 0 0-1.213.021 8.417 8.417 0 0 1-.816.565.998.998 0 0 0-.449 1.078c.814 3.504 4.006 7.14 4.142 7.292a1 1 0 0 1 .749-1.662c-.069-.001-1.923-.052-3.995-1.813-.666-.565-1.145-1.629-1.384-3.077a1.001 1.001 0 0 0-1.305-.785c-.143.048-.3.096-.51.155a1 1 0 0 0-.695.711.322.322 0 0 1-.048.111.331.331 0 0 1 .224-.078h-.727c.113 0 .194.049.215.073l-.005-.007a1.002 1.002 0 0 0-.936-.425 5.101 5.101 0 0 1-.164.016c-.486.044-.956.442-.992.93a.437.437 0 0 1-.062.211.326.326 0 0 1 .225-.08h-1.131c.117 0 .202.054.223.079a.425.425 0 0 1-.062-.218 1 1 0 0 0-.887-.93l-.164-.017a3.63 3.63 0 0 1-.168-.017 1 1 0 0 0-.984.46.34.34 0 0 1 .225-.075h-.727c.121 0 .208.056.229.082a.39.39 0 0 1-.056-.147 1 1 0 0 0-.685-.76 11.656 11.656 0 0 1-.489-.163 1.004 1.004 0 0 0-1.321.787c-.235 1.491-.719 2.584-1.399 3.162-2.072 1.76-3.925 1.811-4.003 1.813a.993.993 0 0 1 .921.582c.166.36.099.784-.163 1.081.139-.157 3.406-3.885 4.168-7.432a1 1 0 0 0-.451-1.06 9.436 9.436 0 0 1-.763-.524 1 1 0 0 0-1.237.019c-.364.295-.891.402-1.063.417a.987.987 0 0 1 .984.562c-.011-.024-.389-.86-1.619-4.738-.47-1.485-1.237-2.324-2.278-2.492-1.837-.297-3.451 1.787-3.756 2.208a1 1 0 0 1 1.79.785c.123-.595.656-2.28 1.634-2.899.369-.233.761-.288 1.235-.172 2.483.604 3.149 3.803 3.156 3.835a.954.954 0 0 0 .049.168c.056.146.098.288.142.438.059.203.18.381.347.51.171.133.467.339.901.566a1 1 0 0 0 1.325-.378c.03-.051.05-.067.05-.067a.121.121 0 0 1-.068.021c.063.005.19.102.219.167 0 0-.012-.028-.012-.081.005.099.012.167.02.281a1 1 0 0 0 .755.9c.193.048.394.091.564.127a1 1 0 0 0 1.085-.506c.015-.028.025-.04.025-.04a.348.348 0 0 1-.234.08h.727a.33.33 0 0 1-.223-.078.34.34 0 0 1 .047.111 1 1 0 0 0 .888.744c.078.006.16.012.267.018a1 1 0 0 0 1.01-.706.312.312 0 0 1 .037-.081.31.31 0 0 1-.209.072h1.131a.312.312 0 0 1-.211-.072.266.266 0 0 1 .039.085 1 1 0 0 0 1.001.71l.158-.008a.998.998 0 0 0 .904-.755.332.332 0 0 1 .05-.118.328.328 0 0 1-.223.078h.727a.343.343 0 0 1-.236-.082s.015.017.033.058a1 1 0 0 0 1.073.572c.17-.028.35-.058.518-.092a1 1 0 0 0 .799-.916c.011-.175.021-.286.021-.287.005-.043-.007-.016-.007-.015.027-.063.152-.159.215-.164a.12.12 0 0 1-.067-.021s.042.035.096.158a1.001 1.001 0 0 0 1.329.513c.255-.116.479-.231.665-.344a1 1 0 0 0 .46-.65 4.7 4.7 0 0 1 .22-.749c.021-.056.038-.113.049-.172.006-.029.672-3.228 3.153-3.832.477-.116.87-.061 1.24.175.979.624 1.518 2.343 1.629 2.896a.999.999 0 0 1 .579-1.113c.41-.22.92-.08 1.19.3z" fill="#5087c6"/></g></g></g></switch></svg>