<svg xmlns="http://www.w3.org/2000/svg" height="250" width="417" version="1" viewBox="0 0 750 450"><path style="marker:none" color="#000" fill="#fff" fill-rule="evenodd" overflow="visible" d="M0 0h750v450H0z"/><g font-size="12"><path d="M495.238 326.562c-33.326 15.413-41.471 35.71-56.188 51.899-14.717 16.189-36.66 51.014-79.338 39.24-1.339-8.721-6.852-32.776-22.944-43.655-9.945-6.057-22.076-14.717-24.283-29.434-17.66 4.415-61.884 7.946-64.019-15.453-.736-8.094 6.198-20.495-1.218-29.033-1.675.053-11.06.241-13.52-.907-2.575-3.041-.033-14.107 1.833-16.565l-.02-.102c-4.406-.402-15.773-10.789-1.792-18.147 3.687-4.334 3.042-7.876 3.03-11.87-2.31.031-7.988-.034-8.818-.09-14.737-.054-12.844-9.562-8.6-19.681 2.944-6.623 19.54-38.264 22.483-42.68 2.943-4.414 2.943-6.622.735-11.037-2.207-4.415-1.471-11.774 0-16.924 1.472-5.151 4.415-13.246 2.208-15.453-2.208-2.208-1.472-9.566-.736-11.038.736-1.472.736-5.15.736-6.623 0-1.471.736-5.15 2.943-6.622 2.208-1.472 3.68-6.623 2.208-8.094-1.472-1.472.736-11.774 2.943-12.51 2.208-.736 6.623-2.207 8.83-7.358-.26-7.267 5.448-15.514 8.83-19.132 2.208-2.208 1.472-9.566 1.472-9.566l6.475.148c.705-.235 6.034-7.507 11.186-8.978 5.15-1.472 16.924-7.359 16.924-7.359l8.094-8.83 7.359 3.68s5.886-2.208 11.037-2.944c5.151-.736 16.189-4.415 19.868-10.302 3.68-5.887 2.944 7.006 3.061 7.711.47.118 6.505-3.296 16.807-2.56 10.302.736 22.075 5.15 25.755 3.68 3.679-1.472 7.358 2.943 7.358 2.943s7.358 4.415 13.245 4.415h11.038l.736 5.15s11.037 3.797 16.188 6.005c5.151 2.207 9.566 5.033 16.189 5.77 6.622.735 8.83 2.942 8.83 2.942l-2.943 5.887s7.946 1.62 10.302 9.566c4.415 5.887 10.301 15.453 14.716 16.189 4.415.736 7.359 2.943 7.359 2.943l-5.887 7.359s1.472 2.207 4.415 5.15c2.944 2.944 8.83 8.095 8.83 8.095l-3.679 6.622s0 1.472.736 5.151c.736 3.68.736 10.302 4.415 11.774 3.68 1.472 3.68 5.887 3.68 5.887s.735.735-3.68 2.207-7.358 1.472-5.15 4.415c2.207 2.944 5.886 8.095 5.886 8.095s-3.68 2.207-7.359 2.943c-3.679.736-7.358.736-7.358.736s2.943 13.98 5.887 16.188c2.943 2.208-4.415 3.68-8.83 1.472-4.416-2.207-1.657 6.623 1.287 7.358 2.943.736-1.069 1.766-4.527 1.802-2.943-.735-6.732-.22-5.04 4.122 2.208 5.886 4.6 8.793-1.286 11.737-5.887 2.943-11.223 16.188-8.28 20.603 2.944 4.415 4.6 11.038 4.6 11.038l-13.98.736s-.958 2.208 2.722 5.887c3.679 3.679 7.358 7.873 6.843 8.903.111 1.592-11.074.946-10.962 2.539 9.515 47.037 32.116 60.23 32.147 62.707l-1.79 1.253z" fill-rule="evenodd" stroke="#000" stroke-width="2.08198"/><path d="M260.78 101.25c-4.904 3.677-9.195 9.807-4.904 13.485 5.517 4.904 7.97 6.743 7.97 6.743s-9.809-3.065-11.648.613c-1.839 3.678-3.985 9.272 0 10.421 3.065 1.84 9.808 5.517 9.808 5.517s-15.325-1.839-11.647-1.226c-1.839 4.904-3.678 13.486 6.13 17.164 9.808 3.678 40.458 14.712 45.975 17.777 5.517 3.065 17.777 4.904 23.907 4.904 6.13 0 28.813 1.226 25.133 1.226l-13.486 3.678c-2.3.23 27.892 10.265 32.337 9.348 2.375-5.519 33.253-34.481 50.417 1.073 1.84 7.969-4.29 20.229-10.42 22.68-6.13 2.453-9.196 5.518-11.647 12.26-2.452 6.744-8.73 18.772-15.476 17.779-9.276-6.054-13.335-5.519-9.044-.614 4.75 6.744 15.86 7.05 21.454-1.227 4.674-5.746 8.886-20.61 18.39-24.52 4.904-1.838 11.034-13.485 11.034-13.485s8.582-.613 12.26 3.065c3.678 3.678 12.873 3.678 18.39 3.065 5.517-.613 14.79-2.681 11.724-2.681-3.065 0 8.508-.383 12.185.23 3.679.613 2.45-9.196-3.68-14.1-6.13-4.904-23.294-12.873-26.972-17.777-3.678-4.904-30.037-19.616-37.393-20.229-7.355-.613-16.55-5.517-16.55-5.517s13.794-.229 7.05-1.455c-6.742-1.226-19.923-6.514-26.666-8.966-6.743-2.452-12.26-2.452-19.616-2.452s-56.19-11.96-68.375-19.396c-9.195-3.065 43.625 12.27 49.755 12.883 10.42 1.533 13.716-.536-3.448-8.812-7.356-4.29-40.116-21.47-66.335-28.648-2.684 2.684-1.708 3.515-6.612 7.193z" fill="#fff" fill-rule="evenodd" stroke="#000" stroke-width=".2602475"/><path d="M394.635 202.165c.24.028 1.228.202 1.862.866.703.907 1.3 1.722 1.654 2.598.261 1.169.604 2.135.414 3.247-.397 1.09-.929 1.865-1.655 2.598-.819 1.012-1.415 1.524-2.275 2.165-.959.454-1.878 1.339-2.689 1.732-.388.526-1.386.914-1.861 1.516-.551.739-.977 1.106-1.034 2.165-.358 1.051-.478 2.346-.621 3.464-.203 1.228-.491 2.382-.62 3.464-.517.926-1.081 1.402-2.276 1.732-.988.175-2.01.216-3.102.216-.618-.591-1.672-1.259-2.275-1.948v-1.733" fill="none" stroke="#fff" stroke-width="5.2674094" stroke-linecap="round"/><path d="M377.396 197.334c5.291-8.51 38.415-24.153 30.364 6.211-1.84 3.22 1.61 4.6 2.53 2.3 8.512-35.884-28.063-20.932-33.814-11.501-2.3 3.91.92 3.22.92 2.99z" fill="#fff" fill-rule="evenodd" stroke="#fff" stroke-width="2.08198"/><path d="M258.011 145.578c12.422-.23 25.534.46 35.655 6.9 10.121 6.441 19.092 8.282 29.903 8.282 10.812 0 16.333.23 16.333.23" fill="none" stroke="#000" stroke-width="4.16396" stroke-linecap="round"/><path d="M410.88 164.225c20.757 8.035 24.436 10.398 33.2 16.07 8.765 5.671 12.005 6.617 19.386 11.343 5.49 3.309 8.765 7.09 8.765 7.09 4.726 3.781-20.509-14.652-36.904-10.87-5.996 0-6.919 0-12.454-6.145-5.536-6.145-11.994-11.344-21.22-15.125-9.225-3.782-25.37-9.926-25.37-9.926" fill="none" stroke="#000" stroke-width="4.11399248"/><path d="M433.946 200.146c1.258 0 6.494-.199 8.508.473 1.756.237 4.568.465 6.144.945 2.673.318 5.137.875 8.035.945 3.118.028 4.226.98 7.09 1.418.895 1.12 2.586 2.464 3.781 3.309" fill="none" stroke="#000" stroke-width="3.6434650000000004" stroke-linecap="round"/><path d="M262.447 182.726c7.622 10.512 19.303 16.275 32.07 19.01-.323 3.088-15.495 3.286-21.15 10.45" fill="none" stroke="#fff" stroke-width="4.684455000000001"/><g stroke="#000" fill="none" stroke-width="2"><path d="M547.56 61.66c.244 2.683 1.087 14.403-.081 14.535-6.617.945-11.181 2.053-16.853 7.725-5.672 5.671-18.652 15.329-26.011 2.073-3.781-7.562 5.428-11.1 10.154-11.1 4.645-.162 11.944-3.75 19.506-5.64 7.563-1.891 10.632-6.75 11.577-5.804l1.708-1.79zM577.363 90.613c1.036-.57 5.94-7.123 3.401-15.11-3.678-5.516 16.655 5.94 12.364 12.07-5.43 4.231-16.189 4.18-15.765 3.04z" stroke-width="4.16396"/><path d="M528.941 65.024c-.087-1.25-.238-12.434-.048-14.904 3.799-.57 15.048-2.201 17.5 1.477 8.72 13.175-16.676 19.74-17.289 17.9l-.163-4.473zM508.43 91.441l15.939 55.17s8.997 39.162-18.39 49.653c-8.582.613-11.647-.613-11.647-.613l2.452 13.486c12.157 12.536 19.996 9.575 30.417 5.284 10.42-4.291 10.844-4.628 16.36-7.693 5.518-3.065 13.124-20.342 13.97-25.254 2.366-12.7 10.351-37.65 34.328-90.646-4.326-.38-32.532 2.47-34.432 2.47-.95 1.52-5.385 8.766-12.216 11.63-7.503 3.064-18.31-5.77-7.356-12.874 5.353-3.411 23.115.61 22.784-8.668-.452-8.06-12.364-7.27-17.267-6.656-4.904.612-11.647 6.13-14.712 9.194-6.864 6.865-16.551 7.97-20.23 5.517z" stroke-width="4.16396"/><path d="M483.911 222.623c3.678 6.13 7.356 13.486 9.195 23.294 1.839 9.807 7.149 23.526 20.842 26.971 11.034 3.065 20.842 7.97 23.294 16.551 2.452 8.582 4.204 19.53 4.204 19.34l17.06-24.14c-.19-3.23-.319-11.094-.319-20.29-.19-13.373-10.101-16.637-19.91-20.315-9.807-3.678-20.798-8.245-23.863-13.762-3.065-5.517-10.887-15.005-15.178-18.683-4.291-3.678-15.325 11.034-15.325 11.034z" stroke-width="4.16396"/><path d="M501.942 336.417c9.475 17.038 11.645 38.916 15.541 55.216 6.762-12.842 17.288-21.997 28.384-29.204.65-12.787 3.888-30.44 7.566-35.956 17.765-25.89 5.263-40.712 5.263-40.712-17.752 20.848-18.364 35.764-56.724 50.625l-.03.03z" stroke-width="4.16396"/><path d="M485.058 389.079c-.488 4.229 5.17 18.93 14.749 19.587 9.41.645 14.838-6.593 16.558-15.054L511.65 365.2l-26.592 23.88z" stroke-width="4.16396"/></g><path d="M484.992 200.619c-1.89-5.2.945-5.2 6.145-2.836 8.507 5.199 2.363 18.433-7.09 21.269-5.2 2.363-8.035-3.781-.473-6.617 7.09-1.89 1.418-12.289 1.418-11.816h.473-.473z" fill="#fff" fill-rule="evenodd" stroke="#000" stroke-width="2.08198"/><path d="M546.437 281.5v.641c0-1.73-.031-.85.473 2.564 0 3.469.26 6.382.472 9.616 0 2.68-.317 4.599-.472 7.052M541.71 284.701v1.17c0-2.165-.062-1.553.473 1.757.19 3.298.852 5.021.945 8.194 0 3.22-.384 5.72-.472 8.78M539.347 355.176h.473c-.126.444 0 2.978 0 4.67 0 2.548-.048 5.035-.473 6.673M534.148 357.539v.945-.945.945-.945c.102 3.492.473 5.425.473 8.98 0 1.087.204 1.912-.473 2.364M529.421 360.375c.193 3.806.83 6.297.946 10.209 0 1.964-.395 2.183-.473 3.97M523.75 363.254v.597c0-1.613-.031-.792.472 2.389.086 2.935.473 4.516.473 7.764-.088 3.12-.778 4.42-.945 7.167M519.496 365.101c0 .845.255 4.121.472 6.145v6.617c-.262 2.202-.743 4.57-1.418 6.144v1.418M551.163 282.54c.12.889.82 4.279 0 6.458 0 1.926-.22 2.914-.472 4.304" fill="none" stroke="#000" stroke-width="2.602475"/><path d="M496.586 200.812c6.343 1.302 21.796 0 27.976-4.554l6.181-4.554M496.607 203.923c6.06 2.284 21.524 3.434 28.345-.09l6.821-3.523M496.098 212.198c3.253 3.904 5.53 5.856 6.506 11.061l.976 5.205M492.194 214.15c3.904 5.53 6.506 7.483 7.808 13.013l1.3 5.53M488.941 217.729c1.627 8.458 8.133 24.398 13.012 29.603l4.88 5.205" fill="none" stroke="#000" stroke-width="2.08198"/><path d="M513.334 397.403c-3.283-.425-9.669-5.727-11.102-7.63-1.433-1.906-1.538-2.708-1.538-2.708M511.064 401.71c-3.55-.86-10.459-6.674-12.01-8.64-1.552-1.966-1.866-2.479-1.866-2.479" fill="none" stroke="#000" stroke-width="2.49004808"/><path d="M509.116 405.675c-3.748-.413-11.501-6.281-13.315-8.407l-1.814-2.127" fill="none" stroke="#000" stroke-width="2.8169189400000003"/><path d="M555.677 110.942c-.479 3.947-.718 11.722.717 16.626l1.436 4.904M567.16 98.502c-2.752.957-6.819 3.11-8.134 4.904l-1.316 1.794" fill="none" stroke="#000" stroke-width="2.08198"/><path d="M533.961 102.043c5.926 10.415 4.087 44.444 2.861 48.32l-1.226 3.875" fill="none" stroke="#000" stroke-width="2.7378037"/><path d="M514.64 80.936c-2.44.813-7.482 4.798-7.888 6.994M518.544 83.782c-2.44.814-7.482 4.799-7.889 6.994" fill="none" stroke="#000" stroke-width="2.08198"/><path d="M269.975 192.182c-4.832-.26-5.224 13.75 1.003 13.426M270.989 192.182c4.831-.26 5.223 13.75-1.003 13.426" fill="none" stroke="#feffff" stroke-width="3.0188710000000003"/><path d="M270.66 192.462l-.166 11.74" fill="none" stroke="#feffff" stroke-width="7.436832560000001"/></g></svg>