<svg xmlns="http://www.w3.org/2000/svg" width="500" height="250" viewBox="0 0 600 300"><path fill="#de0000" d="M0 0h600v300H0z"/><path fill="#093" d="M0 112.5h600v75H0z"/><path d="M75.013 14.753l-.938 2.893-2.411 7.42H60.816l2.464 1.795 6.321 4.58-2.411 7.393-.937 2.893 2.464-1.794 6.294-4.554 6.294 4.554 2.464 1.794-.937-2.893-2.411-7.419 6.294-4.553 2.464-1.795h-10.82l-2.411-7.42zm0 6.402l1.688 5.196.214.697H83.076l-4.393 3.187-.589.429.241.696 1.688 5.196-4.42-3.214-.589-.429-.589.429-4.42 3.214 1.688-5.196.214-.696-.563-.429-4.393-3.187H73.112l.214-.697 1.687-5.196z" fill="gold"/><g fill-rule="evenodd" overflow="visible"><path d="M62.174 56.028L48.59 68.968l7.245 7.246 6.257-6.299c12.2 12.384 21.684 22.012 33.466 33.97 3.262 3.381 8.942-1.217 5.304-5.122-12.448-12.13-21.075-20.887-34.044-33.605l7.689-7.734z" fill="gold"/><path d="M61.716 92.329c24.305 22.548 63.692-18.11 13.356-47.575 37.46 41.617 1.498 54.375-11.524 41.537l-.656-.542-1.595 1.79c-1.009-.952-2.576-1.232-3.058.396-1.982-.137-3.145.962-3.664 3.02-3.688 2.442-7.68 4.585-9.973 8.421-1.312 4.058 1.282 5.822 4.216 5.486 4.81-1.997 6.296-6.316 8.87-9.879 1.819-.579 3.36-1.358 3.642-3.014" fill="gold"/></g></svg>