<svg xmlns="http://www.w3.org/2000/svg" width="373" height="250" viewBox="0 0 686 460"><path fill="#ec1a23" d="M0 0h686v196H0z"/><path fill="#fdf100" d="M0 196h686v70H0z"/><path fill="#283595" d="M0 266h685.794v194H0z"/><g stroke="#000"><path d="M42.285 170.616l.088-52.16h-2.11l.087-4.134h1.935l.088-19.527 2.375-.088.176-21.199-6.949-9.235-.088-19.791h9.5l-.088 9.94 4.838.087.088-10.115 8.884.088v9.763h3.958l-.176-9.94 10.203.089v19.439l-7.212 10.291.176 20.583 16.734.022.066 12.754 5.41.022-.176-12.622h17.306l.022 12.666 5.959.066-.088-12.82 17.878.044v12.754h5.761V94.817l16.69-.066-.131-20.825-7.213-10.203.044-19.131h9.478l.088 9.807 4.837.022-.022-9.873 8.796.021.066 9.786 4.069.044-.022-9.83 9.631.044.022 19.594-6.795 9.83.132 20.648 2.793.022.088 19.79 1.363.023.066 3.782-1.539.044.088.022-.022 53.04-53.15-.307.02-37.195-.253-3.564-1.326-4.028-3.43-3.124-3.88-2.896-5.075-1.1-4.694.059-4.86 1.17-3.484 3.04-3 3.65-1.508 3.876-.086 2.497v37.433l-52.426-.303z" fill="#fff" stroke-width=".98515"/><path d="M67.946 94.595l-1.058.063.063 13.123-5.971-.062V94.533l-16.234.125M153.513 94.758l1.042-.023-.03 12.86h5.535l-.062-12.751 16.606-.062M133.57 170.968l-.088-3.342h-7.3l8.092-.088v-4.662l-8.18.088 7.124-.088v-4.838l-6.86-.088 7.74-.132-.022-4.024h-7.916 7.014v-4.838l-6.97-.044 8.048.044.022-4.926-8.18.022 7.058-.022-.022-4.991h-7.058l8.114-.022-.066-4.75-8.005-.022 5.982-.022.066-5.982-6.135 2.331 7.432-2.836-3.078-5.454-6.158 4.376 4.794-3.474-3.628-4.42-4.53 4.2 5.937-5.542-5.585-3.958-3.475 6.883 2.925-5.805-6.641-1.518-1.583 6.18 2.067-7.873-4.244.022m-22.94 59.263l.088-2.99h7.3l-8.092-.088v-4.662l8.18.088-7.124-.088v-4.838l6.86-.088-7.74-.132.022-4.024h7.916-7.014v-4.838l6.97-.044-8.048.044-.022-4.926 8.18.022-7.058-.022.022-4.991h7.058l-8.114-.022.066-4.75 8.004-.022-5.98-.022-.067-5.982 6.135 2.331-7.432-2.836 3.078-5.454 6.158 4.376-4.794-3.474 3.628-4.42 4.53 4.2-5.937-5.542 5.585-3.958 3.475 6.883-2.925-5.805 6.64-1.518 1.584 6.18-2.067-7.873 4.244.022m69.02 7.015l-53.655.132m53.392-4.002l-56.339.176m-80.763 3.782h52.908m-52.732-4.134l55.415.264" fill="none" stroke-width=".98515"/><path d="M103.77 107.9l.087 5.718M90.4 108.077v6.245m-13.37-6.333l.088 6.949m-13.722-6.861l-.088 6.509m-12.754-6.51v6.158m66.585-6.333l-.088 5.717m13.458-5.541v6.245m13.37-6.333l-.088 6.949m13.722-6.861l.088 6.509m12.754-6.51v6.158m-86.134 53.128l.088 3.87m-14.426-3.87v3.694m7.389-10.467l.176 6.773m6.509-13.282v6.685m-13.81-6.51l-.088 6.422m-6.685.264l.088 6.509m-6.597-.088l.088 3.694m-6.509-10.291l-.088 6.42m6.51-13.105l-.089 6.773m-6.42-12.755l-.177 6.158m13.106-6.334v6.334m13.722-6.333l.176 6.42m6.86-13.457v6.86m-7.036-13.105v6.157m6.861-12.754l.088 6.685m-13.898-6.685l.088 6.772m-13.37-6.597v6.246m-6.42-13.106l-.089 6.86m13.018-6.772l-.088 6.597m13.898-6.685v6.773m6.86-9.676l.089 2.727m-13.81-2.64l.088 2.64m-13.546-2.64l.088 2.816m13.194 19.615v6.773m-13.37-6.861v7.037m-6.069-13.458v6.333m12.666-6.157l.088 6.42m73.292 26.3l-.088 3.87m14.426-3.87v3.695m-7.389-10.467l-.176 6.773m-6.509-13.282v6.685m13.81-6.51l.088 6.422m6.685.264l-.088 6.509m6.597-.088l-.088 3.694m6.509-10.291l.088 6.42m-6.51-13.105l.089 6.773m6.42-12.755l.177 6.158m-13.106-6.334v6.334m-13.722-6.333l-.176 6.42m-6.86-13.457v6.86m7.036-13.105v6.157m-6.86-12.754l-.089 6.685m13.898-6.685l-.088 6.772m13.37-6.597v6.246m6.42-13.106l.089 6.86m-13.018-6.772l.088 6.597m-13.898-6.685v6.773m-6.86-9.676l-.089 2.727m13.81-2.64l-.088 2.64m13.546-2.64l-.088 2.816m-13.194 19.615v6.773m13.37-6.861v7.037m6.069-13.458v6.333m-12.666-6.157l-.088 6.42M97.13 101.569l.044 6.53m-26.432-6.53v6.465m-13.458-6.553l-.066 6.64m67.046-6.552l-.044 6.487m26.432-6.487v6.553m13.458-6.641v6.729m14.96 59.063l-44.587.264m44.765-6.773h-45.835m45.746-6.42h-45.122m45.033-6.333h-44.498m44.498-6.948l-45.836-.088m45.836-6.42l-44.855.175m44.766-6.42l-46.46-.176m46.722-6.685l-51.448-.176m-85.422 46.002l43.98.264m-44.156-6.773H87.41m-45.124-6.421h44.508m-44.42-6.334h43.892m-43.892-6.948l45.212-.088m-45.212-6.421l44.244.176m-44.156-6.422l45.827-.175m-45.739-6.685l50.401-.176m24.418-26.652l-.088 7.037m26.884-7.037l-.088 7.037m26.786-7.037l-.088 7.037m-66.99-7.037l.087 7.037m-26.884-7.037l.088 7.037M50.29 94.619l.088 7.037m-8.049 6.42l137.163.012m-19.212-6.457l19.03-.014m-42.182.015l17.097-.016m-40.452.109l17.097-.016m-40.359-.046l17.098-.016m-40.73.048l18.242-.267m-42.81.391l18.242-.266m.418 4.806l6.112-.079m-6.298-5.27l6.112-.079m-6.112-4.834l6.112-.08m-4.706-.102l.132 5.21m-6.135-10.108l.155 3.499m-.185-13.82l.127 5.097m-.085-15.26l.131 4.752m5.798 10.43l.131 5.21m-12.078-5.114l.132 5.21M62.04 75.337l.131 5.21m-12.078-5.114l.132 5.21M62.129 65.22l.131 5.21m-12.078-5.113l.132 5.21m17.584-9.889l.132 4.751M56.2 60.374l.131 4.751M44.237 60.55l.132 4.751m17.768-9.852l.131 4.75m-12.094-4.662l.132 4.75m17.944-9.852l.132 4.751m-12.138-4.751l.131 4.751m-12.05-4.751l.132 4.751m.48 35.984l23.004-.24M45 86.07l23.003-.24M45.062 80.66l23.004-.24m-23.253-4.798l23.004-.24M42.989 70.76l27.585-.219M38.71 65.335l34.775-.193m-35.518-4.6l37.07-.186m-37.132-4.945l37.07-.186m-9.704-4.79l6.343-.083 3.111-.04m-22.915 0l9.454-.125m-23.36.31l9.455-.124m112.927 55.977l-6.112-.079m6.298-5.27l-6.112-.079m6.112-4.834l-6.112-.08m4.706-.102l-.131 5.21m6.134-10.108l-.155 3.499m.185-13.82l-.126 5.097m.085-15.26l-.132 4.752m-5.798 10.43l-.131 5.21m12.078-5.114l-.132 5.21m-11.727-15.685l-.131 5.21m12.078-5.114l-.132 5.21m-11.903-15.422l-.131 5.21m12.078-5.113l-.132 5.21m-17.584-9.889l-.132 4.751m11.83-5.015l-.131 4.751m12.094-4.575l-.131 4.751M159.12 55.44l-.131 4.75m12.094-4.663l-.132 4.752m-17.944-9.853l-.132 4.75m12.139-4.75l-.132 4.75m12.05-4.75l-.131 4.75m-.481 35.985l-22.696-.24m22.633-4.86l-22.63-.262m22.568-5.15l-22.586-.173m22.835-4.864l-23.004-.24m24.829-4.622l-27.08-.197m31.358-5.227l-35.148-.193m35.891-4.6l-37.07-.186m37.133-4.945l-37.07-.186m9.703-4.79l-6.343-.083-3.111-.041m22.915 0l-8.948-.036m22.854.223l-9.454-.125" fill="none" stroke-width=".492575"/><path d="M111.401 35.097c10.416.025 10.788 10.423 4.012 11.995 2.724-3.655 2.864-6.058 2.058-8.003.167 2.268-.335 3.932-2.432 4.157 1.614-6.003-3.721-5.331-4.2-5.924l.562-2.225z" fill="#ffd211" stroke-width=".188"/><g fill="#ffd211"><path d="M109.556 23.955h.575v-1.36l.793-.008-.004-.75-.805-.008-.004-.88-.579-.003.008.886-.87-.008.015.747.863.008.008 1.376zM113.269 35.026l2.419-3.65c4.704-5.145-3.445-9.226-5.805-4.662-2.821-4.46-10.412-.808-5.63 4.75l2.331 3.529 6.685.033z" stroke-width=".19703"/><path d="M110.932 24.957a1.097 1.097 0 1 1-2.194.001 1.097 1.097 0 0 1 2.194 0z" stroke-width=".2226439"/><path d="M104.341 31.551l11.171-.087M108.036 35.029h3.818l.1 37.936c-1.126.147-2.925.12-3.81-.093 0-13.75-.059-21.553-.108-37.843z" stroke-width=".19703"/></g><path d="M117.596 59.564c-3.8.409-2.909-5.241 1.746-4.323 3.534 1.212 5.75 5.686 5.185 8.77-5.806 31.72-50.787-6.214-16.452-14.258l.042 1.58c-12.565 2.8-11.388 23.813 6.485 18.875l-.166 2.494c2.964-.074 12.597-10.554 2.578-15.466-.364.637.073 1.474.582 2.328z" fill="#ffd211" stroke-width=".188"/><path d="M108.137 62.277c-2.146 3.34-7.912 12.608-11.994 6.101-.82 2.771 2.772 10.742 11.994-4.583-.04-.035.016-1.517 0-1.518zM111.92 50.834c3.31-.282 2.154 2.365.022 2.453-11.138 1.907-9.467-9.507-5.863-11.808l-2.245-.956c1.401-1.015 2.9-3.24 4.2-3.035l.01-2.401c-1.383.17-2.712 1.36-3.877 2.734l.125-3.077c-3.217 4.564-4.56 7.899-4.275 10.276 2.504 20.86 26.948 4.536 11.873 4.483l.031 1.33z" fill="#ffd211" stroke-width=".188"/></g></svg>